solid OpenSCAD_Model
  facet normal -1 0 0
    outer loop
      vertex -15.75 32.599998474121094 -100
      vertex -15.75 32.599998474121094 -86
      vertex -15.75 51.698490142822266 -96
    endloop
  endfacet
  facet normal -1 0 0
    outer loop
      vertex -15.75 32.599998474121094 -100
      vertex -15.75 51.698490142822266 -96
      vertex -15.75 57.166324615478516 -100
    endloop
  endfacet
  facet normal 0 0 -1
    outer loop
      vertex -15.75 32.599998474121094 -100
      vertex -15.75 57.166324615478516 -100
      vertex -11.051813125610352 55.318359375 -100
    endloop
  endfacet
  facet normal 0 -1 0
    outer loop
      vertex -15.75 32.599998474121094 -100
      vertex -13.75 32.599998474121094 -96.25
      vertex -15.75 32.599998474121094 -86
    endloop
  endfacet
  facet normal 0 0 -1
    outer loop
      vertex -15.75 32.599998474121094 -100
      vertex -11.051813125610352 55.318359375 -100
      vertex -10.781567573547363 55.137786865234375 -100
    endloop
  endfacet
  facet normal 0 0 -1
    outer loop
      vertex -15.75 32.599998474121094 -100
      vertex -10.781567573547363 55.137786865234375 -100
      vertex -10.481287002563477 55.01340866088867 -100
    endloop
  endfacet
  facet normal 0 0 -1
    outer loop
      vertex -15.75 32.599998474121094 -100
      vertex -10.481287002563477 55.01340866088867 -100
      vertex -10.16250991821289 54.95000076293945 -100
    endloop
  endfacet
  facet normal 0 0 -1
    outer loop
      vertex -15.75 32.599998474121094 -100
      vertex -10.16250991821289 54.95000076293945 -100
      vertex -4.25 52.599998474121094 -100
    endloop
  endfacet
  facet normal 0 0 -1
    outer loop
      vertex -15.75 32.599998474121094 -100
      vertex -4.25 52.599998474121094 -100
      vertex 18.75 32.599998474121094 -100
    endloop
  endfacet
  facet normal 0 -1 0
    outer loop
      vertex -15.75 32.599998474121094 -100
      vertex -0.75 32.599998474121094 -96.25
      vertex -13.75 32.599998474121094 -96.25
    endloop
  endfacet
  facet normal 0 -1 0
    outer loop
      vertex -15.75 32.599998474121094 -100
      vertex 18.75 32.599998474121094 -100
      vertex -0.75 32.599998474121094 -96.25
    endloop
  endfacet
  facet normal -1 0 0
    outer loop
      vertex -15.75 32.599998474121094 -86
      vertex -15.75 51.698490142822266 -86
      vertex -15.75 51.698490142822266 -96
    endloop
  endfacet
  facet normal 0 -1 0
    outer loop
      vertex -15.75 32.599998474121094 -86
      vertex -13.75 32.599998474121094 -96.25
      vertex -13.75 32.599998474121094 -86
    endloop
  endfacet
  facet normal 0 0 1
    outer loop
      vertex -15.75 32.599998474121094 -86
      vertex -13.75 32.599998474121094 -86
      vertex -13.75 50.599998474121094 -86
    endloop
  endfacet
  facet normal 0 0 1
    outer loop
      vertex -15.75 32.599998474121094 -86
      vertex -13.75 50.599998474121094 -86
      vertex -15.75 51.698490142822266 -86
    endloop
  endfacet
  facet normal -0.9807847829772929 0.1950928227285273 0
    outer loop
      vertex -15.75 51.698490142822266 -96
      vertex -15.75 51.698490142822266 -86
      vertex -15.711569786071777 51.89168930053711 -86
    endloop
  endfacet
  facet normal -1 0 0
    outer loop
      vertex -15.75 51.698490142822266 -96
      vertex -15.75 57.166324615478516 -96
      vertex -15.75 57.166324615478516 -100
    endloop
  endfacet
  facet normal 0 0 1
    outer loop
      vertex -15.75 51.698490142822266 -96
      vertex -15.711569786071777 51.89168930053711 -96
      vertex -15.75 57.166324615478516 -96
    endloop
  endfacet
  facet normal -0.9807847829772929 0.1950928227285273 0
    outer loop
      vertex -15.75 51.698490142822266 -96
      vertex -15.711569786071777 51.89168930053711 -86
      vertex -15.711569786071777 51.89168930053711 -96
    endloop
  endfacet
  facet normal 0 0 1
    outer loop
      vertex -15.75 51.698490142822266 -86
      vertex -15.636188507080078 52.07367706298828 -86
      vertex -15.711569786071777 51.89168930053711 -86
    endloop
  endfacet
  facet normal 0 0 1
    outer loop
      vertex -15.75 51.698490142822266 -86
      vertex -15.526750564575195 52.23746109008789 -86
      vertex -15.636188507080078 52.07367706298828 -86
    endloop
  endfacet
  facet normal 0 0 1
    outer loop
      vertex -15.75 51.698490142822266 -86
      vertex -15.387462615966797 52.37675094604492 -86
      vertex -15.526750564575195 52.23746109008789 -86
    endloop
  endfacet
  facet normal 0 0 1
    outer loop
      vertex -15.75 51.698490142822266 -86
      vertex -15.223676681518555 52.48618698120117 -86
      vertex -15.387462615966797 52.37675094604492 -86
    endloop
  endfacet
  facet normal 0 0 1
    outer loop
      vertex -15.75 51.698490142822266 -86
      vertex -15.041688919067383 52.56156921386719 -86
      vertex -15.223676681518555 52.48618698120117 -86
    endloop
  endfacet
  facet normal 0 0 1
    outer loop
      vertex -15.75 51.698490142822266 -86
      vertex -14.848490715026855 52.599998474121094 -86
      vertex -15.041688919067383 52.56156921386719 -86
    endloop
  endfacet
  facet normal 0 0 1
    outer loop
      vertex -15.75 51.698490142822266 -86
      vertex -13.75 50.599998474121094 -86
      vertex -14.848490715026855 52.599998474121094 -86
    endloop
  endfacet
  facet normal -0.9807851948503052 0.19509075211923502 0
    outer loop
      vertex -15.75 57.166324615478516 -100
      vertex -15.75 57.166324615478516 -96
      vertex -15.529029846191406 58.27721405029297 -96
    endloop
  endfacet
  facet normal 0 0 -1
    outer loop
      vertex -15.75 57.166324615478516 -100
      vertex -15.529029846191406 58.27721405029297 -100
      vertex -11.649999618530273 56.762508392333984 -100
    endloop
  endfacet
  facet normal -0.9807851948503052 0.19509075211923502 0
    outer loop
      vertex -15.75 57.166324615478516 -100
      vertex -15.529029846191406 58.27721405029297 -96
      vertex -15.529029846191406 58.27721405029297 -100
    endloop
  endfacet
  facet normal 0 0 -1
    outer loop
      vertex -15.75 57.166324615478516 -100
      vertex -11.649999618530273 56.4374885559082 -100
      vertex -11.586590766906738 56.11871337890625 -100
    endloop
  endfacet
  facet normal 0 0 -1
    outer loop
      vertex -15.75 57.166324615478516 -100
      vertex -11.649999618530273 56.762508392333984 -100
      vertex -11.649999618530273 56.4374885559082 -100
    endloop
  endfacet
  facet normal 0 0 -1
    outer loop
      vertex -15.75 57.166324615478516 -100
      vertex -11.586590766906738 56.11871337890625 -100
      vertex -11.462210655212402 55.81843185424805 -100
    endloop
  endfacet
  facet normal 0 0 -1
    outer loop
      vertex -15.75 57.166324615478516 -100
      vertex -11.462210655212402 55.81843185424805 -100
      vertex -11.281638145446777 55.548187255859375 -100
    endloop
  endfacet
  facet normal 0 0 -1
    outer loop
      vertex -15.75 57.166324615478516 -100
      vertex -11.281638145446777 55.548187255859375 -100
      vertex -11.051813125610352 55.318359375 -100
    endloop
  endfacet
  facet normal 0 0 1
    outer loop
      vertex -15.75 57.166324615478516 -96
      vertex -15.711569786071777 51.89168930053711 -96
      vertex -15.636188507080078 52.07367706298828 -96
    endloop
  endfacet
  facet normal 0 0 1
    outer loop
      vertex -15.75 57.166324615478516 -96
      vertex -15.636188507080078 52.07367706298828 -96
      vertex -15.526750564575195 52.23746109008789 -96
    endloop
  endfacet
  facet normal 0 0 1
    outer loop
      vertex -15.75 57.166324615478516 -96
      vertex -15.526750564575195 52.23746109008789 -96
      vertex -15.387462615966797 52.37675094604492 -96
    endloop
  endfacet
  facet normal 0 0 1
    outer loop
      vertex -15.75 57.166324615478516 -96
      vertex -15.387462615966797 52.37675094604492 -96
      vertex -15.223676681518555 52.48618698120117 -96
    endloop
  endfacet
  facet normal 0 0 1
    outer loop
      vertex -15.75 57.166324615478516 -96
      vertex -15.223676681518555 52.48618698120117 -96
      vertex -15.041688919067383 52.56156921386719 -96
    endloop
  endfacet
  facet normal 0 0 1
    outer loop
      vertex -15.75 57.166324615478516 -96
      vertex -15.041688919067383 52.56156921386719 -96
      vertex -14.848490715026855 52.599998474121094 -96
    endloop
  endfacet
  facet normal 0 0 1
    outer loop
      vertex -15.75 57.166324615478516 -96
      vertex -14.848490715026855 52.599998474121094 -96
      vertex -11.586590766906738 56.11871337890625 -96
    endloop
  endfacet
  facet normal 0 0 1
    outer loop
      vertex -15.75 57.166324615478516 -96
      vertex -11.649999618530273 56.4374885559082 -96
      vertex -11.649999618530273 56.762508392333984 -96
    endloop
  endfacet
  facet normal 0 0 1
    outer loop
      vertex -15.75 57.166324615478516 -96
      vertex -11.649999618530273 56.762508392333984 -96
      vertex -15.529029846191406 58.27721405029297 -96
    endloop
  endfacet
  facet normal 0 0 1
    outer loop
      vertex -15.75 57.166324615478516 -96
      vertex -11.586590766906738 56.11871337890625 -96
      vertex -11.649999618530273 56.4374885559082 -96
    endloop
  endfacet
  facet normal -0.9238804665521445 0.38268117738319934 0
    outer loop
      vertex -15.711569786071777 51.89168930053711 -96
      vertex -15.711569786071777 51.89168930053711 -86
      vertex -15.636188507080078 52.07367706298828 -86
    endloop
  endfacet
  facet normal -0.9238804665521445 0.38268117738319934 0
    outer loop
      vertex -15.711569786071777 51.89168930053711 -96
      vertex -15.636188507080078 52.07367706298828 -86
      vertex -15.636188507080078 52.07367706298828 -96
    endloop
  endfacet
  facet normal -0.8314673742276486 0.5555735825207848 0
    outer loop
      vertex -15.636188507080078 52.07367706298828 -96
      vertex -15.636188507080078 52.07367706298828 -86
      vertex -15.526750564575195 52.23746109008789 -86
    endloop
  endfacet
  facet normal -0.8314673742276486 0.5555735825207848 0
    outer loop
      vertex -15.636188507080078 52.07367706298828 -96
      vertex -15.526750564575195 52.23746109008789 -86
      vertex -15.526750564575195 52.23746109008789 -96
    endloop
  endfacet
  facet normal -0.9238794224576587 0.38268369805794306 0
    outer loop
      vertex -15.529029846191406 58.27721405029297 -100
      vertex -15.529029846191406 58.27721405029297 -96
      vertex -15.095582962036133 59.323646545410156 -96
    endloop
  endfacet
  facet normal 0 0 -1
    outer loop
      vertex -15.529029846191406 58.27721405029297 -100
      vertex -15.095582962036133 59.323646545410156 -100
      vertex -11.649999618530273 56.762508392333984 -100
    endloop
  endfacet
  facet normal -0.9238794224576587 0.38268369805794306 0
    outer loop
      vertex -15.529029846191406 58.27721405029297 -100
      vertex -15.095582962036133 59.323646545410156 -96
      vertex -15.095582962036133 59.323646545410156 -100
    endloop
  endfacet
  facet normal 0 0 1
    outer loop
      vertex -15.529029846191406 58.27721405029297 -96
      vertex -11.649999618530273 56.762508392333984 -96
      vertex -11.586590766906738 57.0812873840332 -96
    endloop
  endfacet
  facet normal 0 0 1
    outer loop
      vertex -15.529029846191406 58.27721405029297 -96
      vertex -11.586590766906738 57.0812873840332 -96
      vertex -15.095582962036133 59.323646545410156 -96
    endloop
  endfacet
  facet normal -0.7071116225433001 0.7071019397966475 0
    outer loop
      vertex -15.526750564575195 52.23746109008789 -96
      vertex -15.526750564575195 52.23746109008789 -86
      vertex -15.387462615966797 52.37675094604492 -86
    endloop
  endfacet
  facet normal -0.7071116225433001 0.7071019397966475 0
    outer loop
      vertex -15.526750564575195 52.23746109008789 -96
      vertex -15.387462615966797 52.37675094604492 -86
      vertex -15.387462615966797 52.37675094604492 -96
    endloop
  endfacet
  facet normal -0.5555624154559882 0.8314748357783944 0
    outer loop
      vertex -15.387462615966797 52.37675094604492 -96
      vertex -15.387462615966797 52.37675094604492 -86
      vertex -15.223676681518555 52.48618698120117 -96
    endloop
  endfacet
  facet normal -0.5555624154559882 0.8314748357783944 0
    outer loop
      vertex -15.387462615966797 52.37675094604492 -86
      vertex -15.223676681518555 52.48618698120117 -86
      vertex -15.223676681518555 52.48618698120117 -96
    endloop
  endfacet
  facet normal -0.3826853097993421 0.9238787548503221 0
    outer loop
      vertex -15.223676681518555 52.48618698120117 -96
      vertex -15.223676681518555 52.48618698120117 -86
      vertex -15.041688919067383 52.56156921386719 -96
    endloop
  endfacet
  facet normal -0.3826853097993421 0.9238787548503221 0
    outer loop
      vertex -15.223676681518555 52.48618698120117 -86
      vertex -15.041688919067383 52.56156921386719 -86
      vertex -15.041688919067383 52.56156921386719 -96
    endloop
  endfacet
  facet normal -0.8314697768613165 0.555569986739918 0
    outer loop
      vertex -15.095582962036133 59.323646545410156 -100
      vertex -15.095582962036133 59.323646545410156 -96
      vertex -14.466316223144531 60.265411376953125 -96
    endloop
  endfacet
  facet normal 0 0 -1
    outer loop
      vertex -15.095582962036133 59.323646545410156 -100
      vertex -14.466316223144531 60.265411376953125 -100
      vertex -11.649999618530273 56.762508392333984 -100
    endloop
  endfacet
  facet normal -0.8314697768613165 0.555569986739918 0
    outer loop
      vertex -15.095582962036133 59.323646545410156 -100
      vertex -14.466316223144531 60.265411376953125 -96
      vertex -14.466316223144531 60.265411376953125 -100
    endloop
  endfacet
  facet normal 0 0 1
    outer loop
      vertex -15.095582962036133 59.323646545410156 -96
      vertex -11.586590766906738 57.0812873840332 -96
      vertex -11.462210655212402 57.381568908691406 -96
    endloop
  endfacet
  facet normal 0 0 1
    outer loop
      vertex -15.095582962036133 59.323646545410156 -96
      vertex -11.462210655212402 57.381568908691406 -96
      vertex -14.466316223144531 60.265411376953125 -96
    endloop
  endfacet
  facet normal -0.1950890919691262 0.9807855250739898 0
    outer loop
      vertex -15.041688919067383 52.56156921386719 -96
      vertex -15.041688919067383 52.56156921386719 -86
      vertex -14.848490715026855 52.599998474121094 -96
    endloop
  endfacet
  facet normal -0.1950890919691262 0.9807855250739898 0
    outer loop
      vertex -15.041688919067383 52.56156921386719 -86
      vertex -14.848490715026855 52.599998474121094 -86
      vertex -14.848490715026855 52.599998474121094 -96
    endloop
  endfacet
  facet normal 0 1 0
    outer loop
      vertex -14.848490715026855 52.599998474121094 -96
      vertex -14.848490715026855 52.599998474121094 -86
      vertex -4.25 52.599998474121094 -96
    endloop
  endfacet
  facet normal 0 0 1
    outer loop
      vertex -14.848490715026855 52.599998474121094 -96
      vertex -11.462210655212402 55.81843185424805 -96
      vertex -11.586590766906738 56.11871337890625 -96
    endloop
  endfacet
  facet normal 0 0 1
    outer loop
      vertex -14.848490715026855 52.599998474121094 -96
      vertex -11.281638145446777 55.548187255859375 -96
      vertex -11.462210655212402 55.81843185424805 -96
    endloop
  endfacet
  facet normal 0 0 1
    outer loop
      vertex -14.848490715026855 52.599998474121094 -96
      vertex -11.051813125610352 55.318359375 -96
      vertex -11.281638145446777 55.548187255859375 -96
    endloop
  endfacet
  facet normal 0 0 1
    outer loop
      vertex -14.848490715026855 52.599998474121094 -96
      vertex -10.781567573547363 55.137786865234375 -96
      vertex -11.051813125610352 55.318359375 -96
    endloop
  endfacet
  facet normal 0 0 1
    outer loop
      vertex -14.848490715026855 52.599998474121094 -96
      vertex -10.481287002563477 55.01340866088867 -96
      vertex -10.781567573547363 55.137786865234375 -96
    endloop
  endfacet
  facet normal 0 0 1
    outer loop
      vertex -14.848490715026855 52.599998474121094 -96
      vertex -10.16250991821289 54.95000076293945 -96
      vertex -10.481287002563477 55.01340866088867 -96
    endloop
  endfacet
  facet normal 0 0 1
    outer loop
      vertex -14.848490715026855 52.599998474121094 -96
      vertex -9.837489128112793 54.95000076293945 -96
      vertex -10.16250991821289 54.95000076293945 -96
    endloop
  endfacet
  facet normal 0 0 1
    outer loop
      vertex -14.848490715026855 52.599998474121094 -96
      vertex -4.25 52.599998474121094 -96
      vertex -9.837489128112793 54.95000076293945 -96
    endloop
  endfacet
  facet normal 0 0 1
    outer loop
      vertex -14.848490715026855 52.599998474121094 -86
      vertex -13.75 50.599998474121094 -86
      vertex 17.848491668701172 52.599998474121094 -86
    endloop
  endfacet
  facet normal 0 1 0
    outer loop
      vertex -14.848490715026855 52.599998474121094 -86
      vertex 17.848491668701172 52.599998474121094 -86
      vertex -4.25 52.599998474121094 -96
    endloop
  endfacet
  facet normal -0.7071059392008077 0.7071076231712847 0
    outer loop
      vertex -14.466316223144531 60.265411376953125 -100
      vertex -14.466316223144531 60.265411376953125 -96
      vertex -13.665410995483398 61.066314697265625 -100
    endloop
  endfacet
  facet normal 0 0 -1
    outer loop
      vertex -14.466316223144531 60.265411376953125 -100
      vertex -13.665410995483398 61.066314697265625 -100
      vertex -11.649999618530273 56.762508392333984 -100
    endloop
  endfacet
  facet normal -0.7071059392008077 0.7071076231712847 0
    outer loop
      vertex -14.466316223144531 60.265411376953125 -96
      vertex -13.665410995483398 61.066314697265625 -96
      vertex -13.665410995483398 61.066314697265625 -100
    endloop
  endfacet
  facet normal 0 0 1
    outer loop
      vertex -14.466316223144531 60.265411376953125 -96
      vertex -11.462210655212402 57.381568908691406 -96
      vertex -11.281638145446777 57.65181350708008 -96
    endloop
  endfacet
  facet normal 0 0 1
    outer loop
      vertex -14.466316223144531 60.265411376953125 -96
      vertex -11.281638145446777 57.65181350708008 -96
      vertex -13.665410995483398 61.066314697265625 -96
    endloop
  endfacet
  facet normal 1 0 0
    outer loop
      vertex -13.75 32.599998474121094 -96.25
      vertex -13.75 50.599998474121094 -96.25
      vertex -13.75 32.599998474121094 -86
    endloop
  endfacet
  facet normal 0 0 1
    outer loop
      vertex -13.75 32.599998474121094 -96.25
      vertex -0.75 32.599998474121094 -96.25
      vertex -13.75 50.599998474121094 -96.25
    endloop
  endfacet
  facet normal 1 0 0
    outer loop
      vertex -13.75 32.599998474121094 -86
      vertex -13.75 50.599998474121094 -96.25
      vertex -13.75 50.599998474121094 -86
    endloop
  endfacet
  facet normal 0 0 1
    outer loop
      vertex -13.75 50.599998474121094 -96.25
      vertex -0.75 32.599998474121094 -96.25
      vertex -0.75 50.599998474121094 -96.25
    endloop
  endfacet
  facet normal 0 -1 0
    outer loop
      vertex -13.75 50.599998474121094 -96.25
      vertex -0.75 50.599998474121094 -96.25
      vertex -0.75 50.599998474121094 -92
    endloop
  endfacet
  facet normal 0 -1 0
    outer loop
      vertex -13.75 50.599998474121094 -96.25
      vertex -0.75 50.599998474121094 -92
      vertex -13.75 50.599998474121094 -86
    endloop
  endfacet
  facet normal 0 -1 0
    outer loop
      vertex -13.75 50.599998474121094 -86
      vertex -0.75 50.599998474121094 -92
      vertex 16.75 50.599998474121094 -86
    endloop
  endfacet
  facet normal 0 0 1
    outer loop
      vertex -13.75 50.599998474121094 -86
      vertex 16.75 50.599998474121094 -86
      vertex 17.848491668701172 52.599998474121094 -86
    endloop
  endfacet
  facet normal -0.5555711509367345 0.8314689989691931 0
    outer loop
      vertex -13.665410995483398 61.066314697265625 -100
      vertex -13.665410995483398 61.066314697265625 -96
      vertex -12.72364616394043 61.69558334350586 -100
    endloop
  endfacet
  facet normal 0 0 -1
    outer loop
      vertex -13.665410995483398 61.066314697265625 -100
      vertex -12.72364616394043 61.69558334350586 -100
      vertex -11.649999618530273 56.762508392333984 -100
    endloop
  endfacet
  facet normal -0.5555711509367345 0.8314689989691931 0
    outer loop
      vertex -13.665410995483398 61.066314697265625 -96
      vertex -12.72364616394043 61.69558334350586 -96
      vertex -12.72364616394043 61.69558334350586 -100
    endloop
  endfacet
  facet normal 0 0 1
    outer loop
      vertex -13.665410995483398 61.066314697265625 -96
      vertex -11.281638145446777 57.65181350708008 -96
      vertex -11.051813125610352 57.88163757324219 -96
    endloop
  endfacet
  facet normal 0 0 1
    outer loop
      vertex -13.665410995483398 61.066314697265625 -96
      vertex -11.051813125610352 57.88163757324219 -96
      vertex -12.72364616394043 61.69558334350586 -96
    endloop
  endfacet
  facet normal -0.38268196301347984 0.9238801411352826 0
    outer loop
      vertex -12.72364616394043 61.69558334350586 -100
      vertex -12.72364616394043 61.69558334350586 -96
      vertex -11.677212715148926 62.1290283203125 -100
    endloop
  endfacet
  facet normal 0 0 -1
    outer loop
      vertex -12.72364616394043 61.69558334350586 -100
      vertex -11.677212715148926 62.1290283203125 -100
      vertex -11.649999618530273 56.762508392333984 -100
    endloop
  endfacet
  facet normal -0.38268196301347984 0.9238801411352826 0
    outer loop
      vertex -12.72364616394043 61.69558334350586 -96
      vertex -11.677212715148926 62.1290283203125 -96
      vertex -11.677212715148926 62.1290283203125 -100
    endloop
  endfacet
  facet normal 0 0 1
    outer loop
      vertex -12.72364616394043 61.69558334350586 -96
      vertex -11.051813125610352 57.88163757324219 -96
      vertex -10.781567573547363 58.06221008300781 -96
    endloop
  endfacet
  facet normal 0 0 1
    outer loop
      vertex -12.72364616394043 61.69558334350586 -96
      vertex -10.781567573547363 58.06221008300781 -96
      vertex -11.677212715148926 62.1290283203125 -96
    endloop
  endfacet
  facet normal -0.1950910743332563 0.9807851307577495 0
    outer loop
      vertex -11.677212715148926 62.1290283203125 -100
      vertex -11.677212715148926 62.1290283203125 -96
      vertex -10.566325187683105 62.349998474121094 -100
    endloop
  endfacet
  facet normal 0 0 -1
    outer loop
      vertex -11.677212715148926 62.1290283203125 -100
      vertex -11.586590766906738 57.0812873840332 -100
      vertex -11.649999618530273 56.762508392333984 -100
    endloop
  endfacet
  facet normal 0 0 -1
    outer loop
      vertex -11.677212715148926 62.1290283203125 -100
      vertex -11.462210655212402 57.381568908691406 -100
      vertex -11.586590766906738 57.0812873840332 -100
    endloop
  endfacet
  facet normal 0 0 -1
    outer loop
      vertex -11.677212715148926 62.1290283203125 -100
      vertex -11.281638145446777 57.65181350708008 -100
      vertex -11.462210655212402 57.381568908691406 -100
    endloop
  endfacet
  facet normal 0 0 -1
    outer loop
      vertex -11.677212715148926 62.1290283203125 -100
      vertex -11.051813125610352 57.88163757324219 -100
      vertex -11.281638145446777 57.65181350708008 -100
    endloop
  endfacet
  facet normal 0 0 -1
    outer loop
      vertex -11.677212715148926 62.1290283203125 -100
      vertex -10.781567573547363 58.06221008300781 -100
      vertex -11.051813125610352 57.88163757324219 -100
    endloop
  endfacet
  facet normal 0 0 -1
    outer loop
      vertex -11.677212715148926 62.1290283203125 -100
      vertex -10.566325187683105 62.349998474121094 -100
      vertex -10.481287002563477 58.18659210205078 -100
    endloop
  endfacet
  facet normal 0 0 -1
    outer loop
      vertex -11.677212715148926 62.1290283203125 -100
      vertex -10.481287002563477 58.18659210205078 -100
      vertex -10.781567573547363 58.06221008300781 -100
    endloop
  endfacet
  facet normal 0 0 1
    outer loop
      vertex -11.677212715148926 62.1290283203125 -96
      vertex -10.781567573547363 58.06221008300781 -96
      vertex -10.481287002563477 58.18659210205078 -96
    endloop
  endfacet
  facet normal -0.1950910743332563 0.9807851307577495 0
    outer loop
      vertex -11.677212715148926 62.1290283203125 -96
      vertex -10.566325187683105 62.349998474121094 -96
      vertex -10.566325187683105 62.349998474121094 -100
    endloop
  endfacet
  facet normal 0 0 1
    outer loop
      vertex -11.677212715148926 62.1290283203125 -96
      vertex -10.481287002563477 58.18659210205078 -96
      vertex -10.566325187683105 62.349998474121094 -96
    endloop
  endfacet
  facet normal 0.9807849704454432 0.19509188027268318 0
    outer loop
      vertex -11.649999618530273 56.4374885559082 -100
      vertex -11.649999618530273 56.4374885559082 -96
      vertex -11.586590766906738 56.11871337890625 -96
    endloop
  endfacet
  facet normal 1 0 0
    outer loop
      vertex -11.649999618530273 56.4374885559082 -100
      vertex -11.649999618530273 56.762508392333984 -100
      vertex -11.649999618530273 56.4374885559082 -96
    endloop
  endfacet
  facet normal 0.9807849704454432 0.19509188027268318 0
    outer loop
      vertex -11.649999618530273 56.4374885559082 -100
      vertex -11.586590766906738 56.11871337890625 -96
      vertex -11.586590766906738 56.11871337890625 -100
    endloop
  endfacet
  facet normal 1 0 0
    outer loop
      vertex -11.649999618530273 56.4374885559082 -96
      vertex -11.649999618530273 56.762508392333984 -100
      vertex -11.649999618530273 56.762508392333984 -96
    endloop
  endfacet
  facet normal 0.9807854171498889 -0.19508963454299286 0
    outer loop
      vertex -11.649999618530273 56.762508392333984 -100
      vertex -11.586590766906738 57.0812873840332 -100
      vertex -11.649999618530273 56.762508392333984 -96
    endloop
  endfacet
  facet normal 0.9807854171498889 -0.19508963454299286 0
    outer loop
      vertex -11.649999618530273 56.762508392333984 -96
      vertex -11.586590766906738 57.0812873840332 -100
      vertex -11.586590766906738 57.0812873840332 -96
    endloop
  endfacet
  facet normal 0.9238801507503016 0.3826819398006651 0
    outer loop
      vertex -11.586590766906738 56.11871337890625 -100
      vertex -11.586590766906738 56.11871337890625 -96
      vertex -11.462210655212402 55.81843185424805 -96
    endloop
  endfacet
  facet normal 0.9238801507503016 0.3826819398006651 0
    outer loop
      vertex -11.586590766906738 56.11871337890625 -100
      vertex -11.462210655212402 55.81843185424805 -96
      vertex -11.462210655212402 55.81843185424805 -100
    endloop
  endfacet
  facet normal 0.9238801507503016 -0.3826819398006651 0
    outer loop
      vertex -11.586590766906738 57.0812873840332 -100
      vertex -11.462210655212402 57.381568908691406 -100
      vertex -11.586590766906738 57.0812873840332 -96
    endloop
  endfacet
  facet normal 0.9238801507503016 -0.3826819398006651 0
    outer loop
      vertex -11.586590766906738 57.0812873840332 -96
      vertex -11.462210655212402 57.381568908691406 -100
      vertex -11.462210655212402 57.381568908691406 -96
    endloop
  endfacet
  facet normal 0.8314684154429262 0.5555720242424284 0
    outer loop
      vertex -11.462210655212402 55.81843185424805 -100
      vertex -11.462210655212402 55.81843185424805 -96
      vertex -11.281638145446777 55.548187255859375 -96
    endloop
  endfacet
  facet normal 0.8314684154429262 0.5555720242424284 0
    outer loop
      vertex -11.462210655212402 55.81843185424805 -100
      vertex -11.281638145446777 55.548187255859375 -96
      vertex -11.281638145446777 55.548187255859375 -100
    endloop
  endfacet
  facet normal 0.8314684154429262 -0.5555720242424284 0
    outer loop
      vertex -11.462210655212402 57.381568908691406 -100
      vertex -11.281638145446777 57.65181350708008 -100
      vertex -11.462210655212402 57.381568908691406 -96
    endloop
  endfacet
  facet normal 0.8314684154429262 -0.5555720242424284 0
    outer loop
      vertex -11.462210655212402 57.381568908691406 -96
      vertex -11.281638145446777 57.65181350708008 -100
      vertex -11.281638145446777 57.65181350708008 -96
    endloop
  endfacet
  facet normal 0.7071111824258944 0.7071023799198058 0
    outer loop
      vertex -11.281638145446777 55.548187255859375 -100
      vertex -11.281638145446777 55.548187255859375 -96
      vertex -11.051813125610352 55.318359375 -96
    endloop
  endfacet
  facet normal 0.7071111824258944 0.7071023799198058 0
    outer loop
      vertex -11.281638145446777 55.548187255859375 -100
      vertex -11.051813125610352 55.318359375 -96
      vertex -11.051813125610352 55.318359375 -100
    endloop
  endfacet
  facet normal 0.707105314088502 -0.7071082482815493 0
    outer loop
      vertex -11.281638145446777 57.65181350708008 -100
      vertex -11.051813125610352 57.88163757324219 -100
      vertex -11.051813125610352 57.88163757324219 -96
    endloop
  endfacet
  facet normal 0.707105314088502 -0.7071082482815493 0
    outer loop
      vertex -11.281638145446777 57.65181350708008 -100
      vertex -11.051813125610352 57.88163757324219 -96
      vertex -11.281638145446777 57.65181350708008 -96
    endloop
  endfacet
  facet normal 0.5555706688216986 0.831469321108729 0
    outer loop
      vertex -11.051813125610352 55.318359375 -100
      vertex -11.051813125610352 55.318359375 -96
      vertex -10.781567573547363 55.137786865234375 -100
    endloop
  endfacet
  facet normal 0.5555706688216986 0.831469321108729 0
    outer loop
      vertex -11.051813125610352 55.318359375 -96
      vertex -10.781567573547363 55.137786865234375 -96
      vertex -10.781567573547363 55.137786865234375 -100
    endloop
  endfacet
  facet normal 0.5555706688216986 -0.831469321108729 0
    outer loop
      vertex -11.051813125610352 57.88163757324219 -100
      vertex -10.781567573547363 58.06221008300781 -100
      vertex -10.781567573547363 58.06221008300781 -96
    endloop
  endfacet
  facet normal 0.5555706688216986 -0.831469321108729 0
    outer loop
      vertex -11.051813125610352 57.88163757324219 -100
      vertex -10.781567573547363 58.06221008300781 -96
      vertex -11.051813125610352 57.88163757324219 -96
    endloop
  endfacet
  facet normal 0.38267796819482264 0.9238817958257876 0
    outer loop
      vertex -10.781567573547363 55.137786865234375 -100
      vertex -10.781567573547363 55.137786865234375 -96
      vertex -10.481287002563477 55.01340866088867 -100
    endloop
  endfacet
  facet normal 0.38267796819482264 0.9238817958257876 0
    outer loop
      vertex -10.781567573547363 55.137786865234375 -96
      vertex -10.481287002563477 55.01340866088867 -96
      vertex -10.481287002563477 55.01340866088867 -100
    endloop
  endfacet
  facet normal 0.38268798615148697 -0.9238776462580525 0
    outer loop
      vertex -10.781567573547363 58.06221008300781 -100
      vertex -10.481287002563477 58.18659210205078 -100
      vertex -10.481287002563477 58.18659210205078 -96
    endloop
  endfacet
  facet normal 0.38268798615148697 -0.9238776462580525 0
    outer loop
      vertex -10.781567573547363 58.06221008300781 -100
      vertex -10.481287002563477 58.18659210205078 -96
      vertex -10.781567573547363 58.06221008300781 -96
    endloop
  endfacet
  facet normal 0 1 0
    outer loop
      vertex -10.566325187683105 62.349998474121094 -100
      vertex -10.566325187683105 62.349998474121094 -96
      vertex -9.433673858642578 62.349998474121094 -100
    endloop
  endfacet
  facet normal 0 0 -1
    outer loop
      vertex -10.566325187683105 62.349998474121094 -100
      vertex -10.16250991821289 58.25 -100
      vertex -10.481287002563477 58.18659210205078 -100
    endloop
  endfacet
  facet normal 0 0 -1
    outer loop
      vertex -10.566325187683105 62.349998474121094 -100
      vertex -9.433673858642578 62.349998474121094 -100
      vertex -10.16250991821289 58.25 -100
    endloop
  endfacet
  facet normal 0 0 1
    outer loop
      vertex -10.566325187683105 62.349998474121094 -96
      vertex -10.481287002563477 58.18659210205078 -96
      vertex -10.16250991821289 58.25 -96
    endloop
  endfacet
  facet normal 0 0 1
    outer loop
      vertex -10.566325187683105 62.349998474121094 -96
      vertex -10.16250991821289 58.25 -96
      vertex -9.433673858642578 62.349998474121094 -96
    endloop
  endfacet
  facet normal 0 1 0
    outer loop
      vertex -10.566325187683105 62.349998474121094 -96
      vertex -9.433673858642578 62.349998474121094 -96
      vertex -9.433673858642578 62.349998474121094 -100
    endloop
  endfacet
  facet normal 0.1950879348942377 0.9807857552282769 0
    outer loop
      vertex -10.481287002563477 55.01340866088867 -100
      vertex -10.481287002563477 55.01340866088867 -96
      vertex -10.16250991821289 54.95000076293945 -100
    endloop
  endfacet
  facet normal 0.1950879348942377 0.9807857552282769 0
    outer loop
      vertex -10.481287002563477 55.01340866088867 -96
      vertex -10.16250991821289 54.95000076293945 -96
      vertex -10.16250991821289 54.95000076293945 -100
    endloop
  endfacet
  facet normal 0.1950879348942377 -0.9807857552282769 0
    outer loop
      vertex -10.481287002563477 58.18659210205078 -100
      vertex -10.16250991821289 58.25 -100
      vertex -10.16250991821289 58.25 -96
    endloop
  endfacet
  facet normal 0.1950879348942377 -0.9807857552282769 0
    outer loop
      vertex -10.481287002563477 58.18659210205078 -100
      vertex -10.16250991821289 58.25 -96
      vertex -10.481287002563477 58.18659210205078 -96
    endloop
  endfacet
  facet normal 0 1 0
    outer loop
      vertex -10.16250991821289 54.95000076293945 -100
      vertex -10.16250991821289 54.95000076293945 -96
      vertex -9.837489128112793 54.95000076293945 -100
    endloop
  endfacet
  facet normal 0 0 -1
    outer loop
      vertex -10.16250991821289 54.95000076293945 -100
      vertex -9.837489128112793 54.95000076293945 -100
      vertex -4.25 52.599998474121094 -100
    endloop
  endfacet
  facet normal 0 1 0
    outer loop
      vertex -10.16250991821289 54.95000076293945 -96
      vertex -9.837489128112793 54.95000076293945 -96
      vertex -9.837489128112793 54.95000076293945 -100
    endloop
  endfacet
  facet normal 0 -1 0
    outer loop
      vertex -10.16250991821289 58.25 -100
      vertex -9.837489128112793 58.25 -100
      vertex -9.837489128112793 58.25 -96
    endloop
  endfacet
  facet normal 0 -1 0
    outer loop
      vertex -10.16250991821289 58.25 -100
      vertex -9.837489128112793 58.25 -96
      vertex -10.16250991821289 58.25 -96
    endloop
  endfacet
  facet normal 0 0 -1
    outer loop
      vertex -10.16250991821289 58.25 -100
      vertex -9.433673858642578 62.349998474121094 -100
      vertex -9.837489128112793 58.25 -100
    endloop
  endfacet
  facet normal 0 0 1
    outer loop
      vertex -10.16250991821289 58.25 -96
      vertex -9.837489128112793 58.25 -96
      vertex -9.433673858642578 62.349998474121094 -96
    endloop
  endfacet
  facet normal -0.1950879348942377 0.9807857552282769 0
    outer loop
      vertex -9.837489128112793 54.95000076293945 -100
      vertex -9.837489128112793 54.95000076293945 -96
      vertex -9.518712043762207 55.01340866088867 -100
    endloop
  endfacet
  facet normal 0 0 -1
    outer loop
      vertex -9.837489128112793 54.95000076293945 -100
      vertex -9.518712043762207 55.01340866088867 -100
      vertex -4.25 52.599998474121094 -100
    endloop
  endfacet
  facet normal -0.1950879348942377 0.9807857552282769 0
    outer loop
      vertex -9.837489128112793 54.95000076293945 -96
      vertex -9.518712043762207 55.01340866088867 -96
      vertex -9.518712043762207 55.01340866088867 -100
    endloop
  endfacet
  facet normal 0 0 1
    outer loop
      vertex -9.837489128112793 54.95000076293945 -96
      vertex -4.25 52.599998474121094 -96
      vertex -9.518712043762207 55.01340866088867 -96
    endloop
  endfacet
  facet normal -0.1950879348942377 -0.9807857552282769 0
    outer loop
      vertex -9.837489128112793 58.25 -100
      vertex -9.518712043762207 58.18659210205078 -100
      vertex -9.518712043762207 58.18659210205078 -96
    endloop
  endfacet
  facet normal -0.1950879348942377 -0.9807857552282769 0
    outer loop
      vertex -9.837489128112793 58.25 -100
      vertex -9.518712043762207 58.18659210205078 -96
      vertex -9.837489128112793 58.25 -96
    endloop
  endfacet
  facet normal 0 0 -1
    outer loop
      vertex -9.837489128112793 58.25 -100
      vertex -9.433673858642578 62.349998474121094 -100
      vertex -9.518712043762207 58.18659210205078 -100
    endloop
  endfacet
  facet normal 0 0 1
    outer loop
      vertex -9.837489128112793 58.25 -96
      vertex -9.518712043762207 58.18659210205078 -96
      vertex -9.433673858642578 62.349998474121094 -96
    endloop
  endfacet
  facet normal -0.38267796819482264 0.9238817958257876 0
    outer loop
      vertex -9.518712043762207 55.01340866088867 -100
      vertex -9.518712043762207 55.01340866088867 -96
      vertex -9.21843147277832 55.137786865234375 -100
    endloop
  endfacet
  facet normal 0 0 -1
    outer loop
      vertex -9.518712043762207 55.01340866088867 -100
      vertex -9.21843147277832 55.137786865234375 -100
      vertex -4.25 52.599998474121094 -100
    endloop
  endfacet
  facet normal -0.38267796819482264 0.9238817958257876 0
    outer loop
      vertex -9.518712043762207 55.01340866088867 -96
      vertex -9.21843147277832 55.137786865234375 -96
      vertex -9.21843147277832 55.137786865234375 -100
    endloop
  endfacet
  facet normal 0 0 1
    outer loop
      vertex -9.518712043762207 55.01340866088867 -96
      vertex -4.25 52.599998474121094 -96
      vertex -9.21843147277832 55.137786865234375 -96
    endloop
  endfacet
  facet normal 0 0 -1
    outer loop
      vertex -9.518712043762207 58.18659210205078 -100
      vertex -9.433673858642578 62.349998474121094 -100
      vertex -8.322786331176758 62.1290283203125 -100
    endloop
  endfacet
  facet normal -0.38268798615148697 -0.9238776462580525 0
    outer loop
      vertex -9.518712043762207 58.18659210205078 -100
      vertex -9.21843147277832 58.06221008300781 -100
      vertex -9.21843147277832 58.06221008300781 -96
    endloop
  endfacet
  facet normal -0.38268798615148697 -0.9238776462580525 0
    outer loop
      vertex -9.518712043762207 58.18659210205078 -100
      vertex -9.21843147277832 58.06221008300781 -96
      vertex -9.518712043762207 58.18659210205078 -96
    endloop
  endfacet
  facet normal 0 0 -1
    outer loop
      vertex -9.518712043762207 58.18659210205078 -100
      vertex -8.322786331176758 62.1290283203125 -100
      vertex -9.21843147277832 58.06221008300781 -100
    endloop
  endfacet
  facet normal 0 0 1
    outer loop
      vertex -9.518712043762207 58.18659210205078 -96
      vertex -9.21843147277832 58.06221008300781 -96
      vertex -8.322786331176758 62.1290283203125 -96
    endloop
  endfacet
  facet normal 0 0 1
    outer loop
      vertex -9.518712043762207 58.18659210205078 -96
      vertex -8.322786331176758 62.1290283203125 -96
      vertex -9.433673858642578 62.349998474121094 -96
    endloop
  endfacet
  facet normal 0.1950910743332563 0.9807851307577495 0
    outer loop
      vertex -9.433673858642578 62.349998474121094 -100
      vertex -9.433673858642578 62.349998474121094 -96
      vertex -8.322786331176758 62.1290283203125 -100
    endloop
  endfacet
  facet normal 0.1950910743332563 0.9807851307577495 0
    outer loop
      vertex -9.433673858642578 62.349998474121094 -96
      vertex -8.322786331176758 62.1290283203125 -96
      vertex -8.322786331176758 62.1290283203125 -100
    endloop
  endfacet
  facet normal -0.5555706688216986 0.831469321108729 0
    outer loop
      vertex -9.21843147277832 55.137786865234375 -100
      vertex -9.21843147277832 55.137786865234375 -96
      vertex -8.948185920715332 55.318359375 -100
    endloop
  endfacet
  facet normal 0 0 -1
    outer loop
      vertex -9.21843147277832 55.137786865234375 -100
      vertex -8.948185920715332 55.318359375 -100
      vertex -4.25 52.599998474121094 -100
    endloop
  endfacet
  facet normal -0.5555706688216986 0.831469321108729 0
    outer loop
      vertex -9.21843147277832 55.137786865234375 -96
      vertex -8.948185920715332 55.318359375 -96
      vertex -8.948185920715332 55.318359375 -100
    endloop
  endfacet
  facet normal 0 0 1
    outer loop
      vertex -9.21843147277832 55.137786865234375 -96
      vertex -4.25 52.599998474121094 -96
      vertex -8.948185920715332 55.318359375 -96
    endloop
  endfacet
  facet normal -0.5555706688216986 -0.831469321108729 0
    outer loop
      vertex -9.21843147277832 58.06221008300781 -100
      vertex -8.948185920715332 57.88163757324219 -100
      vertex -8.948185920715332 57.88163757324219 -96
    endloop
  endfacet
  facet normal -0.5555706688216986 -0.831469321108729 0
    outer loop
      vertex -9.21843147277832 58.06221008300781 -100
      vertex -8.948185920715332 57.88163757324219 -96
      vertex -9.21843147277832 58.06221008300781 -96
    endloop
  endfacet
  facet normal 0 0 -1
    outer loop
      vertex -9.21843147277832 58.06221008300781 -100
      vertex -8.322786331176758 62.1290283203125 -100
      vertex -7.276352882385254 61.69558334350586 -100
    endloop
  endfacet
  facet normal 0 0 -1
    outer loop
      vertex -9.21843147277832 58.06221008300781 -100
      vertex -7.276352882385254 61.69558334350586 -100
      vertex -8.948185920715332 57.88163757324219 -100
    endloop
  endfacet
  facet normal 0 0 1
    outer loop
      vertex -9.21843147277832 58.06221008300781 -96
      vertex -8.948185920715332 57.88163757324219 -96
      vertex -7.276352882385254 61.69558334350586 -96
    endloop
  endfacet
  facet normal 0 0 1
    outer loop
      vertex -9.21843147277832 58.06221008300781 -96
      vertex -7.276352882385254 61.69558334350586 -96
      vertex -8.322786331176758 62.1290283203125 -96
    endloop
  endfacet
  facet normal -0.7071111824258944 0.7071023799198058 0
    outer loop
      vertex -8.948185920715332 55.318359375 -100
      vertex -8.948185920715332 55.318359375 -96
      vertex -8.718360900878906 55.548187255859375 -96
    endloop
  endfacet
  facet normal 0 0 -1
    outer loop
      vertex -8.948185920715332 55.318359375 -100
      vertex -8.718360900878906 55.548187255859375 -100
      vertex -4.25 52.599998474121094 -100
    endloop
  endfacet
  facet normal -0.7071111824258944 0.7071023799198058 0
    outer loop
      vertex -8.948185920715332 55.318359375 -100
      vertex -8.718360900878906 55.548187255859375 -96
      vertex -8.718360900878906 55.548187255859375 -100
    endloop
  endfacet
  facet normal 0 0 1
    outer loop
      vertex -8.948185920715332 55.318359375 -96
      vertex -4.25 52.599998474121094 -96
      vertex -8.718360900878906 55.548187255859375 -96
    endloop
  endfacet
  facet normal -0.707105314088502 -0.7071082482815493 0
    outer loop
      vertex -8.948185920715332 57.88163757324219 -100
      vertex -8.718360900878906 57.65181350708008 -100
      vertex -8.718360900878906 57.65181350708008 -96
    endloop
  endfacet
  facet normal -0.707105314088502 -0.7071082482815493 0
    outer loop
      vertex -8.948185920715332 57.88163757324219 -100
      vertex -8.718360900878906 57.65181350708008 -96
      vertex -8.948185920715332 57.88163757324219 -96
    endloop
  endfacet
  facet normal 0 0 -1
    outer loop
      vertex -8.948185920715332 57.88163757324219 -100
      vertex -7.276352882385254 61.69558334350586 -100
      vertex -6.334588050842285 61.066314697265625 -100
    endloop
  endfacet
  facet normal 0 0 -1
    outer loop
      vertex -8.948185920715332 57.88163757324219 -100
      vertex -6.334588050842285 61.066314697265625 -100
      vertex -8.718360900878906 57.65181350708008 -100
    endloop
  endfacet
  facet normal 0 0 1
    outer loop
      vertex -8.948185920715332 57.88163757324219 -96
      vertex -8.718360900878906 57.65181350708008 -96
      vertex -7.276352882385254 61.69558334350586 -96
    endloop
  endfacet
  facet normal -0.8314684154429262 0.5555720242424284 0
    outer loop
      vertex -8.718360900878906 55.548187255859375 -100
      vertex -8.718360900878906 55.548187255859375 -96
      vertex -8.537788391113281 55.81843185424805 -96
    endloop
  endfacet
  facet normal 0 0 -1
    outer loop
      vertex -8.718360900878906 55.548187255859375 -100
      vertex -8.537788391113281 55.81843185424805 -100
      vertex -4.25 52.599998474121094 -100
    endloop
  endfacet
  facet normal -0.8314684154429262 0.5555720242424284 0
    outer loop
      vertex -8.718360900878906 55.548187255859375 -100
      vertex -8.537788391113281 55.81843185424805 -96
      vertex -8.537788391113281 55.81843185424805 -100
    endloop
  endfacet
  facet normal 0 0 1
    outer loop
      vertex -8.718360900878906 55.548187255859375 -96
      vertex -4.25 52.599998474121094 -96
      vertex -8.537788391113281 55.81843185424805 -96
    endloop
  endfacet
  facet normal -0.8314684154429262 -0.5555720242424284 0
    outer loop
      vertex -8.718360900878906 57.65181350708008 -100
      vertex -8.537788391113281 57.381568908691406 -100
      vertex -8.718360900878906 57.65181350708008 -96
    endloop
  endfacet
  facet normal 0 0 -1
    outer loop
      vertex -8.718360900878906 57.65181350708008 -100
      vertex -6.334588050842285 61.066314697265625 -100
      vertex -5.533682823181152 60.265411376953125 -100
    endloop
  endfacet
  facet normal 0 0 -1
    outer loop
      vertex -8.718360900878906 57.65181350708008 -100
      vertex -5.533682823181152 60.265411376953125 -100
      vertex -8.537788391113281 57.381568908691406 -100
    endloop
  endfacet
  facet normal -0.8314684154429262 -0.5555720242424284 0
    outer loop
      vertex -8.718360900878906 57.65181350708008 -96
      vertex -8.537788391113281 57.381568908691406 -100
      vertex -8.537788391113281 57.381568908691406 -96
    endloop
  endfacet
  facet normal 0 0 1
    outer loop
      vertex -8.718360900878906 57.65181350708008 -96
      vertex -8.537788391113281 57.381568908691406 -96
      vertex -7.276352882385254 61.69558334350586 -96
    endloop
  endfacet
  facet normal -0.9238801507503016 0.3826819398006651 0
    outer loop
      vertex -8.537788391113281 55.81843185424805 -100
      vertex -8.537788391113281 55.81843185424805 -96
      vertex -8.413408279418945 56.11871337890625 -96
    endloop
  endfacet
  facet normal 0 0 -1
    outer loop
      vertex -8.537788391113281 55.81843185424805 -100
      vertex -8.413408279418945 56.11871337890625 -100
      vertex -4.25 52.599998474121094 -100
    endloop
  endfacet
  facet normal -0.9238801507503016 0.3826819398006651 0
    outer loop
      vertex -8.537788391113281 55.81843185424805 -100
      vertex -8.413408279418945 56.11871337890625 -96
      vertex -8.413408279418945 56.11871337890625 -100
    endloop
  endfacet
  facet normal 0 0 1
    outer loop
      vertex -8.537788391113281 55.81843185424805 -96
      vertex -4.25 52.599998474121094 -96
      vertex -8.413408279418945 56.11871337890625 -96
    endloop
  endfacet
  facet normal -0.9238801507503016 -0.3826819398006651 0
    outer loop
      vertex -8.537788391113281 57.381568908691406 -100
      vertex -8.413408279418945 57.0812873840332 -100
      vertex -8.537788391113281 57.381568908691406 -96
    endloop
  endfacet
  facet normal 0 0 -1
    outer loop
      vertex -8.537788391113281 57.381568908691406 -100
      vertex -5.533682823181152 60.265411376953125 -100
      vertex -4.904416084289551 59.323646545410156 -100
    endloop
  endfacet
  facet normal 0 0 -1
    outer loop
      vertex -8.537788391113281 57.381568908691406 -100
      vertex -4.904416084289551 59.323646545410156 -100
      vertex -8.413408279418945 57.0812873840332 -100
    endloop
  endfacet
  facet normal -0.9238801507503016 -0.3826819398006651 0
    outer loop
      vertex -8.537788391113281 57.381568908691406 -96
      vertex -8.413408279418945 57.0812873840332 -100
      vertex -8.413408279418945 57.0812873840332 -96
    endloop
  endfacet
  facet normal 0 0 1
    outer loop
      vertex -8.537788391113281 57.381568908691406 -96
      vertex -8.413408279418945 57.0812873840332 -96
      vertex -7.276352882385254 61.69558334350586 -96
    endloop
  endfacet
  facet normal -0.9807849704454432 0.19509188027268318 0
    outer loop
      vertex -8.413408279418945 56.11871337890625 -100
      vertex -8.413408279418945 56.11871337890625 -96
      vertex -8.34999942779541 56.4374885559082 -96
    endloop
  endfacet
  facet normal 0 0 -1
    outer loop
      vertex -8.413408279418945 56.11871337890625 -100
      vertex -8.34999942779541 56.4374885559082 -100
      vertex -4.25 57.166324615478516 -100
    endloop
  endfacet
  facet normal -0.9807849704454432 0.19509188027268318 0
    outer loop
      vertex -8.413408279418945 56.11871337890625 -100
      vertex -8.34999942779541 56.4374885559082 -96
      vertex -8.34999942779541 56.4374885559082 -100
    endloop
  endfacet
  facet normal 0 0 -1
    outer loop
      vertex -8.413408279418945 56.11871337890625 -100
      vertex -4.25 57.166324615478516 -100
      vertex -4.25 52.599998474121094 -100
    endloop
  endfacet
  facet normal 0 0 1
    outer loop
      vertex -8.413408279418945 56.11871337890625 -96
      vertex -4.25 52.599998474121094 -96
      vertex -4.25 57.166324615478516 -96
    endloop
  endfacet
  facet normal 0 0 1
    outer loop
      vertex -8.413408279418945 56.11871337890625 -96
      vertex -4.25 57.166324615478516 -96
      vertex -8.34999942779541 56.4374885559082 -96
    endloop
  endfacet
  facet normal -0.9807854171498889 -0.19508963454299286 0
    outer loop
      vertex -8.413408279418945 57.0812873840332 -100
      vertex -8.34999942779541 56.762508392333984 -100
      vertex -8.413408279418945 57.0812873840332 -96
    endloop
  endfacet
  facet normal 0 0 -1
    outer loop
      vertex -8.413408279418945 57.0812873840332 -100
      vertex -4.904416084289551 59.323646545410156 -100
      vertex -4.470969200134277 58.27721405029297 -100
    endloop
  endfacet
  facet normal 0 0 -1
    outer loop
      vertex -8.413408279418945 57.0812873840332 -100
      vertex -4.470969200134277 58.27721405029297 -100
      vertex -8.34999942779541 56.762508392333984 -100
    endloop
  endfacet
  facet normal -0.9807854171498889 -0.19508963454299286 0
    outer loop
      vertex -8.413408279418945 57.0812873840332 -96
      vertex -8.34999942779541 56.762508392333984 -100
      vertex -8.34999942779541 56.762508392333984 -96
    endloop
  endfacet
  facet normal 0 0 1
    outer loop
      vertex -8.413408279418945 57.0812873840332 -96
      vertex -8.34999942779541 56.762508392333984 -96
      vertex -4.470969200134277 58.27721405029297 -96
    endloop
  endfacet
  facet normal 0 0 1
    outer loop
      vertex -8.413408279418945 57.0812873840332 -96
      vertex -6.334588050842285 61.066314697265625 -96
      vertex -7.276352882385254 61.69558334350586 -96
    endloop
  endfacet
  facet normal 0 0 1
    outer loop
      vertex -8.413408279418945 57.0812873840332 -96
      vertex -5.533682823181152 60.265411376953125 -96
      vertex -6.334588050842285 61.066314697265625 -96
    endloop
  endfacet
  facet normal 0 0 1
    outer loop
      vertex -8.413408279418945 57.0812873840332 -96
      vertex -4.904416084289551 59.323646545410156 -96
      vertex -5.533682823181152 60.265411376953125 -96
    endloop
  endfacet
  facet normal 0 0 1
    outer loop
      vertex -8.413408279418945 57.0812873840332 -96
      vertex -4.470969200134277 58.27721405029297 -96
      vertex -4.904416084289551 59.323646545410156 -96
    endloop
  endfacet
  facet normal -1 0 0
    outer loop
      vertex -8.34999942779541 56.4374885559082 -100
      vertex -8.34999942779541 56.4374885559082 -96
      vertex -8.34999942779541 56.762508392333984 -96
    endloop
  endfacet
  facet normal 0 0 -1
    outer loop
      vertex -8.34999942779541 56.4374885559082 -100
      vertex -8.34999942779541 56.762508392333984 -100
      vertex -4.25 57.166324615478516 -100
    endloop
  endfacet
  facet normal -1 0 0
    outer loop
      vertex -8.34999942779541 56.4374885559082 -100
      vertex -8.34999942779541 56.762508392333984 -96
      vertex -8.34999942779541 56.762508392333984 -100
    endloop
  endfacet
  facet normal 0 0 1
    outer loop
      vertex -8.34999942779541 56.4374885559082 -96
      vertex -4.25 57.166324615478516 -96
      vertex -8.34999942779541 56.762508392333984 -96
    endloop
  endfacet
  facet normal 0 0 -1
    outer loop
      vertex -8.34999942779541 56.762508392333984 -100
      vertex -4.470969200134277 58.27721405029297 -100
      vertex -4.25 57.166324615478516 -100
    endloop
  endfacet
  facet normal 0 0 1
    outer loop
      vertex -8.34999942779541 56.762508392333984 -96
      vertex -4.25 57.166324615478516 -96
      vertex -4.470969200134277 58.27721405029297 -96
    endloop
  endfacet
  facet normal 0.38268196301347984 0.9238801411352826 0
    outer loop
      vertex -8.322786331176758 62.1290283203125 -100
      vertex -8.322786331176758 62.1290283203125 -96
      vertex -7.276352882385254 61.69558334350586 -100
    endloop
  endfacet
  facet normal 0.38268196301347984 0.9238801411352826 0
    outer loop
      vertex -8.322786331176758 62.1290283203125 -96
      vertex -7.276352882385254 61.69558334350586 -96
      vertex -7.276352882385254 61.69558334350586 -100
    endloop
  endfacet
  facet normal 0.5555711509367345 0.8314689989691931 0
    outer loop
      vertex -7.276352882385254 61.69558334350586 -100
      vertex -7.276352882385254 61.69558334350586 -96
      vertex -6.334588050842285 61.066314697265625 -100
    endloop
  endfacet
  facet normal 0.5555711509367345 0.8314689989691931 0
    outer loop
      vertex -7.276352882385254 61.69558334350586 -96
      vertex -6.334588050842285 61.066314697265625 -96
      vertex -6.334588050842285 61.066314697265625 -100
    endloop
  endfacet
  facet normal 0.7071059392008077 0.7071076231712847 0
    outer loop
      vertex -6.334588050842285 61.066314697265625 -100
      vertex -6.334588050842285 61.066314697265625 -96
      vertex -5.533682823181152 60.265411376953125 -100
    endloop
  endfacet
  facet normal 0.7071059392008077 0.7071076231712847 0
    outer loop
      vertex -6.334588050842285 61.066314697265625 -96
      vertex -5.533682823181152 60.265411376953125 -96
      vertex -5.533682823181152 60.265411376953125 -100
    endloop
  endfacet
  facet normal 0.8314697768613165 0.555569986739918 0
    outer loop
      vertex -5.533682823181152 60.265411376953125 -100
      vertex -5.533682823181152 60.265411376953125 -96
      vertex -4.904416084289551 59.323646545410156 -96
    endloop
  endfacet
  facet normal 0.8314697768613165 0.555569986739918 0
    outer loop
      vertex -5.533682823181152 60.265411376953125 -100
      vertex -4.904416084289551 59.323646545410156 -96
      vertex -4.904416084289551 59.323646545410156 -100
    endloop
  endfacet
  facet normal 0.9238794224576587 0.38268369805794306 0
    outer loop
      vertex -4.904416084289551 59.323646545410156 -100
      vertex -4.904416084289551 59.323646545410156 -96
      vertex -4.470969200134277 58.27721405029297 -96
    endloop
  endfacet
  facet normal 0.9238794224576587 0.38268369805794306 0
    outer loop
      vertex -4.904416084289551 59.323646545410156 -100
      vertex -4.470969200134277 58.27721405029297 -96
      vertex -4.470969200134277 58.27721405029297 -100
    endloop
  endfacet
  facet normal 0.980785355956747 0.1950899421825658 0
    outer loop
      vertex -4.470969200134277 58.27721405029297 -100
      vertex -4.470969200134277 58.27721405029297 -96
      vertex -4.25 57.166324615478516 -96
    endloop
  endfacet
  facet normal 0.980785355956747 0.1950899421825658 0
    outer loop
      vertex -4.470969200134277 58.27721405029297 -100
      vertex -4.25 57.166324615478516 -96
      vertex -4.25 57.166324615478516 -100
    endloop
  endfacet
  facet normal 0 1 0
    outer loop
      vertex -4.25 52.599998474121094 -100
      vertex -4.25 52.599998474121094 -96
      vertex 17.848491668701172 52.599998474121094 -100
    endloop
  endfacet
  facet normal 1 0 0
    outer loop
      vertex -4.25 52.599998474121094 -100
      vertex -4.25 57.166324615478516 -100
      vertex -4.25 52.599998474121094 -96
    endloop
  endfacet
  facet normal 0 0 -1
    outer loop
      vertex -4.25 52.599998474121094 -100
      vertex 17.848491668701172 52.599998474121094 -100
      vertex 18.75 32.599998474121094 -100
    endloop
  endfacet
  facet normal 1 0 0
    outer loop
      vertex -4.25 52.599998474121094 -96
      vertex -4.25 57.166324615478516 -100
      vertex -4.25 57.166324615478516 -96
    endloop
  endfacet
  facet normal 0 1 0
    outer loop
      vertex -4.25 52.599998474121094 -96
      vertex 17.848491668701172 52.599998474121094 -86
      vertex 17.848491668701172 52.599998474121094 -100
    endloop
  endfacet
  facet normal -1 0 0
    outer loop
      vertex -0.75 32.599998474121094 -96.25
      vertex -0.75 32.599998474121094 -92
      vertex -0.75 50.599998474121094 -92
    endloop
  endfacet
  facet normal -1 0 0
    outer loop
      vertex -0.75 32.599998474121094 -96.25
      vertex -0.75 50.599998474121094 -92
      vertex -0.75 50.599998474121094 -96.25
    endloop
  endfacet
  facet normal 0 -1 0
    outer loop
      vertex -0.75 32.599998474121094 -96.25
      vertex 16.75 32.599998474121094 -92
      vertex -0.75 32.599998474121094 -92
    endloop
  endfacet
  facet normal 0 -1 0
    outer loop
      vertex -0.75 32.599998474121094 -96.25
      vertex 18.75 32.599998474121094 -100
      vertex 16.75 32.599998474121094 -92
    endloop
  endfacet
  facet normal 0 0 1
    outer loop
      vertex -0.75 32.599998474121094 -92
      vertex 16.75 32.599998474121094 -92
      vertex -0.75 50.599998474121094 -92
    endloop
  endfacet
  facet normal 0 0 1
    outer loop
      vertex -0.75 50.599998474121094 -92
      vertex 16.75 32.599998474121094 -92
      vertex 16.75 50.599998474121094 -92
    endloop
  endfacet
  facet normal 0 -1 0
    outer loop
      vertex -0.75 50.599998474121094 -92
      vertex 16.75 50.599998474121094 -92
      vertex 16.75 50.599998474121094 -86
    endloop
  endfacet
  facet normal -1 0 0
    outer loop
      vertex 16.75 32.599998474121094 -92
      vertex 16.75 32.599998474121094 -86
      vertex 16.75 50.599998474121094 -86
    endloop
  endfacet
  facet normal -1 0 0
    outer loop
      vertex 16.75 32.599998474121094 -92
      vertex 16.75 50.599998474121094 -86
      vertex 16.75 50.599998474121094 -92
    endloop
  endfacet
  facet normal 0 -1 0
    outer loop
      vertex 16.75 32.599998474121094 -92
      vertex 18.75 32.599998474121094 -100
      vertex 18.75 32.599998474121094 -86
    endloop
  endfacet
  facet normal 0 -1 0
    outer loop
      vertex 16.75 32.599998474121094 -92
      vertex 18.75 32.599998474121094 -86
      vertex 16.75 32.599998474121094 -86
    endloop
  endfacet
  facet normal 0 0 1
    outer loop
      vertex 16.75 32.599998474121094 -86
      vertex 18.75 32.599998474121094 -86
      vertex 16.75 50.599998474121094 -86
    endloop
  endfacet
  facet normal 0 0 1
    outer loop
      vertex 16.75 50.599998474121094 -86
      vertex 18.75 32.599998474121094 -86
      vertex 18.75 51.698490142822266 -86
    endloop
  endfacet
  facet normal 0 0 1
    outer loop
      vertex 16.75 50.599998474121094 -86
      vertex 18.75 51.698490142822266 -86
      vertex 17.848491668701172 52.599998474121094 -86
    endloop
  endfacet
  facet normal 0.19509001832979136 0.9807853408101497 0
    outer loop
      vertex 17.848491668701172 52.599998474121094 -100
      vertex 17.848491668701172 52.599998474121094 -86
      vertex 18.041688919067383 52.56156921386719 -100
    endloop
  endfacet
  facet normal 0 0 -1
    outer loop
      vertex 17.848491668701172 52.599998474121094 -100
      vertex 18.041688919067383 52.56156921386719 -100
      vertex 18.223676681518555 52.48618698120117 -100
    endloop
  endfacet
  facet normal 0 0 -1
    outer loop
      vertex 17.848491668701172 52.599998474121094 -100
      vertex 18.223676681518555 52.48618698120117 -100
      vertex 18.387462615966797 52.37675094604492 -100
    endloop
  endfacet
  facet normal 0 0 -1
    outer loop
      vertex 17.848491668701172 52.599998474121094 -100
      vertex 18.387462615966797 52.37675094604492 -100
      vertex 18.526750564575195 52.23746109008789 -100
    endloop
  endfacet
  facet normal 0 0 -1
    outer loop
      vertex 17.848491668701172 52.599998474121094 -100
      vertex 18.526750564575195 52.23746109008789 -100
      vertex 18.636188507080078 52.07367706298828 -100
    endloop
  endfacet
  facet normal 0 0 -1
    outer loop
      vertex 17.848491668701172 52.599998474121094 -100
      vertex 18.636188507080078 52.07367706298828 -100
      vertex 18.711570739746094 51.89168930053711 -100
    endloop
  endfacet
  facet normal 0 0 -1
    outer loop
      vertex 17.848491668701172 52.599998474121094 -100
      vertex 18.711570739746094 51.89168930053711 -100
      vertex 18.75 51.698490142822266 -100
    endloop
  endfacet
  facet normal 0 0 -1
    outer loop
      vertex 17.848491668701172 52.599998474121094 -100
      vertex 18.75 51.698490142822266 -100
      vertex 18.75 32.599998474121094 -100
    endloop
  endfacet
  facet normal 0.19509001832979136 0.9807853408101497 0
    outer loop
      vertex 17.848491668701172 52.599998474121094 -86
      vertex 18.041688919067383 52.56156921386719 -86
      vertex 18.041688919067383 52.56156921386719 -100
    endloop
  endfacet
  facet normal 0 0 1
    outer loop
      vertex 17.848491668701172 52.599998474121094 -86
      vertex 18.223676681518555 52.48618698120117 -86
      vertex 18.041688919067383 52.56156921386719 -86
    endloop
  endfacet
  facet normal 0 0 1
    outer loop
      vertex 17.848491668701172 52.599998474121094 -86
      vertex 18.387462615966797 52.37675094604492 -86
      vertex 18.223676681518555 52.48618698120117 -86
    endloop
  endfacet
  facet normal 0 0 1
    outer loop
      vertex 17.848491668701172 52.599998474121094 -86
      vertex 18.526750564575195 52.23746109008789 -86
      vertex 18.387462615966797 52.37675094604492 -86
    endloop
  endfacet
  facet normal 0 0 1
    outer loop
      vertex 17.848491668701172 52.599998474121094 -86
      vertex 18.636188507080078 52.07367706298828 -86
      vertex 18.526750564575195 52.23746109008789 -86
    endloop
  endfacet
  facet normal 0 0 1
    outer loop
      vertex 17.848491668701172 52.599998474121094 -86
      vertex 18.711570739746094 51.89168930053711 -86
      vertex 18.636188507080078 52.07367706298828 -86
    endloop
  endfacet
  facet normal 0 0 1
    outer loop
      vertex 17.848491668701172 52.599998474121094 -86
      vertex 18.75 51.698490142822266 -86
      vertex 18.711570739746094 51.89168930053711 -86
    endloop
  endfacet
  facet normal 0.3826853097993421 0.9238787548503221 0
    outer loop
      vertex 18.041688919067383 52.56156921386719 -100
      vertex 18.041688919067383 52.56156921386719 -86
      vertex 18.223676681518555 52.48618698120117 -100
    endloop
  endfacet
  facet normal 0.3826853097993421 0.9238787548503221 0
    outer loop
      vertex 18.041688919067383 52.56156921386719 -86
      vertex 18.223676681518555 52.48618698120117 -86
      vertex 18.223676681518555 52.48618698120117 -100
    endloop
  endfacet
  facet normal 0.5555624154559882 0.8314748357783944 0
    outer loop
      vertex 18.223676681518555 52.48618698120117 -100
      vertex 18.223676681518555 52.48618698120117 -86
      vertex 18.387462615966797 52.37675094604492 -100
    endloop
  endfacet
  facet normal 0.5555624154559882 0.8314748357783944 0
    outer loop
      vertex 18.223676681518555 52.48618698120117 -86
      vertex 18.387462615966797 52.37675094604492 -86
      vertex 18.387462615966797 52.37675094604492 -100
    endloop
  endfacet
  facet normal 0.7071116225433 0.7071019397966475 0
    outer loop
      vertex 18.387462615966797 52.37675094604492 -100
      vertex 18.387462615966797 52.37675094604492 -86
      vertex 18.526750564575195 52.23746109008789 -86
    endloop
  endfacet
  facet normal 0.7071116225433 0.7071019397966475 0
    outer loop
      vertex 18.387462615966797 52.37675094604492 -100
      vertex 18.526750564575195 52.23746109008789 -86
      vertex 18.526750564575195 52.23746109008789 -100
    endloop
  endfacet
  facet normal 0.8314673742276486 0.5555735825207849 0
    outer loop
      vertex 18.526750564575195 52.23746109008789 -100
      vertex 18.526750564575195 52.23746109008789 -86
      vertex 18.636188507080078 52.07367706298828 -86
    endloop
  endfacet
  facet normal 0.8314673742276486 0.5555735825207849 0
    outer loop
      vertex 18.526750564575195 52.23746109008789 -100
      vertex 18.636188507080078 52.07367706298828 -86
      vertex 18.636188507080078 52.07367706298828 -100
    endloop
  endfacet
  facet normal 0.9238787548503221 0.3826853097993421 0
    outer loop
      vertex 18.636188507080078 52.07367706298828 -100
      vertex 18.636188507080078 52.07367706298828 -86
      vertex 18.711570739746094 51.89168930053711 -86
    endloop
  endfacet
  facet normal 0.9238787548503221 0.3826853097993421 0
    outer loop
      vertex 18.636188507080078 52.07367706298828 -100
      vertex 18.711570739746094 51.89168930053711 -86
      vertex 18.711570739746094 51.89168930053711 -100
    endloop
  endfacet
  facet normal 0.9807857093352049 0.19508816561708434 0
    outer loop
      vertex 18.711570739746094 51.89168930053711 -100
      vertex 18.711570739746094 51.89168930053711 -86
      vertex 18.75 51.698490142822266 -86
    endloop
  endfacet
  facet normal 0.9807857093352049 0.19508816561708434 0
    outer loop
      vertex 18.711570739746094 51.89168930053711 -100
      vertex 18.75 51.698490142822266 -86
      vertex 18.75 51.698490142822266 -100
    endloop
  endfacet
  facet normal 1 0 0
    outer loop
      vertex 18.75 32.599998474121094 -100
      vertex 18.75 51.698490142822266 -100
      vertex 18.75 32.599998474121094 -86
    endloop
  endfacet
  facet normal 1 0 0
    outer loop
      vertex 18.75 32.599998474121094 -86
      vertex 18.75 51.698490142822266 -100
      vertex 18.75 51.698490142822266 -86
    endloop
  endfacet
endsolid OpenSCAD_Model
