  0
SECTION
  2
BLOCKS
  0
ENDSEC
  0
SECTION
  2
ENTITIES
  0
LINE
  8
0
 10
-200.985
 11
-200.985
 20
-69.96
 21
-62.04
  0
LINE
  8
0
 10
-200.985
 11
-195.04
 20
-62.04
 21
-62.04
  0
LINE
  8
0
 10
-195.04
 11
-195.04
 20
-62.04
 21
-53.36
  0
LINE
  8
0
 10
-195.04
 11
-191.06
 20
-53.36
 21
-53.36
  0
LINE
  8
0
 10
-191.06
 11
-191.06
 20
-53.36
 21
-54.71
  0
LINE
  8
0
 10
-191.06
 11
-189.14
 20
-54.71
 21
-54.71
  0
LINE
  8
0
 10
-189.14
 11
-189.14
 20
-54.71
 21
-53.36
  0
LINE
  8
0
 10
-189.14
 11
-187.05
 20
-53.36
 21
-53.36
  0
LINE
  8
0
 10
-187.05
 11
-187.05
 20
-53.36
 21
-50.64
  0
LINE
  8
0
 10
-187.05
 11
-189.14
 20
-50.64
 21
-50.64
  0
LINE
  8
0
 10
-189.14
 11
-189.14
 20
-50.64
 21
-49.29
  0
LINE
  8
0
 10
-189.14
 11
-191.06
 20
-49.29
 21
-49.29
  0
LINE
  8
0
 10
-191.06
 11
-191.06
 20
-49.29
 21
-50.64
  0
LINE
  8
0
 10
-191.06
 11
-195.04
 20
-50.64
 21
-50.64
  0
LINE
  8
0
 10
-195.04
 11
-195.04
 20
-50.64
 21
-41.96
  0
LINE
  8
0
 10
-195.04
 11
-200.985
 20
-41.96
 21
-41.96
  0
LINE
  8
0
 10
-200.985
 11
-200.985
 20
-41.96
 21
-34.04
  0
LINE
  8
0
 10
-200.985
 11
-195.04
 20
-34.04
 21
-34.04
  0
LINE
  8
0
 10
-195.04
 11
-195.04
 20
-34.04
 21
-15.96
  0
LINE
  8
0
 10
-195.04
 11
-90.96
 20
-15.96
 21
-15.96
  0
LINE
  8
0
 10
-90.96
 11
-90.96
 20
-15.96
 21
-34.04
  0
LINE
  8
0
 10
-90.96
 11
-85.015
 20
-34.04
 21
-34.04
  0
LINE
  8
0
 10
-85.015
 11
-85.015
 20
-34.04
 21
-41.96
  0
LINE
  8
0
 10
-85.015
 11
-90.96
 20
-41.96
 21
-41.96
  0
LINE
  8
0
 10
-90.96
 11
-90.96
 20
-41.96
 21
-50.64
  0
LINE
  8
0
 10
-90.96
 11
-94.94
 20
-50.64
 21
-50.64
  0
LINE
  8
0
 10
-94.94
 11
-94.94
 20
-50.64
 21
-49.29
  0
LINE
  8
0
 10
-94.94
 11
-96.86
 20
-49.29
 21
-49.29
  0
LINE
  8
0
 10
-96.86
 11
-96.86
 20
-49.29
 21
-50.64
  0
LINE
  8
0
 10
-96.86
 11
-98.95
 20
-50.64
 21
-50.64
  0
LINE
  8
0
 10
-98.95
 11
-98.95
 20
-50.64
 21
-53.36
  0
LINE
  8
0
 10
-98.95
 11
-96.86
 20
-53.36
 21
-53.36
  0
LINE
  8
0
 10
-96.86
 11
-96.86
 20
-53.36
 21
-54.71
  0
LINE
  8
0
 10
-96.86
 11
-94.94
 20
-54.71
 21
-54.71
  0
LINE
  8
0
 10
-94.94
 11
-94.94
 20
-54.71
 21
-53.36
  0
LINE
  8
0
 10
-94.94
 11
-90.96
 20
-53.36
 21
-53.36
  0
LINE
  8
0
 10
-90.96
 11
-90.96
 20
-53.36
 21
-62.04
  0
LINE
  8
0
 10
-90.96
 11
-85.015
 20
-62.04
 21
-62.04
  0
LINE
  8
0
 10
-85.015
 11
-85.015
 20
-62.04
 21
-69.96
  0
LINE
  8
0
 10
-85.015
 11
-90.96
 20
-69.96
 21
-69.96
  0
LINE
  8
0
 10
-90.96
 11
-90.96
 20
-69.96
 21
-88.04
  0
LINE
  8
0
 10
-90.96
 11
-195.04
 20
-88.04
 21
-88.04
  0
LINE
  8
0
 10
-195.04
 11
-195.04
 20
-88.04
 21
-69.96
  0
LINE
  8
0
 10
-195.04
 11
-200.985
 20
-69.96
 21
-69.96
  0
LINE
  8
0
 10
-186.96
 11
-186.96
 20
-83.985
 21
-78.015
  0
LINE
  8
0
 10
-186.96
 11
-179.04
 20
-78.015
 21
-78.015
  0
LINE
  8
0
 10
-179.04
 11
-179.04
 20
-78.015
 21
-83.985
  0
LINE
  8
0
 10
-179.04
 11
-186.96
 20
-83.985
 21
-83.985
  0
LINE
  8
0
 10
-186.96
 11
-186.96
 20
-25.985
 21
-20.015
  0
LINE
  8
0
 10
-186.96
 11
-179.04
 20
-20.015
 21
-20.015
  0
LINE
  8
0
 10
-179.04
 11
-179.04
 20
-20.015
 21
-25.985
  0
LINE
  8
0
 10
-179.04
 11
-186.96
 20
-25.985
 21
-25.985
  0
LINE
  8
0
 10
-178.53
 11
-178.53
 20
43.103
 21
44.897
  0
LINE
  8
0
 10
-178.53
 11
-177.752
 20
44.897
 21
46.513
  0
LINE
  8
0
 10
-177.752
 11
-176.349
 20
46.513
 21
47.632
  0
LINE
  8
0
 10
-176.349
 11
-174.6
 20
47.632
 21
48.031
  0
LINE
  8
0
 10
-174.6
 11
-172.851
 20
48.031
 21
47.632
  0
LINE
  8
0
 10
-172.851
 11
-171.448
 20
47.632
 21
46.513
  0
LINE
  8
0
 10
-171.448
 11
-170.67
 20
46.513
 21
44.897
  0
LINE
  8
0
 10
-170.67
 11
-170.67
 20
44.897
 21
43.103
  0
LINE
  8
0
 10
-170.67
 11
-171.448
 20
43.103
 21
41.487
  0
LINE
  8
0
 10
-171.448
 11
-172.851
 20
41.487
 21
40.368
  0
LINE
  8
0
 10
-172.851
 11
-174.6
 20
40.368
 21
39.969
  0
LINE
  8
0
 10
-174.6
 11
-176.349
 20
39.969
 21
40.368
  0
LINE
  8
0
 10
-176.349
 11
-177.752
 20
40.368
 21
41.487
  0
LINE
  8
0
 10
-177.752
 11
-178.53
 20
41.487
 21
43.103
  0
LINE
  8
0
 10
-178.53
 11
-178.53
 20
59.218
 21
60.782
  0
LINE
  8
0
 10
-178.53
 11
-177.932
 20
60.782
 21
62.226
  0
LINE
  8
0
 10
-177.932
 11
-176.826
 20
62.226
 21
63.332
  0
LINE
  8
0
 10
-176.826
 11
-175.382
 20
63.332
 21
63.93
  0
LINE
  8
0
 10
-175.382
 11
-173.818
 20
63.93
 21
63.93
  0
LINE
  8
0
 10
-173.818
 11
-172.374
 20
63.93
 21
63.332
  0
LINE
  8
0
 10
-172.374
 11
-171.268
 20
63.332
 21
62.226
  0
LINE
  8
0
 10
-171.268
 11
-170.67
 20
62.226
 21
60.782
  0
LINE
  8
0
 10
-170.67
 11
-170.67
 20
60.782
 21
59.218
  0
LINE
  8
0
 10
-170.67
 11
-171.268
 20
59.218
 21
57.774
  0
LINE
  8
0
 10
-171.268
 11
-172.374
 20
57.774
 21
56.668
  0
LINE
  8
0
 10
-172.374
 11
-173.818
 20
56.668
 21
56.07
  0
LINE
  8
0
 10
-173.818
 11
-175.382
 20
56.07
 21
56.07
  0
LINE
  8
0
 10
-175.382
 11
-176.826
 20
56.07
 21
56.668
  0
LINE
  8
0
 10
-176.826
 11
-177.932
 20
56.668
 21
57.774
  0
LINE
  8
0
 10
-177.932
 11
-178.53
 20
57.774
 21
59.218
  0
LINE
  8
0
 10
-200.985
 11
-200.985
 20
34.04
 21
41.96
  0
LINE
  8
0
 10
-200.985
 11
-195.04
 20
41.96
 21
41.96
  0
LINE
  8
0
 10
-195.04
 11
-195.04
 20
41.96
 21
50.64
  0
LINE
  8
0
 10
-195.04
 11
-191.06
 20
50.64
 21
50.64
  0
LINE
  8
0
 10
-191.06
 11
-191.06
 20
50.64
 21
49.29
  0
LINE
  8
0
 10
-191.06
 11
-189.14
 20
49.29
 21
49.29
  0
LINE
  8
0
 10
-189.14
 11
-189.14
 20
49.29
 21
50.64
  0
LINE
  8
0
 10
-189.14
 11
-187.05
 20
50.64
 21
50.64
  0
LINE
  8
0
 10
-187.05
 11
-187.05
 20
50.64
 21
53.36
  0
LINE
  8
0
 10
-187.05
 11
-189.14
 20
53.36
 21
53.36
  0
LINE
  8
0
 10
-189.14
 11
-189.14
 20
53.36
 21
54.71
  0
LINE
  8
0
 10
-189.14
 11
-191.06
 20
54.71
 21
54.71
  0
LINE
  8
0
 10
-191.06
 11
-191.06
 20
54.71
 21
53.36
  0
LINE
  8
0
 10
-191.06
 11
-195.04
 20
53.36
 21
53.36
  0
LINE
  8
0
 10
-195.04
 11
-195.04
 20
53.36
 21
62.04
  0
LINE
  8
0
 10
-195.04
 11
-200.985
 20
62.04
 21
62.04
  0
LINE
  8
0
 10
-200.985
 11
-200.985
 20
62.04
 21
69.96
  0
LINE
  8
0
 10
-200.985
 11
-195.04
 20
69.96
 21
69.96
  0
LINE
  8
0
 10
-195.04
 11
-195.04
 20
69.96
 21
78.04
  0
LINE
  8
0
 10
-195.04
 11
-186.96
 20
78.04
 21
78.04
  0
LINE
  8
0
 10
-186.96
 11
-186.96
 20
78.04
 21
83.985
  0
LINE
  8
0
 10
-186.96
 11
-179.04
 20
83.985
 21
83.985
  0
LINE
  8
0
 10
-179.04
 11
-179.04
 20
83.985
 21
78.04
  0
LINE
  8
0
 10
-179.04
 11
-170.36
 20
78.04
 21
78.04
  0
LINE
  8
0
 10
-170.36
 11
-170.36
 20
78.04
 21
74.06
  0
LINE
  8
0
 10
-170.36
 11
-171.71
 20
74.06
 21
74.06
  0
LINE
  8
0
 10
-171.71
 11
-171.71
 20
74.06
 21
72.14
  0
LINE
  8
0
 10
-171.71
 11
-170.36
 20
72.14
 21
72.14
  0
LINE
  8
0
 10
-170.36
 11
-170.36
 20
72.14
 21
70.05
  0
LINE
  8
0
 10
-170.36
 11
-167.64
 20
70.05
 21
70.05
  0
LINE
  8
0
 10
-167.64
 11
-167.64
 20
70.05
 21
72.14
  0
LINE
  8
0
 10
-167.64
 11
-166.29
 20
72.14
 21
72.14
  0
LINE
  8
0
 10
-166.29
 11
-166.29
 20
72.14
 21
74.06
  0
LINE
  8
0
 10
-166.29
 11
-167.64
 20
74.06
 21
74.06
  0
LINE
  8
0
 10
-167.64
 11
-167.64
 20
74.06
 21
78.04
  0
LINE
  8
0
 10
-167.64
 11
-158.96
 20
78.04
 21
78.04
  0
LINE
  8
0
 10
-158.96
 11
-158.96
 20
78.04
 21
83.985
  0
LINE
  8
0
 10
-158.96
 11
-151.04
 20
83.985
 21
83.985
  0
LINE
  8
0
 10
-151.04
 11
-151.04
 20
83.985
 21
78.04
  0
LINE
  8
0
 10
-151.04
 11
-134.96
 20
78.04
 21
78.04
  0
LINE
  8
0
 10
-134.96
 11
-134.96
 20
78.04
 21
83.985
  0
LINE
  8
0
 10
-134.96
 11
-127.04
 20
83.985
 21
83.985
  0
LINE
  8
0
 10
-127.04
 11
-127.04
 20
83.985
 21
78.04
  0
LINE
  8
0
 10
-127.04
 11
-118.36
 20
78.04
 21
78.04
  0
LINE
  8
0
 10
-118.36
 11
-118.36
 20
78.04
 21
74.06
  0
LINE
  8
0
 10
-118.36
 11
-119.71
 20
74.06
 21
74.06
  0
LINE
  8
0
 10
-119.71
 11
-119.71
 20
74.06
 21
72.14
  0
LINE
  8
0
 10
-119.71
 11
-118.36
 20
72.14
 21
72.14
  0
LINE
  8
0
 10
-118.36
 11
-118.36
 20
72.14
 21
70.05
  0
LINE
  8
0
 10
-118.36
 11
-115.64
 20
70.05
 21
70.05
  0
LINE
  8
0
 10
-115.64
 11
-115.64
 20
70.05
 21
72.14
  0
LINE
  8
0
 10
-115.64
 11
-114.29
 20
72.14
 21
72.14
  0
LINE
  8
0
 10
-114.29
 11
-114.29
 20
72.14
 21
74.06
  0
LINE
  8
0
 10
-114.29
 11
-115.64
 20
74.06
 21
74.06
  0
LINE
  8
0
 10
-115.64
 11
-115.64
 20
74.06
 21
78.04
  0
LINE
  8
0
 10
-115.64
 11
-106.96
 20
78.04
 21
78.04
  0
LINE
  8
0
 10
-106.96
 11
-106.96
 20
78.04
 21
83.985
  0
LINE
  8
0
 10
-106.96
 11
-99.04
 20
83.985
 21
83.985
  0
LINE
  8
0
 10
-99.04
 11
-99.04
 20
83.985
 21
78.04
  0
LINE
  8
0
 10
-99.04
 11
-90.96
 20
78.04
 21
78.04
  0
LINE
  8
0
 10
-90.96
 11
-90.96
 20
78.04
 21
69.96
  0
LINE
  8
0
 10
-90.96
 11
-85.015
 20
69.96
 21
69.96
  0
LINE
  8
0
 10
-85.015
 11
-85.015
 20
69.96
 21
62.04
  0
LINE
  8
0
 10
-85.015
 11
-90.96
 20
62.04
 21
62.04
  0
LINE
  8
0
 10
-90.96
 11
-90.96
 20
62.04
 21
53.36
  0
LINE
  8
0
 10
-90.96
 11
-94.94
 20
53.36
 21
53.36
  0
LINE
  8
0
 10
-94.94
 11
-94.94
 20
53.36
 21
54.71
  0
LINE
  8
0
 10
-94.94
 11
-96.86
 20
54.71
 21
54.71
  0
LINE
  8
0
 10
-96.86
 11
-96.86
 20
54.71
 21
53.36
  0
LINE
  8
0
 10
-96.86
 11
-98.95
 20
53.36
 21
53.36
  0
LINE
  8
0
 10
-98.95
 11
-98.95
 20
53.36
 21
50.64
  0
LINE
  8
0
 10
-98.95
 11
-96.86
 20
50.64
 21
50.64
  0
LINE
  8
0
 10
-96.86
 11
-96.86
 20
50.64
 21
49.29
  0
LINE
  8
0
 10
-96.86
 11
-94.94
 20
49.29
 21
49.29
  0
LINE
  8
0
 10
-94.94
 11
-94.94
 20
49.29
 21
50.64
  0
LINE
  8
0
 10
-94.94
 11
-90.96
 20
50.64
 21
50.64
  0
LINE
  8
0
 10
-90.96
 11
-90.96
 20
50.64
 21
41.96
  0
LINE
  8
0
 10
-90.96
 11
-85.015
 20
41.96
 21
41.96
  0
LINE
  8
0
 10
-85.015
 11
-85.015
 20
41.96
 21
34.04
  0
LINE
  8
0
 10
-85.015
 11
-90.96
 20
34.04
 21
34.04
  0
LINE
  8
0
 10
-90.96
 11
-90.96
 20
34.04
 21
25.96
  0
LINE
  8
0
 10
-90.96
 11
-99.04
 20
25.96
 21
25.96
  0
LINE
  8
0
 10
-99.04
 11
-99.04
 20
25.96
 21
20.015
  0
LINE
  8
0
 10
-99.04
 11
-106.96
 20
20.015
 21
20.015
  0
LINE
  8
0
 10
-106.96
 11
-106.96
 20
20.015
 21
25.96
  0
LINE
  8
0
 10
-106.96
 11
-115.64
 20
25.96
 21
25.96
  0
LINE
  8
0
 10
-115.64
 11
-115.64
 20
25.96
 21
29.94
  0
LINE
  8
0
 10
-115.64
 11
-114.29
 20
29.94
 21
29.94
  0
LINE
  8
0
 10
-114.29
 11
-114.29
 20
29.94
 21
31.86
  0
LINE
  8
0
 10
-114.29
 11
-115.64
 20
31.86
 21
31.86
  0
LINE
  8
0
 10
-115.64
 11
-115.64
 20
31.86
 21
33.95
  0
LINE
  8
0
 10
-115.64
 11
-118.36
 20
33.95
 21
33.95
  0
LINE
  8
0
 10
-118.36
 11
-118.36
 20
33.95
 21
31.86
  0
LINE
  8
0
 10
-118.36
 11
-119.71
 20
31.86
 21
31.86
  0
LINE
  8
0
 10
-119.71
 11
-119.71
 20
31.86
 21
29.94
  0
LINE
  8
0
 10
-119.71
 11
-118.36
 20
29.94
 21
29.94
  0
LINE
  8
0
 10
-118.36
 11
-118.36
 20
29.94
 21
25.96
  0
LINE
  8
0
 10
-118.36
 11
-127.04
 20
25.96
 21
25.96
  0
LINE
  8
0
 10
-127.04
 11
-127.04
 20
25.96
 21
20.015
  0
LINE
  8
0
 10
-127.04
 11
-134.96
 20
20.015
 21
20.015
  0
LINE
  8
0
 10
-134.96
 11
-134.96
 20
20.015
 21
25.96
  0
LINE
  8
0
 10
-134.96
 11
-151.04
 20
25.96
 21
25.96
  0
LINE
  8
0
 10
-151.04
 11
-151.04
 20
25.96
 21
20.015
  0
LINE
  8
0
 10
-151.04
 11
-158.96
 20
20.015
 21
20.015
  0
LINE
  8
0
 10
-158.96
 11
-158.96
 20
20.015
 21
25.96
  0
LINE
  8
0
 10
-158.96
 11
-167.64
 20
25.96
 21
25.96
  0
LINE
  8
0
 10
-167.64
 11
-167.64
 20
25.96
 21
29.94
  0
LINE
  8
0
 10
-167.64
 11
-166.29
 20
29.94
 21
29.94
  0
LINE
  8
0
 10
-166.29
 11
-166.29
 20
29.94
 21
31.86
  0
LINE
  8
0
 10
-166.29
 11
-167.64
 20
31.86
 21
31.86
  0
LINE
  8
0
 10
-167.64
 11
-167.64
 20
31.86
 21
33.95
  0
LINE
  8
0
 10
-167.64
 11
-170.36
 20
33.95
 21
33.95
  0
LINE
  8
0
 10
-170.36
 11
-170.36
 20
33.95
 21
31.86
  0
LINE
  8
0
 10
-170.36
 11
-171.71
 20
31.86
 21
31.86
  0
LINE
  8
0
 10
-171.71
 11
-171.71
 20
31.86
 21
29.94
  0
LINE
  8
0
 10
-171.71
 11
-170.36
 20
29.94
 21
29.94
  0
LINE
  8
0
 10
-170.36
 11
-170.36
 20
29.94
 21
25.96
  0
LINE
  8
0
 10
-170.36
 11
-179.04
 20
25.96
 21
25.96
  0
LINE
  8
0
 10
-179.04
 11
-179.04
 20
25.96
 21
20.015
  0
LINE
  8
0
 10
-179.04
 11
-186.96
 20
20.015
 21
20.015
  0
LINE
  8
0
 10
-186.96
 11
-186.96
 20
20.015
 21
25.96
  0
LINE
  8
0
 10
-186.96
 11
-195.04
 20
25.96
 21
25.96
  0
LINE
  8
0
 10
-195.04
 11
-195.04
 20
25.96
 21
34.04
  0
LINE
  8
0
 10
-195.04
 11
-200.985
 20
34.04
 21
34.04
  0
LINE
  8
0
 10
-170.4
 11
-170.4
 20
-81.58
 21
-80.42
  0
LINE
  8
0
 10
-170.4
 11
-169.58
 20
-80.42
 21
-79.6
  0
LINE
  8
0
 10
-169.58
 11
-168.42
 20
-79.6
 21
-79.6
  0
LINE
  8
0
 10
-168.42
 11
-167.6
 20
-79.6
 21
-80.42
  0
LINE
  8
0
 10
-167.6
 11
-167.6
 20
-80.42
 21
-81.58
  0
LINE
  8
0
 10
-167.6
 11
-168.42
 20
-81.58
 21
-82.4
  0
LINE
  8
0
 10
-168.42
 11
-169.58
 20
-82.4
 21
-82.4
  0
LINE
  8
0
 10
-169.58
 11
-170.4
 20
-82.4
 21
-81.58
  0
LINE
  8
0
 10
-170.4
 11
-170.4
 20
-23.58
 21
-22.42
  0
LINE
  8
0
 10
-170.4
 11
-169.58
 20
-22.42
 21
-21.6
  0
LINE
  8
0
 10
-169.58
 11
-168.42
 20
-21.6
 21
-21.6
  0
LINE
  8
0
 10
-168.42
 11
-167.6
 20
-21.6
 21
-22.42
  0
LINE
  8
0
 10
-167.6
 11
-167.6
 20
-22.42
 21
-23.58
  0
LINE
  8
0
 10
-167.6
 11
-168.42
 20
-23.58
 21
-24.4
  0
LINE
  8
0
 10
-168.42
 11
-169.58
 20
-24.4
 21
-24.4
  0
LINE
  8
0
 10
-169.58
 11
-170.4
 20
-24.4
 21
-23.58
  0
LINE
  8
0
 10
-167.74
 11
-167.74
 20
42.944
 21
45.056
  0
LINE
  8
0
 10
-167.74
 11
-166.684
 20
45.056
 21
46.884
  0
LINE
  8
0
 10
-166.684
 11
-164.856
 20
46.884
 21
47.94
  0
LINE
  8
0
 10
-164.856
 11
-162.744
 20
47.94
 21
47.94
  0
LINE
  8
0
 10
-162.744
 11
-160.916
 20
47.94
 21
46.884
  0
LINE
  8
0
 10
-160.916
 11
-159.86
 20
46.884
 21
45.056
  0
LINE
  8
0
 10
-159.86
 11
-159.86
 20
45.056
 21
42.944
  0
LINE
  8
0
 10
-159.86
 11
-160.916
 20
42.944
 21
41.116
  0
LINE
  8
0
 10
-160.916
 11
-162.744
 20
41.116
 21
40.06
  0
LINE
  8
0
 10
-162.744
 11
-164.856
 20
40.06
 21
40.06
  0
LINE
  8
0
 10
-164.856
 11
-166.684
 20
40.06
 21
41.116
  0
LINE
  8
0
 10
-166.684
 11
-167.74
 20
41.116
 21
42.944
  0
LINE
  8
0
 10
-167.74
 11
-167.74
 20
59.216
 21
60.784
  0
LINE
  8
0
 10
-167.74
 11
-167.14
 20
60.784
 21
62.232
  0
LINE
  8
0
 10
-167.14
 11
-166.032
 20
62.232
 21
63.34
  0
LINE
  8
0
 10
-166.032
 11
-164.584
 20
63.34
 21
63.94
  0
LINE
  8
0
 10
-164.584
 11
-163.016
 20
63.94
 21
63.94
  0
LINE
  8
0
 10
-163.016
 11
-161.568
 20
63.94
 21
63.34
  0
LINE
  8
0
 10
-161.568
 11
-160.46
 20
63.34
 21
62.232
  0
LINE
  8
0
 10
-160.46
 11
-159.86
 20
62.232
 21
60.784
  0
LINE
  8
0
 10
-159.86
 11
-159.86
 20
60.784
 21
59.216
  0
LINE
  8
0
 10
-159.86
 11
-160.46
 20
59.216
 21
57.768
  0
LINE
  8
0
 10
-160.46
 11
-161.568
 20
57.768
 21
56.66
  0
LINE
  8
0
 10
-161.568
 11
-163.016
 20
56.66
 21
56.06
  0
LINE
  8
0
 10
-163.016
 11
-164.584
 20
56.06
 21
56.06
  0
LINE
  8
0
 10
-164.584
 11
-166.032
 20
56.06
 21
56.66
  0
LINE
  8
0
 10
-166.032
 11
-167.14
 20
56.66
 21
57.768
  0
LINE
  8
0
 10
-167.14
 11
-167.74
 20
57.768
 21
59.216
  0
LINE
  8
0
 10
-158.96
 11
-158.96
 20
-83.985
 21
-78.015
  0
LINE
  8
0
 10
-158.96
 11
-151.04
 20
-78.015
 21
-78.015
  0
LINE
  8
0
 10
-151.04
 11
-151.04
 20
-78.015
 21
-83.985
  0
LINE
  8
0
 10
-151.04
 11
-158.96
 20
-83.985
 21
-83.985
  0
LINE
  8
0
 10
-158.96
 11
-158.96
 20
-25.985
 21
-20.015
  0
LINE
  8
0
 10
-158.96
 11
-151.04
 20
-20.015
 21
-20.015
  0
LINE
  8
0
 10
-151.04
 11
-151.04
 20
-20.015
 21
-25.985
  0
LINE
  8
0
 10
-151.04
 11
-158.96
 20
-25.985
 21
-25.985
  0
LINE
  8
0
 10
-156.95
 11
-156.95
 20
42.717
 21
45.283
  0
LINE
  8
0
 10
-156.95
 11
-155.441
 20
45.283
 21
47.36
  0
LINE
  8
0
 10
-155.441
 11
-153
 20
47.36
 21
48.153
  0
LINE
  8
0
 10
-153
 11
-150.559
 20
48.153
 21
47.36
  0
LINE
  8
0
 10
-150.559
 11
-149.05
 20
47.36
 21
45.283
  0
LINE
  8
0
 10
-149.05
 11
-149.05
 20
45.283
 21
42.717
  0
LINE
  8
0
 10
-149.05
 11
-150.559
 20
42.717
 21
40.64
  0
LINE
  8
0
 10
-150.559
 11
-153
 20
40.64
 21
39.847
  0
LINE
  8
0
 10
-153
 11
-155.441
 20
39.847
 21
40.64
  0
LINE
  8
0
 10
-155.441
 11
-156.95
 20
40.64
 21
42.717
  0
LINE
  8
0
 10
-156.95
 11
-156.95
 20
59.214
 21
60.786
  0
LINE
  8
0
 10
-156.95
 11
-156.349
 20
60.786
 21
62.237
  0
LINE
  8
0
 10
-156.349
 11
-155.237
 20
62.237
 21
63.349
  0
LINE
  8
0
 10
-155.237
 11
-153.786
 20
63.349
 21
63.95
  0
LINE
  8
0
 10
-153.786
 11
-152.214
 20
63.95
 21
63.95
  0
LINE
  8
0
 10
-152.214
 11
-150.763
 20
63.95
 21
63.349
  0
LINE
  8
0
 10
-150.763
 11
-149.651
 20
63.349
 21
62.237
  0
LINE
  8
0
 10
-149.651
 11
-149.05
 20
62.237
 21
60.786
  0
LINE
  8
0
 10
-149.05
 11
-149.05
 20
60.786
 21
59.214
  0
LINE
  8
0
 10
-149.05
 11
-149.651
 20
59.214
 21
57.763
  0
LINE
  8
0
 10
-149.651
 11
-150.763
 20
57.763
 21
56.651
  0
LINE
  8
0
 10
-150.763
 11
-152.214
 20
56.651
 21
56.05
  0
LINE
  8
0
 10
-152.214
 11
-153.786
 20
56.05
 21
56.05
  0
LINE
  8
0
 10
-153.786
 11
-155.237
 20
56.05
 21
56.651
  0
LINE
  8
0
 10
-155.237
 11
-156.349
 20
56.651
 21
57.763
  0
LINE
  8
0
 10
-156.349
 11
-156.95
 20
57.763
 21
59.214
  0
LINE
  8
0
 10
-146.16
 11
-146.16
 20
42.36
 21
45.64
  0
LINE
  8
0
 10
-146.16
 11
-143.84
 20
45.64
 21
47.96
  0
LINE
  8
0
 10
-143.84
 11
-140.56
 20
47.96
 21
47.96
  0
LINE
  8
0
 10
-140.56
 11
-138.24
 20
47.96
 21
45.64
  0
LINE
  8
0
 10
-138.24
 11
-138.24
 20
45.64
 21
42.36
  0
LINE
  8
0
 10
-138.24
 11
-140.56
 20
42.36
 21
40.04
  0
LINE
  8
0
 10
-140.56
 11
-143.84
 20
40.04
 21
40.04
  0
LINE
  8
0
 10
-143.84
 11
-146.16
 20
40.04
 21
42.36
  0
LINE
  8
0
 10
-146.16
 11
-146.16
 20
59.212
 21
60.788
  0
LINE
  8
0
 10
-146.16
 11
-145.557
 20
60.788
 21
62.243
  0
LINE
  8
0
 10
-145.557
 11
-144.443
 20
62.243
 21
63.357
  0
LINE
  8
0
 10
-144.443
 11
-142.988
 20
63.357
 21
63.96
  0
LINE
  8
0
 10
-142.988
 11
-141.412
 20
63.96
 21
63.96
  0
LINE
  8
0
 10
-141.412
 11
-139.957
 20
63.96
 21
63.357
  0
LINE
  8
0
 10
-139.957
 11
-138.843
 20
63.357
 21
62.243
  0
LINE
  8
0
 10
-138.843
 11
-138.24
 20
62.243
 21
60.788
  0
LINE
  8
0
 10
-138.24
 11
-138.24
 20
60.788
 21
59.212
  0
LINE
  8
0
 10
-138.24
 11
-138.843
 20
59.212
 21
57.757
  0
LINE
  8
0
 10
-138.843
 11
-139.957
 20
57.757
 21
56.643
  0
LINE
  8
0
 10
-139.957
 11
-141.412
 20
56.643
 21
56.04
  0
LINE
  8
0
 10
-141.412
 11
-142.988
 20
56.04
 21
56.04
  0
LINE
  8
0
 10
-142.988
 11
-144.443
 20
56.04
 21
56.643
  0
LINE
  8
0
 10
-144.443
 11
-145.557
 20
56.643
 21
57.757
  0
LINE
  8
0
 10
-145.557
 11
-146.16
 20
57.757
 21
59.212
  0
LINE
  8
0
 10
-135.37
 11
-135.37
 20
41.708
 21
46.292
  0
LINE
  8
0
 10
-135.37
 11
-131.4
 20
46.292
 21
48.584
  0
LINE
  8
0
 10
-131.4
 11
-127.43
 20
48.584
 21
46.292
  0
LINE
  8
0
 10
-127.43
 11
-127.43
 20
46.292
 21
41.708
  0
LINE
  8
0
 10
-127.43
 11
-131.4
 20
41.708
 21
39.416
  0
LINE
  8
0
 10
-131.4
 11
-135.37
 20
39.416
 21
41.708
  0
LINE
  8
0
 10
-135.37
 11
-135.37
 20
59.21
 21
60.79
  0
LINE
  8
0
 10
-135.37
 11
-134.766
 20
60.79
 21
62.249
  0
LINE
  8
0
 10
-134.766
 11
-133.649
 20
62.249
 21
63.366
  0
LINE
  8
0
 10
-133.649
 11
-132.19
 20
63.366
 21
63.97
  0
LINE
  8
0
 10
-132.19
 11
-130.61
 20
63.97
 21
63.97
  0
LINE
  8
0
 10
-130.61
 11
-129.151
 20
63.97
 21
63.366
  0
LINE
  8
0
 10
-129.151
 11
-128.034
 20
63.366
 21
62.249
  0
LINE
  8
0
 10
-128.034
 11
-127.43
 20
62.249
 21
60.79
  0
LINE
  8
0
 10
-127.43
 11
-127.43
 20
60.79
 21
59.21
  0
LINE
  8
0
 10
-127.43
 11
-128.034
 20
59.21
 21
57.751
  0
LINE
  8
0
 10
-128.034
 11
-129.151
 20
57.751
 21
56.634
  0
LINE
  8
0
 10
-129.151
 11
-130.61
 20
56.634
 21
56.03
  0
LINE
  8
0
 10
-130.61
 11
-132.19
 20
56.03
 21
56.03
  0
LINE
  8
0
 10
-132.19
 11
-133.649
 20
56.03
 21
56.634
  0
LINE
  8
0
 10
-133.649
 11
-134.766
 20
56.634
 21
57.751
  0
LINE
  8
0
 10
-134.766
 11
-135.37
 20
57.751
 21
59.21
  0
LINE
  8
0
 10
-134.96
 11
-134.96
 20
-83.985
 21
-78.015
  0
LINE
  8
0
 10
-134.96
 11
-127.04
 20
-78.015
 21
-78.015
  0
LINE
  8
0
 10
-127.04
 11
-127.04
 20
-78.015
 21
-83.985
  0
LINE
  8
0
 10
-127.04
 11
-134.96
 20
-83.985
 21
-83.985
  0
LINE
  8
0
 10
-134.96
 11
-134.96
 20
-25.985
 21
-20.015
  0
LINE
  8
0
 10
-134.96
 11
-127.04
 20
-20.015
 21
-20.015
  0
LINE
  8
0
 10
-127.04
 11
-127.04
 20
-20.015
 21
-25.985
  0
LINE
  8
0
 10
-127.04
 11
-134.96
 20
-25.985
 21
-25.985
  0
LINE
  8
0
 10
-124.58
 11
-124.58
 20
40.02
 21
47.98
  0
LINE
  8
0
 10
-124.58
 11
-116.62
 20
47.98
 21
47.98
  0
LINE
  8
0
 10
-116.62
 11
-116.62
 20
47.98
 21
40.02
  0
LINE
  8
0
 10
-116.62
 11
-124.58
 20
40.02
 21
40.02
  0
LINE
  8
0
 10
-124.58
 11
-124.58
 20
59.208
 21
60.792
  0
LINE
  8
0
 10
-124.58
 11
-123.974
 20
60.792
 21
62.254
  0
LINE
  8
0
 10
-123.974
 11
-122.854
 20
62.254
 21
63.374
  0
LINE
  8
0
 10
-122.854
 11
-121.392
 20
63.374
 21
63.98
  0
LINE
  8
0
 10
-121.392
 11
-119.808
 20
63.98
 21
63.98
  0
LINE
  8
0
 10
-119.808
 11
-118.346
 20
63.98
 21
63.374
  0
LINE
  8
0
 10
-118.346
 11
-117.226
 20
63.374
 21
62.254
  0
LINE
  8
0
 10
-117.226
 11
-116.62
 20
62.254
 21
60.792
  0
LINE
  8
0
 10
-116.62
 11
-116.62
 20
60.792
 21
59.208
  0
LINE
  8
0
 10
-116.62
 11
-117.226
 20
59.208
 21
57.746
  0
LINE
  8
0
 10
-117.226
 11
-118.346
 20
57.746
 21
56.626
  0
LINE
  8
0
 10
-118.346
 11
-119.808
 20
56.626
 21
56.02
  0
LINE
  8
0
 10
-119.808
 11
-121.392
 20
56.02
 21
56.02
  0
LINE
  8
0
 10
-121.392
 11
-122.854
 20
56.02
 21
56.626
  0
LINE
  8
0
 10
-122.854
 11
-123.974
 20
56.626
 21
57.746
  0
LINE
  8
0
 10
-123.974
 11
-124.58
 20
57.746
 21
59.208
  0
LINE
  8
0
 10
-118.4
 11
-118.4
 20
-81.58
 21
-80.42
  0
LINE
  8
0
 10
-118.4
 11
-117.58
 20
-80.42
 21
-79.6
  0
LINE
  8
0
 10
-117.58
 11
-116.42
 20
-79.6
 21
-79.6
  0
LINE
  8
0
 10
-116.42
 11
-115.6
 20
-79.6
 21
-80.42
  0
LINE
  8
0
 10
-115.6
 11
-115.6
 20
-80.42
 21
-81.58
  0
LINE
  8
0
 10
-115.6
 11
-116.42
 20
-81.58
 21
-82.4
  0
LINE
  8
0
 10
-116.42
 11
-117.58
 20
-82.4
 21
-82.4
  0
LINE
  8
0
 10
-117.58
 11
-118.4
 20
-82.4
 21
-81.58
  0
LINE
  8
0
 10
-118.4
 11
-118.4
 20
-23.58
 21
-22.42
  0
LINE
  8
0
 10
-118.4
 11
-117.58
 20
-22.42
 21
-21.6
  0
LINE
  8
0
 10
-117.58
 11
-116.42
 20
-21.6
 21
-21.6
  0
LINE
  8
0
 10
-116.42
 11
-115.6
 20
-21.6
 21
-22.42
  0
LINE
  8
0
 10
-115.6
 11
-115.6
 20
-22.42
 21
-23.58
  0
LINE
  8
0
 10
-115.6
 11
-116.42
 20
-23.58
 21
-24.4
  0
LINE
  8
0
 10
-116.42
 11
-117.58
 20
-24.4
 21
-24.4
  0
LINE
  8
0
 10
-117.58
 11
-118.4
 20
-24.4
 21
-23.58
  0
LINE
  8
0
 10
-113.79
 11
-113.79
 20
59.206
 21
60.794
  0
LINE
  8
0
 10
-113.79
 11
-113.183
 20
60.794
 21
62.26
  0
LINE
  8
0
 10
-113.183
 11
-112.06
 20
62.26
 21
63.383
  0
LINE
  8
0
 10
-112.06
 11
-110.594
 20
63.383
 21
63.99
  0
LINE
  8
0
 10
-110.594
 11
-109.006
 20
63.99
 21
63.99
  0
LINE
  8
0
 10
-109.006
 11
-107.54
 20
63.99
 21
63.383
  0
LINE
  8
0
 10
-107.54
 11
-106.417
 20
63.383
 21
62.26
  0
LINE
  8
0
 10
-106.417
 11
-105.81
 20
62.26
 21
60.794
  0
LINE
  8
0
 10
-105.81
 11
-105.81
 20
60.794
 21
59.206
  0
LINE
  8
0
 10
-105.81
 11
-106.417
 20
59.206
 21
57.74
  0
LINE
  8
0
 10
-106.417
 11
-107.54
 20
57.74
 21
56.617
  0
LINE
  8
0
 10
-107.54
 11
-109.006
 20
56.617
 21
56.01
  0
LINE
  8
0
 10
-109.006
 11
-110.594
 20
56.01
 21
56.01
  0
LINE
  8
0
 10
-110.594
 11
-112.06
 20
56.01
 21
56.617
  0
LINE
  8
0
 10
-112.06
 11
-113.183
 20
56.617
 21
57.74
  0
LINE
  8
0
 10
-113.183
 11
-113.79
 20
57.74
 21
59.206
  0
LINE
  8
0
 10
-106.96
 11
-106.96
 20
-83.985
 21
-78.015
  0
LINE
  8
0
 10
-106.96
 11
-99.04
 20
-78.015
 21
-78.015
  0
LINE
  8
0
 10
-99.04
 11
-99.04
 20
-78.015
 21
-83.985
  0
LINE
  8
0
 10
-99.04
 11
-106.96
 20
-83.985
 21
-83.985
  0
LINE
  8
0
 10
-106.96
 11
-106.96
 20
-25.985
 21
-20.015
  0
LINE
  8
0
 10
-106.96
 11
-99.04
 20
-20.015
 21
-20.015
  0
LINE
  8
0
 10
-99.04
 11
-99.04
 20
-20.015
 21
-25.985
  0
LINE
  8
0
 10
-99.04
 11
-106.96
 20
-25.985
 21
-25.985
  0
LINE
  8
0
 10
-36.04
 11
-36.04
 20
-88.04
 21
-15.96
  0
LINE
  8
0
 10
-36.04
 11
36.04
 20
-15.96
 21
-15.96
  0
LINE
  8
0
 10
36.04
 11
36.04
 20
-15.96
 21
-88.04
  0
LINE
  8
0
 10
36.04
 11
-36.04
 20
-88.04
 21
-88.04
  0
LINE
  8
0
 10
-36.04
 11
-36.04
 20
15.96
 21
88.04
  0
LINE
  8
0
 10
-36.04
 11
36.04
 20
88.04
 21
88.04
  0
LINE
  8
0
 10
36.04
 11
36.04
 20
88.04
 21
15.96
  0
LINE
  8
0
 10
36.04
 11
-36.04
 20
15.96
 21
15.96
  0
LINE
  8
0
 10
-31.985
 11
-31.985
 20
-69.96
 21
-62.04
  0
LINE
  8
0
 10
-31.985
 11
-26.015
 20
-62.04
 21
-62.04
  0
LINE
  8
0
 10
-26.015
 11
-26.015
 20
-62.04
 21
-69.96
  0
LINE
  8
0
 10
-26.015
 11
-31.985
 20
-69.96
 21
-69.96
  0
LINE
  8
0
 10
-31.985
 11
-31.985
 20
-41.96
 21
-34.04
  0
LINE
  8
0
 10
-31.985
 11
-26.015
 20
-34.04
 21
-34.04
  0
LINE
  8
0
 10
-26.015
 11
-26.015
 20
-34.04
 21
-41.96
  0
LINE
  8
0
 10
-26.015
 11
-31.985
 20
-41.96
 21
-41.96
  0
LINE
  8
0
 10
-31.985
 11
-31.985
 20
34.04
 21
41.96
  0
LINE
  8
0
 10
-31.985
 11
-26.015
 20
41.96
 21
41.96
  0
LINE
  8
0
 10
-26.015
 11
-26.015
 20
41.96
 21
34.04
  0
LINE
  8
0
 10
-26.015
 11
-31.985
 20
34.04
 21
34.04
  0
LINE
  8
0
 10
-31.985
 11
-31.985
 20
62.04
 21
69.96
  0
LINE
  8
0
 10
-31.985
 11
-26.015
 20
69.96
 21
69.96
  0
LINE
  8
0
 10
-26.015
 11
-26.015
 20
69.96
 21
62.04
  0
LINE
  8
0
 10
-26.015
 11
-31.985
 20
62.04
 21
62.04
  0
LINE
  8
0
 10
-30.4
 11
-30.4
 20
-52.58
 21
-51.42
  0
LINE
  8
0
 10
-30.4
 11
-29.58
 20
-51.42
 21
-50.6
  0
LINE
  8
0
 10
-29.58
 11
-28.42
 20
-50.6
 21
-50.6
  0
LINE
  8
0
 10
-28.42
 11
-27.6
 20
-50.6
 21
-51.42
  0
LINE
  8
0
 10
-27.6
 11
-27.6
 20
-51.42
 21
-52.58
  0
LINE
  8
0
 10
-27.6
 11
-28.42
 20
-52.58
 21
-53.4
  0
LINE
  8
0
 10
-28.42
 11
-29.58
 20
-53.4
 21
-53.4
  0
LINE
  8
0
 10
-29.58
 11
-30.4
 20
-53.4
 21
-52.58
  0
LINE
  8
0
 10
-30.4
 11
-30.4
 20
51.42
 21
52.58
  0
LINE
  8
0
 10
-30.4
 11
-29.58
 20
52.58
 21
53.4
  0
LINE
  8
0
 10
-29.58
 11
-28.42
 20
53.4
 21
53.4
  0
LINE
  8
0
 10
-28.42
 11
-27.6
 20
53.4
 21
52.58
  0
LINE
  8
0
 10
-27.6
 11
-27.6
 20
52.58
 21
51.42
  0
LINE
  8
0
 10
-27.6
 11
-28.42
 20
51.42
 21
50.6
  0
LINE
  8
0
 10
-28.42
 11
-29.58
 20
50.6
 21
50.6
  0
LINE
  8
0
 10
-29.58
 11
-30.4
 20
50.6
 21
51.42
  0
LINE
  8
0
 10
-17.96
 11
-17.96
 20
-83.985
 21
-78.015
  0
LINE
  8
0
 10
-17.96
 11
-10.04
 20
-78.015
 21
-78.015
  0
LINE
  8
0
 10
-10.04
 11
-10.04
 20
-78.015
 21
-83.985
  0
LINE
  8
0
 10
-10.04
 11
-17.96
 20
-83.985
 21
-83.985
  0
LINE
  8
0
 10
-17.96
 11
-17.96
 20
-25.985
 21
-20.015
  0
LINE
  8
0
 10
-17.96
 11
-10.04
 20
-20.015
 21
-20.015
  0
LINE
  8
0
 10
-10.04
 11
-10.04
 20
-20.015
 21
-25.985
  0
LINE
  8
0
 10
-10.04
 11
-17.96
 20
-25.985
 21
-25.985
  0
LINE
  8
0
 10
-17.96
 11
-17.96
 20
20.015
 21
25.985
  0
LINE
  8
0
 10
-17.96
 11
-10.04
 20
25.985
 21
25.985
  0
LINE
  8
0
 10
-10.04
 11
-10.04
 20
25.985
 21
20.015
  0
LINE
  8
0
 10
-10.04
 11
-17.96
 20
20.015
 21
20.015
  0
LINE
  8
0
 10
-17.96
 11
-17.96
 20
78.015
 21
83.985
  0
LINE
  8
0
 10
-17.96
 11
-10.04
 20
83.985
 21
83.985
  0
LINE
  8
0
 10
-10.04
 11
-10.04
 20
83.985
 21
78.015
  0
LINE
  8
0
 10
-10.04
 11
-17.96
 20
78.015
 21
78.015
  0
LINE
  8
0
 10
-1.4
 11
-1.4
 20
-81.58
 21
-80.42
  0
LINE
  8
0
 10
-1.4
 11
-0.58
 20
-80.42
 21
-79.6
  0
LINE
  8
0
 10
-0.58
 11
0.58
 20
-79.6
 21
-79.6
  0
LINE
  8
0
 10
0.58
 11
1.4
 20
-79.6
 21
-80.42
  0
LINE
  8
0
 10
1.4
 11
1.4
 20
-80.42
 21
-81.58
  0
LINE
  8
0
 10
1.4
 11
0.58
 20
-81.58
 21
-82.4
  0
LINE
  8
0
 10
0.58
 11
-0.58
 20
-82.4
 21
-82.4
  0
LINE
  8
0
 10
-0.58
 11
-1.4
 20
-82.4
 21
-81.58
  0
LINE
  8
0
 10
-1.4
 11
-1.4
 20
-23.58
 21
-22.42
  0
LINE
  8
0
 10
-1.4
 11
-0.58
 20
-22.42
 21
-21.6
  0
LINE
  8
0
 10
-0.58
 11
0.58
 20
-21.6
 21
-21.6
  0
LINE
  8
0
 10
0.58
 11
1.4
 20
-21.6
 21
-22.42
  0
LINE
  8
0
 10
1.4
 11
1.4
 20
-22.42
 21
-23.58
  0
LINE
  8
0
 10
1.4
 11
0.58
 20
-23.58
 21
-24.4
  0
LINE
  8
0
 10
0.58
 11
-0.58
 20
-24.4
 21
-24.4
  0
LINE
  8
0
 10
-0.58
 11
-1.4
 20
-24.4
 21
-23.58
  0
LINE
  8
0
 10
-1.4
 11
-1.4
 20
22.42
 21
23.58
  0
LINE
  8
0
 10
-1.4
 11
-0.58
 20
23.58
 21
24.4
  0
LINE
  8
0
 10
-0.58
 11
0.58
 20
24.4
 21
24.4
  0
LINE
  8
0
 10
0.58
 11
1.4
 20
24.4
 21
23.58
  0
LINE
  8
0
 10
1.4
 11
1.4
 20
23.58
 21
22.42
  0
LINE
  8
0
 10
1.4
 11
0.58
 20
22.42
 21
21.6
  0
LINE
  8
0
 10
0.58
 11
-0.58
 20
21.6
 21
21.6
  0
LINE
  8
0
 10
-0.58
 11
-1.4
 20
21.6
 21
22.42
  0
LINE
  8
0
 10
-1.4
 11
-1.4
 20
80.42
 21
81.58
  0
LINE
  8
0
 10
-1.4
 11
-0.58
 20
81.58
 21
82.4
  0
LINE
  8
0
 10
-0.58
 11
0.58
 20
82.4
 21
82.4
  0
LINE
  8
0
 10
0.58
 11
1.4
 20
82.4
 21
81.58
  0
LINE
  8
0
 10
1.4
 11
1.4
 20
81.58
 21
80.42
  0
LINE
  8
0
 10
1.4
 11
0.58
 20
80.42
 21
79.6
  0
LINE
  8
0
 10
0.58
 11
-0.58
 20
79.6
 21
79.6
  0
LINE
  8
0
 10
-0.58
 11
-1.4
 20
79.6
 21
80.42
  0
LINE
  8
0
 10
10.04
 11
10.04
 20
-83.985
 21
-78.015
  0
LINE
  8
0
 10
10.04
 11
17.96
 20
-78.015
 21
-78.015
  0
LINE
  8
0
 10
17.96
 11
17.96
 20
-78.015
 21
-83.985
  0
LINE
  8
0
 10
17.96
 11
10.04
 20
-83.985
 21
-83.985
  0
LINE
  8
0
 10
10.04
 11
10.04
 20
-25.985
 21
-20.015
  0
LINE
  8
0
 10
10.04
 11
17.96
 20
-20.015
 21
-20.015
  0
LINE
  8
0
 10
17.96
 11
17.96
 20
-20.015
 21
-25.985
  0
LINE
  8
0
 10
17.96
 11
10.04
 20
-25.985
 21
-25.985
  0
LINE
  8
0
 10
10.04
 11
10.04
 20
20.015
 21
25.985
  0
LINE
  8
0
 10
10.04
 11
17.96
 20
25.985
 21
25.985
  0
LINE
  8
0
 10
17.96
 11
17.96
 20
25.985
 21
20.015
  0
LINE
  8
0
 10
17.96
 11
10.04
 20
20.015
 21
20.015
  0
LINE
  8
0
 10
10.04
 11
10.04
 20
78.015
 21
83.985
  0
LINE
  8
0
 10
10.04
 11
17.96
 20
83.985
 21
83.985
  0
LINE
  8
0
 10
17.96
 11
17.96
 20
83.985
 21
78.015
  0
LINE
  8
0
 10
17.96
 11
10.04
 20
78.015
 21
78.015
  0
LINE
  8
0
 10
26.015
 11
26.015
 20
-69.96
 21
-62.04
  0
LINE
  8
0
 10
26.015
 11
31.985
 20
-62.04
 21
-62.04
  0
LINE
  8
0
 10
31.985
 11
31.985
 20
-62.04
 21
-69.96
  0
LINE
  8
0
 10
31.985
 11
26.015
 20
-69.96
 21
-69.96
  0
LINE
  8
0
 10
26.015
 11
26.015
 20
-41.96
 21
-34.04
  0
LINE
  8
0
 10
26.015
 11
31.985
 20
-34.04
 21
-34.04
  0
LINE
  8
0
 10
31.985
 11
31.985
 20
-34.04
 21
-41.96
  0
LINE
  8
0
 10
31.985
 11
26.015
 20
-41.96
 21
-41.96
  0
LINE
  8
0
 10
26.015
 11
26.015
 20
34.04
 21
41.96
  0
LINE
  8
0
 10
26.015
 11
31.985
 20
41.96
 21
41.96
  0
LINE
  8
0
 10
31.985
 11
31.985
 20
41.96
 21
34.04
  0
LINE
  8
0
 10
31.985
 11
26.015
 20
34.04
 21
34.04
  0
LINE
  8
0
 10
26.015
 11
26.015
 20
62.04
 21
69.96
  0
LINE
  8
0
 10
26.015
 11
31.985
 20
69.96
 21
69.96
  0
LINE
  8
0
 10
31.985
 11
31.985
 20
69.96
 21
62.04
  0
LINE
  8
0
 10
31.985
 11
26.015
 20
62.04
 21
62.04
  0
LINE
  8
0
 10
27.6
 11
27.6
 20
-52.58
 21
-51.42
  0
LINE
  8
0
 10
27.6
 11
28.42
 20
-51.42
 21
-50.6
  0
LINE
  8
0
 10
28.42
 11
29.58
 20
-50.6
 21
-50.6
  0
LINE
  8
0
 10
29.58
 11
30.4
 20
-50.6
 21
-51.42
  0
LINE
  8
0
 10
30.4
 11
30.4
 20
-51.42
 21
-52.58
  0
LINE
  8
0
 10
30.4
 11
29.58
 20
-52.58
 21
-53.4
  0
LINE
  8
0
 10
29.58
 11
28.42
 20
-53.4
 21
-53.4
  0
LINE
  8
0
 10
28.42
 11
27.6
 20
-53.4
 21
-52.58
  0
LINE
  8
0
 10
27.6
 11
27.6
 20
51.42
 21
52.58
  0
LINE
  8
0
 10
27.6
 11
28.42
 20
52.58
 21
53.4
  0
LINE
  8
0
 10
28.42
 11
29.58
 20
53.4
 21
53.4
  0
LINE
  8
0
 10
29.58
 11
30.4
 20
53.4
 21
52.58
  0
LINE
  8
0
 10
30.4
 11
30.4
 20
52.58
 21
51.42
  0
LINE
  8
0
 10
30.4
 11
29.58
 20
51.42
 21
50.6
  0
LINE
  8
0
 10
29.58
 11
28.42
 20
50.6
 21
50.6
  0
LINE
  8
0
 10
28.42
 11
27.6
 20
50.6
 21
51.42
  0
LINE
  8
0
 10
85.015
 11
85.015
 20
-69.96
 21
-62.04
  0
LINE
  8
0
 10
85.015
 11
90.96
 20
-62.04
 21
-62.04
  0
LINE
  8
0
 10
90.96
 11
90.96
 20
-62.04
 21
-53.36
  0
LINE
  8
0
 10
90.96
 11
94.94
 20
-53.36
 21
-53.36
  0
LINE
  8
0
 10
94.94
 11
94.94
 20
-53.36
 21
-54.71
  0
LINE
  8
0
 10
94.94
 11
96.86
 20
-54.71
 21
-54.71
  0
LINE
  8
0
 10
96.86
 11
96.86
 20
-54.71
 21
-53.36
  0
LINE
  8
0
 10
96.86
 11
98.95
 20
-53.36
 21
-53.36
  0
LINE
  8
0
 10
98.95
 11
98.95
 20
-53.36
 21
-50.64
  0
LINE
  8
0
 10
98.95
 11
96.86
 20
-50.64
 21
-50.64
  0
LINE
  8
0
 10
96.86
 11
96.86
 20
-50.64
 21
-49.29
  0
LINE
  8
0
 10
96.86
 11
94.94
 20
-49.29
 21
-49.29
  0
LINE
  8
0
 10
94.94
 11
94.94
 20
-49.29
 21
-50.64
  0
LINE
  8
0
 10
94.94
 11
90.96
 20
-50.64
 21
-50.64
  0
LINE
  8
0
 10
90.96
 11
90.96
 20
-50.64
 21
-41.96
  0
LINE
  8
0
 10
90.96
 11
85.015
 20
-41.96
 21
-41.96
  0
LINE
  8
0
 10
85.015
 11
85.015
 20
-41.96
 21
-34.04
  0
LINE
  8
0
 10
85.015
 11
90.96
 20
-34.04
 21
-34.04
  0
LINE
  8
0
 10
90.96
 11
90.96
 20
-34.04
 21
-15.96
  0
LINE
  8
0
 10
90.96
 11
195.04
 20
-15.96
 21
-15.96
  0
LINE
  8
0
 10
195.04
 11
195.04
 20
-15.96
 21
-34.04
  0
LINE
  8
0
 10
195.04
 11
200.985
 20
-34.04
 21
-34.04
  0
LINE
  8
0
 10
200.985
 11
200.985
 20
-34.04
 21
-41.96
  0
LINE
  8
0
 10
200.985
 11
195.04
 20
-41.96
 21
-41.96
  0
LINE
  8
0
 10
195.04
 11
195.04
 20
-41.96
 21
-50.64
  0
LINE
  8
0
 10
195.04
 11
191.06
 20
-50.64
 21
-50.64
  0
LINE
  8
0
 10
191.06
 11
191.06
 20
-50.64
 21
-49.29
  0
LINE
  8
0
 10
191.06
 11
189.14
 20
-49.29
 21
-49.29
  0
LINE
  8
0
 10
189.14
 11
189.14
 20
-49.29
 21
-50.64
  0
LINE
  8
0
 10
189.14
 11
187.05
 20
-50.64
 21
-50.64
  0
LINE
  8
0
 10
187.05
 11
187.05
 20
-50.64
 21
-53.36
  0
LINE
  8
0
 10
187.05
 11
189.14
 20
-53.36
 21
-53.36
  0
LINE
  8
0
 10
189.14
 11
189.14
 20
-53.36
 21
-54.71
  0
LINE
  8
0
 10
189.14
 11
191.06
 20
-54.71
 21
-54.71
  0
LINE
  8
0
 10
191.06
 11
191.06
 20
-54.71
 21
-53.36
  0
LINE
  8
0
 10
191.06
 11
195.04
 20
-53.36
 21
-53.36
  0
LINE
  8
0
 10
195.04
 11
195.04
 20
-53.36
 21
-62.04
  0
LINE
  8
0
 10
195.04
 11
200.985
 20
-62.04
 21
-62.04
  0
LINE
  8
0
 10
200.985
 11
200.985
 20
-62.04
 21
-69.96
  0
LINE
  8
0
 10
200.985
 11
195.04
 20
-69.96
 21
-69.96
  0
LINE
  8
0
 10
195.04
 11
195.04
 20
-69.96
 21
-88.04
  0
LINE
  8
0
 10
195.04
 11
90.96
 20
-88.04
 21
-88.04
  0
LINE
  8
0
 10
90.96
 11
90.96
 20
-88.04
 21
-69.96
  0
LINE
  8
0
 10
90.96
 11
85.015
 20
-69.96
 21
-69.96
  0
LINE
  8
0
 10
85.015
 11
85.015
 20
34.04
 21
41.96
  0
LINE
  8
0
 10
85.015
 11
90.96
 20
41.96
 21
41.96
  0
LINE
  8
0
 10
90.96
 11
90.96
 20
41.96
 21
50.64
  0
LINE
  8
0
 10
90.96
 11
94.94
 20
50.64
 21
50.64
  0
LINE
  8
0
 10
94.94
 11
94.94
 20
50.64
 21
49.29
  0
LINE
  8
0
 10
94.94
 11
96.86
 20
49.29
 21
49.29
  0
LINE
  8
0
 10
96.86
 11
96.86
 20
49.29
 21
50.64
  0
LINE
  8
0
 10
96.86
 11
98.95
 20
50.64
 21
50.64
  0
LINE
  8
0
 10
98.95
 11
98.95
 20
50.64
 21
53.36
  0
LINE
  8
0
 10
98.95
 11
96.86
 20
53.36
 21
53.36
  0
LINE
  8
0
 10
96.86
 11
96.86
 20
53.36
 21
54.71
  0
LINE
  8
0
 10
96.86
 11
94.94
 20
54.71
 21
54.71
  0
LINE
  8
0
 10
94.94
 11
94.94
 20
54.71
 21
53.36
  0
LINE
  8
0
 10
94.94
 11
90.96
 20
53.36
 21
53.36
  0
LINE
  8
0
 10
90.96
 11
90.96
 20
53.36
 21
62.04
  0
LINE
  8
0
 10
90.96
 11
85.015
 20
62.04
 21
62.04
  0
LINE
  8
0
 10
85.015
 11
85.015
 20
62.04
 21
69.96
  0
LINE
  8
0
 10
85.015
 11
90.96
 20
69.96
 21
69.96
  0
LINE
  8
0
 10
90.96
 11
90.96
 20
69.96
 21
78.04
  0
LINE
  8
0
 10
90.96
 11
99.04
 20
78.04
 21
78.04
  0
LINE
  8
0
 10
99.04
 11
99.04
 20
78.04
 21
83.985
  0
LINE
  8
0
 10
99.04
 11
106.96
 20
83.985
 21
83.985
  0
LINE
  8
0
 10
106.96
 11
106.96
 20
83.985
 21
78.04
  0
LINE
  8
0
 10
106.96
 11
115.64
 20
78.04
 21
78.04
  0
LINE
  8
0
 10
115.64
 11
115.64
 20
78.04
 21
74.06
  0
LINE
  8
0
 10
115.64
 11
114.29
 20
74.06
 21
74.06
  0
LINE
  8
0
 10
114.29
 11
114.29
 20
74.06
 21
72.14
  0
LINE
  8
0
 10
114.29
 11
115.64
 20
72.14
 21
72.14
  0
LINE
  8
0
 10
115.64
 11
115.64
 20
72.14
 21
70.05
  0
LINE
  8
0
 10
115.64
 11
118.36
 20
70.05
 21
70.05
  0
LINE
  8
0
 10
118.36
 11
118.36
 20
70.05
 21
72.14
  0
LINE
  8
0
 10
118.36
 11
119.71
 20
72.14
 21
72.14
  0
LINE
  8
0
 10
119.71
 11
119.71
 20
72.14
 21
74.06
  0
LINE
  8
0
 10
119.71
 11
118.36
 20
74.06
 21
74.06
  0
LINE
  8
0
 10
118.36
 11
118.36
 20
74.06
 21
78.04
  0
LINE
  8
0
 10
118.36
 11
127.04
 20
78.04
 21
78.04
  0
LINE
  8
0
 10
127.04
 11
127.04
 20
78.04
 21
83.985
  0
LINE
  8
0
 10
127.04
 11
134.96
 20
83.985
 21
83.985
  0
LINE
  8
0
 10
134.96
 11
134.96
 20
83.985
 21
78.04
  0
LINE
  8
0
 10
134.96
 11
151.04
 20
78.04
 21
78.04
  0
LINE
  8
0
 10
151.04
 11
151.04
 20
78.04
 21
83.985
  0
LINE
  8
0
 10
151.04
 11
158.96
 20
83.985
 21
83.985
  0
LINE
  8
0
 10
158.96
 11
158.96
 20
83.985
 21
78.04
  0
LINE
  8
0
 10
158.96
 11
167.64
 20
78.04
 21
78.04
  0
LINE
  8
0
 10
167.64
 11
167.64
 20
78.04
 21
74.06
  0
LINE
  8
0
 10
167.64
 11
166.29
 20
74.06
 21
74.06
  0
LINE
  8
0
 10
166.29
 11
166.29
 20
74.06
 21
72.14
  0
LINE
  8
0
 10
166.29
 11
167.64
 20
72.14
 21
72.14
  0
LINE
  8
0
 10
167.64
 11
167.64
 20
72.14
 21
70.05
  0
LINE
  8
0
 10
167.64
 11
170.36
 20
70.05
 21
70.05
  0
LINE
  8
0
 10
170.36
 11
170.36
 20
70.05
 21
72.14
  0
LINE
  8
0
 10
170.36
 11
171.71
 20
72.14
 21
72.14
  0
LINE
  8
0
 10
171.71
 11
171.71
 20
72.14
 21
74.06
  0
LINE
  8
0
 10
171.71
 11
170.36
 20
74.06
 21
74.06
  0
LINE
  8
0
 10
170.36
 11
170.36
 20
74.06
 21
78.04
  0
LINE
  8
0
 10
170.36
 11
179.04
 20
78.04
 21
78.04
  0
LINE
  8
0
 10
179.04
 11
179.04
 20
78.04
 21
83.985
  0
LINE
  8
0
 10
179.04
 11
186.96
 20
83.985
 21
83.985
  0
LINE
  8
0
 10
186.96
 11
186.96
 20
83.985
 21
78.04
  0
LINE
  8
0
 10
186.96
 11
195.04
 20
78.04
 21
78.04
  0
LINE
  8
0
 10
195.04
 11
195.04
 20
78.04
 21
69.96
  0
LINE
  8
0
 10
195.04
 11
200.985
 20
69.96
 21
69.96
  0
LINE
  8
0
 10
200.985
 11
200.985
 20
69.96
 21
62.04
  0
LINE
  8
0
 10
200.985
 11
195.04
 20
62.04
 21
62.04
  0
LINE
  8
0
 10
195.04
 11
195.04
 20
62.04
 21
53.36
  0
LINE
  8
0
 10
195.04
 11
191.06
 20
53.36
 21
53.36
  0
LINE
  8
0
 10
191.06
 11
191.06
 20
53.36
 21
54.71
  0
LINE
  8
0
 10
191.06
 11
189.14
 20
54.71
 21
54.71
  0
LINE
  8
0
 10
189.14
 11
189.14
 20
54.71
 21
53.36
  0
LINE
  8
0
 10
189.14
 11
187.05
 20
53.36
 21
53.36
  0
LINE
  8
0
 10
187.05
 11
187.05
 20
53.36
 21
50.64
  0
LINE
  8
0
 10
187.05
 11
189.14
 20
50.64
 21
50.64
  0
LINE
  8
0
 10
189.14
 11
189.14
 20
50.64
 21
49.29
  0
LINE
  8
0
 10
189.14
 11
191.06
 20
49.29
 21
49.29
  0
LINE
  8
0
 10
191.06
 11
191.06
 20
49.29
 21
50.64
  0
LINE
  8
0
 10
191.06
 11
195.04
 20
50.64
 21
50.64
  0
LINE
  8
0
 10
195.04
 11
195.04
 20
50.64
 21
41.96
  0
LINE
  8
0
 10
195.04
 11
200.985
 20
41.96
 21
41.96
  0
LINE
  8
0
 10
200.985
 11
200.985
 20
41.96
 21
34.04
  0
LINE
  8
0
 10
200.985
 11
195.04
 20
34.04
 21
34.04
  0
LINE
  8
0
 10
195.04
 11
195.04
 20
34.04
 21
25.96
  0
LINE
  8
0
 10
195.04
 11
186.96
 20
25.96
 21
25.96
  0
LINE
  8
0
 10
186.96
 11
186.96
 20
25.96
 21
20.015
  0
LINE
  8
0
 10
186.96
 11
179.04
 20
20.015
 21
20.015
  0
LINE
  8
0
 10
179.04
 11
179.04
 20
20.015
 21
25.96
  0
LINE
  8
0
 10
179.04
 11
170.36
 20
25.96
 21
25.96
  0
LINE
  8
0
 10
170.36
 11
170.36
 20
25.96
 21
29.94
  0
LINE
  8
0
 10
170.36
 11
171.71
 20
29.94
 21
29.94
  0
LINE
  8
0
 10
171.71
 11
171.71
 20
29.94
 21
31.86
  0
LINE
  8
0
 10
171.71
 11
170.36
 20
31.86
 21
31.86
  0
LINE
  8
0
 10
170.36
 11
170.36
 20
31.86
 21
33.95
  0
LINE
  8
0
 10
170.36
 11
167.64
 20
33.95
 21
33.95
  0
LINE
  8
0
 10
167.64
 11
167.64
 20
33.95
 21
31.86
  0
LINE
  8
0
 10
167.64
 11
166.29
 20
31.86
 21
31.86
  0
LINE
  8
0
 10
166.29
 11
166.29
 20
31.86
 21
29.94
  0
LINE
  8
0
 10
166.29
 11
167.64
 20
29.94
 21
29.94
  0
LINE
  8
0
 10
167.64
 11
167.64
 20
29.94
 21
25.96
  0
LINE
  8
0
 10
167.64
 11
158.96
 20
25.96
 21
25.96
  0
LINE
  8
0
 10
158.96
 11
158.96
 20
25.96
 21
20.015
  0
LINE
  8
0
 10
158.96
 11
151.04
 20
20.015
 21
20.015
  0
LINE
  8
0
 10
151.04
 11
151.04
 20
20.015
 21
25.96
  0
LINE
  8
0
 10
151.04
 11
134.96
 20
25.96
 21
25.96
  0
LINE
  8
0
 10
134.96
 11
134.96
 20
25.96
 21
20.015
  0
LINE
  8
0
 10
134.96
 11
127.04
 20
20.015
 21
20.015
  0
LINE
  8
0
 10
127.04
 11
127.04
 20
20.015
 21
25.96
  0
LINE
  8
0
 10
127.04
 11
118.36
 20
25.96
 21
25.96
  0
LINE
  8
0
 10
118.36
 11
118.36
 20
25.96
 21
29.94
  0
LINE
  8
0
 10
118.36
 11
119.71
 20
29.94
 21
29.94
  0
LINE
  8
0
 10
119.71
 11
119.71
 20
29.94
 21
31.86
  0
LINE
  8
0
 10
119.71
 11
118.36
 20
31.86
 21
31.86
  0
LINE
  8
0
 10
118.36
 11
118.36
 20
31.86
 21
33.95
  0
LINE
  8
0
 10
118.36
 11
115.64
 20
33.95
 21
33.95
  0
LINE
  8
0
 10
115.64
 11
115.64
 20
33.95
 21
31.86
  0
LINE
  8
0
 10
115.64
 11
114.29
 20
31.86
 21
31.86
  0
LINE
  8
0
 10
114.29
 11
114.29
 20
31.86
 21
29.94
  0
LINE
  8
0
 10
114.29
 11
115.64
 20
29.94
 21
29.94
  0
LINE
  8
0
 10
115.64
 11
115.64
 20
29.94
 21
25.96
  0
LINE
  8
0
 10
115.64
 11
106.96
 20
25.96
 21
25.96
  0
LINE
  8
0
 10
106.96
 11
106.96
 20
25.96
 21
20.015
  0
LINE
  8
0
 10
106.96
 11
99.04
 20
20.015
 21
20.015
  0
LINE
  8
0
 10
99.04
 11
99.04
 20
20.015
 21
25.96
  0
LINE
  8
0
 10
99.04
 11
90.96
 20
25.96
 21
25.96
  0
LINE
  8
0
 10
90.96
 11
90.96
 20
25.96
 21
34.04
  0
LINE
  8
0
 10
90.96
 11
85.015
 20
34.04
 21
34.04
  0
LINE
  8
0
 10
99.04
 11
99.04
 20
-83.985
 21
-78.015
  0
LINE
  8
0
 10
99.04
 11
106.96
 20
-78.015
 21
-78.015
  0
LINE
  8
0
 10
106.96
 11
106.96
 20
-78.015
 21
-83.985
  0
LINE
  8
0
 10
106.96
 11
99.04
 20
-83.985
 21
-83.985
  0
LINE
  8
0
 10
99.04
 11
99.04
 20
-25.985
 21
-20.015
  0
LINE
  8
0
 10
99.04
 11
106.96
 20
-20.015
 21
-20.015
  0
LINE
  8
0
 10
106.96
 11
106.96
 20
-20.015
 21
-25.985
  0
LINE
  8
0
 10
106.96
 11
99.04
 20
-25.985
 21
-25.985
  0
LINE
  8
0
 10
105.81
 11
105.81
 20
59.206
 21
60.794
  0
LINE
  8
0
 10
105.81
 11
106.417
 20
60.794
 21
62.26
  0
LINE
  8
0
 10
106.417
 11
107.54
 20
62.26
 21
63.383
  0
LINE
  8
0
 10
107.54
 11
109.006
 20
63.383
 21
63.99
  0
LINE
  8
0
 10
109.006
 11
110.594
 20
63.99
 21
63.99
  0
LINE
  8
0
 10
110.594
 11
112.06
 20
63.99
 21
63.383
  0
LINE
  8
0
 10
112.06
 11
113.183
 20
63.383
 21
62.26
  0
LINE
  8
0
 10
113.183
 11
113.79
 20
62.26
 21
60.794
  0
LINE
  8
0
 10
113.79
 11
113.79
 20
60.794
 21
59.206
  0
LINE
  8
0
 10
113.79
 11
113.183
 20
59.206
 21
57.74
  0
LINE
  8
0
 10
113.183
 11
112.06
 20
57.74
 21
56.617
  0
LINE
  8
0
 10
112.06
 11
110.594
 20
56.617
 21
56.01
  0
LINE
  8
0
 10
110.594
 11
109.006
 20
56.01
 21
56.01
  0
LINE
  8
0
 10
109.006
 11
107.54
 20
56.01
 21
56.617
  0
LINE
  8
0
 10
107.54
 11
106.417
 20
56.617
 21
57.74
  0
LINE
  8
0
 10
106.417
 11
105.81
 20
57.74
 21
59.206
  0
LINE
  8
0
 10
115.6
 11
115.6
 20
-81.58
 21
-80.42
  0
LINE
  8
0
 10
115.6
 11
116.42
 20
-80.42
 21
-79.6
  0
LINE
  8
0
 10
116.42
 11
117.58
 20
-79.6
 21
-79.6
  0
LINE
  8
0
 10
117.58
 11
118.4
 20
-79.6
 21
-80.42
  0
LINE
  8
0
 10
118.4
 11
118.4
 20
-80.42
 21
-81.58
  0
LINE
  8
0
 10
118.4
 11
117.58
 20
-81.58
 21
-82.4
  0
LINE
  8
0
 10
117.58
 11
116.42
 20
-82.4
 21
-82.4
  0
LINE
  8
0
 10
116.42
 11
115.6
 20
-82.4
 21
-81.58
  0
LINE
  8
0
 10
115.6
 11
115.6
 20
-23.58
 21
-22.42
  0
LINE
  8
0
 10
115.6
 11
116.42
 20
-22.42
 21
-21.6
  0
LINE
  8
0
 10
116.42
 11
117.58
 20
-21.6
 21
-21.6
  0
LINE
  8
0
 10
117.58
 11
118.4
 20
-21.6
 21
-22.42
  0
LINE
  8
0
 10
118.4
 11
118.4
 20
-22.42
 21
-23.58
  0
LINE
  8
0
 10
118.4
 11
117.58
 20
-23.58
 21
-24.4
  0
LINE
  8
0
 10
117.58
 11
116.42
 20
-24.4
 21
-24.4
  0
LINE
  8
0
 10
116.42
 11
115.6
 20
-24.4
 21
-23.58
  0
LINE
  8
0
 10
116.62
 11
116.62
 20
40.02
 21
47.98
  0
LINE
  8
0
 10
116.62
 11
124.58
 20
47.98
 21
47.98
  0
LINE
  8
0
 10
124.58
 11
124.58
 20
47.98
 21
40.02
  0
LINE
  8
0
 10
124.58
 11
116.62
 20
40.02
 21
40.02
  0
LINE
  8
0
 10
116.62
 11
116.62
 20
59.208
 21
60.792
  0
LINE
  8
0
 10
116.62
 11
117.226
 20
60.792
 21
62.254
  0
LINE
  8
0
 10
117.226
 11
118.346
 20
62.254
 21
63.374
  0
LINE
  8
0
 10
118.346
 11
119.808
 20
63.374
 21
63.98
  0
LINE
  8
0
 10
119.808
 11
121.392
 20
63.98
 21
63.98
  0
LINE
  8
0
 10
121.392
 11
122.854
 20
63.98
 21
63.374
  0
LINE
  8
0
 10
122.854
 11
123.974
 20
63.374
 21
62.254
  0
LINE
  8
0
 10
123.974
 11
124.58
 20
62.254
 21
60.792
  0
LINE
  8
0
 10
124.58
 11
124.58
 20
60.792
 21
59.208
  0
LINE
  8
0
 10
124.58
 11
123.974
 20
59.208
 21
57.746
  0
LINE
  8
0
 10
123.974
 11
122.854
 20
57.746
 21
56.626
  0
LINE
  8
0
 10
122.854
 11
121.392
 20
56.626
 21
56.02
  0
LINE
  8
0
 10
121.392
 11
119.808
 20
56.02
 21
56.02
  0
LINE
  8
0
 10
119.808
 11
118.346
 20
56.02
 21
56.626
  0
LINE
  8
0
 10
118.346
 11
117.226
 20
56.626
 21
57.746
  0
LINE
  8
0
 10
117.226
 11
116.62
 20
57.746
 21
59.208
  0
LINE
  8
0
 10
127.04
 11
127.04
 20
-83.985
 21
-78.015
  0
LINE
  8
0
 10
127.04
 11
134.96
 20
-78.015
 21
-78.015
  0
LINE
  8
0
 10
134.96
 11
134.96
 20
-78.015
 21
-83.985
  0
LINE
  8
0
 10
134.96
 11
127.04
 20
-83.985
 21
-83.985
  0
LINE
  8
0
 10
127.04
 11
127.04
 20
-25.985
 21
-20.015
  0
LINE
  8
0
 10
127.04
 11
134.96
 20
-20.015
 21
-20.015
  0
LINE
  8
0
 10
134.96
 11
134.96
 20
-20.015
 21
-25.985
  0
LINE
  8
0
 10
134.96
 11
127.04
 20
-25.985
 21
-25.985
  0
LINE
  8
0
 10
127.43
 11
127.43
 20
41.708
 21
46.292
  0
LINE
  8
0
 10
127.43
 11
131.4
 20
46.292
 21
48.584
  0
LINE
  8
0
 10
131.4
 11
135.37
 20
48.584
 21
46.292
  0
LINE
  8
0
 10
135.37
 11
135.37
 20
46.292
 21
41.708
  0
LINE
  8
0
 10
135.37
 11
131.4
 20
41.708
 21
39.416
  0
LINE
  8
0
 10
131.4
 11
127.43
 20
39.416
 21
41.708
  0
LINE
  8
0
 10
127.43
 11
127.43
 20
59.21
 21
60.79
  0
LINE
  8
0
 10
127.43
 11
128.034
 20
60.79
 21
62.249
  0
LINE
  8
0
 10
128.034
 11
129.151
 20
62.249
 21
63.366
  0
LINE
  8
0
 10
129.151
 11
130.61
 20
63.366
 21
63.97
  0
LINE
  8
0
 10
130.61
 11
132.19
 20
63.97
 21
63.97
  0
LINE
  8
0
 10
132.19
 11
133.649
 20
63.97
 21
63.366
  0
LINE
  8
0
 10
133.649
 11
134.766
 20
63.366
 21
62.249
  0
LINE
  8
0
 10
134.766
 11
135.37
 20
62.249
 21
60.79
  0
LINE
  8
0
 10
135.37
 11
135.37
 20
60.79
 21
59.21
  0
LINE
  8
0
 10
135.37
 11
134.766
 20
59.21
 21
57.751
  0
LINE
  8
0
 10
134.766
 11
133.649
 20
57.751
 21
56.634
  0
LINE
  8
0
 10
133.649
 11
132.19
 20
56.634
 21
56.03
  0
LINE
  8
0
 10
132.19
 11
130.61
 20
56.03
 21
56.03
  0
LINE
  8
0
 10
130.61
 11
129.151
 20
56.03
 21
56.634
  0
LINE
  8
0
 10
129.151
 11
128.034
 20
56.634
 21
57.751
  0
LINE
  8
0
 10
128.034
 11
127.43
 20
57.751
 21
59.21
  0
LINE
  8
0
 10
138.24
 11
138.24
 20
42.36
 21
45.64
  0
LINE
  8
0
 10
138.24
 11
140.56
 20
45.64
 21
47.96
  0
LINE
  8
0
 10
140.56
 11
143.84
 20
47.96
 21
47.96
  0
LINE
  8
0
 10
143.84
 11
146.16
 20
47.96
 21
45.64
  0
LINE
  8
0
 10
146.16
 11
146.16
 20
45.64
 21
42.36
  0
LINE
  8
0
 10
146.16
 11
143.84
 20
42.36
 21
40.04
  0
LINE
  8
0
 10
143.84
 11
140.56
 20
40.04
 21
40.04
  0
LINE
  8
0
 10
140.56
 11
138.24
 20
40.04
 21
42.36
  0
LINE
  8
0
 10
138.24
 11
138.24
 20
59.212
 21
60.788
  0
LINE
  8
0
 10
138.24
 11
138.843
 20
60.788
 21
62.243
  0
LINE
  8
0
 10
138.843
 11
139.957
 20
62.243
 21
63.357
  0
LINE
  8
0
 10
139.957
 11
141.412
 20
63.357
 21
63.96
  0
LINE
  8
0
 10
141.412
 11
142.988
 20
63.96
 21
63.96
  0
LINE
  8
0
 10
142.988
 11
144.443
 20
63.96
 21
63.357
  0
LINE
  8
0
 10
144.443
 11
145.557
 20
63.357
 21
62.243
  0
LINE
  8
0
 10
145.557
 11
146.16
 20
62.243
 21
60.788
  0
LINE
  8
0
 10
146.16
 11
146.16
 20
60.788
 21
59.212
  0
LINE
  8
0
 10
146.16
 11
145.557
 20
59.212
 21
57.757
  0
LINE
  8
0
 10
145.557
 11
144.443
 20
57.757
 21
56.643
  0
LINE
  8
0
 10
144.443
 11
142.988
 20
56.643
 21
56.04
  0
LINE
  8
0
 10
142.988
 11
141.412
 20
56.04
 21
56.04
  0
LINE
  8
0
 10
141.412
 11
139.957
 20
56.04
 21
56.643
  0
LINE
  8
0
 10
139.957
 11
138.843
 20
56.643
 21
57.757
  0
LINE
  8
0
 10
138.843
 11
138.24
 20
57.757
 21
59.212
  0
LINE
  8
0
 10
149.05
 11
149.05
 20
42.717
 21
45.283
  0
LINE
  8
0
 10
149.05
 11
150.559
 20
45.283
 21
47.36
  0
LINE
  8
0
 10
150.559
 11
153
 20
47.36
 21
48.153
  0
LINE
  8
0
 10
153
 11
155.441
 20
48.153
 21
47.36
  0
LINE
  8
0
 10
155.441
 11
156.95
 20
47.36
 21
45.283
  0
LINE
  8
0
 10
156.95
 11
156.95
 20
45.283
 21
42.717
  0
LINE
  8
0
 10
156.95
 11
155.441
 20
42.717
 21
40.64
  0
LINE
  8
0
 10
155.441
 11
153
 20
40.64
 21
39.847
  0
LINE
  8
0
 10
153
 11
150.559
 20
39.847
 21
40.64
  0
LINE
  8
0
 10
150.559
 11
149.05
 20
40.64
 21
42.717
  0
LINE
  8
0
 10
149.05
 11
149.05
 20
59.214
 21
60.786
  0
LINE
  8
0
 10
149.05
 11
149.651
 20
60.786
 21
62.237
  0
LINE
  8
0
 10
149.651
 11
150.763
 20
62.237
 21
63.349
  0
LINE
  8
0
 10
150.763
 11
152.214
 20
63.349
 21
63.95
  0
LINE
  8
0
 10
152.214
 11
153.786
 20
63.95
 21
63.95
  0
LINE
  8
0
 10
153.786
 11
155.237
 20
63.95
 21
63.349
  0
LINE
  8
0
 10
155.237
 11
156.349
 20
63.349
 21
62.237
  0
LINE
  8
0
 10
156.349
 11
156.95
 20
62.237
 21
60.786
  0
LINE
  8
0
 10
156.95
 11
156.95
 20
60.786
 21
59.214
  0
LINE
  8
0
 10
156.95
 11
156.349
 20
59.214
 21
57.763
  0
LINE
  8
0
 10
156.349
 11
155.237
 20
57.763
 21
56.651
  0
LINE
  8
0
 10
155.237
 11
153.786
 20
56.651
 21
56.05
  0
LINE
  8
0
 10
153.786
 11
152.214
 20
56.05
 21
56.05
  0
LINE
  8
0
 10
152.214
 11
150.763
 20
56.05
 21
56.651
  0
LINE
  8
0
 10
150.763
 11
149.651
 20
56.651
 21
57.763
  0
LINE
  8
0
 10
149.651
 11
149.05
 20
57.763
 21
59.214
  0
LINE
  8
0
 10
151.04
 11
151.04
 20
-83.985
 21
-78.015
  0
LINE
  8
0
 10
151.04
 11
158.96
 20
-78.015
 21
-78.015
  0
LINE
  8
0
 10
158.96
 11
158.96
 20
-78.015
 21
-83.985
  0
LINE
  8
0
 10
158.96
 11
151.04
 20
-83.985
 21
-83.985
  0
LINE
  8
0
 10
151.04
 11
151.04
 20
-25.985
 21
-20.015
  0
LINE
  8
0
 10
151.04
 11
158.96
 20
-20.015
 21
-20.015
  0
LINE
  8
0
 10
158.96
 11
158.96
 20
-20.015
 21
-25.985
  0
LINE
  8
0
 10
158.96
 11
151.04
 20
-25.985
 21
-25.985
  0
LINE
  8
0
 10
159.86
 11
159.86
 20
42.944
 21
45.056
  0
LINE
  8
0
 10
159.86
 11
160.916
 20
45.056
 21
46.884
  0
LINE
  8
0
 10
160.916
 11
162.744
 20
46.884
 21
47.94
  0
LINE
  8
0
 10
162.744
 11
164.856
 20
47.94
 21
47.94
  0
LINE
  8
0
 10
164.856
 11
166.684
 20
47.94
 21
46.884
  0
LINE
  8
0
 10
166.684
 11
167.74
 20
46.884
 21
45.056
  0
LINE
  8
0
 10
167.74
 11
167.74
 20
45.056
 21
42.944
  0
LINE
  8
0
 10
167.74
 11
166.684
 20
42.944
 21
41.116
  0
LINE
  8
0
 10
166.684
 11
164.856
 20
41.116
 21
40.06
  0
LINE
  8
0
 10
164.856
 11
162.744
 20
40.06
 21
40.06
  0
LINE
  8
0
 10
162.744
 11
160.916
 20
40.06
 21
41.116
  0
LINE
  8
0
 10
160.916
 11
159.86
 20
41.116
 21
42.944
  0
LINE
  8
0
 10
159.86
 11
159.86
 20
59.216
 21
60.784
  0
LINE
  8
0
 10
159.86
 11
160.46
 20
60.784
 21
62.232
  0
LINE
  8
0
 10
160.46
 11
161.568
 20
62.232
 21
63.34
  0
LINE
  8
0
 10
161.568
 11
163.016
 20
63.34
 21
63.94
  0
LINE
  8
0
 10
163.016
 11
164.584
 20
63.94
 21
63.94
  0
LINE
  8
0
 10
164.584
 11
166.032
 20
63.94
 21
63.34
  0
LINE
  8
0
 10
166.032
 11
167.14
 20
63.34
 21
62.232
  0
LINE
  8
0
 10
167.14
 11
167.74
 20
62.232
 21
60.784
  0
LINE
  8
0
 10
167.74
 11
167.74
 20
60.784
 21
59.216
  0
LINE
  8
0
 10
167.74
 11
167.14
 20
59.216
 21
57.768
  0
LINE
  8
0
 10
167.14
 11
166.032
 20
57.768
 21
56.66
  0
LINE
  8
0
 10
166.032
 11
164.584
 20
56.66
 21
56.06
  0
LINE
  8
0
 10
164.584
 11
163.016
 20
56.06
 21
56.06
  0
LINE
  8
0
 10
163.016
 11
161.568
 20
56.06
 21
56.66
  0
LINE
  8
0
 10
161.568
 11
160.46
 20
56.66
 21
57.768
  0
LINE
  8
0
 10
160.46
 11
159.86
 20
57.768
 21
59.216
  0
LINE
  8
0
 10
167.6
 11
167.6
 20
-81.58
 21
-80.42
  0
LINE
  8
0
 10
167.6
 11
168.42
 20
-80.42
 21
-79.6
  0
LINE
  8
0
 10
168.42
 11
169.58
 20
-79.6
 21
-79.6
  0
LINE
  8
0
 10
169.58
 11
170.4
 20
-79.6
 21
-80.42
  0
LINE
  8
0
 10
170.4
 11
170.4
 20
-80.42
 21
-81.58
  0
LINE
  8
0
 10
170.4
 11
169.58
 20
-81.58
 21
-82.4
  0
LINE
  8
0
 10
169.58
 11
168.42
 20
-82.4
 21
-82.4
  0
LINE
  8
0
 10
168.42
 11
167.6
 20
-82.4
 21
-81.58
  0
LINE
  8
0
 10
167.6
 11
167.6
 20
-23.58
 21
-22.42
  0
LINE
  8
0
 10
167.6
 11
168.42
 20
-22.42
 21
-21.6
  0
LINE
  8
0
 10
168.42
 11
169.58
 20
-21.6
 21
-21.6
  0
LINE
  8
0
 10
169.58
 11
170.4
 20
-21.6
 21
-22.42
  0
LINE
  8
0
 10
170.4
 11
170.4
 20
-22.42
 21
-23.58
  0
LINE
  8
0
 10
170.4
 11
169.58
 20
-23.58
 21
-24.4
  0
LINE
  8
0
 10
169.58
 11
168.42
 20
-24.4
 21
-24.4
  0
LINE
  8
0
 10
168.42
 11
167.6
 20
-24.4
 21
-23.58
  0
LINE
  8
0
 10
170.67
 11
170.67
 20
43.103
 21
44.897
  0
LINE
  8
0
 10
170.67
 11
171.448
 20
44.897
 21
46.513
  0
LINE
  8
0
 10
171.448
 11
172.851
 20
46.513
 21
47.632
  0
LINE
  8
0
 10
172.851
 11
174.6
 20
47.632
 21
48.031
  0
LINE
  8
0
 10
174.6
 11
176.349
 20
48.031
 21
47.632
  0
LINE
  8
0
 10
176.349
 11
177.752
 20
47.632
 21
46.513
  0
LINE
  8
0
 10
177.752
 11
178.53
 20
46.513
 21
44.897
  0
LINE
  8
0
 10
178.53
 11
178.53
 20
44.897
 21
43.103
  0
LINE
  8
0
 10
178.53
 11
177.752
 20
43.103
 21
41.487
  0
LINE
  8
0
 10
177.752
 11
176.349
 20
41.487
 21
40.368
  0
LINE
  8
0
 10
176.349
 11
174.6
 20
40.368
 21
39.969
  0
LINE
  8
0
 10
174.6
 11
172.851
 20
39.969
 21
40.368
  0
LINE
  8
0
 10
172.851
 11
171.448
 20
40.368
 21
41.487
  0
LINE
  8
0
 10
171.448
 11
170.67
 20
41.487
 21
43.103
  0
LINE
  8
0
 10
170.67
 11
170.67
 20
59.218
 21
60.782
  0
LINE
  8
0
 10
170.67
 11
171.268
 20
60.782
 21
62.226
  0
LINE
  8
0
 10
171.268
 11
172.374
 20
62.226
 21
63.332
  0
LINE
  8
0
 10
172.374
 11
173.818
 20
63.332
 21
63.93
  0
LINE
  8
0
 10
173.818
 11
175.382
 20
63.93
 21
63.93
  0
LINE
  8
0
 10
175.382
 11
176.826
 20
63.93
 21
63.332
  0
LINE
  8
0
 10
176.826
 11
177.932
 20
63.332
 21
62.226
  0
LINE
  8
0
 10
177.932
 11
178.53
 20
62.226
 21
60.782
  0
LINE
  8
0
 10
178.53
 11
178.53
 20
60.782
 21
59.218
  0
LINE
  8
0
 10
178.53
 11
177.932
 20
59.218
 21
57.774
  0
LINE
  8
0
 10
177.932
 11
176.826
 20
57.774
 21
56.668
  0
LINE
  8
0
 10
176.826
 11
175.382
 20
56.668
 21
56.07
  0
LINE
  8
0
 10
175.382
 11
173.818
 20
56.07
 21
56.07
  0
LINE
  8
0
 10
173.818
 11
172.374
 20
56.07
 21
56.668
  0
LINE
  8
0
 10
172.374
 11
171.268
 20
56.668
 21
57.774
  0
LINE
  8
0
 10
171.268
 11
170.67
 20
57.774
 21
59.218
  0
LINE
  8
0
 10
179.04
 11
179.04
 20
-83.985
 21
-78.015
  0
LINE
  8
0
 10
179.04
 11
186.96
 20
-78.015
 21
-78.015
  0
LINE
  8
0
 10
186.96
 11
186.96
 20
-78.015
 21
-83.985
  0
LINE
  8
0
 10
186.96
 11
179.04
 20
-83.985
 21
-83.985
  0
LINE
  8
0
 10
179.04
 11
179.04
 20
-25.985
 21
-20.015
  0
LINE
  8
0
 10
179.04
 11
186.96
 20
-20.015
 21
-20.015
  0
LINE
  8
0
 10
186.96
 11
186.96
 20
-20.015
 21
-25.985
  0
LINE
  8
0
 10
186.96
 11
179.04
 20
-25.985
 21
-25.985
  0
ENDSEC
  0
SECTION
  2
OBJECTS
  0
DICTIONARY
  0
ENDSEC
  0
EOF
