  0
SECTION
  2
BLOCKS
  0
ENDSEC
  0
SECTION
  2
ENTITIES
  0
LINE
  8
0
 10
-296.54
 11
-296.54
 20
-314.14
 21
-17.96
  0
LINE
  8
0
 10
-296.54
 11
-3.46
 20
-17.96
 21
-17.96
  0
LINE
  8
0
 10
-3.46
 11
-3.46
 20
-17.96
 21
-314.14
  0
LINE
  8
0
 10
-3.46
 11
-65.125
 20
-314.14
 21
-314.14
  0
LINE
  8
0
 10
-65.125
 11
-65.125
 20
-314.14
 21
-252
  0
LINE
  8
0
 10
-65.125
 11
-81
 20
-252
 21
-142.44
  0
LINE
  8
0
 10
-81
 11
-219
 20
-142.44
 21
-142.44
  0
LINE
  8
0
 10
-219
 11
-234.875
 20
-142.44
 21
-252
  0
LINE
  8
0
 10
-234.875
 11
-234.875
 20
-252
 21
-314.14
  0
LINE
  8
0
 10
-234.875
 11
-296.54
 20
-314.14
 21
-314.14
  0
LINE
  8
0
 10
-292.485
 11
-292.485
 20
-306.06
 21
-298.14
  0
LINE
  8
0
 10
-292.485
 11
-286.515
 20
-298.14
 21
-298.14
  0
LINE
  8
0
 10
-286.515
 11
-286.515
 20
-298.14
 21
-306.06
  0
LINE
  8
0
 10
-286.515
 11
-292.485
 20
-306.06
 21
-306.06
  0
LINE
  8
0
 10
-292.485
 11
-292.485
 20
-278.06
 21
-270.14
  0
LINE
  8
0
 10
-292.485
 11
-286.515
 20
-270.14
 21
-270.14
  0
LINE
  8
0
 10
-286.515
 11
-286.515
 20
-270.14
 21
-278.06
  0
LINE
  8
0
 10
-286.515
 11
-292.485
 20
-278.06
 21
-278.06
  0
LINE
  8
0
 10
-292.485
 11
-292.485
 20
-189.01
 21
-181.09
  0
LINE
  8
0
 10
-292.485
 11
-286.515
 20
-181.09
 21
-181.09
  0
LINE
  8
0
 10
-286.515
 11
-286.515
 20
-181.09
 21
-189.01
  0
LINE
  8
0
 10
-286.515
 11
-292.485
 20
-189.01
 21
-189.01
  0
LINE
  8
0
 10
-292.485
 11
-292.485
 20
-161.01
 21
-153.09
  0
LINE
  8
0
 10
-292.485
 11
-286.515
 20
-153.09
 21
-153.09
  0
LINE
  8
0
 10
-286.515
 11
-286.515
 20
-153.09
 21
-161.01
  0
LINE
  8
0
 10
-286.515
 11
-292.485
 20
-161.01
 21
-161.01
  0
LINE
  8
0
 10
-292.485
 11
-292.485
 20
-71.96
 21
-64.04
  0
LINE
  8
0
 10
-292.485
 11
-286.515
 20
-64.04
 21
-64.04
  0
LINE
  8
0
 10
-286.515
 11
-286.515
 20
-64.04
 21
-71.96
  0
LINE
  8
0
 10
-286.515
 11
-292.485
 20
-71.96
 21
-71.96
  0
LINE
  8
0
 10
-292.485
 11
-292.485
 20
-43.96
 21
-36.04
  0
LINE
  8
0
 10
-292.485
 11
-286.515
 20
-36.04
 21
-36.04
  0
LINE
  8
0
 10
-286.515
 11
-286.515
 20
-36.04
 21
-43.96
  0
LINE
  8
0
 10
-286.515
 11
-292.485
 20
-43.96
 21
-43.96
  0
LINE
  8
0
 10
-290.9
 11
-290.9
 20
-288.68
 21
-287.52
  0
LINE
  8
0
 10
-290.9
 11
-290.08
 20
-287.52
 21
-286.7
  0
LINE
  8
0
 10
-290.08
 11
-288.92
 20
-286.7
 21
-286.7
  0
LINE
  8
0
 10
-288.92
 11
-288.1
 20
-286.7
 21
-287.52
  0
LINE
  8
0
 10
-288.1
 11
-288.1
 20
-287.52
 21
-288.68
  0
LINE
  8
0
 10
-288.1
 11
-288.92
 20
-288.68
 21
-289.5
  0
LINE
  8
0
 10
-288.92
 11
-290.08
 20
-289.5
 21
-289.5
  0
LINE
  8
0
 10
-290.08
 11
-290.9
 20
-289.5
 21
-288.68
  0
LINE
  8
0
 10
-290.9
 11
-290.9
 20
-171.63
 21
-170.47
  0
LINE
  8
0
 10
-290.9
 11
-290.08
 20
-170.47
 21
-169.65
  0
LINE
  8
0
 10
-290.08
 11
-288.92
 20
-169.65
 21
-169.65
  0
LINE
  8
0
 10
-288.92
 11
-288.1
 20
-169.65
 21
-170.47
  0
LINE
  8
0
 10
-288.1
 11
-288.1
 20
-170.47
 21
-171.63
  0
LINE
  8
0
 10
-288.1
 11
-288.92
 20
-171.63
 21
-172.45
  0
LINE
  8
0
 10
-288.92
 11
-290.08
 20
-172.45
 21
-172.45
  0
LINE
  8
0
 10
-290.08
 11
-290.9
 20
-172.45
 21
-171.63
  0
LINE
  8
0
 10
-290.9
 11
-290.9
 20
-54.58
 21
-53.42
  0
LINE
  8
0
 10
-290.9
 11
-290.08
 20
-53.42
 21
-52.6
  0
LINE
  8
0
 10
-290.08
 11
-288.92
 20
-52.6
 21
-52.6
  0
LINE
  8
0
 10
-288.92
 11
-288.1
 20
-52.6
 21
-53.42
  0
LINE
  8
0
 10
-288.1
 11
-288.1
 20
-53.42
 21
-54.58
  0
LINE
  8
0
 10
-288.1
 11
-288.92
 20
-54.58
 21
-55.4
  0
LINE
  8
0
 10
-288.92
 11
-290.08
 20
-55.4
 21
-55.4
  0
LINE
  8
0
 10
-290.08
 11
-290.9
 20
-55.4
 21
-54.58
  0
LINE
  8
0
 10
-278.94
 11
-278.94
 20
-301.794
 21
-301.406
  0
LINE
  8
0
 10
-278.94
 11
-278.902
 20
-301.406
 21
-301.021
  0
LINE
  8
0
 10
-278.902
 11
-278.827
 20
-301.021
 21
-300.642
  0
LINE
  8
0
 10
-278.827
 11
-278.714
 20
-300.642
 21
-300.271
  0
LINE
  8
0
 10
-278.714
 11
-278.566
 20
-300.271
 21
-299.913
  0
LINE
  8
0
 10
-278.566
 11
-278.384
 20
-299.913
 21
-299.572
  0
LINE
  8
0
 10
-278.384
 11
-278.168
 20
-299.572
 21
-299.25
  0
LINE
  8
0
 10
-278.168
 11
-277.923
 20
-299.25
 21
-298.951
  0
LINE
  8
0
 10
-277.923
 11
-277.649
 20
-298.951
 21
-298.677
  0
LINE
  8
0
 10
-277.649
 11
-277.35
 20
-298.677
 21
-298.432
  0
LINE
  8
0
 10
-277.35
 11
-277.028
 20
-298.432
 21
-298.216
  0
LINE
  8
0
 10
-277.028
 11
-276.687
 20
-298.216
 21
-298.034
  0
LINE
  8
0
 10
-276.687
 11
-276.329
 20
-298.034
 21
-297.886
  0
LINE
  8
0
 10
-276.329
 11
-275.958
 20
-297.886
 21
-297.773
  0
LINE
  8
0
 10
-275.958
 11
-275.579
 20
-297.773
 21
-297.698
  0
LINE
  8
0
 10
-275.579
 11
-275.194
 20
-297.698
 21
-297.66
  0
LINE
  8
0
 10
-275.194
 11
-274.806
 20
-297.66
 21
-297.66
  0
LINE
  8
0
 10
-274.806
 11
-274.421
 20
-297.66
 21
-297.698
  0
LINE
  8
0
 10
-274.421
 11
-274.042
 20
-297.698
 21
-297.773
  0
LINE
  8
0
 10
-274.042
 11
-273.671
 20
-297.773
 21
-297.886
  0
LINE
  8
0
 10
-273.671
 11
-273.313
 20
-297.886
 21
-298.034
  0
LINE
  8
0
 10
-273.313
 11
-272.972
 20
-298.034
 21
-298.216
  0
LINE
  8
0
 10
-272.972
 11
-272.65
 20
-298.216
 21
-298.432
  0
LINE
  8
0
 10
-272.65
 11
-272.351
 20
-298.432
 21
-298.677
  0
LINE
  8
0
 10
-272.351
 11
-272.077
 20
-298.677
 21
-298.951
  0
LINE
  8
0
 10
-272.077
 11
-271.832
 20
-298.951
 21
-299.25
  0
LINE
  8
0
 10
-271.832
 11
-271.616
 20
-299.25
 21
-299.572
  0
LINE
  8
0
 10
-271.616
 11
-271.434
 20
-299.572
 21
-299.913
  0
LINE
  8
0
 10
-271.434
 11
-271.286
 20
-299.913
 21
-300.271
  0
LINE
  8
0
 10
-271.286
 11
-271.173
 20
-300.271
 21
-300.642
  0
LINE
  8
0
 10
-271.173
 11
-271.098
 20
-300.642
 21
-301.021
  0
LINE
  8
0
 10
-271.098
 11
-271.06
 20
-301.021
 21
-301.406
  0
LINE
  8
0
 10
-271.06
 11
-271.06
 20
-301.406
 21
-301.794
  0
LINE
  8
0
 10
-271.06
 11
-271.098
 20
-301.794
 21
-302.179
  0
LINE
  8
0
 10
-271.098
 11
-271.173
 20
-302.179
 21
-302.558
  0
LINE
  8
0
 10
-271.173
 11
-271.286
 20
-302.558
 21
-302.929
  0
LINE
  8
0
 10
-271.286
 11
-271.434
 20
-302.929
 21
-303.287
  0
LINE
  8
0
 10
-271.434
 11
-271.616
 20
-303.287
 21
-303.628
  0
LINE
  8
0
 10
-271.616
 11
-271.832
 20
-303.628
 21
-303.95
  0
LINE
  8
0
 10
-271.832
 11
-272.077
 20
-303.95
 21
-304.249
  0
LINE
  8
0
 10
-272.077
 11
-272.351
 20
-304.249
 21
-304.523
  0
LINE
  8
0
 10
-272.351
 11
-272.65
 20
-304.523
 21
-304.768
  0
LINE
  8
0
 10
-272.65
 11
-272.972
 20
-304.768
 21
-304.984
  0
LINE
  8
0
 10
-272.972
 11
-273.313
 20
-304.984
 21
-305.166
  0
LINE
  8
0
 10
-273.313
 11
-273.671
 20
-305.166
 21
-305.314
  0
LINE
  8
0
 10
-273.671
 11
-274.042
 20
-305.314
 21
-305.427
  0
LINE
  8
0
 10
-274.042
 11
-274.421
 20
-305.427
 21
-305.502
  0
LINE
  8
0
 10
-274.421
 11
-274.806
 20
-305.502
 21
-305.54
  0
LINE
  8
0
 10
-274.806
 11
-275.194
 20
-305.54
 21
-305.54
  0
LINE
  8
0
 10
-275.194
 11
-275.579
 20
-305.54
 21
-305.502
  0
LINE
  8
0
 10
-275.579
 11
-275.958
 20
-305.502
 21
-305.427
  0
LINE
  8
0
 10
-275.958
 11
-276.329
 20
-305.427
 21
-305.314
  0
LINE
  8
0
 10
-276.329
 11
-276.687
 20
-305.314
 21
-305.166
  0
LINE
  8
0
 10
-276.687
 11
-277.028
 20
-305.166
 21
-304.984
  0
LINE
  8
0
 10
-277.028
 11
-277.35
 20
-304.984
 21
-304.768
  0
LINE
  8
0
 10
-277.35
 11
-277.649
 20
-304.768
 21
-304.523
  0
LINE
  8
0
 10
-277.649
 11
-277.923
 20
-304.523
 21
-304.249
  0
LINE
  8
0
 10
-277.923
 11
-278.168
 20
-304.249
 21
-303.95
  0
LINE
  8
0
 10
-278.168
 11
-278.384
 20
-303.95
 21
-303.628
  0
LINE
  8
0
 10
-278.384
 11
-278.566
 20
-303.628
 21
-303.287
  0
LINE
  8
0
 10
-278.566
 11
-278.714
 20
-303.287
 21
-302.929
  0
LINE
  8
0
 10
-278.714
 11
-278.827
 20
-302.929
 21
-302.558
  0
LINE
  8
0
 10
-278.827
 11
-278.902
 20
-302.558
 21
-302.179
  0
LINE
  8
0
 10
-278.902
 11
-278.94
 20
-302.179
 21
-301.794
  0
LINE
  8
0
 10
-278.46
 11
-278.46
 20
-278.085
 21
-272.115
  0
LINE
  8
0
 10
-278.46
 11
-270.54
 20
-272.115
 21
-272.115
  0
LINE
  8
0
 10
-270.54
 11
-270.54
 20
-272.115
 21
-278.085
  0
LINE
  8
0
 10
-270.54
 11
-278.46
 20
-278.085
 21
-278.085
  0
LINE
  8
0
 10
-278.46
 11
-278.46
 20
-27.985
 21
-22.015
  0
LINE
  8
0
 10
-278.46
 11
-270.54
 20
-22.015
 21
-22.015
  0
LINE
  8
0
 10
-270.54
 11
-270.54
 20
-22.015
 21
-27.985
  0
LINE
  8
0
 10
-270.54
 11
-278.46
 20
-27.985
 21
-27.985
  0
LINE
  8
0
 10
-264.3
 11
-264.3
 20
-304.798
 21
-304.202
  0
LINE
  8
0
 10
-264.3
 11
-264.072
 20
-304.202
 21
-303.65
  0
LINE
  8
0
 10
-264.072
 11
-263.65
 20
-303.65
 21
-303.228
  0
LINE
  8
0
 10
-263.65
 11
-263.098
 20
-303.228
 21
-303
  0
LINE
  8
0
 10
-263.098
 11
-262.502
 20
-303
 21
-303
  0
LINE
  8
0
 10
-262.502
 11
-261.95
 20
-303
 21
-303.228
  0
LINE
  8
0
 10
-261.95
 11
-261.528
 20
-303.228
 21
-303.65
  0
LINE
  8
0
 10
-261.528
 11
-261.3
 20
-303.65
 21
-304.202
  0
LINE
  8
0
 10
-261.3
 11
-261.3
 20
-304.202
 21
-304.798
  0
LINE
  8
0
 10
-261.3
 11
-261.528
 20
-304.798
 21
-305.35
  0
LINE
  8
0
 10
-261.528
 11
-261.95
 20
-305.35
 21
-305.772
  0
LINE
  8
0
 10
-261.95
 11
-262.502
 20
-305.772
 21
-306
  0
LINE
  8
0
 10
-262.502
 11
-263.098
 20
-306
 21
-306
  0
LINE
  8
0
 10
-263.098
 11
-263.65
 20
-306
 21
-305.772
  0
LINE
  8
0
 10
-263.65
 11
-264.072
 20
-305.772
 21
-305.35
  0
LINE
  8
0
 10
-264.072
 11
-264.3
 20
-305.35
 21
-304.798
  0
LINE
  8
0
 10
-264.3
 11
-264.3
 20
-296.198
 21
-295.602
  0
LINE
  8
0
 10
-264.3
 11
-264.072
 20
-295.602
 21
-295.05
  0
LINE
  8
0
 10
-264.072
 11
-263.65
 20
-295.05
 21
-294.628
  0
LINE
  8
0
 10
-263.65
 11
-263.098
 20
-294.628
 21
-294.4
  0
LINE
  8
0
 10
-263.098
 11
-262.502
 20
-294.4
 21
-294.4
  0
LINE
  8
0
 10
-262.502
 11
-261.95
 20
-294.4
 21
-294.628
  0
LINE
  8
0
 10
-261.95
 11
-261.528
 20
-294.628
 21
-295.05
  0
LINE
  8
0
 10
-261.528
 11
-261.3
 20
-295.05
 21
-295.602
  0
LINE
  8
0
 10
-261.3
 11
-261.3
 20
-295.602
 21
-296.198
  0
LINE
  8
0
 10
-261.3
 11
-261.528
 20
-296.198
 21
-296.75
  0
LINE
  8
0
 10
-261.528
 11
-261.95
 20
-296.75
 21
-297.172
  0
LINE
  8
0
 10
-261.95
 11
-262.502
 20
-297.172
 21
-297.4
  0
LINE
  8
0
 10
-262.502
 11
-263.098
 20
-297.4
 21
-297.4
  0
LINE
  8
0
 10
-263.098
 11
-263.65
 20
-297.4
 21
-297.172
  0
LINE
  8
0
 10
-263.65
 11
-264.072
 20
-297.172
 21
-296.75
  0
LINE
  8
0
 10
-264.072
 11
-264.3
 20
-296.75
 21
-296.198
  0
LINE
  8
0
 10
-261.9
 11
-261.9
 20
-275.68
 21
-274.52
  0
LINE
  8
0
 10
-261.9
 11
-261.08
 20
-274.52
 21
-273.7
  0
LINE
  8
0
 10
-261.08
 11
-259.92
 20
-273.7
 21
-273.7
  0
LINE
  8
0
 10
-259.92
 11
-259.1
 20
-273.7
 21
-274.52
  0
LINE
  8
0
 10
-259.1
 11
-259.1
 20
-274.52
 21
-275.68
  0
LINE
  8
0
 10
-259.1
 11
-259.92
 20
-275.68
 21
-276.5
  0
LINE
  8
0
 10
-259.92
 11
-261.08
 20
-276.5
 21
-276.5
  0
LINE
  8
0
 10
-261.08
 11
-261.9
 20
-276.5
 21
-275.68
  0
LINE
  8
0
 10
-261.9
 11
-261.9
 20
-25.58
 21
-24.42
  0
LINE
  8
0
 10
-261.9
 11
-261.08
 20
-24.42
 21
-23.6
  0
LINE
  8
0
 10
-261.08
 11
-259.92
 20
-23.6
 21
-23.6
  0
LINE
  8
0
 10
-259.92
 11
-259.1
 20
-23.6
 21
-24.42
  0
LINE
  8
0
 10
-259.1
 11
-259.1
 20
-24.42
 21
-25.58
  0
LINE
  8
0
 10
-259.1
 11
-259.92
 20
-25.58
 21
-26.4
  0
LINE
  8
0
 10
-259.92
 11
-261.08
 20
-26.4
 21
-26.4
  0
LINE
  8
0
 10
-261.08
 11
-261.9
 20
-26.4
 21
-25.58
  0
LINE
  8
0
 10
-250.46
 11
-250.46
 20
-278.085
 21
-272.115
  0
LINE
  8
0
 10
-250.46
 11
-242.54
 20
-272.115
 21
-272.115
  0
LINE
  8
0
 10
-242.54
 11
-242.54
 20
-272.115
 21
-278.085
  0
LINE
  8
0
 10
-242.54
 11
-250.46
 20
-278.085
 21
-278.085
  0
LINE
  8
0
 10
-250.46
 11
-250.46
 20
-27.985
 21
-22.015
  0
LINE
  8
0
 10
-250.46
 11
-242.54
 20
-22.015
 21
-22.015
  0
LINE
  8
0
 10
-242.54
 11
-242.54
 20
-22.015
 21
-27.985
  0
LINE
  8
0
 10
-242.54
 11
-250.46
 20
-27.985
 21
-27.985
  0
LINE
  8
0
 10
-167.96
 11
-167.96
 20
-27.985
 21
-22.015
  0
LINE
  8
0
 10
-167.96
 11
-160.04
 20
-22.015
 21
-22.015
  0
LINE
  8
0
 10
-160.04
 11
-160.04
 20
-22.015
 21
-27.985
  0
LINE
  8
0
 10
-160.04
 11
-167.96
 20
-27.985
 21
-27.985
  0
LINE
  8
0
 10
-151.4
 11
-151.4
 20
-25.58
 21
-24.42
  0
LINE
  8
0
 10
-151.4
 11
-150.58
 20
-24.42
 21
-23.6
  0
LINE
  8
0
 10
-150.58
 11
-149.42
 20
-23.6
 21
-23.6
  0
LINE
  8
0
 10
-149.42
 11
-148.6
 20
-23.6
 21
-24.42
  0
LINE
  8
0
 10
-148.6
 11
-148.6
 20
-24.42
 21
-25.58
  0
LINE
  8
0
 10
-148.6
 11
-149.42
 20
-25.58
 21
-26.4
  0
LINE
  8
0
 10
-149.42
 11
-150.58
 20
-26.4
 21
-26.4
  0
LINE
  8
0
 10
-150.58
 11
-151.4
 20
-26.4
 21
-25.58
  0
LINE
  8
0
 10
-139.96
 11
-139.96
 20
-27.985
 21
-22.015
  0
LINE
  8
0
 10
-139.96
 11
-132.04
 20
-22.015
 21
-22.015
  0
LINE
  8
0
 10
-132.04
 11
-132.04
 20
-22.015
 21
-27.985
  0
LINE
  8
0
 10
-132.04
 11
-139.96
 20
-27.985
 21
-27.985
  0
LINE
  8
0
 10
-57.46
 11
-57.46
 20
-278.085
 21
-272.115
  0
LINE
  8
0
 10
-57.46
 11
-49.54
 20
-272.115
 21
-272.115
  0
LINE
  8
0
 10
-49.54
 11
-49.54
 20
-272.115
 21
-278.085
  0
LINE
  8
0
 10
-49.54
 11
-57.46
 20
-278.085
 21
-278.085
  0
LINE
  8
0
 10
-57.46
 11
-57.46
 20
-27.985
 21
-22.015
  0
LINE
  8
0
 10
-57.46
 11
-49.54
 20
-22.015
 21
-22.015
  0
LINE
  8
0
 10
-49.54
 11
-49.54
 20
-22.015
 21
-27.985
  0
LINE
  8
0
 10
-49.54
 11
-57.46
 20
-27.985
 21
-27.985
  0
LINE
  8
0
 10
-40.9
 11
-40.9
 20
-275.68
 21
-274.52
  0
LINE
  8
0
 10
-40.9
 11
-40.08
 20
-274.52
 21
-273.7
  0
LINE
  8
0
 10
-40.08
 11
-38.92
 20
-273.7
 21
-273.7
  0
LINE
  8
0
 10
-38.92
 11
-38.1
 20
-273.7
 21
-274.52
  0
LINE
  8
0
 10
-38.1
 11
-38.1
 20
-274.52
 21
-275.68
  0
LINE
  8
0
 10
-38.1
 11
-38.92
 20
-275.68
 21
-276.5
  0
LINE
  8
0
 10
-38.92
 11
-40.08
 20
-276.5
 21
-276.5
  0
LINE
  8
0
 10
-40.08
 11
-40.9
 20
-276.5
 21
-275.68
  0
LINE
  8
0
 10
-40.9
 11
-40.9
 20
-25.58
 21
-24.42
  0
LINE
  8
0
 10
-40.9
 11
-40.08
 20
-24.42
 21
-23.6
  0
LINE
  8
0
 10
-40.08
 11
-38.92
 20
-23.6
 21
-23.6
  0
LINE
  8
0
 10
-38.92
 11
-38.1
 20
-23.6
 21
-24.42
  0
LINE
  8
0
 10
-38.1
 11
-38.1
 20
-24.42
 21
-25.58
  0
LINE
  8
0
 10
-38.1
 11
-38.92
 20
-25.58
 21
-26.4
  0
LINE
  8
0
 10
-38.92
 11
-40.08
 20
-26.4
 21
-26.4
  0
LINE
  8
0
 10
-40.08
 11
-40.9
 20
-26.4
 21
-25.58
  0
LINE
  8
0
 10
-38.7
 11
-38.7
 20
-304.798
 21
-304.202
  0
LINE
  8
0
 10
-38.7
 11
-38.472
 20
-304.202
 21
-303.65
  0
LINE
  8
0
 10
-38.472
 11
-38.05
 20
-303.65
 21
-303.228
  0
LINE
  8
0
 10
-38.05
 11
-37.498
 20
-303.228
 21
-303
  0
LINE
  8
0
 10
-37.498
 11
-36.902
 20
-303
 21
-303
  0
LINE
  8
0
 10
-36.902
 11
-36.35
 20
-303
 21
-303.228
  0
LINE
  8
0
 10
-36.35
 11
-35.928
 20
-303.228
 21
-303.65
  0
LINE
  8
0
 10
-35.928
 11
-35.7
 20
-303.65
 21
-304.202
  0
LINE
  8
0
 10
-35.7
 11
-35.7
 20
-304.202
 21
-304.798
  0
LINE
  8
0
 10
-35.7
 11
-35.928
 20
-304.798
 21
-305.35
  0
LINE
  8
0
 10
-35.928
 11
-36.35
 20
-305.35
 21
-305.772
  0
LINE
  8
0
 10
-36.35
 11
-36.902
 20
-305.772
 21
-306
  0
LINE
  8
0
 10
-36.902
 11
-37.498
 20
-306
 21
-306
  0
LINE
  8
0
 10
-37.498
 11
-38.05
 20
-306
 21
-305.772
  0
LINE
  8
0
 10
-38.05
 11
-38.472
 20
-305.772
 21
-305.35
  0
LINE
  8
0
 10
-38.472
 11
-38.7
 20
-305.35
 21
-304.798
  0
LINE
  8
0
 10
-38.7
 11
-38.7
 20
-296.198
 21
-295.602
  0
LINE
  8
0
 10
-38.7
 11
-38.472
 20
-295.602
 21
-295.05
  0
LINE
  8
0
 10
-38.472
 11
-38.05
 20
-295.05
 21
-294.628
  0
LINE
  8
0
 10
-38.05
 11
-37.498
 20
-294.628
 21
-294.4
  0
LINE
  8
0
 10
-37.498
 11
-36.902
 20
-294.4
 21
-294.4
  0
LINE
  8
0
 10
-36.902
 11
-36.35
 20
-294.4
 21
-294.628
  0
LINE
  8
0
 10
-36.35
 11
-35.928
 20
-294.628
 21
-295.05
  0
LINE
  8
0
 10
-35.928
 11
-35.7
 20
-295.05
 21
-295.602
  0
LINE
  8
0
 10
-35.7
 11
-35.7
 20
-295.602
 21
-296.198
  0
LINE
  8
0
 10
-35.7
 11
-35.928
 20
-296.198
 21
-296.75
  0
LINE
  8
0
 10
-35.928
 11
-36.35
 20
-296.75
 21
-297.172
  0
LINE
  8
0
 10
-36.35
 11
-36.902
 20
-297.172
 21
-297.4
  0
LINE
  8
0
 10
-36.902
 11
-37.498
 20
-297.4
 21
-297.4
  0
LINE
  8
0
 10
-37.498
 11
-38.05
 20
-297.4
 21
-297.172
  0
LINE
  8
0
 10
-38.05
 11
-38.472
 20
-297.172
 21
-296.75
  0
LINE
  8
0
 10
-38.472
 11
-38.7
 20
-296.75
 21
-296.198
  0
LINE
  8
0
 10
-29.46
 11
-29.46
 20
-278.085
 21
-272.115
  0
LINE
  8
0
 10
-29.46
 11
-21.54
 20
-272.115
 21
-272.115
  0
LINE
  8
0
 10
-21.54
 11
-21.54
 20
-272.115
 21
-278.085
  0
LINE
  8
0
 10
-21.54
 11
-29.46
 20
-278.085
 21
-278.085
  0
LINE
  8
0
 10
-29.46
 11
-29.46
 20
-27.985
 21
-22.015
  0
LINE
  8
0
 10
-29.46
 11
-21.54
 20
-22.015
 21
-22.015
  0
LINE
  8
0
 10
-21.54
 11
-21.54
 20
-22.015
 21
-27.985
  0
LINE
  8
0
 10
-21.54
 11
-29.46
 20
-27.985
 21
-27.985
  0
LINE
  8
0
 10
-28.94
 11
-28.94
 20
-301.794
 21
-301.406
  0
LINE
  8
0
 10
-28.94
 11
-28.902
 20
-301.406
 21
-301.021
  0
LINE
  8
0
 10
-28.902
 11
-28.827
 20
-301.021
 21
-300.642
  0
LINE
  8
0
 10
-28.827
 11
-28.714
 20
-300.642
 21
-300.271
  0
LINE
  8
0
 10
-28.714
 11
-28.566
 20
-300.271
 21
-299.913
  0
LINE
  8
0
 10
-28.566
 11
-28.384
 20
-299.913
 21
-299.572
  0
LINE
  8
0
 10
-28.384
 11
-28.168
 20
-299.572
 21
-299.25
  0
LINE
  8
0
 10
-28.168
 11
-27.923
 20
-299.25
 21
-298.951
  0
LINE
  8
0
 10
-27.923
 11
-27.649
 20
-298.951
 21
-298.677
  0
LINE
  8
0
 10
-27.649
 11
-27.35
 20
-298.677
 21
-298.432
  0
LINE
  8
0
 10
-27.35
 11
-27.028
 20
-298.432
 21
-298.216
  0
LINE
  8
0
 10
-27.028
 11
-26.687
 20
-298.216
 21
-298.034
  0
LINE
  8
0
 10
-26.687
 11
-26.329
 20
-298.034
 21
-297.886
  0
LINE
  8
0
 10
-26.329
 11
-25.958
 20
-297.886
 21
-297.773
  0
LINE
  8
0
 10
-25.958
 11
-25.579
 20
-297.773
 21
-297.698
  0
LINE
  8
0
 10
-25.579
 11
-25.194
 20
-297.698
 21
-297.66
  0
LINE
  8
0
 10
-25.194
 11
-24.806
 20
-297.66
 21
-297.66
  0
LINE
  8
0
 10
-24.806
 11
-24.421
 20
-297.66
 21
-297.698
  0
LINE
  8
0
 10
-24.421
 11
-24.042
 20
-297.698
 21
-297.773
  0
LINE
  8
0
 10
-24.042
 11
-23.671
 20
-297.773
 21
-297.886
  0
LINE
  8
0
 10
-23.671
 11
-23.313
 20
-297.886
 21
-298.034
  0
LINE
  8
0
 10
-23.313
 11
-22.972
 20
-298.034
 21
-298.216
  0
LINE
  8
0
 10
-22.972
 11
-22.65
 20
-298.216
 21
-298.432
  0
LINE
  8
0
 10
-22.65
 11
-22.351
 20
-298.432
 21
-298.677
  0
LINE
  8
0
 10
-22.351
 11
-22.077
 20
-298.677
 21
-298.951
  0
LINE
  8
0
 10
-22.077
 11
-21.832
 20
-298.951
 21
-299.25
  0
LINE
  8
0
 10
-21.832
 11
-21.616
 20
-299.25
 21
-299.572
  0
LINE
  8
0
 10
-21.616
 11
-21.434
 20
-299.572
 21
-299.913
  0
LINE
  8
0
 10
-21.434
 11
-21.286
 20
-299.913
 21
-300.271
  0
LINE
  8
0
 10
-21.286
 11
-21.173
 20
-300.271
 21
-300.642
  0
LINE
  8
0
 10
-21.173
 11
-21.098
 20
-300.642
 21
-301.021
  0
LINE
  8
0
 10
-21.098
 11
-21.06
 20
-301.021
 21
-301.406
  0
LINE
  8
0
 10
-21.06
 11
-21.06
 20
-301.406
 21
-301.794
  0
LINE
  8
0
 10
-21.06
 11
-21.098
 20
-301.794
 21
-302.179
  0
LINE
  8
0
 10
-21.098
 11
-21.173
 20
-302.179
 21
-302.558
  0
LINE
  8
0
 10
-21.173
 11
-21.286
 20
-302.558
 21
-302.929
  0
LINE
  8
0
 10
-21.286
 11
-21.434
 20
-302.929
 21
-303.287
  0
LINE
  8
0
 10
-21.434
 11
-21.616
 20
-303.287
 21
-303.628
  0
LINE
  8
0
 10
-21.616
 11
-21.832
 20
-303.628
 21
-303.95
  0
LINE
  8
0
 10
-21.832
 11
-22.077
 20
-303.95
 21
-304.249
  0
LINE
  8
0
 10
-22.077
 11
-22.351
 20
-304.249
 21
-304.523
  0
LINE
  8
0
 10
-22.351
 11
-22.65
 20
-304.523
 21
-304.768
  0
LINE
  8
0
 10
-22.65
 11
-22.972
 20
-304.768
 21
-304.984
  0
LINE
  8
0
 10
-22.972
 11
-23.313
 20
-304.984
 21
-305.166
  0
LINE
  8
0
 10
-23.313
 11
-23.671
 20
-305.166
 21
-305.314
  0
LINE
  8
0
 10
-23.671
 11
-24.042
 20
-305.314
 21
-305.427
  0
LINE
  8
0
 10
-24.042
 11
-24.421
 20
-305.427
 21
-305.502
  0
LINE
  8
0
 10
-24.421
 11
-24.806
 20
-305.502
 21
-305.54
  0
LINE
  8
0
 10
-24.806
 11
-25.194
 20
-305.54
 21
-305.54
  0
LINE
  8
0
 10
-25.194
 11
-25.579
 20
-305.54
 21
-305.502
  0
LINE
  8
0
 10
-25.579
 11
-25.958
 20
-305.502
 21
-305.427
  0
LINE
  8
0
 10
-25.958
 11
-26.329
 20
-305.427
 21
-305.314
  0
LINE
  8
0
 10
-26.329
 11
-26.687
 20
-305.314
 21
-305.166
  0
LINE
  8
0
 10
-26.687
 11
-27.028
 20
-305.166
 21
-304.984
  0
LINE
  8
0
 10
-27.028
 11
-27.35
 20
-304.984
 21
-304.768
  0
LINE
  8
0
 10
-27.35
 11
-27.649
 20
-304.768
 21
-304.523
  0
LINE
  8
0
 10
-27.649
 11
-27.923
 20
-304.523
 21
-304.249
  0
LINE
  8
0
 10
-27.923
 11
-28.168
 20
-304.249
 21
-303.95
  0
LINE
  8
0
 10
-28.168
 11
-28.384
 20
-303.95
 21
-303.628
  0
LINE
  8
0
 10
-28.384
 11
-28.566
 20
-303.628
 21
-303.287
  0
LINE
  8
0
 10
-28.566
 11
-28.714
 20
-303.287
 21
-302.929
  0
LINE
  8
0
 10
-28.714
 11
-28.827
 20
-302.929
 21
-302.558
  0
LINE
  8
0
 10
-28.827
 11
-28.902
 20
-302.558
 21
-302.179
  0
LINE
  8
0
 10
-28.902
 11
-28.94
 20
-302.179
 21
-301.794
  0
LINE
  8
0
 10
-13.485
 11
-13.485
 20
-306.06
 21
-298.14
  0
LINE
  8
0
 10
-13.485
 11
-7.515
 20
-298.14
 21
-298.14
  0
LINE
  8
0
 10
-7.515
 11
-7.515
 20
-298.14
 21
-306.06
  0
LINE
  8
0
 10
-7.515
 11
-13.485
 20
-306.06
 21
-306.06
  0
LINE
  8
0
 10
-13.485
 11
-13.485
 20
-278.06
 21
-270.14
  0
LINE
  8
0
 10
-13.485
 11
-7.515
 20
-270.14
 21
-270.14
  0
LINE
  8
0
 10
-7.515
 11
-7.515
 20
-270.14
 21
-278.06
  0
LINE
  8
0
 10
-7.515
 11
-13.485
 20
-278.06
 21
-278.06
  0
LINE
  8
0
 10
-13.485
 11
-13.485
 20
-189.01
 21
-181.09
  0
LINE
  8
0
 10
-13.485
 11
-7.515
 20
-181.09
 21
-181.09
  0
LINE
  8
0
 10
-7.515
 11
-7.515
 20
-181.09
 21
-189.01
  0
LINE
  8
0
 10
-7.515
 11
-13.485
 20
-189.01
 21
-189.01
  0
LINE
  8
0
 10
-13.485
 11
-13.485
 20
-161.01
 21
-153.09
  0
LINE
  8
0
 10
-13.485
 11
-7.515
 20
-153.09
 21
-153.09
  0
LINE
  8
0
 10
-7.515
 11
-7.515
 20
-153.09
 21
-161.01
  0
LINE
  8
0
 10
-7.515
 11
-13.485
 20
-161.01
 21
-161.01
  0
LINE
  8
0
 10
-13.485
 11
-13.485
 20
-71.96
 21
-64.04
  0
LINE
  8
0
 10
-13.485
 11
-7.515
 20
-64.04
 21
-64.04
  0
LINE
  8
0
 10
-7.515
 11
-7.515
 20
-64.04
 21
-71.96
  0
LINE
  8
0
 10
-7.515
 11
-13.485
 20
-71.96
 21
-71.96
  0
LINE
  8
0
 10
-13.485
 11
-13.485
 20
-43.96
 21
-36.04
  0
LINE
  8
0
 10
-13.485
 11
-7.515
 20
-36.04
 21
-36.04
  0
LINE
  8
0
 10
-7.515
 11
-7.515
 20
-36.04
 21
-43.96
  0
LINE
  8
0
 10
-7.515
 11
-13.485
 20
-43.96
 21
-43.96
  0
LINE
  8
0
 10
-11.9
 11
-11.9
 20
-288.68
 21
-287.52
  0
LINE
  8
0
 10
-11.9
 11
-11.08
 20
-287.52
 21
-286.7
  0
LINE
  8
0
 10
-11.08
 11
-9.92
 20
-286.7
 21
-286.7
  0
LINE
  8
0
 10
-9.92
 11
-9.1
 20
-286.7
 21
-287.52
  0
LINE
  8
0
 10
-9.1
 11
-9.1
 20
-287.52
 21
-288.68
  0
LINE
  8
0
 10
-9.1
 11
-9.92
 20
-288.68
 21
-289.5
  0
LINE
  8
0
 10
-9.92
 11
-11.08
 20
-289.5
 21
-289.5
  0
LINE
  8
0
 10
-11.08
 11
-11.9
 20
-289.5
 21
-288.68
  0
LINE
  8
0
 10
-11.9
 11
-11.9
 20
-171.63
 21
-170.47
  0
LINE
  8
0
 10
-11.9
 11
-11.08
 20
-170.47
 21
-169.65
  0
LINE
  8
0
 10
-11.08
 11
-9.92
 20
-169.65
 21
-169.65
  0
LINE
  8
0
 10
-9.92
 11
-9.1
 20
-169.65
 21
-170.47
  0
LINE
  8
0
 10
-9.1
 11
-9.1
 20
-170.47
 21
-171.63
  0
LINE
  8
0
 10
-9.1
 11
-9.92
 20
-171.63
 21
-172.45
  0
LINE
  8
0
 10
-9.92
 11
-11.08
 20
-172.45
 21
-172.45
  0
LINE
  8
0
 10
-11.08
 11
-11.9
 20
-172.45
 21
-171.63
  0
LINE
  8
0
 10
-11.9
 11
-11.9
 20
-54.58
 21
-53.42
  0
LINE
  8
0
 10
-11.9
 11
-11.08
 20
-53.42
 21
-52.6
  0
LINE
  8
0
 10
-11.08
 11
-9.92
 20
-52.6
 21
-52.6
  0
LINE
  8
0
 10
-9.92
 11
-9.1
 20
-52.6
 21
-53.42
  0
LINE
  8
0
 10
-9.1
 11
-9.1
 20
-53.42
 21
-54.58
  0
LINE
  8
0
 10
-9.1
 11
-9.92
 20
-54.58
 21
-55.4
  0
LINE
  8
0
 10
-9.92
 11
-11.08
 20
-55.4
 21
-55.4
  0
LINE
  8
0
 10
-11.08
 11
-11.9
 20
-55.4
 21
-54.58
  0
LINE
  8
0
 10
0.46
 11
0.46
 20
-314.14
 21
-17.96
  0
LINE
  8
0
 10
0.46
 11
293.54
 20
-17.96
 21
-17.96
  0
LINE
  8
0
 10
293.54
 11
293.54
 20
-17.96
 21
-314.14
  0
LINE
  8
0
 10
293.54
 11
0.46
 20
-314.14
 21
-314.14
  0
LINE
  8
0
 10
4.515
 11
4.515
 20
-306.06
 21
-298.14
  0
LINE
  8
0
 10
4.515
 11
10.485
 20
-298.14
 21
-298.14
  0
LINE
  8
0
 10
10.485
 11
10.485
 20
-298.14
 21
-306.06
  0
LINE
  8
0
 10
10.485
 11
4.515
 20
-306.06
 21
-306.06
  0
LINE
  8
0
 10
4.515
 11
4.515
 20
-278.06
 21
-270.14
  0
LINE
  8
0
 10
4.515
 11
10.485
 20
-270.14
 21
-270.14
  0
LINE
  8
0
 10
10.485
 11
10.485
 20
-270.14
 21
-278.06
  0
LINE
  8
0
 10
10.485
 11
4.515
 20
-278.06
 21
-278.06
  0
LINE
  8
0
 10
4.515
 11
4.515
 20
-189.01
 21
-181.09
  0
LINE
  8
0
 10
4.515
 11
10.485
 20
-181.09
 21
-181.09
  0
LINE
  8
0
 10
10.485
 11
10.485
 20
-181.09
 21
-189.01
  0
LINE
  8
0
 10
10.485
 11
4.515
 20
-189.01
 21
-189.01
  0
LINE
  8
0
 10
4.515
 11
4.515
 20
-161.01
 21
-153.09
  0
LINE
  8
0
 10
4.515
 11
10.485
 20
-153.09
 21
-153.09
  0
LINE
  8
0
 10
10.485
 11
10.485
 20
-153.09
 21
-161.01
  0
LINE
  8
0
 10
10.485
 11
4.515
 20
-161.01
 21
-161.01
  0
LINE
  8
0
 10
4.515
 11
4.515
 20
-71.96
 21
-64.04
  0
LINE
  8
0
 10
4.515
 11
10.485
 20
-64.04
 21
-64.04
  0
LINE
  8
0
 10
10.485
 11
10.485
 20
-64.04
 21
-71.96
  0
LINE
  8
0
 10
10.485
 11
4.515
 20
-71.96
 21
-71.96
  0
LINE
  8
0
 10
4.515
 11
4.515
 20
-43.96
 21
-36.04
  0
LINE
  8
0
 10
4.515
 11
10.485
 20
-36.04
 21
-36.04
  0
LINE
  8
0
 10
10.485
 11
10.485
 20
-36.04
 21
-43.96
  0
LINE
  8
0
 10
10.485
 11
4.515
 20
-43.96
 21
-43.96
  0
LINE
  8
0
 10
6.1
 11
6.1
 20
-288.68
 21
-287.52
  0
LINE
  8
0
 10
6.1
 11
6.92
 20
-287.52
 21
-286.7
  0
LINE
  8
0
 10
6.92
 11
8.08
 20
-286.7
 21
-286.7
  0
LINE
  8
0
 10
8.08
 11
8.9
 20
-286.7
 21
-287.52
  0
LINE
  8
0
 10
8.9
 11
8.9
 20
-287.52
 21
-288.68
  0
LINE
  8
0
 10
8.9
 11
8.08
 20
-288.68
 21
-289.5
  0
LINE
  8
0
 10
8.08
 11
6.92
 20
-289.5
 21
-289.5
  0
LINE
  8
0
 10
6.92
 11
6.1
 20
-289.5
 21
-288.68
  0
LINE
  8
0
 10
6.1
 11
6.1
 20
-171.63
 21
-170.47
  0
LINE
  8
0
 10
6.1
 11
6.92
 20
-170.47
 21
-169.65
  0
LINE
  8
0
 10
6.92
 11
8.08
 20
-169.65
 21
-169.65
  0
LINE
  8
0
 10
8.08
 11
8.9
 20
-169.65
 21
-170.47
  0
LINE
  8
0
 10
8.9
 11
8.9
 20
-170.47
 21
-171.63
  0
LINE
  8
0
 10
8.9
 11
8.08
 20
-171.63
 21
-172.45
  0
LINE
  8
0
 10
8.08
 11
6.92
 20
-172.45
 21
-172.45
  0
LINE
  8
0
 10
6.92
 11
6.1
 20
-172.45
 21
-171.63
  0
LINE
  8
0
 10
6.1
 11
6.1
 20
-54.58
 21
-53.42
  0
LINE
  8
0
 10
6.1
 11
6.92
 20
-53.42
 21
-52.6
  0
LINE
  8
0
 10
6.92
 11
8.08
 20
-52.6
 21
-52.6
  0
LINE
  8
0
 10
8.08
 11
8.9
 20
-52.6
 21
-53.42
  0
LINE
  8
0
 10
8.9
 11
8.9
 20
-53.42
 21
-54.58
  0
LINE
  8
0
 10
8.9
 11
8.08
 20
-54.58
 21
-55.4
  0
LINE
  8
0
 10
8.08
 11
6.92
 20
-55.4
 21
-55.4
  0
LINE
  8
0
 10
6.92
 11
6.1
 20
-55.4
 21
-54.58
  0
LINE
  8
0
 10
17
 11
17
 20
-67.298
 21
-66.702
  0
LINE
  8
0
 10
17
 11
17.228
 20
-66.702
 21
-66.15
  0
LINE
  8
0
 10
17.228
 11
17.65
 20
-66.15
 21
-65.728
  0
LINE
  8
0
 10
17.65
 11
18.202
 20
-65.728
 21
-65.5
  0
LINE
  8
0
 10
18.202
 11
18.798
 20
-65.5
 21
-65.5
  0
LINE
  8
0
 10
18.798
 11
19.35
 20
-65.5
 21
-65.728
  0
LINE
  8
0
 10
19.35
 11
19.772
 20
-65.728
 21
-66.15
  0
LINE
  8
0
 10
19.772
 11
20
 20
-66.15
 21
-66.702
  0
LINE
  8
0
 10
20
 11
20
 20
-66.702
 21
-67.298
  0
LINE
  8
0
 10
20
 11
19.772
 20
-67.298
 21
-67.85
  0
LINE
  8
0
 10
19.772
 11
19.35
 20
-67.85
 21
-68.272
  0
LINE
  8
0
 10
19.35
 11
18.798
 20
-68.272
 21
-68.5
  0
LINE
  8
0
 10
18.798
 11
18.202
 20
-68.5
 21
-68.5
  0
LINE
  8
0
 10
18.202
 11
17.65
 20
-68.5
 21
-68.272
  0
LINE
  8
0
 10
17.65
 11
17.228
 20
-68.272
 21
-67.85
  0
LINE
  8
0
 10
17.228
 11
17
 20
-67.85
 21
-67.298
  0
LINE
  8
0
 10
17
 11
17
 20
-36.298
 21
-35.702
  0
LINE
  8
0
 10
17
 11
17.228
 20
-35.702
 21
-35.15
  0
LINE
  8
0
 10
17.228
 11
17.65
 20
-35.15
 21
-34.728
  0
LINE
  8
0
 10
17.65
 11
18.202
 20
-34.728
 21
-34.5
  0
LINE
  8
0
 10
18.202
 11
18.798
 20
-34.5
 21
-34.5
  0
LINE
  8
0
 10
18.798
 11
19.35
 20
-34.5
 21
-34.728
  0
LINE
  8
0
 10
19.35
 11
19.772
 20
-34.728
 21
-35.15
  0
LINE
  8
0
 10
19.772
 11
20
 20
-35.15
 21
-35.702
  0
LINE
  8
0
 10
20
 11
20
 20
-35.702
 21
-36.298
  0
LINE
  8
0
 10
20
 11
19.772
 20
-36.298
 21
-36.85
  0
LINE
  8
0
 10
19.772
 11
19.35
 20
-36.85
 21
-37.272
  0
LINE
  8
0
 10
19.35
 11
18.798
 20
-37.272
 21
-37.5
  0
LINE
  8
0
 10
18.798
 11
18.202
 20
-37.5
 21
-37.5
  0
LINE
  8
0
 10
18.202
 11
17.65
 20
-37.5
 21
-37.272
  0
LINE
  8
0
 10
17.65
 11
17.228
 20
-37.272
 21
-36.85
  0
LINE
  8
0
 10
17.228
 11
17
 20
-36.85
 21
-36.298
  0
LINE
  8
0
 10
18.06
 11
18.06
 20
-301.794
 21
-301.406
  0
LINE
  8
0
 10
18.06
 11
18.098
 20
-301.406
 21
-301.021
  0
LINE
  8
0
 10
18.098
 11
18.173
 20
-301.021
 21
-300.642
  0
LINE
  8
0
 10
18.173
 11
18.286
 20
-300.642
 21
-300.271
  0
LINE
  8
0
 10
18.286
 11
18.434
 20
-300.271
 21
-299.913
  0
LINE
  8
0
 10
18.434
 11
18.616
 20
-299.913
 21
-299.572
  0
LINE
  8
0
 10
18.616
 11
18.832
 20
-299.572
 21
-299.25
  0
LINE
  8
0
 10
18.832
 11
19.077
 20
-299.25
 21
-298.951
  0
LINE
  8
0
 10
19.077
 11
19.351
 20
-298.951
 21
-298.677
  0
LINE
  8
0
 10
19.351
 11
19.65
 20
-298.677
 21
-298.432
  0
LINE
  8
0
 10
19.65
 11
19.972
 20
-298.432
 21
-298.216
  0
LINE
  8
0
 10
19.972
 11
20.313
 20
-298.216
 21
-298.034
  0
LINE
  8
0
 10
20.313
 11
20.671
 20
-298.034
 21
-297.886
  0
LINE
  8
0
 10
20.671
 11
21.042
 20
-297.886
 21
-297.773
  0
LINE
  8
0
 10
21.042
 11
21.421
 20
-297.773
 21
-297.698
  0
LINE
  8
0
 10
21.421
 11
21.806
 20
-297.698
 21
-297.66
  0
LINE
  8
0
 10
21.806
 11
22.194
 20
-297.66
 21
-297.66
  0
LINE
  8
0
 10
22.194
 11
22.579
 20
-297.66
 21
-297.698
  0
LINE
  8
0
 10
22.579
 11
22.958
 20
-297.698
 21
-297.773
  0
LINE
  8
0
 10
22.958
 11
23.329
 20
-297.773
 21
-297.886
  0
LINE
  8
0
 10
23.329
 11
23.687
 20
-297.886
 21
-298.034
  0
LINE
  8
0
 10
23.687
 11
24.028
 20
-298.034
 21
-298.216
  0
LINE
  8
0
 10
24.028
 11
24.35
 20
-298.216
 21
-298.432
  0
LINE
  8
0
 10
24.35
 11
24.649
 20
-298.432
 21
-298.677
  0
LINE
  8
0
 10
24.649
 11
24.923
 20
-298.677
 21
-298.951
  0
LINE
  8
0
 10
24.923
 11
25.168
 20
-298.951
 21
-299.25
  0
LINE
  8
0
 10
25.168
 11
25.384
 20
-299.25
 21
-299.572
  0
LINE
  8
0
 10
25.384
 11
25.566
 20
-299.572
 21
-299.913
  0
LINE
  8
0
 10
25.566
 11
25.714
 20
-299.913
 21
-300.271
  0
LINE
  8
0
 10
25.714
 11
25.827
 20
-300.271
 21
-300.642
  0
LINE
  8
0
 10
25.827
 11
25.902
 20
-300.642
 21
-301.021
  0
LINE
  8
0
 10
25.902
 11
25.94
 20
-301.021
 21
-301.406
  0
LINE
  8
0
 10
25.94
 11
25.94
 20
-301.406
 21
-301.794
  0
LINE
  8
0
 10
25.94
 11
25.902
 20
-301.794
 21
-302.179
  0
LINE
  8
0
 10
25.902
 11
25.827
 20
-302.179
 21
-302.558
  0
LINE
  8
0
 10
25.827
 11
25.714
 20
-302.558
 21
-302.929
  0
LINE
  8
0
 10
25.714
 11
25.566
 20
-302.929
 21
-303.287
  0
LINE
  8
0
 10
25.566
 11
25.384
 20
-303.287
 21
-303.628
  0
LINE
  8
0
 10
25.384
 11
25.168
 20
-303.628
 21
-303.95
  0
LINE
  8
0
 10
25.168
 11
24.923
 20
-303.95
 21
-304.249
  0
LINE
  8
0
 10
24.923
 11
24.649
 20
-304.249
 21
-304.523
  0
LINE
  8
0
 10
24.649
 11
24.35
 20
-304.523
 21
-304.768
  0
LINE
  8
0
 10
24.35
 11
24.028
 20
-304.768
 21
-304.984
  0
LINE
  8
0
 10
24.028
 11
23.687
 20
-304.984
 21
-305.166
  0
LINE
  8
0
 10
23.687
 11
23.329
 20
-305.166
 21
-305.314
  0
LINE
  8
0
 10
23.329
 11
22.958
 20
-305.314
 21
-305.427
  0
LINE
  8
0
 10
22.958
 11
22.579
 20
-305.427
 21
-305.502
  0
LINE
  8
0
 10
22.579
 11
22.194
 20
-305.502
 21
-305.54
  0
LINE
  8
0
 10
22.194
 11
21.806
 20
-305.54
 21
-305.54
  0
LINE
  8
0
 10
21.806
 11
21.421
 20
-305.54
 21
-305.502
  0
LINE
  8
0
 10
21.421
 11
21.042
 20
-305.502
 21
-305.427
  0
LINE
  8
0
 10
21.042
 11
20.671
 20
-305.427
 21
-305.314
  0
LINE
  8
0
 10
20.671
 11
20.313
 20
-305.314
 21
-305.166
  0
LINE
  8
0
 10
20.313
 11
19.972
 20
-305.166
 21
-304.984
  0
LINE
  8
0
 10
19.972
 11
19.65
 20
-304.984
 21
-304.768
  0
LINE
  8
0
 10
19.65
 11
19.351
 20
-304.768
 21
-304.523
  0
LINE
  8
0
 10
19.351
 11
19.077
 20
-304.523
 21
-304.249
  0
LINE
  8
0
 10
19.077
 11
18.832
 20
-304.249
 21
-303.95
  0
LINE
  8
0
 10
18.832
 11
18.616
 20
-303.95
 21
-303.628
  0
LINE
  8
0
 10
18.616
 11
18.434
 20
-303.628
 21
-303.287
  0
LINE
  8
0
 10
18.434
 11
18.286
 20
-303.287
 21
-302.929
  0
LINE
  8
0
 10
18.286
 11
18.173
 20
-302.929
 21
-302.558
  0
LINE
  8
0
 10
18.173
 11
18.098
 20
-302.558
 21
-302.179
  0
LINE
  8
0
 10
18.098
 11
18.06
 20
-302.179
 21
-301.794
  0
LINE
  8
0
 10
18.54
 11
18.54
 20
-278.085
 21
-272.115
  0
LINE
  8
0
 10
18.54
 11
26.46
 20
-272.115
 21
-272.115
  0
LINE
  8
0
 10
26.46
 11
26.46
 20
-272.115
 21
-278.085
  0
LINE
  8
0
 10
26.46
 11
18.54
 20
-278.085
 21
-278.085
  0
LINE
  8
0
 10
18.54
 11
18.54
 20
-27.985
 21
-22.015
  0
LINE
  8
0
 10
18.54
 11
26.46
 20
-22.015
 21
-22.015
  0
LINE
  8
0
 10
26.46
 11
26.46
 20
-22.015
 21
-27.985
  0
LINE
  8
0
 10
26.46
 11
18.54
 20
-27.985
 21
-27.985
  0
LINE
  8
0
 10
23
 11
23
 20
-53.688
 21
-49.312
  0
LINE
  8
0
 10
23
 11
24.675
 20
-49.312
 21
-45.269
  0
LINE
  8
0
 10
24.675
 11
27.769
 20
-45.269
 21
-42.175
  0
LINE
  8
0
 10
27.769
 11
31.812
 20
-42.175
 21
-40.5
  0
LINE
  8
0
 10
31.812
 11
36.188
 20
-40.5
 21
-40.5
  0
LINE
  8
0
 10
36.188
 11
40.231
 20
-40.5
 21
-42.175
  0
LINE
  8
0
 10
40.231
 11
43.325
 20
-42.175
 21
-45.269
  0
LINE
  8
0
 10
43.325
 11
45
 20
-45.269
 21
-49.312
  0
LINE
  8
0
 10
45
 11
45
 20
-49.312
 21
-53.688
  0
LINE
  8
0
 10
45
 11
43.325
 20
-53.688
 21
-57.731
  0
LINE
  8
0
 10
43.325
 11
40.231
 20
-57.731
 21
-60.825
  0
LINE
  8
0
 10
40.231
 11
36.188
 20
-60.825
 21
-62.5
  0
LINE
  8
0
 10
36.188
 11
31.812
 20
-62.5
 21
-62.5
  0
LINE
  8
0
 10
31.812
 11
27.769
 20
-62.5
 21
-60.825
  0
LINE
  8
0
 10
27.769
 11
24.675
 20
-60.825
 21
-57.731
  0
LINE
  8
0
 10
24.675
 11
23
 20
-57.731
 21
-53.688
  0
LINE
  8
0
 10
32.7
 11
32.7
 20
-300.198
 21
-295.602
  0
LINE
  8
0
 10
32.7
 11
32.928
 20
-295.602
 21
-295.05
  0
LINE
  8
0
 10
32.928
 11
33.35
 20
-295.05
 21
-294.628
  0
LINE
  8
0
 10
33.35
 11
33.902
 20
-294.628
 21
-294.4
  0
LINE
  8
0
 10
33.902
 11
34.498
 20
-294.4
 21
-294.4
  0
LINE
  8
0
 10
34.498
 11
35.05
 20
-294.4
 21
-294.628
  0
LINE
  8
0
 10
35.05
 11
35.472
 20
-294.628
 21
-295.05
  0
LINE
  8
0
 10
35.472
 11
35.7
 20
-295.05
 21
-295.602
  0
LINE
  8
0
 10
35.7
 11
35.7
 20
-295.602
 21
-300.198
  0
LINE
  8
0
 10
35.7
 11
35.472
 20
-300.198
 21
-300.75
  0
LINE
  8
0
 10
35.472
 11
35.05
 20
-300.75
 21
-301.172
  0
LINE
  8
0
 10
35.05
 11
34.498
 20
-301.172
 21
-301.4
  0
LINE
  8
0
 10
34.498
 11
33.902
 20
-301.4
 21
-301.4
  0
LINE
  8
0
 10
33.902
 11
33.35
 20
-301.4
 21
-301.172
  0
LINE
  8
0
 10
33.35
 11
32.928
 20
-301.172
 21
-300.75
  0
LINE
  8
0
 10
32.928
 11
32.7
 20
-300.75
 21
-300.198
  0
LINE
  8
0
 10
35.1
 11
35.1
 20
-275.68
 21
-274.52
  0
LINE
  8
0
 10
35.1
 11
35.92
 20
-274.52
 21
-273.7
  0
LINE
  8
0
 10
35.92
 11
37.08
 20
-273.7
 21
-273.7
  0
LINE
  8
0
 10
37.08
 11
37.9
 20
-273.7
 21
-274.52
  0
LINE
  8
0
 10
37.9
 11
37.9
 20
-274.52
 21
-275.68
  0
LINE
  8
0
 10
37.9
 11
37.08
 20
-275.68
 21
-276.5
  0
LINE
  8
0
 10
37.08
 11
35.92
 20
-276.5
 21
-276.5
  0
LINE
  8
0
 10
35.92
 11
35.1
 20
-276.5
 21
-275.68
  0
LINE
  8
0
 10
35.1
 11
35.1
 20
-25.58
 21
-24.42
  0
LINE
  8
0
 10
35.1
 11
35.92
 20
-24.42
 21
-23.6
  0
LINE
  8
0
 10
35.92
 11
37.08
 20
-23.6
 21
-23.6
  0
LINE
  8
0
 10
37.08
 11
37.9
 20
-23.6
 21
-24.42
  0
LINE
  8
0
 10
37.9
 11
37.9
 20
-24.42
 21
-25.58
  0
LINE
  8
0
 10
37.9
 11
37.08
 20
-25.58
 21
-26.4
  0
LINE
  8
0
 10
37.08
 11
35.92
 20
-26.4
 21
-26.4
  0
LINE
  8
0
 10
35.92
 11
35.1
 20
-26.4
 21
-25.58
  0
LINE
  8
0
 10
46.54
 11
46.54
 20
-278.085
 21
-272.115
  0
LINE
  8
0
 10
46.54
 11
54.46
 20
-272.115
 21
-272.115
  0
LINE
  8
0
 10
54.46
 11
54.46
 20
-272.115
 21
-278.085
  0
LINE
  8
0
 10
54.46
 11
46.54
 20
-278.085
 21
-278.085
  0
LINE
  8
0
 10
46.54
 11
46.54
 20
-27.985
 21
-22.015
  0
LINE
  8
0
 10
46.54
 11
54.46
 20
-22.015
 21
-22.015
  0
LINE
  8
0
 10
54.46
 11
54.46
 20
-22.015
 21
-27.985
  0
LINE
  8
0
 10
54.46
 11
46.54
 20
-27.985
 21
-27.985
  0
LINE
  8
0
 10
48
 11
48
 20
-67.298
 21
-66.702
  0
LINE
  8
0
 10
48
 11
48.228
 20
-66.702
 21
-66.15
  0
LINE
  8
0
 10
48.228
 11
48.65
 20
-66.15
 21
-65.728
  0
LINE
  8
0
 10
48.65
 11
49.202
 20
-65.728
 21
-65.5
  0
LINE
  8
0
 10
49.202
 11
49.798
 20
-65.5
 21
-65.5
  0
LINE
  8
0
 10
49.798
 11
50.35
 20
-65.5
 21
-65.728
  0
LINE
  8
0
 10
50.35
 11
50.772
 20
-65.728
 21
-66.15
  0
LINE
  8
0
 10
50.772
 11
51
 20
-66.15
 21
-66.702
  0
LINE
  8
0
 10
51
 11
51
 20
-66.702
 21
-67.298
  0
LINE
  8
0
 10
51
 11
50.772
 20
-67.298
 21
-67.85
  0
LINE
  8
0
 10
50.772
 11
50.35
 20
-67.85
 21
-68.272
  0
LINE
  8
0
 10
50.35
 11
49.798
 20
-68.272
 21
-68.5
  0
LINE
  8
0
 10
49.798
 11
49.202
 20
-68.5
 21
-68.5
  0
LINE
  8
0
 10
49.202
 11
48.65
 20
-68.5
 21
-68.272
  0
LINE
  8
0
 10
48.65
 11
48.228
 20
-68.272
 21
-67.85
  0
LINE
  8
0
 10
48.228
 11
48
 20
-67.85
 21
-67.298
  0
LINE
  8
0
 10
48
 11
48
 20
-36.298
 21
-35.702
  0
LINE
  8
0
 10
48
 11
48.228
 20
-35.702
 21
-35.15
  0
LINE
  8
0
 10
48.228
 11
48.65
 20
-35.15
 21
-34.728
  0
LINE
  8
0
 10
48.65
 11
49.202
 20
-34.728
 21
-34.5
  0
LINE
  8
0
 10
49.202
 11
49.798
 20
-34.5
 21
-34.5
  0
LINE
  8
0
 10
49.798
 11
50.35
 20
-34.5
 21
-34.728
  0
LINE
  8
0
 10
50.35
 11
50.772
 20
-34.728
 21
-35.15
  0
LINE
  8
0
 10
50.772
 11
51
 20
-35.15
 21
-35.702
  0
LINE
  8
0
 10
51
 11
51
 20
-35.702
 21
-36.298
  0
LINE
  8
0
 10
51
 11
50.772
 20
-36.298
 21
-36.85
  0
LINE
  8
0
 10
50.772
 11
50.35
 20
-36.85
 21
-37.272
  0
LINE
  8
0
 10
50.35
 11
49.798
 20
-37.272
 21
-37.5
  0
LINE
  8
0
 10
49.798
 11
49.202
 20
-37.5
 21
-37.5
  0
LINE
  8
0
 10
49.202
 11
48.65
 20
-37.5
 21
-37.272
  0
LINE
  8
0
 10
48.65
 11
48.228
 20
-37.272
 21
-36.85
  0
LINE
  8
0
 10
48.228
 11
48
 20
-36.85
 21
-36.298
  0
LINE
  8
0
 10
129.04
 11
129.04
 20
-278.085
 21
-272.115
  0
LINE
  8
0
 10
129.04
 11
136.96
 20
-272.115
 21
-272.115
  0
LINE
  8
0
 10
136.96
 11
136.96
 20
-272.115
 21
-278.085
  0
LINE
  8
0
 10
136.96
 11
129.04
 20
-278.085
 21
-278.085
  0
LINE
  8
0
 10
129.04
 11
129.04
 20
-27.985
 21
-22.015
  0
LINE
  8
0
 10
129.04
 11
136.96
 20
-22.015
 21
-22.015
  0
LINE
  8
0
 10
136.96
 11
136.96
 20
-22.015
 21
-27.985
  0
LINE
  8
0
 10
136.96
 11
129.04
 20
-27.985
 21
-27.985
  0
LINE
  8
0
 10
134.75
 11
134.75
 20
-251.721
 21
-250.479
  0
LINE
  8
0
 10
134.75
 11
135.629
 20
-250.479
 21
-249.6
  0
LINE
  8
0
 10
135.629
 11
136.871
 20
-249.6
 21
-249.6
  0
LINE
  8
0
 10
136.871
 11
137.75
 20
-249.6
 21
-250.479
  0
LINE
  8
0
 10
137.75
 11
137.75
 20
-250.479
 21
-251.721
  0
LINE
  8
0
 10
137.75
 11
136.871
 20
-251.721
 21
-252.6
  0
LINE
  8
0
 10
136.871
 11
135.629
 20
-252.6
 21
-252.6
  0
LINE
  8
0
 10
135.629
 11
134.75
 20
-252.6
 21
-251.721
  0
LINE
  8
0
 10
134.75
 11
134.75
 20
-49.621
 21
-48.379
  0
LINE
  8
0
 10
134.75
 11
135.629
 20
-48.379
 21
-47.5
  0
LINE
  8
0
 10
135.629
 11
136.871
 20
-47.5
 21
-47.5
  0
LINE
  8
0
 10
136.871
 11
137.75
 20
-47.5
 21
-48.379
  0
LINE
  8
0
 10
137.75
 11
137.75
 20
-48.379
 21
-49.621
  0
LINE
  8
0
 10
137.75
 11
136.871
 20
-49.621
 21
-50.5
  0
LINE
  8
0
 10
136.871
 11
135.629
 20
-50.5
 21
-50.5
  0
LINE
  8
0
 10
135.629
 11
134.75
 20
-50.5
 21
-49.621
  0
LINE
  8
0
 10
141
 11
141
 20
-55.853
 21
-31
  0
LINE
  8
0
 10
141
 11
153
 20
-31
 21
-31
  0
LINE
  8
0
 10
153
 11
153
 20
-31
 21
-55.853
  0
LINE
  8
0
 10
153
 11
141
 20
-55.853
 21
-55.853
  0
LINE
  8
0
 10
145.6
 11
145.6
 20
-275.68
 21
-274.52
  0
LINE
  8
0
 10
145.6
 11
146.42
 20
-274.52
 21
-273.7
  0
LINE
  8
0
 10
146.42
 11
147.58
 20
-273.7
 21
-273.7
  0
LINE
  8
0
 10
147.58
 11
148.4
 20
-273.7
 21
-274.52
  0
LINE
  8
0
 10
148.4
 11
148.4
 20
-274.52
 21
-275.68
  0
LINE
  8
0
 10
148.4
 11
147.58
 20
-275.68
 21
-276.5
  0
LINE
  8
0
 10
147.58
 11
146.42
 20
-276.5
 21
-276.5
  0
LINE
  8
0
 10
146.42
 11
145.6
 20
-276.5
 21
-275.68
  0
LINE
  8
0
 10
145.6
 11
145.6
 20
-25.58
 21
-24.42
  0
LINE
  8
0
 10
145.6
 11
146.42
 20
-24.42
 21
-23.6
  0
LINE
  8
0
 10
146.42
 11
147.58
 20
-23.6
 21
-23.6
  0
LINE
  8
0
 10
147.58
 11
148.4
 20
-23.6
 21
-24.42
  0
LINE
  8
0
 10
148.4
 11
148.4
 20
-24.42
 21
-25.58
  0
LINE
  8
0
 10
148.4
 11
147.58
 20
-25.58
 21
-26.4
  0
LINE
  8
0
 10
147.58
 11
146.42
 20
-26.4
 21
-26.4
  0
LINE
  8
0
 10
146.42
 11
145.6
 20
-26.4
 21
-25.58
  0
LINE
  8
0
 10
156.25
 11
156.25
 20
-251.721
 21
-250.479
  0
LINE
  8
0
 10
156.25
 11
157.129
 20
-250.479
 21
-249.6
  0
LINE
  8
0
 10
157.129
 11
158.371
 20
-249.6
 21
-249.6
  0
LINE
  8
0
 10
158.371
 11
159.25
 20
-249.6
 21
-250.479
  0
LINE
  8
0
 10
159.25
 11
159.25
 20
-250.479
 21
-251.721
  0
LINE
  8
0
 10
159.25
 11
158.371
 20
-251.721
 21
-252.6
  0
LINE
  8
0
 10
158.371
 11
157.129
 20
-252.6
 21
-252.6
  0
LINE
  8
0
 10
157.129
 11
156.25
 20
-252.6
 21
-251.721
  0
LINE
  8
0
 10
156.25
 11
156.25
 20
-49.621
 21
-48.379
  0
LINE
  8
0
 10
156.25
 11
157.129
 20
-48.379
 21
-47.5
  0
LINE
  8
0
 10
157.129
 11
158.371
 20
-47.5
 21
-47.5
  0
LINE
  8
0
 10
158.371
 11
159.25
 20
-47.5
 21
-48.379
  0
LINE
  8
0
 10
159.25
 11
159.25
 20
-48.379
 21
-49.621
  0
LINE
  8
0
 10
159.25
 11
158.371
 20
-49.621
 21
-50.5
  0
LINE
  8
0
 10
158.371
 11
157.129
 20
-50.5
 21
-50.5
  0
LINE
  8
0
 10
157.129
 11
156.25
 20
-50.5
 21
-49.621
  0
LINE
  8
0
 10
157.04
 11
157.04
 20
-278.085
 21
-272.115
  0
LINE
  8
0
 10
157.04
 11
164.96
 20
-272.115
 21
-272.115
  0
LINE
  8
0
 10
164.96
 11
164.96
 20
-272.115
 21
-278.085
  0
LINE
  8
0
 10
164.96
 11
157.04
 20
-278.085
 21
-278.085
  0
LINE
  8
0
 10
157.04
 11
157.04
 20
-27.985
 21
-22.015
  0
LINE
  8
0
 10
157.04
 11
164.96
 20
-22.015
 21
-22.015
  0
LINE
  8
0
 10
164.96
 11
164.96
 20
-22.015
 21
-27.985
  0
LINE
  8
0
 10
164.96
 11
157.04
 20
-27.985
 21
-27.985
  0
LINE
  8
0
 10
239.54
 11
239.54
 20
-278.085
 21
-272.115
  0
LINE
  8
0
 10
239.54
 11
247.46
 20
-272.115
 21
-272.115
  0
LINE
  8
0
 10
247.46
 11
247.46
 20
-272.115
 21
-278.085
  0
LINE
  8
0
 10
247.46
 11
239.54
 20
-278.085
 21
-278.085
  0
LINE
  8
0
 10
239.54
 11
239.54
 20
-27.985
 21
-22.015
  0
LINE
  8
0
 10
239.54
 11
247.46
 20
-22.015
 21
-22.015
  0
LINE
  8
0
 10
247.46
 11
247.46
 20
-22.015
 21
-27.985
  0
LINE
  8
0
 10
247.46
 11
239.54
 20
-27.985
 21
-27.985
  0
LINE
  8
0
 10
243
 11
243
 20
-67.298
 21
-66.702
  0
LINE
  8
0
 10
243
 11
243.228
 20
-66.702
 21
-66.15
  0
LINE
  8
0
 10
243.228
 11
243.65
 20
-66.15
 21
-65.728
  0
LINE
  8
0
 10
243.65
 11
244.202
 20
-65.728
 21
-65.5
  0
LINE
  8
0
 10
244.202
 11
244.798
 20
-65.5
 21
-65.5
  0
LINE
  8
0
 10
244.798
 11
245.35
 20
-65.5
 21
-65.728
  0
LINE
  8
0
 10
245.35
 11
245.772
 20
-65.728
 21
-66.15
  0
LINE
  8
0
 10
245.772
 11
246
 20
-66.15
 21
-66.702
  0
LINE
  8
0
 10
246
 11
246
 20
-66.702
 21
-67.298
  0
LINE
  8
0
 10
246
 11
245.772
 20
-67.298
 21
-67.85
  0
LINE
  8
0
 10
245.772
 11
245.35
 20
-67.85
 21
-68.272
  0
LINE
  8
0
 10
245.35
 11
244.798
 20
-68.272
 21
-68.5
  0
LINE
  8
0
 10
244.798
 11
244.202
 20
-68.5
 21
-68.5
  0
LINE
  8
0
 10
244.202
 11
243.65
 20
-68.5
 21
-68.272
  0
LINE
  8
0
 10
243.65
 11
243.228
 20
-68.272
 21
-67.85
  0
LINE
  8
0
 10
243.228
 11
243
 20
-67.85
 21
-67.298
  0
LINE
  8
0
 10
243
 11
243
 20
-36.298
 21
-35.702
  0
LINE
  8
0
 10
243
 11
243.228
 20
-35.702
 21
-35.15
  0
LINE
  8
0
 10
243.228
 11
243.65
 20
-35.15
 21
-34.728
  0
LINE
  8
0
 10
243.65
 11
244.202
 20
-34.728
 21
-34.5
  0
LINE
  8
0
 10
244.202
 11
244.798
 20
-34.5
 21
-34.5
  0
LINE
  8
0
 10
244.798
 11
245.35
 20
-34.5
 21
-34.728
  0
LINE
  8
0
 10
245.35
 11
245.772
 20
-34.728
 21
-35.15
  0
LINE
  8
0
 10
245.772
 11
246
 20
-35.15
 21
-35.702
  0
LINE
  8
0
 10
246
 11
246
 20
-35.702
 21
-36.298
  0
LINE
  8
0
 10
246
 11
245.772
 20
-36.298
 21
-36.85
  0
LINE
  8
0
 10
245.772
 11
245.35
 20
-36.85
 21
-37.272
  0
LINE
  8
0
 10
245.35
 11
244.798
 20
-37.272
 21
-37.5
  0
LINE
  8
0
 10
244.798
 11
244.202
 20
-37.5
 21
-37.5
  0
LINE
  8
0
 10
244.202
 11
243.65
 20
-37.5
 21
-37.272
  0
LINE
  8
0
 10
243.65
 11
243.228
 20
-37.272
 21
-36.85
  0
LINE
  8
0
 10
243.228
 11
243
 20
-36.85
 21
-36.298
  0
LINE
  8
0
 10
249
 11
249
 20
-53.688
 21
-49.312
  0
LINE
  8
0
 10
249
 11
250.675
 20
-49.312
 21
-45.269
  0
LINE
  8
0
 10
250.675
 11
253.769
 20
-45.269
 21
-42.175
  0
LINE
  8
0
 10
253.769
 11
257.812
 20
-42.175
 21
-40.5
  0
LINE
  8
0
 10
257.812
 11
262.188
 20
-40.5
 21
-40.5
  0
LINE
  8
0
 10
262.188
 11
266.231
 20
-40.5
 21
-42.175
  0
LINE
  8
0
 10
266.231
 11
269.325
 20
-42.175
 21
-45.269
  0
LINE
  8
0
 10
269.325
 11
271
 20
-45.269
 21
-49.312
  0
LINE
  8
0
 10
271
 11
271
 20
-49.312
 21
-53.688
  0
LINE
  8
0
 10
271
 11
269.325
 20
-53.688
 21
-57.731
  0
LINE
  8
0
 10
269.325
 11
266.231
 20
-57.731
 21
-60.825
  0
LINE
  8
0
 10
266.231
 11
262.188
 20
-60.825
 21
-62.5
  0
LINE
  8
0
 10
262.188
 11
257.812
 20
-62.5
 21
-62.5
  0
LINE
  8
0
 10
257.812
 11
253.769
 20
-62.5
 21
-60.825
  0
LINE
  8
0
 10
253.769
 11
250.675
 20
-60.825
 21
-57.731
  0
LINE
  8
0
 10
250.675
 11
249
 20
-57.731
 21
-53.688
  0
LINE
  8
0
 10
256.1
 11
256.1
 20
-275.68
 21
-274.52
  0
LINE
  8
0
 10
256.1
 11
256.92
 20
-274.52
 21
-273.7
  0
LINE
  8
0
 10
256.92
 11
258.08
 20
-273.7
 21
-273.7
  0
LINE
  8
0
 10
258.08
 11
258.9
 20
-273.7
 21
-274.52
  0
LINE
  8
0
 10
258.9
 11
258.9
 20
-274.52
 21
-275.68
  0
LINE
  8
0
 10
258.9
 11
258.08
 20
-275.68
 21
-276.5
  0
LINE
  8
0
 10
258.08
 11
256.92
 20
-276.5
 21
-276.5
  0
LINE
  8
0
 10
256.92
 11
256.1
 20
-276.5
 21
-275.68
  0
LINE
  8
0
 10
256.1
 11
256.1
 20
-25.58
 21
-24.42
  0
LINE
  8
0
 10
256.1
 11
256.92
 20
-24.42
 21
-23.6
  0
LINE
  8
0
 10
256.92
 11
258.08
 20
-23.6
 21
-23.6
  0
LINE
  8
0
 10
258.08
 11
258.9
 20
-23.6
 21
-24.42
  0
LINE
  8
0
 10
258.9
 11
258.9
 20
-24.42
 21
-25.58
  0
LINE
  8
0
 10
258.9
 11
258.08
 20
-25.58
 21
-26.4
  0
LINE
  8
0
 10
258.08
 11
256.92
 20
-26.4
 21
-26.4
  0
LINE
  8
0
 10
256.92
 11
256.1
 20
-26.4
 21
-25.58
  0
LINE
  8
0
 10
258.3
 11
258.3
 20
-300.198
 21
-295.602
  0
LINE
  8
0
 10
258.3
 11
258.528
 20
-295.602
 21
-295.05
  0
LINE
  8
0
 10
258.528
 11
258.95
 20
-295.05
 21
-294.628
  0
LINE
  8
0
 10
258.95
 11
259.502
 20
-294.628
 21
-294.4
  0
LINE
  8
0
 10
259.502
 11
260.098
 20
-294.4
 21
-294.4
  0
LINE
  8
0
 10
260.098
 11
260.65
 20
-294.4
 21
-294.628
  0
LINE
  8
0
 10
260.65
 11
261.072
 20
-294.628
 21
-295.05
  0
LINE
  8
0
 10
261.072
 11
261.3
 20
-295.05
 21
-295.602
  0
LINE
  8
0
 10
261.3
 11
261.3
 20
-295.602
 21
-300.198
  0
LINE
  8
0
 10
261.3
 11
261.072
 20
-300.198
 21
-300.75
  0
LINE
  8
0
 10
261.072
 11
260.65
 20
-300.75
 21
-301.172
  0
LINE
  8
0
 10
260.65
 11
260.098
 20
-301.172
 21
-301.4
  0
LINE
  8
0
 10
260.098
 11
259.502
 20
-301.4
 21
-301.4
  0
LINE
  8
0
 10
259.502
 11
258.95
 20
-301.4
 21
-301.172
  0
LINE
  8
0
 10
258.95
 11
258.528
 20
-301.172
 21
-300.75
  0
LINE
  8
0
 10
258.528
 11
258.3
 20
-300.75
 21
-300.198
  0
LINE
  8
0
 10
267.54
 11
267.54
 20
-278.085
 21
-272.115
  0
LINE
  8
0
 10
267.54
 11
275.46
 20
-272.115
 21
-272.115
  0
LINE
  8
0
 10
275.46
 11
275.46
 20
-272.115
 21
-278.085
  0
LINE
  8
0
 10
275.46
 11
267.54
 20
-278.085
 21
-278.085
  0
LINE
  8
0
 10
267.54
 11
267.54
 20
-27.985
 21
-22.015
  0
LINE
  8
0
 10
267.54
 11
275.46
 20
-22.015
 21
-22.015
  0
LINE
  8
0
 10
275.46
 11
275.46
 20
-22.015
 21
-27.985
  0
LINE
  8
0
 10
275.46
 11
267.54
 20
-27.985
 21
-27.985
  0
LINE
  8
0
 10
268.06
 11
268.06
 20
-301.794
 21
-301.406
  0
LINE
  8
0
 10
268.06
 11
268.098
 20
-301.406
 21
-301.021
  0
LINE
  8
0
 10
268.098
 11
268.173
 20
-301.021
 21
-300.642
  0
LINE
  8
0
 10
268.173
 11
268.286
 20
-300.642
 21
-300.271
  0
LINE
  8
0
 10
268.286
 11
268.434
 20
-300.271
 21
-299.913
  0
LINE
  8
0
 10
268.434
 11
268.616
 20
-299.913
 21
-299.572
  0
LINE
  8
0
 10
268.616
 11
268.832
 20
-299.572
 21
-299.25
  0
LINE
  8
0
 10
268.832
 11
269.077
 20
-299.25
 21
-298.951
  0
LINE
  8
0
 10
269.077
 11
269.351
 20
-298.951
 21
-298.677
  0
LINE
  8
0
 10
269.351
 11
269.65
 20
-298.677
 21
-298.432
  0
LINE
  8
0
 10
269.65
 11
269.972
 20
-298.432
 21
-298.216
  0
LINE
  8
0
 10
269.972
 11
270.313
 20
-298.216
 21
-298.034
  0
LINE
  8
0
 10
270.313
 11
270.671
 20
-298.034
 21
-297.886
  0
LINE
  8
0
 10
270.671
 11
271.042
 20
-297.886
 21
-297.773
  0
LINE
  8
0
 10
271.042
 11
271.421
 20
-297.773
 21
-297.698
  0
LINE
  8
0
 10
271.421
 11
271.806
 20
-297.698
 21
-297.66
  0
LINE
  8
0
 10
271.806
 11
272.194
 20
-297.66
 21
-297.66
  0
LINE
  8
0
 10
272.194
 11
272.579
 20
-297.66
 21
-297.698
  0
LINE
  8
0
 10
272.579
 11
272.958
 20
-297.698
 21
-297.773
  0
LINE
  8
0
 10
272.958
 11
273.329
 20
-297.773
 21
-297.886
  0
LINE
  8
0
 10
273.329
 11
273.687
 20
-297.886
 21
-298.034
  0
LINE
  8
0
 10
273.687
 11
274.028
 20
-298.034
 21
-298.216
  0
LINE
  8
0
 10
274.028
 11
274.35
 20
-298.216
 21
-298.432
  0
LINE
  8
0
 10
274.35
 11
274.649
 20
-298.432
 21
-298.677
  0
LINE
  8
0
 10
274.649
 11
274.923
 20
-298.677
 21
-298.951
  0
LINE
  8
0
 10
274.923
 11
275.168
 20
-298.951
 21
-299.25
  0
LINE
  8
0
 10
275.168
 11
275.384
 20
-299.25
 21
-299.572
  0
LINE
  8
0
 10
275.384
 11
275.566
 20
-299.572
 21
-299.913
  0
LINE
  8
0
 10
275.566
 11
275.714
 20
-299.913
 21
-300.271
  0
LINE
  8
0
 10
275.714
 11
275.827
 20
-300.271
 21
-300.642
  0
LINE
  8
0
 10
275.827
 11
275.902
 20
-300.642
 21
-301.021
  0
LINE
  8
0
 10
275.902
 11
275.94
 20
-301.021
 21
-301.406
  0
LINE
  8
0
 10
275.94
 11
275.94
 20
-301.406
 21
-301.794
  0
LINE
  8
0
 10
275.94
 11
275.902
 20
-301.794
 21
-302.179
  0
LINE
  8
0
 10
275.902
 11
275.827
 20
-302.179
 21
-302.558
  0
LINE
  8
0
 10
275.827
 11
275.714
 20
-302.558
 21
-302.929
  0
LINE
  8
0
 10
275.714
 11
275.566
 20
-302.929
 21
-303.287
  0
LINE
  8
0
 10
275.566
 11
275.384
 20
-303.287
 21
-303.628
  0
LINE
  8
0
 10
275.384
 11
275.168
 20
-303.628
 21
-303.95
  0
LINE
  8
0
 10
275.168
 11
274.923
 20
-303.95
 21
-304.249
  0
LINE
  8
0
 10
274.923
 11
274.649
 20
-304.249
 21
-304.523
  0
LINE
  8
0
 10
274.649
 11
274.35
 20
-304.523
 21
-304.768
  0
LINE
  8
0
 10
274.35
 11
274.028
 20
-304.768
 21
-304.984
  0
LINE
  8
0
 10
274.028
 11
273.687
 20
-304.984
 21
-305.166
  0
LINE
  8
0
 10
273.687
 11
273.329
 20
-305.166
 21
-305.314
  0
LINE
  8
0
 10
273.329
 11
272.958
 20
-305.314
 21
-305.427
  0
LINE
  8
0
 10
272.958
 11
272.579
 20
-305.427
 21
-305.502
  0
LINE
  8
0
 10
272.579
 11
272.194
 20
-305.502
 21
-305.54
  0
LINE
  8
0
 10
272.194
 11
271.806
 20
-305.54
 21
-305.54
  0
LINE
  8
0
 10
271.806
 11
271.421
 20
-305.54
 21
-305.502
  0
LINE
  8
0
 10
271.421
 11
271.042
 20
-305.502
 21
-305.427
  0
LINE
  8
0
 10
271.042
 11
270.671
 20
-305.427
 21
-305.314
  0
LINE
  8
0
 10
270.671
 11
270.313
 20
-305.314
 21
-305.166
  0
LINE
  8
0
 10
270.313
 11
269.972
 20
-305.166
 21
-304.984
  0
LINE
  8
0
 10
269.972
 11
269.65
 20
-304.984
 21
-304.768
  0
LINE
  8
0
 10
269.65
 11
269.351
 20
-304.768
 21
-304.523
  0
LINE
  8
0
 10
269.351
 11
269.077
 20
-304.523
 21
-304.249
  0
LINE
  8
0
 10
269.077
 11
268.832
 20
-304.249
 21
-303.95
  0
LINE
  8
0
 10
268.832
 11
268.616
 20
-303.95
 21
-303.628
  0
LINE
  8
0
 10
268.616
 11
268.434
 20
-303.628
 21
-303.287
  0
LINE
  8
0
 10
268.434
 11
268.286
 20
-303.287
 21
-302.929
  0
LINE
  8
0
 10
268.286
 11
268.173
 20
-302.929
 21
-302.558
  0
LINE
  8
0
 10
268.173
 11
268.098
 20
-302.558
 21
-302.179
  0
LINE
  8
0
 10
268.098
 11
268.06
 20
-302.179
 21
-301.794
  0
LINE
  8
0
 10
274
 11
274
 20
-67.298
 21
-66.702
  0
LINE
  8
0
 10
274
 11
274.228
 20
-66.702
 21
-66.15
  0
LINE
  8
0
 10
274.228
 11
274.65
 20
-66.15
 21
-65.728
  0
LINE
  8
0
 10
274.65
 11
275.202
 20
-65.728
 21
-65.5
  0
LINE
  8
0
 10
275.202
 11
275.798
 20
-65.5
 21
-65.5
  0
LINE
  8
0
 10
275.798
 11
276.35
 20
-65.5
 21
-65.728
  0
LINE
  8
0
 10
276.35
 11
276.772
 20
-65.728
 21
-66.15
  0
LINE
  8
0
 10
276.772
 11
277
 20
-66.15
 21
-66.702
  0
LINE
  8
0
 10
277
 11
277
 20
-66.702
 21
-67.298
  0
LINE
  8
0
 10
277
 11
276.772
 20
-67.298
 21
-67.85
  0
LINE
  8
0
 10
276.772
 11
276.35
 20
-67.85
 21
-68.272
  0
LINE
  8
0
 10
276.35
 11
275.798
 20
-68.272
 21
-68.5
  0
LINE
  8
0
 10
275.798
 11
275.202
 20
-68.5
 21
-68.5
  0
LINE
  8
0
 10
275.202
 11
274.65
 20
-68.5
 21
-68.272
  0
LINE
  8
0
 10
274.65
 11
274.228
 20
-68.272
 21
-67.85
  0
LINE
  8
0
 10
274.228
 11
274
 20
-67.85
 21
-67.298
  0
LINE
  8
0
 10
274
 11
274
 20
-36.298
 21
-35.702
  0
LINE
  8
0
 10
274
 11
274.228
 20
-35.702
 21
-35.15
  0
LINE
  8
0
 10
274.228
 11
274.65
 20
-35.15
 21
-34.728
  0
LINE
  8
0
 10
274.65
 11
275.202
 20
-34.728
 21
-34.5
  0
LINE
  8
0
 10
275.202
 11
275.798
 20
-34.5
 21
-34.5
  0
LINE
  8
0
 10
275.798
 11
276.35
 20
-34.5
 21
-34.728
  0
LINE
  8
0
 10
276.35
 11
276.772
 20
-34.728
 21
-35.15
  0
LINE
  8
0
 10
276.772
 11
277
 20
-35.15
 21
-35.702
  0
LINE
  8
0
 10
277
 11
277
 20
-35.702
 21
-36.298
  0
LINE
  8
0
 10
277
 11
276.772
 20
-36.298
 21
-36.85
  0
LINE
  8
0
 10
276.772
 11
276.35
 20
-36.85
 21
-37.272
  0
LINE
  8
0
 10
276.35
 11
275.798
 20
-37.272
 21
-37.5
  0
LINE
  8
0
 10
275.798
 11
275.202
 20
-37.5
 21
-37.5
  0
LINE
  8
0
 10
275.202
 11
274.65
 20
-37.5
 21
-37.272
  0
LINE
  8
0
 10
274.65
 11
274.228
 20
-37.272
 21
-36.85
  0
LINE
  8
0
 10
274.228
 11
274
 20
-36.85
 21
-36.298
  0
LINE
  8
0
 10
283.515
 11
283.515
 20
-306.06
 21
-298.14
  0
LINE
  8
0
 10
283.515
 11
289.485
 20
-298.14
 21
-298.14
  0
LINE
  8
0
 10
289.485
 11
289.485
 20
-298.14
 21
-306.06
  0
LINE
  8
0
 10
289.485
 11
283.515
 20
-306.06
 21
-306.06
  0
LINE
  8
0
 10
283.515
 11
283.515
 20
-278.06
 21
-270.14
  0
LINE
  8
0
 10
283.515
 11
289.485
 20
-270.14
 21
-270.14
  0
LINE
  8
0
 10
289.485
 11
289.485
 20
-270.14
 21
-278.06
  0
LINE
  8
0
 10
289.485
 11
283.515
 20
-278.06
 21
-278.06
  0
LINE
  8
0
 10
283.515
 11
283.515
 20
-189.01
 21
-181.09
  0
LINE
  8
0
 10
283.515
 11
289.485
 20
-181.09
 21
-181.09
  0
LINE
  8
0
 10
289.485
 11
289.485
 20
-181.09
 21
-189.01
  0
LINE
  8
0
 10
289.485
 11
283.515
 20
-189.01
 21
-189.01
  0
LINE
  8
0
 10
283.515
 11
283.515
 20
-161.01
 21
-153.09
  0
LINE
  8
0
 10
283.515
 11
289.485
 20
-153.09
 21
-153.09
  0
LINE
  8
0
 10
289.485
 11
289.485
 20
-153.09
 21
-161.01
  0
LINE
  8
0
 10
289.485
 11
283.515
 20
-161.01
 21
-161.01
  0
LINE
  8
0
 10
283.515
 11
283.515
 20
-71.96
 21
-64.04
  0
LINE
  8
0
 10
283.515
 11
289.485
 20
-64.04
 21
-64.04
  0
LINE
  8
0
 10
289.485
 11
289.485
 20
-64.04
 21
-71.96
  0
LINE
  8
0
 10
289.485
 11
283.515
 20
-71.96
 21
-71.96
  0
LINE
  8
0
 10
283.515
 11
283.515
 20
-43.96
 21
-36.04
  0
LINE
  8
0
 10
283.515
 11
289.485
 20
-36.04
 21
-36.04
  0
LINE
  8
0
 10
289.485
 11
289.485
 20
-36.04
 21
-43.96
  0
LINE
  8
0
 10
289.485
 11
283.515
 20
-43.96
 21
-43.96
  0
LINE
  8
0
 10
285.1
 11
285.1
 20
-288.68
 21
-287.52
  0
LINE
  8
0
 10
285.1
 11
285.92
 20
-287.52
 21
-286.7
  0
LINE
  8
0
 10
285.92
 11
287.08
 20
-286.7
 21
-286.7
  0
LINE
  8
0
 10
287.08
 11
287.9
 20
-286.7
 21
-287.52
  0
LINE
  8
0
 10
287.9
 11
287.9
 20
-287.52
 21
-288.68
  0
LINE
  8
0
 10
287.9
 11
287.08
 20
-288.68
 21
-289.5
  0
LINE
  8
0
 10
287.08
 11
285.92
 20
-289.5
 21
-289.5
  0
LINE
  8
0
 10
285.92
 11
285.1
 20
-289.5
 21
-288.68
  0
LINE
  8
0
 10
285.1
 11
285.1
 20
-171.63
 21
-170.47
  0
LINE
  8
0
 10
285.1
 11
285.92
 20
-170.47
 21
-169.65
  0
LINE
  8
0
 10
285.92
 11
287.08
 20
-169.65
 21
-169.65
  0
LINE
  8
0
 10
287.08
 11
287.9
 20
-169.65
 21
-170.47
  0
LINE
  8
0
 10
287.9
 11
287.9
 20
-170.47
 21
-171.63
  0
LINE
  8
0
 10
287.9
 11
287.08
 20
-171.63
 21
-172.45
  0
LINE
  8
0
 10
287.08
 11
285.92
 20
-172.45
 21
-172.45
  0
LINE
  8
0
 10
285.92
 11
285.1
 20
-172.45
 21
-171.63
  0
LINE
  8
0
 10
285.1
 11
285.1
 20
-54.58
 21
-53.42
  0
LINE
  8
0
 10
285.1
 11
285.92
 20
-53.42
 21
-52.6
  0
LINE
  8
0
 10
285.92
 11
287.08
 20
-52.6
 21
-52.6
  0
LINE
  8
0
 10
287.08
 11
287.9
 20
-52.6
 21
-53.42
  0
LINE
  8
0
 10
287.9
 11
287.9
 20
-53.42
 21
-54.58
  0
LINE
  8
0
 10
287.9
 11
287.08
 20
-54.58
 21
-55.4
  0
LINE
  8
0
 10
287.08
 11
285.92
 20
-55.4
 21
-55.4
  0
LINE
  8
0
 10
285.92
 11
285.1
 20
-55.4
 21
-54.58
  0
ENDSEC
  0
SECTION
  2
OBJECTS
  0
DICTIONARY
  0
ENDSEC
  0
EOF
