  0
SECTION
  2
BLOCKS
  0
ENDSEC
  0
SECTION
  2
ENTITIES
  0
LINE
  8
0
 10
-301.6
 11
-301.6
 20
245.5
 21
458.5
  0
LINE
  8
0
 10
-301.6
 11
-283.09
 20
458.5
 21
458.5
  0
LINE
  8
0
 10
-283.09
 11
-283.09
 20
458.5
 21
465.025
  0
LINE
  8
0
 10
-283.09
 11
-275.11
 20
465.025
 21
465.025
  0
LINE
  8
0
 10
-275.11
 11
-275.11
 20
465.025
 21
458.5
  0
LINE
  8
0
 10
-275.11
 11
-266.49
 20
458.5
 21
458.5
  0
LINE
  8
0
 10
-266.49
 11
-266.49
 20
458.5
 21
454.27
  0
LINE
  8
0
 10
-266.49
 11
-267.84
 20
454.27
 21
454.27
  0
LINE
  8
0
 10
-267.84
 11
-267.84
 20
454.27
 21
452.28
  0
LINE
  8
0
 10
-267.84
 11
-266.49
 20
452.28
 21
452.28
  0
LINE
  8
0
 10
-266.49
 11
-266.49
 20
452.28
 21
450.05
  0
LINE
  8
0
 10
-266.49
 11
-263.71
 20
450.05
 21
450.05
  0
LINE
  8
0
 10
-263.71
 11
-263.71
 20
450.05
 21
452.28
  0
LINE
  8
0
 10
-263.71
 11
-262.36
 20
452.28
 21
452.28
  0
LINE
  8
0
 10
-262.36
 11
-262.36
 20
452.28
 21
454.27
  0
LINE
  8
0
 10
-262.36
 11
-263.71
 20
454.27
 21
454.27
  0
LINE
  8
0
 10
-263.71
 11
-263.71
 20
454.27
 21
458.5
  0
LINE
  8
0
 10
-263.71
 11
-255.09
 20
458.5
 21
458.5
  0
LINE
  8
0
 10
-255.09
 11
-255.09
 20
458.5
 21
465.025
  0
LINE
  8
0
 10
-255.09
 11
-247.11
 20
465.025
 21
465.025
  0
LINE
  8
0
 10
-247.11
 11
-247.11
 20
465.025
 21
458.5
  0
LINE
  8
0
 10
-247.11
 11
-164.04
 20
458.5
 21
458.5
  0
LINE
  8
0
 10
-164.04
 11
-164.04
 20
458.5
 21
465.025
  0
LINE
  8
0
 10
-164.04
 11
-156.06
 20
465.025
 21
465.025
  0
LINE
  8
0
 10
-156.06
 11
-156.06
 20
465.025
 21
458.5
  0
LINE
  8
0
 10
-156.06
 11
-147.44
 20
458.5
 21
458.5
  0
LINE
  8
0
 10
-147.44
 11
-147.44
 20
458.5
 21
454.27
  0
LINE
  8
0
 10
-147.44
 11
-148.79
 20
454.27
 21
454.27
  0
LINE
  8
0
 10
-148.79
 11
-148.79
 20
454.27
 21
452.28
  0
LINE
  8
0
 10
-148.79
 11
-147.44
 20
452.28
 21
452.28
  0
LINE
  8
0
 10
-147.44
 11
-147.44
 20
452.28
 21
450.05
  0
LINE
  8
0
 10
-147.44
 11
-144.66
 20
450.05
 21
450.05
  0
LINE
  8
0
 10
-144.66
 11
-144.66
 20
450.05
 21
452.28
  0
LINE
  8
0
 10
-144.66
 11
-143.31
 20
452.28
 21
452.28
  0
LINE
  8
0
 10
-143.31
 11
-143.31
 20
452.28
 21
454.27
  0
LINE
  8
0
 10
-143.31
 11
-144.66
 20
454.27
 21
454.27
  0
LINE
  8
0
 10
-144.66
 11
-144.66
 20
454.27
 21
458.5
  0
LINE
  8
0
 10
-144.66
 11
-136.04
 20
458.5
 21
458.5
  0
LINE
  8
0
 10
-136.04
 11
-136.04
 20
458.5
 21
465.025
  0
LINE
  8
0
 10
-136.04
 11
-128.06
 20
465.025
 21
465.025
  0
LINE
  8
0
 10
-128.06
 11
-128.06
 20
465.025
 21
458.5
  0
LINE
  8
0
 10
-128.06
 11
-44.99
 20
458.5
 21
458.5
  0
LINE
  8
0
 10
-44.99
 11
-44.99
 20
458.5
 21
465.025
  0
LINE
  8
0
 10
-44.99
 11
-37.01
 20
465.025
 21
465.025
  0
LINE
  8
0
 10
-37.01
 11
-37.01
 20
465.025
 21
458.5
  0
LINE
  8
0
 10
-37.01
 11
-28.39
 20
458.5
 21
458.5
  0
LINE
  8
0
 10
-28.39
 11
-28.39
 20
458.5
 21
454.27
  0
LINE
  8
0
 10
-28.39
 11
-29.74
 20
454.27
 21
454.27
  0
LINE
  8
0
 10
-29.74
 11
-29.74
 20
454.27
 21
452.28
  0
LINE
  8
0
 10
-29.74
 11
-28.39
 20
452.28
 21
452.28
  0
LINE
  8
0
 10
-28.39
 11
-28.39
 20
452.28
 21
450.05
  0
LINE
  8
0
 10
-28.39
 11
-25.61
 20
450.05
 21
450.05
  0
LINE
  8
0
 10
-25.61
 11
-25.61
 20
450.05
 21
452.28
  0
LINE
  8
0
 10
-25.61
 11
-24.26
 20
452.28
 21
452.28
  0
LINE
  8
0
 10
-24.26
 11
-24.26
 20
452.28
 21
454.27
  0
LINE
  8
0
 10
-24.26
 11
-25.61
 20
454.27
 21
454.27
  0
LINE
  8
0
 10
-25.61
 11
-25.61
 20
454.27
 21
458.5
  0
LINE
  8
0
 10
-25.61
 11
-16.99
 20
458.5
 21
458.5
  0
LINE
  8
0
 10
-16.99
 11
-16.99
 20
458.5
 21
465.025
  0
LINE
  8
0
 10
-16.99
 11
-9.01
 20
465.025
 21
465.025
  0
LINE
  8
0
 10
-9.01
 11
-9.01
 20
465.025
 21
458.5
  0
LINE
  8
0
 10
-9.01
 11
-1
 20
458.5
 21
458.5
  0
LINE
  8
0
 10
-1
 11
-1
 20
458.5
 21
245.5
  0
LINE
  8
0
 10
-1
 11
-9.01
 20
245.5
 21
245.5
  0
LINE
  8
0
 10
-9.01
 11
-9.01
 20
245.5
 21
238.975
  0
LINE
  8
0
 10
-9.01
 11
-16.99
 20
238.975
 21
238.975
  0
LINE
  8
0
 10
-16.99
 11
-16.99
 20
238.975
 21
245.5
  0
LINE
  8
0
 10
-16.99
 11
-25.61
 20
245.5
 21
245.5
  0
LINE
  8
0
 10
-25.61
 11
-25.61
 20
245.5
 21
249.73
  0
LINE
  8
0
 10
-25.61
 11
-24.26
 20
249.73
 21
249.73
  0
LINE
  8
0
 10
-24.26
 11
-24.26
 20
249.73
 21
251.72
  0
LINE
  8
0
 10
-24.26
 11
-25.61
 20
251.72
 21
251.72
  0
LINE
  8
0
 10
-25.61
 11
-25.61
 20
251.72
 21
253.95
  0
LINE
  8
0
 10
-25.61
 11
-28.39
 20
253.95
 21
253.95
  0
LINE
  8
0
 10
-28.39
 11
-28.39
 20
253.95
 21
251.72
  0
LINE
  8
0
 10
-28.39
 11
-29.74
 20
251.72
 21
251.72
  0
LINE
  8
0
 10
-29.74
 11
-29.74
 20
251.72
 21
249.73
  0
LINE
  8
0
 10
-29.74
 11
-28.39
 20
249.73
 21
249.73
  0
LINE
  8
0
 10
-28.39
 11
-28.39
 20
249.73
 21
245.5
  0
LINE
  8
0
 10
-28.39
 11
-37.01
 20
245.5
 21
245.5
  0
LINE
  8
0
 10
-37.01
 11
-37.01
 20
245.5
 21
238.975
  0
LINE
  8
0
 10
-37.01
 11
-44.99
 20
238.975
 21
238.975
  0
LINE
  8
0
 10
-44.99
 11
-44.99
 20
238.975
 21
245.5
  0
LINE
  8
0
 10
-44.99
 11
-128.06
 20
245.5
 21
245.5
  0
LINE
  8
0
 10
-128.06
 11
-128.06
 20
245.5
 21
238.975
  0
LINE
  8
0
 10
-128.06
 11
-136.04
 20
238.975
 21
238.975
  0
LINE
  8
0
 10
-136.04
 11
-136.04
 20
238.975
 21
245.5
  0
LINE
  8
0
 10
-136.04
 11
-144.66
 20
245.5
 21
245.5
  0
LINE
  8
0
 10
-144.66
 11
-144.66
 20
245.5
 21
249.73
  0
LINE
  8
0
 10
-144.66
 11
-143.31
 20
249.73
 21
249.73
  0
LINE
  8
0
 10
-143.31
 11
-143.31
 20
249.73
 21
251.72
  0
LINE
  8
0
 10
-143.31
 11
-144.66
 20
251.72
 21
251.72
  0
LINE
  8
0
 10
-144.66
 11
-144.66
 20
251.72
 21
253.95
  0
LINE
  8
0
 10
-144.66
 11
-147.44
 20
253.95
 21
253.95
  0
LINE
  8
0
 10
-147.44
 11
-147.44
 20
253.95
 21
251.72
  0
LINE
  8
0
 10
-147.44
 11
-148.79
 20
251.72
 21
251.72
  0
LINE
  8
0
 10
-148.79
 11
-148.79
 20
251.72
 21
249.73
  0
LINE
  8
0
 10
-148.79
 11
-147.44
 20
249.73
 21
249.73
  0
LINE
  8
0
 10
-147.44
 11
-147.44
 20
249.73
 21
245.5
  0
LINE
  8
0
 10
-147.44
 11
-156.06
 20
245.5
 21
245.5
  0
LINE
  8
0
 10
-156.06
 11
-156.06
 20
245.5
 21
238.975
  0
LINE
  8
0
 10
-156.06
 11
-164.04
 20
238.975
 21
238.975
  0
LINE
  8
0
 10
-164.04
 11
-164.04
 20
238.975
 21
245.5
  0
LINE
  8
0
 10
-164.04
 11
-247.11
 20
245.5
 21
245.5
  0
LINE
  8
0
 10
-247.11
 11
-247.11
 20
245.5
 21
238.975
  0
LINE
  8
0
 10
-247.11
 11
-255.09
 20
238.975
 21
238.975
  0
LINE
  8
0
 10
-255.09
 11
-255.09
 20
238.975
 21
245.5
  0
LINE
  8
0
 10
-255.09
 11
-263.71
 20
245.5
 21
245.5
  0
LINE
  8
0
 10
-263.71
 11
-263.71
 20
245.5
 21
249.73
  0
LINE
  8
0
 10
-263.71
 11
-262.36
 20
249.73
 21
249.73
  0
LINE
  8
0
 10
-262.36
 11
-262.36
 20
249.73
 21
251.72
  0
LINE
  8
0
 10
-262.36
 11
-263.71
 20
251.72
 21
251.72
  0
LINE
  8
0
 10
-263.71
 11
-263.71
 20
251.72
 21
253.95
  0
LINE
  8
0
 10
-263.71
 11
-266.49
 20
253.95
 21
253.95
  0
LINE
  8
0
 10
-266.49
 11
-266.49
 20
253.95
 21
251.72
  0
LINE
  8
0
 10
-266.49
 11
-267.84
 20
251.72
 21
251.72
  0
LINE
  8
0
 10
-267.84
 11
-267.84
 20
251.72
 21
249.73
  0
LINE
  8
0
 10
-267.84
 11
-266.49
 20
249.73
 21
249.73
  0
LINE
  8
0
 10
-266.49
 11
-266.49
 20
249.73
 21
245.5
  0
LINE
  8
0
 10
-266.49
 11
-275.11
 20
245.5
 21
245.5
  0
LINE
  8
0
 10
-275.11
 11
-275.11
 20
245.5
 21
238.975
  0
LINE
  8
0
 10
-275.11
 11
-283.09
 20
238.975
 21
238.975
  0
LINE
  8
0
 10
-283.09
 11
-283.09
 20
238.975
 21
245.5
  0
LINE
  8
0
 10
-283.09
 11
-301.6
 20
245.5
 21
245.5
  0
LINE
  8
0
 10
-301.5
 11
-301.5
 20
-318.1
 21
-17.5
  0
LINE
  8
0
 10
-301.5
 11
-0.5
 20
-17.5
 21
-17.5
  0
LINE
  8
0
 10
-0.5
 11
-0.5
 20
-17.5
 21
-318.1
  0
LINE
  8
0
 10
-0.5
 11
-62.625
 20
-318.1
 21
-318.1
  0
LINE
  8
0
 10
-62.625
 11
-62.625
 20
-318.1
 21
-256
  0
LINE
  8
0
 10
-62.625
 11
-82
 20
-256
 21
-144.04
  0
LINE
  8
0
 10
-82
 11
-220
 20
-144.04
 21
-144.04
  0
LINE
  8
0
 10
-220
 11
-239.375
 20
-144.04
 21
-256
  0
LINE
  8
0
 10
-239.375
 11
-239.375
 20
-256
 21
-318.1
  0
LINE
  8
0
 10
-239.375
 11
-301.5
 20
-318.1
 21
-318.1
  0
LINE
  8
0
 10
-297.625
 11
-297.625
 20
253.51
 21
261.49
  0
LINE
  8
0
 10
-297.625
 11
-291.075
 20
261.49
 21
261.49
  0
LINE
  8
0
 10
-291.075
 11
-291.075
 20
261.49
 21
253.51
  0
LINE
  8
0
 10
-291.075
 11
-297.625
 20
253.51
 21
253.51
  0
LINE
  8
0
 10
-297.625
 11
-297.625
 20
281.51
 21
289.49
  0
LINE
  8
0
 10
-297.625
 11
-291.075
 20
289.49
 21
289.49
  0
LINE
  8
0
 10
-291.075
 11
-291.075
 20
289.49
 21
281.51
  0
LINE
  8
0
 10
-291.075
 11
-297.625
 20
281.51
 21
281.51
  0
LINE
  8
0
 10
-297.625
 11
-297.625
 20
414.51
 21
422.49
  0
LINE
  8
0
 10
-297.625
 11
-291.075
 20
422.49
 21
422.49
  0
LINE
  8
0
 10
-291.075
 11
-291.075
 20
422.49
 21
414.51
  0
LINE
  8
0
 10
-291.075
 11
-297.625
 20
414.51
 21
414.51
  0
LINE
  8
0
 10
-297.625
 11
-297.625
 20
442.51
 21
450.49
  0
LINE
  8
0
 10
-297.625
 11
-291.075
 20
450.49
 21
450.49
  0
LINE
  8
0
 10
-291.075
 11
-291.075
 20
450.49
 21
442.51
  0
LINE
  8
0
 10
-291.075
 11
-297.625
 20
442.51
 21
442.51
  0
LINE
  8
0
 10
-297.525
 11
-297.525
 20
-310.09
 21
-302.11
  0
LINE
  8
0
 10
-297.525
 11
-290.975
 20
-302.11
 21
-302.11
  0
LINE
  8
0
 10
-290.975
 11
-290.975
 20
-302.11
 21
-310.09
  0
LINE
  8
0
 10
-290.975
 11
-297.525
 20
-310.09
 21
-310.09
  0
LINE
  8
0
 10
-297.525
 11
-297.525
 20
-282.09
 21
-274.11
  0
LINE
  8
0
 10
-297.525
 11
-290.975
 20
-274.11
 21
-274.11
  0
LINE
  8
0
 10
-290.975
 11
-290.975
 20
-274.11
 21
-282.09
  0
LINE
  8
0
 10
-290.975
 11
-297.525
 20
-282.09
 21
-282.09
  0
LINE
  8
0
 10
-297.525
 11
-297.525
 20
-191.04
 21
-183.06
  0
LINE
  8
0
 10
-297.525
 11
-290.975
 20
-183.06
 21
-183.06
  0
LINE
  8
0
 10
-290.975
 11
-290.975
 20
-183.06
 21
-191.04
  0
LINE
  8
0
 10
-290.975
 11
-297.525
 20
-191.04
 21
-191.04
  0
LINE
  8
0
 10
-297.525
 11
-297.525
 20
-163.04
 21
-155.06
  0
LINE
  8
0
 10
-297.525
 11
-290.975
 20
-155.06
 21
-155.06
  0
LINE
  8
0
 10
-290.975
 11
-290.975
 20
-155.06
 21
-163.04
  0
LINE
  8
0
 10
-290.975
 11
-297.525
 20
-163.04
 21
-163.04
  0
LINE
  8
0
 10
-297.525
 11
-297.525
 20
-71.99
 21
-64.01
  0
LINE
  8
0
 10
-297.525
 11
-290.975
 20
-64.01
 21
-64.01
  0
LINE
  8
0
 10
-290.975
 11
-290.975
 20
-64.01
 21
-71.99
  0
LINE
  8
0
 10
-290.975
 11
-297.525
 20
-71.99
 21
-71.99
  0
LINE
  8
0
 10
-297.525
 11
-297.525
 20
-43.99
 21
-36.01
  0
LINE
  8
0
 10
-297.525
 11
-290.975
 20
-36.01
 21
-36.01
  0
LINE
  8
0
 10
-290.975
 11
-290.975
 20
-36.01
 21
-43.99
  0
LINE
  8
0
 10
-290.975
 11
-297.525
 20
-43.99
 21
-43.99
  0
LINE
  8
0
 10
-295.75
 11
-295.75
 20
270.92
 21
272.08
  0
LINE
  8
0
 10
-295.75
 11
-294.93
 20
272.08
 21
272.9
  0
LINE
  8
0
 10
-294.93
 11
-293.77
 20
272.9
 21
272.9
  0
LINE
  8
0
 10
-293.77
 11
-292.95
 20
272.9
 21
272.08
  0
LINE
  8
0
 10
-292.95
 11
-292.95
 20
272.08
 21
270.92
  0
LINE
  8
0
 10
-292.95
 11
-293.77
 20
270.92
 21
270.1
  0
LINE
  8
0
 10
-293.77
 11
-294.93
 20
270.1
 21
270.1
  0
LINE
  8
0
 10
-294.93
 11
-295.75
 20
270.1
 21
270.92
  0
LINE
  8
0
 10
-295.75
 11
-295.75
 20
431.92
 21
433.08
  0
LINE
  8
0
 10
-295.75
 11
-294.93
 20
433.08
 21
433.9
  0
LINE
  8
0
 10
-294.93
 11
-293.77
 20
433.9
 21
433.9
  0
LINE
  8
0
 10
-293.77
 11
-292.95
 20
433.9
 21
433.08
  0
LINE
  8
0
 10
-292.95
 11
-292.95
 20
433.08
 21
431.92
  0
LINE
  8
0
 10
-292.95
 11
-293.77
 20
431.92
 21
431.1
  0
LINE
  8
0
 10
-293.77
 11
-294.93
 20
431.1
 21
431.1
  0
LINE
  8
0
 10
-294.93
 11
-295.75
 20
431.1
 21
431.92
  0
LINE
  8
0
 10
-295.65
 11
-295.65
 20
-292.68
 21
-291.52
  0
LINE
  8
0
 10
-295.65
 11
-294.83
 20
-291.52
 21
-290.7
  0
LINE
  8
0
 10
-294.83
 11
-293.67
 20
-290.7
 21
-290.7
  0
LINE
  8
0
 10
-293.67
 11
-292.85
 20
-290.7
 21
-291.52
  0
LINE
  8
0
 10
-292.85
 11
-292.85
 20
-291.52
 21
-292.68
  0
LINE
  8
0
 10
-292.85
 11
-293.67
 20
-292.68
 21
-293.5
  0
LINE
  8
0
 10
-293.67
 11
-294.83
 20
-293.5
 21
-293.5
  0
LINE
  8
0
 10
-294.83
 11
-295.65
 20
-293.5
 21
-292.68
  0
LINE
  8
0
 10
-295.65
 11
-295.65
 20
-173.63
 21
-172.47
  0
LINE
  8
0
 10
-295.65
 11
-294.83
 20
-172.47
 21
-171.65
  0
LINE
  8
0
 10
-294.83
 11
-293.67
 20
-171.65
 21
-171.65
  0
LINE
  8
0
 10
-293.67
 11
-292.85
 20
-171.65
 21
-172.47
  0
LINE
  8
0
 10
-292.85
 11
-292.85
 20
-172.47
 21
-173.63
  0
LINE
  8
0
 10
-292.85
 11
-293.67
 20
-173.63
 21
-174.45
  0
LINE
  8
0
 10
-293.67
 11
-294.83
 20
-174.45
 21
-174.45
  0
LINE
  8
0
 10
-294.83
 11
-295.65
 20
-174.45
 21
-173.63
  0
LINE
  8
0
 10
-295.65
 11
-295.65
 20
-54.58
 21
-53.42
  0
LINE
  8
0
 10
-295.65
 11
-294.83
 20
-53.42
 21
-52.6
  0
LINE
  8
0
 10
-294.83
 11
-293.67
 20
-52.6
 21
-52.6
  0
LINE
  8
0
 10
-293.67
 11
-292.85
 20
-52.6
 21
-53.42
  0
LINE
  8
0
 10
-292.85
 11
-292.85
 20
-53.42
 21
-54.58
  0
LINE
  8
0
 10
-292.85
 11
-293.67
 20
-54.58
 21
-55.4
  0
LINE
  8
0
 10
-293.67
 11
-294.83
 20
-55.4
 21
-55.4
  0
LINE
  8
0
 10
-294.83
 11
-295.65
 20
-55.4
 21
-54.58
  0
LINE
  8
0
 10
-293.525
 11
-293.525
 20
26.51
 21
34.49
  0
LINE
  8
0
 10
-293.525
 11
-287
 20
34.49
 21
34.49
  0
LINE
  8
0
 10
-287
 11
-287
 20
34.49
 21
43.11
  0
LINE
  8
0
 10
-287
 11
-282.77
 20
43.11
 21
43.11
  0
LINE
  8
0
 10
-282.77
 11
-282.77
 20
43.11
 21
41.76
  0
LINE
  8
0
 10
-282.77
 11
-280.78
 20
41.76
 21
41.76
  0
LINE
  8
0
 10
-280.78
 11
-280.78
 20
41.76
 21
43.11
  0
LINE
  8
0
 10
-280.78
 11
-278.55
 20
43.11
 21
43.11
  0
LINE
  8
0
 10
-278.55
 11
-278.55
 20
43.11
 21
45.89
  0
LINE
  8
0
 10
-278.55
 11
-280.78
 20
45.89
 21
45.89
  0
LINE
  8
0
 10
-280.78
 11
-280.78
 20
45.89
 21
47.24
  0
LINE
  8
0
 10
-280.78
 11
-282.77
 20
47.24
 21
47.24
  0
LINE
  8
0
 10
-282.77
 11
-282.77
 20
47.24
 21
45.89
  0
LINE
  8
0
 10
-282.77
 11
-287
 20
45.89
 21
45.89
  0
LINE
  8
0
 10
-287
 11
-287
 20
45.89
 21
54.51
  0
LINE
  8
0
 10
-287
 11
-293.525
 20
54.51
 21
54.51
  0
LINE
  8
0
 10
-293.525
 11
-293.525
 20
54.51
 21
62.49
  0
LINE
  8
0
 10
-293.525
 11
-287
 20
62.49
 21
62.49
  0
LINE
  8
0
 10
-287
 11
-287
 20
62.49
 21
187.51
  0
LINE
  8
0
 10
-287
 11
-293.525
 20
187.51
 21
187.51
  0
LINE
  8
0
 10
-293.525
 11
-293.525
 20
187.51
 21
195.49
  0
LINE
  8
0
 10
-293.525
 11
-287
 20
195.49
 21
195.49
  0
LINE
  8
0
 10
-287
 11
-287
 20
195.49
 21
204.11
  0
LINE
  8
0
 10
-287
 11
-282.77
 20
204.11
 21
204.11
  0
LINE
  8
0
 10
-282.77
 11
-282.77
 20
204.11
 21
202.76
  0
LINE
  8
0
 10
-282.77
 11
-280.78
 20
202.76
 21
202.76
  0
LINE
  8
0
 10
-280.78
 11
-280.78
 20
202.76
 21
204.11
  0
LINE
  8
0
 10
-280.78
 11
-278.55
 20
204.11
 21
204.11
  0
LINE
  8
0
 10
-278.55
 11
-278.55
 20
204.11
 21
206.89
  0
LINE
  8
0
 10
-278.55
 11
-280.78
 20
206.89
 21
206.89
  0
LINE
  8
0
 10
-280.78
 11
-280.78
 20
206.89
 21
208.24
  0
LINE
  8
0
 10
-280.78
 11
-282.77
 20
208.24
 21
208.24
  0
LINE
  8
0
 10
-282.77
 11
-282.77
 20
208.24
 21
206.89
  0
LINE
  8
0
 10
-282.77
 11
-287
 20
206.89
 21
206.89
  0
LINE
  8
0
 10
-287
 11
-287
 20
206.89
 21
215.51
  0
LINE
  8
0
 10
-287
 11
-293.525
 20
215.51
 21
215.51
  0
LINE
  8
0
 10
-293.525
 11
-293.525
 20
215.51
 21
223.49
  0
LINE
  8
0
 10
-293.525
 11
-287
 20
223.49
 21
223.49
  0
LINE
  8
0
 10
-287
 11
-287
 20
223.49
 21
231.5
  0
LINE
  8
0
 10
-287
 11
-278.99
 20
231.5
 21
231.5
  0
LINE
  8
0
 10
-278.99
 11
-278.99
 20
231.5
 21
238.025
  0
LINE
  8
0
 10
-278.99
 11
-271.01
 20
238.025
 21
238.025
  0
LINE
  8
0
 10
-271.01
 11
-271.01
 20
238.025
 21
231.5
  0
LINE
  8
0
 10
-271.01
 11
-262.39
 20
231.5
 21
231.5
  0
LINE
  8
0
 10
-262.39
 11
-262.39
 20
231.5
 21
227.27
  0
LINE
  8
0
 10
-262.39
 11
-263.74
 20
227.27
 21
227.27
  0
LINE
  8
0
 10
-263.74
 11
-263.74
 20
227.27
 21
225.28
  0
LINE
  8
0
 10
-263.74
 11
-262.39
 20
225.28
 21
225.28
  0
LINE
  8
0
 10
-262.39
 11
-262.39
 20
225.28
 21
223.05
  0
LINE
  8
0
 10
-262.39
 11
-259.61
 20
223.05
 21
223.05
  0
LINE
  8
0
 10
-259.61
 11
-259.61
 20
223.05
 21
225.28
  0
LINE
  8
0
 10
-259.61
 11
-258.26
 20
225.28
 21
225.28
  0
LINE
  8
0
 10
-258.26
 11
-258.26
 20
225.28
 21
227.27
  0
LINE
  8
0
 10
-258.26
 11
-259.61
 20
227.27
 21
227.27
  0
LINE
  8
0
 10
-259.61
 11
-259.61
 20
227.27
 21
231.5
  0
LINE
  8
0
 10
-259.61
 11
-250.99
 20
231.5
 21
231.5
  0
LINE
  8
0
 10
-250.99
 11
-250.99
 20
231.5
 21
238.025
  0
LINE
  8
0
 10
-250.99
 11
-243.01
 20
238.025
 21
238.025
  0
LINE
  8
0
 10
-243.01
 11
-243.01
 20
238.025
 21
231.5
  0
LINE
  8
0
 10
-243.01
 11
-164.99
 20
231.5
 21
231.5
  0
LINE
  8
0
 10
-164.99
 11
-164.99
 20
231.5
 21
238.025
  0
LINE
  8
0
 10
-164.99
 11
-157.01
 20
238.025
 21
238.025
  0
LINE
  8
0
 10
-157.01
 11
-157.01
 20
238.025
 21
231.5
  0
LINE
  8
0
 10
-157.01
 11
-148.39
 20
231.5
 21
231.5
  0
LINE
  8
0
 10
-148.39
 11
-148.39
 20
231.5
 21
227.27
  0
LINE
  8
0
 10
-148.39
 11
-149.74
 20
227.27
 21
227.27
  0
LINE
  8
0
 10
-149.74
 11
-149.74
 20
227.27
 21
225.28
  0
LINE
  8
0
 10
-149.74
 11
-148.39
 20
225.28
 21
225.28
  0
LINE
  8
0
 10
-148.39
 11
-148.39
 20
225.28
 21
223.05
  0
LINE
  8
0
 10
-148.39
 11
-145.61
 20
223.05
 21
223.05
  0
LINE
  8
0
 10
-145.61
 11
-145.61
 20
223.05
 21
225.28
  0
LINE
  8
0
 10
-145.61
 11
-144.26
 20
225.28
 21
225.28
  0
LINE
  8
0
 10
-144.26
 11
-144.26
 20
225.28
 21
227.27
  0
LINE
  8
0
 10
-144.26
 11
-145.61
 20
227.27
 21
227.27
  0
LINE
  8
0
 10
-145.61
 11
-145.61
 20
227.27
 21
231.5
  0
LINE
  8
0
 10
-145.61
 11
-136.99
 20
231.5
 21
231.5
  0
LINE
  8
0
 10
-136.99
 11
-136.99
 20
231.5
 21
238.025
  0
LINE
  8
0
 10
-136.99
 11
-129.01
 20
238.025
 21
238.025
  0
LINE
  8
0
 10
-129.01
 11
-129.01
 20
238.025
 21
231.5
  0
LINE
  8
0
 10
-129.01
 11
-50.99
 20
231.5
 21
231.5
  0
LINE
  8
0
 10
-50.99
 11
-50.99
 20
231.5
 21
238.025
  0
LINE
  8
0
 10
-50.99
 11
-43.01
 20
238.025
 21
238.025
  0
LINE
  8
0
 10
-43.01
 11
-43.01
 20
238.025
 21
231.5
  0
LINE
  8
0
 10
-43.01
 11
-34.39
 20
231.5
 21
231.5
  0
LINE
  8
0
 10
-34.39
 11
-34.39
 20
231.5
 21
227.27
  0
LINE
  8
0
 10
-34.39
 11
-35.74
 20
227.27
 21
227.27
  0
LINE
  8
0
 10
-35.74
 11
-35.74
 20
227.27
 21
225.28
  0
LINE
  8
0
 10
-35.74
 11
-34.39
 20
225.28
 21
225.28
  0
LINE
  8
0
 10
-34.39
 11
-34.39
 20
225.28
 21
223.05
  0
LINE
  8
0
 10
-34.39
 11
-31.61
 20
223.05
 21
223.05
  0
LINE
  8
0
 10
-31.61
 11
-31.61
 20
223.05
 21
225.28
  0
LINE
  8
0
 10
-31.61
 11
-30.26
 20
225.28
 21
225.28
  0
LINE
  8
0
 10
-30.26
 11
-30.26
 20
225.28
 21
227.27
  0
LINE
  8
0
 10
-30.26
 11
-31.61
 20
227.27
 21
227.27
  0
LINE
  8
0
 10
-31.61
 11
-31.61
 20
227.27
 21
231.5
  0
LINE
  8
0
 10
-31.61
 11
-22.99
 20
231.5
 21
231.5
  0
LINE
  8
0
 10
-22.99
 11
-22.99
 20
231.5
 21
238.025
  0
LINE
  8
0
 10
-22.99
 11
-15.01
 20
238.025
 21
238.025
  0
LINE
  8
0
 10
-15.01
 11
-15.01
 20
238.025
 21
231.5
  0
LINE
  8
0
 10
-15.01
 11
-7
 20
231.5
 21
231.5
  0
LINE
  8
0
 10
-7
 11
-7
 20
231.5
 21
223.49
  0
LINE
  8
0
 10
-7
 11
-0.475
 20
223.49
 21
223.49
  0
LINE
  8
0
 10
-0.475
 11
-0.475
 20
223.49
 21
215.51
  0
LINE
  8
0
 10
-0.475
 11
-7
 20
215.51
 21
215.51
  0
LINE
  8
0
 10
-7
 11
-7
 20
215.51
 21
206.89
  0
LINE
  8
0
 10
-7
 11
-11.23
 20
206.89
 21
206.89
  0
LINE
  8
0
 10
-11.23
 11
-11.23
 20
206.89
 21
208.24
  0
LINE
  8
0
 10
-11.23
 11
-13.22
 20
208.24
 21
208.24
  0
LINE
  8
0
 10
-13.22
 11
-13.22
 20
208.24
 21
206.89
  0
LINE
  8
0
 10
-13.22
 11
-15.45
 20
206.89
 21
206.89
  0
LINE
  8
0
 10
-15.45
 11
-15.45
 20
206.89
 21
204.11
  0
LINE
  8
0
 10
-15.45
 11
-13.22
 20
204.11
 21
204.11
  0
LINE
  8
0
 10
-13.22
 11
-13.22
 20
204.11
 21
202.76
  0
LINE
  8
0
 10
-13.22
 11
-11.23
 20
202.76
 21
202.76
  0
LINE
  8
0
 10
-11.23
 11
-11.23
 20
202.76
 21
204.11
  0
LINE
  8
0
 10
-11.23
 11
-7
 20
204.11
 21
204.11
  0
LINE
  8
0
 10
-7
 11
-7
 20
204.11
 21
195.49
  0
LINE
  8
0
 10
-7
 11
-0.475
 20
195.49
 21
195.49
  0
LINE
  8
0
 10
-0.475
 11
-0.475
 20
195.49
 21
187.51
  0
LINE
  8
0
 10
-0.475
 11
-7
 20
187.51
 21
187.51
  0
LINE
  8
0
 10
-7
 11
-7
 20
187.51
 21
62.49
  0
LINE
  8
0
 10
-7
 11
-0.475
 20
62.49
 21
62.49
  0
LINE
  8
0
 10
-0.475
 11
-0.475
 20
62.49
 21
54.51
  0
LINE
  8
0
 10
-0.475
 11
-7
 20
54.51
 21
54.51
  0
LINE
  8
0
 10
-7
 11
-7
 20
54.51
 21
45.89
  0
LINE
  8
0
 10
-7
 11
-11.23
 20
45.89
 21
45.89
  0
LINE
  8
0
 10
-11.23
 11
-11.23
 20
45.89
 21
47.24
  0
LINE
  8
0
 10
-11.23
 11
-13.22
 20
47.24
 21
47.24
  0
LINE
  8
0
 10
-13.22
 11
-13.22
 20
47.24
 21
45.89
  0
LINE
  8
0
 10
-13.22
 11
-15.45
 20
45.89
 21
45.89
  0
LINE
  8
0
 10
-15.45
 11
-15.45
 20
45.89
 21
43.11
  0
LINE
  8
0
 10
-15.45
 11
-13.22
 20
43.11
 21
43.11
  0
LINE
  8
0
 10
-13.22
 11
-13.22
 20
43.11
 21
41.76
  0
LINE
  8
0
 10
-13.22
 11
-11.23
 20
41.76
 21
41.76
  0
LINE
  8
0
 10
-11.23
 11
-11.23
 20
41.76
 21
43.11
  0
LINE
  8
0
 10
-11.23
 11
-7
 20
43.11
 21
43.11
  0
LINE
  8
0
 10
-7
 11
-7
 20
43.11
 21
34.49
  0
LINE
  8
0
 10
-7
 11
-0.475
 20
34.49
 21
34.49
  0
LINE
  8
0
 10
-0.475
 11
-0.475
 20
34.49
 21
26.51
  0
LINE
  8
0
 10
-0.475
 11
-7
 20
26.51
 21
26.51
  0
LINE
  8
0
 10
-7
 11
-7
 20
26.51
 21
18.5
  0
LINE
  8
0
 10
-7
 11
-15.01
 20
18.5
 21
18.5
  0
LINE
  8
0
 10
-15.01
 11
-15.01
 20
18.5
 21
11.975
  0
LINE
  8
0
 10
-15.01
 11
-22.99
 20
11.975
 21
11.975
  0
LINE
  8
0
 10
-22.99
 11
-22.99
 20
11.975
 21
18.5
  0
LINE
  8
0
 10
-22.99
 11
-31.61
 20
18.5
 21
18.5
  0
LINE
  8
0
 10
-31.61
 11
-31.61
 20
18.5
 21
22.73
  0
LINE
  8
0
 10
-31.61
 11
-30.26
 20
22.73
 21
22.73
  0
LINE
  8
0
 10
-30.26
 11
-30.26
 20
22.73
 21
24.72
  0
LINE
  8
0
 10
-30.26
 11
-31.61
 20
24.72
 21
24.72
  0
LINE
  8
0
 10
-31.61
 11
-31.61
 20
24.72
 21
26.95
  0
LINE
  8
0
 10
-31.61
 11
-34.39
 20
26.95
 21
26.95
  0
LINE
  8
0
 10
-34.39
 11
-34.39
 20
26.95
 21
24.72
  0
LINE
  8
0
 10
-34.39
 11
-35.74
 20
24.72
 21
24.72
  0
LINE
  8
0
 10
-35.74
 11
-35.74
 20
24.72
 21
22.73
  0
LINE
  8
0
 10
-35.74
 11
-34.39
 20
22.73
 21
22.73
  0
LINE
  8
0
 10
-34.39
 11
-34.39
 20
22.73
 21
18.5
  0
LINE
  8
0
 10
-34.39
 11
-43.01
 20
18.5
 21
18.5
  0
LINE
  8
0
 10
-43.01
 11
-43.01
 20
18.5
 21
11.975
  0
LINE
  8
0
 10
-43.01
 11
-50.99
 20
11.975
 21
11.975
  0
LINE
  8
0
 10
-50.99
 11
-50.99
 20
11.975
 21
18.5
  0
LINE
  8
0
 10
-50.99
 11
-58.559
 20
18.5
 21
18.5
  0
LINE
  8
0
 10
-58.559
 11
-49.046
 20
18.5
 21
25.675
  0
LINE
  8
0
 10
-49.046
 11
-48.591
 20
25.675
 21
26.049
  0
LINE
  8
0
 10
-48.591
 11
-48.174
 20
26.049
 21
26.466
  0
LINE
  8
0
 10
-48.174
 11
-47.8
 20
26.466
 21
26.921
  0
LINE
  8
0
 10
-47.8
 11
-47.472
 20
26.921
 21
27.412
  0
LINE
  8
0
 10
-47.472
 11
-47.195
 20
27.412
 21
27.932
  0
LINE
  8
0
 10
-47.195
 11
-46.969
 20
27.932
 21
28.476
  0
LINE
  8
0
 10
-46.969
 11
-46.798
 20
28.476
 21
29.04
  0
LINE
  8
0
 10
-46.798
 11
-46.683
 20
29.04
 21
29.619
  0
LINE
  8
0
 10
-46.683
 11
-46.625
 20
29.619
 21
30.205
  0
LINE
  8
0
 10
-46.625
 11
-46.625
 20
30.205
 21
197.295
  0
LINE
  8
0
 10
-46.625
 11
-46.683
 20
197.295
 21
197.881
  0
LINE
  8
0
 10
-46.683
 11
-46.798
 20
197.881
 21
198.46
  0
LINE
  8
0
 10
-46.798
 11
-46.969
 20
198.46
 21
199.024
  0
LINE
  8
0
 10
-46.969
 11
-47.195
 20
199.024
 21
199.568
  0
LINE
  8
0
 10
-47.195
 11
-47.472
 20
199.568
 21
200.088
  0
LINE
  8
0
 10
-47.472
 11
-47.8
 20
200.088
 21
200.579
  0
LINE
  8
0
 10
-47.8
 11
-48.174
 20
200.579
 21
201.034
  0
LINE
  8
0
 10
-48.174
 11
-48.591
 20
201.034
 21
201.451
  0
LINE
  8
0
 10
-48.591
 11
-49.046
 20
201.451
 21
201.825
  0
LINE
  8
0
 10
-49.046
 11
-49.537
 20
201.825
 21
202.153
  0
LINE
  8
0
 10
-49.537
 11
-50.057
 20
202.153
 21
202.43
  0
LINE
  8
0
 10
-50.057
 11
-50.601
 20
202.43
 21
202.656
  0
LINE
  8
0
 10
-50.601
 11
-51.165
 20
202.656
 21
202.827
  0
LINE
  8
0
 10
-51.165
 11
-51.744
 20
202.827
 21
202.942
  0
LINE
  8
0
 10
-51.744
 11
-52.33
 20
202.942
 21
203
  0
LINE
  8
0
 10
-52.33
 11
-241.67
 20
203
 21
203
  0
LINE
  8
0
 10
-241.67
 11
-242.256
 20
203
 21
202.942
  0
LINE
  8
0
 10
-242.256
 11
-242.835
 20
202.942
 21
202.827
  0
LINE
  8
0
 10
-242.835
 11
-243.399
 20
202.827
 21
202.656
  0
LINE
  8
0
 10
-243.399
 11
-243.943
 20
202.656
 21
202.43
  0
LINE
  8
0
 10
-243.943
 11
-244.463
 20
202.43
 21
202.153
  0
LINE
  8
0
 10
-244.463
 11
-244.954
 20
202.153
 21
201.825
  0
LINE
  8
0
 10
-244.954
 11
-245.409
 20
201.825
 21
201.451
  0
LINE
  8
0
 10
-245.409
 11
-245.826
 20
201.451
 21
201.034
  0
LINE
  8
0
 10
-245.826
 11
-246.2
 20
201.034
 21
200.579
  0
LINE
  8
0
 10
-246.2
 11
-246.528
 20
200.579
 21
200.088
  0
LINE
  8
0
 10
-246.528
 11
-246.805
 20
200.088
 21
199.568
  0
LINE
  8
0
 10
-246.805
 11
-247.031
 20
199.568
 21
199.024
  0
LINE
  8
0
 10
-247.031
 11
-247.202
 20
199.024
 21
198.46
  0
LINE
  8
0
 10
-247.202
 11
-247.317
 20
198.46
 21
197.881
  0
LINE
  8
0
 10
-247.317
 11
-247.375
 20
197.881
 21
197.295
  0
LINE
  8
0
 10
-247.375
 11
-247.375
 20
197.295
 21
30.205
  0
LINE
  8
0
 10
-247.375
 11
-247.317
 20
30.205
 21
29.619
  0
LINE
  8
0
 10
-247.317
 11
-247.202
 20
29.619
 21
29.04
  0
LINE
  8
0
 10
-247.202
 11
-247.031
 20
29.04
 21
28.476
  0
LINE
  8
0
 10
-247.031
 11
-246.805
 20
28.476
 21
27.932
  0
LINE
  8
0
 10
-246.805
 11
-246.528
 20
27.932
 21
27.412
  0
LINE
  8
0
 10
-246.528
 11
-246.2
 20
27.412
 21
26.921
  0
LINE
  8
0
 10
-246.2
 11
-245.826
 20
26.921
 21
26.466
  0
LINE
  8
0
 10
-245.826
 11
-245.409
 20
26.466
 21
26.049
  0
LINE
  8
0
 10
-245.409
 11
-244.954
 20
26.049
 21
25.675
  0
LINE
  8
0
 10
-244.954
 11
-235.441
 20
25.675
 21
18.5
  0
LINE
  8
0
 10
-235.441
 11
-243.01
 20
18.5
 21
18.5
  0
LINE
  8
0
 10
-243.01
 11
-243.01
 20
18.5
 21
11.975
  0
LINE
  8
0
 10
-243.01
 11
-250.99
 20
11.975
 21
11.975
  0
LINE
  8
0
 10
-250.99
 11
-250.99
 20
11.975
 21
18.5
  0
LINE
  8
0
 10
-250.99
 11
-259.61
 20
18.5
 21
18.5
  0
LINE
  8
0
 10
-259.61
 11
-259.61
 20
18.5
 21
22.73
  0
LINE
  8
0
 10
-259.61
 11
-258.26
 20
22.73
 21
22.73
  0
LINE
  8
0
 10
-258.26
 11
-258.26
 20
22.73
 21
24.72
  0
LINE
  8
0
 10
-258.26
 11
-259.61
 20
24.72
 21
24.72
  0
LINE
  8
0
 10
-259.61
 11
-259.61
 20
24.72
 21
26.95
  0
LINE
  8
0
 10
-259.61
 11
-262.39
 20
26.95
 21
26.95
  0
LINE
  8
0
 10
-262.39
 11
-262.39
 20
26.95
 21
24.72
  0
LINE
  8
0
 10
-262.39
 11
-263.74
 20
24.72
 21
24.72
  0
LINE
  8
0
 10
-263.74
 11
-263.74
 20
24.72
 21
22.73
  0
LINE
  8
0
 10
-263.74
 11
-262.39
 20
22.73
 21
22.73
  0
LINE
  8
0
 10
-262.39
 11
-262.39
 20
22.73
 21
18.5
  0
LINE
  8
0
 10
-262.39
 11
-271.01
 20
18.5
 21
18.5
  0
LINE
  8
0
 10
-271.01
 11
-271.01
 20
18.5
 21
11.975
  0
LINE
  8
0
 10
-271.01
 11
-278.99
 20
11.975
 21
11.975
  0
LINE
  8
0
 10
-278.99
 11
-278.99
 20
11.975
 21
18.5
  0
LINE
  8
0
 10
-278.99
 11
-287
 20
18.5
 21
18.5
  0
LINE
  8
0
 10
-287
 11
-287
 20
18.5
 21
26.51
  0
LINE
  8
0
 10
-287
 11
-293.525
 20
26.51
 21
26.51
  0
LINE
  8
0
 10
-283.44
 11
-283.44
 20
-305.794
 21
-305.406
  0
LINE
  8
0
 10
-283.44
 11
-283.402
 20
-305.406
 21
-305.021
  0
LINE
  8
0
 10
-283.402
 11
-283.327
 20
-305.021
 21
-304.642
  0
LINE
  8
0
 10
-283.327
 11
-283.214
 20
-304.642
 21
-304.271
  0
LINE
  8
0
 10
-283.214
 11
-283.066
 20
-304.271
 21
-303.913
  0
LINE
  8
0
 10
-283.066
 11
-282.884
 20
-303.913
 21
-303.572
  0
LINE
  8
0
 10
-282.884
 11
-282.668
 20
-303.572
 21
-303.25
  0
LINE
  8
0
 10
-282.668
 11
-282.423
 20
-303.25
 21
-302.951
  0
LINE
  8
0
 10
-282.423
 11
-282.149
 20
-302.951
 21
-302.677
  0
LINE
  8
0
 10
-282.149
 11
-281.85
 20
-302.677
 21
-302.432
  0
LINE
  8
0
 10
-281.85
 11
-281.528
 20
-302.432
 21
-302.216
  0
LINE
  8
0
 10
-281.528
 11
-281.187
 20
-302.216
 21
-302.034
  0
LINE
  8
0
 10
-281.187
 11
-280.829
 20
-302.034
 21
-301.886
  0
LINE
  8
0
 10
-280.829
 11
-280.458
 20
-301.886
 21
-301.773
  0
LINE
  8
0
 10
-280.458
 11
-280.079
 20
-301.773
 21
-301.698
  0
LINE
  8
0
 10
-280.079
 11
-279.694
 20
-301.698
 21
-301.66
  0
LINE
  8
0
 10
-279.694
 11
-279.306
 20
-301.66
 21
-301.66
  0
LINE
  8
0
 10
-279.306
 11
-278.921
 20
-301.66
 21
-301.698
  0
LINE
  8
0
 10
-278.921
 11
-278.542
 20
-301.698
 21
-301.773
  0
LINE
  8
0
 10
-278.542
 11
-278.171
 20
-301.773
 21
-301.886
  0
LINE
  8
0
 10
-278.171
 11
-277.813
 20
-301.886
 21
-302.034
  0
LINE
  8
0
 10
-277.813
 11
-277.472
 20
-302.034
 21
-302.216
  0
LINE
  8
0
 10
-277.472
 11
-277.15
 20
-302.216
 21
-302.432
  0
LINE
  8
0
 10
-277.15
 11
-276.851
 20
-302.432
 21
-302.677
  0
LINE
  8
0
 10
-276.851
 11
-276.577
 20
-302.677
 21
-302.951
  0
LINE
  8
0
 10
-276.577
 11
-276.332
 20
-302.951
 21
-303.25
  0
LINE
  8
0
 10
-276.332
 11
-276.116
 20
-303.25
 21
-303.572
  0
LINE
  8
0
 10
-276.116
 11
-275.934
 20
-303.572
 21
-303.913
  0
LINE
  8
0
 10
-275.934
 11
-275.786
 20
-303.913
 21
-304.271
  0
LINE
  8
0
 10
-275.786
 11
-275.673
 20
-304.271
 21
-304.642
  0
LINE
  8
0
 10
-275.673
 11
-275.598
 20
-304.642
 21
-305.021
  0
LINE
  8
0
 10
-275.598
 11
-275.56
 20
-305.021
 21
-305.406
  0
LINE
  8
0
 10
-275.56
 11
-275.56
 20
-305.406
 21
-305.794
  0
LINE
  8
0
 10
-275.56
 11
-275.598
 20
-305.794
 21
-306.179
  0
LINE
  8
0
 10
-275.598
 11
-275.673
 20
-306.179
 21
-306.558
  0
LINE
  8
0
 10
-275.673
 11
-275.786
 20
-306.558
 21
-306.929
  0
LINE
  8
0
 10
-275.786
 11
-275.934
 20
-306.929
 21
-307.287
  0
LINE
  8
0
 10
-275.934
 11
-276.116
 20
-307.287
 21
-307.628
  0
LINE
  8
0
 10
-276.116
 11
-276.332
 20
-307.628
 21
-307.95
  0
LINE
  8
0
 10
-276.332
 11
-276.577
 20
-307.95
 21
-308.249
  0
LINE
  8
0
 10
-276.577
 11
-276.851
 20
-308.249
 21
-308.523
  0
LINE
  8
0
 10
-276.851
 11
-277.15
 20
-308.523
 21
-308.768
  0
LINE
  8
0
 10
-277.15
 11
-277.472
 20
-308.768
 21
-308.984
  0
LINE
  8
0
 10
-277.472
 11
-277.813
 20
-308.984
 21
-309.166
  0
LINE
  8
0
 10
-277.813
 11
-278.171
 20
-309.166
 21
-309.314
  0
LINE
  8
0
 10
-278.171
 11
-278.542
 20
-309.314
 21
-309.427
  0
LINE
  8
0
 10
-278.542
 11
-278.921
 20
-309.427
 21
-309.502
  0
LINE
  8
0
 10
-278.921
 11
-279.306
 20
-309.502
 21
-309.54
  0
LINE
  8
0
 10
-279.306
 11
-279.694
 20
-309.54
 21
-309.54
  0
LINE
  8
0
 10
-279.694
 11
-280.079
 20
-309.54
 21
-309.502
  0
LINE
  8
0
 10
-280.079
 11
-280.458
 20
-309.502
 21
-309.427
  0
LINE
  8
0
 10
-280.458
 11
-280.829
 20
-309.427
 21
-309.314
  0
LINE
  8
0
 10
-280.829
 11
-281.187
 20
-309.314
 21
-309.166
  0
LINE
  8
0
 10
-281.187
 11
-281.528
 20
-309.166
 21
-308.984
  0
LINE
  8
0
 10
-281.528
 11
-281.85
 20
-308.984
 21
-308.768
  0
LINE
  8
0
 10
-281.85
 11
-282.149
 20
-308.768
 21
-308.523
  0
LINE
  8
0
 10
-282.149
 11
-282.423
 20
-308.523
 21
-308.249
  0
LINE
  8
0
 10
-282.423
 11
-282.668
 20
-308.249
 21
-307.95
  0
LINE
  8
0
 10
-282.668
 11
-282.884
 20
-307.95
 21
-307.628
  0
LINE
  8
0
 10
-282.884
 11
-283.066
 20
-307.628
 21
-307.287
  0
LINE
  8
0
 10
-283.066
 11
-283.214
 20
-307.287
 21
-306.929
  0
LINE
  8
0
 10
-283.214
 11
-283.327
 20
-306.929
 21
-306.558
  0
LINE
  8
0
 10
-283.327
 11
-283.402
 20
-306.558
 21
-306.179
  0
LINE
  8
0
 10
-283.402
 11
-283.44
 20
-306.179
 21
-305.794
  0
LINE
  8
0
 10
-282.99
 11
-282.99
 20
-282.375
 21
-275.825
  0
LINE
  8
0
 10
-282.99
 11
-275.01
 20
-275.825
 21
-275.825
  0
LINE
  8
0
 10
-275.01
 11
-275.01
 20
-275.825
 21
-282.375
  0
LINE
  8
0
 10
-275.01
 11
-282.99
 20
-282.375
 21
-282.375
  0
LINE
  8
0
 10
-282.99
 11
-282.99
 20
-28.025
 21
-21.475
  0
LINE
  8
0
 10
-282.99
 11
-275.01
 20
-21.475
 21
-21.475
  0
LINE
  8
0
 10
-275.01
 11
-275.01
 20
-21.475
 21
-28.025
  0
LINE
  8
0
 10
-275.01
 11
-282.99
 20
-28.025
 21
-28.025
  0
LINE
  8
0
 10
-268.8
 11
-268.8
 20
-308.574
 21
-308.426
  0
LINE
  8
0
 10
-268.8
 11
-268.786
 20
-308.426
 21
-308.28
  0
LINE
  8
0
 10
-268.786
 11
-268.757
 20
-308.28
 21
-308.135
  0
LINE
  8
0
 10
-268.757
 11
-268.714
 20
-308.135
 21
-307.994
  0
LINE
  8
0
 10
-268.714
 11
-268.658
 20
-307.994
 21
-307.858
  0
LINE
  8
0
 10
-268.658
 11
-268.588
 20
-307.858
 21
-307.728
  0
LINE
  8
0
 10
-268.588
 11
-268.506
 20
-307.728
 21
-307.605
  0
LINE
  8
0
 10
-268.506
 11
-268.413
 20
-307.605
 21
-307.491
  0
LINE
  8
0
 10
-268.413
 11
-268.309
 20
-307.491
 21
-307.387
  0
LINE
  8
0
 10
-268.309
 11
-268.195
 20
-307.387
 21
-307.294
  0
LINE
  8
0
 10
-268.195
 11
-268.072
 20
-307.294
 21
-307.212
  0
LINE
  8
0
 10
-268.072
 11
-267.942
 20
-307.212
 21
-307.142
  0
LINE
  8
0
 10
-267.942
 11
-267.806
 20
-307.142
 21
-307.086
  0
LINE
  8
0
 10
-267.806
 11
-267.665
 20
-307.086
 21
-307.043
  0
LINE
  8
0
 10
-267.665
 11
-267.52
 20
-307.043
 21
-307.014
  0
LINE
  8
0
 10
-267.52
 11
-267.374
 20
-307.014
 21
-307
  0
LINE
  8
0
 10
-267.374
 11
-267.226
 20
-307
 21
-307
  0
LINE
  8
0
 10
-267.226
 11
-267.08
 20
-307
 21
-307.014
  0
LINE
  8
0
 10
-267.08
 11
-266.935
 20
-307.014
 21
-307.043
  0
LINE
  8
0
 10
-266.935
 11
-266.794
 20
-307.043
 21
-307.086
  0
LINE
  8
0
 10
-266.794
 11
-266.658
 20
-307.086
 21
-307.142
  0
LINE
  8
0
 10
-266.658
 11
-266.528
 20
-307.142
 21
-307.212
  0
LINE
  8
0
 10
-266.528
 11
-266.405
 20
-307.212
 21
-307.294
  0
LINE
  8
0
 10
-266.405
 11
-266.291
 20
-307.294
 21
-307.387
  0
LINE
  8
0
 10
-266.291
 11
-266.187
 20
-307.387
 21
-307.491
  0
LINE
  8
0
 10
-266.187
 11
-266.094
 20
-307.491
 21
-307.605
  0
LINE
  8
0
 10
-266.094
 11
-266.012
 20
-307.605
 21
-307.728
  0
LINE
  8
0
 10
-266.012
 11
-265.942
 20
-307.728
 21
-307.858
  0
LINE
  8
0
 10
-265.942
 11
-265.886
 20
-307.858
 21
-307.994
  0
LINE
  8
0
 10
-265.886
 11
-265.843
 20
-307.994
 21
-308.135
  0
LINE
  8
0
 10
-265.843
 11
-265.814
 20
-308.135
 21
-308.28
  0
LINE
  8
0
 10
-265.814
 11
-265.8
 20
-308.28
 21
-308.426
  0
LINE
  8
0
 10
-265.8
 11
-265.8
 20
-308.426
 21
-308.574
  0
LINE
  8
0
 10
-265.8
 11
-265.814
 20
-308.574
 21
-308.72
  0
LINE
  8
0
 10
-265.814
 11
-265.843
 20
-308.72
 21
-308.865
  0
LINE
  8
0
 10
-265.843
 11
-265.886
 20
-308.865
 21
-309.006
  0
LINE
  8
0
 10
-265.886
 11
-265.942
 20
-309.006
 21
-309.142
  0
LINE
  8
0
 10
-265.942
 11
-266.012
 20
-309.142
 21
-309.272
  0
LINE
  8
0
 10
-266.012
 11
-266.094
 20
-309.272
 21
-309.395
  0
LINE
  8
0
 10
-266.094
 11
-266.187
 20
-309.395
 21
-309.509
  0
LINE
  8
0
 10
-266.187
 11
-266.291
 20
-309.509
 21
-309.613
  0
LINE
  8
0
 10
-266.291
 11
-266.405
 20
-309.613
 21
-309.706
  0
LINE
  8
0
 10
-266.405
 11
-266.528
 20
-309.706
 21
-309.788
  0
LINE
  8
0
 10
-266.528
 11
-266.658
 20
-309.788
 21
-309.858
  0
LINE
  8
0
 10
-266.658
 11
-266.794
 20
-309.858
 21
-309.914
  0
LINE
  8
0
 10
-266.794
 11
-266.935
 20
-309.914
 21
-309.957
  0
LINE
  8
0
 10
-266.935
 11
-267.08
 20
-309.957
 21
-309.986
  0
LINE
  8
0
 10
-267.08
 11
-267.226
 20
-309.986
 21
-310
  0
LINE
  8
0
 10
-267.226
 11
-267.374
 20
-310
 21
-310
  0
LINE
  8
0
 10
-267.374
 11
-267.52
 20
-310
 21
-309.986
  0
LINE
  8
0
 10
-267.52
 11
-267.665
 20
-309.986
 21
-309.957
  0
LINE
  8
0
 10
-267.665
 11
-267.806
 20
-309.957
 21
-309.914
  0
LINE
  8
0
 10
-267.806
 11
-267.942
 20
-309.914
 21
-309.858
  0
LINE
  8
0
 10
-267.942
 11
-268.072
 20
-309.858
 21
-309.788
  0
LINE
  8
0
 10
-268.072
 11
-268.195
 20
-309.788
 21
-309.706
  0
LINE
  8
0
 10
-268.195
 11
-268.309
 20
-309.706
 21
-309.613
  0
LINE
  8
0
 10
-268.309
 11
-268.413
 20
-309.613
 21
-309.509
  0
LINE
  8
0
 10
-268.413
 11
-268.506
 20
-309.509
 21
-309.395
  0
LINE
  8
0
 10
-268.506
 11
-268.588
 20
-309.395
 21
-309.272
  0
LINE
  8
0
 10
-268.588
 11
-268.658
 20
-309.272
 21
-309.142
  0
LINE
  8
0
 10
-268.658
 11
-268.714
 20
-309.142
 21
-309.006
  0
LINE
  8
0
 10
-268.714
 11
-268.757
 20
-309.006
 21
-308.865
  0
LINE
  8
0
 10
-268.757
 11
-268.786
 20
-308.865
 21
-308.72
  0
LINE
  8
0
 10
-268.786
 11
-268.8
 20
-308.72
 21
-308.574
  0
LINE
  8
0
 10
-268.8
 11
-268.8
 20
-299.974
 21
-299.826
  0
LINE
  8
0
 10
-268.8
 11
-268.786
 20
-299.826
 21
-299.68
  0
LINE
  8
0
 10
-268.786
 11
-268.757
 20
-299.68
 21
-299.535
  0
LINE
  8
0
 10
-268.757
 11
-268.714
 20
-299.535
 21
-299.394
  0
LINE
  8
0
 10
-268.714
 11
-268.658
 20
-299.394
 21
-299.258
  0
LINE
  8
0
 10
-268.658
 11
-268.588
 20
-299.258
 21
-299.128
  0
LINE
  8
0
 10
-268.588
 11
-268.506
 20
-299.128
 21
-299.005
  0
LINE
  8
0
 10
-268.506
 11
-268.413
 20
-299.005
 21
-298.891
  0
LINE
  8
0
 10
-268.413
 11
-268.309
 20
-298.891
 21
-298.787
  0
LINE
  8
0
 10
-268.309
 11
-268.195
 20
-298.787
 21
-298.694
  0
LINE
  8
0
 10
-268.195
 11
-268.072
 20
-298.694
 21
-298.612
  0
LINE
  8
0
 10
-268.072
 11
-267.942
 20
-298.612
 21
-298.542
  0
LINE
  8
0
 10
-267.942
 11
-267.806
 20
-298.542
 21
-298.486
  0
LINE
  8
0
 10
-267.806
 11
-267.665
 20
-298.486
 21
-298.443
  0
LINE
  8
0
 10
-267.665
 11
-267.52
 20
-298.443
 21
-298.414
  0
LINE
  8
0
 10
-267.52
 11
-267.374
 20
-298.414
 21
-298.4
  0
LINE
  8
0
 10
-267.374
 11
-267.226
 20
-298.4
 21
-298.4
  0
LINE
  8
0
 10
-267.226
 11
-267.08
 20
-298.4
 21
-298.414
  0
LINE
  8
0
 10
-267.08
 11
-266.935
 20
-298.414
 21
-298.443
  0
LINE
  8
0
 10
-266.935
 11
-266.794
 20
-298.443
 21
-298.486
  0
LINE
  8
0
 10
-266.794
 11
-266.658
 20
-298.486
 21
-298.542
  0
LINE
  8
0
 10
-266.658
 11
-266.528
 20
-298.542
 21
-298.612
  0
LINE
  8
0
 10
-266.528
 11
-266.405
 20
-298.612
 21
-298.694
  0
LINE
  8
0
 10
-266.405
 11
-266.291
 20
-298.694
 21
-298.787
  0
LINE
  8
0
 10
-266.291
 11
-266.187
 20
-298.787
 21
-298.891
  0
LINE
  8
0
 10
-266.187
 11
-266.094
 20
-298.891
 21
-299.005
  0
LINE
  8
0
 10
-266.094
 11
-266.012
 20
-299.005
 21
-299.128
  0
LINE
  8
0
 10
-266.012
 11
-265.942
 20
-299.128
 21
-299.258
  0
LINE
  8
0
 10
-265.942
 11
-265.886
 20
-299.258
 21
-299.394
  0
LINE
  8
0
 10
-265.886
 11
-265.843
 20
-299.394
 21
-299.535
  0
LINE
  8
0
 10
-265.843
 11
-265.814
 20
-299.535
 21
-299.68
  0
LINE
  8
0
 10
-265.814
 11
-265.8
 20
-299.68
 21
-299.826
  0
LINE
  8
0
 10
-265.8
 11
-265.8
 20
-299.826
 21
-299.974
  0
LINE
  8
0
 10
-265.8
 11
-265.814
 20
-299.974
 21
-300.12
  0
LINE
  8
0
 10
-265.814
 11
-265.843
 20
-300.12
 21
-300.265
  0
LINE
  8
0
 10
-265.843
 11
-265.886
 20
-300.265
 21
-300.406
  0
LINE
  8
0
 10
-265.886
 11
-265.942
 20
-300.406
 21
-300.542
  0
LINE
  8
0
 10
-265.942
 11
-266.012
 20
-300.542
 21
-300.672
  0
LINE
  8
0
 10
-266.012
 11
-266.094
 20
-300.672
 21
-300.795
  0
LINE
  8
0
 10
-266.094
 11
-266.187
 20
-300.795
 21
-300.909
  0
LINE
  8
0
 10
-266.187
 11
-266.291
 20
-300.909
 21
-301.013
  0
LINE
  8
0
 10
-266.291
 11
-266.405
 20
-301.013
 21
-301.106
  0
LINE
  8
0
 10
-266.405
 11
-266.528
 20
-301.106
 21
-301.188
  0
LINE
  8
0
 10
-266.528
 11
-266.658
 20
-301.188
 21
-301.258
  0
LINE
  8
0
 10
-266.658
 11
-266.794
 20
-301.258
 21
-301.314
  0
LINE
  8
0
 10
-266.794
 11
-266.935
 20
-301.314
 21
-301.357
  0
LINE
  8
0
 10
-266.935
 11
-267.08
 20
-301.357
 21
-301.386
  0
LINE
  8
0
 10
-267.08
 11
-267.226
 20
-301.386
 21
-301.4
  0
LINE
  8
0
 10
-267.226
 11
-267.374
 20
-301.4
 21
-301.4
  0
LINE
  8
0
 10
-267.374
 11
-267.52
 20
-301.4
 21
-301.386
  0
LINE
  8
0
 10
-267.52
 11
-267.665
 20
-301.386
 21
-301.357
  0
LINE
  8
0
 10
-267.665
 11
-267.806
 20
-301.357
 21
-301.314
  0
LINE
  8
0
 10
-267.806
 11
-267.942
 20
-301.314
 21
-301.258
  0
LINE
  8
0
 10
-267.942
 11
-268.072
 20
-301.258
 21
-301.188
  0
LINE
  8
0
 10
-268.072
 11
-268.195
 20
-301.188
 21
-301.106
  0
LINE
  8
0
 10
-268.195
 11
-268.309
 20
-301.106
 21
-301.013
  0
LINE
  8
0
 10
-268.309
 11
-268.413
 20
-301.013
 21
-300.909
  0
LINE
  8
0
 10
-268.413
 11
-268.506
 20
-300.909
 21
-300.795
  0
LINE
  8
0
 10
-268.506
 11
-268.588
 20
-300.795
 21
-300.672
  0
LINE
  8
0
 10
-268.588
 11
-268.658
 20
-300.672
 21
-300.542
  0
LINE
  8
0
 10
-268.658
 11
-268.714
 20
-300.542
 21
-300.406
  0
LINE
  8
0
 10
-268.714
 11
-268.757
 20
-300.406
 21
-300.265
  0
LINE
  8
0
 10
-268.757
 11
-268.786
 20
-300.265
 21
-300.12
  0
LINE
  8
0
 10
-268.786
 11
-268.8
 20
-300.12
 21
-299.974
  0
LINE
  8
0
 10
-266.4
 11
-266.4
 20
-279.68
 21
-278.52
  0
LINE
  8
0
 10
-266.4
 11
-265.58
 20
-278.52
 21
-277.7
  0
LINE
  8
0
 10
-265.58
 11
-264.42
 20
-277.7
 21
-277.7
  0
LINE
  8
0
 10
-264.42
 11
-263.6
 20
-277.7
 21
-278.52
  0
LINE
  8
0
 10
-263.6
 11
-263.6
 20
-278.52
 21
-279.68
  0
LINE
  8
0
 10
-263.6
 11
-264.42
 20
-279.68
 21
-280.5
  0
LINE
  8
0
 10
-264.42
 11
-265.58
 20
-280.5
 21
-280.5
  0
LINE
  8
0
 10
-265.58
 11
-266.4
 20
-280.5
 21
-279.68
  0
LINE
  8
0
 10
-266.4
 11
-266.4
 20
-25.33
 21
-24.17
  0
LINE
  8
0
 10
-266.4
 11
-265.58
 20
-24.17
 21
-23.35
  0
LINE
  8
0
 10
-265.58
 11
-264.42
 20
-23.35
 21
-23.35
  0
LINE
  8
0
 10
-264.42
 11
-263.6
 20
-23.35
 21
-24.17
  0
LINE
  8
0
 10
-263.6
 11
-263.6
 20
-24.17
 21
-25.33
  0
LINE
  8
0
 10
-263.6
 11
-264.42
 20
-25.33
 21
-26.15
  0
LINE
  8
0
 10
-264.42
 11
-265.58
 20
-26.15
 21
-26.15
  0
LINE
  8
0
 10
-265.58
 11
-266.4
 20
-26.15
 21
-25.33
  0
LINE
  8
0
 10
-254.99
 11
-254.99
 20
-282.375
 21
-275.825
  0
LINE
  8
0
 10
-254.99
 11
-247.01
 20
-275.825
 21
-275.825
  0
LINE
  8
0
 10
-247.01
 11
-247.01
 20
-275.825
 21
-282.375
  0
LINE
  8
0
 10
-247.01
 11
-254.99
 20
-282.375
 21
-282.375
  0
LINE
  8
0
 10
-254.99
 11
-254.99
 20
-28.025
 21
-21.475
  0
LINE
  8
0
 10
-254.99
 11
-247.01
 20
-21.475
 21
-21.475
  0
LINE
  8
0
 10
-247.01
 11
-247.01
 20
-21.475
 21
-28.025
  0
LINE
  8
0
 10
-247.01
 11
-254.99
 20
-28.025
 21
-28.025
  0
LINE
  8
0
 10
-210.94
 11
-210.94
 20
216.306
 21
216.694
  0
LINE
  8
0
 10
-210.94
 11
-210.902
 20
216.694
 21
217.079
  0
LINE
  8
0
 10
-210.902
 11
-210.827
 20
217.079
 21
217.458
  0
LINE
  8
0
 10
-210.827
 11
-210.714
 20
217.458
 21
217.829
  0
LINE
  8
0
 10
-210.714
 11
-210.566
 20
217.829
 21
218.187
  0
LINE
  8
0
 10
-210.566
 11
-210.384
 20
218.187
 21
218.528
  0
LINE
  8
0
 10
-210.384
 11
-210.168
 20
218.528
 21
218.85
  0
LINE
  8
0
 10
-210.168
 11
-209.923
 20
218.85
 21
219.149
  0
LINE
  8
0
 10
-209.923
 11
-209.649
 20
219.149
 21
219.423
  0
LINE
  8
0
 10
-209.649
 11
-209.35
 20
219.423
 21
219.668
  0
LINE
  8
0
 10
-209.35
 11
-209.028
 20
219.668
 21
219.884
  0
LINE
  8
0
 10
-209.028
 11
-208.687
 20
219.884
 21
220.066
  0
LINE
  8
0
 10
-208.687
 11
-208.329
 20
220.066
 21
220.214
  0
LINE
  8
0
 10
-208.329
 11
-207.958
 20
220.214
 21
220.327
  0
LINE
  8
0
 10
-207.958
 11
-207.579
 20
220.327
 21
220.402
  0
LINE
  8
0
 10
-207.579
 11
-207.194
 20
220.402
 21
220.44
  0
LINE
  8
0
 10
-207.194
 11
-206.806
 20
220.44
 21
220.44
  0
LINE
  8
0
 10
-206.806
 11
-206.421
 20
220.44
 21
220.402
  0
LINE
  8
0
 10
-206.421
 11
-206.042
 20
220.402
 21
220.327
  0
LINE
  8
0
 10
-206.042
 11
-205.671
 20
220.327
 21
220.214
  0
LINE
  8
0
 10
-205.671
 11
-205.313
 20
220.214
 21
220.066
  0
LINE
  8
0
 10
-205.313
 11
-204.972
 20
220.066
 21
219.884
  0
LINE
  8
0
 10
-204.972
 11
-204.65
 20
219.884
 21
219.668
  0
LINE
  8
0
 10
-204.65
 11
-204.351
 20
219.668
 21
219.423
  0
LINE
  8
0
 10
-204.351
 11
-204.077
 20
219.423
 21
219.149
  0
LINE
  8
0
 10
-204.077
 11
-203.832
 20
219.149
 21
218.85
  0
LINE
  8
0
 10
-203.832
 11
-203.616
 20
218.85
 21
218.528
  0
LINE
  8
0
 10
-203.616
 11
-203.434
 20
218.528
 21
218.187
  0
LINE
  8
0
 10
-203.434
 11
-203.286
 20
218.187
 21
217.829
  0
LINE
  8
0
 10
-203.286
 11
-203.173
 20
217.829
 21
217.458
  0
LINE
  8
0
 10
-203.173
 11
-203.098
 20
217.458
 21
217.079
  0
LINE
  8
0
 10
-203.098
 11
-203.06
 20
217.079
 21
216.694
  0
LINE
  8
0
 10
-203.06
 11
-203.06
 20
216.694
 21
216.306
  0
LINE
  8
0
 10
-203.06
 11
-203.098
 20
216.306
 21
215.921
  0
LINE
  8
0
 10
-203.098
 11
-203.173
 20
215.921
 21
215.542
  0
LINE
  8
0
 10
-203.173
 11
-203.286
 20
215.542
 21
215.171
  0
LINE
  8
0
 10
-203.286
 11
-203.434
 20
215.171
 21
214.813
  0
LINE
  8
0
 10
-203.434
 11
-203.616
 20
214.813
 21
214.472
  0
LINE
  8
0
 10
-203.616
 11
-203.832
 20
214.472
 21
214.15
  0
LINE
  8
0
 10
-203.832
 11
-204.077
 20
214.15
 21
213.851
  0
LINE
  8
0
 10
-204.077
 11
-204.351
 20
213.851
 21
213.577
  0
LINE
  8
0
 10
-204.351
 11
-204.65
 20
213.577
 21
213.332
  0
LINE
  8
0
 10
-204.65
 11
-204.972
 20
213.332
 21
213.116
  0
LINE
  8
0
 10
-204.972
 11
-205.313
 20
213.116
 21
212.934
  0
LINE
  8
0
 10
-205.313
 11
-205.671
 20
212.934
 21
212.786
  0
LINE
  8
0
 10
-205.671
 11
-206.042
 20
212.786
 21
212.673
  0
LINE
  8
0
 10
-206.042
 11
-206.421
 20
212.673
 21
212.598
  0
LINE
  8
0
 10
-206.421
 11
-206.806
 20
212.598
 21
212.56
  0
LINE
  8
0
 10
-206.806
 11
-207.194
 20
212.56
 21
212.56
  0
LINE
  8
0
 10
-207.194
 11
-207.579
 20
212.56
 21
212.598
  0
LINE
  8
0
 10
-207.579
 11
-207.958
 20
212.598
 21
212.673
  0
LINE
  8
0
 10
-207.958
 11
-208.329
 20
212.673
 21
212.786
  0
LINE
  8
0
 10
-208.329
 11
-208.687
 20
212.786
 21
212.934
  0
LINE
  8
0
 10
-208.687
 11
-209.028
 20
212.934
 21
213.116
  0
LINE
  8
0
 10
-209.028
 11
-209.35
 20
213.116
 21
213.332
  0
LINE
  8
0
 10
-209.35
 11
-209.649
 20
213.332
 21
213.577
  0
LINE
  8
0
 10
-209.649
 11
-209.923
 20
213.577
 21
213.851
  0
LINE
  8
0
 10
-209.923
 11
-210.168
 20
213.851
 21
214.15
  0
LINE
  8
0
 10
-210.168
 11
-210.384
 20
214.15
 21
214.472
  0
LINE
  8
0
 10
-210.384
 11
-210.566
 20
214.472
 21
214.813
  0
LINE
  8
0
 10
-210.566
 11
-210.714
 20
214.813
 21
215.171
  0
LINE
  8
0
 10
-210.714
 11
-210.827
 20
215.171
 21
215.542
  0
LINE
  8
0
 10
-210.827
 11
-210.902
 20
215.542
 21
215.921
  0
LINE
  8
0
 10
-210.902
 11
-210.94
 20
215.921
 21
216.306
  0
LINE
  8
0
 10
-194.05
 11
-194.05
 20
298.75
 21
405.25
  0
LINE
  8
0
 10
-194.05
 11
-49
 20
405.25
 21
405.25
  0
LINE
  8
0
 10
-49
 11
-49
 20
405.25
 21
298.75
  0
LINE
  8
0
 10
-49
 11
-194.05
 20
298.75
 21
298.75
  0
LINE
  8
0
 10
-168.99
 11
-168.99
 20
-28.025
 21
-21.475
  0
LINE
  8
0
 10
-168.99
 11
-161.01
 20
-21.475
 21
-21.475
  0
LINE
  8
0
 10
-161.01
 11
-161.01
 20
-21.475
 21
-28.025
  0
LINE
  8
0
 10
-161.01
 11
-168.99
 20
-28.025
 21
-28.025
  0
LINE
  8
0
 10
-159.25
 11
-159.25
 20
210.352
 21
210.648
  0
LINE
  8
0
 10
-159.25
 11
-159.192
 20
210.648
 21
210.938
  0
LINE
  8
0
 10
-159.192
 11
-159.079
 20
210.938
 21
211.211
  0
LINE
  8
0
 10
-159.079
 11
-158.915
 20
211.211
 21
211.456
  0
LINE
  8
0
 10
-158.915
 11
-158.706
 20
211.456
 21
211.665
  0
LINE
  8
0
 10
-158.706
 11
-158.461
 20
211.665
 21
211.829
  0
LINE
  8
0
 10
-158.461
 11
-158.188
 20
211.829
 21
211.942
  0
LINE
  8
0
 10
-158.188
 11
-157.898
 20
211.942
 21
212
  0
LINE
  8
0
 10
-157.898
 11
-157.602
 20
212
 21
212
  0
LINE
  8
0
 10
-157.602
 11
-157.312
 20
212
 21
211.942
  0
LINE
  8
0
 10
-157.312
 11
-157.039
 20
211.942
 21
211.829
  0
LINE
  8
0
 10
-157.039
 11
-156.794
 20
211.829
 21
211.665
  0
LINE
  8
0
 10
-156.794
 11
-156.585
 20
211.665
 21
211.456
  0
LINE
  8
0
 10
-156.585
 11
-156.421
 20
211.456
 21
211.211
  0
LINE
  8
0
 10
-156.421
 11
-156.308
 20
211.211
 21
210.938
  0
LINE
  8
0
 10
-156.308
 11
-156.25
 20
210.938
 21
210.648
  0
LINE
  8
0
 10
-156.25
 11
-156.25
 20
210.648
 21
210.352
  0
LINE
  8
0
 10
-156.25
 11
-156.308
 20
210.352
 21
210.062
  0
LINE
  8
0
 10
-156.308
 11
-156.421
 20
210.062
 21
209.789
  0
LINE
  8
0
 10
-156.421
 11
-156.585
 20
209.789
 21
209.544
  0
LINE
  8
0
 10
-156.585
 11
-156.794
 20
209.544
 21
209.335
  0
LINE
  8
0
 10
-156.794
 11
-157.039
 20
209.335
 21
209.171
  0
LINE
  8
0
 10
-157.039
 11
-157.312
 20
209.171
 21
209.058
  0
LINE
  8
0
 10
-157.312
 11
-157.602
 20
209.058
 21
209
  0
LINE
  8
0
 10
-157.602
 11
-157.898
 20
209
 21
209
  0
LINE
  8
0
 10
-157.898
 11
-158.188
 20
209
 21
209.058
  0
LINE
  8
0
 10
-158.188
 11
-158.461
 20
209.058
 21
209.171
  0
LINE
  8
0
 10
-158.461
 11
-158.706
 20
209.171
 21
209.335
  0
LINE
  8
0
 10
-158.706
 11
-158.915
 20
209.335
 21
209.544
  0
LINE
  8
0
 10
-158.915
 11
-159.079
 20
209.544
 21
209.789
  0
LINE
  8
0
 10
-159.079
 11
-159.192
 20
209.789
 21
210.062
  0
LINE
  8
0
 10
-159.192
 11
-159.25
 20
210.062
 21
210.352
  0
LINE
  8
0
 10
-152.4
 11
-152.4
 20
-25.33
 21
-24.17
  0
LINE
  8
0
 10
-152.4
 11
-151.58
 20
-24.17
 21
-23.35
  0
LINE
  8
0
 10
-151.58
 11
-150.42
 20
-23.35
 21
-23.35
  0
LINE
  8
0
 10
-150.42
 11
-149.6
 20
-23.35
 21
-24.17
  0
LINE
  8
0
 10
-149.6
 11
-149.6
 20
-24.17
 21
-25.33
  0
LINE
  8
0
 10
-149.6
 11
-150.42
 20
-25.33
 21
-26.15
  0
LINE
  8
0
 10
-150.42
 11
-151.58
 20
-26.15
 21
-26.15
  0
LINE
  8
0
 10
-151.58
 11
-152.4
 20
-26.15
 21
-25.33
  0
LINE
  8
0
 10
-140.99
 11
-140.99
 20
-28.025
 21
-21.475
  0
LINE
  8
0
 10
-140.99
 11
-133.01
 20
-21.475
 21
-21.475
  0
LINE
  8
0
 10
-133.01
 11
-133.01
 20
-21.475
 21
-28.025
  0
LINE
  8
0
 10
-133.01
 11
-140.99
 20
-28.025
 21
-28.025
  0
LINE
  8
0
 10
-137.75
 11
-137.75
 20
210.352
 21
210.648
  0
LINE
  8
0
 10
-137.75
 11
-137.692
 20
210.648
 21
210.938
  0
LINE
  8
0
 10
-137.692
 11
-137.579
 20
210.938
 21
211.211
  0
LINE
  8
0
 10
-137.579
 11
-137.415
 20
211.211
 21
211.456
  0
LINE
  8
0
 10
-137.415
 11
-137.206
 20
211.456
 21
211.665
  0
LINE
  8
0
 10
-137.206
 11
-136.961
 20
211.665
 21
211.829
  0
LINE
  8
0
 10
-136.961
 11
-136.688
 20
211.829
 21
211.942
  0
LINE
  8
0
 10
-136.688
 11
-136.398
 20
211.942
 21
212
  0
LINE
  8
0
 10
-136.398
 11
-136.102
 20
212
 21
212
  0
LINE
  8
0
 10
-136.102
 11
-135.812
 20
212
 21
211.942
  0
LINE
  8
0
 10
-135.812
 11
-135.539
 20
211.942
 21
211.829
  0
LINE
  8
0
 10
-135.539
 11
-135.294
 20
211.829
 21
211.665
  0
LINE
  8
0
 10
-135.294
 11
-135.085
 20
211.665
 21
211.456
  0
LINE
  8
0
 10
-135.085
 11
-134.921
 20
211.456
 21
211.211
  0
LINE
  8
0
 10
-134.921
 11
-134.808
 20
211.211
 21
210.938
  0
LINE
  8
0
 10
-134.808
 11
-134.75
 20
210.938
 21
210.648
  0
LINE
  8
0
 10
-134.75
 11
-134.75
 20
210.648
 21
210.352
  0
LINE
  8
0
 10
-134.75
 11
-134.808
 20
210.352
 21
210.062
  0
LINE
  8
0
 10
-134.808
 11
-134.921
 20
210.062
 21
209.789
  0
LINE
  8
0
 10
-134.921
 11
-135.085
 20
209.789
 21
209.544
  0
LINE
  8
0
 10
-135.085
 11
-135.294
 20
209.544
 21
209.335
  0
LINE
  8
0
 10
-135.294
 11
-135.539
 20
209.335
 21
209.171
  0
LINE
  8
0
 10
-135.539
 11
-135.812
 20
209.171
 21
209.058
  0
LINE
  8
0
 10
-135.812
 11
-136.102
 20
209.058
 21
209
  0
LINE
  8
0
 10
-136.102
 11
-136.398
 20
209
 21
209
  0
LINE
  8
0
 10
-136.398
 11
-136.688
 20
209
 21
209.058
  0
LINE
  8
0
 10
-136.688
 11
-136.961
 20
209.058
 21
209.171
  0
LINE
  8
0
 10
-136.961
 11
-137.206
 20
209.171
 21
209.335
  0
LINE
  8
0
 10
-137.206
 11
-137.415
 20
209.335
 21
209.544
  0
LINE
  8
0
 10
-137.415
 11
-137.579
 20
209.544
 21
209.789
  0
LINE
  8
0
 10
-137.579
 11
-137.692
 20
209.789
 21
210.062
  0
LINE
  8
0
 10
-137.692
 11
-137.75
 20
210.062
 21
210.352
  0
LINE
  8
0
 10
-90.94
 11
-90.94
 20
216.306
 21
216.694
  0
LINE
  8
0
 10
-90.94
 11
-90.902
 20
216.694
 21
217.079
  0
LINE
  8
0
 10
-90.902
 11
-90.827
 20
217.079
 21
217.458
  0
LINE
  8
0
 10
-90.827
 11
-90.714
 20
217.458
 21
217.829
  0
LINE
  8
0
 10
-90.714
 11
-90.566
 20
217.829
 21
218.187
  0
LINE
  8
0
 10
-90.566
 11
-90.384
 20
218.187
 21
218.528
  0
LINE
  8
0
 10
-90.384
 11
-90.168
 20
218.528
 21
218.85
  0
LINE
  8
0
 10
-90.168
 11
-89.923
 20
218.85
 21
219.149
  0
LINE
  8
0
 10
-89.923
 11
-89.649
 20
219.149
 21
219.423
  0
LINE
  8
0
 10
-89.649
 11
-89.35
 20
219.423
 21
219.668
  0
LINE
  8
0
 10
-89.35
 11
-89.028
 20
219.668
 21
219.884
  0
LINE
  8
0
 10
-89.028
 11
-88.687
 20
219.884
 21
220.066
  0
LINE
  8
0
 10
-88.687
 11
-88.329
 20
220.066
 21
220.214
  0
LINE
  8
0
 10
-88.329
 11
-87.958
 20
220.214
 21
220.327
  0
LINE
  8
0
 10
-87.958
 11
-87.579
 20
220.327
 21
220.402
  0
LINE
  8
0
 10
-87.579
 11
-87.194
 20
220.402
 21
220.44
  0
LINE
  8
0
 10
-87.194
 11
-86.806
 20
220.44
 21
220.44
  0
LINE
  8
0
 10
-86.806
 11
-86.421
 20
220.44
 21
220.402
  0
LINE
  8
0
 10
-86.421
 11
-86.042
 20
220.402
 21
220.327
  0
LINE
  8
0
 10
-86.042
 11
-85.671
 20
220.327
 21
220.214
  0
LINE
  8
0
 10
-85.671
 11
-85.313
 20
220.214
 21
220.066
  0
LINE
  8
0
 10
-85.313
 11
-84.972
 20
220.066
 21
219.884
  0
LINE
  8
0
 10
-84.972
 11
-84.65
 20
219.884
 21
219.668
  0
LINE
  8
0
 10
-84.65
 11
-84.351
 20
219.668
 21
219.423
  0
LINE
  8
0
 10
-84.351
 11
-84.077
 20
219.423
 21
219.149
  0
LINE
  8
0
 10
-84.077
 11
-83.832
 20
219.149
 21
218.85
  0
LINE
  8
0
 10
-83.832
 11
-83.616
 20
218.85
 21
218.528
  0
LINE
  8
0
 10
-83.616
 11
-83.434
 20
218.528
 21
218.187
  0
LINE
  8
0
 10
-83.434
 11
-83.286
 20
218.187
 21
217.829
  0
LINE
  8
0
 10
-83.286
 11
-83.173
 20
217.829
 21
217.458
  0
LINE
  8
0
 10
-83.173
 11
-83.098
 20
217.458
 21
217.079
  0
LINE
  8
0
 10
-83.098
 11
-83.06
 20
217.079
 21
216.694
  0
LINE
  8
0
 10
-83.06
 11
-83.06
 20
216.694
 21
216.306
  0
LINE
  8
0
 10
-83.06
 11
-83.098
 20
216.306
 21
215.921
  0
LINE
  8
0
 10
-83.098
 11
-83.173
 20
215.921
 21
215.542
  0
LINE
  8
0
 10
-83.173
 11
-83.286
 20
215.542
 21
215.171
  0
LINE
  8
0
 10
-83.286
 11
-83.434
 20
215.171
 21
214.813
  0
LINE
  8
0
 10
-83.434
 11
-83.616
 20
214.813
 21
214.472
  0
LINE
  8
0
 10
-83.616
 11
-83.832
 20
214.472
 21
214.15
  0
LINE
  8
0
 10
-83.832
 11
-84.077
 20
214.15
 21
213.851
  0
LINE
  8
0
 10
-84.077
 11
-84.351
 20
213.851
 21
213.577
  0
LINE
  8
0
 10
-84.351
 11
-84.65
 20
213.577
 21
213.332
  0
LINE
  8
0
 10
-84.65
 11
-84.972
 20
213.332
 21
213.116
  0
LINE
  8
0
 10
-84.972
 11
-85.313
 20
213.116
 21
212.934
  0
LINE
  8
0
 10
-85.313
 11
-85.671
 20
212.934
 21
212.786
  0
LINE
  8
0
 10
-85.671
 11
-86.042
 20
212.786
 21
212.673
  0
LINE
  8
0
 10
-86.042
 11
-86.421
 20
212.673
 21
212.598
  0
LINE
  8
0
 10
-86.421
 11
-86.806
 20
212.598
 21
212.56
  0
LINE
  8
0
 10
-86.806
 11
-87.194
 20
212.56
 21
212.56
  0
LINE
  8
0
 10
-87.194
 11
-87.579
 20
212.56
 21
212.598
  0
LINE
  8
0
 10
-87.579
 11
-87.958
 20
212.598
 21
212.673
  0
LINE
  8
0
 10
-87.958
 11
-88.329
 20
212.673
 21
212.786
  0
LINE
  8
0
 10
-88.329
 11
-88.687
 20
212.786
 21
212.934
  0
LINE
  8
0
 10
-88.687
 11
-89.028
 20
212.934
 21
213.116
  0
LINE
  8
0
 10
-89.028
 11
-89.35
 20
213.116
 21
213.332
  0
LINE
  8
0
 10
-89.35
 11
-89.649
 20
213.332
 21
213.577
  0
LINE
  8
0
 10
-89.649
 11
-89.923
 20
213.577
 21
213.851
  0
LINE
  8
0
 10
-89.923
 11
-90.168
 20
213.851
 21
214.15
  0
LINE
  8
0
 10
-90.168
 11
-90.384
 20
214.15
 21
214.472
  0
LINE
  8
0
 10
-90.384
 11
-90.566
 20
214.472
 21
214.813
  0
LINE
  8
0
 10
-90.566
 11
-90.714
 20
214.813
 21
215.171
  0
LINE
  8
0
 10
-90.714
 11
-90.827
 20
215.171
 21
215.542
  0
LINE
  8
0
 10
-90.827
 11
-90.902
 20
215.542
 21
215.921
  0
LINE
  8
0
 10
-90.902
 11
-90.94
 20
215.921
 21
216.306
  0
LINE
  8
0
 10
-54.99
 11
-54.99
 20
-282.375
 21
-275.825
  0
LINE
  8
0
 10
-54.99
 11
-47.01
 20
-275.825
 21
-275.825
  0
LINE
  8
0
 10
-47.01
 11
-47.01
 20
-275.825
 21
-282.375
  0
LINE
  8
0
 10
-47.01
 11
-54.99
 20
-282.375
 21
-282.375
  0
LINE
  8
0
 10
-54.99
 11
-54.99
 20
-28.025
 21
-21.475
  0
LINE
  8
0
 10
-54.99
 11
-47.01
 20
-21.475
 21
-21.475
  0
LINE
  8
0
 10
-47.01
 11
-47.01
 20
-21.475
 21
-28.025
  0
LINE
  8
0
 10
-47.01
 11
-54.99
 20
-28.025
 21
-28.025
  0
LINE
  8
0
 10
-43.275
 11
-43.275
 20
253.51
 21
261.49
  0
LINE
  8
0
 10
-43.275
 11
-36.725
 20
261.49
 21
261.49
  0
LINE
  8
0
 10
-36.725
 11
-36.725
 20
261.49
 21
253.51
  0
LINE
  8
0
 10
-36.725
 11
-43.275
 20
253.51
 21
253.51
  0
LINE
  8
0
 10
-43.275
 11
-43.275
 20
281.51
 21
289.49
  0
LINE
  8
0
 10
-43.275
 11
-36.725
 20
289.49
 21
289.49
  0
LINE
  8
0
 10
-36.725
 11
-36.725
 20
289.49
 21
281.51
  0
LINE
  8
0
 10
-36.725
 11
-43.275
 20
281.51
 21
281.51
  0
LINE
  8
0
 10
-43.275
 11
-43.275
 20
414.51
 21
422.49
  0
LINE
  8
0
 10
-43.275
 11
-36.725
 20
422.49
 21
422.49
  0
LINE
  8
0
 10
-36.725
 11
-36.725
 20
422.49
 21
414.51
  0
LINE
  8
0
 10
-36.725
 11
-43.275
 20
414.51
 21
414.51
  0
LINE
  8
0
 10
-43.275
 11
-43.275
 20
442.51
 21
450.49
  0
LINE
  8
0
 10
-43.275
 11
-36.725
 20
450.49
 21
450.49
  0
LINE
  8
0
 10
-36.725
 11
-36.725
 20
450.49
 21
442.51
  0
LINE
  8
0
 10
-36.725
 11
-43.275
 20
442.51
 21
442.51
  0
LINE
  8
0
 10
-41.4
 11
-41.4
 20
270.92
 21
272.08
  0
LINE
  8
0
 10
-41.4
 11
-40.58
 20
272.08
 21
272.9
  0
LINE
  8
0
 10
-40.58
 11
-39.42
 20
272.9
 21
272.9
  0
LINE
  8
0
 10
-39.42
 11
-38.6
 20
272.9
 21
272.08
  0
LINE
  8
0
 10
-38.6
 11
-38.6
 20
272.08
 21
270.92
  0
LINE
  8
0
 10
-38.6
 11
-39.42
 20
270.92
 21
270.1
  0
LINE
  8
0
 10
-39.42
 11
-40.58
 20
270.1
 21
270.1
  0
LINE
  8
0
 10
-40.58
 11
-41.4
 20
270.1
 21
270.92
  0
LINE
  8
0
 10
-41.4
 11
-41.4
 20
431.92
 21
433.08
  0
LINE
  8
0
 10
-41.4
 11
-40.58
 20
433.08
 21
433.9
  0
LINE
  8
0
 10
-40.58
 11
-39.42
 20
433.9
 21
433.9
  0
LINE
  8
0
 10
-39.42
 11
-38.6
 20
433.9
 21
433.08
  0
LINE
  8
0
 10
-38.6
 11
-38.6
 20
433.08
 21
431.92
  0
LINE
  8
0
 10
-38.6
 11
-39.42
 20
431.92
 21
431.1
  0
LINE
  8
0
 10
-39.42
 11
-40.58
 20
431.1
 21
431.1
  0
LINE
  8
0
 10
-40.58
 11
-41.4
 20
431.1
 21
431.92
  0
LINE
  8
0
 10
-38.4
 11
-38.4
 20
-279.68
 21
-278.52
  0
LINE
  8
0
 10
-38.4
 11
-37.58
 20
-278.52
 21
-277.7
  0
LINE
  8
0
 10
-37.58
 11
-36.42
 20
-277.7
 21
-277.7
  0
LINE
  8
0
 10
-36.42
 11
-35.6
 20
-277.7
 21
-278.52
  0
LINE
  8
0
 10
-35.6
 11
-35.6
 20
-278.52
 21
-279.68
  0
LINE
  8
0
 10
-35.6
 11
-36.42
 20
-279.68
 21
-280.5
  0
LINE
  8
0
 10
-36.42
 11
-37.58
 20
-280.5
 21
-280.5
  0
LINE
  8
0
 10
-37.58
 11
-38.4
 20
-280.5
 21
-279.68
  0
LINE
  8
0
 10
-38.4
 11
-38.4
 20
-25.33
 21
-24.17
  0
LINE
  8
0
 10
-38.4
 11
-37.58
 20
-24.17
 21
-23.35
  0
LINE
  8
0
 10
-37.58
 11
-36.42
 20
-23.35
 21
-23.35
  0
LINE
  8
0
 10
-36.42
 11
-35.6
 20
-23.35
 21
-24.17
  0
LINE
  8
0
 10
-35.6
 11
-35.6
 20
-24.17
 21
-25.33
  0
LINE
  8
0
 10
-35.6
 11
-36.42
 20
-25.33
 21
-26.15
  0
LINE
  8
0
 10
-36.42
 11
-37.58
 20
-26.15
 21
-26.15
  0
LINE
  8
0
 10
-37.58
 11
-38.4
 20
-26.15
 21
-25.33
  0
LINE
  8
0
 10
-36.2
 11
-36.2
 20
-308.574
 21
-308.426
  0
LINE
  8
0
 10
-36.2
 11
-36.186
 20
-308.426
 21
-308.28
  0
LINE
  8
0
 10
-36.186
 11
-36.157
 20
-308.28
 21
-308.135
  0
LINE
  8
0
 10
-36.157
 11
-36.114
 20
-308.135
 21
-307.994
  0
LINE
  8
0
 10
-36.114
 11
-36.058
 20
-307.994
 21
-307.858
  0
LINE
  8
0
 10
-36.058
 11
-35.988
 20
-307.858
 21
-307.728
  0
LINE
  8
0
 10
-35.988
 11
-35.906
 20
-307.728
 21
-307.605
  0
LINE
  8
0
 10
-35.906
 11
-35.813
 20
-307.605
 21
-307.491
  0
LINE
  8
0
 10
-35.813
 11
-35.709
 20
-307.491
 21
-307.387
  0
LINE
  8
0
 10
-35.709
 11
-35.595
 20
-307.387
 21
-307.294
  0
LINE
  8
0
 10
-35.595
 11
-35.472
 20
-307.294
 21
-307.212
  0
LINE
  8
0
 10
-35.472
 11
-35.342
 20
-307.212
 21
-307.142
  0
LINE
  8
0
 10
-35.342
 11
-35.206
 20
-307.142
 21
-307.086
  0
LINE
  8
0
 10
-35.206
 11
-35.065
 20
-307.086
 21
-307.043
  0
LINE
  8
0
 10
-35.065
 11
-34.92
 20
-307.043
 21
-307.014
  0
LINE
  8
0
 10
-34.92
 11
-34.774
 20
-307.014
 21
-307
  0
LINE
  8
0
 10
-34.774
 11
-34.626
 20
-307
 21
-307
  0
LINE
  8
0
 10
-34.626
 11
-34.48
 20
-307
 21
-307.014
  0
LINE
  8
0
 10
-34.48
 11
-34.335
 20
-307.014
 21
-307.043
  0
LINE
  8
0
 10
-34.335
 11
-34.194
 20
-307.043
 21
-307.086
  0
LINE
  8
0
 10
-34.194
 11
-34.058
 20
-307.086
 21
-307.142
  0
LINE
  8
0
 10
-34.058
 11
-33.928
 20
-307.142
 21
-307.212
  0
LINE
  8
0
 10
-33.928
 11
-33.805
 20
-307.212
 21
-307.294
  0
LINE
  8
0
 10
-33.805
 11
-33.691
 20
-307.294
 21
-307.387
  0
LINE
  8
0
 10
-33.691
 11
-33.587
 20
-307.387
 21
-307.491
  0
LINE
  8
0
 10
-33.587
 11
-33.494
 20
-307.491
 21
-307.605
  0
LINE
  8
0
 10
-33.494
 11
-33.412
 20
-307.605
 21
-307.728
  0
LINE
  8
0
 10
-33.412
 11
-33.342
 20
-307.728
 21
-307.858
  0
LINE
  8
0
 10
-33.342
 11
-33.286
 20
-307.858
 21
-307.994
  0
LINE
  8
0
 10
-33.286
 11
-33.243
 20
-307.994
 21
-308.135
  0
LINE
  8
0
 10
-33.243
 11
-33.214
 20
-308.135
 21
-308.28
  0
LINE
  8
0
 10
-33.214
 11
-33.2
 20
-308.28
 21
-308.426
  0
LINE
  8
0
 10
-33.2
 11
-33.2
 20
-308.426
 21
-308.574
  0
LINE
  8
0
 10
-33.2
 11
-33.214
 20
-308.574
 21
-308.72
  0
LINE
  8
0
 10
-33.214
 11
-33.243
 20
-308.72
 21
-308.865
  0
LINE
  8
0
 10
-33.243
 11
-33.286
 20
-308.865
 21
-309.006
  0
LINE
  8
0
 10
-33.286
 11
-33.342
 20
-309.006
 21
-309.142
  0
LINE
  8
0
 10
-33.342
 11
-33.412
 20
-309.142
 21
-309.272
  0
LINE
  8
0
 10
-33.412
 11
-33.494
 20
-309.272
 21
-309.395
  0
LINE
  8
0
 10
-33.494
 11
-33.587
 20
-309.395
 21
-309.509
  0
LINE
  8
0
 10
-33.587
 11
-33.691
 20
-309.509
 21
-309.613
  0
LINE
  8
0
 10
-33.691
 11
-33.805
 20
-309.613
 21
-309.706
  0
LINE
  8
0
 10
-33.805
 11
-33.928
 20
-309.706
 21
-309.788
  0
LINE
  8
0
 10
-33.928
 11
-34.058
 20
-309.788
 21
-309.858
  0
LINE
  8
0
 10
-34.058
 11
-34.194
 20
-309.858
 21
-309.914
  0
LINE
  8
0
 10
-34.194
 11
-34.335
 20
-309.914
 21
-309.957
  0
LINE
  8
0
 10
-34.335
 11
-34.48
 20
-309.957
 21
-309.986
  0
LINE
  8
0
 10
-34.48
 11
-34.626
 20
-309.986
 21
-310
  0
LINE
  8
0
 10
-34.626
 11
-34.774
 20
-310
 21
-310
  0
LINE
  8
0
 10
-34.774
 11
-34.92
 20
-310
 21
-309.986
  0
LINE
  8
0
 10
-34.92
 11
-35.065
 20
-309.986
 21
-309.957
  0
LINE
  8
0
 10
-35.065
 11
-35.206
 20
-309.957
 21
-309.914
  0
LINE
  8
0
 10
-35.206
 11
-35.342
 20
-309.914
 21
-309.858
  0
LINE
  8
0
 10
-35.342
 11
-35.472
 20
-309.858
 21
-309.788
  0
LINE
  8
0
 10
-35.472
 11
-35.595
 20
-309.788
 21
-309.706
  0
LINE
  8
0
 10
-35.595
 11
-35.709
 20
-309.706
 21
-309.613
  0
LINE
  8
0
 10
-35.709
 11
-35.813
 20
-309.613
 21
-309.509
  0
LINE
  8
0
 10
-35.813
 11
-35.906
 20
-309.509
 21
-309.395
  0
LINE
  8
0
 10
-35.906
 11
-35.988
 20
-309.395
 21
-309.272
  0
LINE
  8
0
 10
-35.988
 11
-36.058
 20
-309.272
 21
-309.142
  0
LINE
  8
0
 10
-36.058
 11
-36.114
 20
-309.142
 21
-309.006
  0
LINE
  8
0
 10
-36.114
 11
-36.157
 20
-309.006
 21
-308.865
  0
LINE
  8
0
 10
-36.157
 11
-36.186
 20
-308.865
 21
-308.72
  0
LINE
  8
0
 10
-36.186
 11
-36.2
 20
-308.72
 21
-308.574
  0
LINE
  8
0
 10
-36.2
 11
-36.2
 20
-299.974
 21
-299.826
  0
LINE
  8
0
 10
-36.2
 11
-36.186
 20
-299.826
 21
-299.68
  0
LINE
  8
0
 10
-36.186
 11
-36.157
 20
-299.68
 21
-299.535
  0
LINE
  8
0
 10
-36.157
 11
-36.114
 20
-299.535
 21
-299.394
  0
LINE
  8
0
 10
-36.114
 11
-36.058
 20
-299.394
 21
-299.258
  0
LINE
  8
0
 10
-36.058
 11
-35.988
 20
-299.258
 21
-299.128
  0
LINE
  8
0
 10
-35.988
 11
-35.906
 20
-299.128
 21
-299.005
  0
LINE
  8
0
 10
-35.906
 11
-35.813
 20
-299.005
 21
-298.891
  0
LINE
  8
0
 10
-35.813
 11
-35.709
 20
-298.891
 21
-298.787
  0
LINE
  8
0
 10
-35.709
 11
-35.595
 20
-298.787
 21
-298.694
  0
LINE
  8
0
 10
-35.595
 11
-35.472
 20
-298.694
 21
-298.612
  0
LINE
  8
0
 10
-35.472
 11
-35.342
 20
-298.612
 21
-298.542
  0
LINE
  8
0
 10
-35.342
 11
-35.206
 20
-298.542
 21
-298.486
  0
LINE
  8
0
 10
-35.206
 11
-35.065
 20
-298.486
 21
-298.443
  0
LINE
  8
0
 10
-35.065
 11
-34.92
 20
-298.443
 21
-298.414
  0
LINE
  8
0
 10
-34.92
 11
-34.774
 20
-298.414
 21
-298.4
  0
LINE
  8
0
 10
-34.774
 11
-34.626
 20
-298.4
 21
-298.4
  0
LINE
  8
0
 10
-34.626
 11
-34.48
 20
-298.4
 21
-298.414
  0
LINE
  8
0
 10
-34.48
 11
-34.335
 20
-298.414
 21
-298.443
  0
LINE
  8
0
 10
-34.335
 11
-34.194
 20
-298.443
 21
-298.486
  0
LINE
  8
0
 10
-34.194
 11
-34.058
 20
-298.486
 21
-298.542
  0
LINE
  8
0
 10
-34.058
 11
-33.928
 20
-298.542
 21
-298.612
  0
LINE
  8
0
 10
-33.928
 11
-33.805
 20
-298.612
 21
-298.694
  0
LINE
  8
0
 10
-33.805
 11
-33.691
 20
-298.694
 21
-298.787
  0
LINE
  8
0
 10
-33.691
 11
-33.587
 20
-298.787
 21
-298.891
  0
LINE
  8
0
 10
-33.587
 11
-33.494
 20
-298.891
 21
-299.005
  0
LINE
  8
0
 10
-33.494
 11
-33.412
 20
-299.005
 21
-299.128
  0
LINE
  8
0
 10
-33.412
 11
-33.342
 20
-299.128
 21
-299.258
  0
LINE
  8
0
 10
-33.342
 11
-33.286
 20
-299.258
 21
-299.394
  0
LINE
  8
0
 10
-33.286
 11
-33.243
 20
-299.394
 21
-299.535
  0
LINE
  8
0
 10
-33.243
 11
-33.214
 20
-299.535
 21
-299.68
  0
LINE
  8
0
 10
-33.214
 11
-33.2
 20
-299.68
 21
-299.826
  0
LINE
  8
0
 10
-33.2
 11
-33.2
 20
-299.826
 21
-299.974
  0
LINE
  8
0
 10
-33.2
 11
-33.214
 20
-299.974
 21
-300.12
  0
LINE
  8
0
 10
-33.214
 11
-33.243
 20
-300.12
 21
-300.265
  0
LINE
  8
0
 10
-33.243
 11
-33.286
 20
-300.265
 21
-300.406
  0
LINE
  8
0
 10
-33.286
 11
-33.342
 20
-300.406
 21
-300.542
  0
LINE
  8
0
 10
-33.342
 11
-33.412
 20
-300.542
 21
-300.672
  0
LINE
  8
0
 10
-33.412
 11
-33.494
 20
-300.672
 21
-300.795
  0
LINE
  8
0
 10
-33.494
 11
-33.587
 20
-300.795
 21
-300.909
  0
LINE
  8
0
 10
-33.587
 11
-33.691
 20
-300.909
 21
-301.013
  0
LINE
  8
0
 10
-33.691
 11
-33.805
 20
-301.013
 21
-301.106
  0
LINE
  8
0
 10
-33.805
 11
-33.928
 20
-301.106
 21
-301.188
  0
LINE
  8
0
 10
-33.928
 11
-34.058
 20
-301.188
 21
-301.258
  0
LINE
  8
0
 10
-34.058
 11
-34.194
 20
-301.258
 21
-301.314
  0
LINE
  8
0
 10
-34.194
 11
-34.335
 20
-301.314
 21
-301.357
  0
LINE
  8
0
 10
-34.335
 11
-34.48
 20
-301.357
 21
-301.386
  0
LINE
  8
0
 10
-34.48
 11
-34.626
 20
-301.386
 21
-301.4
  0
LINE
  8
0
 10
-34.626
 11
-34.774
 20
-301.4
 21
-301.4
  0
LINE
  8
0
 10
-34.774
 11
-34.92
 20
-301.4
 21
-301.386
  0
LINE
  8
0
 10
-34.92
 11
-35.065
 20
-301.386
 21
-301.357
  0
LINE
  8
0
 10
-35.065
 11
-35.206
 20
-301.357
 21
-301.314
  0
LINE
  8
0
 10
-35.206
 11
-35.342
 20
-301.314
 21
-301.258
  0
LINE
  8
0
 10
-35.342
 11
-35.472
 20
-301.258
 21
-301.188
  0
LINE
  8
0
 10
-35.472
 11
-35.595
 20
-301.188
 21
-301.106
  0
LINE
  8
0
 10
-35.595
 11
-35.709
 20
-301.106
 21
-301.013
  0
LINE
  8
0
 10
-35.709
 11
-35.813
 20
-301.013
 21
-300.909
  0
LINE
  8
0
 10
-35.813
 11
-35.906
 20
-300.909
 21
-300.795
  0
LINE
  8
0
 10
-35.906
 11
-35.988
 20
-300.795
 21
-300.672
  0
LINE
  8
0
 10
-35.988
 11
-36.058
 20
-300.672
 21
-300.542
  0
LINE
  8
0
 10
-36.058
 11
-36.114
 20
-300.542
 21
-300.406
  0
LINE
  8
0
 10
-36.114
 11
-36.157
 20
-300.406
 21
-300.265
  0
LINE
  8
0
 10
-36.157
 11
-36.186
 20
-300.265
 21
-300.12
  0
LINE
  8
0
 10
-36.186
 11
-36.2
 20
-300.12
 21
-299.974
  0
LINE
  8
0
 10
-26.99
 11
-26.99
 20
-282.375
 21
-275.825
  0
LINE
  8
0
 10
-26.99
 11
-19.01
 20
-275.825
 21
-275.825
  0
LINE
  8
0
 10
-19.01
 11
-19.01
 20
-275.825
 21
-282.375
  0
LINE
  8
0
 10
-19.01
 11
-26.99
 20
-282.375
 21
-282.375
  0
LINE
  8
0
 10
-26.99
 11
-26.99
 20
-28.025
 21
-21.475
  0
LINE
  8
0
 10
-26.99
 11
-19.01
 20
-21.475
 21
-21.475
  0
LINE
  8
0
 10
-19.01
 11
-19.01
 20
-21.475
 21
-28.025
  0
LINE
  8
0
 10
-19.01
 11
-26.99
 20
-28.025
 21
-28.025
  0
LINE
  8
0
 10
-26.44
 11
-26.44
 20
-305.794
 21
-305.406
  0
LINE
  8
0
 10
-26.44
 11
-26.402
 20
-305.406
 21
-305.021
  0
LINE
  8
0
 10
-26.402
 11
-26.327
 20
-305.021
 21
-304.642
  0
LINE
  8
0
 10
-26.327
 11
-26.214
 20
-304.642
 21
-304.271
  0
LINE
  8
0
 10
-26.214
 11
-26.066
 20
-304.271
 21
-303.913
  0
LINE
  8
0
 10
-26.066
 11
-25.884
 20
-303.913
 21
-303.572
  0
LINE
  8
0
 10
-25.884
 11
-25.668
 20
-303.572
 21
-303.25
  0
LINE
  8
0
 10
-25.668
 11
-25.423
 20
-303.25
 21
-302.951
  0
LINE
  8
0
 10
-25.423
 11
-25.149
 20
-302.951
 21
-302.677
  0
LINE
  8
0
 10
-25.149
 11
-24.85
 20
-302.677
 21
-302.432
  0
LINE
  8
0
 10
-24.85
 11
-24.528
 20
-302.432
 21
-302.216
  0
LINE
  8
0
 10
-24.528
 11
-24.187
 20
-302.216
 21
-302.034
  0
LINE
  8
0
 10
-24.187
 11
-23.829
 20
-302.034
 21
-301.886
  0
LINE
  8
0
 10
-23.829
 11
-23.458
 20
-301.886
 21
-301.773
  0
LINE
  8
0
 10
-23.458
 11
-23.079
 20
-301.773
 21
-301.698
  0
LINE
  8
0
 10
-23.079
 11
-22.694
 20
-301.698
 21
-301.66
  0
LINE
  8
0
 10
-22.694
 11
-22.306
 20
-301.66
 21
-301.66
  0
LINE
  8
0
 10
-22.306
 11
-21.921
 20
-301.66
 21
-301.698
  0
LINE
  8
0
 10
-21.921
 11
-21.542
 20
-301.698
 21
-301.773
  0
LINE
  8
0
 10
-21.542
 11
-21.171
 20
-301.773
 21
-301.886
  0
LINE
  8
0
 10
-21.171
 11
-20.813
 20
-301.886
 21
-302.034
  0
LINE
  8
0
 10
-20.813
 11
-20.472
 20
-302.034
 21
-302.216
  0
LINE
  8
0
 10
-20.472
 11
-20.15
 20
-302.216
 21
-302.432
  0
LINE
  8
0
 10
-20.15
 11
-19.851
 20
-302.432
 21
-302.677
  0
LINE
  8
0
 10
-19.851
 11
-19.577
 20
-302.677
 21
-302.951
  0
LINE
  8
0
 10
-19.577
 11
-19.332
 20
-302.951
 21
-303.25
  0
LINE
  8
0
 10
-19.332
 11
-19.116
 20
-303.25
 21
-303.572
  0
LINE
  8
0
 10
-19.116
 11
-18.934
 20
-303.572
 21
-303.913
  0
LINE
  8
0
 10
-18.934
 11
-18.786
 20
-303.913
 21
-304.271
  0
LINE
  8
0
 10
-18.786
 11
-18.673
 20
-304.271
 21
-304.642
  0
LINE
  8
0
 10
-18.673
 11
-18.598
 20
-304.642
 21
-305.021
  0
LINE
  8
0
 10
-18.598
 11
-18.56
 20
-305.021
 21
-305.406
  0
LINE
  8
0
 10
-18.56
 11
-18.56
 20
-305.406
 21
-305.794
  0
LINE
  8
0
 10
-18.56
 11
-18.598
 20
-305.794
 21
-306.179
  0
LINE
  8
0
 10
-18.598
 11
-18.673
 20
-306.179
 21
-306.558
  0
LINE
  8
0
 10
-18.673
 11
-18.786
 20
-306.558
 21
-306.929
  0
LINE
  8
0
 10
-18.786
 11
-18.934
 20
-306.929
 21
-307.287
  0
LINE
  8
0
 10
-18.934
 11
-19.116
 20
-307.287
 21
-307.628
  0
LINE
  8
0
 10
-19.116
 11
-19.332
 20
-307.628
 21
-307.95
  0
LINE
  8
0
 10
-19.332
 11
-19.577
 20
-307.95
 21
-308.249
  0
LINE
  8
0
 10
-19.577
 11
-19.851
 20
-308.249
 21
-308.523
  0
LINE
  8
0
 10
-19.851
 11
-20.15
 20
-308.523
 21
-308.768
  0
LINE
  8
0
 10
-20.15
 11
-20.472
 20
-308.768
 21
-308.984
  0
LINE
  8
0
 10
-20.472
 11
-20.813
 20
-308.984
 21
-309.166
  0
LINE
  8
0
 10
-20.813
 11
-21.171
 20
-309.166
 21
-309.314
  0
LINE
  8
0
 10
-21.171
 11
-21.542
 20
-309.314
 21
-309.427
  0
LINE
  8
0
 10
-21.542
 11
-21.921
 20
-309.427
 21
-309.502
  0
LINE
  8
0
 10
-21.921
 11
-22.306
 20
-309.502
 21
-309.54
  0
LINE
  8
0
 10
-22.306
 11
-22.694
 20
-309.54
 21
-309.54
  0
LINE
  8
0
 10
-22.694
 11
-23.079
 20
-309.54
 21
-309.502
  0
LINE
  8
0
 10
-23.079
 11
-23.458
 20
-309.502
 21
-309.427
  0
LINE
  8
0
 10
-23.458
 11
-23.829
 20
-309.427
 21
-309.314
  0
LINE
  8
0
 10
-23.829
 11
-24.187
 20
-309.314
 21
-309.166
  0
LINE
  8
0
 10
-24.187
 11
-24.528
 20
-309.166
 21
-308.984
  0
LINE
  8
0
 10
-24.528
 11
-24.85
 20
-308.984
 21
-308.768
  0
LINE
  8
0
 10
-24.85
 11
-25.149
 20
-308.768
 21
-308.523
  0
LINE
  8
0
 10
-25.149
 11
-25.423
 20
-308.523
 21
-308.249
  0
LINE
  8
0
 10
-25.423
 11
-25.668
 20
-308.249
 21
-307.95
  0
LINE
  8
0
 10
-25.668
 11
-25.884
 20
-307.95
 21
-307.628
  0
LINE
  8
0
 10
-25.884
 11
-26.066
 20
-307.628
 21
-307.287
  0
LINE
  8
0
 10
-26.066
 11
-26.214
 20
-307.287
 21
-306.929
  0
LINE
  8
0
 10
-26.214
 11
-26.327
 20
-306.929
 21
-306.558
  0
LINE
  8
0
 10
-26.327
 11
-26.402
 20
-306.558
 21
-306.179
  0
LINE
  8
0
 10
-26.402
 11
-26.44
 20
-306.179
 21
-305.794
  0
LINE
  8
0
 10
-11.025
 11
-11.025
 20
-310.09
 21
-302.11
  0
LINE
  8
0
 10
-11.025
 11
-4.475
 20
-302.11
 21
-302.11
  0
LINE
  8
0
 10
-4.475
 11
-4.475
 20
-302.11
 21
-310.09
  0
LINE
  8
0
 10
-4.475
 11
-11.025
 20
-310.09
 21
-310.09
  0
LINE
  8
0
 10
-11.025
 11
-11.025
 20
-282.09
 21
-274.11
  0
LINE
  8
0
 10
-11.025
 11
-4.475
 20
-274.11
 21
-274.11
  0
LINE
  8
0
 10
-4.475
 11
-4.475
 20
-274.11
 21
-282.09
  0
LINE
  8
0
 10
-4.475
 11
-11.025
 20
-282.09
 21
-282.09
  0
LINE
  8
0
 10
-11.025
 11
-11.025
 20
-191.04
 21
-183.06
  0
LINE
  8
0
 10
-11.025
 11
-4.475
 20
-183.06
 21
-183.06
  0
LINE
  8
0
 10
-4.475
 11
-4.475
 20
-183.06
 21
-191.04
  0
LINE
  8
0
 10
-4.475
 11
-11.025
 20
-191.04
 21
-191.04
  0
LINE
  8
0
 10
-11.025
 11
-11.025
 20
-163.04
 21
-155.06
  0
LINE
  8
0
 10
-11.025
 11
-4.475
 20
-155.06
 21
-155.06
  0
LINE
  8
0
 10
-4.475
 11
-4.475
 20
-155.06
 21
-163.04
  0
LINE
  8
0
 10
-4.475
 11
-11.025
 20
-163.04
 21
-163.04
  0
LINE
  8
0
 10
-11.025
 11
-11.025
 20
-71.99
 21
-64.01
  0
LINE
  8
0
 10
-11.025
 11
-4.475
 20
-64.01
 21
-64.01
  0
LINE
  8
0
 10
-4.475
 11
-4.475
 20
-64.01
 21
-71.99
  0
LINE
  8
0
 10
-4.475
 11
-11.025
 20
-71.99
 21
-71.99
  0
LINE
  8
0
 10
-11.025
 11
-11.025
 20
-43.99
 21
-36.01
  0
LINE
  8
0
 10
-11.025
 11
-4.475
 20
-36.01
 21
-36.01
  0
LINE
  8
0
 10
-4.475
 11
-4.475
 20
-36.01
 21
-43.99
  0
LINE
  8
0
 10
-4.475
 11
-11.025
 20
-43.99
 21
-43.99
  0
LINE
  8
0
 10
-9.15
 11
-9.15
 20
-292.68
 21
-291.52
  0
LINE
  8
0
 10
-9.15
 11
-8.33
 20
-291.52
 21
-290.7
  0
LINE
  8
0
 10
-8.33
 11
-7.17
 20
-290.7
 21
-290.7
  0
LINE
  8
0
 10
-7.17
 11
-6.35
 20
-290.7
 21
-291.52
  0
LINE
  8
0
 10
-6.35
 11
-6.35
 20
-291.52
 21
-292.68
  0
LINE
  8
0
 10
-6.35
 11
-7.17
 20
-292.68
 21
-293.5
  0
LINE
  8
0
 10
-7.17
 11
-8.33
 20
-293.5
 21
-293.5
  0
LINE
  8
0
 10
-8.33
 11
-9.15
 20
-293.5
 21
-292.68
  0
LINE
  8
0
 10
-9.15
 11
-9.15
 20
-173.63
 21
-172.47
  0
LINE
  8
0
 10
-9.15
 11
-8.33
 20
-172.47
 21
-171.65
  0
LINE
  8
0
 10
-8.33
 11
-7.17
 20
-171.65
 21
-171.65
  0
LINE
  8
0
 10
-7.17
 11
-6.35
 20
-171.65
 21
-172.47
  0
LINE
  8
0
 10
-6.35
 11
-6.35
 20
-172.47
 21
-173.63
  0
LINE
  8
0
 10
-6.35
 11
-7.17
 20
-173.63
 21
-174.45
  0
LINE
  8
0
 10
-7.17
 11
-8.33
 20
-174.45
 21
-174.45
  0
LINE
  8
0
 10
-8.33
 11
-9.15
 20
-174.45
 21
-173.63
  0
LINE
  8
0
 10
-9.15
 11
-9.15
 20
-54.58
 21
-53.42
  0
LINE
  8
0
 10
-9.15
 11
-8.33
 20
-53.42
 21
-52.6
  0
LINE
  8
0
 10
-8.33
 11
-7.17
 20
-52.6
 21
-52.6
  0
LINE
  8
0
 10
-7.17
 11
-6.35
 20
-52.6
 21
-53.42
  0
LINE
  8
0
 10
-6.35
 11
-6.35
 20
-53.42
 21
-54.58
  0
LINE
  8
0
 10
-6.35
 11
-7.17
 20
-54.58
 21
-55.4
  0
LINE
  8
0
 10
-7.17
 11
-8.33
 20
-55.4
 21
-55.4
  0
LINE
  8
0
 10
-8.33
 11
-9.15
 20
-55.4
 21
-54.58
  0
LINE
  8
0
 10
0.475
 11
0.475
 20
26.51
 21
34.49
  0
LINE
  8
0
 10
0.475
 11
7
 20
34.49
 21
34.49
  0
LINE
  8
0
 10
7
 11
7
 20
34.49
 21
43.11
  0
LINE
  8
0
 10
7
 11
11.23
 20
43.11
 21
43.11
  0
LINE
  8
0
 10
11.23
 11
11.23
 20
43.11
 21
41.76
  0
LINE
  8
0
 10
11.23
 11
13.22
 20
41.76
 21
41.76
  0
LINE
  8
0
 10
13.22
 11
13.22
 20
41.76
 21
43.11
  0
LINE
  8
0
 10
13.22
 11
15.45
 20
43.11
 21
43.11
  0
LINE
  8
0
 10
15.45
 11
15.45
 20
43.11
 21
45.89
  0
LINE
  8
0
 10
15.45
 11
13.22
 20
45.89
 21
45.89
  0
LINE
  8
0
 10
13.22
 11
13.22
 20
45.89
 21
47.24
  0
LINE
  8
0
 10
13.22
 11
11.23
 20
47.24
 21
47.24
  0
LINE
  8
0
 10
11.23
 11
11.23
 20
47.24
 21
45.89
  0
LINE
  8
0
 10
11.23
 11
7
 20
45.89
 21
45.89
  0
LINE
  8
0
 10
7
 11
7
 20
45.89
 21
54.51
  0
LINE
  8
0
 10
7
 11
0.475
 20
54.51
 21
54.51
  0
LINE
  8
0
 10
0.475
 11
0.475
 20
54.51
 21
62.49
  0
LINE
  8
0
 10
0.475
 11
7
 20
62.49
 21
62.49
  0
LINE
  8
0
 10
7
 11
7
 20
62.49
 21
187.51
  0
LINE
  8
0
 10
7
 11
0.475
 20
187.51
 21
187.51
  0
LINE
  8
0
 10
0.475
 11
0.475
 20
187.51
 21
195.49
  0
LINE
  8
0
 10
0.475
 11
7
 20
195.49
 21
195.49
  0
LINE
  8
0
 10
7
 11
7
 20
195.49
 21
204.11
  0
LINE
  8
0
 10
7
 11
11.23
 20
204.11
 21
204.11
  0
LINE
  8
0
 10
11.23
 11
11.23
 20
204.11
 21
202.76
  0
LINE
  8
0
 10
11.23
 11
13.22
 20
202.76
 21
202.76
  0
LINE
  8
0
 10
13.22
 11
13.22
 20
202.76
 21
204.11
  0
LINE
  8
0
 10
13.22
 11
15.45
 20
204.11
 21
204.11
  0
LINE
  8
0
 10
15.45
 11
15.45
 20
204.11
 21
206.89
  0
LINE
  8
0
 10
15.45
 11
13.22
 20
206.89
 21
206.89
  0
LINE
  8
0
 10
13.22
 11
13.22
 20
206.89
 21
208.24
  0
LINE
  8
0
 10
13.22
 11
11.23
 20
208.24
 21
208.24
  0
LINE
  8
0
 10
11.23
 11
11.23
 20
208.24
 21
206.89
  0
LINE
  8
0
 10
11.23
 11
7
 20
206.89
 21
206.89
  0
LINE
  8
0
 10
7
 11
7
 20
206.89
 21
215.51
  0
LINE
  8
0
 10
7
 11
0.475
 20
215.51
 21
215.51
  0
LINE
  8
0
 10
0.475
 11
0.475
 20
215.51
 21
223.49
  0
LINE
  8
0
 10
0.475
 11
7
 20
223.49
 21
223.49
  0
LINE
  8
0
 10
7
 11
7
 20
223.49
 21
231.5
  0
LINE
  8
0
 10
7
 11
15.01
 20
231.5
 21
231.5
  0
LINE
  8
0
 10
15.01
 11
15.01
 20
231.5
 21
238.025
  0
LINE
  8
0
 10
15.01
 11
22.99
 20
238.025
 21
238.025
  0
LINE
  8
0
 10
22.99
 11
22.99
 20
238.025
 21
231.5
  0
LINE
  8
0
 10
22.99
 11
31.61
 20
231.5
 21
231.5
  0
LINE
  8
0
 10
31.61
 11
31.61
 20
231.5
 21
227.27
  0
LINE
  8
0
 10
31.61
 11
30.26
 20
227.27
 21
227.27
  0
LINE
  8
0
 10
30.26
 11
30.26
 20
227.27
 21
225.28
  0
LINE
  8
0
 10
30.26
 11
31.61
 20
225.28
 21
225.28
  0
LINE
  8
0
 10
31.61
 11
31.61
 20
225.28
 21
223.05
  0
LINE
  8
0
 10
31.61
 11
34.39
 20
223.05
 21
223.05
  0
LINE
  8
0
 10
34.39
 11
34.39
 20
223.05
 21
225.28
  0
LINE
  8
0
 10
34.39
 11
35.74
 20
225.28
 21
225.28
  0
LINE
  8
0
 10
35.74
 11
35.74
 20
225.28
 21
227.27
  0
LINE
  8
0
 10
35.74
 11
34.39
 20
227.27
 21
227.27
  0
LINE
  8
0
 10
34.39
 11
34.39
 20
227.27
 21
231.5
  0
LINE
  8
0
 10
34.39
 11
43.01
 20
231.5
 21
231.5
  0
LINE
  8
0
 10
43.01
 11
43.01
 20
231.5
 21
238.025
  0
LINE
  8
0
 10
43.01
 11
50.99
 20
238.025
 21
238.025
  0
LINE
  8
0
 10
50.99
 11
50.99
 20
238.025
 21
231.5
  0
LINE
  8
0
 10
50.99
 11
129.01
 20
231.5
 21
231.5
  0
LINE
  8
0
 10
129.01
 11
129.01
 20
231.5
 21
238.025
  0
LINE
  8
0
 10
129.01
 11
136.99
 20
238.025
 21
238.025
  0
LINE
  8
0
 10
136.99
 11
136.99
 20
238.025
 21
231.5
  0
LINE
  8
0
 10
136.99
 11
145.61
 20
231.5
 21
231.5
  0
LINE
  8
0
 10
145.61
 11
145.61
 20
231.5
 21
227.27
  0
LINE
  8
0
 10
145.61
 11
144.26
 20
227.27
 21
227.27
  0
LINE
  8
0
 10
144.26
 11
144.26
 20
227.27
 21
225.28
  0
LINE
  8
0
 10
144.26
 11
145.61
 20
225.28
 21
225.28
  0
LINE
  8
0
 10
145.61
 11
145.61
 20
225.28
 21
223.05
  0
LINE
  8
0
 10
145.61
 11
148.39
 20
223.05
 21
223.05
  0
LINE
  8
0
 10
148.39
 11
148.39
 20
223.05
 21
225.28
  0
LINE
  8
0
 10
148.39
 11
149.74
 20
225.28
 21
225.28
  0
LINE
  8
0
 10
149.74
 11
149.74
 20
225.28
 21
227.27
  0
LINE
  8
0
 10
149.74
 11
148.39
 20
227.27
 21
227.27
  0
LINE
  8
0
 10
148.39
 11
148.39
 20
227.27
 21
231.5
  0
LINE
  8
0
 10
148.39
 11
157.01
 20
231.5
 21
231.5
  0
LINE
  8
0
 10
157.01
 11
157.01
 20
231.5
 21
238.025
  0
LINE
  8
0
 10
157.01
 11
164.99
 20
238.025
 21
238.025
  0
LINE
  8
0
 10
164.99
 11
164.99
 20
238.025
 21
231.5
  0
LINE
  8
0
 10
164.99
 11
243.01
 20
231.5
 21
231.5
  0
LINE
  8
0
 10
243.01
 11
243.01
 20
231.5
 21
238.025
  0
LINE
  8
0
 10
243.01
 11
250.99
 20
238.025
 21
238.025
  0
LINE
  8
0
 10
250.99
 11
250.99
 20
238.025
 21
231.5
  0
LINE
  8
0
 10
250.99
 11
259.61
 20
231.5
 21
231.5
  0
LINE
  8
0
 10
259.61
 11
259.61
 20
231.5
 21
227.27
  0
LINE
  8
0
 10
259.61
 11
258.26
 20
227.27
 21
227.27
  0
LINE
  8
0
 10
258.26
 11
258.26
 20
227.27
 21
225.28
  0
LINE
  8
0
 10
258.26
 11
259.61
 20
225.28
 21
225.28
  0
LINE
  8
0
 10
259.61
 11
259.61
 20
225.28
 21
223.05
  0
LINE
  8
0
 10
259.61
 11
262.39
 20
223.05
 21
223.05
  0
LINE
  8
0
 10
262.39
 11
262.39
 20
223.05
 21
225.28
  0
LINE
  8
0
 10
262.39
 11
263.74
 20
225.28
 21
225.28
  0
LINE
  8
0
 10
263.74
 11
263.74
 20
225.28
 21
227.27
  0
LINE
  8
0
 10
263.74
 11
262.39
 20
227.27
 21
227.27
  0
LINE
  8
0
 10
262.39
 11
262.39
 20
227.27
 21
231.5
  0
LINE
  8
0
 10
262.39
 11
271.01
 20
231.5
 21
231.5
  0
LINE
  8
0
 10
271.01
 11
271.01
 20
231.5
 21
238.025
  0
LINE
  8
0
 10
271.01
 11
278.99
 20
238.025
 21
238.025
  0
LINE
  8
0
 10
278.99
 11
278.99
 20
238.025
 21
231.5
  0
LINE
  8
0
 10
278.99
 11
287
 20
231.5
 21
231.5
  0
LINE
  8
0
 10
287
 11
287
 20
231.5
 21
223.49
  0
LINE
  8
0
 10
287
 11
293.525
 20
223.49
 21
223.49
  0
LINE
  8
0
 10
293.525
 11
293.525
 20
223.49
 21
215.51
  0
LINE
  8
0
 10
293.525
 11
287
 20
215.51
 21
215.51
  0
LINE
  8
0
 10
287
 11
287
 20
215.51
 21
206.89
  0
LINE
  8
0
 10
287
 11
282.77
 20
206.89
 21
206.89
  0
LINE
  8
0
 10
282.77
 11
282.77
 20
206.89
 21
208.24
  0
LINE
  8
0
 10
282.77
 11
280.78
 20
208.24
 21
208.24
  0
LINE
  8
0
 10
280.78
 11
280.78
 20
208.24
 21
206.89
  0
LINE
  8
0
 10
280.78
 11
278.55
 20
206.89
 21
206.89
  0
LINE
  8
0
 10
278.55
 11
278.55
 20
206.89
 21
204.11
  0
LINE
  8
0
 10
278.55
 11
280.78
 20
204.11
 21
204.11
  0
LINE
  8
0
 10
280.78
 11
280.78
 20
204.11
 21
202.76
  0
LINE
  8
0
 10
280.78
 11
282.77
 20
202.76
 21
202.76
  0
LINE
  8
0
 10
282.77
 11
282.77
 20
202.76
 21
204.11
  0
LINE
  8
0
 10
282.77
 11
287
 20
204.11
 21
204.11
  0
LINE
  8
0
 10
287
 11
287
 20
204.11
 21
195.49
  0
LINE
  8
0
 10
287
 11
293.525
 20
195.49
 21
195.49
  0
LINE
  8
0
 10
293.525
 11
293.525
 20
195.49
 21
187.51
  0
LINE
  8
0
 10
293.525
 11
287
 20
187.51
 21
187.51
  0
LINE
  8
0
 10
287
 11
287
 20
187.51
 21
62.49
  0
LINE
  8
0
 10
287
 11
293.525
 20
62.49
 21
62.49
  0
LINE
  8
0
 10
293.525
 11
293.525
 20
62.49
 21
54.51
  0
LINE
  8
0
 10
293.525
 11
287
 20
54.51
 21
54.51
  0
LINE
  8
0
 10
287
 11
287
 20
54.51
 21
45.89
  0
LINE
  8
0
 10
287
 11
282.77
 20
45.89
 21
45.89
  0
LINE
  8
0
 10
282.77
 11
282.77
 20
45.89
 21
47.24
  0
LINE
  8
0
 10
282.77
 11
280.78
 20
47.24
 21
47.24
  0
LINE
  8
0
 10
280.78
 11
280.78
 20
47.24
 21
45.89
  0
LINE
  8
0
 10
280.78
 11
278.55
 20
45.89
 21
45.89
  0
LINE
  8
0
 10
278.55
 11
278.55
 20
45.89
 21
43.11
  0
LINE
  8
0
 10
278.55
 11
280.78
 20
43.11
 21
43.11
  0
LINE
  8
0
 10
280.78
 11
280.78
 20
43.11
 21
41.76
  0
LINE
  8
0
 10
280.78
 11
282.77
 20
41.76
 21
41.76
  0
LINE
  8
0
 10
282.77
 11
282.77
 20
41.76
 21
43.11
  0
LINE
  8
0
 10
282.77
 11
287
 20
43.11
 21
43.11
  0
LINE
  8
0
 10
287
 11
287
 20
43.11
 21
34.49
  0
LINE
  8
0
 10
287
 11
293.525
 20
34.49
 21
34.49
  0
LINE
  8
0
 10
293.525
 11
293.525
 20
34.49
 21
26.51
  0
LINE
  8
0
 10
293.525
 11
287
 20
26.51
 21
26.51
  0
LINE
  8
0
 10
287
 11
287
 20
26.51
 21
18.5
  0
LINE
  8
0
 10
287
 11
278.99
 20
18.5
 21
18.5
  0
LINE
  8
0
 10
278.99
 11
278.99
 20
18.5
 21
11.975
  0
LINE
  8
0
 10
278.99
 11
271.01
 20
11.975
 21
11.975
  0
LINE
  8
0
 10
271.01
 11
271.01
 20
11.975
 21
18.5
  0
LINE
  8
0
 10
271.01
 11
262.39
 20
18.5
 21
18.5
  0
LINE
  8
0
 10
262.39
 11
262.39
 20
18.5
 21
22.73
  0
LINE
  8
0
 10
262.39
 11
263.74
 20
22.73
 21
22.73
  0
LINE
  8
0
 10
263.74
 11
263.74
 20
22.73
 21
24.72
  0
LINE
  8
0
 10
263.74
 11
262.39
 20
24.72
 21
24.72
  0
LINE
  8
0
 10
262.39
 11
262.39
 20
24.72
 21
26.95
  0
LINE
  8
0
 10
262.39
 11
259.61
 20
26.95
 21
26.95
  0
LINE
  8
0
 10
259.61
 11
259.61
 20
26.95
 21
24.72
  0
LINE
  8
0
 10
259.61
 11
258.26
 20
24.72
 21
24.72
  0
LINE
  8
0
 10
258.26
 11
258.26
 20
24.72
 21
22.73
  0
LINE
  8
0
 10
258.26
 11
259.61
 20
22.73
 21
22.73
  0
LINE
  8
0
 10
259.61
 11
259.61
 20
22.73
 21
18.5
  0
LINE
  8
0
 10
259.61
 11
250.99
 20
18.5
 21
18.5
  0
LINE
  8
0
 10
250.99
 11
250.99
 20
18.5
 21
11.975
  0
LINE
  8
0
 10
250.99
 11
243.01
 20
11.975
 21
11.975
  0
LINE
  8
0
 10
243.01
 11
243.01
 20
11.975
 21
18.5
  0
LINE
  8
0
 10
243.01
 11
164.99
 20
18.5
 21
18.5
  0
LINE
  8
0
 10
164.99
 11
164.99
 20
18.5
 21
11.975
  0
LINE
  8
0
 10
164.99
 11
157.01
 20
11.975
 21
11.975
  0
LINE
  8
0
 10
157.01
 11
157.01
 20
11.975
 21
18.5
  0
LINE
  8
0
 10
157.01
 11
148.39
 20
18.5
 21
18.5
  0
LINE
  8
0
 10
148.39
 11
148.39
 20
18.5
 21
22.73
  0
LINE
  8
0
 10
148.39
 11
149.74
 20
22.73
 21
22.73
  0
LINE
  8
0
 10
149.74
 11
149.74
 20
22.73
 21
24.72
  0
LINE
  8
0
 10
149.74
 11
148.39
 20
24.72
 21
24.72
  0
LINE
  8
0
 10
148.39
 11
148.39
 20
24.72
 21
26.95
  0
LINE
  8
0
 10
148.39
 11
145.61
 20
26.95
 21
26.95
  0
LINE
  8
0
 10
145.61
 11
145.61
 20
26.95
 21
24.72
  0
LINE
  8
0
 10
145.61
 11
144.26
 20
24.72
 21
24.72
  0
LINE
  8
0
 10
144.26
 11
144.26
 20
24.72
 21
22.73
  0
LINE
  8
0
 10
144.26
 11
145.61
 20
22.73
 21
22.73
  0
LINE
  8
0
 10
145.61
 11
145.61
 20
22.73
 21
18.5
  0
LINE
  8
0
 10
145.61
 11
136.99
 20
18.5
 21
18.5
  0
LINE
  8
0
 10
136.99
 11
136.99
 20
18.5
 21
11.975
  0
LINE
  8
0
 10
136.99
 11
129.01
 20
11.975
 21
11.975
  0
LINE
  8
0
 10
129.01
 11
129.01
 20
11.975
 21
18.5
  0
LINE
  8
0
 10
129.01
 11
50.99
 20
18.5
 21
18.5
  0
LINE
  8
0
 10
50.99
 11
50.99
 20
18.5
 21
11.975
  0
LINE
  8
0
 10
50.99
 11
43.01
 20
11.975
 21
11.975
  0
LINE
  8
0
 10
43.01
 11
43.01
 20
11.975
 21
18.5
  0
LINE
  8
0
 10
43.01
 11
34.39
 20
18.5
 21
18.5
  0
LINE
  8
0
 10
34.39
 11
34.39
 20
18.5
 21
22.73
  0
LINE
  8
0
 10
34.39
 11
35.74
 20
22.73
 21
22.73
  0
LINE
  8
0
 10
35.74
 11
35.74
 20
22.73
 21
24.72
  0
LINE
  8
0
 10
35.74
 11
34.39
 20
24.72
 21
24.72
  0
LINE
  8
0
 10
34.39
 11
34.39
 20
24.72
 21
26.95
  0
LINE
  8
0
 10
34.39
 11
31.61
 20
26.95
 21
26.95
  0
LINE
  8
0
 10
31.61
 11
31.61
 20
26.95
 21
24.72
  0
LINE
  8
0
 10
31.61
 11
30.26
 20
24.72
 21
24.72
  0
LINE
  8
0
 10
30.26
 11
30.26
 20
24.72
 21
22.73
  0
LINE
  8
0
 10
30.26
 11
31.61
 20
22.73
 21
22.73
  0
LINE
  8
0
 10
31.61
 11
31.61
 20
22.73
 21
18.5
  0
LINE
  8
0
 10
31.61
 11
22.99
 20
18.5
 21
18.5
  0
LINE
  8
0
 10
22.99
 11
22.99
 20
18.5
 21
11.975
  0
LINE
  8
0
 10
22.99
 11
15.01
 20
11.975
 21
11.975
  0
LINE
  8
0
 10
15.01
 11
15.01
 20
11.975
 21
18.5
  0
LINE
  8
0
 10
15.01
 11
7
 20
18.5
 21
18.5
  0
LINE
  8
0
 10
7
 11
7
 20
18.5
 21
26.51
  0
LINE
  8
0
 10
7
 11
0.475
 20
26.51
 21
26.51
  0
LINE
  8
0
 10
0.5
 11
0.5
 20
-318.1
 21
-17.5
  0
LINE
  8
0
 10
0.5
 11
301.5
 20
-17.5
 21
-17.5
  0
LINE
  8
0
 10
301.5
 11
301.5
 20
-17.5
 21
-318.1
  0
LINE
  8
0
 10
301.5
 11
0.5
 20
-318.1
 21
-318.1
  0
LINE
  8
0
 10
1
 11
1
 20
245.5
 21
458.5
  0
LINE
  8
0
 10
1
 11
9.01
 20
458.5
 21
458.5
  0
LINE
  8
0
 10
9.01
 11
9.01
 20
458.5
 21
465.025
  0
LINE
  8
0
 10
9.01
 11
16.99
 20
465.025
 21
465.025
  0
LINE
  8
0
 10
16.99
 11
16.99
 20
465.025
 21
458.5
  0
LINE
  8
0
 10
16.99
 11
25.61
 20
458.5
 21
458.5
  0
LINE
  8
0
 10
25.61
 11
25.61
 20
458.5
 21
454.27
  0
LINE
  8
0
 10
25.61
 11
24.26
 20
454.27
 21
454.27
  0
LINE
  8
0
 10
24.26
 11
24.26
 20
454.27
 21
452.28
  0
LINE
  8
0
 10
24.26
 11
25.61
 20
452.28
 21
452.28
  0
LINE
  8
0
 10
25.61
 11
25.61
 20
452.28
 21
450.05
  0
LINE
  8
0
 10
25.61
 11
28.39
 20
450.05
 21
450.05
  0
LINE
  8
0
 10
28.39
 11
28.39
 20
450.05
 21
452.28
  0
LINE
  8
0
 10
28.39
 11
29.74
 20
452.28
 21
452.28
  0
LINE
  8
0
 10
29.74
 11
29.74
 20
452.28
 21
454.27
  0
LINE
  8
0
 10
29.74
 11
28.39
 20
454.27
 21
454.27
  0
LINE
  8
0
 10
28.39
 11
28.39
 20
454.27
 21
458.5
  0
LINE
  8
0
 10
28.39
 11
37.01
 20
458.5
 21
458.5
  0
LINE
  8
0
 10
37.01
 11
37.01
 20
458.5
 21
465.025
  0
LINE
  8
0
 10
37.01
 11
44.99
 20
465.025
 21
465.025
  0
LINE
  8
0
 10
44.99
 11
44.99
 20
465.025
 21
458.5
  0
LINE
  8
0
 10
44.99
 11
128.06
 20
458.5
 21
458.5
  0
LINE
  8
0
 10
128.06
 11
128.06
 20
458.5
 21
465.025
  0
LINE
  8
0
 10
128.06
 11
136.04
 20
465.025
 21
465.025
  0
LINE
  8
0
 10
136.04
 11
136.04
 20
465.025
 21
458.5
  0
LINE
  8
0
 10
136.04
 11
144.66
 20
458.5
 21
458.5
  0
LINE
  8
0
 10
144.66
 11
144.66
 20
458.5
 21
454.27
  0
LINE
  8
0
 10
144.66
 11
143.31
 20
454.27
 21
454.27
  0
LINE
  8
0
 10
143.31
 11
143.31
 20
454.27
 21
452.28
  0
LINE
  8
0
 10
143.31
 11
144.66
 20
452.28
 21
452.28
  0
LINE
  8
0
 10
144.66
 11
144.66
 20
452.28
 21
450.05
  0
LINE
  8
0
 10
144.66
 11
147.44
 20
450.05
 21
450.05
  0
LINE
  8
0
 10
147.44
 11
147.44
 20
450.05
 21
452.28
  0
LINE
  8
0
 10
147.44
 11
148.79
 20
452.28
 21
452.28
  0
LINE
  8
0
 10
148.79
 11
148.79
 20
452.28
 21
454.27
  0
LINE
  8
0
 10
148.79
 11
147.44
 20
454.27
 21
454.27
  0
LINE
  8
0
 10
147.44
 11
147.44
 20
454.27
 21
458.5
  0
LINE
  8
0
 10
147.44
 11
156.06
 20
458.5
 21
458.5
  0
LINE
  8
0
 10
156.06
 11
156.06
 20
458.5
 21
465.025
  0
LINE
  8
0
 10
156.06
 11
164.04
 20
465.025
 21
465.025
  0
LINE
  8
0
 10
164.04
 11
164.04
 20
465.025
 21
458.5
  0
LINE
  8
0
 10
164.04
 11
247.11
 20
458.5
 21
458.5
  0
LINE
  8
0
 10
247.11
 11
247.11
 20
458.5
 21
465.025
  0
LINE
  8
0
 10
247.11
 11
255.09
 20
465.025
 21
465.025
  0
LINE
  8
0
 10
255.09
 11
255.09
 20
465.025
 21
458.5
  0
LINE
  8
0
 10
255.09
 11
263.71
 20
458.5
 21
458.5
  0
LINE
  8
0
 10
263.71
 11
263.71
 20
458.5
 21
454.27
  0
LINE
  8
0
 10
263.71
 11
262.36
 20
454.27
 21
454.27
  0
LINE
  8
0
 10
262.36
 11
262.36
 20
454.27
 21
452.28
  0
LINE
  8
0
 10
262.36
 11
263.71
 20
452.28
 21
452.28
  0
LINE
  8
0
 10
263.71
 11
263.71
 20
452.28
 21
450.05
  0
LINE
  8
0
 10
263.71
 11
266.49
 20
450.05
 21
450.05
  0
LINE
  8
0
 10
266.49
 11
266.49
 20
450.05
 21
452.28
  0
LINE
  8
0
 10
266.49
 11
267.84
 20
452.28
 21
452.28
  0
LINE
  8
0
 10
267.84
 11
267.84
 20
452.28
 21
454.27
  0
LINE
  8
0
 10
267.84
 11
266.49
 20
454.27
 21
454.27
  0
LINE
  8
0
 10
266.49
 11
266.49
 20
454.27
 21
458.5
  0
LINE
  8
0
 10
266.49
 11
275.11
 20
458.5
 21
458.5
  0
LINE
  8
0
 10
275.11
 11
275.11
 20
458.5
 21
465.025
  0
LINE
  8
0
 10
275.11
 11
283.09
 20
465.025
 21
465.025
  0
LINE
  8
0
 10
283.09
 11
283.09
 20
465.025
 21
458.5
  0
LINE
  8
0
 10
283.09
 11
301.6
 20
458.5
 21
458.5
  0
LINE
  8
0
 10
301.6
 11
301.6
 20
458.5
 21
245.5
  0
LINE
  8
0
 10
301.6
 11
283.09
 20
245.5
 21
245.5
  0
LINE
  8
0
 10
283.09
 11
283.09
 20
245.5
 21
238.975
  0
LINE
  8
0
 10
283.09
 11
275.11
 20
238.975
 21
238.975
  0
LINE
  8
0
 10
275.11
 11
275.11
 20
238.975
 21
245.5
  0
LINE
  8
0
 10
275.11
 11
266.49
 20
245.5
 21
245.5
  0
LINE
  8
0
 10
266.49
 11
266.49
 20
245.5
 21
249.73
  0
LINE
  8
0
 10
266.49
 11
267.84
 20
249.73
 21
249.73
  0
LINE
  8
0
 10
267.84
 11
267.84
 20
249.73
 21
251.72
  0
LINE
  8
0
 10
267.84
 11
266.49
 20
251.72
 21
251.72
  0
LINE
  8
0
 10
266.49
 11
266.49
 20
251.72
 21
253.95
  0
LINE
  8
0
 10
266.49
 11
263.71
 20
253.95
 21
253.95
  0
LINE
  8
0
 10
263.71
 11
263.71
 20
253.95
 21
251.72
  0
LINE
  8
0
 10
263.71
 11
262.36
 20
251.72
 21
251.72
  0
LINE
  8
0
 10
262.36
 11
262.36
 20
251.72
 21
249.73
  0
LINE
  8
0
 10
262.36
 11
263.71
 20
249.73
 21
249.73
  0
LINE
  8
0
 10
263.71
 11
263.71
 20
249.73
 21
245.5
  0
LINE
  8
0
 10
263.71
 11
255.09
 20
245.5
 21
245.5
  0
LINE
  8
0
 10
255.09
 11
255.09
 20
245.5
 21
238.975
  0
LINE
  8
0
 10
255.09
 11
247.11
 20
238.975
 21
238.975
  0
LINE
  8
0
 10
247.11
 11
247.11
 20
238.975
 21
245.5
  0
LINE
  8
0
 10
247.11
 11
164.04
 20
245.5
 21
245.5
  0
LINE
  8
0
 10
164.04
 11
164.04
 20
245.5
 21
238.975
  0
LINE
  8
0
 10
164.04
 11
156.06
 20
238.975
 21
238.975
  0
LINE
  8
0
 10
156.06
 11
156.06
 20
238.975
 21
245.5
  0
LINE
  8
0
 10
156.06
 11
147.44
 20
245.5
 21
245.5
  0
LINE
  8
0
 10
147.44
 11
147.44
 20
245.5
 21
249.73
  0
LINE
  8
0
 10
147.44
 11
148.79
 20
249.73
 21
249.73
  0
LINE
  8
0
 10
148.79
 11
148.79
 20
249.73
 21
251.72
  0
LINE
  8
0
 10
148.79
 11
147.44
 20
251.72
 21
251.72
  0
LINE
  8
0
 10
147.44
 11
147.44
 20
251.72
 21
253.95
  0
LINE
  8
0
 10
147.44
 11
144.66
 20
253.95
 21
253.95
  0
LINE
  8
0
 10
144.66
 11
144.66
 20
253.95
 21
251.72
  0
LINE
  8
0
 10
144.66
 11
143.31
 20
251.72
 21
251.72
  0
LINE
  8
0
 10
143.31
 11
143.31
 20
251.72
 21
249.73
  0
LINE
  8
0
 10
143.31
 11
144.66
 20
249.73
 21
249.73
  0
LINE
  8
0
 10
144.66
 11
144.66
 20
249.73
 21
245.5
  0
LINE
  8
0
 10
144.66
 11
136.04
 20
245.5
 21
245.5
  0
LINE
  8
0
 10
136.04
 11
136.04
 20
245.5
 21
238.975
  0
LINE
  8
0
 10
136.04
 11
128.06
 20
238.975
 21
238.975
  0
LINE
  8
0
 10
128.06
 11
128.06
 20
238.975
 21
245.5
  0
LINE
  8
0
 10
128.06
 11
44.99
 20
245.5
 21
245.5
  0
LINE
  8
0
 10
44.99
 11
44.99
 20
245.5
 21
238.975
  0
LINE
  8
0
 10
44.99
 11
37.01
 20
238.975
 21
238.975
  0
LINE
  8
0
 10
37.01
 11
37.01
 20
238.975
 21
245.5
  0
LINE
  8
0
 10
37.01
 11
28.39
 20
245.5
 21
245.5
  0
LINE
  8
0
 10
28.39
 11
28.39
 20
245.5
 21
249.73
  0
LINE
  8
0
 10
28.39
 11
29.74
 20
249.73
 21
249.73
  0
LINE
  8
0
 10
29.74
 11
29.74
 20
249.73
 21
251.72
  0
LINE
  8
0
 10
29.74
 11
28.39
 20
251.72
 21
251.72
  0
LINE
  8
0
 10
28.39
 11
28.39
 20
251.72
 21
253.95
  0
LINE
  8
0
 10
28.39
 11
25.61
 20
253.95
 21
253.95
  0
LINE
  8
0
 10
25.61
 11
25.61
 20
253.95
 21
251.72
  0
LINE
  8
0
 10
25.61
 11
24.26
 20
251.72
 21
251.72
  0
LINE
  8
0
 10
24.26
 11
24.26
 20
251.72
 21
249.73
  0
LINE
  8
0
 10
24.26
 11
25.61
 20
249.73
 21
249.73
  0
LINE
  8
0
 10
25.61
 11
25.61
 20
249.73
 21
245.5
  0
LINE
  8
0
 10
25.61
 11
16.99
 20
245.5
 21
245.5
  0
LINE
  8
0
 10
16.99
 11
16.99
 20
245.5
 21
238.975
  0
LINE
  8
0
 10
16.99
 11
9.01
 20
238.975
 21
238.975
  0
LINE
  8
0
 10
9.01
 11
9.01
 20
238.975
 21
245.5
  0
LINE
  8
0
 10
9.01
 11
1
 20
245.5
 21
245.5
  0
LINE
  8
0
 10
4.475
 11
4.475
 20
-310.09
 21
-302.11
  0
LINE
  8
0
 10
4.475
 11
11.025
 20
-302.11
 21
-302.11
  0
LINE
  8
0
 10
11.025
 11
11.025
 20
-302.11
 21
-310.09
  0
LINE
  8
0
 10
11.025
 11
4.475
 20
-310.09
 21
-310.09
  0
LINE
  8
0
 10
4.475
 11
4.475
 20
-282.09
 21
-274.11
  0
LINE
  8
0
 10
4.475
 11
11.025
 20
-274.11
 21
-274.11
  0
LINE
  8
0
 10
11.025
 11
11.025
 20
-274.11
 21
-282.09
  0
LINE
  8
0
 10
11.025
 11
4.475
 20
-282.09
 21
-282.09
  0
LINE
  8
0
 10
4.475
 11
4.475
 20
-191.04
 21
-183.06
  0
LINE
  8
0
 10
4.475
 11
11.025
 20
-183.06
 21
-183.06
  0
LINE
  8
0
 10
11.025
 11
11.025
 20
-183.06
 21
-191.04
  0
LINE
  8
0
 10
11.025
 11
4.475
 20
-191.04
 21
-191.04
  0
LINE
  8
0
 10
4.475
 11
4.475
 20
-163.04
 21
-155.06
  0
LINE
  8
0
 10
4.475
 11
11.025
 20
-155.06
 21
-155.06
  0
LINE
  8
0
 10
11.025
 11
11.025
 20
-155.06
 21
-163.04
  0
LINE
  8
0
 10
11.025
 11
4.475
 20
-163.04
 21
-163.04
  0
LINE
  8
0
 10
4.475
 11
4.475
 20
-71.99
 21
-64.01
  0
LINE
  8
0
 10
4.475
 11
11.025
 20
-64.01
 21
-64.01
  0
LINE
  8
0
 10
11.025
 11
11.025
 20
-64.01
 21
-71.99
  0
LINE
  8
0
 10
11.025
 11
4.475
 20
-71.99
 21
-71.99
  0
LINE
  8
0
 10
4.475
 11
4.475
 20
-43.99
 21
-36.01
  0
LINE
  8
0
 10
4.475
 11
11.025
 20
-36.01
 21
-36.01
  0
LINE
  8
0
 10
11.025
 11
11.025
 20
-36.01
 21
-43.99
  0
LINE
  8
0
 10
11.025
 11
4.475
 20
-43.99
 21
-43.99
  0
LINE
  8
0
 10
6.35
 11
6.35
 20
-292.68
 21
-291.52
  0
LINE
  8
0
 10
6.35
 11
7.17
 20
-291.52
 21
-290.7
  0
LINE
  8
0
 10
7.17
 11
8.33
 20
-290.7
 21
-290.7
  0
LINE
  8
0
 10
8.33
 11
9.15
 20
-290.7
 21
-291.52
  0
LINE
  8
0
 10
9.15
 11
9.15
 20
-291.52
 21
-292.68
  0
LINE
  8
0
 10
9.15
 11
8.33
 20
-292.68
 21
-293.5
  0
LINE
  8
0
 10
8.33
 11
7.17
 20
-293.5
 21
-293.5
  0
LINE
  8
0
 10
7.17
 11
6.35
 20
-293.5
 21
-292.68
  0
LINE
  8
0
 10
6.35
 11
6.35
 20
-173.63
 21
-172.47
  0
LINE
  8
0
 10
6.35
 11
7.17
 20
-172.47
 21
-171.65
  0
LINE
  8
0
 10
7.17
 11
8.33
 20
-171.65
 21
-171.65
  0
LINE
  8
0
 10
8.33
 11
9.15
 20
-171.65
 21
-172.47
  0
LINE
  8
0
 10
9.15
 11
9.15
 20
-172.47
 21
-173.63
  0
LINE
  8
0
 10
9.15
 11
8.33
 20
-173.63
 21
-174.45
  0
LINE
  8
0
 10
8.33
 11
7.17
 20
-174.45
 21
-174.45
  0
LINE
  8
0
 10
7.17
 11
6.35
 20
-174.45
 21
-173.63
  0
LINE
  8
0
 10
6.35
 11
6.35
 20
-54.58
 21
-53.42
  0
LINE
  8
0
 10
6.35
 11
7.17
 20
-53.42
 21
-52.6
  0
LINE
  8
0
 10
7.17
 11
8.33
 20
-52.6
 21
-52.6
  0
LINE
  8
0
 10
8.33
 11
9.15
 20
-52.6
 21
-53.42
  0
LINE
  8
0
 10
9.15
 11
9.15
 20
-53.42
 21
-54.58
  0
LINE
  8
0
 10
9.15
 11
8.33
 20
-54.58
 21
-55.4
  0
LINE
  8
0
 10
8.33
 11
7.17
 20
-55.4
 21
-55.4
  0
LINE
  8
0
 10
7.17
 11
6.35
 20
-55.4
 21
-54.58
  0
LINE
  8
0
 10
17.5
 11
17.5
 20
-67.074
 21
-66.926
  0
LINE
  8
0
 10
17.5
 11
17.514
 20
-66.926
 21
-66.78
  0
LINE
  8
0
 10
17.514
 11
17.543
 20
-66.78
 21
-66.635
  0
LINE
  8
0
 10
17.543
 11
17.586
 20
-66.635
 21
-66.494
  0
LINE
  8
0
 10
17.586
 11
17.642
 20
-66.494
 21
-66.358
  0
LINE
  8
0
 10
17.642
 11
17.712
 20
-66.358
 21
-66.228
  0
LINE
  8
0
 10
17.712
 11
17.794
 20
-66.228
 21
-66.105
  0
LINE
  8
0
 10
17.794
 11
17.887
 20
-66.105
 21
-65.991
  0
LINE
  8
0
 10
17.887
 11
17.991
 20
-65.991
 21
-65.887
  0
LINE
  8
0
 10
17.991
 11
18.105
 20
-65.887
 21
-65.794
  0
LINE
  8
0
 10
18.105
 11
18.228
 20
-65.794
 21
-65.712
  0
LINE
  8
0
 10
18.228
 11
18.358
 20
-65.712
 21
-65.642
  0
LINE
  8
0
 10
18.358
 11
18.494
 20
-65.642
 21
-65.586
  0
LINE
  8
0
 10
18.494
 11
18.635
 20
-65.586
 21
-65.543
  0
LINE
  8
0
 10
18.635
 11
18.78
 20
-65.543
 21
-65.514
  0
LINE
  8
0
 10
18.78
 11
18.926
 20
-65.514
 21
-65.5
  0
LINE
  8
0
 10
18.926
 11
19.074
 20
-65.5
 21
-65.5
  0
LINE
  8
0
 10
19.074
 11
19.22
 20
-65.5
 21
-65.514
  0
LINE
  8
0
 10
19.22
 11
19.365
 20
-65.514
 21
-65.543
  0
LINE
  8
0
 10
19.365
 11
19.506
 20
-65.543
 21
-65.586
  0
LINE
  8
0
 10
19.506
 11
19.642
 20
-65.586
 21
-65.642
  0
LINE
  8
0
 10
19.642
 11
19.772
 20
-65.642
 21
-65.712
  0
LINE
  8
0
 10
19.772
 11
19.895
 20
-65.712
 21
-65.794
  0
LINE
  8
0
 10
19.895
 11
20.009
 20
-65.794
 21
-65.887
  0
LINE
  8
0
 10
20.009
 11
20.113
 20
-65.887
 21
-65.991
  0
LINE
  8
0
 10
20.113
 11
20.206
 20
-65.991
 21
-66.105
  0
LINE
  8
0
 10
20.206
 11
20.288
 20
-66.105
 21
-66.228
  0
LINE
  8
0
 10
20.288
 11
20.358
 20
-66.228
 21
-66.358
  0
LINE
  8
0
 10
20.358
 11
20.414
 20
-66.358
 21
-66.494
  0
LINE
  8
0
 10
20.414
 11
20.457
 20
-66.494
 21
-66.635
  0
LINE
  8
0
 10
20.457
 11
20.486
 20
-66.635
 21
-66.78
  0
LINE
  8
0
 10
20.486
 11
20.5
 20
-66.78
 21
-66.926
  0
LINE
  8
0
 10
20.5
 11
20.5
 20
-66.926
 21
-67.074
  0
LINE
  8
0
 10
20.5
 11
20.486
 20
-67.074
 21
-67.22
  0
LINE
  8
0
 10
20.486
 11
20.457
 20
-67.22
 21
-67.365
  0
LINE
  8
0
 10
20.457
 11
20.414
 20
-67.365
 21
-67.506
  0
LINE
  8
0
 10
20.414
 11
20.358
 20
-67.506
 21
-67.642
  0
LINE
  8
0
 10
20.358
 11
20.288
 20
-67.642
 21
-67.772
  0
LINE
  8
0
 10
20.288
 11
20.206
 20
-67.772
 21
-67.895
  0
LINE
  8
0
 10
20.206
 11
20.113
 20
-67.895
 21
-68.009
  0
LINE
  8
0
 10
20.113
 11
20.009
 20
-68.009
 21
-68.113
  0
LINE
  8
0
 10
20.009
 11
19.895
 20
-68.113
 21
-68.206
  0
LINE
  8
0
 10
19.895
 11
19.772
 20
-68.206
 21
-68.288
  0
LINE
  8
0
 10
19.772
 11
19.642
 20
-68.288
 21
-68.358
  0
LINE
  8
0
 10
19.642
 11
19.506
 20
-68.358
 21
-68.414
  0
LINE
  8
0
 10
19.506
 11
19.365
 20
-68.414
 21
-68.457
  0
LINE
  8
0
 10
19.365
 11
19.22
 20
-68.457
 21
-68.486
  0
LINE
  8
0
 10
19.22
 11
19.074
 20
-68.486
 21
-68.5
  0
LINE
  8
0
 10
19.074
 11
18.926
 20
-68.5
 21
-68.5
  0
LINE
  8
0
 10
18.926
 11
18.78
 20
-68.5
 21
-68.486
  0
LINE
  8
0
 10
18.78
 11
18.635
 20
-68.486
 21
-68.457
  0
LINE
  8
0
 10
18.635
 11
18.494
 20
-68.457
 21
-68.414
  0
LINE
  8
0
 10
18.494
 11
18.358
 20
-68.414
 21
-68.358
  0
LINE
  8
0
 10
18.358
 11
18.228
 20
-68.358
 21
-68.288
  0
LINE
  8
0
 10
18.228
 11
18.105
 20
-68.288
 21
-68.206
  0
LINE
  8
0
 10
18.105
 11
17.991
 20
-68.206
 21
-68.113
  0
LINE
  8
0
 10
17.991
 11
17.887
 20
-68.113
 21
-68.009
  0
LINE
  8
0
 10
17.887
 11
17.794
 20
-68.009
 21
-67.895
  0
LINE
  8
0
 10
17.794
 11
17.712
 20
-67.895
 21
-67.772
  0
LINE
  8
0
 10
17.712
 11
17.642
 20
-67.772
 21
-67.642
  0
LINE
  8
0
 10
17.642
 11
17.586
 20
-67.642
 21
-67.506
  0
LINE
  8
0
 10
17.586
 11
17.543
 20
-67.506
 21
-67.365
  0
LINE
  8
0
 10
17.543
 11
17.514
 20
-67.365
 21
-67.22
  0
LINE
  8
0
 10
17.514
 11
17.5
 20
-67.22
 21
-67.074
  0
LINE
  8
0
 10
17.5
 11
17.5
 20
-36.074
 21
-35.926
  0
LINE
  8
0
 10
17.5
 11
17.514
 20
-35.926
 21
-35.78
  0
LINE
  8
0
 10
17.514
 11
17.543
 20
-35.78
 21
-35.635
  0
LINE
  8
0
 10
17.543
 11
17.586
 20
-35.635
 21
-35.494
  0
LINE
  8
0
 10
17.586
 11
17.642
 20
-35.494
 21
-35.358
  0
LINE
  8
0
 10
17.642
 11
17.712
 20
-35.358
 21
-35.228
  0
LINE
  8
0
 10
17.712
 11
17.794
 20
-35.228
 21
-35.105
  0
LINE
  8
0
 10
17.794
 11
17.887
 20
-35.105
 21
-34.991
  0
LINE
  8
0
 10
17.887
 11
17.991
 20
-34.991
 21
-34.887
  0
LINE
  8
0
 10
17.991
 11
18.105
 20
-34.887
 21
-34.794
  0
LINE
  8
0
 10
18.105
 11
18.228
 20
-34.794
 21
-34.712
  0
LINE
  8
0
 10
18.228
 11
18.358
 20
-34.712
 21
-34.642
  0
LINE
  8
0
 10
18.358
 11
18.494
 20
-34.642
 21
-34.586
  0
LINE
  8
0
 10
18.494
 11
18.635
 20
-34.586
 21
-34.543
  0
LINE
  8
0
 10
18.635
 11
18.78
 20
-34.543
 21
-34.514
  0
LINE
  8
0
 10
18.78
 11
18.926
 20
-34.514
 21
-34.5
  0
LINE
  8
0
 10
18.926
 11
19.074
 20
-34.5
 21
-34.5
  0
LINE
  8
0
 10
19.074
 11
19.22
 20
-34.5
 21
-34.514
  0
LINE
  8
0
 10
19.22
 11
19.365
 20
-34.514
 21
-34.543
  0
LINE
  8
0
 10
19.365
 11
19.506
 20
-34.543
 21
-34.586
  0
LINE
  8
0
 10
19.506
 11
19.642
 20
-34.586
 21
-34.642
  0
LINE
  8
0
 10
19.642
 11
19.772
 20
-34.642
 21
-34.712
  0
LINE
  8
0
 10
19.772
 11
19.895
 20
-34.712
 21
-34.794
  0
LINE
  8
0
 10
19.895
 11
20.009
 20
-34.794
 21
-34.887
  0
LINE
  8
0
 10
20.009
 11
20.113
 20
-34.887
 21
-34.991
  0
LINE
  8
0
 10
20.113
 11
20.206
 20
-34.991
 21
-35.105
  0
LINE
  8
0
 10
20.206
 11
20.288
 20
-35.105
 21
-35.228
  0
LINE
  8
0
 10
20.288
 11
20.358
 20
-35.228
 21
-35.358
  0
LINE
  8
0
 10
20.358
 11
20.414
 20
-35.358
 21
-35.494
  0
LINE
  8
0
 10
20.414
 11
20.457
 20
-35.494
 21
-35.635
  0
LINE
  8
0
 10
20.457
 11
20.486
 20
-35.635
 21
-35.78
  0
LINE
  8
0
 10
20.486
 11
20.5
 20
-35.78
 21
-35.926
  0
LINE
  8
0
 10
20.5
 11
20.5
 20
-35.926
 21
-36.074
  0
LINE
  8
0
 10
20.5
 11
20.486
 20
-36.074
 21
-36.22
  0
LINE
  8
0
 10
20.486
 11
20.457
 20
-36.22
 21
-36.365
  0
LINE
  8
0
 10
20.457
 11
20.414
 20
-36.365
 21
-36.506
  0
LINE
  8
0
 10
20.414
 11
20.358
 20
-36.506
 21
-36.642
  0
LINE
  8
0
 10
20.358
 11
20.288
 20
-36.642
 21
-36.772
  0
LINE
  8
0
 10
20.288
 11
20.206
 20
-36.772
 21
-36.895
  0
LINE
  8
0
 10
20.206
 11
20.113
 20
-36.895
 21
-37.009
  0
LINE
  8
0
 10
20.113
 11
20.009
 20
-37.009
 21
-37.113
  0
LINE
  8
0
 10
20.009
 11
19.895
 20
-37.113
 21
-37.206
  0
LINE
  8
0
 10
19.895
 11
19.772
 20
-37.206
 21
-37.288
  0
LINE
  8
0
 10
19.772
 11
19.642
 20
-37.288
 21
-37.358
  0
LINE
  8
0
 10
19.642
 11
19.506
 20
-37.358
 21
-37.414
  0
LINE
  8
0
 10
19.506
 11
19.365
 20
-37.414
 21
-37.457
  0
LINE
  8
0
 10
19.365
 11
19.22
 20
-37.457
 21
-37.486
  0
LINE
  8
0
 10
19.22
 11
19.074
 20
-37.486
 21
-37.5
  0
LINE
  8
0
 10
19.074
 11
18.926
 20
-37.5
 21
-37.5
  0
LINE
  8
0
 10
18.926
 11
18.78
 20
-37.5
 21
-37.486
  0
LINE
  8
0
 10
18.78
 11
18.635
 20
-37.486
 21
-37.457
  0
LINE
  8
0
 10
18.635
 11
18.494
 20
-37.457
 21
-37.414
  0
LINE
  8
0
 10
18.494
 11
18.358
 20
-37.414
 21
-37.358
  0
LINE
  8
0
 10
18.358
 11
18.228
 20
-37.358
 21
-37.288
  0
LINE
  8
0
 10
18.228
 11
18.105
 20
-37.288
 21
-37.206
  0
LINE
  8
0
 10
18.105
 11
17.991
 20
-37.206
 21
-37.113
  0
LINE
  8
0
 10
17.991
 11
17.887
 20
-37.113
 21
-37.009
  0
LINE
  8
0
 10
17.887
 11
17.794
 20
-37.009
 21
-36.895
  0
LINE
  8
0
 10
17.794
 11
17.712
 20
-36.895
 21
-36.772
  0
LINE
  8
0
 10
17.712
 11
17.642
 20
-36.772
 21
-36.642
  0
LINE
  8
0
 10
17.642
 11
17.586
 20
-36.642
 21
-36.506
  0
LINE
  8
0
 10
17.586
 11
17.543
 20
-36.506
 21
-36.365
  0
LINE
  8
0
 10
17.543
 11
17.514
 20
-36.365
 21
-36.22
  0
LINE
  8
0
 10
17.514
 11
17.5
 20
-36.22
 21
-36.074
  0
LINE
  8
0
 10
18.56
 11
18.56
 20
-305.794
 21
-305.406
  0
LINE
  8
0
 10
18.56
 11
18.598
 20
-305.406
 21
-305.021
  0
LINE
  8
0
 10
18.598
 11
18.673
 20
-305.021
 21
-304.642
  0
LINE
  8
0
 10
18.673
 11
18.786
 20
-304.642
 21
-304.271
  0
LINE
  8
0
 10
18.786
 11
18.934
 20
-304.271
 21
-303.913
  0
LINE
  8
0
 10
18.934
 11
19.116
 20
-303.913
 21
-303.572
  0
LINE
  8
0
 10
19.116
 11
19.332
 20
-303.572
 21
-303.25
  0
LINE
  8
0
 10
19.332
 11
19.577
 20
-303.25
 21
-302.951
  0
LINE
  8
0
 10
19.577
 11
19.851
 20
-302.951
 21
-302.677
  0
LINE
  8
0
 10
19.851
 11
20.15
 20
-302.677
 21
-302.432
  0
LINE
  8
0
 10
20.15
 11
20.472
 20
-302.432
 21
-302.216
  0
LINE
  8
0
 10
20.472
 11
20.813
 20
-302.216
 21
-302.034
  0
LINE
  8
0
 10
20.813
 11
21.171
 20
-302.034
 21
-301.886
  0
LINE
  8
0
 10
21.171
 11
21.542
 20
-301.886
 21
-301.773
  0
LINE
  8
0
 10
21.542
 11
21.921
 20
-301.773
 21
-301.698
  0
LINE
  8
0
 10
21.921
 11
22.306
 20
-301.698
 21
-301.66
  0
LINE
  8
0
 10
22.306
 11
22.694
 20
-301.66
 21
-301.66
  0
LINE
  8
0
 10
22.694
 11
23.079
 20
-301.66
 21
-301.698
  0
LINE
  8
0
 10
23.079
 11
23.458
 20
-301.698
 21
-301.773
  0
LINE
  8
0
 10
23.458
 11
23.829
 20
-301.773
 21
-301.886
  0
LINE
  8
0
 10
23.829
 11
24.187
 20
-301.886
 21
-302.034
  0
LINE
  8
0
 10
24.187
 11
24.528
 20
-302.034
 21
-302.216
  0
LINE
  8
0
 10
24.528
 11
24.85
 20
-302.216
 21
-302.432
  0
LINE
  8
0
 10
24.85
 11
25.149
 20
-302.432
 21
-302.677
  0
LINE
  8
0
 10
25.149
 11
25.423
 20
-302.677
 21
-302.951
  0
LINE
  8
0
 10
25.423
 11
25.668
 20
-302.951
 21
-303.25
  0
LINE
  8
0
 10
25.668
 11
25.884
 20
-303.25
 21
-303.572
  0
LINE
  8
0
 10
25.884
 11
26.066
 20
-303.572
 21
-303.913
  0
LINE
  8
0
 10
26.066
 11
26.214
 20
-303.913
 21
-304.271
  0
LINE
  8
0
 10
26.214
 11
26.327
 20
-304.271
 21
-304.642
  0
LINE
  8
0
 10
26.327
 11
26.402
 20
-304.642
 21
-305.021
  0
LINE
  8
0
 10
26.402
 11
26.44
 20
-305.021
 21
-305.406
  0
LINE
  8
0
 10
26.44
 11
26.44
 20
-305.406
 21
-305.794
  0
LINE
  8
0
 10
26.44
 11
26.402
 20
-305.794
 21
-306.179
  0
LINE
  8
0
 10
26.402
 11
26.327
 20
-306.179
 21
-306.558
  0
LINE
  8
0
 10
26.327
 11
26.214
 20
-306.558
 21
-306.929
  0
LINE
  8
0
 10
26.214
 11
26.066
 20
-306.929
 21
-307.287
  0
LINE
  8
0
 10
26.066
 11
25.884
 20
-307.287
 21
-307.628
  0
LINE
  8
0
 10
25.884
 11
25.668
 20
-307.628
 21
-307.95
  0
LINE
  8
0
 10
25.668
 11
25.423
 20
-307.95
 21
-308.249
  0
LINE
  8
0
 10
25.423
 11
25.149
 20
-308.249
 21
-308.523
  0
LINE
  8
0
 10
25.149
 11
24.85
 20
-308.523
 21
-308.768
  0
LINE
  8
0
 10
24.85
 11
24.528
 20
-308.768
 21
-308.984
  0
LINE
  8
0
 10
24.528
 11
24.187
 20
-308.984
 21
-309.166
  0
LINE
  8
0
 10
24.187
 11
23.829
 20
-309.166
 21
-309.314
  0
LINE
  8
0
 10
23.829
 11
23.458
 20
-309.314
 21
-309.427
  0
LINE
  8
0
 10
23.458
 11
23.079
 20
-309.427
 21
-309.502
  0
LINE
  8
0
 10
23.079
 11
22.694
 20
-309.502
 21
-309.54
  0
LINE
  8
0
 10
22.694
 11
22.306
 20
-309.54
 21
-309.54
  0
LINE
  8
0
 10
22.306
 11
21.921
 20
-309.54
 21
-309.502
  0
LINE
  8
0
 10
21.921
 11
21.542
 20
-309.502
 21
-309.427
  0
LINE
  8
0
 10
21.542
 11
21.171
 20
-309.427
 21
-309.314
  0
LINE
  8
0
 10
21.171
 11
20.813
 20
-309.314
 21
-309.166
  0
LINE
  8
0
 10
20.813
 11
20.472
 20
-309.166
 21
-308.984
  0
LINE
  8
0
 10
20.472
 11
20.15
 20
-308.984
 21
-308.768
  0
LINE
  8
0
 10
20.15
 11
19.851
 20
-308.768
 21
-308.523
  0
LINE
  8
0
 10
19.851
 11
19.577
 20
-308.523
 21
-308.249
  0
LINE
  8
0
 10
19.577
 11
19.332
 20
-308.249
 21
-307.95
  0
LINE
  8
0
 10
19.332
 11
19.116
 20
-307.95
 21
-307.628
  0
LINE
  8
0
 10
19.116
 11
18.934
 20
-307.628
 21
-307.287
  0
LINE
  8
0
 10
18.934
 11
18.786
 20
-307.287
 21
-306.929
  0
LINE
  8
0
 10
18.786
 11
18.673
 20
-306.929
 21
-306.558
  0
LINE
  8
0
 10
18.673
 11
18.598
 20
-306.558
 21
-306.179
  0
LINE
  8
0
 10
18.598
 11
18.56
 20
-306.179
 21
-305.794
  0
LINE
  8
0
 10
19.01
 11
19.01
 20
-282.375
 21
-275.825
  0
LINE
  8
0
 10
19.01
 11
26.99
 20
-275.825
 21
-275.825
  0
LINE
  8
0
 10
26.99
 11
26.99
 20
-275.825
 21
-282.375
  0
LINE
  8
0
 10
26.99
 11
19.01
 20
-282.375
 21
-282.375
  0
LINE
  8
0
 10
19.01
 11
19.01
 20
-28.025
 21
-21.475
  0
LINE
  8
0
 10
19.01
 11
26.99
 20
-21.475
 21
-21.475
  0
LINE
  8
0
 10
26.99
 11
26.99
 20
-21.475
 21
-28.025
  0
LINE
  8
0
 10
26.99
 11
19.01
 20
-28.025
 21
-28.025
  0
LINE
  8
0
 10
23.5
 11
23.5
 20
-52.04
 21
-50.96
  0
LINE
  8
0
 10
23.5
 11
23.606
 20
-50.96
 21
-49.884
  0
LINE
  8
0
 10
23.606
 11
23.817
 20
-49.884
 21
-48.824
  0
LINE
  8
0
 10
23.817
 11
24.131
 20
-48.824
 21
-47.79
  0
LINE
  8
0
 10
24.131
 11
24.544
 20
-47.79
 21
-46.791
  0
LINE
  8
0
 10
24.544
 11
25.054
 20
-46.791
 21
-45.838
  0
LINE
  8
0
 10
25.054
 11
25.654
 20
-45.838
 21
-44.939
  0
LINE
  8
0
 10
25.654
 11
26.34
 20
-44.939
 21
-44.104
  0
LINE
  8
0
 10
26.34
 11
27.104
 20
-44.104
 21
-43.34
  0
LINE
  8
0
 10
27.104
 11
27.939
 20
-43.34
 21
-42.654
  0
LINE
  8
0
 10
27.939
 11
28.838
 20
-42.654
 21
-42.054
  0
LINE
  8
0
 10
28.838
 11
29.791
 20
-42.054
 21
-41.544
  0
LINE
  8
0
 10
29.791
 11
30.79
 20
-41.544
 21
-41.131
  0
LINE
  8
0
 10
30.79
 11
31.824
 20
-41.131
 21
-40.817
  0
LINE
  8
0
 10
31.824
 11
32.884
 20
-40.817
 21
-40.606
  0
LINE
  8
0
 10
32.884
 11
33.96
 20
-40.606
 21
-40.5
  0
LINE
  8
0
 10
33.96
 11
35.04
 20
-40.5
 21
-40.5
  0
LINE
  8
0
 10
35.04
 11
36.116
 20
-40.5
 21
-40.606
  0
LINE
  8
0
 10
36.116
 11
37.176
 20
-40.606
 21
-40.817
  0
LINE
  8
0
 10
37.176
 11
38.21
 20
-40.817
 21
-41.131
  0
LINE
  8
0
 10
38.21
 11
39.209
 20
-41.131
 21
-41.544
  0
LINE
  8
0
 10
39.209
 11
40.162
 20
-41.544
 21
-42.054
  0
LINE
  8
0
 10
40.162
 11
41.061
 20
-42.054
 21
-42.654
  0
LINE
  8
0
 10
41.061
 11
41.896
 20
-42.654
 21
-43.34
  0
LINE
  8
0
 10
41.896
 11
42.66
 20
-43.34
 21
-44.104
  0
LINE
  8
0
 10
42.66
 11
43.346
 20
-44.104
 21
-44.939
  0
LINE
  8
0
 10
43.346
 11
43.946
 20
-44.939
 21
-45.838
  0
LINE
  8
0
 10
43.946
 11
44.456
 20
-45.838
 21
-46.791
  0
LINE
  8
0
 10
44.456
 11
44.869
 20
-46.791
 21
-47.79
  0
LINE
  8
0
 10
44.869
 11
45.183
 20
-47.79
 21
-48.824
  0
LINE
  8
0
 10
45.183
 11
45.394
 20
-48.824
 21
-49.884
  0
LINE
  8
0
 10
45.394
 11
45.5
 20
-49.884
 21
-50.96
  0
LINE
  8
0
 10
45.5
 11
45.5
 20
-50.96
 21
-52.04
  0
LINE
  8
0
 10
45.5
 11
45.394
 20
-52.04
 21
-53.116
  0
LINE
  8
0
 10
45.394
 11
45.183
 20
-53.116
 21
-54.176
  0
LINE
  8
0
 10
45.183
 11
44.869
 20
-54.176
 21
-55.21
  0
LINE
  8
0
 10
44.869
 11
44.456
 20
-55.21
 21
-56.209
  0
LINE
  8
0
 10
44.456
 11
43.946
 20
-56.209
 21
-57.162
  0
LINE
  8
0
 10
43.946
 11
43.346
 20
-57.162
 21
-58.061
  0
LINE
  8
0
 10
43.346
 11
42.66
 20
-58.061
 21
-58.896
  0
LINE
  8
0
 10
42.66
 11
41.896
 20
-58.896
 21
-59.66
  0
LINE
  8
0
 10
41.896
 11
41.061
 20
-59.66
 21
-60.346
  0
LINE
  8
0
 10
41.061
 11
40.162
 20
-60.346
 21
-60.946
  0
LINE
  8
0
 10
40.162
 11
39.209
 20
-60.946
 21
-61.456
  0
LINE
  8
0
 10
39.209
 11
38.21
 20
-61.456
 21
-61.869
  0
LINE
  8
0
 10
38.21
 11
37.176
 20
-61.869
 21
-62.183
  0
LINE
  8
0
 10
37.176
 11
36.116
 20
-62.183
 21
-62.394
  0
LINE
  8
0
 10
36.116
 11
35.04
 20
-62.394
 21
-62.5
  0
LINE
  8
0
 10
35.04
 11
33.96
 20
-62.5
 21
-62.5
  0
LINE
  8
0
 10
33.96
 11
32.884
 20
-62.5
 21
-62.394
  0
LINE
  8
0
 10
32.884
 11
31.824
 20
-62.394
 21
-62.183
  0
LINE
  8
0
 10
31.824
 11
30.79
 20
-62.183
 21
-61.869
  0
LINE
  8
0
 10
30.79
 11
29.791
 20
-61.869
 21
-61.456
  0
LINE
  8
0
 10
29.791
 11
28.838
 20
-61.456
 21
-60.946
  0
LINE
  8
0
 10
28.838
 11
27.939
 20
-60.946
 21
-60.346
  0
LINE
  8
0
 10
27.939
 11
27.104
 20
-60.346
 21
-59.66
  0
LINE
  8
0
 10
27.104
 11
26.34
 20
-59.66
 21
-58.896
  0
LINE
  8
0
 10
26.34
 11
25.654
 20
-58.896
 21
-58.061
  0
LINE
  8
0
 10
25.654
 11
25.054
 20
-58.061
 21
-57.162
  0
LINE
  8
0
 10
25.054
 11
24.544
 20
-57.162
 21
-56.209
  0
LINE
  8
0
 10
24.544
 11
24.131
 20
-56.209
 21
-55.21
  0
LINE
  8
0
 10
24.131
 11
23.817
 20
-55.21
 21
-54.176
  0
LINE
  8
0
 10
23.817
 11
23.606
 20
-54.176
 21
-53.116
  0
LINE
  8
0
 10
23.606
 11
23.5
 20
-53.116
 21
-52.04
  0
LINE
  8
0
 10
33.2
 11
33.2
 20
-303.974
 21
-299.826
  0
LINE
  8
0
 10
33.2
 11
33.214
 20
-299.826
 21
-299.68
  0
LINE
  8
0
 10
33.214
 11
33.243
 20
-299.68
 21
-299.535
  0
LINE
  8
0
 10
33.243
 11
33.286
 20
-299.535
 21
-299.394
  0
LINE
  8
0
 10
33.286
 11
33.342
 20
-299.394
 21
-299.258
  0
LINE
  8
0
 10
33.342
 11
33.412
 20
-299.258
 21
-299.128
  0
LINE
  8
0
 10
33.412
 11
33.494
 20
-299.128
 21
-299.005
  0
LINE
  8
0
 10
33.494
 11
33.587
 20
-299.005
 21
-298.891
  0
LINE
  8
0
 10
33.587
 11
33.691
 20
-298.891
 21
-298.787
  0
LINE
  8
0
 10
33.691
 11
33.805
 20
-298.787
 21
-298.694
  0
LINE
  8
0
 10
33.805
 11
33.928
 20
-298.694
 21
-298.612
  0
LINE
  8
0
 10
33.928
 11
34.058
 20
-298.612
 21
-298.542
  0
LINE
  8
0
 10
34.058
 11
34.194
 20
-298.542
 21
-298.486
  0
LINE
  8
0
 10
34.194
 11
34.335
 20
-298.486
 21
-298.443
  0
LINE
  8
0
 10
34.335
 11
34.48
 20
-298.443
 21
-298.414
  0
LINE
  8
0
 10
34.48
 11
34.626
 20
-298.414
 21
-298.4
  0
LINE
  8
0
 10
34.626
 11
34.774
 20
-298.4
 21
-298.4
  0
LINE
  8
0
 10
34.774
 11
34.92
 20
-298.4
 21
-298.414
  0
LINE
  8
0
 10
34.92
 11
35.065
 20
-298.414
 21
-298.443
  0
LINE
  8
0
 10
35.065
 11
35.206
 20
-298.443
 21
-298.486
  0
LINE
  8
0
 10
35.206
 11
35.342
 20
-298.486
 21
-298.542
  0
LINE
  8
0
 10
35.342
 11
35.472
 20
-298.542
 21
-298.612
  0
LINE
  8
0
 10
35.472
 11
35.595
 20
-298.612
 21
-298.694
  0
LINE
  8
0
 10
35.595
 11
35.709
 20
-298.694
 21
-298.787
  0
LINE
  8
0
 10
35.709
 11
35.813
 20
-298.787
 21
-298.891
  0
LINE
  8
0
 10
35.813
 11
35.906
 20
-298.891
 21
-299.005
  0
LINE
  8
0
 10
35.906
 11
35.988
 20
-299.005
 21
-299.128
  0
LINE
  8
0
 10
35.988
 11
36.058
 20
-299.128
 21
-299.258
  0
LINE
  8
0
 10
36.058
 11
36.114
 20
-299.258
 21
-299.394
  0
LINE
  8
0
 10
36.114
 11
36.157
 20
-299.394
 21
-299.535
  0
LINE
  8
0
 10
36.157
 11
36.186
 20
-299.535
 21
-299.68
  0
LINE
  8
0
 10
36.186
 11
36.2
 20
-299.68
 21
-299.826
  0
LINE
  8
0
 10
36.2
 11
36.2
 20
-299.826
 21
-303.974
  0
LINE
  8
0
 10
36.2
 11
36.186
 20
-303.974
 21
-304.12
  0
LINE
  8
0
 10
36.186
 11
36.157
 20
-304.12
 21
-304.265
  0
LINE
  8
0
 10
36.157
 11
36.114
 20
-304.265
 21
-304.406
  0
LINE
  8
0
 10
36.114
 11
36.058
 20
-304.406
 21
-304.542
  0
LINE
  8
0
 10
36.058
 11
35.988
 20
-304.542
 21
-304.672
  0
LINE
  8
0
 10
35.988
 11
35.906
 20
-304.672
 21
-304.795
  0
LINE
  8
0
 10
35.906
 11
35.813
 20
-304.795
 21
-304.909
  0
LINE
  8
0
 10
35.813
 11
35.709
 20
-304.909
 21
-305.013
  0
LINE
  8
0
 10
35.709
 11
35.595
 20
-305.013
 21
-305.106
  0
LINE
  8
0
 10
35.595
 11
35.472
 20
-305.106
 21
-305.188
  0
LINE
  8
0
 10
35.472
 11
35.342
 20
-305.188
 21
-305.258
  0
LINE
  8
0
 10
35.342
 11
35.206
 20
-305.258
 21
-305.314
  0
LINE
  8
0
 10
35.206
 11
35.065
 20
-305.314
 21
-305.357
  0
LINE
  8
0
 10
35.065
 11
34.92
 20
-305.357
 21
-305.386
  0
LINE
  8
0
 10
34.92
 11
34.774
 20
-305.386
 21
-305.4
  0
LINE
  8
0
 10
34.774
 11
34.626
 20
-305.4
 21
-305.4
  0
LINE
  8
0
 10
34.626
 11
34.48
 20
-305.4
 21
-305.386
  0
LINE
  8
0
 10
34.48
 11
34.335
 20
-305.386
 21
-305.357
  0
LINE
  8
0
 10
34.335
 11
34.194
 20
-305.357
 21
-305.314
  0
LINE
  8
0
 10
34.194
 11
34.058
 20
-305.314
 21
-305.258
  0
LINE
  8
0
 10
34.058
 11
33.928
 20
-305.258
 21
-305.188
  0
LINE
  8
0
 10
33.928
 11
33.805
 20
-305.188
 21
-305.106
  0
LINE
  8
0
 10
33.805
 11
33.691
 20
-305.106
 21
-305.013
  0
LINE
  8
0
 10
33.691
 11
33.587
 20
-305.013
 21
-304.909
  0
LINE
  8
0
 10
33.587
 11
33.494
 20
-304.909
 21
-304.795
  0
LINE
  8
0
 10
33.494
 11
33.412
 20
-304.795
 21
-304.672
  0
LINE
  8
0
 10
33.412
 11
33.342
 20
-304.672
 21
-304.542
  0
LINE
  8
0
 10
33.342
 11
33.286
 20
-304.542
 21
-304.406
  0
LINE
  8
0
 10
33.286
 11
33.243
 20
-304.406
 21
-304.265
  0
LINE
  8
0
 10
33.243
 11
33.214
 20
-304.265
 21
-304.12
  0
LINE
  8
0
 10
33.214
 11
33.2
 20
-304.12
 21
-303.974
  0
LINE
  8
0
 10
35.6
 11
35.6
 20
-279.68
 21
-278.52
  0
LINE
  8
0
 10
35.6
 11
36.42
 20
-278.52
 21
-277.7
  0
LINE
  8
0
 10
36.42
 11
37.58
 20
-277.7
 21
-277.7
  0
LINE
  8
0
 10
37.58
 11
38.4
 20
-277.7
 21
-278.52
  0
LINE
  8
0
 10
38.4
 11
38.4
 20
-278.52
 21
-279.68
  0
LINE
  8
0
 10
38.4
 11
37.58
 20
-279.68
 21
-280.5
  0
LINE
  8
0
 10
37.58
 11
36.42
 20
-280.5
 21
-280.5
  0
LINE
  8
0
 10
36.42
 11
35.6
 20
-280.5
 21
-279.68
  0
LINE
  8
0
 10
35.6
 11
35.6
 20
-25.33
 21
-24.17
  0
LINE
  8
0
 10
35.6
 11
36.42
 20
-24.17
 21
-23.35
  0
LINE
  8
0
 10
36.42
 11
37.58
 20
-23.35
 21
-23.35
  0
LINE
  8
0
 10
37.58
 11
38.4
 20
-23.35
 21
-24.17
  0
LINE
  8
0
 10
38.4
 11
38.4
 20
-24.17
 21
-25.33
  0
LINE
  8
0
 10
38.4
 11
37.58
 20
-25.33
 21
-26.15
  0
LINE
  8
0
 10
37.58
 11
36.42
 20
-26.15
 21
-26.15
  0
LINE
  8
0
 10
36.42
 11
35.6
 20
-26.15
 21
-25.33
  0
LINE
  8
0
 10
36.725
 11
36.725
 20
253.51
 21
261.49
  0
LINE
  8
0
 10
36.725
 11
43.275
 20
261.49
 21
261.49
  0
LINE
  8
0
 10
43.275
 11
43.275
 20
261.49
 21
253.51
  0
LINE
  8
0
 10
43.275
 11
36.725
 20
253.51
 21
253.51
  0
LINE
  8
0
 10
36.725
 11
36.725
 20
281.51
 21
289.49
  0
LINE
  8
0
 10
36.725
 11
43.275
 20
289.49
 21
289.49
  0
LINE
  8
0
 10
43.275
 11
43.275
 20
289.49
 21
281.51
  0
LINE
  8
0
 10
43.275
 11
36.725
 20
281.51
 21
281.51
  0
LINE
  8
0
 10
36.725
 11
36.725
 20
414.51
 21
422.49
  0
LINE
  8
0
 10
36.725
 11
43.275
 20
422.49
 21
422.49
  0
LINE
  8
0
 10
43.275
 11
43.275
 20
422.49
 21
414.51
  0
LINE
  8
0
 10
43.275
 11
36.725
 20
414.51
 21
414.51
  0
LINE
  8
0
 10
36.725
 11
36.725
 20
442.51
 21
450.49
  0
LINE
  8
0
 10
36.725
 11
43.275
 20
450.49
 21
450.49
  0
LINE
  8
0
 10
43.275
 11
43.275
 20
450.49
 21
442.51
  0
LINE
  8
0
 10
43.275
 11
36.725
 20
442.51
 21
442.51
  0
LINE
  8
0
 10
38.6
 11
38.6
 20
270.92
 21
272.08
  0
LINE
  8
0
 10
38.6
 11
39.42
 20
272.08
 21
272.9
  0
LINE
  8
0
 10
39.42
 11
40.58
 20
272.9
 21
272.9
  0
LINE
  8
0
 10
40.58
 11
41.4
 20
272.9
 21
272.08
  0
LINE
  8
0
 10
41.4
 11
41.4
 20
272.08
 21
270.92
  0
LINE
  8
0
 10
41.4
 11
40.58
 20
270.92
 21
270.1
  0
LINE
  8
0
 10
40.58
 11
39.42
 20
270.1
 21
270.1
  0
LINE
  8
0
 10
39.42
 11
38.6
 20
270.1
 21
270.92
  0
LINE
  8
0
 10
38.6
 11
38.6
 20
431.92
 21
433.08
  0
LINE
  8
0
 10
38.6
 11
39.42
 20
433.08
 21
433.9
  0
LINE
  8
0
 10
39.42
 11
40.58
 20
433.9
 21
433.9
  0
LINE
  8
0
 10
40.58
 11
41.4
 20
433.9
 21
433.08
  0
LINE
  8
0
 10
41.4
 11
41.4
 20
433.08
 21
431.92
  0
LINE
  8
0
 10
41.4
 11
40.58
 20
431.92
 21
431.1
  0
LINE
  8
0
 10
40.58
 11
39.42
 20
431.1
 21
431.1
  0
LINE
  8
0
 10
39.42
 11
38.6
 20
431.1
 21
431.92
  0
LINE
  8
0
 10
47.01
 11
47.01
 20
-282.375
 21
-275.825
  0
LINE
  8
0
 10
47.01
 11
54.99
 20
-275.825
 21
-275.825
  0
LINE
  8
0
 10
54.99
 11
54.99
 20
-275.825
 21
-282.375
  0
LINE
  8
0
 10
54.99
 11
47.01
 20
-282.375
 21
-282.375
  0
LINE
  8
0
 10
47.01
 11
47.01
 20
-28.025
 21
-21.475
  0
LINE
  8
0
 10
47.01
 11
54.99
 20
-21.475
 21
-21.475
  0
LINE
  8
0
 10
54.99
 11
54.99
 20
-21.475
 21
-28.025
  0
LINE
  8
0
 10
54.99
 11
47.01
 20
-28.025
 21
-28.025
  0
LINE
  8
0
 10
48.5
 11
48.5
 20
-67.074
 21
-66.926
  0
LINE
  8
0
 10
48.5
 11
48.514
 20
-66.926
 21
-66.78
  0
LINE
  8
0
 10
48.514
 11
48.543
 20
-66.78
 21
-66.635
  0
LINE
  8
0
 10
48.543
 11
48.586
 20
-66.635
 21
-66.494
  0
LINE
  8
0
 10
48.586
 11
48.642
 20
-66.494
 21
-66.358
  0
LINE
  8
0
 10
48.642
 11
48.712
 20
-66.358
 21
-66.228
  0
LINE
  8
0
 10
48.712
 11
48.794
 20
-66.228
 21
-66.105
  0
LINE
  8
0
 10
48.794
 11
48.887
 20
-66.105
 21
-65.991
  0
LINE
  8
0
 10
48.887
 11
48.991
 20
-65.991
 21
-65.887
  0
LINE
  8
0
 10
48.991
 11
49.105
 20
-65.887
 21
-65.794
  0
LINE
  8
0
 10
49.105
 11
49.228
 20
-65.794
 21
-65.712
  0
LINE
  8
0
 10
49.228
 11
49.358
 20
-65.712
 21
-65.642
  0
LINE
  8
0
 10
49.358
 11
49.494
 20
-65.642
 21
-65.586
  0
LINE
  8
0
 10
49.494
 11
49.635
 20
-65.586
 21
-65.543
  0
LINE
  8
0
 10
49.635
 11
49.78
 20
-65.543
 21
-65.514
  0
LINE
  8
0
 10
49.78
 11
49.926
 20
-65.514
 21
-65.5
  0
LINE
  8
0
 10
49.926
 11
50.074
 20
-65.5
 21
-65.5
  0
LINE
  8
0
 10
50.074
 11
50.22
 20
-65.5
 21
-65.514
  0
LINE
  8
0
 10
50.22
 11
50.365
 20
-65.514
 21
-65.543
  0
LINE
  8
0
 10
50.365
 11
50.506
 20
-65.543
 21
-65.586
  0
LINE
  8
0
 10
50.506
 11
50.642
 20
-65.586
 21
-65.642
  0
LINE
  8
0
 10
50.642
 11
50.772
 20
-65.642
 21
-65.712
  0
LINE
  8
0
 10
50.772
 11
50.895
 20
-65.712
 21
-65.794
  0
LINE
  8
0
 10
50.895
 11
51.009
 20
-65.794
 21
-65.887
  0
LINE
  8
0
 10
51.009
 11
51.113
 20
-65.887
 21
-65.991
  0
LINE
  8
0
 10
51.113
 11
51.206
 20
-65.991
 21
-66.105
  0
LINE
  8
0
 10
51.206
 11
51.288
 20
-66.105
 21
-66.228
  0
LINE
  8
0
 10
51.288
 11
51.358
 20
-66.228
 21
-66.358
  0
LINE
  8
0
 10
51.358
 11
51.414
 20
-66.358
 21
-66.494
  0
LINE
  8
0
 10
51.414
 11
51.457
 20
-66.494
 21
-66.635
  0
LINE
  8
0
 10
51.457
 11
51.486
 20
-66.635
 21
-66.78
  0
LINE
  8
0
 10
51.486
 11
51.5
 20
-66.78
 21
-66.926
  0
LINE
  8
0
 10
51.5
 11
51.5
 20
-66.926
 21
-67.074
  0
LINE
  8
0
 10
51.5
 11
51.486
 20
-67.074
 21
-67.22
  0
LINE
  8
0
 10
51.486
 11
51.457
 20
-67.22
 21
-67.365
  0
LINE
  8
0
 10
51.457
 11
51.414
 20
-67.365
 21
-67.506
  0
LINE
  8
0
 10
51.414
 11
51.358
 20
-67.506
 21
-67.642
  0
LINE
  8
0
 10
51.358
 11
51.288
 20
-67.642
 21
-67.772
  0
LINE
  8
0
 10
51.288
 11
51.206
 20
-67.772
 21
-67.895
  0
LINE
  8
0
 10
51.206
 11
51.113
 20
-67.895
 21
-68.009
  0
LINE
  8
0
 10
51.113
 11
51.009
 20
-68.009
 21
-68.113
  0
LINE
  8
0
 10
51.009
 11
50.895
 20
-68.113
 21
-68.206
  0
LINE
  8
0
 10
50.895
 11
50.772
 20
-68.206
 21
-68.288
  0
LINE
  8
0
 10
50.772
 11
50.642
 20
-68.288
 21
-68.358
  0
LINE
  8
0
 10
50.642
 11
50.506
 20
-68.358
 21
-68.414
  0
LINE
  8
0
 10
50.506
 11
50.365
 20
-68.414
 21
-68.457
  0
LINE
  8
0
 10
50.365
 11
50.22
 20
-68.457
 21
-68.486
  0
LINE
  8
0
 10
50.22
 11
50.074
 20
-68.486
 21
-68.5
  0
LINE
  8
0
 10
50.074
 11
49.926
 20
-68.5
 21
-68.5
  0
LINE
  8
0
 10
49.926
 11
49.78
 20
-68.5
 21
-68.486
  0
LINE
  8
0
 10
49.78
 11
49.635
 20
-68.486
 21
-68.457
  0
LINE
  8
0
 10
49.635
 11
49.494
 20
-68.457
 21
-68.414
  0
LINE
  8
0
 10
49.494
 11
49.358
 20
-68.414
 21
-68.358
  0
LINE
  8
0
 10
49.358
 11
49.228
 20
-68.358
 21
-68.288
  0
LINE
  8
0
 10
49.228
 11
49.105
 20
-68.288
 21
-68.206
  0
LINE
  8
0
 10
49.105
 11
48.991
 20
-68.206
 21
-68.113
  0
LINE
  8
0
 10
48.991
 11
48.887
 20
-68.113
 21
-68.009
  0
LINE
  8
0
 10
48.887
 11
48.794
 20
-68.009
 21
-67.895
  0
LINE
  8
0
 10
48.794
 11
48.712
 20
-67.895
 21
-67.772
  0
LINE
  8
0
 10
48.712
 11
48.642
 20
-67.772
 21
-67.642
  0
LINE
  8
0
 10
48.642
 11
48.586
 20
-67.642
 21
-67.506
  0
LINE
  8
0
 10
48.586
 11
48.543
 20
-67.506
 21
-67.365
  0
LINE
  8
0
 10
48.543
 11
48.514
 20
-67.365
 21
-67.22
  0
LINE
  8
0
 10
48.514
 11
48.5
 20
-67.22
 21
-67.074
  0
LINE
  8
0
 10
48.5
 11
48.5
 20
-36.074
 21
-35.926
  0
LINE
  8
0
 10
48.5
 11
48.514
 20
-35.926
 21
-35.78
  0
LINE
  8
0
 10
48.514
 11
48.543
 20
-35.78
 21
-35.635
  0
LINE
  8
0
 10
48.543
 11
48.586
 20
-35.635
 21
-35.494
  0
LINE
  8
0
 10
48.586
 11
48.642
 20
-35.494
 21
-35.358
  0
LINE
  8
0
 10
48.642
 11
48.712
 20
-35.358
 21
-35.228
  0
LINE
  8
0
 10
48.712
 11
48.794
 20
-35.228
 21
-35.105
  0
LINE
  8
0
 10
48.794
 11
48.887
 20
-35.105
 21
-34.991
  0
LINE
  8
0
 10
48.887
 11
48.991
 20
-34.991
 21
-34.887
  0
LINE
  8
0
 10
48.991
 11
49.105
 20
-34.887
 21
-34.794
  0
LINE
  8
0
 10
49.105
 11
49.228
 20
-34.794
 21
-34.712
  0
LINE
  8
0
 10
49.228
 11
49.358
 20
-34.712
 21
-34.642
  0
LINE
  8
0
 10
49.358
 11
49.494
 20
-34.642
 21
-34.586
  0
LINE
  8
0
 10
49.494
 11
49.635
 20
-34.586
 21
-34.543
  0
LINE
  8
0
 10
49.635
 11
49.78
 20
-34.543
 21
-34.514
  0
LINE
  8
0
 10
49.78
 11
49.926
 20
-34.514
 21
-34.5
  0
LINE
  8
0
 10
49.926
 11
50.074
 20
-34.5
 21
-34.5
  0
LINE
  8
0
 10
50.074
 11
50.22
 20
-34.5
 21
-34.514
  0
LINE
  8
0
 10
50.22
 11
50.365
 20
-34.514
 21
-34.543
  0
LINE
  8
0
 10
50.365
 11
50.506
 20
-34.543
 21
-34.586
  0
LINE
  8
0
 10
50.506
 11
50.642
 20
-34.586
 21
-34.642
  0
LINE
  8
0
 10
50.642
 11
50.772
 20
-34.642
 21
-34.712
  0
LINE
  8
0
 10
50.772
 11
50.895
 20
-34.712
 21
-34.794
  0
LINE
  8
0
 10
50.895
 11
51.009
 20
-34.794
 21
-34.887
  0
LINE
  8
0
 10
51.009
 11
51.113
 20
-34.887
 21
-34.991
  0
LINE
  8
0
 10
51.113
 11
51.206
 20
-34.991
 21
-35.105
  0
LINE
  8
0
 10
51.206
 11
51.288
 20
-35.105
 21
-35.228
  0
LINE
  8
0
 10
51.288
 11
51.358
 20
-35.228
 21
-35.358
  0
LINE
  8
0
 10
51.358
 11
51.414
 20
-35.358
 21
-35.494
  0
LINE
  8
0
 10
51.414
 11
51.457
 20
-35.494
 21
-35.635
  0
LINE
  8
0
 10
51.457
 11
51.486
 20
-35.635
 21
-35.78
  0
LINE
  8
0
 10
51.486
 11
51.5
 20
-35.78
 21
-35.926
  0
LINE
  8
0
 10
51.5
 11
51.5
 20
-35.926
 21
-36.074
  0
LINE
  8
0
 10
51.5
 11
51.486
 20
-36.074
 21
-36.22
  0
LINE
  8
0
 10
51.486
 11
51.457
 20
-36.22
 21
-36.365
  0
LINE
  8
0
 10
51.457
 11
51.414
 20
-36.365
 21
-36.506
  0
LINE
  8
0
 10
51.414
 11
51.358
 20
-36.506
 21
-36.642
  0
LINE
  8
0
 10
51.358
 11
51.288
 20
-36.642
 21
-36.772
  0
LINE
  8
0
 10
51.288
 11
51.206
 20
-36.772
 21
-36.895
  0
LINE
  8
0
 10
51.206
 11
51.113
 20
-36.895
 21
-37.009
  0
LINE
  8
0
 10
51.113
 11
51.009
 20
-37.009
 21
-37.113
  0
LINE
  8
0
 10
51.009
 11
50.895
 20
-37.113
 21
-37.206
  0
LINE
  8
0
 10
50.895
 11
50.772
 20
-37.206
 21
-37.288
  0
LINE
  8
0
 10
50.772
 11
50.642
 20
-37.288
 21
-37.358
  0
LINE
  8
0
 10
50.642
 11
50.506
 20
-37.358
 21
-37.414
  0
LINE
  8
0
 10
50.506
 11
50.365
 20
-37.414
 21
-37.457
  0
LINE
  8
0
 10
50.365
 11
50.22
 20
-37.457
 21
-37.486
  0
LINE
  8
0
 10
50.22
 11
50.074
 20
-37.486
 21
-37.5
  0
LINE
  8
0
 10
50.074
 11
49.926
 20
-37.5
 21
-37.5
  0
LINE
  8
0
 10
49.926
 11
49.78
 20
-37.5
 21
-37.486
  0
LINE
  8
0
 10
49.78
 11
49.635
 20
-37.486
 21
-37.457
  0
LINE
  8
0
 10
49.635
 11
49.494
 20
-37.457
 21
-37.414
  0
LINE
  8
0
 10
49.494
 11
49.358
 20
-37.414
 21
-37.358
  0
LINE
  8
0
 10
49.358
 11
49.228
 20
-37.358
 21
-37.288
  0
LINE
  8
0
 10
49.228
 11
49.105
 20
-37.288
 21
-37.206
  0
LINE
  8
0
 10
49.105
 11
48.991
 20
-37.206
 21
-37.113
  0
LINE
  8
0
 10
48.991
 11
48.887
 20
-37.113
 21
-37.009
  0
LINE
  8
0
 10
48.887
 11
48.794
 20
-37.009
 21
-36.895
  0
LINE
  8
0
 10
48.794
 11
48.712
 20
-36.895
 21
-36.772
  0
LINE
  8
0
 10
48.712
 11
48.642
 20
-36.772
 21
-36.642
  0
LINE
  8
0
 10
48.642
 11
48.586
 20
-36.642
 21
-36.506
  0
LINE
  8
0
 10
48.586
 11
48.543
 20
-36.506
 21
-36.365
  0
LINE
  8
0
 10
48.543
 11
48.514
 20
-36.365
 21
-36.22
  0
LINE
  8
0
 10
48.514
 11
48.5
 20
-36.22
 21
-36.074
  0
LINE
  8
0
 10
49
 11
49
 20
298.75
 21
405.25
  0
LINE
  8
0
 10
49
 11
194.05
 20
405.25
 21
405.25
  0
LINE
  8
0
 10
194.05
 11
194.05
 20
405.25
 21
298.75
  0
LINE
  8
0
 10
194.05
 11
49
 20
298.75
 21
298.75
  0
LINE
  8
0
 10
83.06
 11
83.06
 20
216.306
 21
216.694
  0
LINE
  8
0
 10
83.06
 11
83.098
 20
216.694
 21
217.079
  0
LINE
  8
0
 10
83.098
 11
83.173
 20
217.079
 21
217.458
  0
LINE
  8
0
 10
83.173
 11
83.286
 20
217.458
 21
217.829
  0
LINE
  8
0
 10
83.286
 11
83.434
 20
217.829
 21
218.187
  0
LINE
  8
0
 10
83.434
 11
83.616
 20
218.187
 21
218.528
  0
LINE
  8
0
 10
83.616
 11
83.832
 20
218.528
 21
218.85
  0
LINE
  8
0
 10
83.832
 11
84.077
 20
218.85
 21
219.149
  0
LINE
  8
0
 10
84.077
 11
84.351
 20
219.149
 21
219.423
  0
LINE
  8
0
 10
84.351
 11
84.65
 20
219.423
 21
219.668
  0
LINE
  8
0
 10
84.65
 11
84.972
 20
219.668
 21
219.884
  0
LINE
  8
0
 10
84.972
 11
85.313
 20
219.884
 21
220.066
  0
LINE
  8
0
 10
85.313
 11
85.671
 20
220.066
 21
220.214
  0
LINE
  8
0
 10
85.671
 11
86.042
 20
220.214
 21
220.327
  0
LINE
  8
0
 10
86.042
 11
86.421
 20
220.327
 21
220.402
  0
LINE
  8
0
 10
86.421
 11
86.806
 20
220.402
 21
220.44
  0
LINE
  8
0
 10
86.806
 11
87.194
 20
220.44
 21
220.44
  0
LINE
  8
0
 10
87.194
 11
87.579
 20
220.44
 21
220.402
  0
LINE
  8
0
 10
87.579
 11
87.958
 20
220.402
 21
220.327
  0
LINE
  8
0
 10
87.958
 11
88.329
 20
220.327
 21
220.214
  0
LINE
  8
0
 10
88.329
 11
88.687
 20
220.214
 21
220.066
  0
LINE
  8
0
 10
88.687
 11
89.028
 20
220.066
 21
219.884
  0
LINE
  8
0
 10
89.028
 11
89.35
 20
219.884
 21
219.668
  0
LINE
  8
0
 10
89.35
 11
89.649
 20
219.668
 21
219.423
  0
LINE
  8
0
 10
89.649
 11
89.923
 20
219.423
 21
219.149
  0
LINE
  8
0
 10
89.923
 11
90.168
 20
219.149
 21
218.85
  0
LINE
  8
0
 10
90.168
 11
90.384
 20
218.85
 21
218.528
  0
LINE
  8
0
 10
90.384
 11
90.566
 20
218.528
 21
218.187
  0
LINE
  8
0
 10
90.566
 11
90.714
 20
218.187
 21
217.829
  0
LINE
  8
0
 10
90.714
 11
90.827
 20
217.829
 21
217.458
  0
LINE
  8
0
 10
90.827
 11
90.902
 20
217.458
 21
217.079
  0
LINE
  8
0
 10
90.902
 11
90.94
 20
217.079
 21
216.694
  0
LINE
  8
0
 10
90.94
 11
90.94
 20
216.694
 21
216.306
  0
LINE
  8
0
 10
90.94
 11
90.902
 20
216.306
 21
215.921
  0
LINE
  8
0
 10
90.902
 11
90.827
 20
215.921
 21
215.542
  0
LINE
  8
0
 10
90.827
 11
90.714
 20
215.542
 21
215.171
  0
LINE
  8
0
 10
90.714
 11
90.566
 20
215.171
 21
214.813
  0
LINE
  8
0
 10
90.566
 11
90.384
 20
214.813
 21
214.472
  0
LINE
  8
0
 10
90.384
 11
90.168
 20
214.472
 21
214.15
  0
LINE
  8
0
 10
90.168
 11
89.923
 20
214.15
 21
213.851
  0
LINE
  8
0
 10
89.923
 11
89.649
 20
213.851
 21
213.577
  0
LINE
  8
0
 10
89.649
 11
89.35
 20
213.577
 21
213.332
  0
LINE
  8
0
 10
89.35
 11
89.028
 20
213.332
 21
213.116
  0
LINE
  8
0
 10
89.028
 11
88.687
 20
213.116
 21
212.934
  0
LINE
  8
0
 10
88.687
 11
88.329
 20
212.934
 21
212.786
  0
LINE
  8
0
 10
88.329
 11
87.958
 20
212.786
 21
212.673
  0
LINE
  8
0
 10
87.958
 11
87.579
 20
212.673
 21
212.598
  0
LINE
  8
0
 10
87.579
 11
87.194
 20
212.598
 21
212.56
  0
LINE
  8
0
 10
87.194
 11
86.806
 20
212.56
 21
212.56
  0
LINE
  8
0
 10
86.806
 11
86.421
 20
212.56
 21
212.598
  0
LINE
  8
0
 10
86.421
 11
86.042
 20
212.598
 21
212.673
  0
LINE
  8
0
 10
86.042
 11
85.671
 20
212.673
 21
212.786
  0
LINE
  8
0
 10
85.671
 11
85.313
 20
212.786
 21
212.934
  0
LINE
  8
0
 10
85.313
 11
84.972
 20
212.934
 21
213.116
  0
LINE
  8
0
 10
84.972
 11
84.65
 20
213.116
 21
213.332
  0
LINE
  8
0
 10
84.65
 11
84.351
 20
213.332
 21
213.577
  0
LINE
  8
0
 10
84.351
 11
84.077
 20
213.577
 21
213.851
  0
LINE
  8
0
 10
84.077
 11
83.832
 20
213.851
 21
214.15
  0
LINE
  8
0
 10
83.832
 11
83.616
 20
214.15
 21
214.472
  0
LINE
  8
0
 10
83.616
 11
83.434
 20
214.472
 21
214.813
  0
LINE
  8
0
 10
83.434
 11
83.286
 20
214.813
 21
215.171
  0
LINE
  8
0
 10
83.286
 11
83.173
 20
215.171
 21
215.542
  0
LINE
  8
0
 10
83.173
 11
83.098
 20
215.542
 21
215.921
  0
LINE
  8
0
 10
83.098
 11
83.06
 20
215.921
 21
216.306
  0
LINE
  8
0
 10
133.01
 11
133.01
 20
-282.375
 21
-275.825
  0
LINE
  8
0
 10
133.01
 11
140.99
 20
-275.825
 21
-275.825
  0
LINE
  8
0
 10
140.99
 11
140.99
 20
-275.825
 21
-282.375
  0
LINE
  8
0
 10
140.99
 11
133.01
 20
-282.375
 21
-282.375
  0
LINE
  8
0
 10
133.01
 11
133.01
 20
-28.025
 21
-21.475
  0
LINE
  8
0
 10
133.01
 11
140.99
 20
-21.475
 21
-21.475
  0
LINE
  8
0
 10
140.99
 11
140.99
 20
-21.475
 21
-28.025
  0
LINE
  8
0
 10
140.99
 11
133.01
 20
-28.025
 21
-28.025
  0
LINE
  8
0
 10
134.75
 11
134.75
 20
210.352
 21
210.648
  0
LINE
  8
0
 10
134.75
 11
134.808
 20
210.648
 21
210.938
  0
LINE
  8
0
 10
134.808
 11
134.921
 20
210.938
 21
211.211
  0
LINE
  8
0
 10
134.921
 11
135.085
 20
211.211
 21
211.456
  0
LINE
  8
0
 10
135.085
 11
135.294
 20
211.456
 21
211.665
  0
LINE
  8
0
 10
135.294
 11
135.539
 20
211.665
 21
211.829
  0
LINE
  8
0
 10
135.539
 11
135.812
 20
211.829
 21
211.942
  0
LINE
  8
0
 10
135.812
 11
136.102
 20
211.942
 21
212
  0
LINE
  8
0
 10
136.102
 11
136.398
 20
212
 21
212
  0
LINE
  8
0
 10
136.398
 11
136.688
 20
212
 21
211.942
  0
LINE
  8
0
 10
136.688
 11
136.961
 20
211.942
 21
211.829
  0
LINE
  8
0
 10
136.961
 11
137.206
 20
211.829
 21
211.665
  0
LINE
  8
0
 10
137.206
 11
137.415
 20
211.665
 21
211.456
  0
LINE
  8
0
 10
137.415
 11
137.579
 20
211.456
 21
211.211
  0
LINE
  8
0
 10
137.579
 11
137.692
 20
211.211
 21
210.938
  0
LINE
  8
0
 10
137.692
 11
137.75
 20
210.938
 21
210.648
  0
LINE
  8
0
 10
137.75
 11
137.75
 20
210.648
 21
210.352
  0
LINE
  8
0
 10
137.75
 11
137.692
 20
210.352
 21
210.062
  0
LINE
  8
0
 10
137.692
 11
137.579
 20
210.062
 21
209.789
  0
LINE
  8
0
 10
137.579
 11
137.415
 20
209.789
 21
209.544
  0
LINE
  8
0
 10
137.415
 11
137.206
 20
209.544
 21
209.335
  0
LINE
  8
0
 10
137.206
 11
136.961
 20
209.335
 21
209.171
  0
LINE
  8
0
 10
136.961
 11
136.688
 20
209.171
 21
209.058
  0
LINE
  8
0
 10
136.688
 11
136.398
 20
209.058
 21
209
  0
LINE
  8
0
 10
136.398
 11
136.102
 20
209
 21
209
  0
LINE
  8
0
 10
136.102
 11
135.812
 20
209
 21
209.058
  0
LINE
  8
0
 10
135.812
 11
135.539
 20
209.058
 21
209.171
  0
LINE
  8
0
 10
135.539
 11
135.294
 20
209.171
 21
209.335
  0
LINE
  8
0
 10
135.294
 11
135.085
 20
209.335
 21
209.544
  0
LINE
  8
0
 10
135.085
 11
134.921
 20
209.544
 21
209.789
  0
LINE
  8
0
 10
134.921
 11
134.808
 20
209.789
 21
210.062
  0
LINE
  8
0
 10
134.808
 11
134.75
 20
210.062
 21
210.352
  0
LINE
  8
0
 10
138.75
 11
138.75
 20
-255.248
 21
-254.952
  0
LINE
  8
0
 10
138.75
 11
138.808
 20
-254.952
 21
-254.662
  0
LINE
  8
0
 10
138.808
 11
138.921
 20
-254.662
 21
-254.389
  0
LINE
  8
0
 10
138.921
 11
139.085
 20
-254.389
 21
-254.144
  0
LINE
  8
0
 10
139.085
 11
139.294
 20
-254.144
 21
-253.935
  0
LINE
  8
0
 10
139.294
 11
139.539
 20
-253.935
 21
-253.771
  0
LINE
  8
0
 10
139.539
 11
139.812
 20
-253.771
 21
-253.658
  0
LINE
  8
0
 10
139.812
 11
140.102
 20
-253.658
 21
-253.6
  0
LINE
  8
0
 10
140.102
 11
140.398
 20
-253.6
 21
-253.6
  0
LINE
  8
0
 10
140.398
 11
140.688
 20
-253.6
 21
-253.658
  0
LINE
  8
0
 10
140.688
 11
140.961
 20
-253.658
 21
-253.771
  0
LINE
  8
0
 10
140.961
 11
141.206
 20
-253.771
 21
-253.935
  0
LINE
  8
0
 10
141.206
 11
141.415
 20
-253.935
 21
-254.144
  0
LINE
  8
0
 10
141.415
 11
141.579
 20
-254.144
 21
-254.389
  0
LINE
  8
0
 10
141.579
 11
141.692
 20
-254.389
 21
-254.662
  0
LINE
  8
0
 10
141.692
 11
141.75
 20
-254.662
 21
-254.952
  0
LINE
  8
0
 10
141.75
 11
141.75
 20
-254.952
 21
-255.248
  0
LINE
  8
0
 10
141.75
 11
141.692
 20
-255.248
 21
-255.538
  0
LINE
  8
0
 10
141.692
 11
141.579
 20
-255.538
 21
-255.811
  0
LINE
  8
0
 10
141.579
 11
141.415
 20
-255.811
 21
-256.056
  0
LINE
  8
0
 10
141.415
 11
141.206
 20
-256.056
 21
-256.265
  0
LINE
  8
0
 10
141.206
 11
140.961
 20
-256.265
 21
-256.429
  0
LINE
  8
0
 10
140.961
 11
140.688
 20
-256.429
 21
-256.542
  0
LINE
  8
0
 10
140.688
 11
140.398
 20
-256.542
 21
-256.6
  0
LINE
  8
0
 10
140.398
 11
140.102
 20
-256.6
 21
-256.6
  0
LINE
  8
0
 10
140.102
 11
139.812
 20
-256.6
 21
-256.542
  0
LINE
  8
0
 10
139.812
 11
139.539
 20
-256.542
 21
-256.429
  0
LINE
  8
0
 10
139.539
 11
139.294
 20
-256.429
 21
-256.265
  0
LINE
  8
0
 10
139.294
 11
139.085
 20
-256.265
 21
-256.056
  0
LINE
  8
0
 10
139.085
 11
138.921
 20
-256.056
 21
-255.811
  0
LINE
  8
0
 10
138.921
 11
138.808
 20
-255.811
 21
-255.538
  0
LINE
  8
0
 10
138.808
 11
138.75
 20
-255.538
 21
-255.248
  0
LINE
  8
0
 10
138.75
 11
138.75
 20
-49.148
 21
-48.852
  0
LINE
  8
0
 10
138.75
 11
138.808
 20
-48.852
 21
-48.562
  0
LINE
  8
0
 10
138.808
 11
138.921
 20
-48.562
 21
-48.289
  0
LINE
  8
0
 10
138.921
 11
139.085
 20
-48.289
 21
-48.044
  0
LINE
  8
0
 10
139.085
 11
139.294
 20
-48.044
 21
-47.835
  0
LINE
  8
0
 10
139.294
 11
139.539
 20
-47.835
 21
-47.671
  0
LINE
  8
0
 10
139.539
 11
139.812
 20
-47.671
 21
-47.558
  0
LINE
  8
0
 10
139.812
 11
140.102
 20
-47.558
 21
-47.5
  0
LINE
  8
0
 10
140.102
 11
140.398
 20
-47.5
 21
-47.5
  0
LINE
  8
0
 10
140.398
 11
140.688
 20
-47.5
 21
-47.558
  0
LINE
  8
0
 10
140.688
 11
140.961
 20
-47.558
 21
-47.671
  0
LINE
  8
0
 10
140.961
 11
141.206
 20
-47.671
 21
-47.835
  0
LINE
  8
0
 10
141.206
 11
141.415
 20
-47.835
 21
-48.044
  0
LINE
  8
0
 10
141.415
 11
141.579
 20
-48.044
 21
-48.289
  0
LINE
  8
0
 10
141.579
 11
141.692
 20
-48.289
 21
-48.562
  0
LINE
  8
0
 10
141.692
 11
141.75
 20
-48.562
 21
-48.852
  0
LINE
  8
0
 10
141.75
 11
141.75
 20
-48.852
 21
-49.148
  0
LINE
  8
0
 10
141.75
 11
141.692
 20
-49.148
 21
-49.438
  0
LINE
  8
0
 10
141.692
 11
141.579
 20
-49.438
 21
-49.711
  0
LINE
  8
0
 10
141.579
 11
141.415
 20
-49.711
 21
-49.956
  0
LINE
  8
0
 10
141.415
 11
141.206
 20
-49.956
 21
-50.165
  0
LINE
  8
0
 10
141.206
 11
140.961
 20
-50.165
 21
-50.329
  0
LINE
  8
0
 10
140.961
 11
140.688
 20
-50.329
 21
-50.442
  0
LINE
  8
0
 10
140.688
 11
140.398
 20
-50.442
 21
-50.5
  0
LINE
  8
0
 10
140.398
 11
140.102
 20
-50.5
 21
-50.5
  0
LINE
  8
0
 10
140.102
 11
139.812
 20
-50.5
 21
-50.442
  0
LINE
  8
0
 10
139.812
 11
139.539
 20
-50.442
 21
-50.329
  0
LINE
  8
0
 10
139.539
 11
139.294
 20
-50.329
 21
-50.165
  0
LINE
  8
0
 10
139.294
 11
139.085
 20
-50.165
 21
-49.956
  0
LINE
  8
0
 10
139.085
 11
138.921
 20
-49.956
 21
-49.711
  0
LINE
  8
0
 10
138.921
 11
138.808
 20
-49.711
 21
-49.438
  0
LINE
  8
0
 10
138.808
 11
138.75
 20
-49.438
 21
-49.148
  0
LINE
  8
0
 10
145
 11
145
 20
-60
 21
-32.26
  0
LINE
  8
0
 10
145
 11
157
 20
-32.26
 21
-32.26
  0
LINE
  8
0
 10
157
 11
157
 20
-32.26
 21
-60
  0
LINE
  8
0
 10
157
 11
145
 20
-60
 21
-60
  0
LINE
  8
0
 10
149.6
 11
149.6
 20
-279.68
 21
-278.52
  0
LINE
  8
0
 10
149.6
 11
150.42
 20
-278.52
 21
-277.7
  0
LINE
  8
0
 10
150.42
 11
151.58
 20
-277.7
 21
-277.7
  0
LINE
  8
0
 10
151.58
 11
152.4
 20
-277.7
 21
-278.52
  0
LINE
  8
0
 10
152.4
 11
152.4
 20
-278.52
 21
-279.68
  0
LINE
  8
0
 10
152.4
 11
151.58
 20
-279.68
 21
-280.5
  0
LINE
  8
0
 10
151.58
 11
150.42
 20
-280.5
 21
-280.5
  0
LINE
  8
0
 10
150.42
 11
149.6
 20
-280.5
 21
-279.68
  0
LINE
  8
0
 10
149.6
 11
149.6
 20
-25.33
 21
-24.17
  0
LINE
  8
0
 10
149.6
 11
150.42
 20
-24.17
 21
-23.35
  0
LINE
  8
0
 10
150.42
 11
151.58
 20
-23.35
 21
-23.35
  0
LINE
  8
0
 10
151.58
 11
152.4
 20
-23.35
 21
-24.17
  0
LINE
  8
0
 10
152.4
 11
152.4
 20
-24.17
 21
-25.33
  0
LINE
  8
0
 10
152.4
 11
151.58
 20
-25.33
 21
-26.15
  0
LINE
  8
0
 10
151.58
 11
150.42
 20
-26.15
 21
-26.15
  0
LINE
  8
0
 10
150.42
 11
149.6
 20
-26.15
 21
-25.33
  0
LINE
  8
0
 10
156.25
 11
156.25
 20
210.352
 21
210.648
  0
LINE
  8
0
 10
156.25
 11
156.308
 20
210.648
 21
210.938
  0
LINE
  8
0
 10
156.308
 11
156.421
 20
210.938
 21
211.211
  0
LINE
  8
0
 10
156.421
 11
156.585
 20
211.211
 21
211.456
  0
LINE
  8
0
 10
156.585
 11
156.794
 20
211.456
 21
211.665
  0
LINE
  8
0
 10
156.794
 11
157.039
 20
211.665
 21
211.829
  0
LINE
  8
0
 10
157.039
 11
157.312
 20
211.829
 21
211.942
  0
LINE
  8
0
 10
157.312
 11
157.602
 20
211.942
 21
212
  0
LINE
  8
0
 10
157.602
 11
157.898
 20
212
 21
212
  0
LINE
  8
0
 10
157.898
 11
158.188
 20
212
 21
211.942
  0
LINE
  8
0
 10
158.188
 11
158.461
 20
211.942
 21
211.829
  0
LINE
  8
0
 10
158.461
 11
158.706
 20
211.829
 21
211.665
  0
LINE
  8
0
 10
158.706
 11
158.915
 20
211.665
 21
211.456
  0
LINE
  8
0
 10
158.915
 11
159.079
 20
211.456
 21
211.211
  0
LINE
  8
0
 10
159.079
 11
159.192
 20
211.211
 21
210.938
  0
LINE
  8
0
 10
159.192
 11
159.25
 20
210.938
 21
210.648
  0
LINE
  8
0
 10
159.25
 11
159.25
 20
210.648
 21
210.352
  0
LINE
  8
0
 10
159.25
 11
159.192
 20
210.352
 21
210.062
  0
LINE
  8
0
 10
159.192
 11
159.079
 20
210.062
 21
209.789
  0
LINE
  8
0
 10
159.079
 11
158.915
 20
209.789
 21
209.544
  0
LINE
  8
0
 10
158.915
 11
158.706
 20
209.544
 21
209.335
  0
LINE
  8
0
 10
158.706
 11
158.461
 20
209.335
 21
209.171
  0
LINE
  8
0
 10
158.461
 11
158.188
 20
209.171
 21
209.058
  0
LINE
  8
0
 10
158.188
 11
157.898
 20
209.058
 21
209
  0
LINE
  8
0
 10
157.898
 11
157.602
 20
209
 21
209
  0
LINE
  8
0
 10
157.602
 11
157.312
 20
209
 21
209.058
  0
LINE
  8
0
 10
157.312
 11
157.039
 20
209.058
 21
209.171
  0
LINE
  8
0
 10
157.039
 11
156.794
 20
209.171
 21
209.335
  0
LINE
  8
0
 10
156.794
 11
156.585
 20
209.335
 21
209.544
  0
LINE
  8
0
 10
156.585
 11
156.421
 20
209.544
 21
209.789
  0
LINE
  8
0
 10
156.421
 11
156.308
 20
209.789
 21
210.062
  0
LINE
  8
0
 10
156.308
 11
156.25
 20
210.062
 21
210.352
  0
LINE
  8
0
 10
160.25
 11
160.25
 20
-255.248
 21
-254.952
  0
LINE
  8
0
 10
160.25
 11
160.308
 20
-254.952
 21
-254.662
  0
LINE
  8
0
 10
160.308
 11
160.421
 20
-254.662
 21
-254.389
  0
LINE
  8
0
 10
160.421
 11
160.585
 20
-254.389
 21
-254.144
  0
LINE
  8
0
 10
160.585
 11
160.794
 20
-254.144
 21
-253.935
  0
LINE
  8
0
 10
160.794
 11
161.039
 20
-253.935
 21
-253.771
  0
LINE
  8
0
 10
161.039
 11
161.312
 20
-253.771
 21
-253.658
  0
LINE
  8
0
 10
161.312
 11
161.602
 20
-253.658
 21
-253.6
  0
LINE
  8
0
 10
161.602
 11
161.898
 20
-253.6
 21
-253.6
  0
LINE
  8
0
 10
161.898
 11
162.188
 20
-253.6
 21
-253.658
  0
LINE
  8
0
 10
162.188
 11
162.461
 20
-253.658
 21
-253.771
  0
LINE
  8
0
 10
162.461
 11
162.706
 20
-253.771
 21
-253.935
  0
LINE
  8
0
 10
162.706
 11
162.915
 20
-253.935
 21
-254.144
  0
LINE
  8
0
 10
162.915
 11
163.079
 20
-254.144
 21
-254.389
  0
LINE
  8
0
 10
163.079
 11
163.192
 20
-254.389
 21
-254.662
  0
LINE
  8
0
 10
163.192
 11
163.25
 20
-254.662
 21
-254.952
  0
LINE
  8
0
 10
163.25
 11
163.25
 20
-254.952
 21
-255.248
  0
LINE
  8
0
 10
163.25
 11
163.192
 20
-255.248
 21
-255.538
  0
LINE
  8
0
 10
163.192
 11
163.079
 20
-255.538
 21
-255.811
  0
LINE
  8
0
 10
163.079
 11
162.915
 20
-255.811
 21
-256.056
  0
LINE
  8
0
 10
162.915
 11
162.706
 20
-256.056
 21
-256.265
  0
LINE
  8
0
 10
162.706
 11
162.461
 20
-256.265
 21
-256.429
  0
LINE
  8
0
 10
162.461
 11
162.188
 20
-256.429
 21
-256.542
  0
LINE
  8
0
 10
162.188
 11
161.898
 20
-256.542
 21
-256.6
  0
LINE
  8
0
 10
161.898
 11
161.602
 20
-256.6
 21
-256.6
  0
LINE
  8
0
 10
161.602
 11
161.312
 20
-256.6
 21
-256.542
  0
LINE
  8
0
 10
161.312
 11
161.039
 20
-256.542
 21
-256.429
  0
LINE
  8
0
 10
161.039
 11
160.794
 20
-256.429
 21
-256.265
  0
LINE
  8
0
 10
160.794
 11
160.585
 20
-256.265
 21
-256.056
  0
LINE
  8
0
 10
160.585
 11
160.421
 20
-256.056
 21
-255.811
  0
LINE
  8
0
 10
160.421
 11
160.308
 20
-255.811
 21
-255.538
  0
LINE
  8
0
 10
160.308
 11
160.25
 20
-255.538
 21
-255.248
  0
LINE
  8
0
 10
160.25
 11
160.25
 20
-49.148
 21
-48.852
  0
LINE
  8
0
 10
160.25
 11
160.308
 20
-48.852
 21
-48.562
  0
LINE
  8
0
 10
160.308
 11
160.421
 20
-48.562
 21
-48.289
  0
LINE
  8
0
 10
160.421
 11
160.585
 20
-48.289
 21
-48.044
  0
LINE
  8
0
 10
160.585
 11
160.794
 20
-48.044
 21
-47.835
  0
LINE
  8
0
 10
160.794
 11
161.039
 20
-47.835
 21
-47.671
  0
LINE
  8
0
 10
161.039
 11
161.312
 20
-47.671
 21
-47.558
  0
LINE
  8
0
 10
161.312
 11
161.602
 20
-47.558
 21
-47.5
  0
LINE
  8
0
 10
161.602
 11
161.898
 20
-47.5
 21
-47.5
  0
LINE
  8
0
 10
161.898
 11
162.188
 20
-47.5
 21
-47.558
  0
LINE
  8
0
 10
162.188
 11
162.461
 20
-47.558
 21
-47.671
  0
LINE
  8
0
 10
162.461
 11
162.706
 20
-47.671
 21
-47.835
  0
LINE
  8
0
 10
162.706
 11
162.915
 20
-47.835
 21
-48.044
  0
LINE
  8
0
 10
162.915
 11
163.079
 20
-48.044
 21
-48.289
  0
LINE
  8
0
 10
163.079
 11
163.192
 20
-48.289
 21
-48.562
  0
LINE
  8
0
 10
163.192
 11
163.25
 20
-48.562
 21
-48.852
  0
LINE
  8
0
 10
163.25
 11
163.25
 20
-48.852
 21
-49.148
  0
LINE
  8
0
 10
163.25
 11
163.192
 20
-49.148
 21
-49.438
  0
LINE
  8
0
 10
163.192
 11
163.079
 20
-49.438
 21
-49.711
  0
LINE
  8
0
 10
163.079
 11
162.915
 20
-49.711
 21
-49.956
  0
LINE
  8
0
 10
162.915
 11
162.706
 20
-49.956
 21
-50.165
  0
LINE
  8
0
 10
162.706
 11
162.461
 20
-50.165
 21
-50.329
  0
LINE
  8
0
 10
162.461
 11
162.188
 20
-50.329
 21
-50.442
  0
LINE
  8
0
 10
162.188
 11
161.898
 20
-50.442
 21
-50.5
  0
LINE
  8
0
 10
161.898
 11
161.602
 20
-50.5
 21
-50.5
  0
LINE
  8
0
 10
161.602
 11
161.312
 20
-50.5
 21
-50.442
  0
LINE
  8
0
 10
161.312
 11
161.039
 20
-50.442
 21
-50.329
  0
LINE
  8
0
 10
161.039
 11
160.794
 20
-50.329
 21
-50.165
  0
LINE
  8
0
 10
160.794
 11
160.585
 20
-50.165
 21
-49.956
  0
LINE
  8
0
 10
160.585
 11
160.421
 20
-49.956
 21
-49.711
  0
LINE
  8
0
 10
160.421
 11
160.308
 20
-49.711
 21
-49.438
  0
LINE
  8
0
 10
160.308
 11
160.25
 20
-49.438
 21
-49.148
  0
LINE
  8
0
 10
161.01
 11
161.01
 20
-282.375
 21
-275.825
  0
LINE
  8
0
 10
161.01
 11
168.99
 20
-275.825
 21
-275.825
  0
LINE
  8
0
 10
168.99
 11
168.99
 20
-275.825
 21
-282.375
  0
LINE
  8
0
 10
168.99
 11
161.01
 20
-282.375
 21
-282.375
  0
LINE
  8
0
 10
161.01
 11
161.01
 20
-28.025
 21
-21.475
  0
LINE
  8
0
 10
161.01
 11
168.99
 20
-21.475
 21
-21.475
  0
LINE
  8
0
 10
168.99
 11
168.99
 20
-21.475
 21
-28.025
  0
LINE
  8
0
 10
168.99
 11
161.01
 20
-28.025
 21
-28.025
  0
LINE
  8
0
 10
203.06
 11
203.06
 20
216.306
 21
216.694
  0
LINE
  8
0
 10
203.06
 11
203.098
 20
216.694
 21
217.079
  0
LINE
  8
0
 10
203.098
 11
203.173
 20
217.079
 21
217.458
  0
LINE
  8
0
 10
203.173
 11
203.286
 20
217.458
 21
217.829
  0
LINE
  8
0
 10
203.286
 11
203.434
 20
217.829
 21
218.187
  0
LINE
  8
0
 10
203.434
 11
203.616
 20
218.187
 21
218.528
  0
LINE
  8
0
 10
203.616
 11
203.832
 20
218.528
 21
218.85
  0
LINE
  8
0
 10
203.832
 11
204.077
 20
218.85
 21
219.149
  0
LINE
  8
0
 10
204.077
 11
204.351
 20
219.149
 21
219.423
  0
LINE
  8
0
 10
204.351
 11
204.65
 20
219.423
 21
219.668
  0
LINE
  8
0
 10
204.65
 11
204.972
 20
219.668
 21
219.884
  0
LINE
  8
0
 10
204.972
 11
205.313
 20
219.884
 21
220.066
  0
LINE
  8
0
 10
205.313
 11
205.671
 20
220.066
 21
220.214
  0
LINE
  8
0
 10
205.671
 11
206.042
 20
220.214
 21
220.327
  0
LINE
  8
0
 10
206.042
 11
206.421
 20
220.327
 21
220.402
  0
LINE
  8
0
 10
206.421
 11
206.806
 20
220.402
 21
220.44
  0
LINE
  8
0
 10
206.806
 11
207.194
 20
220.44
 21
220.44
  0
LINE
  8
0
 10
207.194
 11
207.579
 20
220.44
 21
220.402
  0
LINE
  8
0
 10
207.579
 11
207.958
 20
220.402
 21
220.327
  0
LINE
  8
0
 10
207.958
 11
208.329
 20
220.327
 21
220.214
  0
LINE
  8
0
 10
208.329
 11
208.687
 20
220.214
 21
220.066
  0
LINE
  8
0
 10
208.687
 11
209.028
 20
220.066
 21
219.884
  0
LINE
  8
0
 10
209.028
 11
209.35
 20
219.884
 21
219.668
  0
LINE
  8
0
 10
209.35
 11
209.649
 20
219.668
 21
219.423
  0
LINE
  8
0
 10
209.649
 11
209.923
 20
219.423
 21
219.149
  0
LINE
  8
0
 10
209.923
 11
210.168
 20
219.149
 21
218.85
  0
LINE
  8
0
 10
210.168
 11
210.384
 20
218.85
 21
218.528
  0
LINE
  8
0
 10
210.384
 11
210.566
 20
218.528
 21
218.187
  0
LINE
  8
0
 10
210.566
 11
210.714
 20
218.187
 21
217.829
  0
LINE
  8
0
 10
210.714
 11
210.827
 20
217.829
 21
217.458
  0
LINE
  8
0
 10
210.827
 11
210.902
 20
217.458
 21
217.079
  0
LINE
  8
0
 10
210.902
 11
210.94
 20
217.079
 21
216.694
  0
LINE
  8
0
 10
210.94
 11
210.94
 20
216.694
 21
216.306
  0
LINE
  8
0
 10
210.94
 11
210.902
 20
216.306
 21
215.921
  0
LINE
  8
0
 10
210.902
 11
210.827
 20
215.921
 21
215.542
  0
LINE
  8
0
 10
210.827
 11
210.714
 20
215.542
 21
215.171
  0
LINE
  8
0
 10
210.714
 11
210.566
 20
215.171
 21
214.813
  0
LINE
  8
0
 10
210.566
 11
210.384
 20
214.813
 21
214.472
  0
LINE
  8
0
 10
210.384
 11
210.168
 20
214.472
 21
214.15
  0
LINE
  8
0
 10
210.168
 11
209.923
 20
214.15
 21
213.851
  0
LINE
  8
0
 10
209.923
 11
209.649
 20
213.851
 21
213.577
  0
LINE
  8
0
 10
209.649
 11
209.35
 20
213.577
 21
213.332
  0
LINE
  8
0
 10
209.35
 11
209.028
 20
213.332
 21
213.116
  0
LINE
  8
0
 10
209.028
 11
208.687
 20
213.116
 21
212.934
  0
LINE
  8
0
 10
208.687
 11
208.329
 20
212.934
 21
212.786
  0
LINE
  8
0
 10
208.329
 11
207.958
 20
212.786
 21
212.673
  0
LINE
  8
0
 10
207.958
 11
207.579
 20
212.673
 21
212.598
  0
LINE
  8
0
 10
207.579
 11
207.194
 20
212.598
 21
212.56
  0
LINE
  8
0
 10
207.194
 11
206.806
 20
212.56
 21
212.56
  0
LINE
  8
0
 10
206.806
 11
206.421
 20
212.56
 21
212.598
  0
LINE
  8
0
 10
206.421
 11
206.042
 20
212.598
 21
212.673
  0
LINE
  8
0
 10
206.042
 11
205.671
 20
212.673
 21
212.786
  0
LINE
  8
0
 10
205.671
 11
205.313
 20
212.786
 21
212.934
  0
LINE
  8
0
 10
205.313
 11
204.972
 20
212.934
 21
213.116
  0
LINE
  8
0
 10
204.972
 11
204.65
 20
213.116
 21
213.332
  0
LINE
  8
0
 10
204.65
 11
204.351
 20
213.332
 21
213.577
  0
LINE
  8
0
 10
204.351
 11
204.077
 20
213.577
 21
213.851
  0
LINE
  8
0
 10
204.077
 11
203.832
 20
213.851
 21
214.15
  0
LINE
  8
0
 10
203.832
 11
203.616
 20
214.15
 21
214.472
  0
LINE
  8
0
 10
203.616
 11
203.434
 20
214.472
 21
214.813
  0
LINE
  8
0
 10
203.434
 11
203.286
 20
214.813
 21
215.171
  0
LINE
  8
0
 10
203.286
 11
203.173
 20
215.171
 21
215.542
  0
LINE
  8
0
 10
203.173
 11
203.098
 20
215.542
 21
215.921
  0
LINE
  8
0
 10
203.098
 11
203.06
 20
215.921
 21
216.306
  0
LINE
  8
0
 10
247.01
 11
247.01
 20
-282.375
 21
-275.825
  0
LINE
  8
0
 10
247.01
 11
254.99
 20
-275.825
 21
-275.825
  0
LINE
  8
0
 10
254.99
 11
254.99
 20
-275.825
 21
-282.375
  0
LINE
  8
0
 10
254.99
 11
247.01
 20
-282.375
 21
-282.375
  0
LINE
  8
0
 10
247.01
 11
247.01
 20
-28.025
 21
-21.475
  0
LINE
  8
0
 10
247.01
 11
254.99
 20
-21.475
 21
-21.475
  0
LINE
  8
0
 10
254.99
 11
254.99
 20
-21.475
 21
-28.025
  0
LINE
  8
0
 10
254.99
 11
247.01
 20
-28.025
 21
-28.025
  0
LINE
  8
0
 10
250.5
 11
250.5
 20
-67.074
 21
-66.926
  0
LINE
  8
0
 10
250.5
 11
250.514
 20
-66.926
 21
-66.78
  0
LINE
  8
0
 10
250.514
 11
250.543
 20
-66.78
 21
-66.635
  0
LINE
  8
0
 10
250.543
 11
250.586
 20
-66.635
 21
-66.494
  0
LINE
  8
0
 10
250.586
 11
250.642
 20
-66.494
 21
-66.358
  0
LINE
  8
0
 10
250.642
 11
250.712
 20
-66.358
 21
-66.228
  0
LINE
  8
0
 10
250.712
 11
250.794
 20
-66.228
 21
-66.105
  0
LINE
  8
0
 10
250.794
 11
250.887
 20
-66.105
 21
-65.991
  0
LINE
  8
0
 10
250.887
 11
250.991
 20
-65.991
 21
-65.887
  0
LINE
  8
0
 10
250.991
 11
251.105
 20
-65.887
 21
-65.794
  0
LINE
  8
0
 10
251.105
 11
251.228
 20
-65.794
 21
-65.712
  0
LINE
  8
0
 10
251.228
 11
251.358
 20
-65.712
 21
-65.642
  0
LINE
  8
0
 10
251.358
 11
251.494
 20
-65.642
 21
-65.586
  0
LINE
  8
0
 10
251.494
 11
251.635
 20
-65.586
 21
-65.543
  0
LINE
  8
0
 10
251.635
 11
251.78
 20
-65.543
 21
-65.514
  0
LINE
  8
0
 10
251.78
 11
251.926
 20
-65.514
 21
-65.5
  0
LINE
  8
0
 10
251.926
 11
252.074
 20
-65.5
 21
-65.5
  0
LINE
  8
0
 10
252.074
 11
252.22
 20
-65.5
 21
-65.514
  0
LINE
  8
0
 10
252.22
 11
252.365
 20
-65.514
 21
-65.543
  0
LINE
  8
0
 10
252.365
 11
252.506
 20
-65.543
 21
-65.586
  0
LINE
  8
0
 10
252.506
 11
252.642
 20
-65.586
 21
-65.642
  0
LINE
  8
0
 10
252.642
 11
252.772
 20
-65.642
 21
-65.712
  0
LINE
  8
0
 10
252.772
 11
252.895
 20
-65.712
 21
-65.794
  0
LINE
  8
0
 10
252.895
 11
253.009
 20
-65.794
 21
-65.887
  0
LINE
  8
0
 10
253.009
 11
253.113
 20
-65.887
 21
-65.991
  0
LINE
  8
0
 10
253.113
 11
253.206
 20
-65.991
 21
-66.105
  0
LINE
  8
0
 10
253.206
 11
253.288
 20
-66.105
 21
-66.228
  0
LINE
  8
0
 10
253.288
 11
253.358
 20
-66.228
 21
-66.358
  0
LINE
  8
0
 10
253.358
 11
253.414
 20
-66.358
 21
-66.494
  0
LINE
  8
0
 10
253.414
 11
253.457
 20
-66.494
 21
-66.635
  0
LINE
  8
0
 10
253.457
 11
253.486
 20
-66.635
 21
-66.78
  0
LINE
  8
0
 10
253.486
 11
253.5
 20
-66.78
 21
-66.926
  0
LINE
  8
0
 10
253.5
 11
253.5
 20
-66.926
 21
-67.074
  0
LINE
  8
0
 10
253.5
 11
253.486
 20
-67.074
 21
-67.22
  0
LINE
  8
0
 10
253.486
 11
253.457
 20
-67.22
 21
-67.365
  0
LINE
  8
0
 10
253.457
 11
253.414
 20
-67.365
 21
-67.506
  0
LINE
  8
0
 10
253.414
 11
253.358
 20
-67.506
 21
-67.642
  0
LINE
  8
0
 10
253.358
 11
253.288
 20
-67.642
 21
-67.772
  0
LINE
  8
0
 10
253.288
 11
253.206
 20
-67.772
 21
-67.895
  0
LINE
  8
0
 10
253.206
 11
253.113
 20
-67.895
 21
-68.009
  0
LINE
  8
0
 10
253.113
 11
253.009
 20
-68.009
 21
-68.113
  0
LINE
  8
0
 10
253.009
 11
252.895
 20
-68.113
 21
-68.206
  0
LINE
  8
0
 10
252.895
 11
252.772
 20
-68.206
 21
-68.288
  0
LINE
  8
0
 10
252.772
 11
252.642
 20
-68.288
 21
-68.358
  0
LINE
  8
0
 10
252.642
 11
252.506
 20
-68.358
 21
-68.414
  0
LINE
  8
0
 10
252.506
 11
252.365
 20
-68.414
 21
-68.457
  0
LINE
  8
0
 10
252.365
 11
252.22
 20
-68.457
 21
-68.486
  0
LINE
  8
0
 10
252.22
 11
252.074
 20
-68.486
 21
-68.5
  0
LINE
  8
0
 10
252.074
 11
251.926
 20
-68.5
 21
-68.5
  0
LINE
  8
0
 10
251.926
 11
251.78
 20
-68.5
 21
-68.486
  0
LINE
  8
0
 10
251.78
 11
251.635
 20
-68.486
 21
-68.457
  0
LINE
  8
0
 10
251.635
 11
251.494
 20
-68.457
 21
-68.414
  0
LINE
  8
0
 10
251.494
 11
251.358
 20
-68.414
 21
-68.358
  0
LINE
  8
0
 10
251.358
 11
251.228
 20
-68.358
 21
-68.288
  0
LINE
  8
0
 10
251.228
 11
251.105
 20
-68.288
 21
-68.206
  0
LINE
  8
0
 10
251.105
 11
250.991
 20
-68.206
 21
-68.113
  0
LINE
  8
0
 10
250.991
 11
250.887
 20
-68.113
 21
-68.009
  0
LINE
  8
0
 10
250.887
 11
250.794
 20
-68.009
 21
-67.895
  0
LINE
  8
0
 10
250.794
 11
250.712
 20
-67.895
 21
-67.772
  0
LINE
  8
0
 10
250.712
 11
250.642
 20
-67.772
 21
-67.642
  0
LINE
  8
0
 10
250.642
 11
250.586
 20
-67.642
 21
-67.506
  0
LINE
  8
0
 10
250.586
 11
250.543
 20
-67.506
 21
-67.365
  0
LINE
  8
0
 10
250.543
 11
250.514
 20
-67.365
 21
-67.22
  0
LINE
  8
0
 10
250.514
 11
250.5
 20
-67.22
 21
-67.074
  0
LINE
  8
0
 10
250.5
 11
250.5
 20
-36.074
 21
-35.926
  0
LINE
  8
0
 10
250.5
 11
250.514
 20
-35.926
 21
-35.78
  0
LINE
  8
0
 10
250.514
 11
250.543
 20
-35.78
 21
-35.635
  0
LINE
  8
0
 10
250.543
 11
250.586
 20
-35.635
 21
-35.494
  0
LINE
  8
0
 10
250.586
 11
250.642
 20
-35.494
 21
-35.358
  0
LINE
  8
0
 10
250.642
 11
250.712
 20
-35.358
 21
-35.228
  0
LINE
  8
0
 10
250.712
 11
250.794
 20
-35.228
 21
-35.105
  0
LINE
  8
0
 10
250.794
 11
250.887
 20
-35.105
 21
-34.991
  0
LINE
  8
0
 10
250.887
 11
250.991
 20
-34.991
 21
-34.887
  0
LINE
  8
0
 10
250.991
 11
251.105
 20
-34.887
 21
-34.794
  0
LINE
  8
0
 10
251.105
 11
251.228
 20
-34.794
 21
-34.712
  0
LINE
  8
0
 10
251.228
 11
251.358
 20
-34.712
 21
-34.642
  0
LINE
  8
0
 10
251.358
 11
251.494
 20
-34.642
 21
-34.586
  0
LINE
  8
0
 10
251.494
 11
251.635
 20
-34.586
 21
-34.543
  0
LINE
  8
0
 10
251.635
 11
251.78
 20
-34.543
 21
-34.514
  0
LINE
  8
0
 10
251.78
 11
251.926
 20
-34.514
 21
-34.5
  0
LINE
  8
0
 10
251.926
 11
252.074
 20
-34.5
 21
-34.5
  0
LINE
  8
0
 10
252.074
 11
252.22
 20
-34.5
 21
-34.514
  0
LINE
  8
0
 10
252.22
 11
252.365
 20
-34.514
 21
-34.543
  0
LINE
  8
0
 10
252.365
 11
252.506
 20
-34.543
 21
-34.586
  0
LINE
  8
0
 10
252.506
 11
252.642
 20
-34.586
 21
-34.642
  0
LINE
  8
0
 10
252.642
 11
252.772
 20
-34.642
 21
-34.712
  0
LINE
  8
0
 10
252.772
 11
252.895
 20
-34.712
 21
-34.794
  0
LINE
  8
0
 10
252.895
 11
253.009
 20
-34.794
 21
-34.887
  0
LINE
  8
0
 10
253.009
 11
253.113
 20
-34.887
 21
-34.991
  0
LINE
  8
0
 10
253.113
 11
253.206
 20
-34.991
 21
-35.105
  0
LINE
  8
0
 10
253.206
 11
253.288
 20
-35.105
 21
-35.228
  0
LINE
  8
0
 10
253.288
 11
253.358
 20
-35.228
 21
-35.358
  0
LINE
  8
0
 10
253.358
 11
253.414
 20
-35.358
 21
-35.494
  0
LINE
  8
0
 10
253.414
 11
253.457
 20
-35.494
 21
-35.635
  0
LINE
  8
0
 10
253.457
 11
253.486
 20
-35.635
 21
-35.78
  0
LINE
  8
0
 10
253.486
 11
253.5
 20
-35.78
 21
-35.926
  0
LINE
  8
0
 10
253.5
 11
253.5
 20
-35.926
 21
-36.074
  0
LINE
  8
0
 10
253.5
 11
253.486
 20
-36.074
 21
-36.22
  0
LINE
  8
0
 10
253.486
 11
253.457
 20
-36.22
 21
-36.365
  0
LINE
  8
0
 10
253.457
 11
253.414
 20
-36.365
 21
-36.506
  0
LINE
  8
0
 10
253.414
 11
253.358
 20
-36.506
 21
-36.642
  0
LINE
  8
0
 10
253.358
 11
253.288
 20
-36.642
 21
-36.772
  0
LINE
  8
0
 10
253.288
 11
253.206
 20
-36.772
 21
-36.895
  0
LINE
  8
0
 10
253.206
 11
253.113
 20
-36.895
 21
-37.009
  0
LINE
  8
0
 10
253.113
 11
253.009
 20
-37.009
 21
-37.113
  0
LINE
  8
0
 10
253.009
 11
252.895
 20
-37.113
 21
-37.206
  0
LINE
  8
0
 10
252.895
 11
252.772
 20
-37.206
 21
-37.288
  0
LINE
  8
0
 10
252.772
 11
252.642
 20
-37.288
 21
-37.358
  0
LINE
  8
0
 10
252.642
 11
252.506
 20
-37.358
 21
-37.414
  0
LINE
  8
0
 10
252.506
 11
252.365
 20
-37.414
 21
-37.457
  0
LINE
  8
0
 10
252.365
 11
252.22
 20
-37.457
 21
-37.486
  0
LINE
  8
0
 10
252.22
 11
252.074
 20
-37.486
 21
-37.5
  0
LINE
  8
0
 10
252.074
 11
251.926
 20
-37.5
 21
-37.5
  0
LINE
  8
0
 10
251.926
 11
251.78
 20
-37.5
 21
-37.486
  0
LINE
  8
0
 10
251.78
 11
251.635
 20
-37.486
 21
-37.457
  0
LINE
  8
0
 10
251.635
 11
251.494
 20
-37.457
 21
-37.414
  0
LINE
  8
0
 10
251.494
 11
251.358
 20
-37.414
 21
-37.358
  0
LINE
  8
0
 10
251.358
 11
251.228
 20
-37.358
 21
-37.288
  0
LINE
  8
0
 10
251.228
 11
251.105
 20
-37.288
 21
-37.206
  0
LINE
  8
0
 10
251.105
 11
250.991
 20
-37.206
 21
-37.113
  0
LINE
  8
0
 10
250.991
 11
250.887
 20
-37.113
 21
-37.009
  0
LINE
  8
0
 10
250.887
 11
250.794
 20
-37.009
 21
-36.895
  0
LINE
  8
0
 10
250.794
 11
250.712
 20
-36.895
 21
-36.772
  0
LINE
  8
0
 10
250.712
 11
250.642
 20
-36.772
 21
-36.642
  0
LINE
  8
0
 10
250.642
 11
250.586
 20
-36.642
 21
-36.506
  0
LINE
  8
0
 10
250.586
 11
250.543
 20
-36.506
 21
-36.365
  0
LINE
  8
0
 10
250.543
 11
250.514
 20
-36.365
 21
-36.22
  0
LINE
  8
0
 10
250.514
 11
250.5
 20
-36.22
 21
-36.074
  0
LINE
  8
0
 10
256.5
 11
256.5
 20
-52.04
 21
-50.96
  0
LINE
  8
0
 10
256.5
 11
256.606
 20
-50.96
 21
-49.884
  0
LINE
  8
0
 10
256.606
 11
256.817
 20
-49.884
 21
-48.824
  0
LINE
  8
0
 10
256.817
 11
257.131
 20
-48.824
 21
-47.79
  0
LINE
  8
0
 10
257.131
 11
257.544
 20
-47.79
 21
-46.791
  0
LINE
  8
0
 10
257.544
 11
258.054
 20
-46.791
 21
-45.838
  0
LINE
  8
0
 10
258.054
 11
258.654
 20
-45.838
 21
-44.939
  0
LINE
  8
0
 10
258.654
 11
259.34
 20
-44.939
 21
-44.104
  0
LINE
  8
0
 10
259.34
 11
260.104
 20
-44.104
 21
-43.34
  0
LINE
  8
0
 10
260.104
 11
260.939
 20
-43.34
 21
-42.654
  0
LINE
  8
0
 10
260.939
 11
261.838
 20
-42.654
 21
-42.054
  0
LINE
  8
0
 10
261.838
 11
262.791
 20
-42.054
 21
-41.544
  0
LINE
  8
0
 10
262.791
 11
263.79
 20
-41.544
 21
-41.131
  0
LINE
  8
0
 10
263.79
 11
264.824
 20
-41.131
 21
-40.817
  0
LINE
  8
0
 10
264.824
 11
265.884
 20
-40.817
 21
-40.606
  0
LINE
  8
0
 10
265.884
 11
266.96
 20
-40.606
 21
-40.5
  0
LINE
  8
0
 10
266.96
 11
268.04
 20
-40.5
 21
-40.5
  0
LINE
  8
0
 10
268.04
 11
269.116
 20
-40.5
 21
-40.606
  0
LINE
  8
0
 10
269.116
 11
270.176
 20
-40.606
 21
-40.817
  0
LINE
  8
0
 10
270.176
 11
271.21
 20
-40.817
 21
-41.131
  0
LINE
  8
0
 10
271.21
 11
272.209
 20
-41.131
 21
-41.544
  0
LINE
  8
0
 10
272.209
 11
273.162
 20
-41.544
 21
-42.054
  0
LINE
  8
0
 10
273.162
 11
274.061
 20
-42.054
 21
-42.654
  0
LINE
  8
0
 10
274.061
 11
274.896
 20
-42.654
 21
-43.34
  0
LINE
  8
0
 10
274.896
 11
275.66
 20
-43.34
 21
-44.104
  0
LINE
  8
0
 10
275.66
 11
276.346
 20
-44.104
 21
-44.939
  0
LINE
  8
0
 10
276.346
 11
276.946
 20
-44.939
 21
-45.838
  0
LINE
  8
0
 10
276.946
 11
277.456
 20
-45.838
 21
-46.791
  0
LINE
  8
0
 10
277.456
 11
277.869
 20
-46.791
 21
-47.79
  0
LINE
  8
0
 10
277.869
 11
278.183
 20
-47.79
 21
-48.824
  0
LINE
  8
0
 10
278.183
 11
278.394
 20
-48.824
 21
-49.884
  0
LINE
  8
0
 10
278.394
 11
278.5
 20
-49.884
 21
-50.96
  0
LINE
  8
0
 10
278.5
 11
278.5
 20
-50.96
 21
-52.04
  0
LINE
  8
0
 10
278.5
 11
278.394
 20
-52.04
 21
-53.116
  0
LINE
  8
0
 10
278.394
 11
278.183
 20
-53.116
 21
-54.176
  0
LINE
  8
0
 10
278.183
 11
277.869
 20
-54.176
 21
-55.21
  0
LINE
  8
0
 10
277.869
 11
277.456
 20
-55.21
 21
-56.209
  0
LINE
  8
0
 10
277.456
 11
276.946
 20
-56.209
 21
-57.162
  0
LINE
  8
0
 10
276.946
 11
276.346
 20
-57.162
 21
-58.061
  0
LINE
  8
0
 10
276.346
 11
275.66
 20
-58.061
 21
-58.896
  0
LINE
  8
0
 10
275.66
 11
274.896
 20
-58.896
 21
-59.66
  0
LINE
  8
0
 10
274.896
 11
274.061
 20
-59.66
 21
-60.346
  0
LINE
  8
0
 10
274.061
 11
273.162
 20
-60.346
 21
-60.946
  0
LINE
  8
0
 10
273.162
 11
272.209
 20
-60.946
 21
-61.456
  0
LINE
  8
0
 10
272.209
 11
271.21
 20
-61.456
 21
-61.869
  0
LINE
  8
0
 10
271.21
 11
270.176
 20
-61.869
 21
-62.183
  0
LINE
  8
0
 10
270.176
 11
269.116
 20
-62.183
 21
-62.394
  0
LINE
  8
0
 10
269.116
 11
268.04
 20
-62.394
 21
-62.5
  0
LINE
  8
0
 10
268.04
 11
266.96
 20
-62.5
 21
-62.5
  0
LINE
  8
0
 10
266.96
 11
265.884
 20
-62.5
 21
-62.394
  0
LINE
  8
0
 10
265.884
 11
264.824
 20
-62.394
 21
-62.183
  0
LINE
  8
0
 10
264.824
 11
263.79
 20
-62.183
 21
-61.869
  0
LINE
  8
0
 10
263.79
 11
262.791
 20
-61.869
 21
-61.456
  0
LINE
  8
0
 10
262.791
 11
261.838
 20
-61.456
 21
-60.946
  0
LINE
  8
0
 10
261.838
 11
260.939
 20
-60.946
 21
-60.346
  0
LINE
  8
0
 10
260.939
 11
260.104
 20
-60.346
 21
-59.66
  0
LINE
  8
0
 10
260.104
 11
259.34
 20
-59.66
 21
-58.896
  0
LINE
  8
0
 10
259.34
 11
258.654
 20
-58.896
 21
-58.061
  0
LINE
  8
0
 10
258.654
 11
258.054
 20
-58.061
 21
-57.162
  0
LINE
  8
0
 10
258.054
 11
257.544
 20
-57.162
 21
-56.209
  0
LINE
  8
0
 10
257.544
 11
257.131
 20
-56.209
 21
-55.21
  0
LINE
  8
0
 10
257.131
 11
256.817
 20
-55.21
 21
-54.176
  0
LINE
  8
0
 10
256.817
 11
256.606
 20
-54.176
 21
-53.116
  0
LINE
  8
0
 10
256.606
 11
256.5
 20
-53.116
 21
-52.04
  0
LINE
  8
0
 10
263.6
 11
263.6
 20
-279.68
 21
-278.52
  0
LINE
  8
0
 10
263.6
 11
264.42
 20
-278.52
 21
-277.7
  0
LINE
  8
0
 10
264.42
 11
265.58
 20
-277.7
 21
-277.7
  0
LINE
  8
0
 10
265.58
 11
266.4
 20
-277.7
 21
-278.52
  0
LINE
  8
0
 10
266.4
 11
266.4
 20
-278.52
 21
-279.68
  0
LINE
  8
0
 10
266.4
 11
265.58
 20
-279.68
 21
-280.5
  0
LINE
  8
0
 10
265.58
 11
264.42
 20
-280.5
 21
-280.5
  0
LINE
  8
0
 10
264.42
 11
263.6
 20
-280.5
 21
-279.68
  0
LINE
  8
0
 10
263.6
 11
263.6
 20
-25.33
 21
-24.17
  0
LINE
  8
0
 10
263.6
 11
264.42
 20
-24.17
 21
-23.35
  0
LINE
  8
0
 10
264.42
 11
265.58
 20
-23.35
 21
-23.35
  0
LINE
  8
0
 10
265.58
 11
266.4
 20
-23.35
 21
-24.17
  0
LINE
  8
0
 10
266.4
 11
266.4
 20
-24.17
 21
-25.33
  0
LINE
  8
0
 10
266.4
 11
265.58
 20
-25.33
 21
-26.15
  0
LINE
  8
0
 10
265.58
 11
264.42
 20
-26.15
 21
-26.15
  0
LINE
  8
0
 10
264.42
 11
263.6
 20
-26.15
 21
-25.33
  0
LINE
  8
0
 10
265.8
 11
265.8
 20
-303.974
 21
-299.826
  0
LINE
  8
0
 10
265.8
 11
265.814
 20
-299.826
 21
-299.68
  0
LINE
  8
0
 10
265.814
 11
265.843
 20
-299.68
 21
-299.535
  0
LINE
  8
0
 10
265.843
 11
265.886
 20
-299.535
 21
-299.394
  0
LINE
  8
0
 10
265.886
 11
265.942
 20
-299.394
 21
-299.258
  0
LINE
  8
0
 10
265.942
 11
266.012
 20
-299.258
 21
-299.128
  0
LINE
  8
0
 10
266.012
 11
266.094
 20
-299.128
 21
-299.005
  0
LINE
  8
0
 10
266.094
 11
266.187
 20
-299.005
 21
-298.891
  0
LINE
  8
0
 10
266.187
 11
266.291
 20
-298.891
 21
-298.787
  0
LINE
  8
0
 10
266.291
 11
266.405
 20
-298.787
 21
-298.694
  0
LINE
  8
0
 10
266.405
 11
266.528
 20
-298.694
 21
-298.612
  0
LINE
  8
0
 10
266.528
 11
266.658
 20
-298.612
 21
-298.542
  0
LINE
  8
0
 10
266.658
 11
266.794
 20
-298.542
 21
-298.486
  0
LINE
  8
0
 10
266.794
 11
266.935
 20
-298.486
 21
-298.443
  0
LINE
  8
0
 10
266.935
 11
267.08
 20
-298.443
 21
-298.414
  0
LINE
  8
0
 10
267.08
 11
267.226
 20
-298.414
 21
-298.4
  0
LINE
  8
0
 10
267.226
 11
267.374
 20
-298.4
 21
-298.4
  0
LINE
  8
0
 10
267.374
 11
267.52
 20
-298.4
 21
-298.414
  0
LINE
  8
0
 10
267.52
 11
267.665
 20
-298.414
 21
-298.443
  0
LINE
  8
0
 10
267.665
 11
267.806
 20
-298.443
 21
-298.486
  0
LINE
  8
0
 10
267.806
 11
267.942
 20
-298.486
 21
-298.542
  0
LINE
  8
0
 10
267.942
 11
268.072
 20
-298.542
 21
-298.612
  0
LINE
  8
0
 10
268.072
 11
268.195
 20
-298.612
 21
-298.694
  0
LINE
  8
0
 10
268.195
 11
268.309
 20
-298.694
 21
-298.787
  0
LINE
  8
0
 10
268.309
 11
268.413
 20
-298.787
 21
-298.891
  0
LINE
  8
0
 10
268.413
 11
268.506
 20
-298.891
 21
-299.005
  0
LINE
  8
0
 10
268.506
 11
268.588
 20
-299.005
 21
-299.128
  0
LINE
  8
0
 10
268.588
 11
268.658
 20
-299.128
 21
-299.258
  0
LINE
  8
0
 10
268.658
 11
268.714
 20
-299.258
 21
-299.394
  0
LINE
  8
0
 10
268.714
 11
268.757
 20
-299.394
 21
-299.535
  0
LINE
  8
0
 10
268.757
 11
268.786
 20
-299.535
 21
-299.68
  0
LINE
  8
0
 10
268.786
 11
268.8
 20
-299.68
 21
-299.826
  0
LINE
  8
0
 10
268.8
 11
268.8
 20
-299.826
 21
-303.974
  0
LINE
  8
0
 10
268.8
 11
268.786
 20
-303.974
 21
-304.12
  0
LINE
  8
0
 10
268.786
 11
268.757
 20
-304.12
 21
-304.265
  0
LINE
  8
0
 10
268.757
 11
268.714
 20
-304.265
 21
-304.406
  0
LINE
  8
0
 10
268.714
 11
268.658
 20
-304.406
 21
-304.542
  0
LINE
  8
0
 10
268.658
 11
268.588
 20
-304.542
 21
-304.672
  0
LINE
  8
0
 10
268.588
 11
268.506
 20
-304.672
 21
-304.795
  0
LINE
  8
0
 10
268.506
 11
268.413
 20
-304.795
 21
-304.909
  0
LINE
  8
0
 10
268.413
 11
268.309
 20
-304.909
 21
-305.013
  0
LINE
  8
0
 10
268.309
 11
268.195
 20
-305.013
 21
-305.106
  0
LINE
  8
0
 10
268.195
 11
268.072
 20
-305.106
 21
-305.188
  0
LINE
  8
0
 10
268.072
 11
267.942
 20
-305.188
 21
-305.258
  0
LINE
  8
0
 10
267.942
 11
267.806
 20
-305.258
 21
-305.314
  0
LINE
  8
0
 10
267.806
 11
267.665
 20
-305.314
 21
-305.357
  0
LINE
  8
0
 10
267.665
 11
267.52
 20
-305.357
 21
-305.386
  0
LINE
  8
0
 10
267.52
 11
267.374
 20
-305.386
 21
-305.4
  0
LINE
  8
0
 10
267.374
 11
267.226
 20
-305.4
 21
-305.4
  0
LINE
  8
0
 10
267.226
 11
267.08
 20
-305.4
 21
-305.386
  0
LINE
  8
0
 10
267.08
 11
266.935
 20
-305.386
 21
-305.357
  0
LINE
  8
0
 10
266.935
 11
266.794
 20
-305.357
 21
-305.314
  0
LINE
  8
0
 10
266.794
 11
266.658
 20
-305.314
 21
-305.258
  0
LINE
  8
0
 10
266.658
 11
266.528
 20
-305.258
 21
-305.188
  0
LINE
  8
0
 10
266.528
 11
266.405
 20
-305.188
 21
-305.106
  0
LINE
  8
0
 10
266.405
 11
266.291
 20
-305.106
 21
-305.013
  0
LINE
  8
0
 10
266.291
 11
266.187
 20
-305.013
 21
-304.909
  0
LINE
  8
0
 10
266.187
 11
266.094
 20
-304.909
 21
-304.795
  0
LINE
  8
0
 10
266.094
 11
266.012
 20
-304.795
 21
-304.672
  0
LINE
  8
0
 10
266.012
 11
265.942
 20
-304.672
 21
-304.542
  0
LINE
  8
0
 10
265.942
 11
265.886
 20
-304.542
 21
-304.406
  0
LINE
  8
0
 10
265.886
 11
265.843
 20
-304.406
 21
-304.265
  0
LINE
  8
0
 10
265.843
 11
265.814
 20
-304.265
 21
-304.12
  0
LINE
  8
0
 10
265.814
 11
265.8
 20
-304.12
 21
-303.974
  0
LINE
  8
0
 10
275.01
 11
275.01
 20
-282.375
 21
-275.825
  0
LINE
  8
0
 10
275.01
 11
282.99
 20
-275.825
 21
-275.825
  0
LINE
  8
0
 10
282.99
 11
282.99
 20
-275.825
 21
-282.375
  0
LINE
  8
0
 10
282.99
 11
275.01
 20
-282.375
 21
-282.375
  0
LINE
  8
0
 10
275.01
 11
275.01
 20
-28.025
 21
-21.475
  0
LINE
  8
0
 10
275.01
 11
282.99
 20
-21.475
 21
-21.475
  0
LINE
  8
0
 10
282.99
 11
282.99
 20
-21.475
 21
-28.025
  0
LINE
  8
0
 10
282.99
 11
275.01
 20
-28.025
 21
-28.025
  0
LINE
  8
0
 10
275.56
 11
275.56
 20
-305.794
 21
-305.406
  0
LINE
  8
0
 10
275.56
 11
275.598
 20
-305.406
 21
-305.021
  0
LINE
  8
0
 10
275.598
 11
275.673
 20
-305.021
 21
-304.642
  0
LINE
  8
0
 10
275.673
 11
275.786
 20
-304.642
 21
-304.271
  0
LINE
  8
0
 10
275.786
 11
275.934
 20
-304.271
 21
-303.913
  0
LINE
  8
0
 10
275.934
 11
276.116
 20
-303.913
 21
-303.572
  0
LINE
  8
0
 10
276.116
 11
276.332
 20
-303.572
 21
-303.25
  0
LINE
  8
0
 10
276.332
 11
276.577
 20
-303.25
 21
-302.951
  0
LINE
  8
0
 10
276.577
 11
276.851
 20
-302.951
 21
-302.677
  0
LINE
  8
0
 10
276.851
 11
277.15
 20
-302.677
 21
-302.432
  0
LINE
  8
0
 10
277.15
 11
277.472
 20
-302.432
 21
-302.216
  0
LINE
  8
0
 10
277.472
 11
277.813
 20
-302.216
 21
-302.034
  0
LINE
  8
0
 10
277.813
 11
278.171
 20
-302.034
 21
-301.886
  0
LINE
  8
0
 10
278.171
 11
278.542
 20
-301.886
 21
-301.773
  0
LINE
  8
0
 10
278.542
 11
278.921
 20
-301.773
 21
-301.698
  0
LINE
  8
0
 10
278.921
 11
279.306
 20
-301.698
 21
-301.66
  0
LINE
  8
0
 10
279.306
 11
279.694
 20
-301.66
 21
-301.66
  0
LINE
  8
0
 10
279.694
 11
280.079
 20
-301.66
 21
-301.698
  0
LINE
  8
0
 10
280.079
 11
280.458
 20
-301.698
 21
-301.773
  0
LINE
  8
0
 10
280.458
 11
280.829
 20
-301.773
 21
-301.886
  0
LINE
  8
0
 10
280.829
 11
281.187
 20
-301.886
 21
-302.034
  0
LINE
  8
0
 10
281.187
 11
281.528
 20
-302.034
 21
-302.216
  0
LINE
  8
0
 10
281.528
 11
281.85
 20
-302.216
 21
-302.432
  0
LINE
  8
0
 10
281.85
 11
282.149
 20
-302.432
 21
-302.677
  0
LINE
  8
0
 10
282.149
 11
282.423
 20
-302.677
 21
-302.951
  0
LINE
  8
0
 10
282.423
 11
282.668
 20
-302.951
 21
-303.25
  0
LINE
  8
0
 10
282.668
 11
282.884
 20
-303.25
 21
-303.572
  0
LINE
  8
0
 10
282.884
 11
283.066
 20
-303.572
 21
-303.913
  0
LINE
  8
0
 10
283.066
 11
283.214
 20
-303.913
 21
-304.271
  0
LINE
  8
0
 10
283.214
 11
283.327
 20
-304.271
 21
-304.642
  0
LINE
  8
0
 10
283.327
 11
283.402
 20
-304.642
 21
-305.021
  0
LINE
  8
0
 10
283.402
 11
283.44
 20
-305.021
 21
-305.406
  0
LINE
  8
0
 10
283.44
 11
283.44
 20
-305.406
 21
-305.794
  0
LINE
  8
0
 10
283.44
 11
283.402
 20
-305.794
 21
-306.179
  0
LINE
  8
0
 10
283.402
 11
283.327
 20
-306.179
 21
-306.558
  0
LINE
  8
0
 10
283.327
 11
283.214
 20
-306.558
 21
-306.929
  0
LINE
  8
0
 10
283.214
 11
283.066
 20
-306.929
 21
-307.287
  0
LINE
  8
0
 10
283.066
 11
282.884
 20
-307.287
 21
-307.628
  0
LINE
  8
0
 10
282.884
 11
282.668
 20
-307.628
 21
-307.95
  0
LINE
  8
0
 10
282.668
 11
282.423
 20
-307.95
 21
-308.249
  0
LINE
  8
0
 10
282.423
 11
282.149
 20
-308.249
 21
-308.523
  0
LINE
  8
0
 10
282.149
 11
281.85
 20
-308.523
 21
-308.768
  0
LINE
  8
0
 10
281.85
 11
281.528
 20
-308.768
 21
-308.984
  0
LINE
  8
0
 10
281.528
 11
281.187
 20
-308.984
 21
-309.166
  0
LINE
  8
0
 10
281.187
 11
280.829
 20
-309.166
 21
-309.314
  0
LINE
  8
0
 10
280.829
 11
280.458
 20
-309.314
 21
-309.427
  0
LINE
  8
0
 10
280.458
 11
280.079
 20
-309.427
 21
-309.502
  0
LINE
  8
0
 10
280.079
 11
279.694
 20
-309.502
 21
-309.54
  0
LINE
  8
0
 10
279.694
 11
279.306
 20
-309.54
 21
-309.54
  0
LINE
  8
0
 10
279.306
 11
278.921
 20
-309.54
 21
-309.502
  0
LINE
  8
0
 10
278.921
 11
278.542
 20
-309.502
 21
-309.427
  0
LINE
  8
0
 10
278.542
 11
278.171
 20
-309.427
 21
-309.314
  0
LINE
  8
0
 10
278.171
 11
277.813
 20
-309.314
 21
-309.166
  0
LINE
  8
0
 10
277.813
 11
277.472
 20
-309.166
 21
-308.984
  0
LINE
  8
0
 10
277.472
 11
277.15
 20
-308.984
 21
-308.768
  0
LINE
  8
0
 10
277.15
 11
276.851
 20
-308.768
 21
-308.523
  0
LINE
  8
0
 10
276.851
 11
276.577
 20
-308.523
 21
-308.249
  0
LINE
  8
0
 10
276.577
 11
276.332
 20
-308.249
 21
-307.95
  0
LINE
  8
0
 10
276.332
 11
276.116
 20
-307.95
 21
-307.628
  0
LINE
  8
0
 10
276.116
 11
275.934
 20
-307.628
 21
-307.287
  0
LINE
  8
0
 10
275.934
 11
275.786
 20
-307.287
 21
-306.929
  0
LINE
  8
0
 10
275.786
 11
275.673
 20
-306.929
 21
-306.558
  0
LINE
  8
0
 10
275.673
 11
275.598
 20
-306.558
 21
-306.179
  0
LINE
  8
0
 10
275.598
 11
275.56
 20
-306.179
 21
-305.794
  0
LINE
  8
0
 10
281.5
 11
281.5
 20
-67.074
 21
-66.926
  0
LINE
  8
0
 10
281.5
 11
281.514
 20
-66.926
 21
-66.78
  0
LINE
  8
0
 10
281.514
 11
281.543
 20
-66.78
 21
-66.635
  0
LINE
  8
0
 10
281.543
 11
281.586
 20
-66.635
 21
-66.494
  0
LINE
  8
0
 10
281.586
 11
281.642
 20
-66.494
 21
-66.358
  0
LINE
  8
0
 10
281.642
 11
281.712
 20
-66.358
 21
-66.228
  0
LINE
  8
0
 10
281.712
 11
281.794
 20
-66.228
 21
-66.105
  0
LINE
  8
0
 10
281.794
 11
281.887
 20
-66.105
 21
-65.991
  0
LINE
  8
0
 10
281.887
 11
281.991
 20
-65.991
 21
-65.887
  0
LINE
  8
0
 10
281.991
 11
282.105
 20
-65.887
 21
-65.794
  0
LINE
  8
0
 10
282.105
 11
282.228
 20
-65.794
 21
-65.712
  0
LINE
  8
0
 10
282.228
 11
282.358
 20
-65.712
 21
-65.642
  0
LINE
  8
0
 10
282.358
 11
282.494
 20
-65.642
 21
-65.586
  0
LINE
  8
0
 10
282.494
 11
282.635
 20
-65.586
 21
-65.543
  0
LINE
  8
0
 10
282.635
 11
282.78
 20
-65.543
 21
-65.514
  0
LINE
  8
0
 10
282.78
 11
282.926
 20
-65.514
 21
-65.5
  0
LINE
  8
0
 10
282.926
 11
283.074
 20
-65.5
 21
-65.5
  0
LINE
  8
0
 10
283.074
 11
283.22
 20
-65.5
 21
-65.514
  0
LINE
  8
0
 10
283.22
 11
283.365
 20
-65.514
 21
-65.543
  0
LINE
  8
0
 10
283.365
 11
283.506
 20
-65.543
 21
-65.586
  0
LINE
  8
0
 10
283.506
 11
283.642
 20
-65.586
 21
-65.642
  0
LINE
  8
0
 10
283.642
 11
283.772
 20
-65.642
 21
-65.712
  0
LINE
  8
0
 10
283.772
 11
283.895
 20
-65.712
 21
-65.794
  0
LINE
  8
0
 10
283.895
 11
284.009
 20
-65.794
 21
-65.887
  0
LINE
  8
0
 10
284.009
 11
284.113
 20
-65.887
 21
-65.991
  0
LINE
  8
0
 10
284.113
 11
284.206
 20
-65.991
 21
-66.105
  0
LINE
  8
0
 10
284.206
 11
284.288
 20
-66.105
 21
-66.228
  0
LINE
  8
0
 10
284.288
 11
284.358
 20
-66.228
 21
-66.358
  0
LINE
  8
0
 10
284.358
 11
284.414
 20
-66.358
 21
-66.494
  0
LINE
  8
0
 10
284.414
 11
284.457
 20
-66.494
 21
-66.635
  0
LINE
  8
0
 10
284.457
 11
284.486
 20
-66.635
 21
-66.78
  0
LINE
  8
0
 10
284.486
 11
284.5
 20
-66.78
 21
-66.926
  0
LINE
  8
0
 10
284.5
 11
284.5
 20
-66.926
 21
-67.074
  0
LINE
  8
0
 10
284.5
 11
284.486
 20
-67.074
 21
-67.22
  0
LINE
  8
0
 10
284.486
 11
284.457
 20
-67.22
 21
-67.365
  0
LINE
  8
0
 10
284.457
 11
284.414
 20
-67.365
 21
-67.506
  0
LINE
  8
0
 10
284.414
 11
284.358
 20
-67.506
 21
-67.642
  0
LINE
  8
0
 10
284.358
 11
284.288
 20
-67.642
 21
-67.772
  0
LINE
  8
0
 10
284.288
 11
284.206
 20
-67.772
 21
-67.895
  0
LINE
  8
0
 10
284.206
 11
284.113
 20
-67.895
 21
-68.009
  0
LINE
  8
0
 10
284.113
 11
284.009
 20
-68.009
 21
-68.113
  0
LINE
  8
0
 10
284.009
 11
283.895
 20
-68.113
 21
-68.206
  0
LINE
  8
0
 10
283.895
 11
283.772
 20
-68.206
 21
-68.288
  0
LINE
  8
0
 10
283.772
 11
283.642
 20
-68.288
 21
-68.358
  0
LINE
  8
0
 10
283.642
 11
283.506
 20
-68.358
 21
-68.414
  0
LINE
  8
0
 10
283.506
 11
283.365
 20
-68.414
 21
-68.457
  0
LINE
  8
0
 10
283.365
 11
283.22
 20
-68.457
 21
-68.486
  0
LINE
  8
0
 10
283.22
 11
283.074
 20
-68.486
 21
-68.5
  0
LINE
  8
0
 10
283.074
 11
282.926
 20
-68.5
 21
-68.5
  0
LINE
  8
0
 10
282.926
 11
282.78
 20
-68.5
 21
-68.486
  0
LINE
  8
0
 10
282.78
 11
282.635
 20
-68.486
 21
-68.457
  0
LINE
  8
0
 10
282.635
 11
282.494
 20
-68.457
 21
-68.414
  0
LINE
  8
0
 10
282.494
 11
282.358
 20
-68.414
 21
-68.358
  0
LINE
  8
0
 10
282.358
 11
282.228
 20
-68.358
 21
-68.288
  0
LINE
  8
0
 10
282.228
 11
282.105
 20
-68.288
 21
-68.206
  0
LINE
  8
0
 10
282.105
 11
281.991
 20
-68.206
 21
-68.113
  0
LINE
  8
0
 10
281.991
 11
281.887
 20
-68.113
 21
-68.009
  0
LINE
  8
0
 10
281.887
 11
281.794
 20
-68.009
 21
-67.895
  0
LINE
  8
0
 10
281.794
 11
281.712
 20
-67.895
 21
-67.772
  0
LINE
  8
0
 10
281.712
 11
281.642
 20
-67.772
 21
-67.642
  0
LINE
  8
0
 10
281.642
 11
281.586
 20
-67.642
 21
-67.506
  0
LINE
  8
0
 10
281.586
 11
281.543
 20
-67.506
 21
-67.365
  0
LINE
  8
0
 10
281.543
 11
281.514
 20
-67.365
 21
-67.22
  0
LINE
  8
0
 10
281.514
 11
281.5
 20
-67.22
 21
-67.074
  0
LINE
  8
0
 10
281.5
 11
281.5
 20
-36.074
 21
-35.926
  0
LINE
  8
0
 10
281.5
 11
281.514
 20
-35.926
 21
-35.78
  0
LINE
  8
0
 10
281.514
 11
281.543
 20
-35.78
 21
-35.635
  0
LINE
  8
0
 10
281.543
 11
281.586
 20
-35.635
 21
-35.494
  0
LINE
  8
0
 10
281.586
 11
281.642
 20
-35.494
 21
-35.358
  0
LINE
  8
0
 10
281.642
 11
281.712
 20
-35.358
 21
-35.228
  0
LINE
  8
0
 10
281.712
 11
281.794
 20
-35.228
 21
-35.105
  0
LINE
  8
0
 10
281.794
 11
281.887
 20
-35.105
 21
-34.991
  0
LINE
  8
0
 10
281.887
 11
281.991
 20
-34.991
 21
-34.887
  0
LINE
  8
0
 10
281.991
 11
282.105
 20
-34.887
 21
-34.794
  0
LINE
  8
0
 10
282.105
 11
282.228
 20
-34.794
 21
-34.712
  0
LINE
  8
0
 10
282.228
 11
282.358
 20
-34.712
 21
-34.642
  0
LINE
  8
0
 10
282.358
 11
282.494
 20
-34.642
 21
-34.586
  0
LINE
  8
0
 10
282.494
 11
282.635
 20
-34.586
 21
-34.543
  0
LINE
  8
0
 10
282.635
 11
282.78
 20
-34.543
 21
-34.514
  0
LINE
  8
0
 10
282.78
 11
282.926
 20
-34.514
 21
-34.5
  0
LINE
  8
0
 10
282.926
 11
283.074
 20
-34.5
 21
-34.5
  0
LINE
  8
0
 10
283.074
 11
283.22
 20
-34.5
 21
-34.514
  0
LINE
  8
0
 10
283.22
 11
283.365
 20
-34.514
 21
-34.543
  0
LINE
  8
0
 10
283.365
 11
283.506
 20
-34.543
 21
-34.586
  0
LINE
  8
0
 10
283.506
 11
283.642
 20
-34.586
 21
-34.642
  0
LINE
  8
0
 10
283.642
 11
283.772
 20
-34.642
 21
-34.712
  0
LINE
  8
0
 10
283.772
 11
283.895
 20
-34.712
 21
-34.794
  0
LINE
  8
0
 10
283.895
 11
284.009
 20
-34.794
 21
-34.887
  0
LINE
  8
0
 10
284.009
 11
284.113
 20
-34.887
 21
-34.991
  0
LINE
  8
0
 10
284.113
 11
284.206
 20
-34.991
 21
-35.105
  0
LINE
  8
0
 10
284.206
 11
284.288
 20
-35.105
 21
-35.228
  0
LINE
  8
0
 10
284.288
 11
284.358
 20
-35.228
 21
-35.358
  0
LINE
  8
0
 10
284.358
 11
284.414
 20
-35.358
 21
-35.494
  0
LINE
  8
0
 10
284.414
 11
284.457
 20
-35.494
 21
-35.635
  0
LINE
  8
0
 10
284.457
 11
284.486
 20
-35.635
 21
-35.78
  0
LINE
  8
0
 10
284.486
 11
284.5
 20
-35.78
 21
-35.926
  0
LINE
  8
0
 10
284.5
 11
284.5
 20
-35.926
 21
-36.074
  0
LINE
  8
0
 10
284.5
 11
284.486
 20
-36.074
 21
-36.22
  0
LINE
  8
0
 10
284.486
 11
284.457
 20
-36.22
 21
-36.365
  0
LINE
  8
0
 10
284.457
 11
284.414
 20
-36.365
 21
-36.506
  0
LINE
  8
0
 10
284.414
 11
284.358
 20
-36.506
 21
-36.642
  0
LINE
  8
0
 10
284.358
 11
284.288
 20
-36.642
 21
-36.772
  0
LINE
  8
0
 10
284.288
 11
284.206
 20
-36.772
 21
-36.895
  0
LINE
  8
0
 10
284.206
 11
284.113
 20
-36.895
 21
-37.009
  0
LINE
  8
0
 10
284.113
 11
284.009
 20
-37.009
 21
-37.113
  0
LINE
  8
0
 10
284.009
 11
283.895
 20
-37.113
 21
-37.206
  0
LINE
  8
0
 10
283.895
 11
283.772
 20
-37.206
 21
-37.288
  0
LINE
  8
0
 10
283.772
 11
283.642
 20
-37.288
 21
-37.358
  0
LINE
  8
0
 10
283.642
 11
283.506
 20
-37.358
 21
-37.414
  0
LINE
  8
0
 10
283.506
 11
283.365
 20
-37.414
 21
-37.457
  0
LINE
  8
0
 10
283.365
 11
283.22
 20
-37.457
 21
-37.486
  0
LINE
  8
0
 10
283.22
 11
283.074
 20
-37.486
 21
-37.5
  0
LINE
  8
0
 10
283.074
 11
282.926
 20
-37.5
 21
-37.5
  0
LINE
  8
0
 10
282.926
 11
282.78
 20
-37.5
 21
-37.486
  0
LINE
  8
0
 10
282.78
 11
282.635
 20
-37.486
 21
-37.457
  0
LINE
  8
0
 10
282.635
 11
282.494
 20
-37.457
 21
-37.414
  0
LINE
  8
0
 10
282.494
 11
282.358
 20
-37.414
 21
-37.358
  0
LINE
  8
0
 10
282.358
 11
282.228
 20
-37.358
 21
-37.288
  0
LINE
  8
0
 10
282.228
 11
282.105
 20
-37.288
 21
-37.206
  0
LINE
  8
0
 10
282.105
 11
281.991
 20
-37.206
 21
-37.113
  0
LINE
  8
0
 10
281.991
 11
281.887
 20
-37.113
 21
-37.009
  0
LINE
  8
0
 10
281.887
 11
281.794
 20
-37.009
 21
-36.895
  0
LINE
  8
0
 10
281.794
 11
281.712
 20
-36.895
 21
-36.772
  0
LINE
  8
0
 10
281.712
 11
281.642
 20
-36.772
 21
-36.642
  0
LINE
  8
0
 10
281.642
 11
281.586
 20
-36.642
 21
-36.506
  0
LINE
  8
0
 10
281.586
 11
281.543
 20
-36.506
 21
-36.365
  0
LINE
  8
0
 10
281.543
 11
281.514
 20
-36.365
 21
-36.22
  0
LINE
  8
0
 10
281.514
 11
281.5
 20
-36.22
 21
-36.074
  0
LINE
  8
0
 10
290.975
 11
290.975
 20
-310.09
 21
-302.11
  0
LINE
  8
0
 10
290.975
 11
297.525
 20
-302.11
 21
-302.11
  0
LINE
  8
0
 10
297.525
 11
297.525
 20
-302.11
 21
-310.09
  0
LINE
  8
0
 10
297.525
 11
290.975
 20
-310.09
 21
-310.09
  0
LINE
  8
0
 10
290.975
 11
290.975
 20
-282.09
 21
-274.11
  0
LINE
  8
0
 10
290.975
 11
297.525
 20
-274.11
 21
-274.11
  0
LINE
  8
0
 10
297.525
 11
297.525
 20
-274.11
 21
-282.09
  0
LINE
  8
0
 10
297.525
 11
290.975
 20
-282.09
 21
-282.09
  0
LINE
  8
0
 10
290.975
 11
290.975
 20
-191.04
 21
-183.06
  0
LINE
  8
0
 10
290.975
 11
297.525
 20
-183.06
 21
-183.06
  0
LINE
  8
0
 10
297.525
 11
297.525
 20
-183.06
 21
-191.04
  0
LINE
  8
0
 10
297.525
 11
290.975
 20
-191.04
 21
-191.04
  0
LINE
  8
0
 10
290.975
 11
290.975
 20
-163.04
 21
-155.06
  0
LINE
  8
0
 10
290.975
 11
297.525
 20
-155.06
 21
-155.06
  0
LINE
  8
0
 10
297.525
 11
297.525
 20
-155.06
 21
-163.04
  0
LINE
  8
0
 10
297.525
 11
290.975
 20
-163.04
 21
-163.04
  0
LINE
  8
0
 10
290.975
 11
290.975
 20
-71.99
 21
-64.01
  0
LINE
  8
0
 10
290.975
 11
297.525
 20
-64.01
 21
-64.01
  0
LINE
  8
0
 10
297.525
 11
297.525
 20
-64.01
 21
-71.99
  0
LINE
  8
0
 10
297.525
 11
290.975
 20
-71.99
 21
-71.99
  0
LINE
  8
0
 10
290.975
 11
290.975
 20
-43.99
 21
-36.01
  0
LINE
  8
0
 10
290.975
 11
297.525
 20
-36.01
 21
-36.01
  0
LINE
  8
0
 10
297.525
 11
297.525
 20
-36.01
 21
-43.99
  0
LINE
  8
0
 10
297.525
 11
290.975
 20
-43.99
 21
-43.99
  0
LINE
  8
0
 10
291.075
 11
291.075
 20
253.51
 21
261.49
  0
LINE
  8
0
 10
291.075
 11
297.625
 20
261.49
 21
261.49
  0
LINE
  8
0
 10
297.625
 11
297.625
 20
261.49
 21
253.51
  0
LINE
  8
0
 10
297.625
 11
291.075
 20
253.51
 21
253.51
  0
LINE
  8
0
 10
291.075
 11
291.075
 20
281.51
 21
289.49
  0
LINE
  8
0
 10
291.075
 11
297.625
 20
289.49
 21
289.49
  0
LINE
  8
0
 10
297.625
 11
297.625
 20
289.49
 21
281.51
  0
LINE
  8
0
 10
297.625
 11
291.075
 20
281.51
 21
281.51
  0
LINE
  8
0
 10
291.075
 11
291.075
 20
414.51
 21
422.49
  0
LINE
  8
0
 10
291.075
 11
297.625
 20
422.49
 21
422.49
  0
LINE
  8
0
 10
297.625
 11
297.625
 20
422.49
 21
414.51
  0
LINE
  8
0
 10
297.625
 11
291.075
 20
414.51
 21
414.51
  0
LINE
  8
0
 10
291.075
 11
291.075
 20
442.51
 21
450.49
  0
LINE
  8
0
 10
291.075
 11
297.625
 20
450.49
 21
450.49
  0
LINE
  8
0
 10
297.625
 11
297.625
 20
450.49
 21
442.51
  0
LINE
  8
0
 10
297.625
 11
291.075
 20
442.51
 21
442.51
  0
LINE
  8
0
 10
292.85
 11
292.85
 20
-292.68
 21
-291.52
  0
LINE
  8
0
 10
292.85
 11
293.67
 20
-291.52
 21
-290.7
  0
LINE
  8
0
 10
293.67
 11
294.83
 20
-290.7
 21
-290.7
  0
LINE
  8
0
 10
294.83
 11
295.65
 20
-290.7
 21
-291.52
  0
LINE
  8
0
 10
295.65
 11
295.65
 20
-291.52
 21
-292.68
  0
LINE
  8
0
 10
295.65
 11
294.83
 20
-292.68
 21
-293.5
  0
LINE
  8
0
 10
294.83
 11
293.67
 20
-293.5
 21
-293.5
  0
LINE
  8
0
 10
293.67
 11
292.85
 20
-293.5
 21
-292.68
  0
LINE
  8
0
 10
292.85
 11
292.85
 20
-173.63
 21
-172.47
  0
LINE
  8
0
 10
292.85
 11
293.67
 20
-172.47
 21
-171.65
  0
LINE
  8
0
 10
293.67
 11
294.83
 20
-171.65
 21
-171.65
  0
LINE
  8
0
 10
294.83
 11
295.65
 20
-171.65
 21
-172.47
  0
LINE
  8
0
 10
295.65
 11
295.65
 20
-172.47
 21
-173.63
  0
LINE
  8
0
 10
295.65
 11
294.83
 20
-173.63
 21
-174.45
  0
LINE
  8
0
 10
294.83
 11
293.67
 20
-174.45
 21
-174.45
  0
LINE
  8
0
 10
293.67
 11
292.85
 20
-174.45
 21
-173.63
  0
LINE
  8
0
 10
292.85
 11
292.85
 20
-54.58
 21
-53.42
  0
LINE
  8
0
 10
292.85
 11
293.67
 20
-53.42
 21
-52.6
  0
LINE
  8
0
 10
293.67
 11
294.83
 20
-52.6
 21
-52.6
  0
LINE
  8
0
 10
294.83
 11
295.65
 20
-52.6
 21
-53.42
  0
LINE
  8
0
 10
295.65
 11
295.65
 20
-53.42
 21
-54.58
  0
LINE
  8
0
 10
295.65
 11
294.83
 20
-54.58
 21
-55.4
  0
LINE
  8
0
 10
294.83
 11
293.67
 20
-55.4
 21
-55.4
  0
LINE
  8
0
 10
293.67
 11
292.85
 20
-55.4
 21
-54.58
  0
LINE
  8
0
 10
292.95
 11
292.95
 20
270.92
 21
272.08
  0
LINE
  8
0
 10
292.95
 11
293.77
 20
272.08
 21
272.9
  0
LINE
  8
0
 10
293.77
 11
294.93
 20
272.9
 21
272.9
  0
LINE
  8
0
 10
294.93
 11
295.75
 20
272.9
 21
272.08
  0
LINE
  8
0
 10
295.75
 11
295.75
 20
272.08
 21
270.92
  0
LINE
  8
0
 10
295.75
 11
294.93
 20
270.92
 21
270.1
  0
LINE
  8
0
 10
294.93
 11
293.77
 20
270.1
 21
270.1
  0
LINE
  8
0
 10
293.77
 11
292.95
 20
270.1
 21
270.92
  0
LINE
  8
0
 10
292.95
 11
292.95
 20
431.92
 21
433.08
  0
LINE
  8
0
 10
292.95
 11
293.77
 20
433.08
 21
433.9
  0
LINE
  8
0
 10
293.77
 11
294.93
 20
433.9
 21
433.9
  0
LINE
  8
0
 10
294.93
 11
295.75
 20
433.9
 21
433.08
  0
LINE
  8
0
 10
295.75
 11
295.75
 20
433.08
 21
431.92
  0
LINE
  8
0
 10
295.75
 11
294.93
 20
431.92
 21
431.1
  0
LINE
  8
0
 10
294.93
 11
293.77
 20
431.1
 21
431.1
  0
LINE
  8
0
 10
293.77
 11
292.95
 20
431.1
 21
431.92
  0
ENDSEC
  0
SECTION
  2
OBJECTS
  0
DICTIONARY
  0
ENDSEC
  0
EOF
