  0
SECTION
  2
BLOCKS
  0
ENDSEC
  0
SECTION
  2
ENTITIES
  0
LINE
  8
0
 10
-227.025
 11
-227.025
 20
-70
 21
-62
  0
LINE
  8
0
 10
-227.025
 11
-221
 20
-62
 21
-62
  0
LINE
  8
0
 10
-221
 11
-221
 20
-62
 21
-53.4
  0
LINE
  8
0
 10
-221
 11
-217.1
 20
-53.4
 21
-53.4
  0
LINE
  8
0
 10
-217.1
 11
-217.1
 20
-53.4
 21
-54.75
  0
LINE
  8
0
 10
-217.1
 11
-215.1
 20
-54.75
 21
-54.75
  0
LINE
  8
0
 10
-215.1
 11
-215.1
 20
-54.75
 21
-53.4
  0
LINE
  8
0
 10
-215.1
 11
-213.05
 20
-53.4
 21
-53.4
  0
LINE
  8
0
 10
-213.05
 11
-213.05
 20
-53.4
 21
-50.6
  0
LINE
  8
0
 10
-213.05
 11
-215.1
 20
-50.6
 21
-50.6
  0
LINE
  8
0
 10
-215.1
 11
-215.1
 20
-50.6
 21
-49.25
  0
LINE
  8
0
 10
-215.1
 11
-217.1
 20
-49.25
 21
-49.25
  0
LINE
  8
0
 10
-217.1
 11
-217.1
 20
-49.25
 21
-50.6
  0
LINE
  8
0
 10
-217.1
 11
-221
 20
-50.6
 21
-50.6
  0
LINE
  8
0
 10
-221
 11
-221
 20
-50.6
 21
-42
  0
LINE
  8
0
 10
-221
 11
-227.025
 20
-42
 21
-42
  0
LINE
  8
0
 10
-227.025
 11
-227.025
 20
-42
 21
-34
  0
LINE
  8
0
 10
-227.025
 11
-221
 20
-34
 21
-34
  0
LINE
  8
0
 10
-221
 11
-221
 20
-34
 21
-16
  0
LINE
  8
0
 10
-221
 11
-65
 20
-16
 21
-16
  0
LINE
  8
0
 10
-65
 11
-65
 20
-16
 21
-34
  0
LINE
  8
0
 10
-65
 11
-58.975
 20
-34
 21
-34
  0
LINE
  8
0
 10
-58.975
 11
-58.975
 20
-34
 21
-42
  0
LINE
  8
0
 10
-58.975
 11
-65
 20
-42
 21
-42
  0
LINE
  8
0
 10
-65
 11
-65
 20
-42
 21
-50.6
  0
LINE
  8
0
 10
-65
 11
-68.9
 20
-50.6
 21
-50.6
  0
LINE
  8
0
 10
-68.9
 11
-68.9
 20
-50.6
 21
-49.25
  0
LINE
  8
0
 10
-68.9
 11
-70.9
 20
-49.25
 21
-49.25
  0
LINE
  8
0
 10
-70.9
 11
-70.9
 20
-49.25
 21
-50.6
  0
LINE
  8
0
 10
-70.9
 11
-72.95
 20
-50.6
 21
-50.6
  0
LINE
  8
0
 10
-72.95
 11
-72.95
 20
-50.6
 21
-53.4
  0
LINE
  8
0
 10
-72.95
 11
-70.9
 20
-53.4
 21
-53.4
  0
LINE
  8
0
 10
-70.9
 11
-70.9
 20
-53.4
 21
-54.75
  0
LINE
  8
0
 10
-70.9
 11
-68.9
 20
-54.75
 21
-54.75
  0
LINE
  8
0
 10
-68.9
 11
-68.9
 20
-54.75
 21
-53.4
  0
LINE
  8
0
 10
-68.9
 11
-65
 20
-53.4
 21
-53.4
  0
LINE
  8
0
 10
-65
 11
-65
 20
-53.4
 21
-62
  0
LINE
  8
0
 10
-65
 11
-58.975
 20
-62
 21
-62
  0
LINE
  8
0
 10
-58.975
 11
-58.975
 20
-62
 21
-70
  0
LINE
  8
0
 10
-58.975
 11
-65
 20
-70
 21
-70
  0
LINE
  8
0
 10
-65
 11
-65
 20
-70
 21
-88
  0
LINE
  8
0
 10
-65
 11
-221
 20
-88
 21
-88
  0
LINE
  8
0
 10
-221
 11
-221
 20
-88
 21
-70
  0
LINE
  8
0
 10
-221
 11
-227.025
 20
-70
 21
-70
  0
LINE
  8
0
 10
-227.025
 11
-227.025
 20
34
 21
42
  0
LINE
  8
0
 10
-227.025
 11
-221
 20
42
 21
42
  0
LINE
  8
0
 10
-221
 11
-221
 20
42
 21
50.6
  0
LINE
  8
0
 10
-221
 11
-217.1
 20
50.6
 21
50.6
  0
LINE
  8
0
 10
-217.1
 11
-217.1
 20
50.6
 21
49.25
  0
LINE
  8
0
 10
-217.1
 11
-215.1
 20
49.25
 21
49.25
  0
LINE
  8
0
 10
-215.1
 11
-215.1
 20
49.25
 21
50.6
  0
LINE
  8
0
 10
-215.1
 11
-213.05
 20
50.6
 21
50.6
  0
LINE
  8
0
 10
-213.05
 11
-213.05
 20
50.6
 21
53.4
  0
LINE
  8
0
 10
-213.05
 11
-215.1
 20
53.4
 21
53.4
  0
LINE
  8
0
 10
-215.1
 11
-215.1
 20
53.4
 21
54.75
  0
LINE
  8
0
 10
-215.1
 11
-217.1
 20
54.75
 21
54.75
  0
LINE
  8
0
 10
-217.1
 11
-217.1
 20
54.75
 21
53.4
  0
LINE
  8
0
 10
-217.1
 11
-221
 20
53.4
 21
53.4
  0
LINE
  8
0
 10
-221
 11
-221
 20
53.4
 21
62
  0
LINE
  8
0
 10
-221
 11
-227.025
 20
62
 21
62
  0
LINE
  8
0
 10
-227.025
 11
-227.025
 20
62
 21
70
  0
LINE
  8
0
 10
-227.025
 11
-221
 20
70
 21
70
  0
LINE
  8
0
 10
-221
 11
-221
 20
70
 21
91
  0
LINE
  8
0
 10
-221
 11
-213
 20
91
 21
91
  0
LINE
  8
0
 10
-213
 11
-213
 20
91
 21
97.025
  0
LINE
  8
0
 10
-213
 11
-205
 20
97.025
 21
97.025
  0
LINE
  8
0
 10
-205
 11
-205
 20
97.025
 21
91
  0
LINE
  8
0
 10
-205
 11
-196.4
 20
91
 21
91
  0
LINE
  8
0
 10
-196.4
 11
-196.4
 20
91
 21
87.1
  0
LINE
  8
0
 10
-196.4
 11
-197.75
 20
87.1
 21
87.1
  0
LINE
  8
0
 10
-197.75
 11
-197.75
 20
87.1
 21
85.1
  0
LINE
  8
0
 10
-197.75
 11
-196.4
 20
85.1
 21
85.1
  0
LINE
  8
0
 10
-196.4
 11
-196.4
 20
85.1
 21
83.05
  0
LINE
  8
0
 10
-196.4
 11
-193.6
 20
83.05
 21
83.05
  0
LINE
  8
0
 10
-193.6
 11
-193.6
 20
83.05
 21
85.1
  0
LINE
  8
0
 10
-193.6
 11
-192.25
 20
85.1
 21
85.1
  0
LINE
  8
0
 10
-192.25
 11
-192.25
 20
85.1
 21
87.1
  0
LINE
  8
0
 10
-192.25
 11
-193.6
 20
87.1
 21
87.1
  0
LINE
  8
0
 10
-193.6
 11
-193.6
 20
87.1
 21
91
  0
LINE
  8
0
 10
-193.6
 11
-185
 20
91
 21
91
  0
LINE
  8
0
 10
-185
 11
-185
 20
91
 21
97.025
  0
LINE
  8
0
 10
-185
 11
-177
 20
97.025
 21
97.025
  0
LINE
  8
0
 10
-177
 11
-177
 20
97.025
 21
91
  0
LINE
  8
0
 10
-177
 11
-109
 20
91
 21
91
  0
LINE
  8
0
 10
-109
 11
-109
 20
91
 21
97.025
  0
LINE
  8
0
 10
-109
 11
-101
 20
97.025
 21
97.025
  0
LINE
  8
0
 10
-101
 11
-101
 20
97.025
 21
91
  0
LINE
  8
0
 10
-101
 11
-92.4
 20
91
 21
91
  0
LINE
  8
0
 10
-92.4
 11
-92.4
 20
91
 21
87.1
  0
LINE
  8
0
 10
-92.4
 11
-93.75
 20
87.1
 21
87.1
  0
LINE
  8
0
 10
-93.75
 11
-93.75
 20
87.1
 21
85.1
  0
LINE
  8
0
 10
-93.75
 11
-92.4
 20
85.1
 21
85.1
  0
LINE
  8
0
 10
-92.4
 11
-92.4
 20
85.1
 21
83.05
  0
LINE
  8
0
 10
-92.4
 11
-89.6
 20
83.05
 21
83.05
  0
LINE
  8
0
 10
-89.6
 11
-89.6
 20
83.05
 21
85.1
  0
LINE
  8
0
 10
-89.6
 11
-88.25
 20
85.1
 21
85.1
  0
LINE
  8
0
 10
-88.25
 11
-88.25
 20
85.1
 21
87.1
  0
LINE
  8
0
 10
-88.25
 11
-89.6
 20
87.1
 21
87.1
  0
LINE
  8
0
 10
-89.6
 11
-89.6
 20
87.1
 21
91
  0
LINE
  8
0
 10
-89.6
 11
-81
 20
91
 21
91
  0
LINE
  8
0
 10
-81
 11
-81
 20
91
 21
97.025
  0
LINE
  8
0
 10
-81
 11
-73
 20
97.025
 21
97.025
  0
LINE
  8
0
 10
-73
 11
-73
 20
97.025
 21
91
  0
LINE
  8
0
 10
-73
 11
-65
 20
91
 21
91
  0
LINE
  8
0
 10
-65
 11
-65
 20
91
 21
70
  0
LINE
  8
0
 10
-65
 11
-58.975
 20
70
 21
70
  0
LINE
  8
0
 10
-58.975
 11
-58.975
 20
70
 21
62
  0
LINE
  8
0
 10
-58.975
 11
-65
 20
62
 21
62
  0
LINE
  8
0
 10
-65
 11
-65
 20
62
 21
53.4
  0
LINE
  8
0
 10
-65
 11
-68.9
 20
53.4
 21
53.4
  0
LINE
  8
0
 10
-68.9
 11
-68.9
 20
53.4
 21
54.75
  0
LINE
  8
0
 10
-68.9
 11
-70.9
 20
54.75
 21
54.75
  0
LINE
  8
0
 10
-70.9
 11
-70.9
 20
54.75
 21
53.4
  0
LINE
  8
0
 10
-70.9
 11
-72.95
 20
53.4
 21
53.4
  0
LINE
  8
0
 10
-72.95
 11
-72.95
 20
53.4
 21
50.6
  0
LINE
  8
0
 10
-72.95
 11
-70.9
 20
50.6
 21
50.6
  0
LINE
  8
0
 10
-70.9
 11
-70.9
 20
50.6
 21
49.25
  0
LINE
  8
0
 10
-70.9
 11
-68.9
 20
49.25
 21
49.25
  0
LINE
  8
0
 10
-68.9
 11
-68.9
 20
49.25
 21
50.6
  0
LINE
  8
0
 10
-68.9
 11
-65
 20
50.6
 21
50.6
  0
LINE
  8
0
 10
-65
 11
-65
 20
50.6
 21
42
  0
LINE
  8
0
 10
-65
 11
-58.975
 20
42
 21
42
  0
LINE
  8
0
 10
-58.975
 11
-58.975
 20
42
 21
34
  0
LINE
  8
0
 10
-58.975
 11
-65
 20
34
 21
34
  0
LINE
  8
0
 10
-65
 11
-65
 20
34
 21
13
  0
LINE
  8
0
 10
-65
 11
-73
 20
13
 21
13
  0
LINE
  8
0
 10
-73
 11
-73
 20
13
 21
6.975
  0
LINE
  8
0
 10
-73
 11
-81
 20
6.975
 21
6.975
  0
LINE
  8
0
 10
-81
 11
-81
 20
6.975
 21
13
  0
LINE
  8
0
 10
-81
 11
-89.6
 20
13
 21
13
  0
LINE
  8
0
 10
-89.6
 11
-89.6
 20
13
 21
16.9
  0
LINE
  8
0
 10
-89.6
 11
-88.25
 20
16.9
 21
16.9
  0
LINE
  8
0
 10
-88.25
 11
-88.25
 20
16.9
 21
18.9
  0
LINE
  8
0
 10
-88.25
 11
-89.6
 20
18.9
 21
18.9
  0
LINE
  8
0
 10
-89.6
 11
-89.6
 20
18.9
 21
20.95
  0
LINE
  8
0
 10
-89.6
 11
-92.4
 20
20.95
 21
20.95
  0
LINE
  8
0
 10
-92.4
 11
-92.4
 20
20.95
 21
18.9
  0
LINE
  8
0
 10
-92.4
 11
-93.75
 20
18.9
 21
18.9
  0
LINE
  8
0
 10
-93.75
 11
-93.75
 20
18.9
 21
16.9
  0
LINE
  8
0
 10
-93.75
 11
-92.4
 20
16.9
 21
16.9
  0
LINE
  8
0
 10
-92.4
 11
-92.4
 20
16.9
 21
13
  0
LINE
  8
0
 10
-92.4
 11
-101
 20
13
 21
13
  0
LINE
  8
0
 10
-101
 11
-101
 20
13
 21
6.975
  0
LINE
  8
0
 10
-101
 11
-109
 20
6.975
 21
6.975
  0
LINE
  8
0
 10
-109
 11
-109
 20
6.975
 21
13
  0
LINE
  8
0
 10
-109
 11
-177
 20
13
 21
13
  0
LINE
  8
0
 10
-177
 11
-177
 20
13
 21
6.975
  0
LINE
  8
0
 10
-177
 11
-185
 20
6.975
 21
6.975
  0
LINE
  8
0
 10
-185
 11
-185
 20
6.975
 21
13
  0
LINE
  8
0
 10
-185
 11
-193.6
 20
13
 21
13
  0
LINE
  8
0
 10
-193.6
 11
-193.6
 20
13
 21
16.9
  0
LINE
  8
0
 10
-193.6
 11
-192.25
 20
16.9
 21
16.9
  0
LINE
  8
0
 10
-192.25
 11
-192.25
 20
16.9
 21
18.9
  0
LINE
  8
0
 10
-192.25
 11
-193.6
 20
18.9
 21
18.9
  0
LINE
  8
0
 10
-193.6
 11
-193.6
 20
18.9
 21
20.95
  0
LINE
  8
0
 10
-193.6
 11
-196.4
 20
20.95
 21
20.95
  0
LINE
  8
0
 10
-196.4
 11
-196.4
 20
20.95
 21
18.9
  0
LINE
  8
0
 10
-196.4
 11
-197.75
 20
18.9
 21
18.9
  0
LINE
  8
0
 10
-197.75
 11
-197.75
 20
18.9
 21
16.9
  0
LINE
  8
0
 10
-197.75
 11
-196.4
 20
16.9
 21
16.9
  0
LINE
  8
0
 10
-196.4
 11
-196.4
 20
16.9
 21
13
  0
LINE
  8
0
 10
-196.4
 11
-205
 20
13
 21
13
  0
LINE
  8
0
 10
-205
 11
-205
 20
13
 21
6.975
  0
LINE
  8
0
 10
-205
 11
-213
 20
6.975
 21
6.975
  0
LINE
  8
0
 10
-213
 11
-213
 20
6.975
 21
13
  0
LINE
  8
0
 10
-213
 11
-221
 20
13
 21
13
  0
LINE
  8
0
 10
-221
 11
-221
 20
13
 21
34
  0
LINE
  8
0
 10
-221
 11
-227.025
 20
34
 21
34
  0
LINE
  8
0
 10
-213
 11
-213
 20
-84.025
 21
-77.975
  0
LINE
  8
0
 10
-213
 11
-205
 20
-77.975
 21
-77.975
  0
LINE
  8
0
 10
-205
 11
-205
 20
-77.975
 21
-84.025
  0
LINE
  8
0
 10
-205
 11
-213
 20
-84.025
 21
-84.025
  0
LINE
  8
0
 10
-213
 11
-213
 20
-26.025
 21
-19.975
  0
LINE
  8
0
 10
-213
 11
-205
 20
-19.975
 21
-19.975
  0
LINE
  8
0
 10
-205
 11
-205
 20
-19.975
 21
-26.025
  0
LINE
  8
0
 10
-205
 11
-213
 20
-26.025
 21
-26.025
  0
LINE
  8
0
 10
-196.92
 11
-196.92
 20
43.22
 21
44.78
  0
LINE
  8
0
 10
-196.92
 11
-196.323
 20
44.78
 21
46.221
  0
LINE
  8
0
 10
-196.323
 11
-195.221
 20
46.221
 21
47.323
  0
LINE
  8
0
 10
-195.221
 11
-193.78
 20
47.323
 21
47.92
  0
LINE
  8
0
 10
-193.78
 11
-192.22
 20
47.92
 21
47.92
  0
LINE
  8
0
 10
-192.22
 11
-190.779
 20
47.92
 21
47.323
  0
LINE
  8
0
 10
-190.779
 11
-189.677
 20
47.323
 21
46.221
  0
LINE
  8
0
 10
-189.677
 11
-189.08
 20
46.221
 21
44.78
  0
LINE
  8
0
 10
-189.08
 11
-189.08
 20
44.78
 21
43.22
  0
LINE
  8
0
 10
-189.08
 11
-189.677
 20
43.22
 21
41.779
  0
LINE
  8
0
 10
-189.677
 11
-190.779
 20
41.779
 21
40.677
  0
LINE
  8
0
 10
-190.779
 11
-192.22
 20
40.677
 21
40.08
  0
LINE
  8
0
 10
-192.22
 11
-193.78
 20
40.08
 21
40.08
  0
LINE
  8
0
 10
-193.78
 11
-195.221
 20
40.08
 21
40.677
  0
LINE
  8
0
 10
-195.221
 11
-196.323
 20
40.677
 21
41.779
  0
LINE
  8
0
 10
-196.323
 11
-196.92
 20
41.779
 21
43.22
  0
LINE
  8
0
 10
-196.92
 11
-196.92
 20
59.22
 21
60.78
  0
LINE
  8
0
 10
-196.92
 11
-196.323
 20
60.78
 21
62.221
  0
LINE
  8
0
 10
-196.323
 11
-195.221
 20
62.221
 21
63.323
  0
LINE
  8
0
 10
-195.221
 11
-193.78
 20
63.323
 21
63.92
  0
LINE
  8
0
 10
-193.78
 11
-192.22
 20
63.92
 21
63.92
  0
LINE
  8
0
 10
-192.22
 11
-190.779
 20
63.92
 21
63.323
  0
LINE
  8
0
 10
-190.779
 11
-189.677
 20
63.323
 21
62.221
  0
LINE
  8
0
 10
-189.677
 11
-189.08
 20
62.221
 21
60.78
  0
LINE
  8
0
 10
-189.08
 11
-189.08
 20
60.78
 21
59.22
  0
LINE
  8
0
 10
-189.08
 11
-189.677
 20
59.22
 21
57.779
  0
LINE
  8
0
 10
-189.677
 11
-190.779
 20
57.779
 21
56.677
  0
LINE
  8
0
 10
-190.779
 11
-192.22
 20
56.677
 21
56.08
  0
LINE
  8
0
 10
-192.22
 11
-193.78
 20
56.08
 21
56.08
  0
LINE
  8
0
 10
-193.78
 11
-195.221
 20
56.08
 21
56.677
  0
LINE
  8
0
 10
-195.221
 11
-196.323
 20
56.677
 21
57.779
  0
LINE
  8
0
 10
-196.323
 11
-196.92
 20
57.779
 21
59.22
  0
LINE
  8
0
 10
-196.4
 11
-196.4
 20
-81.58
 21
-80.42
  0
LINE
  8
0
 10
-196.4
 11
-195.58
 20
-80.42
 21
-79.6
  0
LINE
  8
0
 10
-195.58
 11
-194.42
 20
-79.6
 21
-79.6
  0
LINE
  8
0
 10
-194.42
 11
-193.6
 20
-79.6
 21
-80.42
  0
LINE
  8
0
 10
-193.6
 11
-193.6
 20
-80.42
 21
-81.58
  0
LINE
  8
0
 10
-193.6
 11
-194.42
 20
-81.58
 21
-82.4
  0
LINE
  8
0
 10
-194.42
 11
-195.58
 20
-82.4
 21
-82.4
  0
LINE
  8
0
 10
-195.58
 11
-196.4
 20
-82.4
 21
-81.58
  0
LINE
  8
0
 10
-196.4
 11
-196.4
 20
-23.58
 21
-22.42
  0
LINE
  8
0
 10
-196.4
 11
-195.58
 20
-22.42
 21
-21.6
  0
LINE
  8
0
 10
-195.58
 11
-194.42
 20
-21.6
 21
-21.6
  0
LINE
  8
0
 10
-194.42
 11
-193.6
 20
-21.6
 21
-22.42
  0
LINE
  8
0
 10
-193.6
 11
-193.6
 20
-22.42
 21
-23.58
  0
LINE
  8
0
 10
-193.6
 11
-194.42
 20
-23.58
 21
-24.4
  0
LINE
  8
0
 10
-194.42
 11
-195.58
 20
-24.4
 21
-24.4
  0
LINE
  8
0
 10
-195.58
 11
-196.4
 20
-24.4
 21
-23.58
  0
LINE
  8
0
 10
-185
 11
-185
 20
-84.025
 21
-77.975
  0
LINE
  8
0
 10
-185
 11
-177
 20
-77.975
 21
-77.975
  0
LINE
  8
0
 10
-177
 11
-177
 20
-77.975
 21
-84.025
  0
LINE
  8
0
 10
-177
 11
-185
 20
-84.025
 21
-84.025
  0
LINE
  8
0
 10
-185
 11
-185
 20
-26.025
 21
-19.975
  0
LINE
  8
0
 10
-185
 11
-177
 20
-19.975
 21
-19.975
  0
LINE
  8
0
 10
-177
 11
-177
 20
-19.975
 21
-26.025
  0
LINE
  8
0
 10
-177
 11
-185
 20
-26.025
 21
-26.025
  0
LINE
  8
0
 10
-180.93
 11
-180.93
 20
43.103
 21
44.897
  0
LINE
  8
0
 10
-180.93
 11
-180.152
 20
44.897
 21
46.513
  0
LINE
  8
0
 10
-180.152
 11
-178.749
 20
46.513
 21
47.632
  0
LINE
  8
0
 10
-178.749
 11
-177
 20
47.632
 21
48.031
  0
LINE
  8
0
 10
-177
 11
-175.251
 20
48.031
 21
47.632
  0
LINE
  8
0
 10
-175.251
 11
-173.848
 20
47.632
 21
46.513
  0
LINE
  8
0
 10
-173.848
 11
-173.07
 20
46.513
 21
44.897
  0
LINE
  8
0
 10
-173.07
 11
-173.07
 20
44.897
 21
43.103
  0
LINE
  8
0
 10
-173.07
 11
-173.848
 20
43.103
 21
41.487
  0
LINE
  8
0
 10
-173.848
 11
-175.251
 20
41.487
 21
40.368
  0
LINE
  8
0
 10
-175.251
 11
-177
 20
40.368
 21
39.969
  0
LINE
  8
0
 10
-177
 11
-178.749
 20
39.969
 21
40.368
  0
LINE
  8
0
 10
-178.749
 11
-180.152
 20
40.368
 21
41.487
  0
LINE
  8
0
 10
-180.152
 11
-180.93
 20
41.487
 21
43.103
  0
LINE
  8
0
 10
-180.93
 11
-180.93
 20
59.218
 21
60.782
  0
LINE
  8
0
 10
-180.93
 11
-180.332
 20
60.782
 21
62.226
  0
LINE
  8
0
 10
-180.332
 11
-179.226
 20
62.226
 21
63.332
  0
LINE
  8
0
 10
-179.226
 11
-177.782
 20
63.332
 21
63.93
  0
LINE
  8
0
 10
-177.782
 11
-176.218
 20
63.93
 21
63.93
  0
LINE
  8
0
 10
-176.218
 11
-174.774
 20
63.93
 21
63.332
  0
LINE
  8
0
 10
-174.774
 11
-173.668
 20
63.332
 21
62.226
  0
LINE
  8
0
 10
-173.668
 11
-173.07
 20
62.226
 21
60.782
  0
LINE
  8
0
 10
-173.07
 11
-173.07
 20
60.782
 21
59.218
  0
LINE
  8
0
 10
-173.07
 11
-173.668
 20
59.218
 21
57.774
  0
LINE
  8
0
 10
-173.668
 11
-174.774
 20
57.774
 21
56.668
  0
LINE
  8
0
 10
-174.774
 11
-176.218
 20
56.668
 21
56.07
  0
LINE
  8
0
 10
-176.218
 11
-177.782
 20
56.07
 21
56.07
  0
LINE
  8
0
 10
-177.782
 11
-179.226
 20
56.07
 21
56.668
  0
LINE
  8
0
 10
-179.226
 11
-180.332
 20
56.668
 21
57.774
  0
LINE
  8
0
 10
-180.332
 11
-180.93
 20
57.774
 21
59.218
  0
LINE
  8
0
 10
-164.94
 11
-164.94
 20
42.944
 21
45.056
  0
LINE
  8
0
 10
-164.94
 11
-163.884
 20
45.056
 21
46.884
  0
LINE
  8
0
 10
-163.884
 11
-162.056
 20
46.884
 21
47.94
  0
LINE
  8
0
 10
-162.056
 11
-159.944
 20
47.94
 21
47.94
  0
LINE
  8
0
 10
-159.944
 11
-158.116
 20
47.94
 21
46.884
  0
LINE
  8
0
 10
-158.116
 11
-157.06
 20
46.884
 21
45.056
  0
LINE
  8
0
 10
-157.06
 11
-157.06
 20
45.056
 21
42.944
  0
LINE
  8
0
 10
-157.06
 11
-158.116
 20
42.944
 21
41.116
  0
LINE
  8
0
 10
-158.116
 11
-159.944
 20
41.116
 21
40.06
  0
LINE
  8
0
 10
-159.944
 11
-162.056
 20
40.06
 21
40.06
  0
LINE
  8
0
 10
-162.056
 11
-163.884
 20
40.06
 21
41.116
  0
LINE
  8
0
 10
-163.884
 11
-164.94
 20
41.116
 21
42.944
  0
LINE
  8
0
 10
-164.94
 11
-164.94
 20
59.216
 21
60.784
  0
LINE
  8
0
 10
-164.94
 11
-164.34
 20
60.784
 21
62.232
  0
LINE
  8
0
 10
-164.34
 11
-163.232
 20
62.232
 21
63.34
  0
LINE
  8
0
 10
-163.232
 11
-161.784
 20
63.34
 21
63.94
  0
LINE
  8
0
 10
-161.784
 11
-160.216
 20
63.94
 21
63.94
  0
LINE
  8
0
 10
-160.216
 11
-158.768
 20
63.94
 21
63.34
  0
LINE
  8
0
 10
-158.768
 11
-157.66
 20
63.34
 21
62.232
  0
LINE
  8
0
 10
-157.66
 11
-157.06
 20
62.232
 21
60.784
  0
LINE
  8
0
 10
-157.06
 11
-157.06
 20
60.784
 21
59.216
  0
LINE
  8
0
 10
-157.06
 11
-157.66
 20
59.216
 21
57.768
  0
LINE
  8
0
 10
-157.66
 11
-158.768
 20
57.768
 21
56.66
  0
LINE
  8
0
 10
-158.768
 11
-160.216
 20
56.66
 21
56.06
  0
LINE
  8
0
 10
-160.216
 11
-161.784
 20
56.06
 21
56.06
  0
LINE
  8
0
 10
-161.784
 11
-163.232
 20
56.06
 21
56.66
  0
LINE
  8
0
 10
-163.232
 11
-164.34
 20
56.66
 21
57.768
  0
LINE
  8
0
 10
-164.34
 11
-164.94
 20
57.768
 21
59.216
  0
LINE
  8
0
 10
-148.95
 11
-148.95
 20
42.717
 21
45.283
  0
LINE
  8
0
 10
-148.95
 11
-147.441
 20
45.283
 21
47.36
  0
LINE
  8
0
 10
-147.441
 11
-145
 20
47.36
 21
48.153
  0
LINE
  8
0
 10
-145
 11
-142.559
 20
48.153
 21
47.36
  0
LINE
  8
0
 10
-142.559
 11
-141.05
 20
47.36
 21
45.283
  0
LINE
  8
0
 10
-141.05
 11
-141.05
 20
45.283
 21
42.717
  0
LINE
  8
0
 10
-141.05
 11
-142.559
 20
42.717
 21
40.64
  0
LINE
  8
0
 10
-142.559
 11
-145
 20
40.64
 21
39.847
  0
LINE
  8
0
 10
-145
 11
-147.441
 20
39.847
 21
40.64
  0
LINE
  8
0
 10
-147.441
 11
-148.95
 20
40.64
 21
42.717
  0
LINE
  8
0
 10
-148.95
 11
-148.95
 20
59.214
 21
60.786
  0
LINE
  8
0
 10
-148.95
 11
-148.349
 20
60.786
 21
62.237
  0
LINE
  8
0
 10
-148.349
 11
-147.237
 20
62.237
 21
63.349
  0
LINE
  8
0
 10
-147.237
 11
-145.786
 20
63.349
 21
63.95
  0
LINE
  8
0
 10
-145.786
 11
-144.214
 20
63.95
 21
63.95
  0
LINE
  8
0
 10
-144.214
 11
-142.763
 20
63.95
 21
63.349
  0
LINE
  8
0
 10
-142.763
 11
-141.651
 20
63.349
 21
62.237
  0
LINE
  8
0
 10
-141.651
 11
-141.05
 20
62.237
 21
60.786
  0
LINE
  8
0
 10
-141.05
 11
-141.05
 20
60.786
 21
59.214
  0
LINE
  8
0
 10
-141.05
 11
-141.651
 20
59.214
 21
57.763
  0
LINE
  8
0
 10
-141.651
 11
-142.763
 20
57.763
 21
56.651
  0
LINE
  8
0
 10
-142.763
 11
-144.214
 20
56.651
 21
56.05
  0
LINE
  8
0
 10
-144.214
 11
-145.786
 20
56.05
 21
56.05
  0
LINE
  8
0
 10
-145.786
 11
-147.237
 20
56.05
 21
56.651
  0
LINE
  8
0
 10
-147.237
 11
-148.349
 20
56.651
 21
57.763
  0
LINE
  8
0
 10
-148.349
 11
-148.95
 20
57.763
 21
59.214
  0
LINE
  8
0
 10
-132.96
 11
-132.96
 20
42.36
 21
45.64
  0
LINE
  8
0
 10
-132.96
 11
-130.64
 20
45.64
 21
47.96
  0
LINE
  8
0
 10
-130.64
 11
-127.36
 20
47.96
 21
47.96
  0
LINE
  8
0
 10
-127.36
 11
-125.04
 20
47.96
 21
45.64
  0
LINE
  8
0
 10
-125.04
 11
-125.04
 20
45.64
 21
42.36
  0
LINE
  8
0
 10
-125.04
 11
-127.36
 20
42.36
 21
40.04
  0
LINE
  8
0
 10
-127.36
 11
-130.64
 20
40.04
 21
40.04
  0
LINE
  8
0
 10
-130.64
 11
-132.96
 20
40.04
 21
42.36
  0
LINE
  8
0
 10
-132.96
 11
-132.96
 20
59.212
 21
60.788
  0
LINE
  8
0
 10
-132.96
 11
-132.357
 20
60.788
 21
62.243
  0
LINE
  8
0
 10
-132.357
 11
-131.243
 20
62.243
 21
63.357
  0
LINE
  8
0
 10
-131.243
 11
-129.788
 20
63.357
 21
63.96
  0
LINE
  8
0
 10
-129.788
 11
-128.212
 20
63.96
 21
63.96
  0
LINE
  8
0
 10
-128.212
 11
-126.757
 20
63.96
 21
63.357
  0
LINE
  8
0
 10
-126.757
 11
-125.643
 20
63.357
 21
62.243
  0
LINE
  8
0
 10
-125.643
 11
-125.04
 20
62.243
 21
60.788
  0
LINE
  8
0
 10
-125.04
 11
-125.04
 20
60.788
 21
59.212
  0
LINE
  8
0
 10
-125.04
 11
-125.643
 20
59.212
 21
57.757
  0
LINE
  8
0
 10
-125.643
 11
-126.757
 20
57.757
 21
56.643
  0
LINE
  8
0
 10
-126.757
 11
-128.212
 20
56.643
 21
56.04
  0
LINE
  8
0
 10
-128.212
 11
-129.788
 20
56.04
 21
56.04
  0
LINE
  8
0
 10
-129.788
 11
-131.243
 20
56.04
 21
56.643
  0
LINE
  8
0
 10
-131.243
 11
-132.357
 20
56.643
 21
57.757
  0
LINE
  8
0
 10
-132.357
 11
-132.96
 20
57.757
 21
59.212
  0
LINE
  8
0
 10
-116.97
 11
-116.97
 20
41.708
 21
46.292
  0
LINE
  8
0
 10
-116.97
 11
-113
 20
46.292
 21
48.584
  0
LINE
  8
0
 10
-113
 11
-109.03
 20
48.584
 21
46.292
  0
LINE
  8
0
 10
-109.03
 11
-109.03
 20
46.292
 21
41.708
  0
LINE
  8
0
 10
-109.03
 11
-113
 20
41.708
 21
39.416
  0
LINE
  8
0
 10
-113
 11
-116.97
 20
39.416
 21
41.708
  0
LINE
  8
0
 10
-116.97
 11
-116.97
 20
59.21
 21
60.79
  0
LINE
  8
0
 10
-116.97
 11
-116.366
 20
60.79
 21
62.249
  0
LINE
  8
0
 10
-116.366
 11
-115.249
 20
62.249
 21
63.366
  0
LINE
  8
0
 10
-115.249
 11
-113.79
 20
63.366
 21
63.97
  0
LINE
  8
0
 10
-113.79
 11
-112.21
 20
63.97
 21
63.97
  0
LINE
  8
0
 10
-112.21
 11
-110.751
 20
63.97
 21
63.366
  0
LINE
  8
0
 10
-110.751
 11
-109.634
 20
63.366
 21
62.249
  0
LINE
  8
0
 10
-109.634
 11
-109.03
 20
62.249
 21
60.79
  0
LINE
  8
0
 10
-109.03
 11
-109.03
 20
60.79
 21
59.21
  0
LINE
  8
0
 10
-109.03
 11
-109.634
 20
59.21
 21
57.751
  0
LINE
  8
0
 10
-109.634
 11
-110.751
 20
57.751
 21
56.634
  0
LINE
  8
0
 10
-110.751
 11
-112.21
 20
56.634
 21
56.03
  0
LINE
  8
0
 10
-112.21
 11
-113.79
 20
56.03
 21
56.03
  0
LINE
  8
0
 10
-113.79
 11
-115.249
 20
56.03
 21
56.634
  0
LINE
  8
0
 10
-115.249
 11
-116.366
 20
56.634
 21
57.751
  0
LINE
  8
0
 10
-116.366
 11
-116.97
 20
57.751
 21
59.21
  0
LINE
  8
0
 10
-109
 11
-109
 20
-84.025
 21
-77.975
  0
LINE
  8
0
 10
-109
 11
-101
 20
-77.975
 21
-77.975
  0
LINE
  8
0
 10
-101
 11
-101
 20
-77.975
 21
-84.025
  0
LINE
  8
0
 10
-101
 11
-109
 20
-84.025
 21
-84.025
  0
LINE
  8
0
 10
-109
 11
-109
 20
-26.025
 21
-19.975
  0
LINE
  8
0
 10
-109
 11
-101
 20
-19.975
 21
-19.975
  0
LINE
  8
0
 10
-101
 11
-101
 20
-19.975
 21
-26.025
  0
LINE
  8
0
 10
-101
 11
-109
 20
-26.025
 21
-26.025
  0
LINE
  8
0
 10
-100.98
 11
-100.98
 20
40.02
 21
47.98
  0
LINE
  8
0
 10
-100.98
 11
-93.02
 20
47.98
 21
47.98
  0
LINE
  8
0
 10
-93.02
 11
-93.02
 20
47.98
 21
40.02
  0
LINE
  8
0
 10
-93.02
 11
-100.98
 20
40.02
 21
40.02
  0
LINE
  8
0
 10
-100.98
 11
-100.98
 20
59.208
 21
60.792
  0
LINE
  8
0
 10
-100.98
 11
-100.374
 20
60.792
 21
62.254
  0
LINE
  8
0
 10
-100.374
 11
-99.254
 20
62.254
 21
63.374
  0
LINE
  8
0
 10
-99.254
 11
-97.792
 20
63.374
 21
63.98
  0
LINE
  8
0
 10
-97.792
 11
-96.208
 20
63.98
 21
63.98
  0
LINE
  8
0
 10
-96.208
 11
-94.746
 20
63.98
 21
63.374
  0
LINE
  8
0
 10
-94.746
 11
-93.626
 20
63.374
 21
62.254
  0
LINE
  8
0
 10
-93.626
 11
-93.02
 20
62.254
 21
60.792
  0
LINE
  8
0
 10
-93.02
 11
-93.02
 20
60.792
 21
59.208
  0
LINE
  8
0
 10
-93.02
 11
-93.626
 20
59.208
 21
57.746
  0
LINE
  8
0
 10
-93.626
 11
-94.746
 20
57.746
 21
56.626
  0
LINE
  8
0
 10
-94.746
 11
-96.208
 20
56.626
 21
56.02
  0
LINE
  8
0
 10
-96.208
 11
-97.792
 20
56.02
 21
56.02
  0
LINE
  8
0
 10
-97.792
 11
-99.254
 20
56.02
 21
56.626
  0
LINE
  8
0
 10
-99.254
 11
-100.374
 20
56.626
 21
57.746
  0
LINE
  8
0
 10
-100.374
 11
-100.98
 20
57.746
 21
59.208
  0
LINE
  8
0
 10
-92.4
 11
-92.4
 20
-81.58
 21
-80.42
  0
LINE
  8
0
 10
-92.4
 11
-91.58
 20
-80.42
 21
-79.6
  0
LINE
  8
0
 10
-91.58
 11
-90.42
 20
-79.6
 21
-79.6
  0
LINE
  8
0
 10
-90.42
 11
-89.6
 20
-79.6
 21
-80.42
  0
LINE
  8
0
 10
-89.6
 11
-89.6
 20
-80.42
 21
-81.58
  0
LINE
  8
0
 10
-89.6
 11
-90.42
 20
-81.58
 21
-82.4
  0
LINE
  8
0
 10
-90.42
 11
-91.58
 20
-82.4
 21
-82.4
  0
LINE
  8
0
 10
-91.58
 11
-92.4
 20
-82.4
 21
-81.58
  0
LINE
  8
0
 10
-92.4
 11
-92.4
 20
-23.58
 21
-22.42
  0
LINE
  8
0
 10
-92.4
 11
-91.58
 20
-22.42
 21
-21.6
  0
LINE
  8
0
 10
-91.58
 11
-90.42
 20
-21.6
 21
-21.6
  0
LINE
  8
0
 10
-90.42
 11
-89.6
 20
-21.6
 21
-22.42
  0
LINE
  8
0
 10
-89.6
 11
-89.6
 20
-22.42
 21
-23.58
  0
LINE
  8
0
 10
-89.6
 11
-90.42
 20
-23.58
 21
-24.4
  0
LINE
  8
0
 10
-90.42
 11
-91.58
 20
-24.4
 21
-24.4
  0
LINE
  8
0
 10
-91.58
 11
-92.4
 20
-24.4
 21
-23.58
  0
LINE
  8
0
 10
-81
 11
-81
 20
-84.025
 21
-77.975
  0
LINE
  8
0
 10
-81
 11
-73
 20
-77.975
 21
-77.975
  0
LINE
  8
0
 10
-73
 11
-73
 20
-77.975
 21
-84.025
  0
LINE
  8
0
 10
-73
 11
-81
 20
-84.025
 21
-84.025
  0
LINE
  8
0
 10
-81
 11
-81
 20
-26.025
 21
-19.975
  0
LINE
  8
0
 10
-81
 11
-73
 20
-19.975
 21
-19.975
  0
LINE
  8
0
 10
-73
 11
-73
 20
-19.975
 21
-26.025
  0
LINE
  8
0
 10
-73
 11
-81
 20
-26.025
 21
-26.025
  0
LINE
  8
0
 10
-49
 11
-49
 20
-88
 21
-16
  0
LINE
  8
0
 10
-49
 11
49
 20
-16
 21
-16
  0
LINE
  8
0
 10
49
 11
49
 20
-16
 21
-88
  0
LINE
  8
0
 10
49
 11
-49
 20
-88
 21
-88
  0
LINE
  8
0
 10
-49
 11
-49
 20
16
 21
88
  0
LINE
  8
0
 10
-49
 11
49
 20
88
 21
88
  0
LINE
  8
0
 10
49
 11
49
 20
88
 21
16
  0
LINE
  8
0
 10
49
 11
-49
 20
16
 21
16
  0
LINE
  8
0
 10
-45.025
 11
-45.025
 20
-70
 21
-62
  0
LINE
  8
0
 10
-45.025
 11
-38.975
 20
-62
 21
-62
  0
LINE
  8
0
 10
-38.975
 11
-38.975
 20
-62
 21
-70
  0
LINE
  8
0
 10
-38.975
 11
-45.025
 20
-70
 21
-70
  0
LINE
  8
0
 10
-45.025
 11
-45.025
 20
-42
 21
-34
  0
LINE
  8
0
 10
-45.025
 11
-38.975
 20
-34
 21
-34
  0
LINE
  8
0
 10
-38.975
 11
-38.975
 20
-34
 21
-42
  0
LINE
  8
0
 10
-38.975
 11
-45.025
 20
-42
 21
-42
  0
LINE
  8
0
 10
-45.025
 11
-45.025
 20
34
 21
42
  0
LINE
  8
0
 10
-45.025
 11
-38.975
 20
42
 21
42
  0
LINE
  8
0
 10
-38.975
 11
-38.975
 20
42
 21
34
  0
LINE
  8
0
 10
-38.975
 11
-45.025
 20
34
 21
34
  0
LINE
  8
0
 10
-45.025
 11
-45.025
 20
62
 21
70
  0
LINE
  8
0
 10
-45.025
 11
-38.975
 20
70
 21
70
  0
LINE
  8
0
 10
-38.975
 11
-38.975
 20
70
 21
62
  0
LINE
  8
0
 10
-38.975
 11
-45.025
 20
62
 21
62
  0
LINE
  8
0
 10
-43.4
 11
-43.4
 20
-52.58
 21
-51.42
  0
LINE
  8
0
 10
-43.4
 11
-42.58
 20
-51.42
 21
-50.6
  0
LINE
  8
0
 10
-42.58
 11
-41.42
 20
-50.6
 21
-50.6
  0
LINE
  8
0
 10
-41.42
 11
-40.6
 20
-50.6
 21
-51.42
  0
LINE
  8
0
 10
-40.6
 11
-40.6
 20
-51.42
 21
-52.58
  0
LINE
  8
0
 10
-40.6
 11
-41.42
 20
-52.58
 21
-53.4
  0
LINE
  8
0
 10
-41.42
 11
-42.58
 20
-53.4
 21
-53.4
  0
LINE
  8
0
 10
-42.58
 11
-43.4
 20
-53.4
 21
-52.58
  0
LINE
  8
0
 10
-43.4
 11
-43.4
 20
51.42
 21
52.58
  0
LINE
  8
0
 10
-43.4
 11
-42.58
 20
52.58
 21
53.4
  0
LINE
  8
0
 10
-42.58
 11
-41.42
 20
53.4
 21
53.4
  0
LINE
  8
0
 10
-41.42
 11
-40.6
 20
53.4
 21
52.58
  0
LINE
  8
0
 10
-40.6
 11
-40.6
 20
52.58
 21
51.42
  0
LINE
  8
0
 10
-40.6
 11
-41.42
 20
51.42
 21
50.6
  0
LINE
  8
0
 10
-41.42
 11
-42.58
 20
50.6
 21
50.6
  0
LINE
  8
0
 10
-42.58
 11
-43.4
 20
50.6
 21
51.42
  0
LINE
  8
0
 10
-18
 11
-18
 20
-84.025
 21
-77.975
  0
LINE
  8
0
 10
-18
 11
-10
 20
-77.975
 21
-77.975
  0
LINE
  8
0
 10
-10
 11
-10
 20
-77.975
 21
-84.025
  0
LINE
  8
0
 10
-10
 11
-18
 20
-84.025
 21
-84.025
  0
LINE
  8
0
 10
-18
 11
-18
 20
-26.025
 21
-19.975
  0
LINE
  8
0
 10
-18
 11
-10
 20
-19.975
 21
-19.975
  0
LINE
  8
0
 10
-10
 11
-10
 20
-19.975
 21
-26.025
  0
LINE
  8
0
 10
-10
 11
-18
 20
-26.025
 21
-26.025
  0
LINE
  8
0
 10
-18
 11
-18
 20
19.975
 21
26.025
  0
LINE
  8
0
 10
-18
 11
-10
 20
26.025
 21
26.025
  0
LINE
  8
0
 10
-10
 11
-10
 20
26.025
 21
19.975
  0
LINE
  8
0
 10
-10
 11
-18
 20
19.975
 21
19.975
  0
LINE
  8
0
 10
-18
 11
-18
 20
77.975
 21
84.025
  0
LINE
  8
0
 10
-18
 11
-10
 20
84.025
 21
84.025
  0
LINE
  8
0
 10
-10
 11
-10
 20
84.025
 21
77.975
  0
LINE
  8
0
 10
-10
 11
-18
 20
77.975
 21
77.975
  0
LINE
  8
0
 10
-1.4
 11
-1.4
 20
-81.58
 21
-80.42
  0
LINE
  8
0
 10
-1.4
 11
-0.58
 20
-80.42
 21
-79.6
  0
LINE
  8
0
 10
-0.58
 11
0.58
 20
-79.6
 21
-79.6
  0
LINE
  8
0
 10
0.58
 11
1.4
 20
-79.6
 21
-80.42
  0
LINE
  8
0
 10
1.4
 11
1.4
 20
-80.42
 21
-81.58
  0
LINE
  8
0
 10
1.4
 11
0.58
 20
-81.58
 21
-82.4
  0
LINE
  8
0
 10
0.58
 11
-0.58
 20
-82.4
 21
-82.4
  0
LINE
  8
0
 10
-0.58
 11
-1.4
 20
-82.4
 21
-81.58
  0
LINE
  8
0
 10
-1.4
 11
-1.4
 20
-23.58
 21
-22.42
  0
LINE
  8
0
 10
-1.4
 11
-0.58
 20
-22.42
 21
-21.6
  0
LINE
  8
0
 10
-0.58
 11
0.58
 20
-21.6
 21
-21.6
  0
LINE
  8
0
 10
0.58
 11
1.4
 20
-21.6
 21
-22.42
  0
LINE
  8
0
 10
1.4
 11
1.4
 20
-22.42
 21
-23.58
  0
LINE
  8
0
 10
1.4
 11
0.58
 20
-23.58
 21
-24.4
  0
LINE
  8
0
 10
0.58
 11
-0.58
 20
-24.4
 21
-24.4
  0
LINE
  8
0
 10
-0.58
 11
-1.4
 20
-24.4
 21
-23.58
  0
LINE
  8
0
 10
-1.4
 11
-1.4
 20
22.42
 21
23.58
  0
LINE
  8
0
 10
-1.4
 11
-0.58
 20
23.58
 21
24.4
  0
LINE
  8
0
 10
-0.58
 11
0.58
 20
24.4
 21
24.4
  0
LINE
  8
0
 10
0.58
 11
1.4
 20
24.4
 21
23.58
  0
LINE
  8
0
 10
1.4
 11
1.4
 20
23.58
 21
22.42
  0
LINE
  8
0
 10
1.4
 11
0.58
 20
22.42
 21
21.6
  0
LINE
  8
0
 10
0.58
 11
-0.58
 20
21.6
 21
21.6
  0
LINE
  8
0
 10
-0.58
 11
-1.4
 20
21.6
 21
22.42
  0
LINE
  8
0
 10
-1.4
 11
-1.4
 20
80.42
 21
81.58
  0
LINE
  8
0
 10
-1.4
 11
-0.58
 20
81.58
 21
82.4
  0
LINE
  8
0
 10
-0.58
 11
0.58
 20
82.4
 21
82.4
  0
LINE
  8
0
 10
0.58
 11
1.4
 20
82.4
 21
81.58
  0
LINE
  8
0
 10
1.4
 11
1.4
 20
81.58
 21
80.42
  0
LINE
  8
0
 10
1.4
 11
0.58
 20
80.42
 21
79.6
  0
LINE
  8
0
 10
0.58
 11
-0.58
 20
79.6
 21
79.6
  0
LINE
  8
0
 10
-0.58
 11
-1.4
 20
79.6
 21
80.42
  0
LINE
  8
0
 10
10
 11
10
 20
-84.025
 21
-77.975
  0
LINE
  8
0
 10
10
 11
18
 20
-77.975
 21
-77.975
  0
LINE
  8
0
 10
18
 11
18
 20
-77.975
 21
-84.025
  0
LINE
  8
0
 10
18
 11
10
 20
-84.025
 21
-84.025
  0
LINE
  8
0
 10
10
 11
10
 20
-26.025
 21
-19.975
  0
LINE
  8
0
 10
10
 11
18
 20
-19.975
 21
-19.975
  0
LINE
  8
0
 10
18
 11
18
 20
-19.975
 21
-26.025
  0
LINE
  8
0
 10
18
 11
10
 20
-26.025
 21
-26.025
  0
LINE
  8
0
 10
10
 11
10
 20
19.975
 21
26.025
  0
LINE
  8
0
 10
10
 11
18
 20
26.025
 21
26.025
  0
LINE
  8
0
 10
18
 11
18
 20
26.025
 21
19.975
  0
LINE
  8
0
 10
18
 11
10
 20
19.975
 21
19.975
  0
LINE
  8
0
 10
10
 11
10
 20
77.975
 21
84.025
  0
LINE
  8
0
 10
10
 11
18
 20
84.025
 21
84.025
  0
LINE
  8
0
 10
18
 11
18
 20
84.025
 21
77.975
  0
LINE
  8
0
 10
18
 11
10
 20
77.975
 21
77.975
  0
LINE
  8
0
 10
38.975
 11
38.975
 20
-70
 21
-62
  0
LINE
  8
0
 10
38.975
 11
45.025
 20
-62
 21
-62
  0
LINE
  8
0
 10
45.025
 11
45.025
 20
-62
 21
-70
  0
LINE
  8
0
 10
45.025
 11
38.975
 20
-70
 21
-70
  0
LINE
  8
0
 10
38.975
 11
38.975
 20
-42
 21
-34
  0
LINE
  8
0
 10
38.975
 11
45.025
 20
-34
 21
-34
  0
LINE
  8
0
 10
45.025
 11
45.025
 20
-34
 21
-42
  0
LINE
  8
0
 10
45.025
 11
38.975
 20
-42
 21
-42
  0
LINE
  8
0
 10
38.975
 11
38.975
 20
34
 21
42
  0
LINE
  8
0
 10
38.975
 11
45.025
 20
42
 21
42
  0
LINE
  8
0
 10
45.025
 11
45.025
 20
42
 21
34
  0
LINE
  8
0
 10
45.025
 11
38.975
 20
34
 21
34
  0
LINE
  8
0
 10
38.975
 11
38.975
 20
62
 21
70
  0
LINE
  8
0
 10
38.975
 11
45.025
 20
70
 21
70
  0
LINE
  8
0
 10
45.025
 11
45.025
 20
70
 21
62
  0
LINE
  8
0
 10
45.025
 11
38.975
 20
62
 21
62
  0
LINE
  8
0
 10
40.6
 11
40.6
 20
-52.58
 21
-51.42
  0
LINE
  8
0
 10
40.6
 11
41.42
 20
-51.42
 21
-50.6
  0
LINE
  8
0
 10
41.42
 11
42.58
 20
-50.6
 21
-50.6
  0
LINE
  8
0
 10
42.58
 11
43.4
 20
-50.6
 21
-51.42
  0
LINE
  8
0
 10
43.4
 11
43.4
 20
-51.42
 21
-52.58
  0
LINE
  8
0
 10
43.4
 11
42.58
 20
-52.58
 21
-53.4
  0
LINE
  8
0
 10
42.58
 11
41.42
 20
-53.4
 21
-53.4
  0
LINE
  8
0
 10
41.42
 11
40.6
 20
-53.4
 21
-52.58
  0
LINE
  8
0
 10
40.6
 11
40.6
 20
51.42
 21
52.58
  0
LINE
  8
0
 10
40.6
 11
41.42
 20
52.58
 21
53.4
  0
LINE
  8
0
 10
41.42
 11
42.58
 20
53.4
 21
53.4
  0
LINE
  8
0
 10
42.58
 11
43.4
 20
53.4
 21
52.58
  0
LINE
  8
0
 10
43.4
 11
43.4
 20
52.58
 21
51.42
  0
LINE
  8
0
 10
43.4
 11
42.58
 20
51.42
 21
50.6
  0
LINE
  8
0
 10
42.58
 11
41.42
 20
50.6
 21
50.6
  0
LINE
  8
0
 10
41.42
 11
40.6
 20
50.6
 21
51.42
  0
LINE
  8
0
 10
58.975
 11
58.975
 20
-70
 21
-62
  0
LINE
  8
0
 10
58.975
 11
65
 20
-62
 21
-62
  0
LINE
  8
0
 10
65
 11
65
 20
-62
 21
-53.4
  0
LINE
  8
0
 10
65
 11
68.9
 20
-53.4
 21
-53.4
  0
LINE
  8
0
 10
68.9
 11
68.9
 20
-53.4
 21
-54.75
  0
LINE
  8
0
 10
68.9
 11
70.9
 20
-54.75
 21
-54.75
  0
LINE
  8
0
 10
70.9
 11
70.9
 20
-54.75
 21
-53.4
  0
LINE
  8
0
 10
70.9
 11
72.95
 20
-53.4
 21
-53.4
  0
LINE
  8
0
 10
72.95
 11
72.95
 20
-53.4
 21
-50.6
  0
LINE
  8
0
 10
72.95
 11
70.9
 20
-50.6
 21
-50.6
  0
LINE
  8
0
 10
70.9
 11
70.9
 20
-50.6
 21
-49.25
  0
LINE
  8
0
 10
70.9
 11
68.9
 20
-49.25
 21
-49.25
  0
LINE
  8
0
 10
68.9
 11
68.9
 20
-49.25
 21
-50.6
  0
LINE
  8
0
 10
68.9
 11
65
 20
-50.6
 21
-50.6
  0
LINE
  8
0
 10
65
 11
65
 20
-50.6
 21
-42
  0
LINE
  8
0
 10
65
 11
58.975
 20
-42
 21
-42
  0
LINE
  8
0
 10
58.975
 11
58.975
 20
-42
 21
-34
  0
LINE
  8
0
 10
58.975
 11
65
 20
-34
 21
-34
  0
LINE
  8
0
 10
65
 11
65
 20
-34
 21
-16
  0
LINE
  8
0
 10
65
 11
221
 20
-16
 21
-16
  0
LINE
  8
0
 10
221
 11
221
 20
-16
 21
-34
  0
LINE
  8
0
 10
221
 11
227.025
 20
-34
 21
-34
  0
LINE
  8
0
 10
227.025
 11
227.025
 20
-34
 21
-42
  0
LINE
  8
0
 10
227.025
 11
221
 20
-42
 21
-42
  0
LINE
  8
0
 10
221
 11
221
 20
-42
 21
-50.6
  0
LINE
  8
0
 10
221
 11
217.1
 20
-50.6
 21
-50.6
  0
LINE
  8
0
 10
217.1
 11
217.1
 20
-50.6
 21
-49.25
  0
LINE
  8
0
 10
217.1
 11
215.1
 20
-49.25
 21
-49.25
  0
LINE
  8
0
 10
215.1
 11
215.1
 20
-49.25
 21
-50.6
  0
LINE
  8
0
 10
215.1
 11
213.05
 20
-50.6
 21
-50.6
  0
LINE
  8
0
 10
213.05
 11
213.05
 20
-50.6
 21
-53.4
  0
LINE
  8
0
 10
213.05
 11
215.1
 20
-53.4
 21
-53.4
  0
LINE
  8
0
 10
215.1
 11
215.1
 20
-53.4
 21
-54.75
  0
LINE
  8
0
 10
215.1
 11
217.1
 20
-54.75
 21
-54.75
  0
LINE
  8
0
 10
217.1
 11
217.1
 20
-54.75
 21
-53.4
  0
LINE
  8
0
 10
217.1
 11
221
 20
-53.4
 21
-53.4
  0
LINE
  8
0
 10
221
 11
221
 20
-53.4
 21
-62
  0
LINE
  8
0
 10
221
 11
227.025
 20
-62
 21
-62
  0
LINE
  8
0
 10
227.025
 11
227.025
 20
-62
 21
-70
  0
LINE
  8
0
 10
227.025
 11
221
 20
-70
 21
-70
  0
LINE
  8
0
 10
221
 11
221
 20
-70
 21
-88
  0
LINE
  8
0
 10
221
 11
65
 20
-88
 21
-88
  0
LINE
  8
0
 10
65
 11
65
 20
-88
 21
-70
  0
LINE
  8
0
 10
65
 11
58.975
 20
-70
 21
-70
  0
LINE
  8
0
 10
73
 11
73
 20
-84.025
 21
-77.975
  0
LINE
  8
0
 10
73
 11
81
 20
-77.975
 21
-77.975
  0
LINE
  8
0
 10
81
 11
81
 20
-77.975
 21
-84.025
  0
LINE
  8
0
 10
81
 11
73
 20
-84.025
 21
-84.025
  0
LINE
  8
0
 10
73
 11
73
 20
-26.025
 21
-19.975
  0
LINE
  8
0
 10
73
 11
81
 20
-19.975
 21
-19.975
  0
LINE
  8
0
 10
81
 11
81
 20
-19.975
 21
-26.025
  0
LINE
  8
0
 10
81
 11
73
 20
-26.025
 21
-26.025
  0
LINE
  8
0
 10
89.6
 11
89.6
 20
-81.58
 21
-80.42
  0
LINE
  8
0
 10
89.6
 11
90.42
 20
-80.42
 21
-79.6
  0
LINE
  8
0
 10
90.42
 11
91.58
 20
-79.6
 21
-79.6
  0
LINE
  8
0
 10
91.58
 11
92.4
 20
-79.6
 21
-80.42
  0
LINE
  8
0
 10
92.4
 11
92.4
 20
-80.42
 21
-81.58
  0
LINE
  8
0
 10
92.4
 11
91.58
 20
-81.58
 21
-82.4
  0
LINE
  8
0
 10
91.58
 11
90.42
 20
-82.4
 21
-82.4
  0
LINE
  8
0
 10
90.42
 11
89.6
 20
-82.4
 21
-81.58
  0
LINE
  8
0
 10
89.6
 11
89.6
 20
-23.58
 21
-22.42
  0
LINE
  8
0
 10
89.6
 11
90.42
 20
-22.42
 21
-21.6
  0
LINE
  8
0
 10
90.42
 11
91.58
 20
-21.6
 21
-21.6
  0
LINE
  8
0
 10
91.58
 11
92.4
 20
-21.6
 21
-22.42
  0
LINE
  8
0
 10
92.4
 11
92.4
 20
-22.42
 21
-23.58
  0
LINE
  8
0
 10
92.4
 11
91.58
 20
-23.58
 21
-24.4
  0
LINE
  8
0
 10
91.58
 11
90.42
 20
-24.4
 21
-24.4
  0
LINE
  8
0
 10
90.42
 11
89.6
 20
-24.4
 21
-23.58
  0
LINE
  8
0
 10
93.02
 11
93.02
 20
40.02
 21
47.98
  0
LINE
  8
0
 10
93.02
 11
100.98
 20
47.98
 21
47.98
  0
LINE
  8
0
 10
100.98
 11
100.98
 20
47.98
 21
40.02
  0
LINE
  8
0
 10
100.98
 11
93.02
 20
40.02
 21
40.02
  0
LINE
  8
0
 10
93.02
 11
93.02
 20
59.208
 21
60.792
  0
LINE
  8
0
 10
93.02
 11
93.626
 20
60.792
 21
62.254
  0
LINE
  8
0
 10
93.626
 11
94.746
 20
62.254
 21
63.374
  0
LINE
  8
0
 10
94.746
 11
96.208
 20
63.374
 21
63.98
  0
LINE
  8
0
 10
96.208
 11
97.792
 20
63.98
 21
63.98
  0
LINE
  8
0
 10
97.792
 11
99.254
 20
63.98
 21
63.374
  0
LINE
  8
0
 10
99.254
 11
100.374
 20
63.374
 21
62.254
  0
LINE
  8
0
 10
100.374
 11
100.98
 20
62.254
 21
60.792
  0
LINE
  8
0
 10
100.98
 11
100.98
 20
60.792
 21
59.208
  0
LINE
  8
0
 10
100.98
 11
100.374
 20
59.208
 21
57.746
  0
LINE
  8
0
 10
100.374
 11
99.254
 20
57.746
 21
56.626
  0
LINE
  8
0
 10
99.254
 11
97.792
 20
56.626
 21
56.02
  0
LINE
  8
0
 10
97.792
 11
96.208
 20
56.02
 21
56.02
  0
LINE
  8
0
 10
96.208
 11
94.746
 20
56.02
 21
56.626
  0
LINE
  8
0
 10
94.746
 11
93.626
 20
56.626
 21
57.746
  0
LINE
  8
0
 10
93.626
 11
93.02
 20
57.746
 21
59.208
  0
LINE
  8
0
 10
101
 11
101
 20
-84.025
 21
-77.975
  0
LINE
  8
0
 10
101
 11
109
 20
-77.975
 21
-77.975
  0
LINE
  8
0
 10
109
 11
109
 20
-77.975
 21
-84.025
  0
LINE
  8
0
 10
109
 11
101
 20
-84.025
 21
-84.025
  0
LINE
  8
0
 10
101
 11
101
 20
-26.025
 21
-19.975
  0
LINE
  8
0
 10
101
 11
109
 20
-19.975
 21
-19.975
  0
LINE
  8
0
 10
109
 11
109
 20
-19.975
 21
-26.025
  0
LINE
  8
0
 10
109
 11
101
 20
-26.025
 21
-26.025
  0
LINE
  8
0
 10
109.03
 11
109.03
 20
41.708
 21
46.292
  0
LINE
  8
0
 10
109.03
 11
113
 20
46.292
 21
48.584
  0
LINE
  8
0
 10
113
 11
116.97
 20
48.584
 21
46.292
  0
LINE
  8
0
 10
116.97
 11
116.97
 20
46.292
 21
41.708
  0
LINE
  8
0
 10
116.97
 11
113
 20
41.708
 21
39.416
  0
LINE
  8
0
 10
113
 11
109.03
 20
39.416
 21
41.708
  0
LINE
  8
0
 10
58.975
 11
58.975
 20
34
 21
42
  0
LINE
  8
0
 10
58.975
 11
65
 20
42
 21
42
  0
LINE
  8
0
 10
65
 11
65
 20
42
 21
50.6
  0
LINE
  8
0
 10
65
 11
68.9
 20
50.6
 21
50.6
  0
LINE
  8
0
 10
68.9
 11
68.9
 20
50.6
 21
49.25
  0
LINE
  8
0
 10
68.9
 11
70.9
 20
49.25
 21
49.25
  0
LINE
  8
0
 10
70.9
 11
70.9
 20
49.25
 21
50.6
  0
LINE
  8
0
 10
70.9
 11
72.95
 20
50.6
 21
50.6
  0
LINE
  8
0
 10
72.95
 11
72.95
 20
50.6
 21
53.4
  0
LINE
  8
0
 10
72.95
 11
70.9
 20
53.4
 21
53.4
  0
LINE
  8
0
 10
70.9
 11
70.9
 20
53.4
 21
54.75
  0
LINE
  8
0
 10
70.9
 11
68.9
 20
54.75
 21
54.75
  0
LINE
  8
0
 10
68.9
 11
68.9
 20
54.75
 21
53.4
  0
LINE
  8
0
 10
68.9
 11
65
 20
53.4
 21
53.4
  0
LINE
  8
0
 10
65
 11
65
 20
53.4
 21
62
  0
LINE
  8
0
 10
65
 11
58.975
 20
62
 21
62
  0
LINE
  8
0
 10
58.975
 11
58.975
 20
62
 21
70
  0
LINE
  8
0
 10
58.975
 11
65
 20
70
 21
70
  0
LINE
  8
0
 10
65
 11
65
 20
70
 21
91
  0
LINE
  8
0
 10
65
 11
73
 20
91
 21
91
  0
LINE
  8
0
 10
73
 11
73
 20
91
 21
97.025
  0
LINE
  8
0
 10
73
 11
81
 20
97.025
 21
97.025
  0
LINE
  8
0
 10
81
 11
81
 20
97.025
 21
91
  0
LINE
  8
0
 10
81
 11
89.6
 20
91
 21
91
  0
LINE
  8
0
 10
89.6
 11
89.6
 20
91
 21
87.1
  0
LINE
  8
0
 10
89.6
 11
88.25
 20
87.1
 21
87.1
  0
LINE
  8
0
 10
88.25
 11
88.25
 20
87.1
 21
85.1
  0
LINE
  8
0
 10
88.25
 11
89.6
 20
85.1
 21
85.1
  0
LINE
  8
0
 10
89.6
 11
89.6
 20
85.1
 21
83.05
  0
LINE
  8
0
 10
89.6
 11
92.4
 20
83.05
 21
83.05
  0
LINE
  8
0
 10
92.4
 11
92.4
 20
83.05
 21
85.1
  0
LINE
  8
0
 10
92.4
 11
93.75
 20
85.1
 21
85.1
  0
LINE
  8
0
 10
93.75
 11
93.75
 20
85.1
 21
87.1
  0
LINE
  8
0
 10
93.75
 11
92.4
 20
87.1
 21
87.1
  0
LINE
  8
0
 10
92.4
 11
92.4
 20
87.1
 21
91
  0
LINE
  8
0
 10
92.4
 11
101
 20
91
 21
91
  0
LINE
  8
0
 10
101
 11
101
 20
91
 21
97.025
  0
LINE
  8
0
 10
101
 11
109
 20
97.025
 21
97.025
  0
LINE
  8
0
 10
109
 11
109
 20
97.025
 21
91
  0
LINE
  8
0
 10
109
 11
177
 20
91
 21
91
  0
LINE
  8
0
 10
177
 11
177
 20
91
 21
97.025
  0
LINE
  8
0
 10
177
 11
185
 20
97.025
 21
97.025
  0
LINE
  8
0
 10
185
 11
185
 20
97.025
 21
91
  0
LINE
  8
0
 10
185
 11
193.6
 20
91
 21
91
  0
LINE
  8
0
 10
193.6
 11
193.6
 20
91
 21
87.1
  0
LINE
  8
0
 10
193.6
 11
192.25
 20
87.1
 21
87.1
  0
LINE
  8
0
 10
192.25
 11
192.25
 20
87.1
 21
85.1
  0
LINE
  8
0
 10
192.25
 11
193.6
 20
85.1
 21
85.1
  0
LINE
  8
0
 10
193.6
 11
193.6
 20
85.1
 21
83.05
  0
LINE
  8
0
 10
193.6
 11
196.4
 20
83.05
 21
83.05
  0
LINE
  8
0
 10
196.4
 11
196.4
 20
83.05
 21
85.1
  0
LINE
  8
0
 10
196.4
 11
197.75
 20
85.1
 21
85.1
  0
LINE
  8
0
 10
197.75
 11
197.75
 20
85.1
 21
87.1
  0
LINE
  8
0
 10
197.75
 11
196.4
 20
87.1
 21
87.1
  0
LINE
  8
0
 10
196.4
 11
196.4
 20
87.1
 21
91
  0
LINE
  8
0
 10
196.4
 11
205
 20
91
 21
91
  0
LINE
  8
0
 10
205
 11
205
 20
91
 21
97.025
  0
LINE
  8
0
 10
205
 11
213
 20
97.025
 21
97.025
  0
LINE
  8
0
 10
213
 11
213
 20
97.025
 21
91
  0
LINE
  8
0
 10
213
 11
221
 20
91
 21
91
  0
LINE
  8
0
 10
221
 11
221
 20
91
 21
70
  0
LINE
  8
0
 10
221
 11
227.025
 20
70
 21
70
  0
LINE
  8
0
 10
227.025
 11
227.025
 20
70
 21
62
  0
LINE
  8
0
 10
227.025
 11
221
 20
62
 21
62
  0
LINE
  8
0
 10
221
 11
221
 20
62
 21
53.4
  0
LINE
  8
0
 10
221
 11
217.1
 20
53.4
 21
53.4
  0
LINE
  8
0
 10
217.1
 11
217.1
 20
53.4
 21
54.75
  0
LINE
  8
0
 10
217.1
 11
215.1
 20
54.75
 21
54.75
  0
LINE
  8
0
 10
215.1
 11
215.1
 20
54.75
 21
53.4
  0
LINE
  8
0
 10
215.1
 11
213.05
 20
53.4
 21
53.4
  0
LINE
  8
0
 10
213.05
 11
213.05
 20
53.4
 21
50.6
  0
LINE
  8
0
 10
213.05
 11
215.1
 20
50.6
 21
50.6
  0
LINE
  8
0
 10
215.1
 11
215.1
 20
50.6
 21
49.25
  0
LINE
  8
0
 10
215.1
 11
217.1
 20
49.25
 21
49.25
  0
LINE
  8
0
 10
217.1
 11
217.1
 20
49.25
 21
50.6
  0
LINE
  8
0
 10
217.1
 11
221
 20
50.6
 21
50.6
  0
LINE
  8
0
 10
221
 11
221
 20
50.6
 21
42
  0
LINE
  8
0
 10
221
 11
227.025
 20
42
 21
42
  0
LINE
  8
0
 10
227.025
 11
227.025
 20
42
 21
34
  0
LINE
  8
0
 10
227.025
 11
221
 20
34
 21
34
  0
LINE
  8
0
 10
221
 11
221
 20
34
 21
13
  0
LINE
  8
0
 10
221
 11
213
 20
13
 21
13
  0
LINE
  8
0
 10
213
 11
213
 20
13
 21
6.975
  0
LINE
  8
0
 10
213
 11
205
 20
6.975
 21
6.975
  0
LINE
  8
0
 10
205
 11
205
 20
6.975
 21
13
  0
LINE
  8
0
 10
205
 11
196.4
 20
13
 21
13
  0
LINE
  8
0
 10
196.4
 11
196.4
 20
13
 21
16.9
  0
LINE
  8
0
 10
196.4
 11
197.75
 20
16.9
 21
16.9
  0
LINE
  8
0
 10
197.75
 11
197.75
 20
16.9
 21
18.9
  0
LINE
  8
0
 10
197.75
 11
196.4
 20
18.9
 21
18.9
  0
LINE
  8
0
 10
196.4
 11
196.4
 20
18.9
 21
20.95
  0
LINE
  8
0
 10
196.4
 11
193.6
 20
20.95
 21
20.95
  0
LINE
  8
0
 10
193.6
 11
193.6
 20
20.95
 21
18.9
  0
LINE
  8
0
 10
193.6
 11
192.25
 20
18.9
 21
18.9
  0
LINE
  8
0
 10
192.25
 11
192.25
 20
18.9
 21
16.9
  0
LINE
  8
0
 10
192.25
 11
193.6
 20
16.9
 21
16.9
  0
LINE
  8
0
 10
193.6
 11
193.6
 20
16.9
 21
13
  0
LINE
  8
0
 10
193.6
 11
185
 20
13
 21
13
  0
LINE
  8
0
 10
185
 11
185
 20
13
 21
6.975
  0
LINE
  8
0
 10
185
 11
177
 20
6.975
 21
6.975
  0
LINE
  8
0
 10
177
 11
177
 20
6.975
 21
13
  0
LINE
  8
0
 10
177
 11
109
 20
13
 21
13
  0
LINE
  8
0
 10
109
 11
109
 20
13
 21
6.975
  0
LINE
  8
0
 10
109
 11
101
 20
6.975
 21
6.975
  0
LINE
  8
0
 10
101
 11
101
 20
6.975
 21
13
  0
LINE
  8
0
 10
101
 11
92.4
 20
13
 21
13
  0
LINE
  8
0
 10
92.4
 11
92.4
 20
13
 21
16.9
  0
LINE
  8
0
 10
92.4
 11
93.75
 20
16.9
 21
16.9
  0
LINE
  8
0
 10
93.75
 11
93.75
 20
16.9
 21
18.9
  0
LINE
  8
0
 10
93.75
 11
92.4
 20
18.9
 21
18.9
  0
LINE
  8
0
 10
92.4
 11
92.4
 20
18.9
 21
20.95
  0
LINE
  8
0
 10
92.4
 11
89.6
 20
20.95
 21
20.95
  0
LINE
  8
0
 10
89.6
 11
89.6
 20
20.95
 21
18.9
  0
LINE
  8
0
 10
89.6
 11
88.25
 20
18.9
 21
18.9
  0
LINE
  8
0
 10
88.25
 11
88.25
 20
18.9
 21
16.9
  0
LINE
  8
0
 10
88.25
 11
89.6
 20
16.9
 21
16.9
  0
LINE
  8
0
 10
89.6
 11
89.6
 20
16.9
 21
13
  0
LINE
  8
0
 10
89.6
 11
81
 20
13
 21
13
  0
LINE
  8
0
 10
81
 11
81
 20
13
 21
6.975
  0
LINE
  8
0
 10
81
 11
73
 20
6.975
 21
6.975
  0
LINE
  8
0
 10
73
 11
73
 20
6.975
 21
13
  0
LINE
  8
0
 10
73
 11
65
 20
13
 21
13
  0
LINE
  8
0
 10
65
 11
65
 20
13
 21
34
  0
LINE
  8
0
 10
65
 11
58.975
 20
34
 21
34
  0
LINE
  8
0
 10
109.03
 11
109.03
 20
59.21
 21
60.79
  0
LINE
  8
0
 10
109.03
 11
109.634
 20
60.79
 21
62.249
  0
LINE
  8
0
 10
109.634
 11
110.751
 20
62.249
 21
63.366
  0
LINE
  8
0
 10
110.751
 11
112.21
 20
63.366
 21
63.97
  0
LINE
  8
0
 10
112.21
 11
113.79
 20
63.97
 21
63.97
  0
LINE
  8
0
 10
113.79
 11
115.249
 20
63.97
 21
63.366
  0
LINE
  8
0
 10
115.249
 11
116.366
 20
63.366
 21
62.249
  0
LINE
  8
0
 10
116.366
 11
116.97
 20
62.249
 21
60.79
  0
LINE
  8
0
 10
116.97
 11
116.97
 20
60.79
 21
59.21
  0
LINE
  8
0
 10
116.97
 11
116.366
 20
59.21
 21
57.751
  0
LINE
  8
0
 10
116.366
 11
115.249
 20
57.751
 21
56.634
  0
LINE
  8
0
 10
115.249
 11
113.79
 20
56.634
 21
56.03
  0
LINE
  8
0
 10
113.79
 11
112.21
 20
56.03
 21
56.03
  0
LINE
  8
0
 10
112.21
 11
110.751
 20
56.03
 21
56.634
  0
LINE
  8
0
 10
110.751
 11
109.634
 20
56.634
 21
57.751
  0
LINE
  8
0
 10
109.634
 11
109.03
 20
57.751
 21
59.21
  0
LINE
  8
0
 10
125.04
 11
125.04
 20
42.36
 21
45.64
  0
LINE
  8
0
 10
125.04
 11
127.36
 20
45.64
 21
47.96
  0
LINE
  8
0
 10
127.36
 11
130.64
 20
47.96
 21
47.96
  0
LINE
  8
0
 10
130.64
 11
132.96
 20
47.96
 21
45.64
  0
LINE
  8
0
 10
132.96
 11
132.96
 20
45.64
 21
42.36
  0
LINE
  8
0
 10
132.96
 11
130.64
 20
42.36
 21
40.04
  0
LINE
  8
0
 10
130.64
 11
127.36
 20
40.04
 21
40.04
  0
LINE
  8
0
 10
127.36
 11
125.04
 20
40.04
 21
42.36
  0
LINE
  8
0
 10
125.04
 11
125.04
 20
59.212
 21
60.788
  0
LINE
  8
0
 10
125.04
 11
125.643
 20
60.788
 21
62.243
  0
LINE
  8
0
 10
125.643
 11
126.757
 20
62.243
 21
63.357
  0
LINE
  8
0
 10
126.757
 11
128.212
 20
63.357
 21
63.96
  0
LINE
  8
0
 10
128.212
 11
129.788
 20
63.96
 21
63.96
  0
LINE
  8
0
 10
129.788
 11
131.243
 20
63.96
 21
63.357
  0
LINE
  8
0
 10
131.243
 11
132.357
 20
63.357
 21
62.243
  0
LINE
  8
0
 10
132.357
 11
132.96
 20
62.243
 21
60.788
  0
LINE
  8
0
 10
132.96
 11
132.96
 20
60.788
 21
59.212
  0
LINE
  8
0
 10
132.96
 11
132.357
 20
59.212
 21
57.757
  0
LINE
  8
0
 10
132.357
 11
131.243
 20
57.757
 21
56.643
  0
LINE
  8
0
 10
131.243
 11
129.788
 20
56.643
 21
56.04
  0
LINE
  8
0
 10
129.788
 11
128.212
 20
56.04
 21
56.04
  0
LINE
  8
0
 10
128.212
 11
126.757
 20
56.04
 21
56.643
  0
LINE
  8
0
 10
126.757
 11
125.643
 20
56.643
 21
57.757
  0
LINE
  8
0
 10
125.643
 11
125.04
 20
57.757
 21
59.212
  0
LINE
  8
0
 10
141.05
 11
141.05
 20
42.717
 21
45.283
  0
LINE
  8
0
 10
141.05
 11
142.559
 20
45.283
 21
47.36
  0
LINE
  8
0
 10
142.559
 11
145
 20
47.36
 21
48.153
  0
LINE
  8
0
 10
145
 11
147.441
 20
48.153
 21
47.36
  0
LINE
  8
0
 10
147.441
 11
148.95
 20
47.36
 21
45.283
  0
LINE
  8
0
 10
148.95
 11
148.95
 20
45.283
 21
42.717
  0
LINE
  8
0
 10
148.95
 11
147.441
 20
42.717
 21
40.64
  0
LINE
  8
0
 10
147.441
 11
145
 20
40.64
 21
39.847
  0
LINE
  8
0
 10
145
 11
142.559
 20
39.847
 21
40.64
  0
LINE
  8
0
 10
142.559
 11
141.05
 20
40.64
 21
42.717
  0
LINE
  8
0
 10
141.05
 11
141.05
 20
59.214
 21
60.786
  0
LINE
  8
0
 10
141.05
 11
141.651
 20
60.786
 21
62.237
  0
LINE
  8
0
 10
141.651
 11
142.763
 20
62.237
 21
63.349
  0
LINE
  8
0
 10
142.763
 11
144.214
 20
63.349
 21
63.95
  0
LINE
  8
0
 10
144.214
 11
145.786
 20
63.95
 21
63.95
  0
LINE
  8
0
 10
145.786
 11
147.237
 20
63.95
 21
63.349
  0
LINE
  8
0
 10
147.237
 11
148.349
 20
63.349
 21
62.237
  0
LINE
  8
0
 10
148.349
 11
148.95
 20
62.237
 21
60.786
  0
LINE
  8
0
 10
148.95
 11
148.95
 20
60.786
 21
59.214
  0
LINE
  8
0
 10
148.95
 11
148.349
 20
59.214
 21
57.763
  0
LINE
  8
0
 10
148.349
 11
147.237
 20
57.763
 21
56.651
  0
LINE
  8
0
 10
147.237
 11
145.786
 20
56.651
 21
56.05
  0
LINE
  8
0
 10
145.786
 11
144.214
 20
56.05
 21
56.05
  0
LINE
  8
0
 10
144.214
 11
142.763
 20
56.05
 21
56.651
  0
LINE
  8
0
 10
142.763
 11
141.651
 20
56.651
 21
57.763
  0
LINE
  8
0
 10
141.651
 11
141.05
 20
57.763
 21
59.214
  0
LINE
  8
0
 10
157.06
 11
157.06
 20
42.944
 21
45.056
  0
LINE
  8
0
 10
157.06
 11
158.116
 20
45.056
 21
46.884
  0
LINE
  8
0
 10
158.116
 11
159.944
 20
46.884
 21
47.94
  0
LINE
  8
0
 10
159.944
 11
162.056
 20
47.94
 21
47.94
  0
LINE
  8
0
 10
162.056
 11
163.884
 20
47.94
 21
46.884
  0
LINE
  8
0
 10
163.884
 11
164.94
 20
46.884
 21
45.056
  0
LINE
  8
0
 10
164.94
 11
164.94
 20
45.056
 21
42.944
  0
LINE
  8
0
 10
164.94
 11
163.884
 20
42.944
 21
41.116
  0
LINE
  8
0
 10
163.884
 11
162.056
 20
41.116
 21
40.06
  0
LINE
  8
0
 10
162.056
 11
159.944
 20
40.06
 21
40.06
  0
LINE
  8
0
 10
159.944
 11
158.116
 20
40.06
 21
41.116
  0
LINE
  8
0
 10
158.116
 11
157.06
 20
41.116
 21
42.944
  0
LINE
  8
0
 10
157.06
 11
157.06
 20
59.216
 21
60.784
  0
LINE
  8
0
 10
157.06
 11
157.66
 20
60.784
 21
62.232
  0
LINE
  8
0
 10
157.66
 11
158.768
 20
62.232
 21
63.34
  0
LINE
  8
0
 10
158.768
 11
160.216
 20
63.34
 21
63.94
  0
LINE
  8
0
 10
160.216
 11
161.784
 20
63.94
 21
63.94
  0
LINE
  8
0
 10
161.784
 11
163.232
 20
63.94
 21
63.34
  0
LINE
  8
0
 10
163.232
 11
164.34
 20
63.34
 21
62.232
  0
LINE
  8
0
 10
164.34
 11
164.94
 20
62.232
 21
60.784
  0
LINE
  8
0
 10
164.94
 11
164.94
 20
60.784
 21
59.216
  0
LINE
  8
0
 10
164.94
 11
164.34
 20
59.216
 21
57.768
  0
LINE
  8
0
 10
164.34
 11
163.232
 20
57.768
 21
56.66
  0
LINE
  8
0
 10
163.232
 11
161.784
 20
56.66
 21
56.06
  0
LINE
  8
0
 10
161.784
 11
160.216
 20
56.06
 21
56.06
  0
LINE
  8
0
 10
160.216
 11
158.768
 20
56.06
 21
56.66
  0
LINE
  8
0
 10
158.768
 11
157.66
 20
56.66
 21
57.768
  0
LINE
  8
0
 10
157.66
 11
157.06
 20
57.768
 21
59.216
  0
LINE
  8
0
 10
173.07
 11
173.07
 20
43.103
 21
44.897
  0
LINE
  8
0
 10
173.07
 11
173.848
 20
44.897
 21
46.513
  0
LINE
  8
0
 10
173.848
 11
175.251
 20
46.513
 21
47.632
  0
LINE
  8
0
 10
175.251
 11
177
 20
47.632
 21
48.031
  0
LINE
  8
0
 10
177
 11
178.749
 20
48.031
 21
47.632
  0
LINE
  8
0
 10
178.749
 11
180.152
 20
47.632
 21
46.513
  0
LINE
  8
0
 10
180.152
 11
180.93
 20
46.513
 21
44.897
  0
LINE
  8
0
 10
180.93
 11
180.93
 20
44.897
 21
43.103
  0
LINE
  8
0
 10
180.93
 11
180.152
 20
43.103
 21
41.487
  0
LINE
  8
0
 10
180.152
 11
178.749
 20
41.487
 21
40.368
  0
LINE
  8
0
 10
178.749
 11
177
 20
40.368
 21
39.969
  0
LINE
  8
0
 10
177
 11
175.251
 20
39.969
 21
40.368
  0
LINE
  8
0
 10
175.251
 11
173.848
 20
40.368
 21
41.487
  0
LINE
  8
0
 10
173.848
 11
173.07
 20
41.487
 21
43.103
  0
LINE
  8
0
 10
173.07
 11
173.07
 20
59.218
 21
60.782
  0
LINE
  8
0
 10
173.07
 11
173.668
 20
60.782
 21
62.226
  0
LINE
  8
0
 10
173.668
 11
174.774
 20
62.226
 21
63.332
  0
LINE
  8
0
 10
174.774
 11
176.218
 20
63.332
 21
63.93
  0
LINE
  8
0
 10
176.218
 11
177.782
 20
63.93
 21
63.93
  0
LINE
  8
0
 10
177.782
 11
179.226
 20
63.93
 21
63.332
  0
LINE
  8
0
 10
179.226
 11
180.332
 20
63.332
 21
62.226
  0
LINE
  8
0
 10
180.332
 11
180.93
 20
62.226
 21
60.782
  0
LINE
  8
0
 10
180.93
 11
180.93
 20
60.782
 21
59.218
  0
LINE
  8
0
 10
180.93
 11
180.332
 20
59.218
 21
57.774
  0
LINE
  8
0
 10
180.332
 11
179.226
 20
57.774
 21
56.668
  0
LINE
  8
0
 10
179.226
 11
177.782
 20
56.668
 21
56.07
  0
LINE
  8
0
 10
177.782
 11
176.218
 20
56.07
 21
56.07
  0
LINE
  8
0
 10
176.218
 11
174.774
 20
56.07
 21
56.668
  0
LINE
  8
0
 10
174.774
 11
173.668
 20
56.668
 21
57.774
  0
LINE
  8
0
 10
173.668
 11
173.07
 20
57.774
 21
59.218
  0
LINE
  8
0
 10
177
 11
177
 20
-84.025
 21
-77.975
  0
LINE
  8
0
 10
177
 11
185
 20
-77.975
 21
-77.975
  0
LINE
  8
0
 10
185
 11
185
 20
-77.975
 21
-84.025
  0
LINE
  8
0
 10
185
 11
177
 20
-84.025
 21
-84.025
  0
LINE
  8
0
 10
177
 11
177
 20
-26.025
 21
-19.975
  0
LINE
  8
0
 10
177
 11
185
 20
-19.975
 21
-19.975
  0
LINE
  8
0
 10
185
 11
185
 20
-19.975
 21
-26.025
  0
LINE
  8
0
 10
185
 11
177
 20
-26.025
 21
-26.025
  0
LINE
  8
0
 10
189.08
 11
189.08
 20
43.22
 21
44.78
  0
LINE
  8
0
 10
189.08
 11
189.677
 20
44.78
 21
46.221
  0
LINE
  8
0
 10
189.677
 11
190.779
 20
46.221
 21
47.323
  0
LINE
  8
0
 10
190.779
 11
192.22
 20
47.323
 21
47.92
  0
LINE
  8
0
 10
192.22
 11
193.78
 20
47.92
 21
47.92
  0
LINE
  8
0
 10
193.78
 11
195.221
 20
47.92
 21
47.323
  0
LINE
  8
0
 10
195.221
 11
196.323
 20
47.323
 21
46.221
  0
LINE
  8
0
 10
196.323
 11
196.92
 20
46.221
 21
44.78
  0
LINE
  8
0
 10
196.92
 11
196.92
 20
44.78
 21
43.22
  0
LINE
  8
0
 10
196.92
 11
196.323
 20
43.22
 21
41.779
  0
LINE
  8
0
 10
196.323
 11
195.221
 20
41.779
 21
40.677
  0
LINE
  8
0
 10
195.221
 11
193.78
 20
40.677
 21
40.08
  0
LINE
  8
0
 10
193.78
 11
192.22
 20
40.08
 21
40.08
  0
LINE
  8
0
 10
192.22
 11
190.779
 20
40.08
 21
40.677
  0
LINE
  8
0
 10
190.779
 11
189.677
 20
40.677
 21
41.779
  0
LINE
  8
0
 10
189.677
 11
189.08
 20
41.779
 21
43.22
  0
LINE
  8
0
 10
189.08
 11
189.08
 20
59.22
 21
60.78
  0
LINE
  8
0
 10
189.08
 11
189.677
 20
60.78
 21
62.221
  0
LINE
  8
0
 10
189.677
 11
190.779
 20
62.221
 21
63.323
  0
LINE
  8
0
 10
190.779
 11
192.22
 20
63.323
 21
63.92
  0
LINE
  8
0
 10
192.22
 11
193.78
 20
63.92
 21
63.92
  0
LINE
  8
0
 10
193.78
 11
195.221
 20
63.92
 21
63.323
  0
LINE
  8
0
 10
195.221
 11
196.323
 20
63.323
 21
62.221
  0
LINE
  8
0
 10
196.323
 11
196.92
 20
62.221
 21
60.78
  0
LINE
  8
0
 10
196.92
 11
196.92
 20
60.78
 21
59.22
  0
LINE
  8
0
 10
196.92
 11
196.323
 20
59.22
 21
57.779
  0
LINE
  8
0
 10
196.323
 11
195.221
 20
57.779
 21
56.677
  0
LINE
  8
0
 10
195.221
 11
193.78
 20
56.677
 21
56.08
  0
LINE
  8
0
 10
193.78
 11
192.22
 20
56.08
 21
56.08
  0
LINE
  8
0
 10
192.22
 11
190.779
 20
56.08
 21
56.677
  0
LINE
  8
0
 10
190.779
 11
189.677
 20
56.677
 21
57.779
  0
LINE
  8
0
 10
189.677
 11
189.08
 20
57.779
 21
59.22
  0
LINE
  8
0
 10
193.6
 11
193.6
 20
-81.58
 21
-80.42
  0
LINE
  8
0
 10
193.6
 11
194.42
 20
-80.42
 21
-79.6
  0
LINE
  8
0
 10
194.42
 11
195.58
 20
-79.6
 21
-79.6
  0
LINE
  8
0
 10
195.58
 11
196.4
 20
-79.6
 21
-80.42
  0
LINE
  8
0
 10
196.4
 11
196.4
 20
-80.42
 21
-81.58
  0
LINE
  8
0
 10
196.4
 11
195.58
 20
-81.58
 21
-82.4
  0
LINE
  8
0
 10
195.58
 11
194.42
 20
-82.4
 21
-82.4
  0
LINE
  8
0
 10
194.42
 11
193.6
 20
-82.4
 21
-81.58
  0
LINE
  8
0
 10
193.6
 11
193.6
 20
-23.58
 21
-22.42
  0
LINE
  8
0
 10
193.6
 11
194.42
 20
-22.42
 21
-21.6
  0
LINE
  8
0
 10
194.42
 11
195.58
 20
-21.6
 21
-21.6
  0
LINE
  8
0
 10
195.58
 11
196.4
 20
-21.6
 21
-22.42
  0
LINE
  8
0
 10
196.4
 11
196.4
 20
-22.42
 21
-23.58
  0
LINE
  8
0
 10
196.4
 11
195.58
 20
-23.58
 21
-24.4
  0
LINE
  8
0
 10
195.58
 11
194.42
 20
-24.4
 21
-24.4
  0
LINE
  8
0
 10
194.42
 11
193.6
 20
-24.4
 21
-23.58
  0
LINE
  8
0
 10
205
 11
205
 20
-84.025
 21
-77.975
  0
LINE
  8
0
 10
205
 11
213
 20
-77.975
 21
-77.975
  0
LINE
  8
0
 10
213
 11
213
 20
-77.975
 21
-84.025
  0
LINE
  8
0
 10
213
 11
205
 20
-84.025
 21
-84.025
  0
LINE
  8
0
 10
205
 11
205
 20
-26.025
 21
-19.975
  0
LINE
  8
0
 10
205
 11
213
 20
-19.975
 21
-19.975
  0
LINE
  8
0
 10
213
 11
213
 20
-19.975
 21
-26.025
  0
LINE
  8
0
 10
213
 11
205
 20
-26.025
 21
-26.025
  0
ENDSEC
  0
SECTION
  2
OBJECTS
  0
DICTIONARY
  0
ENDSEC
  0
EOF
