  0
SECTION
  2
BLOCKS
  0
ENDSEC
  0
SECTION
  2
ENTITIES
  0
LINE
  8
0
 10
-78.01
 11
-78.01
 20
-26.01
 21
36.01
  0
LINE
  8
0
 10
-78.01
 11
-25.99
 20
36.01
 21
36.01
  0
LINE
  8
0
 10
-25.99
 11
-25.99
 20
36.01
 21
17.99
  0
LINE
  8
0
 10
-25.99
 11
-19.985
 20
17.99
 21
17.99
  0
LINE
  8
0
 10
-19.985
 11
-19.985
 20
17.99
 21
10.01
  0
LINE
  8
0
 10
-19.985
 11
-25.99
 20
10.01
 21
10.01
  0
LINE
  8
0
 10
-25.99
 11
-25.99
 20
10.01
 21
1.39
  0
LINE
  8
0
 10
-25.99
 11
-29.91
 20
1.39
 21
1.39
  0
LINE
  8
0
 10
-29.91
 11
-29.91
 20
1.39
 21
2.74
  0
LINE
  8
0
 10
-29.91
 11
-31.89
 20
2.74
 21
2.74
  0
LINE
  8
0
 10
-31.89
 11
-31.89
 20
2.74
 21
1.39
  0
LINE
  8
0
 10
-31.89
 11
-33.95
 20
1.39
 21
1.39
  0
LINE
  8
0
 10
-33.95
 11
-33.95
 20
1.39
 21
-1.39
  0
LINE
  8
0
 10
-33.95
 11
-31.89
 20
-1.39
 21
-1.39
  0
LINE
  8
0
 10
-31.89
 11
-31.89
 20
-1.39
 21
-2.74
  0
LINE
  8
0
 10
-31.89
 11
-29.91
 20
-2.74
 21
-2.74
  0
LINE
  8
0
 10
-29.91
 11
-29.91
 20
-2.74
 21
-1.39
  0
LINE
  8
0
 10
-29.91
 11
-25.99
 20
-1.39
 21
-1.39
  0
LINE
  8
0
 10
-25.99
 11
-25.99
 20
-1.39
 21
-10.01
  0
LINE
  8
0
 10
-25.99
 11
-19.985
 20
-10.01
 21
-10.01
  0
LINE
  8
0
 10
-19.985
 11
-19.985
 20
-10.01
 21
-17.99
  0
LINE
  8
0
 10
-19.985
 11
-25.99
 20
-17.99
 21
-17.99
  0
LINE
  8
0
 10
-25.99
 11
-25.99
 20
-17.99
 21
-26.01
  0
LINE
  8
0
 10
-25.99
 11
-78.01
 20
-26.01
 21
-26.01
  0
LINE
  8
0
 10
-69.99
 11
-69.99
 20
25.985
 21
32.015
  0
LINE
  8
0
 10
-69.99
 11
-62.01
 20
32.015
 21
32.015
  0
LINE
  8
0
 10
-62.01
 11
-62.01
 20
32.015
 21
25.985
  0
LINE
  8
0
 10
-62.01
 11
-69.99
 20
25.985
 21
25.985
  0
LINE
  8
0
 10
-53.4
 11
-53.4
 20
28.42
 21
29.58
  0
LINE
  8
0
 10
-53.4
 11
-52.58
 20
29.58
 21
30.4
  0
LINE
  8
0
 10
-52.58
 11
-51.42
 20
30.4
 21
30.4
  0
LINE
  8
0
 10
-51.42
 11
-50.6
 20
30.4
 21
29.58
  0
LINE
  8
0
 10
-50.6
 11
-50.6
 20
29.58
 21
28.42
  0
LINE
  8
0
 10
-50.6
 11
-51.42
 20
28.42
 21
27.6
  0
LINE
  8
0
 10
-51.42
 11
-52.58
 20
27.6
 21
27.6
  0
LINE
  8
0
 10
-52.58
 11
-53.4
 20
27.6
 21
28.42
  0
LINE
  8
0
 10
-41.99
 11
-41.99
 20
25.985
 21
32.015
  0
LINE
  8
0
 10
-41.99
 11
-34.01
 20
32.015
 21
32.015
  0
LINE
  8
0
 10
-34.01
 11
-34.01
 20
32.015
 21
25.985
  0
LINE
  8
0
 10
-34.01
 11
-41.99
 20
25.985
 21
25.985
  0
LINE
  8
0
 10
25.99
 11
25.99
 20
-26.01
 21
36.01
  0
LINE
  8
0
 10
25.99
 11
78.01
 20
36.01
 21
36.01
  0
LINE
  8
0
 10
78.01
 11
78.01
 20
36.01
 21
17.99
  0
LINE
  8
0
 10
78.01
 11
84.015
 20
17.99
 21
17.99
  0
LINE
  8
0
 10
84.015
 11
84.015
 20
17.99
 21
10.01
  0
LINE
  8
0
 10
84.015
 11
78.01
 20
10.01
 21
10.01
  0
LINE
  8
0
 10
78.01
 11
78.01
 20
10.01
 21
1.39
  0
LINE
  8
0
 10
78.01
 11
74.09
 20
1.39
 21
1.39
  0
LINE
  8
0
 10
74.09
 11
74.09
 20
1.39
 21
2.74
  0
LINE
  8
0
 10
74.09
 11
72.11
 20
2.74
 21
2.74
  0
LINE
  8
0
 10
72.11
 11
72.11
 20
2.74
 21
1.39
  0
LINE
  8
0
 10
72.11
 11
70.05
 20
1.39
 21
1.39
  0
LINE
  8
0
 10
70.05
 11
70.05
 20
1.39
 21
-1.39
  0
LINE
  8
0
 10
70.05
 11
72.11
 20
-1.39
 21
-1.39
  0
LINE
  8
0
 10
72.11
 11
72.11
 20
-1.39
 21
-2.74
  0
LINE
  8
0
 10
72.11
 11
74.09
 20
-2.74
 21
-2.74
  0
LINE
  8
0
 10
74.09
 11
74.09
 20
-2.74
 21
-1.39
  0
LINE
  8
0
 10
74.09
 11
78.01
 20
-1.39
 21
-1.39
  0
LINE
  8
0
 10
78.01
 11
78.01
 20
-1.39
 21
-10.01
  0
LINE
  8
0
 10
78.01
 11
84.015
 20
-10.01
 21
-10.01
  0
LINE
  8
0
 10
84.015
 11
84.015
 20
-10.01
 21
-17.99
  0
LINE
  8
0
 10
84.015
 11
78.01
 20
-17.99
 21
-17.99
  0
LINE
  8
0
 10
78.01
 11
78.01
 20
-17.99
 21
-26.01
  0
LINE
  8
0
 10
78.01
 11
25.99
 20
-26.01
 21
-26.01
  0
LINE
  8
0
 10
34.01
 11
34.01
 20
25.985
 21
32.015
  0
LINE
  8
0
 10
34.01
 11
41.99
 20
32.015
 21
32.015
  0
LINE
  8
0
 10
41.99
 11
41.99
 20
32.015
 21
25.985
  0
LINE
  8
0
 10
41.99
 11
34.01
 20
25.985
 21
25.985
  0
LINE
  8
0
 10
50.6
 11
50.6
 20
28.42
 21
29.58
  0
LINE
  8
0
 10
50.6
 11
51.42
 20
29.58
 21
30.4
  0
LINE
  8
0
 10
51.42
 11
52.58
 20
30.4
 21
30.4
  0
LINE
  8
0
 10
52.58
 11
53.4
 20
30.4
 21
29.58
  0
LINE
  8
0
 10
53.4
 11
53.4
 20
29.58
 21
28.42
  0
LINE
  8
0
 10
53.4
 11
52.58
 20
28.42
 21
27.6
  0
LINE
  8
0
 10
52.58
 11
51.42
 20
27.6
 21
27.6
  0
LINE
  8
0
 10
51.42
 11
50.6
 20
27.6
 21
28.42
  0
LINE
  8
0
 10
62.01
 11
62.01
 20
25.985
 21
32.015
  0
LINE
  8
0
 10
62.01
 11
69.99
 20
32.015
 21
32.015
  0
LINE
  8
0
 10
69.99
 11
69.99
 20
32.015
 21
25.985
  0
LINE
  8
0
 10
69.99
 11
62.01
 20
25.985
 21
25.985
  0
ENDSEC
  0
SECTION
  2
OBJECTS
  0
DICTIONARY
  0
ENDSEC
  0
EOF
