  0
SECTION
  2
BLOCKS
  0
ENDSEC
  0
SECTION
  2
ENTITIES
  0
LINE
  8
0
 10
-78.005
 11
-78.005
 20
-26.005
 21
36.005
  0
LINE
  8
0
 10
-78.005
 11
-25.995
 20
36.005
 21
36.005
  0
LINE
  8
0
 10
-25.995
 11
-25.995
 20
36.005
 21
17.995
  0
LINE
  8
0
 10
-25.995
 11
-19.98
 20
17.995
 21
17.995
  0
LINE
  8
0
 10
-19.98
 11
-19.98
 20
17.995
 21
10.005
  0
LINE
  8
0
 10
-19.98
 11
-25.995
 20
10.005
 21
10.005
  0
LINE
  8
0
 10
-25.995
 11
-25.995
 20
10.005
 21
1.395
  0
LINE
  8
0
 10
-25.995
 11
-29.905
 20
1.395
 21
1.395
  0
LINE
  8
0
 10
-29.905
 11
-29.905
 20
1.395
 21
2.745
  0
LINE
  8
0
 10
-29.905
 11
-31.895
 20
2.745
 21
2.745
  0
LINE
  8
0
 10
-31.895
 11
-31.895
 20
2.745
 21
1.395
  0
LINE
  8
0
 10
-31.895
 11
-33.95
 20
1.395
 21
1.395
  0
LINE
  8
0
 10
-33.95
 11
-33.95
 20
1.395
 21
-1.395
  0
LINE
  8
0
 10
-33.95
 11
-31.895
 20
-1.395
 21
-1.395
  0
LINE
  8
0
 10
-31.895
 11
-31.895
 20
-1.395
 21
-2.745
  0
LINE
  8
0
 10
-31.895
 11
-29.905
 20
-2.745
 21
-2.745
  0
LINE
  8
0
 10
-29.905
 11
-29.905
 20
-2.745
 21
-1.395
  0
LINE
  8
0
 10
-29.905
 11
-25.995
 20
-1.395
 21
-1.395
  0
LINE
  8
0
 10
-25.995
 11
-25.995
 20
-1.395
 21
-10.005
  0
LINE
  8
0
 10
-25.995
 11
-19.98
 20
-10.005
 21
-10.005
  0
LINE
  8
0
 10
-19.98
 11
-19.98
 20
-10.005
 21
-17.995
  0
LINE
  8
0
 10
-19.98
 11
-25.995
 20
-17.995
 21
-17.995
  0
LINE
  8
0
 10
-25.995
 11
-25.995
 20
-17.995
 21
-26.005
  0
LINE
  8
0
 10
-25.995
 11
-78.005
 20
-26.005
 21
-26.005
  0
LINE
  8
0
 10
-69.995
 11
-69.995
 20
25.98
 21
32.02
  0
LINE
  8
0
 10
-69.995
 11
-62.005
 20
32.02
 21
32.02
  0
LINE
  8
0
 10
-62.005
 11
-62.005
 20
32.02
 21
25.98
  0
LINE
  8
0
 10
-62.005
 11
-69.995
 20
25.98
 21
25.98
  0
LINE
  8
0
 10
-53.4
 11
-53.4
 20
28.42
 21
29.58
  0
LINE
  8
0
 10
-53.4
 11
-52.58
 20
29.58
 21
30.4
  0
LINE
  8
0
 10
-52.58
 11
-51.42
 20
30.4
 21
30.4
  0
LINE
  8
0
 10
-51.42
 11
-50.6
 20
30.4
 21
29.58
  0
LINE
  8
0
 10
-50.6
 11
-50.6
 20
29.58
 21
28.42
  0
LINE
  8
0
 10
-50.6
 11
-51.42
 20
28.42
 21
27.6
  0
LINE
  8
0
 10
-51.42
 11
-52.58
 20
27.6
 21
27.6
  0
LINE
  8
0
 10
-52.58
 11
-53.4
 20
27.6
 21
28.42
  0
LINE
  8
0
 10
-41.995
 11
-41.995
 20
25.98
 21
32.02
  0
LINE
  8
0
 10
-41.995
 11
-34.005
 20
32.02
 21
32.02
  0
LINE
  8
0
 10
-34.005
 11
-34.005
 20
32.02
 21
25.98
  0
LINE
  8
0
 10
-34.005
 11
-41.995
 20
25.98
 21
25.98
  0
LINE
  8
0
 10
25.995
 11
25.995
 20
-26.005
 21
36.005
  0
LINE
  8
0
 10
25.995
 11
78.005
 20
36.005
 21
36.005
  0
LINE
  8
0
 10
78.005
 11
78.005
 20
36.005
 21
17.995
  0
LINE
  8
0
 10
78.005
 11
84.02
 20
17.995
 21
17.995
  0
LINE
  8
0
 10
84.02
 11
84.02
 20
17.995
 21
10.005
  0
LINE
  8
0
 10
84.02
 11
78.005
 20
10.005
 21
10.005
  0
LINE
  8
0
 10
78.005
 11
78.005
 20
10.005
 21
1.395
  0
LINE
  8
0
 10
78.005
 11
74.095
 20
1.395
 21
1.395
  0
LINE
  8
0
 10
74.095
 11
74.095
 20
1.395
 21
2.745
  0
LINE
  8
0
 10
74.095
 11
72.105
 20
2.745
 21
2.745
  0
LINE
  8
0
 10
72.105
 11
72.105
 20
2.745
 21
1.395
  0
LINE
  8
0
 10
72.105
 11
70.05
 20
1.395
 21
1.395
  0
LINE
  8
0
 10
70.05
 11
70.05
 20
1.395
 21
-1.395
  0
LINE
  8
0
 10
70.05
 11
72.105
 20
-1.395
 21
-1.395
  0
LINE
  8
0
 10
72.105
 11
72.105
 20
-1.395
 21
-2.745
  0
LINE
  8
0
 10
72.105
 11
74.095
 20
-2.745
 21
-2.745
  0
LINE
  8
0
 10
74.095
 11
74.095
 20
-2.745
 21
-1.395
  0
LINE
  8
0
 10
74.095
 11
78.005
 20
-1.395
 21
-1.395
  0
LINE
  8
0
 10
78.005
 11
78.005
 20
-1.395
 21
-10.005
  0
LINE
  8
0
 10
78.005
 11
84.02
 20
-10.005
 21
-10.005
  0
LINE
  8
0
 10
84.02
 11
84.02
 20
-10.005
 21
-17.995
  0
LINE
  8
0
 10
84.02
 11
78.005
 20
-17.995
 21
-17.995
  0
LINE
  8
0
 10
78.005
 11
78.005
 20
-17.995
 21
-26.005
  0
LINE
  8
0
 10
78.005
 11
25.995
 20
-26.005
 21
-26.005
  0
LINE
  8
0
 10
34.005
 11
34.005
 20
25.98
 21
32.02
  0
LINE
  8
0
 10
34.005
 11
41.995
 20
32.02
 21
32.02
  0
LINE
  8
0
 10
41.995
 11
41.995
 20
32.02
 21
25.98
  0
LINE
  8
0
 10
41.995
 11
34.005
 20
25.98
 21
25.98
  0
LINE
  8
0
 10
50.6
 11
50.6
 20
28.42
 21
29.58
  0
LINE
  8
0
 10
50.6
 11
51.42
 20
29.58
 21
30.4
  0
LINE
  8
0
 10
51.42
 11
52.58
 20
30.4
 21
30.4
  0
LINE
  8
0
 10
52.58
 11
53.4
 20
30.4
 21
29.58
  0
LINE
  8
0
 10
53.4
 11
53.4
 20
29.58
 21
28.42
  0
LINE
  8
0
 10
53.4
 11
52.58
 20
28.42
 21
27.6
  0
LINE
  8
0
 10
52.58
 11
51.42
 20
27.6
 21
27.6
  0
LINE
  8
0
 10
51.42
 11
50.6
 20
27.6
 21
28.42
  0
LINE
  8
0
 10
62.005
 11
62.005
 20
25.98
 21
32.02
  0
LINE
  8
0
 10
62.005
 11
69.995
 20
32.02
 21
32.02
  0
LINE
  8
0
 10
69.995
 11
69.995
 20
32.02
 21
25.98
  0
LINE
  8
0
 10
69.995
 11
62.005
 20
25.98
 21
25.98
  0
ENDSEC
  0
SECTION
  2
OBJECTS
  0
DICTIONARY
  0
ENDSEC
  0
EOF
