  0
SECTION
  2
BLOCKS
  0
ENDSEC
  0
SECTION
  2
ENTITIES
  0
LINE
  8
0
 10
-78
 11
-78
 20
-26
 21
36.5
  0
LINE
  8
0
 10
-78
 11
-26
 20
36.5
 21
36.5
  0
LINE
  8
0
 10
-26
 11
-26
 20
36.5
 21
17.99
  0
LINE
  8
0
 10
-26
 11
-19.475
 20
17.99
 21
17.99
  0
LINE
  8
0
 10
-19.475
 11
-19.475
 20
17.99
 21
10.01
  0
LINE
  8
0
 10
-19.475
 11
-26
 20
10.01
 21
10.01
  0
LINE
  8
0
 10
-26
 11
-26
 20
10.01
 21
1.39
  0
LINE
  8
0
 10
-26
 11
-30.23
 20
1.39
 21
1.39
  0
LINE
  8
0
 10
-30.23
 11
-30.23
 20
1.39
 21
2.74
  0
LINE
  8
0
 10
-30.23
 11
-32.22
 20
2.74
 21
2.74
  0
LINE
  8
0
 10
-32.22
 11
-32.22
 20
2.74
 21
1.39
  0
LINE
  8
0
 10
-32.22
 11
-34.45
 20
1.39
 21
1.39
  0
LINE
  8
0
 10
-34.45
 11
-34.45
 20
1.39
 21
-1.39
  0
LINE
  8
0
 10
-34.45
 11
-32.22
 20
-1.39
 21
-1.39
  0
LINE
  8
0
 10
-32.22
 11
-32.22
 20
-1.39
 21
-2.74
  0
LINE
  8
0
 10
-32.22
 11
-30.23
 20
-2.74
 21
-2.74
  0
LINE
  8
0
 10
-30.23
 11
-30.23
 20
-2.74
 21
-1.39
  0
LINE
  8
0
 10
-30.23
 11
-26
 20
-1.39
 21
-1.39
  0
LINE
  8
0
 10
-26
 11
-26
 20
-1.39
 21
-10.01
  0
LINE
  8
0
 10
-26
 11
-19.475
 20
-10.01
 21
-10.01
  0
LINE
  8
0
 10
-19.475
 11
-19.475
 20
-10.01
 21
-17.99
  0
LINE
  8
0
 10
-19.475
 11
-26
 20
-17.99
 21
-17.99
  0
LINE
  8
0
 10
-26
 11
-26
 20
-17.99
 21
-26
  0
LINE
  8
0
 10
-26
 11
-78
 20
-26
 21
-26
  0
LINE
  8
0
 10
-69.99
 11
-69.99
 20
25.975
 21
32.525
  0
LINE
  8
0
 10
-69.99
 11
-62.01
 20
32.525
 21
32.525
  0
LINE
  8
0
 10
-62.01
 11
-62.01
 20
32.525
 21
25.975
  0
LINE
  8
0
 10
-62.01
 11
-69.99
 20
25.975
 21
25.975
  0
LINE
  8
0
 10
-53.4
 11
-53.4
 20
28.67
 21
29.83
  0
LINE
  8
0
 10
-53.4
 11
-52.58
 20
29.83
 21
30.65
  0
LINE
  8
0
 10
-52.58
 11
-51.42
 20
30.65
 21
30.65
  0
LINE
  8
0
 10
-51.42
 11
-50.6
 20
30.65
 21
29.83
  0
LINE
  8
0
 10
-50.6
 11
-50.6
 20
29.83
 21
28.67
  0
LINE
  8
0
 10
-50.6
 11
-51.42
 20
28.67
 21
27.85
  0
LINE
  8
0
 10
-51.42
 11
-52.58
 20
27.85
 21
27.85
  0
LINE
  8
0
 10
-52.58
 11
-53.4
 20
27.85
 21
28.67
  0
LINE
  8
0
 10
-41.99
 11
-41.99
 20
25.975
 21
32.525
  0
LINE
  8
0
 10
-41.99
 11
-34.01
 20
32.525
 21
32.525
  0
LINE
  8
0
 10
-34.01
 11
-34.01
 20
32.525
 21
25.975
  0
LINE
  8
0
 10
-34.01
 11
-41.99
 20
25.975
 21
25.975
  0
LINE
  8
0
 10
26
 11
26
 20
-26
 21
36.5
  0
LINE
  8
0
 10
26
 11
78
 20
36.5
 21
36.5
  0
LINE
  8
0
 10
78
 11
78
 20
36.5
 21
17.99
  0
LINE
  8
0
 10
78
 11
84.525
 20
17.99
 21
17.99
  0
LINE
  8
0
 10
84.525
 11
84.525
 20
17.99
 21
10.01
  0
LINE
  8
0
 10
84.525
 11
78
 20
10.01
 21
10.01
  0
LINE
  8
0
 10
78
 11
78
 20
10.01
 21
1.39
  0
LINE
  8
0
 10
78
 11
73.77
 20
1.39
 21
1.39
  0
LINE
  8
0
 10
73.77
 11
73.77
 20
1.39
 21
2.74
  0
LINE
  8
0
 10
73.77
 11
71.78
 20
2.74
 21
2.74
  0
LINE
  8
0
 10
71.78
 11
71.78
 20
2.74
 21
1.39
  0
LINE
  8
0
 10
71.78
 11
69.55
 20
1.39
 21
1.39
  0
LINE
  8
0
 10
69.55
 11
69.55
 20
1.39
 21
-1.39
  0
LINE
  8
0
 10
69.55
 11
71.78
 20
-1.39
 21
-1.39
  0
LINE
  8
0
 10
71.78
 11
71.78
 20
-1.39
 21
-2.74
  0
LINE
  8
0
 10
71.78
 11
73.77
 20
-2.74
 21
-2.74
  0
LINE
  8
0
 10
73.77
 11
73.77
 20
-2.74
 21
-1.39
  0
LINE
  8
0
 10
73.77
 11
78
 20
-1.39
 21
-1.39
  0
LINE
  8
0
 10
78
 11
78
 20
-1.39
 21
-10.01
  0
LINE
  8
0
 10
78
 11
84.525
 20
-10.01
 21
-10.01
  0
LINE
  8
0
 10
84.525
 11
84.525
 20
-10.01
 21
-17.99
  0
LINE
  8
0
 10
84.525
 11
78
 20
-17.99
 21
-17.99
  0
LINE
  8
0
 10
78
 11
78
 20
-17.99
 21
-26
  0
LINE
  8
0
 10
78
 11
26
 20
-26
 21
-26
  0
LINE
  8
0
 10
34.01
 11
34.01
 20
25.975
 21
32.525
  0
LINE
  8
0
 10
34.01
 11
41.99
 20
32.525
 21
32.525
  0
LINE
  8
0
 10
41.99
 11
41.99
 20
32.525
 21
25.975
  0
LINE
  8
0
 10
41.99
 11
34.01
 20
25.975
 21
25.975
  0
LINE
  8
0
 10
50.6
 11
50.6
 20
28.67
 21
29.83
  0
LINE
  8
0
 10
50.6
 11
51.42
 20
29.83
 21
30.65
  0
LINE
  8
0
 10
51.42
 11
52.58
 20
30.65
 21
30.65
  0
LINE
  8
0
 10
52.58
 11
53.4
 20
30.65
 21
29.83
  0
LINE
  8
0
 10
53.4
 11
53.4
 20
29.83
 21
28.67
  0
LINE
  8
0
 10
53.4
 11
52.58
 20
28.67
 21
27.85
  0
LINE
  8
0
 10
52.58
 11
51.42
 20
27.85
 21
27.85
  0
LINE
  8
0
 10
51.42
 11
50.6
 20
27.85
 21
28.67
  0
LINE
  8
0
 10
62.01
 11
62.01
 20
25.975
 21
32.525
  0
LINE
  8
0
 10
62.01
 11
69.99
 20
32.525
 21
32.525
  0
LINE
  8
0
 10
69.99
 11
69.99
 20
32.525
 21
25.975
  0
LINE
  8
0
 10
69.99
 11
62.01
 20
25.975
 21
25.975
  0
ENDSEC
  0
SECTION
  2
OBJECTS
  0
DICTIONARY
  0
ENDSEC
  0
EOF
