  0
SECTION
  2
BLOCKS
  0
ENDSEC
  0
SECTION
  2
ENTITIES
  0
LINE
  8
0
 10
-299.485
 11
-299.485
 20
27.54
 21
35.46
  0
LINE
  8
0
 10
-299.485
 11
-293.54
 20
35.46
 21
35.46
  0
LINE
  8
0
 10
-293.54
 11
-293.54
 20
35.46
 21
44.14
  0
LINE
  8
0
 10
-293.54
 11
-289.56
 20
44.14
 21
44.14
  0
LINE
  8
0
 10
-289.56
 11
-289.56
 20
44.14
 21
42.79
  0
LINE
  8
0
 10
-289.56
 11
-287.64
 20
42.79
 21
42.79
  0
LINE
  8
0
 10
-287.64
 11
-287.64
 20
42.79
 21
44.14
  0
LINE
  8
0
 10
-287.64
 11
-285.55
 20
44.14
 21
44.14
  0
LINE
  8
0
 10
-285.55
 11
-285.55
 20
44.14
 21
46.86
  0
LINE
  8
0
 10
-285.55
 11
-287.64
 20
46.86
 21
46.86
  0
LINE
  8
0
 10
-287.64
 11
-287.64
 20
46.86
 21
48.21
  0
LINE
  8
0
 10
-287.64
 11
-289.56
 20
48.21
 21
48.21
  0
LINE
  8
0
 10
-289.56
 11
-289.56
 20
48.21
 21
46.86
  0
LINE
  8
0
 10
-289.56
 11
-293.54
 20
46.86
 21
46.86
  0
LINE
  8
0
 10
-293.54
 11
-293.54
 20
46.86
 21
55.54
  0
LINE
  8
0
 10
-293.54
 11
-299.485
 20
55.54
 21
55.54
  0
LINE
  8
0
 10
-299.485
 11
-299.485
 20
55.54
 21
63.46
  0
LINE
  8
0
 10
-299.485
 11
-293.54
 20
63.46
 21
63.46
  0
LINE
  8
0
 10
-293.54
 11
-293.54
 20
63.46
 21
188.54
  0
LINE
  8
0
 10
-293.54
 11
-299.485
 20
188.54
 21
188.54
  0
LINE
  8
0
 10
-299.485
 11
-299.485
 20
188.54
 21
196.46
  0
LINE
  8
0
 10
-299.485
 11
-293.54
 20
196.46
 21
196.46
  0
LINE
  8
0
 10
-293.54
 11
-293.54
 20
196.46
 21
205.14
  0
LINE
  8
0
 10
-293.54
 11
-289.56
 20
205.14
 21
205.14
  0
LINE
  8
0
 10
-289.56
 11
-289.56
 20
205.14
 21
203.79
  0
LINE
  8
0
 10
-289.56
 11
-287.64
 20
203.79
 21
203.79
  0
LINE
  8
0
 10
-287.64
 11
-287.64
 20
203.79
 21
205.14
  0
LINE
  8
0
 10
-287.64
 11
-285.55
 20
205.14
 21
205.14
  0
LINE
  8
0
 10
-285.55
 11
-285.55
 20
205.14
 21
207.86
  0
LINE
  8
0
 10
-285.55
 11
-287.64
 20
207.86
 21
207.86
  0
LINE
  8
0
 10
-287.64
 11
-287.64
 20
207.86
 21
209.21
  0
LINE
  8
0
 10
-287.64
 11
-289.56
 20
209.21
 21
209.21
  0
LINE
  8
0
 10
-289.56
 11
-289.56
 20
209.21
 21
207.86
  0
LINE
  8
0
 10
-289.56
 11
-293.54
 20
207.86
 21
207.86
  0
LINE
  8
0
 10
-293.54
 11
-293.54
 20
207.86
 21
216.54
  0
LINE
  8
0
 10
-293.54
 11
-299.485
 20
216.54
 21
216.54
  0
LINE
  8
0
 10
-299.485
 11
-299.485
 20
216.54
 21
224.46
  0
LINE
  8
0
 10
-299.485
 11
-293.54
 20
224.46
 21
224.46
  0
LINE
  8
0
 10
-293.54
 11
-293.54
 20
224.46
 21
232.54
  0
LINE
  8
0
 10
-293.54
 11
-285.46
 20
232.54
 21
232.54
  0
LINE
  8
0
 10
-285.46
 11
-285.46
 20
232.54
 21
238.485
  0
LINE
  8
0
 10
-285.46
 11
-277.54
 20
238.485
 21
238.485
  0
LINE
  8
0
 10
-277.54
 11
-277.54
 20
238.485
 21
232.54
  0
LINE
  8
0
 10
-277.54
 11
-268.86
 20
232.54
 21
232.54
  0
LINE
  8
0
 10
-268.86
 11
-268.86
 20
232.54
 21
228.56
  0
LINE
  8
0
 10
-268.86
 11
-270.21
 20
228.56
 21
228.56
  0
LINE
  8
0
 10
-270.21
 11
-270.21
 20
228.56
 21
226.64
  0
LINE
  8
0
 10
-270.21
 11
-268.86
 20
226.64
 21
226.64
  0
LINE
  8
0
 10
-268.86
 11
-268.86
 20
226.64
 21
224.55
  0
LINE
  8
0
 10
-268.86
 11
-266.14
 20
224.55
 21
224.55
  0
LINE
  8
0
 10
-266.14
 11
-266.14
 20
224.55
 21
226.64
  0
LINE
  8
0
 10
-266.14
 11
-264.79
 20
226.64
 21
226.64
  0
LINE
  8
0
 10
-264.79
 11
-264.79
 20
226.64
 21
228.56
  0
LINE
  8
0
 10
-264.79
 11
-266.14
 20
228.56
 21
228.56
  0
LINE
  8
0
 10
-266.14
 11
-266.14
 20
228.56
 21
232.54
  0
LINE
  8
0
 10
-266.14
 11
-257.46
 20
232.54
 21
232.54
  0
LINE
  8
0
 10
-257.46
 11
-257.46
 20
232.54
 21
238.485
  0
LINE
  8
0
 10
-257.46
 11
-249.54
 20
238.485
 21
238.485
  0
LINE
  8
0
 10
-249.54
 11
-249.54
 20
238.485
 21
232.54
  0
LINE
  8
0
 10
-249.54
 11
-174.96
 20
232.54
 21
232.54
  0
LINE
  8
0
 10
-174.96
 11
-174.96
 20
232.54
 21
238.485
  0
LINE
  8
0
 10
-174.96
 11
-167.04
 20
238.485
 21
238.485
  0
LINE
  8
0
 10
-167.04
 11
-167.04
 20
238.485
 21
232.54
  0
LINE
  8
0
 10
-167.04
 11
-158.36
 20
232.54
 21
232.54
  0
LINE
  8
0
 10
-158.36
 11
-158.36
 20
232.54
 21
228.56
  0
LINE
  8
0
 10
-158.36
 11
-159.71
 20
228.56
 21
228.56
  0
LINE
  8
0
 10
-159.71
 11
-159.71
 20
228.56
 21
226.64
  0
LINE
  8
0
 10
-159.71
 11
-158.36
 20
226.64
 21
226.64
  0
LINE
  8
0
 10
-158.36
 11
-158.36
 20
226.64
 21
224.55
  0
LINE
  8
0
 10
-158.36
 11
-155.64
 20
224.55
 21
224.55
  0
LINE
  8
0
 10
-155.64
 11
-155.64
 20
224.55
 21
226.64
  0
LINE
  8
0
 10
-155.64
 11
-154.29
 20
226.64
 21
226.64
  0
LINE
  8
0
 10
-154.29
 11
-154.29
 20
226.64
 21
228.56
  0
LINE
  8
0
 10
-154.29
 11
-155.64
 20
228.56
 21
228.56
  0
LINE
  8
0
 10
-155.64
 11
-155.64
 20
228.56
 21
232.54
  0
LINE
  8
0
 10
-155.64
 11
-146.96
 20
232.54
 21
232.54
  0
LINE
  8
0
 10
-146.96
 11
-146.96
 20
232.54
 21
238.485
  0
LINE
  8
0
 10
-146.96
 11
-139.04
 20
238.485
 21
238.485
  0
LINE
  8
0
 10
-139.04
 11
-139.04
 20
238.485
 21
232.54
  0
LINE
  8
0
 10
-139.04
 11
-64.46
 20
232.54
 21
232.54
  0
LINE
  8
0
 10
-64.46
 11
-64.46
 20
232.54
 21
238.485
  0
LINE
  8
0
 10
-64.46
 11
-56.54
 20
238.485
 21
238.485
  0
LINE
  8
0
 10
-56.54
 11
-56.54
 20
238.485
 21
232.54
  0
LINE
  8
0
 10
-56.54
 11
-47.86
 20
232.54
 21
232.54
  0
LINE
  8
0
 10
-47.86
 11
-47.86
 20
232.54
 21
228.56
  0
LINE
  8
0
 10
-47.86
 11
-49.21
 20
228.56
 21
228.56
  0
LINE
  8
0
 10
-49.21
 11
-49.21
 20
228.56
 21
226.64
  0
LINE
  8
0
 10
-49.21
 11
-47.86
 20
226.64
 21
226.64
  0
LINE
  8
0
 10
-47.86
 11
-47.86
 20
226.64
 21
224.55
  0
LINE
  8
0
 10
-47.86
 11
-45.14
 20
224.55
 21
224.55
  0
LINE
  8
0
 10
-45.14
 11
-45.14
 20
224.55
 21
226.64
  0
LINE
  8
0
 10
-45.14
 11
-43.79
 20
226.64
 21
226.64
  0
LINE
  8
0
 10
-43.79
 11
-43.79
 20
226.64
 21
228.56
  0
LINE
  8
0
 10
-43.79
 11
-45.14
 20
228.56
 21
228.56
  0
LINE
  8
0
 10
-45.14
 11
-45.14
 20
228.56
 21
232.54
  0
LINE
  8
0
 10
-45.14
 11
-36.46
 20
232.54
 21
232.54
  0
LINE
  8
0
 10
-36.46
 11
-36.46
 20
232.54
 21
238.485
  0
LINE
  8
0
 10
-36.46
 11
-28.54
 20
238.485
 21
238.485
  0
LINE
  8
0
 10
-28.54
 11
-28.54
 20
238.485
 21
232.54
  0
LINE
  8
0
 10
-28.54
 11
-20.46
 20
232.54
 21
232.54
  0
LINE
  8
0
 10
-20.46
 11
-20.46
 20
232.54
 21
224.46
  0
LINE
  8
0
 10
-20.46
 11
-14.515
 20
224.46
 21
224.46
  0
LINE
  8
0
 10
-14.515
 11
-14.515
 20
224.46
 21
216.54
  0
LINE
  8
0
 10
-14.515
 11
-20.46
 20
216.54
 21
216.54
  0
LINE
  8
0
 10
-20.46
 11
-20.46
 20
216.54
 21
207.86
  0
LINE
  8
0
 10
-20.46
 11
-24.44
 20
207.86
 21
207.86
  0
LINE
  8
0
 10
-24.44
 11
-24.44
 20
207.86
 21
209.21
  0
LINE
  8
0
 10
-24.44
 11
-26.36
 20
209.21
 21
209.21
  0
LINE
  8
0
 10
-26.36
 11
-26.36
 20
209.21
 21
207.86
  0
LINE
  8
0
 10
-26.36
 11
-28.45
 20
207.86
 21
207.86
  0
LINE
  8
0
 10
-28.45
 11
-28.45
 20
207.86
 21
205.14
  0
LINE
  8
0
 10
-28.45
 11
-26.36
 20
205.14
 21
205.14
  0
LINE
  8
0
 10
-26.36
 11
-26.36
 20
205.14
 21
203.79
  0
LINE
  8
0
 10
-26.36
 11
-24.44
 20
203.79
 21
203.79
  0
LINE
  8
0
 10
-24.44
 11
-24.44
 20
203.79
 21
205.14
  0
LINE
  8
0
 10
-24.44
 11
-20.46
 20
205.14
 21
205.14
  0
LINE
  8
0
 10
-20.46
 11
-20.46
 20
205.14
 21
196.46
  0
LINE
  8
0
 10
-20.46
 11
-14.515
 20
196.46
 21
196.46
  0
LINE
  8
0
 10
-14.515
 11
-14.515
 20
196.46
 21
188.54
  0
LINE
  8
0
 10
-14.515
 11
-20.46
 20
188.54
 21
188.54
  0
LINE
  8
0
 10
-20.46
 11
-20.46
 20
188.54
 21
63.46
  0
LINE
  8
0
 10
-20.46
 11
-14.515
 20
63.46
 21
63.46
  0
LINE
  8
0
 10
-14.515
 11
-14.515
 20
63.46
 21
55.54
  0
LINE
  8
0
 10
-14.515
 11
-20.46
 20
55.54
 21
55.54
  0
LINE
  8
0
 10
-20.46
 11
-20.46
 20
55.54
 21
46.86
  0
LINE
  8
0
 10
-20.46
 11
-24.44
 20
46.86
 21
46.86
  0
LINE
  8
0
 10
-24.44
 11
-24.44
 20
46.86
 21
48.21
  0
LINE
  8
0
 10
-24.44
 11
-26.36
 20
48.21
 21
48.21
  0
LINE
  8
0
 10
-26.36
 11
-26.36
 20
48.21
 21
46.86
  0
LINE
  8
0
 10
-26.36
 11
-28.45
 20
46.86
 21
46.86
  0
LINE
  8
0
 10
-28.45
 11
-28.45
 20
46.86
 21
44.14
  0
LINE
  8
0
 10
-28.45
 11
-26.36
 20
44.14
 21
44.14
  0
LINE
  8
0
 10
-26.36
 11
-26.36
 20
44.14
 21
42.79
  0
LINE
  8
0
 10
-26.36
 11
-24.44
 20
42.79
 21
42.79
  0
LINE
  8
0
 10
-24.44
 11
-24.44
 20
42.79
 21
44.14
  0
LINE
  8
0
 10
-24.44
 11
-20.46
 20
44.14
 21
44.14
  0
LINE
  8
0
 10
-20.46
 11
-20.46
 20
44.14
 21
35.46
  0
LINE
  8
0
 10
-20.46
 11
-14.515
 20
35.46
 21
35.46
  0
LINE
  8
0
 10
-14.515
 11
-14.515
 20
35.46
 21
27.54
  0
LINE
  8
0
 10
-14.515
 11
-20.46
 20
27.54
 21
27.54
  0
LINE
  8
0
 10
-20.46
 11
-20.46
 20
27.54
 21
19.46
  0
LINE
  8
0
 10
-20.46
 11
-28.54
 20
19.46
 21
19.46
  0
LINE
  8
0
 10
-28.54
 11
-28.54
 20
19.46
 21
13.515
  0
LINE
  8
0
 10
-28.54
 11
-36.46
 20
13.515
 21
13.515
  0
LINE
  8
0
 10
-36.46
 11
-36.46
 20
13.515
 21
19.46
  0
LINE
  8
0
 10
-36.46
 11
-45.14
 20
19.46
 21
19.46
  0
LINE
  8
0
 10
-45.14
 11
-45.14
 20
19.46
 21
23.44
  0
LINE
  8
0
 10
-45.14
 11
-43.79
 20
23.44
 21
23.44
  0
LINE
  8
0
 10
-43.79
 11
-43.79
 20
23.44
 21
25.36
  0
LINE
  8
0
 10
-43.79
 11
-45.14
 20
25.36
 21
25.36
  0
LINE
  8
0
 10
-45.14
 11
-45.14
 20
25.36
 21
27.45
  0
LINE
  8
0
 10
-45.14
 11
-47.86
 20
27.45
 21
27.45
  0
LINE
  8
0
 10
-47.86
 11
-47.86
 20
27.45
 21
25.36
  0
LINE
  8
0
 10
-47.86
 11
-49.21
 20
25.36
 21
25.36
  0
LINE
  8
0
 10
-49.21
 11
-49.21
 20
25.36
 21
23.44
  0
LINE
  8
0
 10
-49.21
 11
-47.86
 20
23.44
 21
23.44
  0
LINE
  8
0
 10
-47.86
 11
-47.86
 20
23.44
 21
19.46
  0
LINE
  8
0
 10
-47.86
 11
-56.54
 20
19.46
 21
19.46
  0
LINE
  8
0
 10
-56.54
 11
-56.54
 20
19.46
 21
13.515
  0
LINE
  8
0
 10
-56.54
 11
-64.46
 20
13.515
 21
13.515
  0
LINE
  8
0
 10
-64.46
 11
-64.46
 20
13.515
 21
19.46
  0
LINE
  8
0
 10
-64.46
 11
-72.112
 20
19.46
 21
19.46
  0
LINE
  8
0
 10
-72.112
 11
-62.726
 20
19.46
 21
26.413
  0
LINE
  8
0
 10
-62.726
 11
-61.038
 20
26.413
 21
28.101
  0
LINE
  8
0
 10
-61.038
 11
-60.125
 20
28.101
 21
30.307
  0
LINE
  8
0
 10
-60.125
 11
-60.125
 20
30.307
 21
199.193
  0
LINE
  8
0
 10
-60.125
 11
-61.038
 20
199.193
 21
201.399
  0
LINE
  8
0
 10
-61.038
 11
-62.726
 20
201.399
 21
203.087
  0
LINE
  8
0
 10
-62.726
 11
-64.932
 20
203.087
 21
204
  0
LINE
  8
0
 10
-64.932
 11
-249.068
 20
204
 21
204
  0
LINE
  8
0
 10
-249.068
 11
-251.274
 20
204
 21
203.087
  0
LINE
  8
0
 10
-251.274
 11
-252.962
 20
203.087
 21
201.399
  0
LINE
  8
0
 10
-252.962
 11
-253.875
 20
201.399
 21
199.193
  0
LINE
  8
0
 10
-253.875
 11
-253.875
 20
199.193
 21
30.307
  0
LINE
  8
0
 10
-253.875
 11
-252.962
 20
30.307
 21
28.101
  0
LINE
  8
0
 10
-252.962
 11
-251.274
 20
28.101
 21
26.413
  0
LINE
  8
0
 10
-251.274
 11
-241.888
 20
26.413
 21
19.46
  0
LINE
  8
0
 10
-241.888
 11
-249.54
 20
19.46
 21
19.46
  0
LINE
  8
0
 10
-249.54
 11
-249.54
 20
19.46
 21
13.515
  0
LINE
  8
0
 10
-249.54
 11
-257.46
 20
13.515
 21
13.515
  0
LINE
  8
0
 10
-257.46
 11
-257.46
 20
13.515
 21
19.46
  0
LINE
  8
0
 10
-257.46
 11
-266.14
 20
19.46
 21
19.46
  0
LINE
  8
0
 10
-266.14
 11
-266.14
 20
19.46
 21
23.44
  0
LINE
  8
0
 10
-266.14
 11
-264.79
 20
23.44
 21
23.44
  0
LINE
  8
0
 10
-264.79
 11
-264.79
 20
23.44
 21
25.36
  0
LINE
  8
0
 10
-264.79
 11
-266.14
 20
25.36
 21
25.36
  0
LINE
  8
0
 10
-266.14
 11
-266.14
 20
25.36
 21
27.45
  0
LINE
  8
0
 10
-266.14
 11
-268.86
 20
27.45
 21
27.45
  0
LINE
  8
0
 10
-268.86
 11
-268.86
 20
27.45
 21
25.36
  0
LINE
  8
0
 10
-268.86
 11
-270.21
 20
25.36
 21
25.36
  0
LINE
  8
0
 10
-270.21
 11
-270.21
 20
25.36
 21
23.44
  0
LINE
  8
0
 10
-270.21
 11
-268.86
 20
23.44
 21
23.44
  0
LINE
  8
0
 10
-268.86
 11
-268.86
 20
23.44
 21
19.46
  0
LINE
  8
0
 10
-268.86
 11
-277.54
 20
19.46
 21
19.46
  0
LINE
  8
0
 10
-277.54
 11
-277.54
 20
19.46
 21
13.515
  0
LINE
  8
0
 10
-277.54
 11
-285.46
 20
13.515
 21
13.515
  0
LINE
  8
0
 10
-285.46
 11
-285.46
 20
13.515
 21
19.46
  0
LINE
  8
0
 10
-285.46
 11
-293.54
 20
19.46
 21
19.46
  0
LINE
  8
0
 10
-293.54
 11
-293.54
 20
19.46
 21
27.54
  0
LINE
  8
0
 10
-293.54
 11
-299.485
 20
27.54
 21
27.54
  0
LINE
  8
0
 10
-297.54
 11
-297.54
 20
245.46
 21
458.54
  0
LINE
  8
0
 10
-297.54
 11
-279.46
 20
458.54
 21
458.54
  0
LINE
  8
0
 10
-279.46
 11
-279.46
 20
458.54
 21
464.485
  0
LINE
  8
0
 10
-279.46
 11
-271.54
 20
464.485
 21
464.485
  0
LINE
  8
0
 10
-271.54
 11
-271.54
 20
464.485
 21
458.54
  0
LINE
  8
0
 10
-271.54
 11
-262.86
 20
458.54
 21
458.54
  0
LINE
  8
0
 10
-262.86
 11
-262.86
 20
458.54
 21
454.56
  0
LINE
  8
0
 10
-262.86
 11
-264.21
 20
454.56
 21
454.56
  0
LINE
  8
0
 10
-264.21
 11
-264.21
 20
454.56
 21
452.64
  0
LINE
  8
0
 10
-264.21
 11
-262.86
 20
452.64
 21
452.64
  0
LINE
  8
0
 10
-262.86
 11
-262.86
 20
452.64
 21
450.55
  0
LINE
  8
0
 10
-262.86
 11
-260.14
 20
450.55
 21
450.55
  0
LINE
  8
0
 10
-260.14
 11
-260.14
 20
450.55
 21
452.64
  0
LINE
  8
0
 10
-260.14
 11
-258.79
 20
452.64
 21
452.64
  0
LINE
  8
0
 10
-258.79
 11
-258.79
 20
452.64
 21
454.56
  0
LINE
  8
0
 10
-258.79
 11
-260.14
 20
454.56
 21
454.56
  0
LINE
  8
0
 10
-260.14
 11
-260.14
 20
454.56
 21
458.54
  0
LINE
  8
0
 10
-260.14
 11
-251.46
 20
458.54
 21
458.54
  0
LINE
  8
0
 10
-251.46
 11
-251.46
 20
458.54
 21
464.485
  0
LINE
  8
0
 10
-251.46
 11
-243.54
 20
464.485
 21
464.485
  0
LINE
  8
0
 10
-243.54
 11
-243.54
 20
464.485
 21
458.54
  0
LINE
  8
0
 10
-243.54
 11
-162.41
 20
458.54
 21
458.54
  0
LINE
  8
0
 10
-162.41
 11
-162.41
 20
458.54
 21
464.485
  0
LINE
  8
0
 10
-162.41
 11
-154.49
 20
464.485
 21
464.485
  0
LINE
  8
0
 10
-154.49
 11
-154.49
 20
464.485
 21
458.54
  0
LINE
  8
0
 10
-154.49
 11
-145.81
 20
458.54
 21
458.54
  0
LINE
  8
0
 10
-145.81
 11
-145.81
 20
458.54
 21
454.56
  0
LINE
  8
0
 10
-145.81
 11
-147.16
 20
454.56
 21
454.56
  0
LINE
  8
0
 10
-147.16
 11
-147.16
 20
454.56
 21
452.64
  0
LINE
  8
0
 10
-147.16
 11
-145.81
 20
452.64
 21
452.64
  0
LINE
  8
0
 10
-145.81
 11
-145.81
 20
452.64
 21
450.55
  0
LINE
  8
0
 10
-145.81
 11
-143.09
 20
450.55
 21
450.55
  0
LINE
  8
0
 10
-143.09
 11
-143.09
 20
450.55
 21
452.64
  0
LINE
  8
0
 10
-143.09
 11
-141.74
 20
452.64
 21
452.64
  0
LINE
  8
0
 10
-141.74
 11
-141.74
 20
452.64
 21
454.56
  0
LINE
  8
0
 10
-141.74
 11
-143.09
 20
454.56
 21
454.56
  0
LINE
  8
0
 10
-143.09
 11
-143.09
 20
454.56
 21
458.54
  0
LINE
  8
0
 10
-143.09
 11
-134.41
 20
458.54
 21
458.54
  0
LINE
  8
0
 10
-134.41
 11
-134.41
 20
458.54
 21
464.485
  0
LINE
  8
0
 10
-134.41
 11
-126.49
 20
464.485
 21
464.485
  0
LINE
  8
0
 10
-126.49
 11
-126.49
 20
464.485
 21
458.54
  0
LINE
  8
0
 10
-126.49
 11
-45.36
 20
458.54
 21
458.54
  0
LINE
  8
0
 10
-45.36
 11
-45.36
 20
458.54
 21
464.485
  0
LINE
  8
0
 10
-45.36
 11
-37.44
 20
464.485
 21
464.485
  0
LINE
  8
0
 10
-37.44
 11
-37.44
 20
464.485
 21
458.54
  0
LINE
  8
0
 10
-37.44
 11
-28.76
 20
458.54
 21
458.54
  0
LINE
  8
0
 10
-28.76
 11
-28.76
 20
458.54
 21
454.56
  0
LINE
  8
0
 10
-28.76
 11
-30.11
 20
454.56
 21
454.56
  0
LINE
  8
0
 10
-30.11
 11
-30.11
 20
454.56
 21
452.64
  0
LINE
  8
0
 10
-30.11
 11
-28.76
 20
452.64
 21
452.64
  0
LINE
  8
0
 10
-28.76
 11
-28.76
 20
452.64
 21
450.55
  0
LINE
  8
0
 10
-28.76
 11
-26.04
 20
450.55
 21
450.55
  0
LINE
  8
0
 10
-26.04
 11
-26.04
 20
450.55
 21
452.64
  0
LINE
  8
0
 10
-26.04
 11
-24.69
 20
452.64
 21
452.64
  0
LINE
  8
0
 10
-24.69
 11
-24.69
 20
452.64
 21
454.56
  0
LINE
  8
0
 10
-24.69
 11
-26.04
 20
454.56
 21
454.56
  0
LINE
  8
0
 10
-26.04
 11
-26.04
 20
454.56
 21
458.54
  0
LINE
  8
0
 10
-26.04
 11
-17.36
 20
458.54
 21
458.54
  0
LINE
  8
0
 10
-17.36
 11
-17.36
 20
458.54
 21
464.485
  0
LINE
  8
0
 10
-17.36
 11
-9.44
 20
464.485
 21
464.485
  0
LINE
  8
0
 10
-9.44
 11
-9.44
 20
464.485
 21
458.54
  0
LINE
  8
0
 10
-9.44
 11
-1.36
 20
458.54
 21
458.54
  0
LINE
  8
0
 10
-1.36
 11
-1.36
 20
458.54
 21
245.46
  0
LINE
  8
0
 10
-1.36
 11
-9.44
 20
245.46
 21
245.46
  0
LINE
  8
0
 10
-9.44
 11
-9.44
 20
245.46
 21
239.515
  0
LINE
  8
0
 10
-9.44
 11
-17.36
 20
239.515
 21
239.515
  0
LINE
  8
0
 10
-17.36
 11
-17.36
 20
239.515
 21
245.46
  0
LINE
  8
0
 10
-17.36
 11
-26.04
 20
245.46
 21
245.46
  0
LINE
  8
0
 10
-26.04
 11
-26.04
 20
245.46
 21
249.44
  0
LINE
  8
0
 10
-26.04
 11
-24.69
 20
249.44
 21
249.44
  0
LINE
  8
0
 10
-24.69
 11
-24.69
 20
249.44
 21
251.36
  0
LINE
  8
0
 10
-24.69
 11
-26.04
 20
251.36
 21
251.36
  0
LINE
  8
0
 10
-26.04
 11
-26.04
 20
251.36
 21
253.45
  0
LINE
  8
0
 10
-26.04
 11
-28.76
 20
253.45
 21
253.45
  0
LINE
  8
0
 10
-28.76
 11
-28.76
 20
253.45
 21
251.36
  0
LINE
  8
0
 10
-28.76
 11
-30.11
 20
251.36
 21
251.36
  0
LINE
  8
0
 10
-30.11
 11
-30.11
 20
251.36
 21
249.44
  0
LINE
  8
0
 10
-30.11
 11
-28.76
 20
249.44
 21
249.44
  0
LINE
  8
0
 10
-28.76
 11
-28.76
 20
249.44
 21
245.46
  0
LINE
  8
0
 10
-28.76
 11
-37.44
 20
245.46
 21
245.46
  0
LINE
  8
0
 10
-37.44
 11
-37.44
 20
245.46
 21
239.515
  0
LINE
  8
0
 10
-37.44
 11
-45.36
 20
239.515
 21
239.515
  0
LINE
  8
0
 10
-45.36
 11
-45.36
 20
239.515
 21
245.46
  0
LINE
  8
0
 10
-45.36
 11
-126.49
 20
245.46
 21
245.46
  0
LINE
  8
0
 10
-126.49
 11
-126.49
 20
245.46
 21
239.515
  0
LINE
  8
0
 10
-126.49
 11
-134.41
 20
239.515
 21
239.515
  0
LINE
  8
0
 10
-134.41
 11
-134.41
 20
239.515
 21
245.46
  0
LINE
  8
0
 10
-134.41
 11
-143.09
 20
245.46
 21
245.46
  0
LINE
  8
0
 10
-143.09
 11
-143.09
 20
245.46
 21
249.44
  0
LINE
  8
0
 10
-143.09
 11
-141.74
 20
249.44
 21
249.44
  0
LINE
  8
0
 10
-141.74
 11
-141.74
 20
249.44
 21
251.36
  0
LINE
  8
0
 10
-141.74
 11
-143.09
 20
251.36
 21
251.36
  0
LINE
  8
0
 10
-143.09
 11
-143.09
 20
251.36
 21
253.45
  0
LINE
  8
0
 10
-143.09
 11
-145.81
 20
253.45
 21
253.45
  0
LINE
  8
0
 10
-145.81
 11
-145.81
 20
253.45
 21
251.36
  0
LINE
  8
0
 10
-145.81
 11
-147.16
 20
251.36
 21
251.36
  0
LINE
  8
0
 10
-147.16
 11
-147.16
 20
251.36
 21
249.44
  0
LINE
  8
0
 10
-147.16
 11
-145.81
 20
249.44
 21
249.44
  0
LINE
  8
0
 10
-145.81
 11
-145.81
 20
249.44
 21
245.46
  0
LINE
  8
0
 10
-145.81
 11
-154.49
 20
245.46
 21
245.46
  0
LINE
  8
0
 10
-154.49
 11
-154.49
 20
245.46
 21
239.515
  0
LINE
  8
0
 10
-154.49
 11
-162.41
 20
239.515
 21
239.515
  0
LINE
  8
0
 10
-162.41
 11
-162.41
 20
239.515
 21
245.46
  0
LINE
  8
0
 10
-162.41
 11
-243.54
 20
245.46
 21
245.46
  0
LINE
  8
0
 10
-243.54
 11
-243.54
 20
245.46
 21
239.515
  0
LINE
  8
0
 10
-243.54
 11
-251.46
 20
239.515
 21
239.515
  0
LINE
  8
0
 10
-251.46
 11
-251.46
 20
239.515
 21
245.46
  0
LINE
  8
0
 10
-251.46
 11
-260.14
 20
245.46
 21
245.46
  0
LINE
  8
0
 10
-260.14
 11
-260.14
 20
245.46
 21
249.44
  0
LINE
  8
0
 10
-260.14
 11
-258.79
 20
249.44
 21
249.44
  0
LINE
  8
0
 10
-258.79
 11
-258.79
 20
249.44
 21
251.36
  0
LINE
  8
0
 10
-258.79
 11
-260.14
 20
251.36
 21
251.36
  0
LINE
  8
0
 10
-260.14
 11
-260.14
 20
251.36
 21
253.45
  0
LINE
  8
0
 10
-260.14
 11
-262.86
 20
253.45
 21
253.45
  0
LINE
  8
0
 10
-262.86
 11
-262.86
 20
253.45
 21
251.36
  0
LINE
  8
0
 10
-262.86
 11
-264.21
 20
251.36
 21
251.36
  0
LINE
  8
0
 10
-264.21
 11
-264.21
 20
251.36
 21
249.44
  0
LINE
  8
0
 10
-264.21
 11
-262.86
 20
249.44
 21
249.44
  0
LINE
  8
0
 10
-262.86
 11
-262.86
 20
249.44
 21
245.46
  0
LINE
  8
0
 10
-262.86
 11
-271.54
 20
245.46
 21
245.46
  0
LINE
  8
0
 10
-271.54
 11
-271.54
 20
245.46
 21
239.515
  0
LINE
  8
0
 10
-271.54
 11
-279.46
 20
239.515
 21
239.515
  0
LINE
  8
0
 10
-279.46
 11
-279.46
 20
239.515
 21
245.46
  0
LINE
  8
0
 10
-279.46
 11
-297.54
 20
245.46
 21
245.46
  0
LINE
  8
0
 10
-293.485
 11
-293.485
 20
253.54
 21
261.46
  0
LINE
  8
0
 10
-293.485
 11
-287.515
 20
261.46
 21
261.46
  0
LINE
  8
0
 10
-287.515
 11
-287.515
 20
261.46
 21
253.54
  0
LINE
  8
0
 10
-287.515
 11
-293.485
 20
253.54
 21
253.54
  0
LINE
  8
0
 10
-293.485
 11
-293.485
 20
281.54
 21
289.46
  0
LINE
  8
0
 10
-293.485
 11
-287.515
 20
289.46
 21
289.46
  0
LINE
  8
0
 10
-287.515
 11
-287.515
 20
289.46
 21
281.54
  0
LINE
  8
0
 10
-287.515
 11
-293.485
 20
281.54
 21
281.54
  0
LINE
  8
0
 10
-293.485
 11
-293.485
 20
414.54
 21
422.46
  0
LINE
  8
0
 10
-293.485
 11
-287.515
 20
422.46
 21
422.46
  0
LINE
  8
0
 10
-287.515
 11
-287.515
 20
422.46
 21
414.54
  0
LINE
  8
0
 10
-287.515
 11
-293.485
 20
414.54
 21
414.54
  0
LINE
  8
0
 10
-293.485
 11
-293.485
 20
442.54
 21
450.46
  0
LINE
  8
0
 10
-293.485
 11
-287.515
 20
450.46
 21
450.46
  0
LINE
  8
0
 10
-287.515
 11
-287.515
 20
450.46
 21
442.54
  0
LINE
  8
0
 10
-287.515
 11
-293.485
 20
442.54
 21
442.54
  0
LINE
  8
0
 10
-291.9
 11
-291.9
 20
270.92
 21
272.08
  0
LINE
  8
0
 10
-291.9
 11
-291.08
 20
272.08
 21
272.9
  0
LINE
  8
0
 10
-291.08
 11
-289.92
 20
272.9
 21
272.9
  0
LINE
  8
0
 10
-289.92
 11
-289.1
 20
272.9
 21
272.08
  0
LINE
  8
0
 10
-289.1
 11
-289.1
 20
272.08
 21
270.92
  0
LINE
  8
0
 10
-289.1
 11
-289.92
 20
270.92
 21
270.1
  0
LINE
  8
0
 10
-289.92
 11
-291.08
 20
270.1
 21
270.1
  0
LINE
  8
0
 10
-291.08
 11
-291.9
 20
270.1
 21
270.92
  0
LINE
  8
0
 10
-291.9
 11
-291.9
 20
431.92
 21
433.08
  0
LINE
  8
0
 10
-291.9
 11
-291.08
 20
433.08
 21
433.9
  0
LINE
  8
0
 10
-291.08
 11
-289.92
 20
433.9
 21
433.9
  0
LINE
  8
0
 10
-289.92
 11
-289.1
 20
433.9
 21
433.08
  0
LINE
  8
0
 10
-289.1
 11
-289.1
 20
433.08
 21
431.92
  0
LINE
  8
0
 10
-289.1
 11
-289.92
 20
431.92
 21
431.1
  0
LINE
  8
0
 10
-289.92
 11
-291.08
 20
431.1
 21
431.1
  0
LINE
  8
0
 10
-291.08
 11
-291.9
 20
431.1
 21
431.92
  0
LINE
  8
0
 10
-220.94
 11
-220.94
 20
217.306
 21
217.694
  0
LINE
  8
0
 10
-220.94
 11
-220.902
 20
217.694
 21
218.079
  0
LINE
  8
0
 10
-220.902
 11
-220.827
 20
218.079
 21
218.458
  0
LINE
  8
0
 10
-220.827
 11
-220.714
 20
218.458
 21
218.829
  0
LINE
  8
0
 10
-220.714
 11
-220.566
 20
218.829
 21
219.187
  0
LINE
  8
0
 10
-220.566
 11
-220.384
 20
219.187
 21
219.528
  0
LINE
  8
0
 10
-220.384
 11
-220.168
 20
219.528
 21
219.85
  0
LINE
  8
0
 10
-220.168
 11
-219.923
 20
219.85
 21
220.149
  0
LINE
  8
0
 10
-219.923
 11
-219.649
 20
220.149
 21
220.423
  0
LINE
  8
0
 10
-219.649
 11
-219.35
 20
220.423
 21
220.668
  0
LINE
  8
0
 10
-219.35
 11
-219.028
 20
220.668
 21
220.884
  0
LINE
  8
0
 10
-219.028
 11
-218.687
 20
220.884
 21
221.066
  0
LINE
  8
0
 10
-218.687
 11
-218.329
 20
221.066
 21
221.214
  0
LINE
  8
0
 10
-218.329
 11
-217.958
 20
221.214
 21
221.327
  0
LINE
  8
0
 10
-217.958
 11
-217.579
 20
221.327
 21
221.402
  0
LINE
  8
0
 10
-217.579
 11
-217.194
 20
221.402
 21
221.44
  0
LINE
  8
0
 10
-217.194
 11
-216.806
 20
221.44
 21
221.44
  0
LINE
  8
0
 10
-216.806
 11
-216.421
 20
221.44
 21
221.402
  0
LINE
  8
0
 10
-216.421
 11
-216.042
 20
221.402
 21
221.327
  0
LINE
  8
0
 10
-216.042
 11
-215.671
 20
221.327
 21
221.214
  0
LINE
  8
0
 10
-215.671
 11
-215.313
 20
221.214
 21
221.066
  0
LINE
  8
0
 10
-215.313
 11
-214.972
 20
221.066
 21
220.884
  0
LINE
  8
0
 10
-214.972
 11
-214.65
 20
220.884
 21
220.668
  0
LINE
  8
0
 10
-214.65
 11
-214.351
 20
220.668
 21
220.423
  0
LINE
  8
0
 10
-214.351
 11
-214.077
 20
220.423
 21
220.149
  0
LINE
  8
0
 10
-214.077
 11
-213.832
 20
220.149
 21
219.85
  0
LINE
  8
0
 10
-213.832
 11
-213.616
 20
219.85
 21
219.528
  0
LINE
  8
0
 10
-213.616
 11
-213.434
 20
219.528
 21
219.187
  0
LINE
  8
0
 10
-213.434
 11
-213.286
 20
219.187
 21
218.829
  0
LINE
  8
0
 10
-213.286
 11
-213.173
 20
218.829
 21
218.458
  0
LINE
  8
0
 10
-213.173
 11
-213.098
 20
218.458
 21
218.079
  0
LINE
  8
0
 10
-213.098
 11
-213.06
 20
218.079
 21
217.694
  0
LINE
  8
0
 10
-213.06
 11
-213.06
 20
217.694
 21
217.306
  0
LINE
  8
0
 10
-213.06
 11
-213.098
 20
217.306
 21
216.921
  0
LINE
  8
0
 10
-213.098
 11
-213.173
 20
216.921
 21
216.542
  0
LINE
  8
0
 10
-213.173
 11
-213.286
 20
216.542
 21
216.171
  0
LINE
  8
0
 10
-213.286
 11
-213.434
 20
216.171
 21
215.813
  0
LINE
  8
0
 10
-213.434
 11
-213.616
 20
215.813
 21
215.472
  0
LINE
  8
0
 10
-213.616
 11
-213.832
 20
215.472
 21
215.15
  0
LINE
  8
0
 10
-213.832
 11
-214.077
 20
215.15
 21
214.851
  0
LINE
  8
0
 10
-214.077
 11
-214.351
 20
214.851
 21
214.577
  0
LINE
  8
0
 10
-214.351
 11
-214.65
 20
214.577
 21
214.332
  0
LINE
  8
0
 10
-214.65
 11
-214.972
 20
214.332
 21
214.116
  0
LINE
  8
0
 10
-214.972
 11
-215.313
 20
214.116
 21
213.934
  0
LINE
  8
0
 10
-215.313
 11
-215.671
 20
213.934
 21
213.786
  0
LINE
  8
0
 10
-215.671
 11
-216.042
 20
213.786
 21
213.673
  0
LINE
  8
0
 10
-216.042
 11
-216.421
 20
213.673
 21
213.598
  0
LINE
  8
0
 10
-216.421
 11
-216.806
 20
213.598
 21
213.56
  0
LINE
  8
0
 10
-216.806
 11
-217.194
 20
213.56
 21
213.56
  0
LINE
  8
0
 10
-217.194
 11
-217.579
 20
213.56
 21
213.598
  0
LINE
  8
0
 10
-217.579
 11
-217.958
 20
213.598
 21
213.673
  0
LINE
  8
0
 10
-217.958
 11
-218.329
 20
213.673
 21
213.786
  0
LINE
  8
0
 10
-218.329
 11
-218.687
 20
213.786
 21
213.934
  0
LINE
  8
0
 10
-218.687
 11
-219.028
 20
213.934
 21
214.116
  0
LINE
  8
0
 10
-219.028
 11
-219.35
 20
214.116
 21
214.332
  0
LINE
  8
0
 10
-219.35
 11
-219.649
 20
214.332
 21
214.577
  0
LINE
  8
0
 10
-219.649
 11
-219.923
 20
214.577
 21
214.851
  0
LINE
  8
0
 10
-219.923
 11
-220.168
 20
214.851
 21
215.15
  0
LINE
  8
0
 10
-220.168
 11
-220.384
 20
215.15
 21
215.472
  0
LINE
  8
0
 10
-220.384
 11
-220.566
 20
215.472
 21
215.813
  0
LINE
  8
0
 10
-220.566
 11
-220.714
 20
215.813
 21
216.171
  0
LINE
  8
0
 10
-220.714
 11
-220.827
 20
216.171
 21
216.542
  0
LINE
  8
0
 10
-220.827
 11
-220.902
 20
216.542
 21
216.921
  0
LINE
  8
0
 10
-220.902
 11
-220.94
 20
216.921
 21
217.306
  0
LINE
  8
0
 10
-192.45
 11
-192.45
 20
298.75
 21
405.25
  0
LINE
  8
0
 10
-192.45
 11
-49.4
 20
405.25
 21
405.25
  0
LINE
  8
0
 10
-49.4
 11
-49.4
 20
405.25
 21
298.75
  0
LINE
  8
0
 10
-49.4
 11
-192.45
 20
298.75
 21
298.75
  0
LINE
  8
0
 10
-169.25
 11
-169.25
 20
210.879
 21
212.121
  0
LINE
  8
0
 10
-169.25
 11
-168.371
 20
212.121
 21
213
  0
LINE
  8
0
 10
-168.371
 11
-167.129
 20
213
 21
213
  0
LINE
  8
0
 10
-167.129
 11
-166.25
 20
213
 21
212.121
  0
LINE
  8
0
 10
-166.25
 11
-166.25
 20
212.121
 21
210.879
  0
LINE
  8
0
 10
-166.25
 11
-167.129
 20
210.879
 21
210
  0
LINE
  8
0
 10
-167.129
 11
-168.371
 20
210
 21
210
  0
LINE
  8
0
 10
-168.371
 11
-169.25
 20
210
 21
210.879
  0
LINE
  8
0
 10
-147.75
 11
-147.75
 20
210.879
 21
212.121
  0
LINE
  8
0
 10
-147.75
 11
-146.871
 20
212.121
 21
213
  0
LINE
  8
0
 10
-146.871
 11
-145.629
 20
213
 21
213
  0
LINE
  8
0
 10
-145.629
 11
-144.75
 20
213
 21
212.121
  0
LINE
  8
0
 10
-144.75
 11
-144.75
 20
212.121
 21
210.879
  0
LINE
  8
0
 10
-144.75
 11
-145.629
 20
210.879
 21
210
  0
LINE
  8
0
 10
-145.629
 11
-146.871
 20
210
 21
210
  0
LINE
  8
0
 10
-146.871
 11
-147.75
 20
210
 21
210.879
  0
LINE
  8
0
 10
-100.94
 11
-100.94
 20
217.306
 21
217.694
  0
LINE
  8
0
 10
-100.94
 11
-100.902
 20
217.694
 21
218.079
  0
LINE
  8
0
 10
-100.902
 11
-100.827
 20
218.079
 21
218.458
  0
LINE
  8
0
 10
-100.827
 11
-100.714
 20
218.458
 21
218.829
  0
LINE
  8
0
 10
-100.714
 11
-100.566
 20
218.829
 21
219.187
  0
LINE
  8
0
 10
-100.566
 11
-100.384
 20
219.187
 21
219.528
  0
LINE
  8
0
 10
-100.384
 11
-100.168
 20
219.528
 21
219.85
  0
LINE
  8
0
 10
-100.168
 11
-99.923
 20
219.85
 21
220.149
  0
LINE
  8
0
 10
-99.923
 11
-99.649
 20
220.149
 21
220.423
  0
LINE
  8
0
 10
-99.649
 11
-99.35
 20
220.423
 21
220.668
  0
LINE
  8
0
 10
-99.35
 11
-99.028
 20
220.668
 21
220.884
  0
LINE
  8
0
 10
-99.028
 11
-98.687
 20
220.884
 21
221.066
  0
LINE
  8
0
 10
-98.687
 11
-98.329
 20
221.066
 21
221.214
  0
LINE
  8
0
 10
-98.329
 11
-97.958
 20
221.214
 21
221.327
  0
LINE
  8
0
 10
-97.958
 11
-97.579
 20
221.327
 21
221.402
  0
LINE
  8
0
 10
-97.579
 11
-97.194
 20
221.402
 21
221.44
  0
LINE
  8
0
 10
-97.194
 11
-96.806
 20
221.44
 21
221.44
  0
LINE
  8
0
 10
-96.806
 11
-96.421
 20
221.44
 21
221.402
  0
LINE
  8
0
 10
-96.421
 11
-96.042
 20
221.402
 21
221.327
  0
LINE
  8
0
 10
-96.042
 11
-95.671
 20
221.327
 21
221.214
  0
LINE
  8
0
 10
-95.671
 11
-95.313
 20
221.214
 21
221.066
  0
LINE
  8
0
 10
-95.313
 11
-94.972
 20
221.066
 21
220.884
  0
LINE
  8
0
 10
-94.972
 11
-94.65
 20
220.884
 21
220.668
  0
LINE
  8
0
 10
-94.65
 11
-94.351
 20
220.668
 21
220.423
  0
LINE
  8
0
 10
-94.351
 11
-94.077
 20
220.423
 21
220.149
  0
LINE
  8
0
 10
-94.077
 11
-93.832
 20
220.149
 21
219.85
  0
LINE
  8
0
 10
-93.832
 11
-93.616
 20
219.85
 21
219.528
  0
LINE
  8
0
 10
-93.616
 11
-93.434
 20
219.528
 21
219.187
  0
LINE
  8
0
 10
-93.434
 11
-93.286
 20
219.187
 21
218.829
  0
LINE
  8
0
 10
-93.286
 11
-93.173
 20
218.829
 21
218.458
  0
LINE
  8
0
 10
-93.173
 11
-93.098
 20
218.458
 21
218.079
  0
LINE
  8
0
 10
-93.098
 11
-93.06
 20
218.079
 21
217.694
  0
LINE
  8
0
 10
-93.06
 11
-93.06
 20
217.694
 21
217.306
  0
LINE
  8
0
 10
-93.06
 11
-93.098
 20
217.306
 21
216.921
  0
LINE
  8
0
 10
-93.098
 11
-93.173
 20
216.921
 21
216.542
  0
LINE
  8
0
 10
-93.173
 11
-93.286
 20
216.542
 21
216.171
  0
LINE
  8
0
 10
-93.286
 11
-93.434
 20
216.171
 21
215.813
  0
LINE
  8
0
 10
-93.434
 11
-93.616
 20
215.813
 21
215.472
  0
LINE
  8
0
 10
-93.616
 11
-93.832
 20
215.472
 21
215.15
  0
LINE
  8
0
 10
-93.832
 11
-94.077
 20
215.15
 21
214.851
  0
LINE
  8
0
 10
-94.077
 11
-94.351
 20
214.851
 21
214.577
  0
LINE
  8
0
 10
-94.351
 11
-94.65
 20
214.577
 21
214.332
  0
LINE
  8
0
 10
-94.65
 11
-94.972
 20
214.332
 21
214.116
  0
LINE
  8
0
 10
-94.972
 11
-95.313
 20
214.116
 21
213.934
  0
LINE
  8
0
 10
-95.313
 11
-95.671
 20
213.934
 21
213.786
  0
LINE
  8
0
 10
-95.671
 11
-96.042
 20
213.786
 21
213.673
  0
LINE
  8
0
 10
-96.042
 11
-96.421
 20
213.673
 21
213.598
  0
LINE
  8
0
 10
-96.421
 11
-96.806
 20
213.598
 21
213.56
  0
LINE
  8
0
 10
-96.806
 11
-97.194
 20
213.56
 21
213.56
  0
LINE
  8
0
 10
-97.194
 11
-97.579
 20
213.56
 21
213.598
  0
LINE
  8
0
 10
-97.579
 11
-97.958
 20
213.598
 21
213.673
  0
LINE
  8
0
 10
-97.958
 11
-98.329
 20
213.673
 21
213.786
  0
LINE
  8
0
 10
-98.329
 11
-98.687
 20
213.786
 21
213.934
  0
LINE
  8
0
 10
-98.687
 11
-99.028
 20
213.934
 21
214.116
  0
LINE
  8
0
 10
-99.028
 11
-99.35
 20
214.116
 21
214.332
  0
LINE
  8
0
 10
-99.35
 11
-99.649
 20
214.332
 21
214.577
  0
LINE
  8
0
 10
-99.649
 11
-99.923
 20
214.577
 21
214.851
  0
LINE
  8
0
 10
-99.923
 11
-100.168
 20
214.851
 21
215.15
  0
LINE
  8
0
 10
-100.168
 11
-100.384
 20
215.15
 21
215.472
  0
LINE
  8
0
 10
-100.384
 11
-100.566
 20
215.472
 21
215.813
  0
LINE
  8
0
 10
-100.566
 11
-100.714
 20
215.813
 21
216.171
  0
LINE
  8
0
 10
-100.714
 11
-100.827
 20
216.171
 21
216.542
  0
LINE
  8
0
 10
-100.827
 11
-100.902
 20
216.542
 21
216.921
  0
LINE
  8
0
 10
-100.902
 11
-100.94
 20
216.921
 21
217.306
  0
LINE
  8
0
 10
-43.385
 11
-43.385
 20
253.54
 21
261.46
  0
LINE
  8
0
 10
-43.385
 11
-37.415
 20
261.46
 21
261.46
  0
LINE
  8
0
 10
-37.415
 11
-37.415
 20
261.46
 21
253.54
  0
LINE
  8
0
 10
-37.415
 11
-43.385
 20
253.54
 21
253.54
  0
LINE
  8
0
 10
-43.385
 11
-43.385
 20
281.54
 21
289.46
  0
LINE
  8
0
 10
-43.385
 11
-37.415
 20
289.46
 21
289.46
  0
LINE
  8
0
 10
-37.415
 11
-37.415
 20
289.46
 21
281.54
  0
LINE
  8
0
 10
-37.415
 11
-43.385
 20
281.54
 21
281.54
  0
LINE
  8
0
 10
-43.385
 11
-43.385
 20
414.54
 21
422.46
  0
LINE
  8
0
 10
-43.385
 11
-37.415
 20
422.46
 21
422.46
  0
LINE
  8
0
 10
-37.415
 11
-37.415
 20
422.46
 21
414.54
  0
LINE
  8
0
 10
-37.415
 11
-43.385
 20
414.54
 21
414.54
  0
LINE
  8
0
 10
-43.385
 11
-43.385
 20
442.54
 21
450.46
  0
LINE
  8
0
 10
-43.385
 11
-37.415
 20
450.46
 21
450.46
  0
LINE
  8
0
 10
-37.415
 11
-37.415
 20
450.46
 21
442.54
  0
LINE
  8
0
 10
-37.415
 11
-43.385
 20
442.54
 21
442.54
  0
LINE
  8
0
 10
-41.8
 11
-41.8
 20
270.92
 21
272.08
  0
LINE
  8
0
 10
-41.8
 11
-40.98
 20
272.08
 21
272.9
  0
LINE
  8
0
 10
-40.98
 11
-39.82
 20
272.9
 21
272.9
  0
LINE
  8
0
 10
-39.82
 11
-39
 20
272.9
 21
272.08
  0
LINE
  8
0
 10
-39
 11
-39
 20
272.08
 21
270.92
  0
LINE
  8
0
 10
-39
 11
-39.82
 20
270.92
 21
270.1
  0
LINE
  8
0
 10
-39.82
 11
-40.98
 20
270.1
 21
270.1
  0
LINE
  8
0
 10
-40.98
 11
-41.8
 20
270.1
 21
270.92
  0
LINE
  8
0
 10
-41.8
 11
-41.8
 20
431.92
 21
433.08
  0
LINE
  8
0
 10
-41.8
 11
-40.98
 20
433.08
 21
433.9
  0
LINE
  8
0
 10
-40.98
 11
-39.82
 20
433.9
 21
433.9
  0
LINE
  8
0
 10
-39.82
 11
-39
 20
433.9
 21
433.08
  0
LINE
  8
0
 10
-39
 11
-39
 20
433.08
 21
431.92
  0
LINE
  8
0
 10
-39
 11
-39.82
 20
431.92
 21
431.1
  0
LINE
  8
0
 10
-39.82
 11
-40.98
 20
431.1
 21
431.1
  0
LINE
  8
0
 10
-40.98
 11
-41.8
 20
431.1
 21
431.92
  0
LINE
  8
0
 10
-12.485
 11
-12.485
 20
27.54
 21
35.46
  0
LINE
  8
0
 10
-12.485
 11
-6.54
 20
35.46
 21
35.46
  0
LINE
  8
0
 10
-6.54
 11
-6.54
 20
35.46
 21
44.14
  0
LINE
  8
0
 10
-6.54
 11
-2.56
 20
44.14
 21
44.14
  0
LINE
  8
0
 10
-2.56
 11
-2.56
 20
44.14
 21
42.79
  0
LINE
  8
0
 10
-2.56
 11
-0.64
 20
42.79
 21
42.79
  0
LINE
  8
0
 10
-0.64
 11
-0.64
 20
42.79
 21
44.14
  0
LINE
  8
0
 10
-0.64
 11
1.45
 20
44.14
 21
44.14
  0
LINE
  8
0
 10
1.45
 11
1.45
 20
44.14
 21
46.86
  0
LINE
  8
0
 10
1.45
 11
-0.64
 20
46.86
 21
46.86
  0
LINE
  8
0
 10
-0.64
 11
-0.64
 20
46.86
 21
48.21
  0
LINE
  8
0
 10
-0.64
 11
-2.56
 20
48.21
 21
48.21
  0
LINE
  8
0
 10
-2.56
 11
-2.56
 20
48.21
 21
46.86
  0
LINE
  8
0
 10
-2.56
 11
-6.54
 20
46.86
 21
46.86
  0
LINE
  8
0
 10
-6.54
 11
-6.54
 20
46.86
 21
55.54
  0
LINE
  8
0
 10
-6.54
 11
-12.485
 20
55.54
 21
55.54
  0
LINE
  8
0
 10
-12.485
 11
-12.485
 20
55.54
 21
63.46
  0
LINE
  8
0
 10
-12.485
 11
-6.54
 20
63.46
 21
63.46
  0
LINE
  8
0
 10
-6.54
 11
-6.54
 20
63.46
 21
188.54
  0
LINE
  8
0
 10
-6.54
 11
-12.485
 20
188.54
 21
188.54
  0
LINE
  8
0
 10
-12.485
 11
-12.485
 20
188.54
 21
196.46
  0
LINE
  8
0
 10
-12.485
 11
-6.54
 20
196.46
 21
196.46
  0
LINE
  8
0
 10
-6.54
 11
-6.54
 20
196.46
 21
205.14
  0
LINE
  8
0
 10
-6.54
 11
-2.56
 20
205.14
 21
205.14
  0
LINE
  8
0
 10
-2.56
 11
-2.56
 20
205.14
 21
203.79
  0
LINE
  8
0
 10
-2.56
 11
-0.64
 20
203.79
 21
203.79
  0
LINE
  8
0
 10
-0.64
 11
-0.64
 20
203.79
 21
205.14
  0
LINE
  8
0
 10
-0.64
 11
1.45
 20
205.14
 21
205.14
  0
LINE
  8
0
 10
1.45
 11
1.45
 20
205.14
 21
207.86
  0
LINE
  8
0
 10
1.45
 11
-0.64
 20
207.86
 21
207.86
  0
LINE
  8
0
 10
-0.64
 11
-0.64
 20
207.86
 21
209.21
  0
LINE
  8
0
 10
-0.64
 11
-2.56
 20
209.21
 21
209.21
  0
LINE
  8
0
 10
-2.56
 11
-2.56
 20
209.21
 21
207.86
  0
LINE
  8
0
 10
-2.56
 11
-6.54
 20
207.86
 21
207.86
  0
LINE
  8
0
 10
-6.54
 11
-6.54
 20
207.86
 21
216.54
  0
LINE
  8
0
 10
-6.54
 11
-12.485
 20
216.54
 21
216.54
  0
LINE
  8
0
 10
-12.485
 11
-12.485
 20
216.54
 21
224.46
  0
LINE
  8
0
 10
-12.485
 11
-6.54
 20
224.46
 21
224.46
  0
LINE
  8
0
 10
-6.54
 11
-6.54
 20
224.46
 21
232.54
  0
LINE
  8
0
 10
-6.54
 11
1.54
 20
232.54
 21
232.54
  0
LINE
  8
0
 10
1.54
 11
1.54
 20
232.54
 21
238.485
  0
LINE
  8
0
 10
1.54
 11
9.46
 20
238.485
 21
238.485
  0
LINE
  8
0
 10
9.46
 11
9.46
 20
238.485
 21
232.54
  0
LINE
  8
0
 10
9.46
 11
18.14
 20
232.54
 21
232.54
  0
LINE
  8
0
 10
18.14
 11
18.14
 20
232.54
 21
228.56
  0
LINE
  8
0
 10
18.14
 11
16.79
 20
228.56
 21
228.56
  0
LINE
  8
0
 10
16.79
 11
16.79
 20
228.56
 21
226.64
  0
LINE
  8
0
 10
16.79
 11
18.14
 20
226.64
 21
226.64
  0
LINE
  8
0
 10
18.14
 11
18.14
 20
226.64
 21
224.55
  0
LINE
  8
0
 10
18.14
 11
20.86
 20
224.55
 21
224.55
  0
LINE
  8
0
 10
20.86
 11
20.86
 20
224.55
 21
226.64
  0
LINE
  8
0
 10
20.86
 11
22.21
 20
226.64
 21
226.64
  0
LINE
  8
0
 10
22.21
 11
22.21
 20
226.64
 21
228.56
  0
LINE
  8
0
 10
22.21
 11
20.86
 20
228.56
 21
228.56
  0
LINE
  8
0
 10
20.86
 11
20.86
 20
228.56
 21
232.54
  0
LINE
  8
0
 10
20.86
 11
29.54
 20
232.54
 21
232.54
  0
LINE
  8
0
 10
29.54
 11
29.54
 20
232.54
 21
238.485
  0
LINE
  8
0
 10
29.54
 11
37.46
 20
238.485
 21
238.485
  0
LINE
  8
0
 10
37.46
 11
37.46
 20
238.485
 21
232.54
  0
LINE
  8
0
 10
37.46
 11
112.04
 20
232.54
 21
232.54
  0
LINE
  8
0
 10
112.04
 11
112.04
 20
232.54
 21
238.485
  0
LINE
  8
0
 10
112.04
 11
119.96
 20
238.485
 21
238.485
  0
LINE
  8
0
 10
119.96
 11
119.96
 20
238.485
 21
232.54
  0
LINE
  8
0
 10
119.96
 11
128.64
 20
232.54
 21
232.54
  0
LINE
  8
0
 10
128.64
 11
128.64
 20
232.54
 21
228.56
  0
LINE
  8
0
 10
128.64
 11
127.29
 20
228.56
 21
228.56
  0
LINE
  8
0
 10
127.29
 11
127.29
 20
228.56
 21
226.64
  0
LINE
  8
0
 10
127.29
 11
128.64
 20
226.64
 21
226.64
  0
LINE
  8
0
 10
128.64
 11
128.64
 20
226.64
 21
224.55
  0
LINE
  8
0
 10
128.64
 11
131.36
 20
224.55
 21
224.55
  0
LINE
  8
0
 10
131.36
 11
131.36
 20
224.55
 21
226.64
  0
LINE
  8
0
 10
131.36
 11
132.71
 20
226.64
 21
226.64
  0
LINE
  8
0
 10
132.71
 11
132.71
 20
226.64
 21
228.56
  0
LINE
  8
0
 10
132.71
 11
131.36
 20
228.56
 21
228.56
  0
LINE
  8
0
 10
131.36
 11
131.36
 20
228.56
 21
232.54
  0
LINE
  8
0
 10
131.36
 11
140.04
 20
232.54
 21
232.54
  0
LINE
  8
0
 10
140.04
 11
140.04
 20
232.54
 21
238.485
  0
LINE
  8
0
 10
140.04
 11
147.96
 20
238.485
 21
238.485
  0
LINE
  8
0
 10
147.96
 11
147.96
 20
238.485
 21
232.54
  0
LINE
  8
0
 10
147.96
 11
222.54
 20
232.54
 21
232.54
  0
LINE
  8
0
 10
222.54
 11
222.54
 20
232.54
 21
238.485
  0
LINE
  8
0
 10
222.54
 11
230.46
 20
238.485
 21
238.485
  0
LINE
  8
0
 10
230.46
 11
230.46
 20
238.485
 21
232.54
  0
LINE
  8
0
 10
230.46
 11
239.14
 20
232.54
 21
232.54
  0
LINE
  8
0
 10
239.14
 11
239.14
 20
232.54
 21
228.56
  0
LINE
  8
0
 10
239.14
 11
237.79
 20
228.56
 21
228.56
  0
LINE
  8
0
 10
237.79
 11
237.79
 20
228.56
 21
226.64
  0
LINE
  8
0
 10
237.79
 11
239.14
 20
226.64
 21
226.64
  0
LINE
  8
0
 10
239.14
 11
239.14
 20
226.64
 21
224.55
  0
LINE
  8
0
 10
239.14
 11
241.86
 20
224.55
 21
224.55
  0
LINE
  8
0
 10
241.86
 11
241.86
 20
224.55
 21
226.64
  0
LINE
  8
0
 10
241.86
 11
243.21
 20
226.64
 21
226.64
  0
LINE
  8
0
 10
243.21
 11
243.21
 20
226.64
 21
228.56
  0
LINE
  8
0
 10
243.21
 11
241.86
 20
228.56
 21
228.56
  0
LINE
  8
0
 10
241.86
 11
241.86
 20
228.56
 21
232.54
  0
LINE
  8
0
 10
241.86
 11
250.54
 20
232.54
 21
232.54
  0
LINE
  8
0
 10
250.54
 11
250.54
 20
232.54
 21
238.485
  0
LINE
  8
0
 10
250.54
 11
258.46
 20
238.485
 21
238.485
  0
LINE
  8
0
 10
258.46
 11
258.46
 20
238.485
 21
232.54
  0
LINE
  8
0
 10
258.46
 11
266.54
 20
232.54
 21
232.54
  0
LINE
  8
0
 10
266.54
 11
266.54
 20
232.54
 21
224.46
  0
LINE
  8
0
 10
266.54
 11
272.485
 20
224.46
 21
224.46
  0
LINE
  8
0
 10
272.485
 11
272.485
 20
224.46
 21
216.54
  0
LINE
  8
0
 10
272.485
 11
266.54
 20
216.54
 21
216.54
  0
LINE
  8
0
 10
266.54
 11
266.54
 20
216.54
 21
207.86
  0
LINE
  8
0
 10
266.54
 11
262.56
 20
207.86
 21
207.86
  0
LINE
  8
0
 10
262.56
 11
262.56
 20
207.86
 21
209.21
  0
LINE
  8
0
 10
262.56
 11
260.64
 20
209.21
 21
209.21
  0
LINE
  8
0
 10
260.64
 11
260.64
 20
209.21
 21
207.86
  0
LINE
  8
0
 10
260.64
 11
258.55
 20
207.86
 21
207.86
  0
LINE
  8
0
 10
258.55
 11
258.55
 20
207.86
 21
205.14
  0
LINE
  8
0
 10
258.55
 11
260.64
 20
205.14
 21
205.14
  0
LINE
  8
0
 10
260.64
 11
260.64
 20
205.14
 21
203.79
  0
LINE
  8
0
 10
260.64
 11
262.56
 20
203.79
 21
203.79
  0
LINE
  8
0
 10
262.56
 11
262.56
 20
203.79
 21
205.14
  0
LINE
  8
0
 10
262.56
 11
266.54
 20
205.14
 21
205.14
  0
LINE
  8
0
 10
266.54
 11
266.54
 20
205.14
 21
196.46
  0
LINE
  8
0
 10
266.54
 11
272.485
 20
196.46
 21
196.46
  0
LINE
  8
0
 10
272.485
 11
272.485
 20
196.46
 21
188.54
  0
LINE
  8
0
 10
272.485
 11
266.54
 20
188.54
 21
188.54
  0
LINE
  8
0
 10
266.54
 11
266.54
 20
188.54
 21
63.46
  0
LINE
  8
0
 10
266.54
 11
272.485
 20
63.46
 21
63.46
  0
LINE
  8
0
 10
272.485
 11
272.485
 20
63.46
 21
55.54
  0
LINE
  8
0
 10
272.485
 11
266.54
 20
55.54
 21
55.54
  0
LINE
  8
0
 10
266.54
 11
266.54
 20
55.54
 21
46.86
  0
LINE
  8
0
 10
266.54
 11
262.56
 20
46.86
 21
46.86
  0
LINE
  8
0
 10
262.56
 11
262.56
 20
46.86
 21
48.21
  0
LINE
  8
0
 10
262.56
 11
260.64
 20
48.21
 21
48.21
  0
LINE
  8
0
 10
260.64
 11
260.64
 20
48.21
 21
46.86
  0
LINE
  8
0
 10
260.64
 11
258.55
 20
46.86
 21
46.86
  0
LINE
  8
0
 10
258.55
 11
258.55
 20
46.86
 21
44.14
  0
LINE
  8
0
 10
258.55
 11
260.64
 20
44.14
 21
44.14
  0
LINE
  8
0
 10
260.64
 11
260.64
 20
44.14
 21
42.79
  0
LINE
  8
0
 10
260.64
 11
262.56
 20
42.79
 21
42.79
  0
LINE
  8
0
 10
262.56
 11
262.56
 20
42.79
 21
44.14
  0
LINE
  8
0
 10
262.56
 11
266.54
 20
44.14
 21
44.14
  0
LINE
  8
0
 10
266.54
 11
266.54
 20
44.14
 21
35.46
  0
LINE
  8
0
 10
266.54
 11
272.485
 20
35.46
 21
35.46
  0
LINE
  8
0
 10
272.485
 11
272.485
 20
35.46
 21
27.54
  0
LINE
  8
0
 10
272.485
 11
266.54
 20
27.54
 21
27.54
  0
LINE
  8
0
 10
266.54
 11
266.54
 20
27.54
 21
19.46
  0
LINE
  8
0
 10
266.54
 11
258.46
 20
19.46
 21
19.46
  0
LINE
  8
0
 10
258.46
 11
258.46
 20
19.46
 21
13.515
  0
LINE
  8
0
 10
258.46
 11
250.54
 20
13.515
 21
13.515
  0
LINE
  8
0
 10
250.54
 11
250.54
 20
13.515
 21
19.46
  0
LINE
  8
0
 10
250.54
 11
241.86
 20
19.46
 21
19.46
  0
LINE
  8
0
 10
241.86
 11
241.86
 20
19.46
 21
23.44
  0
LINE
  8
0
 10
241.86
 11
243.21
 20
23.44
 21
23.44
  0
LINE
  8
0
 10
243.21
 11
243.21
 20
23.44
 21
25.36
  0
LINE
  8
0
 10
243.21
 11
241.86
 20
25.36
 21
25.36
  0
LINE
  8
0
 10
241.86
 11
241.86
 20
25.36
 21
27.45
  0
LINE
  8
0
 10
241.86
 11
239.14
 20
27.45
 21
27.45
  0
LINE
  8
0
 10
239.14
 11
239.14
 20
27.45
 21
25.36
  0
LINE
  8
0
 10
239.14
 11
237.79
 20
25.36
 21
25.36
  0
LINE
  8
0
 10
237.79
 11
237.79
 20
25.36
 21
23.44
  0
LINE
  8
0
 10
237.79
 11
239.14
 20
23.44
 21
23.44
  0
LINE
  8
0
 10
239.14
 11
239.14
 20
23.44
 21
19.46
  0
LINE
  8
0
 10
239.14
 11
230.46
 20
19.46
 21
19.46
  0
LINE
  8
0
 10
230.46
 11
230.46
 20
19.46
 21
13.515
  0
LINE
  8
0
 10
230.46
 11
222.54
 20
13.515
 21
13.515
  0
LINE
  8
0
 10
222.54
 11
222.54
 20
13.515
 21
19.46
  0
LINE
  8
0
 10
222.54
 11
147.96
 20
19.46
 21
19.46
  0
LINE
  8
0
 10
147.96
 11
147.96
 20
19.46
 21
13.515
  0
LINE
  8
0
 10
147.96
 11
140.04
 20
13.515
 21
13.515
  0
LINE
  8
0
 10
140.04
 11
140.04
 20
13.515
 21
19.46
  0
LINE
  8
0
 10
140.04
 11
131.36
 20
19.46
 21
19.46
  0
LINE
  8
0
 10
131.36
 11
131.36
 20
19.46
 21
23.44
  0
LINE
  8
0
 10
131.36
 11
132.71
 20
23.44
 21
23.44
  0
LINE
  8
0
 10
132.71
 11
132.71
 20
23.44
 21
25.36
  0
LINE
  8
0
 10
132.71
 11
131.36
 20
25.36
 21
25.36
  0
LINE
  8
0
 10
131.36
 11
131.36
 20
25.36
 21
27.45
  0
LINE
  8
0
 10
131.36
 11
128.64
 20
27.45
 21
27.45
  0
LINE
  8
0
 10
128.64
 11
128.64
 20
27.45
 21
25.36
  0
LINE
  8
0
 10
128.64
 11
127.29
 20
25.36
 21
25.36
  0
LINE
  8
0
 10
127.29
 11
127.29
 20
25.36
 21
23.44
  0
LINE
  8
0
 10
127.29
 11
128.64
 20
23.44
 21
23.44
  0
LINE
  8
0
 10
128.64
 11
128.64
 20
23.44
 21
19.46
  0
LINE
  8
0
 10
128.64
 11
119.96
 20
19.46
 21
19.46
  0
LINE
  8
0
 10
119.96
 11
119.96
 20
19.46
 21
13.515
  0
LINE
  8
0
 10
119.96
 11
112.04
 20
13.515
 21
13.515
  0
LINE
  8
0
 10
112.04
 11
112.04
 20
13.515
 21
19.46
  0
LINE
  8
0
 10
112.04
 11
37.46
 20
19.46
 21
19.46
  0
LINE
  8
0
 10
37.46
 11
37.46
 20
19.46
 21
13.515
  0
LINE
  8
0
 10
37.46
 11
29.54
 20
13.515
 21
13.515
  0
LINE
  8
0
 10
29.54
 11
29.54
 20
13.515
 21
19.46
  0
LINE
  8
0
 10
29.54
 11
20.86
 20
19.46
 21
19.46
  0
LINE
  8
0
 10
20.86
 11
20.86
 20
19.46
 21
23.44
  0
LINE
  8
0
 10
20.86
 11
22.21
 20
23.44
 21
23.44
  0
LINE
  8
0
 10
22.21
 11
22.21
 20
23.44
 21
25.36
  0
LINE
  8
0
 10
22.21
 11
20.86
 20
25.36
 21
25.36
  0
LINE
  8
0
 10
20.86
 11
20.86
 20
25.36
 21
27.45
  0
LINE
  8
0
 10
20.86
 11
18.14
 20
27.45
 21
27.45
  0
LINE
  8
0
 10
18.14
 11
18.14
 20
27.45
 21
25.36
  0
LINE
  8
0
 10
18.14
 11
16.79
 20
25.36
 21
25.36
  0
LINE
  8
0
 10
16.79
 11
16.79
 20
25.36
 21
23.44
  0
LINE
  8
0
 10
16.79
 11
18.14
 20
23.44
 21
23.44
  0
LINE
  8
0
 10
18.14
 11
18.14
 20
23.44
 21
19.46
  0
LINE
  8
0
 10
18.14
 11
9.46
 20
19.46
 21
19.46
  0
LINE
  8
0
 10
9.46
 11
9.46
 20
19.46
 21
13.515
  0
LINE
  8
0
 10
9.46
 11
1.54
 20
13.515
 21
13.515
  0
LINE
  8
0
 10
1.54
 11
1.54
 20
13.515
 21
19.46
  0
LINE
  8
0
 10
1.54
 11
-6.54
 20
19.46
 21
19.46
  0
LINE
  8
0
 10
-6.54
 11
-6.54
 20
19.46
 21
27.54
  0
LINE
  8
0
 10
-6.54
 11
-12.485
 20
27.54
 21
27.54
  0
LINE
  8
0
 10
0.56
 11
0.56
 20
245.46
 21
458.54
  0
LINE
  8
0
 10
0.56
 11
8.64
 20
458.54
 21
458.54
  0
LINE
  8
0
 10
8.64
 11
8.64
 20
458.54
 21
464.485
  0
LINE
  8
0
 10
8.64
 11
16.56
 20
464.485
 21
464.485
  0
LINE
  8
0
 10
16.56
 11
16.56
 20
464.485
 21
458.54
  0
LINE
  8
0
 10
16.56
 11
25.24
 20
458.54
 21
458.54
  0
LINE
  8
0
 10
25.24
 11
25.24
 20
458.54
 21
454.56
  0
LINE
  8
0
 10
25.24
 11
23.89
 20
454.56
 21
454.56
  0
LINE
  8
0
 10
23.89
 11
23.89
 20
454.56
 21
452.64
  0
LINE
  8
0
 10
23.89
 11
25.24
 20
452.64
 21
452.64
  0
LINE
  8
0
 10
25.24
 11
25.24
 20
452.64
 21
450.55
  0
LINE
  8
0
 10
25.24
 11
27.96
 20
450.55
 21
450.55
  0
LINE
  8
0
 10
27.96
 11
27.96
 20
450.55
 21
452.64
  0
LINE
  8
0
 10
27.96
 11
29.31
 20
452.64
 21
452.64
  0
LINE
  8
0
 10
29.31
 11
29.31
 20
452.64
 21
454.56
  0
LINE
  8
0
 10
29.31
 11
27.96
 20
454.56
 21
454.56
  0
LINE
  8
0
 10
27.96
 11
27.96
 20
454.56
 21
458.54
  0
LINE
  8
0
 10
27.96
 11
36.64
 20
458.54
 21
458.54
  0
LINE
  8
0
 10
36.64
 11
36.64
 20
458.54
 21
464.485
  0
LINE
  8
0
 10
36.64
 11
44.56
 20
464.485
 21
464.485
  0
LINE
  8
0
 10
44.56
 11
44.56
 20
464.485
 21
458.54
  0
LINE
  8
0
 10
44.56
 11
125.69
 20
458.54
 21
458.54
  0
LINE
  8
0
 10
125.69
 11
125.69
 20
458.54
 21
464.485
  0
LINE
  8
0
 10
125.69
 11
133.61
 20
464.485
 21
464.485
  0
LINE
  8
0
 10
133.61
 11
133.61
 20
464.485
 21
458.54
  0
LINE
  8
0
 10
133.61
 11
142.29
 20
458.54
 21
458.54
  0
LINE
  8
0
 10
142.29
 11
142.29
 20
458.54
 21
454.56
  0
LINE
  8
0
 10
142.29
 11
140.94
 20
454.56
 21
454.56
  0
LINE
  8
0
 10
140.94
 11
140.94
 20
454.56
 21
452.64
  0
LINE
  8
0
 10
140.94
 11
142.29
 20
452.64
 21
452.64
  0
LINE
  8
0
 10
142.29
 11
142.29
 20
452.64
 21
450.55
  0
LINE
  8
0
 10
142.29
 11
145.01
 20
450.55
 21
450.55
  0
LINE
  8
0
 10
145.01
 11
145.01
 20
450.55
 21
452.64
  0
LINE
  8
0
 10
145.01
 11
146.36
 20
452.64
 21
452.64
  0
LINE
  8
0
 10
146.36
 11
146.36
 20
452.64
 21
454.56
  0
LINE
  8
0
 10
146.36
 11
145.01
 20
454.56
 21
454.56
  0
LINE
  8
0
 10
145.01
 11
145.01
 20
454.56
 21
458.54
  0
LINE
  8
0
 10
145.01
 11
153.69
 20
458.54
 21
458.54
  0
LINE
  8
0
 10
153.69
 11
153.69
 20
458.54
 21
464.485
  0
LINE
  8
0
 10
153.69
 11
161.61
 20
464.485
 21
464.485
  0
LINE
  8
0
 10
161.61
 11
161.61
 20
464.485
 21
458.54
  0
LINE
  8
0
 10
161.61
 11
242.74
 20
458.54
 21
458.54
  0
LINE
  8
0
 10
242.74
 11
242.74
 20
458.54
 21
464.485
  0
LINE
  8
0
 10
242.74
 11
250.66
 20
464.485
 21
464.485
  0
LINE
  8
0
 10
250.66
 11
250.66
 20
464.485
 21
458.54
  0
LINE
  8
0
 10
250.66
 11
259.34
 20
458.54
 21
458.54
  0
LINE
  8
0
 10
259.34
 11
259.34
 20
458.54
 21
454.56
  0
LINE
  8
0
 10
259.34
 11
257.99
 20
454.56
 21
454.56
  0
LINE
  8
0
 10
257.99
 11
257.99
 20
454.56
 21
452.64
  0
LINE
  8
0
 10
257.99
 11
259.34
 20
452.64
 21
452.64
  0
LINE
  8
0
 10
259.34
 11
259.34
 20
452.64
 21
450.55
  0
LINE
  8
0
 10
259.34
 11
262.06
 20
450.55
 21
450.55
  0
LINE
  8
0
 10
262.06
 11
262.06
 20
450.55
 21
452.64
  0
LINE
  8
0
 10
262.06
 11
263.41
 20
452.64
 21
452.64
  0
LINE
  8
0
 10
263.41
 11
263.41
 20
452.64
 21
454.56
  0
LINE
  8
0
 10
263.41
 11
262.06
 20
454.56
 21
454.56
  0
LINE
  8
0
 10
262.06
 11
262.06
 20
454.56
 21
458.54
  0
LINE
  8
0
 10
262.06
 11
270.74
 20
458.54
 21
458.54
  0
LINE
  8
0
 10
270.74
 11
270.74
 20
458.54
 21
464.485
  0
LINE
  8
0
 10
270.74
 11
278.66
 20
464.485
 21
464.485
  0
LINE
  8
0
 10
278.66
 11
278.66
 20
464.485
 21
458.54
  0
LINE
  8
0
 10
278.66
 11
296.74
 20
458.54
 21
458.54
  0
LINE
  8
0
 10
296.74
 11
296.74
 20
458.54
 21
245.46
  0
LINE
  8
0
 10
296.74
 11
278.66
 20
245.46
 21
245.46
  0
LINE
  8
0
 10
278.66
 11
278.66
 20
245.46
 21
239.515
  0
LINE
  8
0
 10
278.66
 11
270.74
 20
239.515
 21
239.515
  0
LINE
  8
0
 10
270.74
 11
270.74
 20
239.515
 21
245.46
  0
LINE
  8
0
 10
270.74
 11
262.06
 20
245.46
 21
245.46
  0
LINE
  8
0
 10
262.06
 11
262.06
 20
245.46
 21
249.44
  0
LINE
  8
0
 10
262.06
 11
263.41
 20
249.44
 21
249.44
  0
LINE
  8
0
 10
263.41
 11
263.41
 20
249.44
 21
251.36
  0
LINE
  8
0
 10
263.41
 11
262.06
 20
251.36
 21
251.36
  0
LINE
  8
0
 10
262.06
 11
262.06
 20
251.36
 21
253.45
  0
LINE
  8
0
 10
262.06
 11
259.34
 20
253.45
 21
253.45
  0
LINE
  8
0
 10
259.34
 11
259.34
 20
253.45
 21
251.36
  0
LINE
  8
0
 10
259.34
 11
257.99
 20
251.36
 21
251.36
  0
LINE
  8
0
 10
257.99
 11
257.99
 20
251.36
 21
249.44
  0
LINE
  8
0
 10
257.99
 11
259.34
 20
249.44
 21
249.44
  0
LINE
  8
0
 10
259.34
 11
259.34
 20
249.44
 21
245.46
  0
LINE
  8
0
 10
259.34
 11
250.66
 20
245.46
 21
245.46
  0
LINE
  8
0
 10
250.66
 11
250.66
 20
245.46
 21
239.515
  0
LINE
  8
0
 10
250.66
 11
242.74
 20
239.515
 21
239.515
  0
LINE
  8
0
 10
242.74
 11
242.74
 20
239.515
 21
245.46
  0
LINE
  8
0
 10
242.74
 11
161.61
 20
245.46
 21
245.46
  0
LINE
  8
0
 10
161.61
 11
161.61
 20
245.46
 21
239.515
  0
LINE
  8
0
 10
161.61
 11
153.69
 20
239.515
 21
239.515
  0
LINE
  8
0
 10
153.69
 11
153.69
 20
239.515
 21
245.46
  0
LINE
  8
0
 10
153.69
 11
145.01
 20
245.46
 21
245.46
  0
LINE
  8
0
 10
145.01
 11
145.01
 20
245.46
 21
249.44
  0
LINE
  8
0
 10
145.01
 11
146.36
 20
249.44
 21
249.44
  0
LINE
  8
0
 10
146.36
 11
146.36
 20
249.44
 21
251.36
  0
LINE
  8
0
 10
146.36
 11
145.01
 20
251.36
 21
251.36
  0
LINE
  8
0
 10
145.01
 11
145.01
 20
251.36
 21
253.45
  0
LINE
  8
0
 10
145.01
 11
142.29
 20
253.45
 21
253.45
  0
LINE
  8
0
 10
142.29
 11
142.29
 20
253.45
 21
251.36
  0
LINE
  8
0
 10
142.29
 11
140.94
 20
251.36
 21
251.36
  0
LINE
  8
0
 10
140.94
 11
140.94
 20
251.36
 21
249.44
  0
LINE
  8
0
 10
140.94
 11
142.29
 20
249.44
 21
249.44
  0
LINE
  8
0
 10
142.29
 11
142.29
 20
249.44
 21
245.46
  0
LINE
  8
0
 10
142.29
 11
133.61
 20
245.46
 21
245.46
  0
LINE
  8
0
 10
133.61
 11
133.61
 20
245.46
 21
239.515
  0
LINE
  8
0
 10
133.61
 11
125.69
 20
239.515
 21
239.515
  0
LINE
  8
0
 10
125.69
 11
125.69
 20
239.515
 21
245.46
  0
LINE
  8
0
 10
125.69
 11
44.56
 20
245.46
 21
245.46
  0
LINE
  8
0
 10
44.56
 11
44.56
 20
245.46
 21
239.515
  0
LINE
  8
0
 10
44.56
 11
36.64
 20
239.515
 21
239.515
  0
LINE
  8
0
 10
36.64
 11
36.64
 20
239.515
 21
245.46
  0
LINE
  8
0
 10
36.64
 11
27.96
 20
245.46
 21
245.46
  0
LINE
  8
0
 10
27.96
 11
27.96
 20
245.46
 21
249.44
  0
LINE
  8
0
 10
27.96
 11
29.31
 20
249.44
 21
249.44
  0
LINE
  8
0
 10
29.31
 11
29.31
 20
249.44
 21
251.36
  0
LINE
  8
0
 10
29.31
 11
27.96
 20
251.36
 21
251.36
  0
LINE
  8
0
 10
27.96
 11
27.96
 20
251.36
 21
253.45
  0
LINE
  8
0
 10
27.96
 11
25.24
 20
253.45
 21
253.45
  0
LINE
  8
0
 10
25.24
 11
25.24
 20
253.45
 21
251.36
  0
LINE
  8
0
 10
25.24
 11
23.89
 20
251.36
 21
251.36
  0
LINE
  8
0
 10
23.89
 11
23.89
 20
251.36
 21
249.44
  0
LINE
  8
0
 10
23.89
 11
25.24
 20
249.44
 21
249.44
  0
LINE
  8
0
 10
25.24
 11
25.24
 20
249.44
 21
245.46
  0
LINE
  8
0
 10
25.24
 11
16.56
 20
245.46
 21
245.46
  0
LINE
  8
0
 10
16.56
 11
16.56
 20
245.46
 21
239.515
  0
LINE
  8
0
 10
16.56
 11
8.64
 20
239.515
 21
239.515
  0
LINE
  8
0
 10
8.64
 11
8.64
 20
239.515
 21
245.46
  0
LINE
  8
0
 10
8.64
 11
0.56
 20
245.46
 21
245.46
  0
LINE
  8
0
 10
36.615
 11
36.615
 20
253.54
 21
261.46
  0
LINE
  8
0
 10
36.615
 11
42.585
 20
261.46
 21
261.46
  0
LINE
  8
0
 10
42.585
 11
42.585
 20
261.46
 21
253.54
  0
LINE
  8
0
 10
42.585
 11
36.615
 20
253.54
 21
253.54
  0
LINE
  8
0
 10
36.615
 11
36.615
 20
281.54
 21
289.46
  0
LINE
  8
0
 10
36.615
 11
42.585
 20
289.46
 21
289.46
  0
LINE
  8
0
 10
42.585
 11
42.585
 20
289.46
 21
281.54
  0
LINE
  8
0
 10
42.585
 11
36.615
 20
281.54
 21
281.54
  0
LINE
  8
0
 10
36.615
 11
36.615
 20
414.54
 21
422.46
  0
LINE
  8
0
 10
36.615
 11
42.585
 20
422.46
 21
422.46
  0
LINE
  8
0
 10
42.585
 11
42.585
 20
422.46
 21
414.54
  0
LINE
  8
0
 10
42.585
 11
36.615
 20
414.54
 21
414.54
  0
LINE
  8
0
 10
36.615
 11
36.615
 20
442.54
 21
450.46
  0
LINE
  8
0
 10
36.615
 11
42.585
 20
450.46
 21
450.46
  0
LINE
  8
0
 10
42.585
 11
42.585
 20
450.46
 21
442.54
  0
LINE
  8
0
 10
42.585
 11
36.615
 20
442.54
 21
442.54
  0
LINE
  8
0
 10
38.2
 11
38.2
 20
270.92
 21
272.08
  0
LINE
  8
0
 10
38.2
 11
39.02
 20
272.08
 21
272.9
  0
LINE
  8
0
 10
39.02
 11
40.18
 20
272.9
 21
272.9
  0
LINE
  8
0
 10
40.18
 11
41
 20
272.9
 21
272.08
  0
LINE
  8
0
 10
41
 11
41
 20
272.08
 21
270.92
  0
LINE
  8
0
 10
41
 11
40.18
 20
270.92
 21
270.1
  0
LINE
  8
0
 10
40.18
 11
39.02
 20
270.1
 21
270.1
  0
LINE
  8
0
 10
39.02
 11
38.2
 20
270.1
 21
270.92
  0
LINE
  8
0
 10
38.2
 11
38.2
 20
431.92
 21
433.08
  0
LINE
  8
0
 10
38.2
 11
39.02
 20
433.08
 21
433.9
  0
LINE
  8
0
 10
39.02
 11
40.18
 20
433.9
 21
433.9
  0
LINE
  8
0
 10
40.18
 11
41
 20
433.9
 21
433.08
  0
LINE
  8
0
 10
41
 11
41
 20
433.08
 21
431.92
  0
LINE
  8
0
 10
41
 11
40.18
 20
431.92
 21
431.1
  0
LINE
  8
0
 10
40.18
 11
39.02
 20
431.1
 21
431.1
  0
LINE
  8
0
 10
39.02
 11
38.2
 20
431.1
 21
431.92
  0
LINE
  8
0
 10
48.6
 11
48.6
 20
298.75
 21
405.25
  0
LINE
  8
0
 10
48.6
 11
191.65
 20
405.25
 21
405.25
  0
LINE
  8
0
 10
191.65
 11
191.65
 20
405.25
 21
298.75
  0
LINE
  8
0
 10
191.65
 11
48.6
 20
298.75
 21
298.75
  0
LINE
  8
0
 10
66.06
 11
66.06
 20
217.306
 21
217.694
  0
LINE
  8
0
 10
66.06
 11
66.098
 20
217.694
 21
218.079
  0
LINE
  8
0
 10
66.098
 11
66.173
 20
218.079
 21
218.458
  0
LINE
  8
0
 10
66.173
 11
66.286
 20
218.458
 21
218.829
  0
LINE
  8
0
 10
66.286
 11
66.434
 20
218.829
 21
219.187
  0
LINE
  8
0
 10
66.434
 11
66.616
 20
219.187
 21
219.528
  0
LINE
  8
0
 10
66.616
 11
66.832
 20
219.528
 21
219.85
  0
LINE
  8
0
 10
66.832
 11
67.077
 20
219.85
 21
220.149
  0
LINE
  8
0
 10
67.077
 11
67.351
 20
220.149
 21
220.423
  0
LINE
  8
0
 10
67.351
 11
67.65
 20
220.423
 21
220.668
  0
LINE
  8
0
 10
67.65
 11
67.972
 20
220.668
 21
220.884
  0
LINE
  8
0
 10
67.972
 11
68.313
 20
220.884
 21
221.066
  0
LINE
  8
0
 10
68.313
 11
68.671
 20
221.066
 21
221.214
  0
LINE
  8
0
 10
68.671
 11
69.042
 20
221.214
 21
221.327
  0
LINE
  8
0
 10
69.042
 11
69.421
 20
221.327
 21
221.402
  0
LINE
  8
0
 10
69.421
 11
69.806
 20
221.402
 21
221.44
  0
LINE
  8
0
 10
69.806
 11
70.194
 20
221.44
 21
221.44
  0
LINE
  8
0
 10
70.194
 11
70.579
 20
221.44
 21
221.402
  0
LINE
  8
0
 10
70.579
 11
70.958
 20
221.402
 21
221.327
  0
LINE
  8
0
 10
70.958
 11
71.329
 20
221.327
 21
221.214
  0
LINE
  8
0
 10
71.329
 11
71.687
 20
221.214
 21
221.066
  0
LINE
  8
0
 10
71.687
 11
72.028
 20
221.066
 21
220.884
  0
LINE
  8
0
 10
72.028
 11
72.35
 20
220.884
 21
220.668
  0
LINE
  8
0
 10
72.35
 11
72.649
 20
220.668
 21
220.423
  0
LINE
  8
0
 10
72.649
 11
72.923
 20
220.423
 21
220.149
  0
LINE
  8
0
 10
72.923
 11
73.168
 20
220.149
 21
219.85
  0
LINE
  8
0
 10
73.168
 11
73.384
 20
219.85
 21
219.528
  0
LINE
  8
0
 10
73.384
 11
73.566
 20
219.528
 21
219.187
  0
LINE
  8
0
 10
73.566
 11
73.714
 20
219.187
 21
218.829
  0
LINE
  8
0
 10
73.714
 11
73.827
 20
218.829
 21
218.458
  0
LINE
  8
0
 10
73.827
 11
73.902
 20
218.458
 21
218.079
  0
LINE
  8
0
 10
73.902
 11
73.94
 20
218.079
 21
217.694
  0
LINE
  8
0
 10
73.94
 11
73.94
 20
217.694
 21
217.306
  0
LINE
  8
0
 10
73.94
 11
73.902
 20
217.306
 21
216.921
  0
LINE
  8
0
 10
73.902
 11
73.827
 20
216.921
 21
216.542
  0
LINE
  8
0
 10
73.827
 11
73.714
 20
216.542
 21
216.171
  0
LINE
  8
0
 10
73.714
 11
73.566
 20
216.171
 21
215.813
  0
LINE
  8
0
 10
73.566
 11
73.384
 20
215.813
 21
215.472
  0
LINE
  8
0
 10
73.384
 11
73.168
 20
215.472
 21
215.15
  0
LINE
  8
0
 10
73.168
 11
72.923
 20
215.15
 21
214.851
  0
LINE
  8
0
 10
72.923
 11
72.649
 20
214.851
 21
214.577
  0
LINE
  8
0
 10
72.649
 11
72.35
 20
214.577
 21
214.332
  0
LINE
  8
0
 10
72.35
 11
72.028
 20
214.332
 21
214.116
  0
LINE
  8
0
 10
72.028
 11
71.687
 20
214.116
 21
213.934
  0
LINE
  8
0
 10
71.687
 11
71.329
 20
213.934
 21
213.786
  0
LINE
  8
0
 10
71.329
 11
70.958
 20
213.786
 21
213.673
  0
LINE
  8
0
 10
70.958
 11
70.579
 20
213.673
 21
213.598
  0
LINE
  8
0
 10
70.579
 11
70.194
 20
213.598
 21
213.56
  0
LINE
  8
0
 10
70.194
 11
69.806
 20
213.56
 21
213.56
  0
LINE
  8
0
 10
69.806
 11
69.421
 20
213.56
 21
213.598
  0
LINE
  8
0
 10
69.421
 11
69.042
 20
213.598
 21
213.673
  0
LINE
  8
0
 10
69.042
 11
68.671
 20
213.673
 21
213.786
  0
LINE
  8
0
 10
68.671
 11
68.313
 20
213.786
 21
213.934
  0
LINE
  8
0
 10
68.313
 11
67.972
 20
213.934
 21
214.116
  0
LINE
  8
0
 10
67.972
 11
67.65
 20
214.116
 21
214.332
  0
LINE
  8
0
 10
67.65
 11
67.351
 20
214.332
 21
214.577
  0
LINE
  8
0
 10
67.351
 11
67.077
 20
214.577
 21
214.851
  0
LINE
  8
0
 10
67.077
 11
66.832
 20
214.851
 21
215.15
  0
LINE
  8
0
 10
66.832
 11
66.616
 20
215.15
 21
215.472
  0
LINE
  8
0
 10
66.616
 11
66.434
 20
215.472
 21
215.813
  0
LINE
  8
0
 10
66.434
 11
66.286
 20
215.813
 21
216.171
  0
LINE
  8
0
 10
66.286
 11
66.173
 20
216.171
 21
216.542
  0
LINE
  8
0
 10
66.173
 11
66.098
 20
216.542
 21
216.921
  0
LINE
  8
0
 10
66.098
 11
66.06
 20
216.921
 21
217.306
  0
LINE
  8
0
 10
117.75
 11
117.75
 20
210.879
 21
212.121
  0
LINE
  8
0
 10
117.75
 11
118.629
 20
212.121
 21
213
  0
LINE
  8
0
 10
118.629
 11
119.871
 20
213
 21
213
  0
LINE
  8
0
 10
119.871
 11
120.75
 20
213
 21
212.121
  0
LINE
  8
0
 10
120.75
 11
120.75
 20
212.121
 21
210.879
  0
LINE
  8
0
 10
120.75
 11
119.871
 20
210.879
 21
210
  0
LINE
  8
0
 10
119.871
 11
118.629
 20
210
 21
210
  0
LINE
  8
0
 10
118.629
 11
117.75
 20
210
 21
210.879
  0
LINE
  8
0
 10
139.25
 11
139.25
 20
210.879
 21
212.121
  0
LINE
  8
0
 10
139.25
 11
140.129
 20
212.121
 21
213
  0
LINE
  8
0
 10
140.129
 11
141.371
 20
213
 21
213
  0
LINE
  8
0
 10
141.371
 11
142.25
 20
213
 21
212.121
  0
LINE
  8
0
 10
142.25
 11
142.25
 20
212.121
 21
210.879
  0
LINE
  8
0
 10
142.25
 11
141.371
 20
210.879
 21
210
  0
LINE
  8
0
 10
141.371
 11
140.129
 20
210
 21
210
  0
LINE
  8
0
 10
140.129
 11
139.25
 20
210
 21
210.879
  0
LINE
  8
0
 10
186.06
 11
186.06
 20
217.306
 21
217.694
  0
LINE
  8
0
 10
186.06
 11
186.098
 20
217.694
 21
218.079
  0
LINE
  8
0
 10
186.098
 11
186.173
 20
218.079
 21
218.458
  0
LINE
  8
0
 10
186.173
 11
186.286
 20
218.458
 21
218.829
  0
LINE
  8
0
 10
186.286
 11
186.434
 20
218.829
 21
219.187
  0
LINE
  8
0
 10
186.434
 11
186.616
 20
219.187
 21
219.528
  0
LINE
  8
0
 10
186.616
 11
186.832
 20
219.528
 21
219.85
  0
LINE
  8
0
 10
186.832
 11
187.077
 20
219.85
 21
220.149
  0
LINE
  8
0
 10
187.077
 11
187.351
 20
220.149
 21
220.423
  0
LINE
  8
0
 10
187.351
 11
187.65
 20
220.423
 21
220.668
  0
LINE
  8
0
 10
187.65
 11
187.972
 20
220.668
 21
220.884
  0
LINE
  8
0
 10
187.972
 11
188.313
 20
220.884
 21
221.066
  0
LINE
  8
0
 10
188.313
 11
188.671
 20
221.066
 21
221.214
  0
LINE
  8
0
 10
188.671
 11
189.042
 20
221.214
 21
221.327
  0
LINE
  8
0
 10
189.042
 11
189.421
 20
221.327
 21
221.402
  0
LINE
  8
0
 10
189.421
 11
189.806
 20
221.402
 21
221.44
  0
LINE
  8
0
 10
189.806
 11
190.194
 20
221.44
 21
221.44
  0
LINE
  8
0
 10
190.194
 11
190.579
 20
221.44
 21
221.402
  0
LINE
  8
0
 10
190.579
 11
190.958
 20
221.402
 21
221.327
  0
LINE
  8
0
 10
190.958
 11
191.329
 20
221.327
 21
221.214
  0
LINE
  8
0
 10
191.329
 11
191.687
 20
221.214
 21
221.066
  0
LINE
  8
0
 10
191.687
 11
192.028
 20
221.066
 21
220.884
  0
LINE
  8
0
 10
192.028
 11
192.35
 20
220.884
 21
220.668
  0
LINE
  8
0
 10
192.35
 11
192.649
 20
220.668
 21
220.423
  0
LINE
  8
0
 10
192.649
 11
192.923
 20
220.423
 21
220.149
  0
LINE
  8
0
 10
192.923
 11
193.168
 20
220.149
 21
219.85
  0
LINE
  8
0
 10
193.168
 11
193.384
 20
219.85
 21
219.528
  0
LINE
  8
0
 10
193.384
 11
193.566
 20
219.528
 21
219.187
  0
LINE
  8
0
 10
193.566
 11
193.714
 20
219.187
 21
218.829
  0
LINE
  8
0
 10
193.714
 11
193.827
 20
218.829
 21
218.458
  0
LINE
  8
0
 10
193.827
 11
193.902
 20
218.458
 21
218.079
  0
LINE
  8
0
 10
193.902
 11
193.94
 20
218.079
 21
217.694
  0
LINE
  8
0
 10
193.94
 11
193.94
 20
217.694
 21
217.306
  0
LINE
  8
0
 10
193.94
 11
193.902
 20
217.306
 21
216.921
  0
LINE
  8
0
 10
193.902
 11
193.827
 20
216.921
 21
216.542
  0
LINE
  8
0
 10
193.827
 11
193.714
 20
216.542
 21
216.171
  0
LINE
  8
0
 10
193.714
 11
193.566
 20
216.171
 21
215.813
  0
LINE
  8
0
 10
193.566
 11
193.384
 20
215.813
 21
215.472
  0
LINE
  8
0
 10
193.384
 11
193.168
 20
215.472
 21
215.15
  0
LINE
  8
0
 10
193.168
 11
192.923
 20
215.15
 21
214.851
  0
LINE
  8
0
 10
192.923
 11
192.649
 20
214.851
 21
214.577
  0
LINE
  8
0
 10
192.649
 11
192.35
 20
214.577
 21
214.332
  0
LINE
  8
0
 10
192.35
 11
192.028
 20
214.332
 21
214.116
  0
LINE
  8
0
 10
192.028
 11
191.687
 20
214.116
 21
213.934
  0
LINE
  8
0
 10
191.687
 11
191.329
 20
213.934
 21
213.786
  0
LINE
  8
0
 10
191.329
 11
190.958
 20
213.786
 21
213.673
  0
LINE
  8
0
 10
190.958
 11
190.579
 20
213.673
 21
213.598
  0
LINE
  8
0
 10
190.579
 11
190.194
 20
213.598
 21
213.56
  0
LINE
  8
0
 10
190.194
 11
189.806
 20
213.56
 21
213.56
  0
LINE
  8
0
 10
189.806
 11
189.421
 20
213.56
 21
213.598
  0
LINE
  8
0
 10
189.421
 11
189.042
 20
213.598
 21
213.673
  0
LINE
  8
0
 10
189.042
 11
188.671
 20
213.673
 21
213.786
  0
LINE
  8
0
 10
188.671
 11
188.313
 20
213.786
 21
213.934
  0
LINE
  8
0
 10
188.313
 11
187.972
 20
213.934
 21
214.116
  0
LINE
  8
0
 10
187.972
 11
187.65
 20
214.116
 21
214.332
  0
LINE
  8
0
 10
187.65
 11
187.351
 20
214.332
 21
214.577
  0
LINE
  8
0
 10
187.351
 11
187.077
 20
214.577
 21
214.851
  0
LINE
  8
0
 10
187.077
 11
186.832
 20
214.851
 21
215.15
  0
LINE
  8
0
 10
186.832
 11
186.616
 20
215.15
 21
215.472
  0
LINE
  8
0
 10
186.616
 11
186.434
 20
215.472
 21
215.813
  0
LINE
  8
0
 10
186.434
 11
186.286
 20
215.813
 21
216.171
  0
LINE
  8
0
 10
186.286
 11
186.173
 20
216.171
 21
216.542
  0
LINE
  8
0
 10
186.173
 11
186.098
 20
216.542
 21
216.921
  0
LINE
  8
0
 10
186.098
 11
186.06
 20
216.921
 21
217.306
  0
LINE
  8
0
 10
286.715
 11
286.715
 20
253.54
 21
261.46
  0
LINE
  8
0
 10
286.715
 11
292.685
 20
261.46
 21
261.46
  0
LINE
  8
0
 10
292.685
 11
292.685
 20
261.46
 21
253.54
  0
LINE
  8
0
 10
292.685
 11
286.715
 20
253.54
 21
253.54
  0
LINE
  8
0
 10
286.715
 11
286.715
 20
281.54
 21
289.46
  0
LINE
  8
0
 10
286.715
 11
292.685
 20
289.46
 21
289.46
  0
LINE
  8
0
 10
292.685
 11
292.685
 20
289.46
 21
281.54
  0
LINE
  8
0
 10
292.685
 11
286.715
 20
281.54
 21
281.54
  0
LINE
  8
0
 10
286.715
 11
286.715
 20
414.54
 21
422.46
  0
LINE
  8
0
 10
286.715
 11
292.685
 20
422.46
 21
422.46
  0
LINE
  8
0
 10
292.685
 11
292.685
 20
422.46
 21
414.54
  0
LINE
  8
0
 10
292.685
 11
286.715
 20
414.54
 21
414.54
  0
LINE
  8
0
 10
286.715
 11
286.715
 20
442.54
 21
450.46
  0
LINE
  8
0
 10
286.715
 11
292.685
 20
450.46
 21
450.46
  0
LINE
  8
0
 10
292.685
 11
292.685
 20
450.46
 21
442.54
  0
LINE
  8
0
 10
292.685
 11
286.715
 20
442.54
 21
442.54
  0
LINE
  8
0
 10
288.3
 11
288.3
 20
270.92
 21
272.08
  0
LINE
  8
0
 10
288.3
 11
289.12
 20
272.08
 21
272.9
  0
LINE
  8
0
 10
289.12
 11
290.28
 20
272.9
 21
272.9
  0
LINE
  8
0
 10
290.28
 11
291.1
 20
272.9
 21
272.08
  0
LINE
  8
0
 10
291.1
 11
291.1
 20
272.08
 21
270.92
  0
LINE
  8
0
 10
291.1
 11
290.28
 20
270.92
 21
270.1
  0
LINE
  8
0
 10
290.28
 11
289.12
 20
270.1
 21
270.1
  0
LINE
  8
0
 10
289.12
 11
288.3
 20
270.1
 21
270.92
  0
LINE
  8
0
 10
288.3
 11
288.3
 20
431.92
 21
433.08
  0
LINE
  8
0
 10
288.3
 11
289.12
 20
433.08
 21
433.9
  0
LINE
  8
0
 10
289.12
 11
290.28
 20
433.9
 21
433.9
  0
LINE
  8
0
 10
290.28
 11
291.1
 20
433.9
 21
433.08
  0
LINE
  8
0
 10
291.1
 11
291.1
 20
433.08
 21
431.92
  0
LINE
  8
0
 10
291.1
 11
290.28
 20
431.92
 21
431.1
  0
LINE
  8
0
 10
290.28
 11
289.12
 20
431.1
 21
431.1
  0
LINE
  8
0
 10
289.12
 11
288.3
 20
431.1
 21
431.92
  0
ENDSEC
  0
SECTION
  2
OBJECTS
  0
DICTIONARY
  0
ENDSEC
  0
EOF
