  0
SECTION
  2
BLOCKS
  0
ENDSEC
  0
SECTION
  2
ENTITIES
  0
LINE
  8
0
 10
-297.5
 11
-297.5
 20
245.5
 21
456.5
  0
LINE
  8
0
 10
-297.5
 11
-277.5
 20
456.5
 21
456.5
  0
LINE
  8
0
 10
-277.5
 11
-277.5
 20
456.5
 21
462.525
  0
LINE
  8
0
 10
-277.5
 11
-268.5
 20
462.525
 21
462.525
  0
LINE
  8
0
 10
-268.5
 11
-268.5
 20
462.525
 21
456.5
  0
LINE
  8
0
 10
-268.5
 11
-266.525
 20
456.5
 21
456.5
  0
LINE
  8
0
 10
-266.525
 11
-266.525
 20
456.5
 21
452.6
  0
LINE
  8
0
 10
-266.525
 11
-267.875
 20
452.6
 21
452.6
  0
LINE
  8
0
 10
-267.875
 11
-267.875
 20
452.6
 21
450.6
  0
LINE
  8
0
 10
-267.875
 11
-266.525
 20
450.6
 21
450.6
  0
LINE
  8
0
 10
-266.525
 11
-266.525
 20
450.6
 21
448.55
  0
LINE
  8
0
 10
-266.525
 11
-263.725
 20
448.55
 21
448.55
  0
LINE
  8
0
 10
-263.725
 11
-263.725
 20
448.55
 21
450.6
  0
LINE
  8
0
 10
-263.725
 11
-262.375
 20
450.6
 21
450.6
  0
LINE
  8
0
 10
-262.375
 11
-262.375
 20
450.6
 21
452.6
  0
LINE
  8
0
 10
-262.375
 11
-263.725
 20
452.6
 21
452.6
  0
LINE
  8
0
 10
-263.725
 11
-263.725
 20
452.6
 21
456.5
  0
LINE
  8
0
 10
-263.725
 11
-261.75
 20
456.5
 21
456.5
  0
LINE
  8
0
 10
-261.75
 11
-261.75
 20
456.5
 21
462.525
  0
LINE
  8
0
 10
-261.75
 11
-252.75
 20
462.525
 21
462.525
  0
LINE
  8
0
 10
-252.75
 11
-252.75
 20
462.525
 21
456.5
  0
LINE
  8
0
 10
-252.75
 11
-199.45
 20
456.5
 21
456.5
  0
LINE
  8
0
 10
-199.45
 11
-199.45
 20
456.5
 21
462.525
  0
LINE
  8
0
 10
-199.45
 11
-190.45
 20
462.525
 21
462.525
  0
LINE
  8
0
 10
-190.45
 11
-190.45
 20
462.525
 21
456.5
  0
LINE
  8
0
 10
-190.45
 11
-188.475
 20
456.5
 21
456.5
  0
LINE
  8
0
 10
-188.475
 11
-188.475
 20
456.5
 21
452.6
  0
LINE
  8
0
 10
-188.475
 11
-189.825
 20
452.6
 21
452.6
  0
LINE
  8
0
 10
-189.825
 11
-189.825
 20
452.6
 21
450.6
  0
LINE
  8
0
 10
-189.825
 11
-188.475
 20
450.6
 21
450.6
  0
LINE
  8
0
 10
-188.475
 11
-188.475
 20
450.6
 21
448.55
  0
LINE
  8
0
 10
-188.475
 11
-185.675
 20
448.55
 21
448.55
  0
LINE
  8
0
 10
-185.675
 11
-185.675
 20
448.55
 21
450.6
  0
LINE
  8
0
 10
-185.675
 11
-184.325
 20
450.6
 21
450.6
  0
LINE
  8
0
 10
-184.325
 11
-184.325
 20
450.6
 21
452.6
  0
LINE
  8
0
 10
-184.325
 11
-185.675
 20
452.6
 21
452.6
  0
LINE
  8
0
 10
-185.675
 11
-185.675
 20
452.6
 21
456.5
  0
LINE
  8
0
 10
-185.675
 11
-183.7
 20
456.5
 21
456.5
  0
LINE
  8
0
 10
-183.7
 11
-183.7
 20
456.5
 21
462.525
  0
LINE
  8
0
 10
-183.7
 11
-174.7
 20
462.525
 21
462.525
  0
LINE
  8
0
 10
-174.7
 11
-174.7
 20
462.525
 21
456.5
  0
LINE
  8
0
 10
-174.7
 11
-121.4
 20
456.5
 21
456.5
  0
LINE
  8
0
 10
-121.4
 11
-121.4
 20
456.5
 21
462.525
  0
LINE
  8
0
 10
-121.4
 11
-112.4
 20
462.525
 21
462.525
  0
LINE
  8
0
 10
-112.4
 11
-112.4
 20
462.525
 21
456.5
  0
LINE
  8
0
 10
-112.4
 11
-110.425
 20
456.5
 21
456.5
  0
LINE
  8
0
 10
-110.425
 11
-110.425
 20
456.5
 21
452.6
  0
LINE
  8
0
 10
-110.425
 11
-111.775
 20
452.6
 21
452.6
  0
LINE
  8
0
 10
-111.775
 11
-111.775
 20
452.6
 21
450.6
  0
LINE
  8
0
 10
-111.775
 11
-110.425
 20
450.6
 21
450.6
  0
LINE
  8
0
 10
-110.425
 11
-110.425
 20
450.6
 21
448.55
  0
LINE
  8
0
 10
-110.425
 11
-107.625
 20
448.55
 21
448.55
  0
LINE
  8
0
 10
-107.625
 11
-107.625
 20
448.55
 21
450.6
  0
LINE
  8
0
 10
-107.625
 11
-106.275
 20
450.6
 21
450.6
  0
LINE
  8
0
 10
-106.275
 11
-106.275
 20
450.6
 21
452.6
  0
LINE
  8
0
 10
-106.275
 11
-107.625
 20
452.6
 21
452.6
  0
LINE
  8
0
 10
-107.625
 11
-107.625
 20
452.6
 21
456.5
  0
LINE
  8
0
 10
-107.625
 11
-105.65
 20
456.5
 21
456.5
  0
LINE
  8
0
 10
-105.65
 11
-105.65
 20
456.5
 21
462.525
  0
LINE
  8
0
 10
-105.65
 11
-96.65
 20
462.525
 21
462.525
  0
LINE
  8
0
 10
-96.65
 11
-96.65
 20
462.525
 21
456.5
  0
LINE
  8
0
 10
-96.65
 11
-43.35
 20
456.5
 21
456.5
  0
LINE
  8
0
 10
-43.35
 11
-43.35
 20
456.5
 21
462.525
  0
LINE
  8
0
 10
-43.35
 11
-34.35
 20
462.525
 21
462.525
  0
LINE
  8
0
 10
-34.35
 11
-34.35
 20
462.525
 21
456.5
  0
LINE
  8
0
 10
-34.35
 11
-32.375
 20
456.5
 21
456.5
  0
LINE
  8
0
 10
-32.375
 11
-32.375
 20
456.5
 21
452.6
  0
LINE
  8
0
 10
-32.375
 11
-33.725
 20
452.6
 21
452.6
  0
LINE
  8
0
 10
-33.725
 11
-33.725
 20
452.6
 21
450.6
  0
LINE
  8
0
 10
-33.725
 11
-32.375
 20
450.6
 21
450.6
  0
LINE
  8
0
 10
-32.375
 11
-32.375
 20
450.6
 21
448.55
  0
LINE
  8
0
 10
-32.375
 11
-29.575
 20
448.55
 21
448.55
  0
LINE
  8
0
 10
-29.575
 11
-29.575
 20
448.55
 21
450.6
  0
LINE
  8
0
 10
-29.575
 11
-28.225
 20
450.6
 21
450.6
  0
LINE
  8
0
 10
-28.225
 11
-28.225
 20
450.6
 21
452.6
  0
LINE
  8
0
 10
-28.225
 11
-29.575
 20
452.6
 21
452.6
  0
LINE
  8
0
 10
-29.575
 11
-29.575
 20
452.6
 21
456.5
  0
LINE
  8
0
 10
-29.575
 11
-27.6
 20
456.5
 21
456.5
  0
LINE
  8
0
 10
-27.6
 11
-27.6
 20
456.5
 21
462.525
  0
LINE
  8
0
 10
-27.6
 11
-18.6
 20
462.525
 21
462.525
  0
LINE
  8
0
 10
-18.6
 11
-18.6
 20
462.525
 21
456.5
  0
LINE
  8
0
 10
-18.6
 11
-8.6
 20
456.5
 21
456.5
  0
LINE
  8
0
 10
-8.6
 11
-8.6
 20
456.5
 21
245.5
  0
LINE
  8
0
 10
-8.6
 11
-18.6
 20
245.5
 21
245.5
  0
LINE
  8
0
 10
-18.6
 11
-18.6
 20
245.5
 21
239.475
  0
LINE
  8
0
 10
-18.6
 11
-27.6
 20
239.475
 21
239.475
  0
LINE
  8
0
 10
-27.6
 11
-27.6
 20
239.475
 21
245.5
  0
LINE
  8
0
 10
-27.6
 11
-29.575
 20
245.5
 21
245.5
  0
LINE
  8
0
 10
-29.575
 11
-29.575
 20
245.5
 21
249.4
  0
LINE
  8
0
 10
-29.575
 11
-28.225
 20
249.4
 21
249.4
  0
LINE
  8
0
 10
-28.225
 11
-28.225
 20
249.4
 21
251.4
  0
LINE
  8
0
 10
-28.225
 11
-29.575
 20
251.4
 21
251.4
  0
LINE
  8
0
 10
-29.575
 11
-29.575
 20
251.4
 21
253.45
  0
LINE
  8
0
 10
-29.575
 11
-32.375
 20
253.45
 21
253.45
  0
LINE
  8
0
 10
-32.375
 11
-32.375
 20
253.45
 21
251.4
  0
LINE
  8
0
 10
-32.375
 11
-33.725
 20
251.4
 21
251.4
  0
LINE
  8
0
 10
-33.725
 11
-33.725
 20
251.4
 21
249.4
  0
LINE
  8
0
 10
-33.725
 11
-32.375
 20
249.4
 21
249.4
  0
LINE
  8
0
 10
-32.375
 11
-32.375
 20
249.4
 21
245.5
  0
LINE
  8
0
 10
-32.375
 11
-34.35
 20
245.5
 21
245.5
  0
LINE
  8
0
 10
-34.35
 11
-34.35
 20
245.5
 21
239.475
  0
LINE
  8
0
 10
-34.35
 11
-43.35
 20
239.475
 21
239.475
  0
LINE
  8
0
 10
-43.35
 11
-43.35
 20
239.475
 21
245.5
  0
LINE
  8
0
 10
-43.35
 11
-96.65
 20
245.5
 21
245.5
  0
LINE
  8
0
 10
-96.65
 11
-96.65
 20
245.5
 21
239.475
  0
LINE
  8
0
 10
-96.65
 11
-105.65
 20
239.475
 21
239.475
  0
LINE
  8
0
 10
-105.65
 11
-105.65
 20
239.475
 21
245.5
  0
LINE
  8
0
 10
-105.65
 11
-107.625
 20
245.5
 21
245.5
  0
LINE
  8
0
 10
-107.625
 11
-107.625
 20
245.5
 21
249.4
  0
LINE
  8
0
 10
-107.625
 11
-106.275
 20
249.4
 21
249.4
  0
LINE
  8
0
 10
-106.275
 11
-106.275
 20
249.4
 21
251.4
  0
LINE
  8
0
 10
-106.275
 11
-107.625
 20
251.4
 21
251.4
  0
LINE
  8
0
 10
-107.625
 11
-107.625
 20
251.4
 21
253.45
  0
LINE
  8
0
 10
-107.625
 11
-110.425
 20
253.45
 21
253.45
  0
LINE
  8
0
 10
-110.425
 11
-110.425
 20
253.45
 21
251.4
  0
LINE
  8
0
 10
-110.425
 11
-111.775
 20
251.4
 21
251.4
  0
LINE
  8
0
 10
-111.775
 11
-111.775
 20
251.4
 21
249.4
  0
LINE
  8
0
 10
-111.775
 11
-110.425
 20
249.4
 21
249.4
  0
LINE
  8
0
 10
-110.425
 11
-110.425
 20
249.4
 21
245.5
  0
LINE
  8
0
 10
-110.425
 11
-112.4
 20
245.5
 21
245.5
  0
LINE
  8
0
 10
-112.4
 11
-112.4
 20
245.5
 21
239.475
  0
LINE
  8
0
 10
-112.4
 11
-121.4
 20
239.475
 21
239.475
  0
LINE
  8
0
 10
-121.4
 11
-121.4
 20
239.475
 21
245.5
  0
LINE
  8
0
 10
-121.4
 11
-174.7
 20
245.5
 21
245.5
  0
LINE
  8
0
 10
-174.7
 11
-174.7
 20
245.5
 21
239.475
  0
LINE
  8
0
 10
-174.7
 11
-183.7
 20
239.475
 21
239.475
  0
LINE
  8
0
 10
-183.7
 11
-183.7
 20
239.475
 21
245.5
  0
LINE
  8
0
 10
-183.7
 11
-185.675
 20
245.5
 21
245.5
  0
LINE
  8
0
 10
-185.675
 11
-185.675
 20
245.5
 21
249.4
  0
LINE
  8
0
 10
-185.675
 11
-184.325
 20
249.4
 21
249.4
  0
LINE
  8
0
 10
-184.325
 11
-184.325
 20
249.4
 21
251.4
  0
LINE
  8
0
 10
-184.325
 11
-185.675
 20
251.4
 21
251.4
  0
LINE
  8
0
 10
-185.675
 11
-185.675
 20
251.4
 21
253.45
  0
LINE
  8
0
 10
-185.675
 11
-188.475
 20
253.45
 21
253.45
  0
LINE
  8
0
 10
-188.475
 11
-188.475
 20
253.45
 21
251.4
  0
LINE
  8
0
 10
-188.475
 11
-189.825
 20
251.4
 21
251.4
  0
LINE
  8
0
 10
-189.825
 11
-189.825
 20
251.4
 21
249.4
  0
LINE
  8
0
 10
-189.825
 11
-188.475
 20
249.4
 21
249.4
  0
LINE
  8
0
 10
-188.475
 11
-188.475
 20
249.4
 21
245.5
  0
LINE
  8
0
 10
-188.475
 11
-190.45
 20
245.5
 21
245.5
  0
LINE
  8
0
 10
-190.45
 11
-190.45
 20
245.5
 21
239.475
  0
LINE
  8
0
 10
-190.45
 11
-199.45
 20
239.475
 21
239.475
  0
LINE
  8
0
 10
-199.45
 11
-199.45
 20
239.475
 21
245.5
  0
LINE
  8
0
 10
-199.45
 11
-252.75
 20
245.5
 21
245.5
  0
LINE
  8
0
 10
-252.75
 11
-252.75
 20
245.5
 21
239.475
  0
LINE
  8
0
 10
-252.75
 11
-261.75
 20
239.475
 21
239.475
  0
LINE
  8
0
 10
-261.75
 11
-261.75
 20
239.475
 21
245.5
  0
LINE
  8
0
 10
-261.75
 11
-263.725
 20
245.5
 21
245.5
  0
LINE
  8
0
 10
-263.725
 11
-263.725
 20
245.5
 21
249.4
  0
LINE
  8
0
 10
-263.725
 11
-262.375
 20
249.4
 21
249.4
  0
LINE
  8
0
 10
-262.375
 11
-262.375
 20
249.4
 21
251.4
  0
LINE
  8
0
 10
-262.375
 11
-263.725
 20
251.4
 21
251.4
  0
LINE
  8
0
 10
-263.725
 11
-263.725
 20
251.4
 21
253.45
  0
LINE
  8
0
 10
-263.725
 11
-266.525
 20
253.45
 21
253.45
  0
LINE
  8
0
 10
-266.525
 11
-266.525
 20
253.45
 21
251.4
  0
LINE
  8
0
 10
-266.525
 11
-267.875
 20
251.4
 21
251.4
  0
LINE
  8
0
 10
-267.875
 11
-267.875
 20
251.4
 21
249.4
  0
LINE
  8
0
 10
-267.875
 11
-266.525
 20
249.4
 21
249.4
  0
LINE
  8
0
 10
-266.525
 11
-266.525
 20
249.4
 21
245.5
  0
LINE
  8
0
 10
-266.525
 11
-268.5
 20
245.5
 21
245.5
  0
LINE
  8
0
 10
-268.5
 11
-268.5
 20
245.5
 21
239.475
  0
LINE
  8
0
 10
-268.5
 11
-277.5
 20
239.475
 21
239.475
  0
LINE
  8
0
 10
-277.5
 11
-277.5
 20
239.475
 21
245.5
  0
LINE
  8
0
 10
-277.5
 11
-297.5
 20
245.5
 21
245.5
  0
LINE
  8
0
 10
-296.5
 11
-296.5
 20
-306.9
 21
-18
  0
LINE
  8
0
 10
-296.5
 11
-8.5
 20
-18
 21
-18
  0
LINE
  8
0
 10
-8.5
 11
-8.5
 20
-18
 21
-306.9
  0
LINE
  8
0
 10
-8.5
 11
-58.5
 20
-306.9
 21
-306.9
  0
LINE
  8
0
 10
-58.5
 11
-58.5
 20
-306.9
 21
-250
  0
LINE
  8
0
 10
-58.5
 11
-77.5
 20
-250
 21
-139.56
  0
LINE
  8
0
 10
-77.5
 11
-227.5
 20
-139.56
 21
-139.56
  0
LINE
  8
0
 10
-227.5
 11
-246.5
 20
-139.56
 21
-250
  0
LINE
  8
0
 10
-246.5
 11
-246.5
 20
-250
 21
-306.9
  0
LINE
  8
0
 10
-246.5
 11
-296.5
 20
-306.9
 21
-306.9
  0
LINE
  8
0
 10
-293.525
 11
-293.525
 20
255.5
 21
264.5
  0
LINE
  8
0
 10
-293.525
 11
-287.475
 20
264.5
 21
264.5
  0
LINE
  8
0
 10
-287.475
 11
-287.475
 20
264.5
 21
255.5
  0
LINE
  8
0
 10
-287.475
 11
-293.525
 20
255.5
 21
255.5
  0
LINE
  8
0
 10
-293.525
 11
-293.525
 20
271.25
 21
280.25
  0
LINE
  8
0
 10
-293.525
 11
-287.475
 20
280.25
 21
280.25
  0
LINE
  8
0
 10
-287.475
 11
-287.475
 20
280.25
 21
271.25
  0
LINE
  8
0
 10
-287.475
 11
-293.525
 20
271.25
 21
271.25
  0
LINE
  8
0
 10
-293.525
 11
-293.525
 20
338.625
 21
347.625
  0
LINE
  8
0
 10
-293.525
 11
-287.475
 20
347.625
 21
347.625
  0
LINE
  8
0
 10
-287.475
 11
-287.475
 20
347.625
 21
338.625
  0
LINE
  8
0
 10
-287.475
 11
-293.525
 20
338.625
 21
338.625
  0
LINE
  8
0
 10
-293.525
 11
-293.525
 20
354.375
 21
363.375
  0
LINE
  8
0
 10
-293.525
 11
-287.475
 20
363.375
 21
363.375
  0
LINE
  8
0
 10
-287.475
 11
-287.475
 20
363.375
 21
354.375
  0
LINE
  8
0
 10
-287.475
 11
-293.525
 20
354.375
 21
354.375
  0
LINE
  8
0
 10
-293.525
 11
-293.525
 20
421.75
 21
430.75
  0
LINE
  8
0
 10
-293.525
 11
-287.475
 20
430.75
 21
430.75
  0
LINE
  8
0
 10
-287.475
 11
-287.475
 20
430.75
 21
421.75
  0
LINE
  8
0
 10
-287.475
 11
-293.525
 20
421.75
 21
421.75
  0
LINE
  8
0
 10
-293.525
 11
-293.525
 20
437.5
 21
446.5
  0
LINE
  8
0
 10
-293.525
 11
-287.475
 20
446.5
 21
446.5
  0
LINE
  8
0
 10
-287.475
 11
-287.475
 20
446.5
 21
437.5
  0
LINE
  8
0
 10
-287.475
 11
-293.525
 20
437.5
 21
437.5
  0
LINE
  8
0
 10
-292.525
 11
-292.525
 20
-296.9
 21
-287.9
  0
LINE
  8
0
 10
-292.525
 11
-286.475
 20
-287.9
 21
-287.9
  0
LINE
  8
0
 10
-286.475
 11
-286.475
 20
-287.9
 21
-296.9
  0
LINE
  8
0
 10
-286.475
 11
-292.525
 20
-296.9
 21
-296.9
  0
LINE
  8
0
 10
-292.525
 11
-292.525
 20
-281.15
 21
-272.15
  0
LINE
  8
0
 10
-292.525
 11
-286.475
 20
-272.15
 21
-272.15
  0
LINE
  8
0
 10
-286.475
 11
-286.475
 20
-272.15
 21
-281.15
  0
LINE
  8
0
 10
-286.475
 11
-292.525
 20
-281.15
 21
-281.15
  0
LINE
  8
0
 10
-292.525
 11
-292.525
 20
-218.85
 21
-209.85
  0
LINE
  8
0
 10
-292.525
 11
-286.475
 20
-209.85
 21
-209.85
  0
LINE
  8
0
 10
-286.475
 11
-286.475
 20
-209.85
 21
-218.85
  0
LINE
  8
0
 10
-286.475
 11
-292.525
 20
-218.85
 21
-218.85
  0
LINE
  8
0
 10
-292.525
 11
-292.525
 20
-203.1
 21
-194.1
  0
LINE
  8
0
 10
-292.525
 11
-286.475
 20
-194.1
 21
-194.1
  0
LINE
  8
0
 10
-286.475
 11
-286.475
 20
-194.1
 21
-203.1
  0
LINE
  8
0
 10
-286.475
 11
-292.525
 20
-203.1
 21
-203.1
  0
LINE
  8
0
 10
-292.525
 11
-292.525
 20
-140.8
 21
-131.8
  0
LINE
  8
0
 10
-292.525
 11
-286.475
 20
-131.8
 21
-131.8
  0
LINE
  8
0
 10
-286.475
 11
-286.475
 20
-131.8
 21
-140.8
  0
LINE
  8
0
 10
-286.475
 11
-292.525
 20
-140.8
 21
-140.8
  0
LINE
  8
0
 10
-292.525
 11
-292.525
 20
-125.05
 21
-116.05
  0
LINE
  8
0
 10
-292.525
 11
-286.475
 20
-116.05
 21
-116.05
  0
LINE
  8
0
 10
-286.475
 11
-286.475
 20
-116.05
 21
-125.05
  0
LINE
  8
0
 10
-286.475
 11
-292.525
 20
-125.05
 21
-125.05
  0
LINE
  8
0
 10
-292.525
 11
-292.525
 20
-62.75
 21
-53.75
  0
LINE
  8
0
 10
-292.525
 11
-286.475
 20
-53.75
 21
-53.75
  0
LINE
  8
0
 10
-286.475
 11
-286.475
 20
-53.75
 21
-62.75
  0
LINE
  8
0
 10
-286.475
 11
-292.525
 20
-62.75
 21
-62.75
  0
LINE
  8
0
 10
-292.525
 11
-292.525
 20
-47
 21
-38
  0
LINE
  8
0
 10
-292.525
 11
-286.475
 20
-38
 21
-38
  0
LINE
  8
0
 10
-286.475
 11
-286.475
 20
-38
 21
-47
  0
LINE
  8
0
 10
-286.475
 11
-292.525
 20
-47
 21
-47
  0
LINE
  8
0
 10
-291.9
 11
-291.9
 20
267.295
 21
268.455
  0
LINE
  8
0
 10
-291.9
 11
-291.08
 20
268.455
 21
269.275
  0
LINE
  8
0
 10
-291.08
 11
-289.92
 20
269.275
 21
269.275
  0
LINE
  8
0
 10
-289.92
 11
-289.1
 20
269.275
 21
268.455
  0
LINE
  8
0
 10
-289.1
 11
-289.1
 20
268.455
 21
267.295
  0
LINE
  8
0
 10
-289.1
 11
-289.92
 20
267.295
 21
266.475
  0
LINE
  8
0
 10
-289.92
 11
-291.08
 20
266.475
 21
266.475
  0
LINE
  8
0
 10
-291.08
 11
-291.9
 20
266.475
 21
267.295
  0
LINE
  8
0
 10
-291.9
 11
-291.9
 20
350.42
 21
351.58
  0
LINE
  8
0
 10
-291.9
 11
-291.08
 20
351.58
 21
352.4
  0
LINE
  8
0
 10
-291.08
 11
-289.92
 20
352.4
 21
352.4
  0
LINE
  8
0
 10
-289.92
 11
-289.1
 20
352.4
 21
351.58
  0
LINE
  8
0
 10
-289.1
 11
-289.1
 20
351.58
 21
350.42
  0
LINE
  8
0
 10
-289.1
 11
-289.92
 20
350.42
 21
349.6
  0
LINE
  8
0
 10
-289.92
 11
-291.08
 20
349.6
 21
349.6
  0
LINE
  8
0
 10
-291.08
 11
-291.9
 20
349.6
 21
350.42
  0
LINE
  8
0
 10
-291.9
 11
-291.9
 20
433.545
 21
434.705
  0
LINE
  8
0
 10
-291.9
 11
-291.08
 20
434.705
 21
435.525
  0
LINE
  8
0
 10
-291.08
 11
-289.92
 20
435.525
 21
435.525
  0
LINE
  8
0
 10
-289.92
 11
-289.1
 20
435.525
 21
434.705
  0
LINE
  8
0
 10
-289.1
 11
-289.1
 20
434.705
 21
433.545
  0
LINE
  8
0
 10
-289.1
 11
-289.92
 20
433.545
 21
432.725
  0
LINE
  8
0
 10
-289.92
 11
-291.08
 20
432.725
 21
432.725
  0
LINE
  8
0
 10
-291.08
 11
-291.9
 20
432.725
 21
433.545
  0
LINE
  8
0
 10
-290.9
 11
-290.9
 20
-285.105
 21
-283.945
  0
LINE
  8
0
 10
-290.9
 11
-290.08
 20
-283.945
 21
-283.125
  0
LINE
  8
0
 10
-290.08
 11
-288.92
 20
-283.125
 21
-283.125
  0
LINE
  8
0
 10
-288.92
 11
-288.1
 20
-283.125
 21
-283.945
  0
LINE
  8
0
 10
-288.1
 11
-288.1
 20
-283.945
 21
-285.105
  0
LINE
  8
0
 10
-288.1
 11
-288.92
 20
-285.105
 21
-285.925
  0
LINE
  8
0
 10
-288.92
 11
-290.08
 20
-285.925
 21
-285.925
  0
LINE
  8
0
 10
-290.08
 11
-290.9
 20
-285.925
 21
-285.105
  0
LINE
  8
0
 10
-290.9
 11
-290.9
 20
-207.055
 21
-205.895
  0
LINE
  8
0
 10
-290.9
 11
-290.08
 20
-205.895
 21
-205.075
  0
LINE
  8
0
 10
-290.08
 11
-288.92
 20
-205.075
 21
-205.075
  0
LINE
  8
0
 10
-288.92
 11
-288.1
 20
-205.075
 21
-205.895
  0
LINE
  8
0
 10
-288.1
 11
-288.1
 20
-205.895
 21
-207.055
  0
LINE
  8
0
 10
-288.1
 11
-288.92
 20
-207.055
 21
-207.875
  0
LINE
  8
0
 10
-288.92
 11
-290.08
 20
-207.875
 21
-207.875
  0
LINE
  8
0
 10
-290.08
 11
-290.9
 20
-207.875
 21
-207.055
  0
LINE
  8
0
 10
-290.9
 11
-290.9
 20
-129.005
 21
-127.845
  0
LINE
  8
0
 10
-290.9
 11
-290.08
 20
-127.845
 21
-127.025
  0
LINE
  8
0
 10
-290.08
 11
-288.92
 20
-127.025
 21
-127.025
  0
LINE
  8
0
 10
-288.92
 11
-288.1
 20
-127.025
 21
-127.845
  0
LINE
  8
0
 10
-288.1
 11
-288.1
 20
-127.845
 21
-129.005
  0
LINE
  8
0
 10
-288.1
 11
-288.92
 20
-129.005
 21
-129.825
  0
LINE
  8
0
 10
-288.92
 11
-290.08
 20
-129.825
 21
-129.825
  0
LINE
  8
0
 10
-290.08
 11
-290.9
 20
-129.825
 21
-129.005
  0
LINE
  8
0
 10
-290.9
 11
-290.9
 20
-50.955
 21
-49.795
  0
LINE
  8
0
 10
-290.9
 11
-290.08
 20
-49.795
 21
-48.975
  0
LINE
  8
0
 10
-290.08
 11
-288.92
 20
-48.975
 21
-48.975
  0
LINE
  8
0
 10
-288.92
 11
-288.1
 20
-48.975
 21
-49.795
  0
LINE
  8
0
 10
-288.1
 11
-288.1
 20
-49.795
 21
-50.955
  0
LINE
  8
0
 10
-288.1
 11
-288.92
 20
-50.955
 21
-51.775
  0
LINE
  8
0
 10
-288.92
 11
-290.08
 20
-51.775
 21
-51.775
  0
LINE
  8
0
 10
-290.08
 11
-290.9
 20
-51.775
 21
-50.955
  0
LINE
  8
0
 10
-288.625
 11
-288.625
 20
31.5
 21
40.5
  0
LINE
  8
0
 10
-288.625
 11
-282.6
 20
40.5
 21
40.5
  0
LINE
  8
0
 10
-282.6
 11
-282.6
 20
40.5
 21
42.475
  0
LINE
  8
0
 10
-282.6
 11
-278.7
 20
42.475
 21
42.475
  0
LINE
  8
0
 10
-278.7
 11
-278.7
 20
42.475
 21
41.125
  0
LINE
  8
0
 10
-278.7
 11
-276.7
 20
41.125
 21
41.125
  0
LINE
  8
0
 10
-276.7
 11
-276.7
 20
41.125
 21
42.475
  0
LINE
  8
0
 10
-276.7
 11
-274.65
 20
42.475
 21
42.475
  0
LINE
  8
0
 10
-274.65
 11
-274.65
 20
42.475
 21
45.275
  0
LINE
  8
0
 10
-274.65
 11
-276.7
 20
45.275
 21
45.275
  0
LINE
  8
0
 10
-276.7
 11
-276.7
 20
45.275
 21
46.625
  0
LINE
  8
0
 10
-276.7
 11
-278.7
 20
46.625
 21
46.625
  0
LINE
  8
0
 10
-278.7
 11
-278.7
 20
46.625
 21
45.275
  0
LINE
  8
0
 10
-278.7
 11
-282.6
 20
45.275
 21
45.275
  0
LINE
  8
0
 10
-282.6
 11
-282.6
 20
45.275
 21
47.25
  0
LINE
  8
0
 10
-282.6
 11
-288.625
 20
47.25
 21
47.25
  0
LINE
  8
0
 10
-288.625
 11
-288.625
 20
47.25
 21
56.25
  0
LINE
  8
0
 10
-288.625
 11
-282.6
 20
56.25
 21
56.25
  0
LINE
  8
0
 10
-282.6
 11
-282.6
 20
56.25
 21
114.625
  0
LINE
  8
0
 10
-282.6
 11
-288.625
 20
114.625
 21
114.625
  0
LINE
  8
0
 10
-288.625
 11
-288.625
 20
114.625
 21
123.625
  0
LINE
  8
0
 10
-288.625
 11
-282.6
 20
123.625
 21
123.625
  0
LINE
  8
0
 10
-282.6
 11
-282.6
 20
123.625
 21
125.6
  0
LINE
  8
0
 10
-282.6
 11
-278.7
 20
125.6
 21
125.6
  0
LINE
  8
0
 10
-278.7
 11
-278.7
 20
125.6
 21
124.25
  0
LINE
  8
0
 10
-278.7
 11
-276.7
 20
124.25
 21
124.25
  0
LINE
  8
0
 10
-276.7
 11
-276.7
 20
124.25
 21
125.6
  0
LINE
  8
0
 10
-276.7
 11
-274.65
 20
125.6
 21
125.6
  0
LINE
  8
0
 10
-274.65
 11
-274.65
 20
125.6
 21
128.4
  0
LINE
  8
0
 10
-274.65
 11
-276.7
 20
128.4
 21
128.4
  0
LINE
  8
0
 10
-276.7
 11
-276.7
 20
128.4
 21
129.75
  0
LINE
  8
0
 10
-276.7
 11
-278.7
 20
129.75
 21
129.75
  0
LINE
  8
0
 10
-278.7
 11
-278.7
 20
129.75
 21
128.4
  0
LINE
  8
0
 10
-278.7
 11
-282.6
 20
128.4
 21
128.4
  0
LINE
  8
0
 10
-282.6
 11
-282.6
 20
128.4
 21
130.375
  0
LINE
  8
0
 10
-282.6
 11
-288.625
 20
130.375
 21
130.375
  0
LINE
  8
0
 10
-288.625
 11
-288.625
 20
130.375
 21
139.375
  0
LINE
  8
0
 10
-288.625
 11
-282.6
 20
139.375
 21
139.375
  0
LINE
  8
0
 10
-282.6
 11
-282.6
 20
139.375
 21
197.75
  0
LINE
  8
0
 10
-282.6
 11
-288.625
 20
197.75
 21
197.75
  0
LINE
  8
0
 10
-288.625
 11
-288.625
 20
197.75
 21
206.75
  0
LINE
  8
0
 10
-288.625
 11
-282.6
 20
206.75
 21
206.75
  0
LINE
  8
0
 10
-282.6
 11
-282.6
 20
206.75
 21
208.725
  0
LINE
  8
0
 10
-282.6
 11
-278.7
 20
208.725
 21
208.725
  0
LINE
  8
0
 10
-278.7
 11
-278.7
 20
208.725
 21
207.375
  0
LINE
  8
0
 10
-278.7
 11
-276.7
 20
207.375
 21
207.375
  0
LINE
  8
0
 10
-276.7
 11
-276.7
 20
207.375
 21
208.725
  0
LINE
  8
0
 10
-276.7
 11
-274.65
 20
208.725
 21
208.725
  0
LINE
  8
0
 10
-274.65
 11
-274.65
 20
208.725
 21
211.525
  0
LINE
  8
0
 10
-274.65
 11
-276.7
 20
211.525
 21
211.525
  0
LINE
  8
0
 10
-276.7
 11
-276.7
 20
211.525
 21
212.875
  0
LINE
  8
0
 10
-276.7
 11
-278.7
 20
212.875
 21
212.875
  0
LINE
  8
0
 10
-278.7
 11
-278.7
 20
212.875
 21
211.525
  0
LINE
  8
0
 10
-278.7
 11
-282.6
 20
211.525
 21
211.525
  0
LINE
  8
0
 10
-282.6
 11
-282.6
 20
211.525
 21
213.5
  0
LINE
  8
0
 10
-282.6
 11
-288.625
 20
213.5
 21
213.5
  0
LINE
  8
0
 10
-288.625
 11
-288.625
 20
213.5
 21
222.5
  0
LINE
  8
0
 10
-288.625
 11
-282.6
 20
222.5
 21
222.5
  0
LINE
  8
0
 10
-282.6
 11
-282.6
 20
222.5
 21
232.5
  0
LINE
  8
0
 10
-282.6
 11
-272.6
 20
232.5
 21
232.5
  0
LINE
  8
0
 10
-272.6
 11
-272.6
 20
232.5
 21
238.525
  0
LINE
  8
0
 10
-272.6
 11
-263.6
 20
238.525
 21
238.525
  0
LINE
  8
0
 10
-263.6
 11
-263.6
 20
238.525
 21
232.5
  0
LINE
  8
0
 10
-263.6
 11
-261.625
 20
232.5
 21
232.5
  0
LINE
  8
0
 10
-261.625
 11
-261.625
 20
232.5
 21
228.6
  0
LINE
  8
0
 10
-261.625
 11
-262.975
 20
228.6
 21
228.6
  0
LINE
  8
0
 10
-262.975
 11
-262.975
 20
228.6
 21
226.6
  0
LINE
  8
0
 10
-262.975
 11
-261.625
 20
226.6
 21
226.6
  0
LINE
  8
0
 10
-261.625
 11
-261.625
 20
226.6
 21
224.55
  0
LINE
  8
0
 10
-261.625
 11
-258.825
 20
224.55
 21
224.55
  0
LINE
  8
0
 10
-258.825
 11
-258.825
 20
224.55
 21
226.6
  0
LINE
  8
0
 10
-258.825
 11
-257.475
 20
226.6
 21
226.6
  0
LINE
  8
0
 10
-257.475
 11
-257.475
 20
226.6
 21
228.6
  0
LINE
  8
0
 10
-257.475
 11
-258.825
 20
228.6
 21
228.6
  0
LINE
  8
0
 10
-258.825
 11
-258.825
 20
228.6
 21
232.5
  0
LINE
  8
0
 10
-258.825
 11
-256.85
 20
232.5
 21
232.5
  0
LINE
  8
0
 10
-256.85
 11
-256.85
 20
232.5
 21
238.525
  0
LINE
  8
0
 10
-256.85
 11
-247.85
 20
238.525
 21
238.525
  0
LINE
  8
0
 10
-247.85
 11
-247.85
 20
238.525
 21
232.5
  0
LINE
  8
0
 10
-247.85
 11
-198.183
 20
232.5
 21
232.5
  0
LINE
  8
0
 10
-198.183
 11
-198.183
 20
232.5
 21
238.525
  0
LINE
  8
0
 10
-198.183
 11
-189.183
 20
238.525
 21
238.525
  0
LINE
  8
0
 10
-189.183
 11
-189.183
 20
238.525
 21
232.5
  0
LINE
  8
0
 10
-189.183
 11
-187.208
 20
232.5
 21
232.5
  0
LINE
  8
0
 10
-187.208
 11
-187.208
 20
232.5
 21
228.6
  0
LINE
  8
0
 10
-187.208
 11
-188.558
 20
228.6
 21
228.6
  0
LINE
  8
0
 10
-188.558
 11
-188.558
 20
228.6
 21
226.6
  0
LINE
  8
0
 10
-188.558
 11
-187.208
 20
226.6
 21
226.6
  0
LINE
  8
0
 10
-187.208
 11
-187.208
 20
226.6
 21
224.55
  0
LINE
  8
0
 10
-187.208
 11
-184.408
 20
224.55
 21
224.55
  0
LINE
  8
0
 10
-184.408
 11
-184.408
 20
224.55
 21
226.6
  0
LINE
  8
0
 10
-184.408
 11
-183.058
 20
226.6
 21
226.6
  0
LINE
  8
0
 10
-183.058
 11
-183.058
 20
226.6
 21
228.6
  0
LINE
  8
0
 10
-183.058
 11
-184.408
 20
228.6
 21
228.6
  0
LINE
  8
0
 10
-184.408
 11
-184.408
 20
228.6
 21
232.5
  0
LINE
  8
0
 10
-184.408
 11
-182.433
 20
232.5
 21
232.5
  0
LINE
  8
0
 10
-182.433
 11
-182.433
 20
232.5
 21
238.525
  0
LINE
  8
0
 10
-182.433
 11
-173.433
 20
238.525
 21
238.525
  0
LINE
  8
0
 10
-173.433
 11
-173.433
 20
238.525
 21
232.5
  0
LINE
  8
0
 10
-173.433
 11
-123.767
 20
232.5
 21
232.5
  0
LINE
  8
0
 10
-123.767
 11
-123.767
 20
232.5
 21
238.525
  0
LINE
  8
0
 10
-123.767
 11
-114.767
 20
238.525
 21
238.525
  0
LINE
  8
0
 10
-114.767
 11
-114.767
 20
238.525
 21
232.5
  0
LINE
  8
0
 10
-114.767
 11
-112.792
 20
232.5
 21
232.5
  0
LINE
  8
0
 10
-112.792
 11
-112.792
 20
232.5
 21
228.6
  0
LINE
  8
0
 10
-112.792
 11
-114.142
 20
228.6
 21
228.6
  0
LINE
  8
0
 10
-114.142
 11
-114.142
 20
228.6
 21
226.6
  0
LINE
  8
0
 10
-114.142
 11
-112.792
 20
226.6
 21
226.6
  0
LINE
  8
0
 10
-112.792
 11
-112.792
 20
226.6
 21
224.55
  0
LINE
  8
0
 10
-112.792
 11
-109.992
 20
224.55
 21
224.55
  0
LINE
  8
0
 10
-109.992
 11
-109.992
 20
224.55
 21
226.6
  0
LINE
  8
0
 10
-109.992
 11
-108.642
 20
226.6
 21
226.6
  0
LINE
  8
0
 10
-108.642
 11
-108.642
 20
226.6
 21
228.6
  0
LINE
  8
0
 10
-108.642
 11
-109.992
 20
228.6
 21
228.6
  0
LINE
  8
0
 10
-109.992
 11
-109.992
 20
228.6
 21
232.5
  0
LINE
  8
0
 10
-109.992
 11
-108.017
 20
232.5
 21
232.5
  0
LINE
  8
0
 10
-108.017
 11
-108.017
 20
232.5
 21
238.525
  0
LINE
  8
0
 10
-108.017
 11
-99.017
 20
238.525
 21
238.525
  0
LINE
  8
0
 10
-99.017
 11
-99.017
 20
238.525
 21
232.5
  0
LINE
  8
0
 10
-99.017
 11
-49.35
 20
232.5
 21
232.5
  0
LINE
  8
0
 10
-49.35
 11
-49.35
 20
232.5
 21
238.525
  0
LINE
  8
0
 10
-49.35
 11
-40.35
 20
238.525
 21
238.525
  0
LINE
  8
0
 10
-40.35
 11
-40.35
 20
238.525
 21
232.5
  0
LINE
  8
0
 10
-40.35
 11
-38.375
 20
232.5
 21
232.5
  0
LINE
  8
0
 10
-38.375
 11
-38.375
 20
232.5
 21
228.6
  0
LINE
  8
0
 10
-38.375
 11
-39.725
 20
228.6
 21
228.6
  0
LINE
  8
0
 10
-39.725
 11
-39.725
 20
228.6
 21
226.6
  0
LINE
  8
0
 10
-39.725
 11
-38.375
 20
226.6
 21
226.6
  0
LINE
  8
0
 10
-38.375
 11
-38.375
 20
226.6
 21
224.55
  0
LINE
  8
0
 10
-38.375
 11
-35.575
 20
224.55
 21
224.55
  0
LINE
  8
0
 10
-35.575
 11
-35.575
 20
224.55
 21
226.6
  0
LINE
  8
0
 10
-35.575
 11
-34.225
 20
226.6
 21
226.6
  0
LINE
  8
0
 10
-34.225
 11
-34.225
 20
226.6
 21
228.6
  0
LINE
  8
0
 10
-34.225
 11
-35.575
 20
228.6
 21
228.6
  0
LINE
  8
0
 10
-35.575
 11
-35.575
 20
228.6
 21
232.5
  0
LINE
  8
0
 10
-35.575
 11
-33.6
 20
232.5
 21
232.5
  0
LINE
  8
0
 10
-33.6
 11
-33.6
 20
232.5
 21
238.525
  0
LINE
  8
0
 10
-33.6
 11
-24.6
 20
238.525
 21
238.525
  0
LINE
  8
0
 10
-24.6
 11
-24.6
 20
238.525
 21
232.5
  0
LINE
  8
0
 10
-24.6
 11
-14.6
 20
232.5
 21
232.5
  0
LINE
  8
0
 10
-14.6
 11
-14.6
 20
232.5
 21
222.5
  0
LINE
  8
0
 10
-14.6
 11
-8.575
 20
222.5
 21
222.5
  0
LINE
  8
0
 10
-8.575
 11
-8.575
 20
222.5
 21
213.5
  0
LINE
  8
0
 10
-8.575
 11
-14.6
 20
213.5
 21
213.5
  0
LINE
  8
0
 10
-14.6
 11
-14.6
 20
213.5
 21
211.525
  0
LINE
  8
0
 10
-14.6
 11
-18.5
 20
211.525
 21
211.525
  0
LINE
  8
0
 10
-18.5
 11
-18.5
 20
211.525
 21
212.875
  0
LINE
  8
0
 10
-18.5
 11
-20.5
 20
212.875
 21
212.875
  0
LINE
  8
0
 10
-20.5
 11
-20.5
 20
212.875
 21
211.525
  0
LINE
  8
0
 10
-20.5
 11
-22.55
 20
211.525
 21
211.525
  0
LINE
  8
0
 10
-22.55
 11
-22.55
 20
211.525
 21
208.725
  0
LINE
  8
0
 10
-22.55
 11
-20.5
 20
208.725
 21
208.725
  0
LINE
  8
0
 10
-20.5
 11
-20.5
 20
208.725
 21
207.375
  0
LINE
  8
0
 10
-20.5
 11
-18.5
 20
207.375
 21
207.375
  0
LINE
  8
0
 10
-18.5
 11
-18.5
 20
207.375
 21
208.725
  0
LINE
  8
0
 10
-18.5
 11
-14.6
 20
208.725
 21
208.725
  0
LINE
  8
0
 10
-14.6
 11
-14.6
 20
208.725
 21
206.75
  0
LINE
  8
0
 10
-14.6
 11
-8.575
 20
206.75
 21
206.75
  0
LINE
  8
0
 10
-8.575
 11
-8.575
 20
206.75
 21
197.75
  0
LINE
  8
0
 10
-8.575
 11
-14.6
 20
197.75
 21
197.75
  0
LINE
  8
0
 10
-14.6
 11
-14.6
 20
197.75
 21
139.375
  0
LINE
  8
0
 10
-14.6
 11
-8.575
 20
139.375
 21
139.375
  0
LINE
  8
0
 10
-8.575
 11
-8.575
 20
139.375
 21
130.375
  0
LINE
  8
0
 10
-8.575
 11
-14.6
 20
130.375
 21
130.375
  0
LINE
  8
0
 10
-14.6
 11
-14.6
 20
130.375
 21
128.4
  0
LINE
  8
0
 10
-14.6
 11
-18.5
 20
128.4
 21
128.4
  0
LINE
  8
0
 10
-18.5
 11
-18.5
 20
128.4
 21
129.75
  0
LINE
  8
0
 10
-18.5
 11
-20.5
 20
129.75
 21
129.75
  0
LINE
  8
0
 10
-20.5
 11
-20.5
 20
129.75
 21
128.4
  0
LINE
  8
0
 10
-20.5
 11
-22.55
 20
128.4
 21
128.4
  0
LINE
  8
0
 10
-22.55
 11
-22.55
 20
128.4
 21
125.6
  0
LINE
  8
0
 10
-22.55
 11
-20.5
 20
125.6
 21
125.6
  0
LINE
  8
0
 10
-20.5
 11
-20.5
 20
125.6
 21
124.25
  0
LINE
  8
0
 10
-20.5
 11
-18.5
 20
124.25
 21
124.25
  0
LINE
  8
0
 10
-18.5
 11
-18.5
 20
124.25
 21
125.6
  0
LINE
  8
0
 10
-18.5
 11
-14.6
 20
125.6
 21
125.6
  0
LINE
  8
0
 10
-14.6
 11
-14.6
 20
125.6
 21
123.625
  0
LINE
  8
0
 10
-14.6
 11
-8.575
 20
123.625
 21
123.625
  0
LINE
  8
0
 10
-8.575
 11
-8.575
 20
123.625
 21
114.625
  0
LINE
  8
0
 10
-8.575
 11
-14.6
 20
114.625
 21
114.625
  0
LINE
  8
0
 10
-14.6
 11
-14.6
 20
114.625
 21
56.25
  0
LINE
  8
0
 10
-14.6
 11
-8.575
 20
56.25
 21
56.25
  0
LINE
  8
0
 10
-8.575
 11
-8.575
 20
56.25
 21
47.25
  0
LINE
  8
0
 10
-8.575
 11
-14.6
 20
47.25
 21
47.25
  0
LINE
  8
0
 10
-14.6
 11
-14.6
 20
47.25
 21
45.275
  0
LINE
  8
0
 10
-14.6
 11
-18.5
 20
45.275
 21
45.275
  0
LINE
  8
0
 10
-18.5
 11
-18.5
 20
45.275
 21
46.625
  0
LINE
  8
0
 10
-18.5
 11
-20.5
 20
46.625
 21
46.625
  0
LINE
  8
0
 10
-20.5
 11
-20.5
 20
46.625
 21
45.275
  0
LINE
  8
0
 10
-20.5
 11
-22.55
 20
45.275
 21
45.275
  0
LINE
  8
0
 10
-22.55
 11
-22.55
 20
45.275
 21
42.475
  0
LINE
  8
0
 10
-22.55
 11
-20.5
 20
42.475
 21
42.475
  0
LINE
  8
0
 10
-20.5
 11
-20.5
 20
42.475
 21
41.125
  0
LINE
  8
0
 10
-20.5
 11
-18.5
 20
41.125
 21
41.125
  0
LINE
  8
0
 10
-18.5
 11
-18.5
 20
41.125
 21
42.475
  0
LINE
  8
0
 10
-18.5
 11
-14.6
 20
42.475
 21
42.475
  0
LINE
  8
0
 10
-14.6
 11
-14.6
 20
42.475
 21
40.5
  0
LINE
  8
0
 10
-14.6
 11
-8.575
 20
40.5
 21
40.5
  0
LINE
  8
0
 10
-8.575
 11
-8.575
 20
40.5
 21
31.5
  0
LINE
  8
0
 10
-8.575
 11
-14.6
 20
31.5
 21
31.5
  0
LINE
  8
0
 10
-14.6
 11
-14.6
 20
31.5
 21
21.5
  0
LINE
  8
0
 10
-14.6
 11
-24.6
 20
21.5
 21
21.5
  0
LINE
  8
0
 10
-24.6
 11
-24.6
 20
21.5
 21
15.475
  0
LINE
  8
0
 10
-24.6
 11
-33.6
 20
15.475
 21
15.475
  0
LINE
  8
0
 10
-33.6
 11
-33.6
 20
15.475
 21
21.5
  0
LINE
  8
0
 10
-33.6
 11
-35.575
 20
21.5
 21
21.5
  0
LINE
  8
0
 10
-35.575
 11
-35.575
 20
21.5
 21
25.4
  0
LINE
  8
0
 10
-35.575
 11
-34.225
 20
25.4
 21
25.4
  0
LINE
  8
0
 10
-34.225
 11
-34.225
 20
25.4
 21
27.4
  0
LINE
  8
0
 10
-34.225
 11
-35.575
 20
27.4
 21
27.4
  0
LINE
  8
0
 10
-35.575
 11
-35.575
 20
27.4
 21
29.45
  0
LINE
  8
0
 10
-35.575
 11
-38.375
 20
29.45
 21
29.45
  0
LINE
  8
0
 10
-38.375
 11
-38.375
 20
29.45
 21
27.4
  0
LINE
  8
0
 10
-38.375
 11
-39.725
 20
27.4
 21
27.4
  0
LINE
  8
0
 10
-39.725
 11
-39.725
 20
27.4
 21
25.4
  0
LINE
  8
0
 10
-39.725
 11
-38.375
 20
25.4
 21
25.4
  0
LINE
  8
0
 10
-38.375
 11
-38.375
 20
25.4
 21
21.5
  0
LINE
  8
0
 10
-38.375
 11
-40.35
 20
21.5
 21
21.5
  0
LINE
  8
0
 10
-40.35
 11
-40.35
 20
21.5
 21
15.475
  0
LINE
  8
0
 10
-40.35
 11
-49.35
 20
15.475
 21
15.475
  0
LINE
  8
0
 10
-49.35
 11
-49.35
 20
15.475
 21
21.5
  0
LINE
  8
0
 10
-49.35
 11
-54.971
 20
21.5
 21
21.5
  0
LINE
  8
0
 10
-54.971
 11
-49.504
 20
21.5
 21
31.006
  0
LINE
  8
0
 10
-49.504
 11
-49.207
 20
31.006
 21
31.56
  0
LINE
  8
0
 10
-49.207
 11
-48.967
 20
31.56
 21
32.141
  0
LINE
  8
0
 10
-48.967
 11
-48.784
 20
32.141
 21
32.743
  0
LINE
  8
0
 10
-48.784
 11
-48.662
 20
32.743
 21
33.36
  0
LINE
  8
0
 10
-48.662
 11
-48.6
 20
33.36
 21
33.986
  0
LINE
  8
0
 10
-48.6
 11
-48.6
 20
33.986
 21
197.914
  0
LINE
  8
0
 10
-48.6
 11
-48.662
 20
197.914
 21
198.54
  0
LINE
  8
0
 10
-48.662
 11
-48.784
 20
198.54
 21
199.157
  0
LINE
  8
0
 10
-48.784
 11
-48.967
 20
199.157
 21
199.759
  0
LINE
  8
0
 10
-48.967
 11
-49.207
 20
199.759
 21
200.34
  0
LINE
  8
0
 10
-49.207
 11
-49.504
 20
200.34
 21
200.894
  0
LINE
  8
0
 10
-49.504
 11
-49.853
 20
200.894
 21
201.417
  0
LINE
  8
0
 10
-49.853
 11
-50.252
 20
201.417
 21
201.903
  0
LINE
  8
0
 10
-50.252
 11
-50.697
 20
201.903
 21
202.348
  0
LINE
  8
0
 10
-50.697
 11
-51.183
 20
202.348
 21
202.747
  0
LINE
  8
0
 10
-51.183
 11
-51.706
 20
202.747
 21
203.096
  0
LINE
  8
0
 10
-51.706
 11
-52.26
 20
203.096
 21
203.393
  0
LINE
  8
0
 10
-52.26
 11
-52.841
 20
203.393
 21
203.633
  0
LINE
  8
0
 10
-52.841
 11
-53.443
 20
203.633
 21
203.816
  0
LINE
  8
0
 10
-53.443
 11
-54.06
 20
203.816
 21
203.938
  0
LINE
  8
0
 10
-54.06
 11
-54.686
 20
203.938
 21
204
  0
LINE
  8
0
 10
-54.686
 11
-242.514
 20
204
 21
204
  0
LINE
  8
0
 10
-242.514
 11
-243.14
 20
204
 21
203.938
  0
LINE
  8
0
 10
-243.14
 11
-243.757
 20
203.938
 21
203.816
  0
LINE
  8
0
 10
-243.757
 11
-244.359
 20
203.816
 21
203.633
  0
LINE
  8
0
 10
-244.359
 11
-244.94
 20
203.633
 21
203.393
  0
LINE
  8
0
 10
-244.94
 11
-245.494
 20
203.393
 21
203.096
  0
LINE
  8
0
 10
-245.494
 11
-246.017
 20
203.096
 21
202.747
  0
LINE
  8
0
 10
-246.017
 11
-246.503
 20
202.747
 21
202.348
  0
LINE
  8
0
 10
-246.503
 11
-246.948
 20
202.348
 21
201.903
  0
LINE
  8
0
 10
-246.948
 11
-247.347
 20
201.903
 21
201.417
  0
LINE
  8
0
 10
-247.347
 11
-247.696
 20
201.417
 21
200.894
  0
LINE
  8
0
 10
-247.696
 11
-247.993
 20
200.894
 21
200.34
  0
LINE
  8
0
 10
-247.993
 11
-248.233
 20
200.34
 21
199.759
  0
LINE
  8
0
 10
-248.233
 11
-248.416
 20
199.759
 21
199.157
  0
LINE
  8
0
 10
-248.416
 11
-248.538
 20
199.157
 21
198.54
  0
LINE
  8
0
 10
-248.538
 11
-248.6
 20
198.54
 21
197.914
  0
LINE
  8
0
 10
-248.6
 11
-248.6
 20
197.914
 21
33.986
  0
LINE
  8
0
 10
-248.6
 11
-248.538
 20
33.986
 21
33.36
  0
LINE
  8
0
 10
-248.538
 11
-248.416
 20
33.36
 21
32.743
  0
LINE
  8
0
 10
-248.416
 11
-248.233
 20
32.743
 21
32.141
  0
LINE
  8
0
 10
-248.233
 11
-247.993
 20
32.141
 21
31.56
  0
LINE
  8
0
 10
-247.993
 11
-247.696
 20
31.56
 21
31.006
  0
LINE
  8
0
 10
-247.696
 11
-242.229
 20
31.006
 21
21.5
  0
LINE
  8
0
 10
-242.229
 11
-247.85
 20
21.5
 21
21.5
  0
LINE
  8
0
 10
-247.85
 11
-247.85
 20
21.5
 21
15.475
  0
LINE
  8
0
 10
-247.85
 11
-256.85
 20
15.475
 21
15.475
  0
LINE
  8
0
 10
-256.85
 11
-256.85
 20
15.475
 21
21.5
  0
LINE
  8
0
 10
-256.85
 11
-258.825
 20
21.5
 21
21.5
  0
LINE
  8
0
 10
-258.825
 11
-258.825
 20
21.5
 21
25.4
  0
LINE
  8
0
 10
-258.825
 11
-257.475
 20
25.4
 21
25.4
  0
LINE
  8
0
 10
-257.475
 11
-257.475
 20
25.4
 21
27.4
  0
LINE
  8
0
 10
-257.475
 11
-258.825
 20
27.4
 21
27.4
  0
LINE
  8
0
 10
-258.825
 11
-258.825
 20
27.4
 21
29.45
  0
LINE
  8
0
 10
-258.825
 11
-261.625
 20
29.45
 21
29.45
  0
LINE
  8
0
 10
-261.625
 11
-261.625
 20
29.45
 21
27.4
  0
LINE
  8
0
 10
-261.625
 11
-262.975
 20
27.4
 21
27.4
  0
LINE
  8
0
 10
-262.975
 11
-262.975
 20
27.4
 21
25.4
  0
LINE
  8
0
 10
-262.975
 11
-261.625
 20
25.4
 21
25.4
  0
LINE
  8
0
 10
-261.625
 11
-261.625
 20
25.4
 21
21.5
  0
LINE
  8
0
 10
-261.625
 11
-263.6
 20
21.5
 21
21.5
  0
LINE
  8
0
 10
-263.6
 11
-263.6
 20
21.5
 21
15.475
  0
LINE
  8
0
 10
-263.6
 11
-272.6
 20
15.475
 21
15.475
  0
LINE
  8
0
 10
-272.6
 11
-272.6
 20
15.475
 21
21.5
  0
LINE
  8
0
 10
-272.6
 11
-282.6
 20
21.5
 21
21.5
  0
LINE
  8
0
 10
-282.6
 11
-282.6
 20
21.5
 21
31.5
  0
LINE
  8
0
 10
-282.6
 11
-288.625
 20
31.5
 21
31.5
  0
LINE
  8
0
 10
-278.94
 11
-278.94
 20
-294.594
 21
-294.206
  0
LINE
  8
0
 10
-278.94
 11
-278.902
 20
-294.206
 21
-293.821
  0
LINE
  8
0
 10
-278.902
 11
-278.827
 20
-293.821
 21
-293.442
  0
LINE
  8
0
 10
-278.827
 11
-278.714
 20
-293.442
 21
-293.071
  0
LINE
  8
0
 10
-278.714
 11
-278.566
 20
-293.071
 21
-292.713
  0
LINE
  8
0
 10
-278.566
 11
-278.384
 20
-292.713
 21
-292.372
  0
LINE
  8
0
 10
-278.384
 11
-278.168
 20
-292.372
 21
-292.05
  0
LINE
  8
0
 10
-278.168
 11
-277.923
 20
-292.05
 21
-291.751
  0
LINE
  8
0
 10
-277.923
 11
-277.649
 20
-291.751
 21
-291.477
  0
LINE
  8
0
 10
-277.649
 11
-277.35
 20
-291.477
 21
-291.232
  0
LINE
  8
0
 10
-277.35
 11
-277.028
 20
-291.232
 21
-291.016
  0
LINE
  8
0
 10
-277.028
 11
-276.687
 20
-291.016
 21
-290.834
  0
LINE
  8
0
 10
-276.687
 11
-276.329
 20
-290.834
 21
-290.686
  0
LINE
  8
0
 10
-276.329
 11
-275.958
 20
-290.686
 21
-290.573
  0
LINE
  8
0
 10
-275.958
 11
-275.579
 20
-290.573
 21
-290.498
  0
LINE
  8
0
 10
-275.579
 11
-275.194
 20
-290.498
 21
-290.46
  0
LINE
  8
0
 10
-275.194
 11
-274.806
 20
-290.46
 21
-290.46
  0
LINE
  8
0
 10
-274.806
 11
-274.421
 20
-290.46
 21
-290.498
  0
LINE
  8
0
 10
-274.421
 11
-274.042
 20
-290.498
 21
-290.573
  0
LINE
  8
0
 10
-274.042
 11
-273.671
 20
-290.573
 21
-290.686
  0
LINE
  8
0
 10
-273.671
 11
-273.313
 20
-290.686
 21
-290.834
  0
LINE
  8
0
 10
-273.313
 11
-272.972
 20
-290.834
 21
-291.016
  0
LINE
  8
0
 10
-272.972
 11
-272.65
 20
-291.016
 21
-291.232
  0
LINE
  8
0
 10
-272.65
 11
-272.351
 20
-291.232
 21
-291.477
  0
LINE
  8
0
 10
-272.351
 11
-272.077
 20
-291.477
 21
-291.751
  0
LINE
  8
0
 10
-272.077
 11
-271.832
 20
-291.751
 21
-292.05
  0
LINE
  8
0
 10
-271.832
 11
-271.616
 20
-292.05
 21
-292.372
  0
LINE
  8
0
 10
-271.616
 11
-271.434
 20
-292.372
 21
-292.713
  0
LINE
  8
0
 10
-271.434
 11
-271.286
 20
-292.713
 21
-293.071
  0
LINE
  8
0
 10
-271.286
 11
-271.173
 20
-293.071
 21
-293.442
  0
LINE
  8
0
 10
-271.173
 11
-271.098
 20
-293.442
 21
-293.821
  0
LINE
  8
0
 10
-271.098
 11
-271.06
 20
-293.821
 21
-294.206
  0
LINE
  8
0
 10
-271.06
 11
-271.06
 20
-294.206
 21
-294.594
  0
LINE
  8
0
 10
-271.06
 11
-271.098
 20
-294.594
 21
-294.979
  0
LINE
  8
0
 10
-271.098
 11
-271.173
 20
-294.979
 21
-295.358
  0
LINE
  8
0
 10
-271.173
 11
-271.286
 20
-295.358
 21
-295.729
  0
LINE
  8
0
 10
-271.286
 11
-271.434
 20
-295.729
 21
-296.087
  0
LINE
  8
0
 10
-271.434
 11
-271.616
 20
-296.087
 21
-296.428
  0
LINE
  8
0
 10
-271.616
 11
-271.832
 20
-296.428
 21
-296.75
  0
LINE
  8
0
 10
-271.832
 11
-272.077
 20
-296.75
 21
-297.049
  0
LINE
  8
0
 10
-272.077
 11
-272.351
 20
-297.049
 21
-297.323
  0
LINE
  8
0
 10
-272.351
 11
-272.65
 20
-297.323
 21
-297.568
  0
LINE
  8
0
 10
-272.65
 11
-272.972
 20
-297.568
 21
-297.784
  0
LINE
  8
0
 10
-272.972
 11
-273.313
 20
-297.784
 21
-297.966
  0
LINE
  8
0
 10
-273.313
 11
-273.671
 20
-297.966
 21
-298.114
  0
LINE
  8
0
 10
-273.671
 11
-274.042
 20
-298.114
 21
-298.227
  0
LINE
  8
0
 10
-274.042
 11
-274.421
 20
-298.227
 21
-298.302
  0
LINE
  8
0
 10
-274.421
 11
-274.806
 20
-298.302
 21
-298.34
  0
LINE
  8
0
 10
-274.806
 11
-275.194
 20
-298.34
 21
-298.34
  0
LINE
  8
0
 10
-275.194
 11
-275.579
 20
-298.34
 21
-298.302
  0
LINE
  8
0
 10
-275.579
 11
-275.958
 20
-298.302
 21
-298.227
  0
LINE
  8
0
 10
-275.958
 11
-276.329
 20
-298.227
 21
-298.114
  0
LINE
  8
0
 10
-276.329
 11
-276.687
 20
-298.114
 21
-297.966
  0
LINE
  8
0
 10
-276.687
 11
-277.028
 20
-297.966
 21
-297.784
  0
LINE
  8
0
 10
-277.028
 11
-277.35
 20
-297.784
 21
-297.568
  0
LINE
  8
0
 10
-277.35
 11
-277.649
 20
-297.568
 21
-297.323
  0
LINE
  8
0
 10
-277.649
 11
-277.923
 20
-297.323
 21
-297.049
  0
LINE
  8
0
 10
-277.923
 11
-278.168
 20
-297.049
 21
-296.75
  0
LINE
  8
0
 10
-278.168
 11
-278.384
 20
-296.75
 21
-296.428
  0
LINE
  8
0
 10
-278.384
 11
-278.566
 20
-296.428
 21
-296.087
  0
LINE
  8
0
 10
-278.566
 11
-278.714
 20
-296.087
 21
-295.729
  0
LINE
  8
0
 10
-278.714
 11
-278.827
 20
-295.729
 21
-295.358
  0
LINE
  8
0
 10
-278.827
 11
-278.902
 20
-295.358
 21
-294.979
  0
LINE
  8
0
 10
-278.902
 11
-278.94
 20
-294.979
 21
-294.594
  0
LINE
  8
0
 10
-276.5
 11
-276.5
 20
-270.925
 21
-264.875
  0
LINE
  8
0
 10
-276.5
 11
-267.5
 20
-264.875
 21
-264.875
  0
LINE
  8
0
 10
-267.5
 11
-267.5
 20
-264.875
 21
-270.925
  0
LINE
  8
0
 10
-267.5
 11
-276.5
 20
-270.925
 21
-270.925
  0
LINE
  8
0
 10
-276.5
 11
-276.5
 20
-28.025
 21
-21.975
  0
LINE
  8
0
 10
-276.5
 11
-267.5
 20
-21.975
 21
-21.975
  0
LINE
  8
0
 10
-267.5
 11
-267.5
 20
-21.975
 21
-28.025
  0
LINE
  8
0
 10
-267.5
 11
-276.5
 20
-28.025
 21
-28.025
  0
LINE
  8
0
 10
-265.525
 11
-265.525
 20
-268.48
 21
-267.32
  0
LINE
  8
0
 10
-265.525
 11
-264.705
 20
-267.32
 21
-266.5
  0
LINE
  8
0
 10
-264.705
 11
-263.545
 20
-266.5
 21
-266.5
  0
LINE
  8
0
 10
-263.545
 11
-262.725
 20
-266.5
 21
-267.32
  0
LINE
  8
0
 10
-262.725
 11
-262.725
 20
-267.32
 21
-268.48
  0
LINE
  8
0
 10
-262.725
 11
-263.545
 20
-268.48
 21
-269.3
  0
LINE
  8
0
 10
-263.545
 11
-264.705
 20
-269.3
 21
-269.3
  0
LINE
  8
0
 10
-264.705
 11
-265.525
 20
-269.3
 21
-268.48
  0
LINE
  8
0
 10
-265.525
 11
-265.525
 20
-25.58
 21
-24.42
  0
LINE
  8
0
 10
-265.525
 11
-264.705
 20
-24.42
 21
-23.6
  0
LINE
  8
0
 10
-264.705
 11
-263.545
 20
-23.6
 21
-23.6
  0
LINE
  8
0
 10
-263.545
 11
-262.725
 20
-23.6
 21
-24.42
  0
LINE
  8
0
 10
-262.725
 11
-262.725
 20
-24.42
 21
-25.58
  0
LINE
  8
0
 10
-262.725
 11
-263.545
 20
-25.58
 21
-26.4
  0
LINE
  8
0
 10
-263.545
 11
-264.705
 20
-26.4
 21
-26.4
  0
LINE
  8
0
 10
-264.705
 11
-265.525
 20
-26.4
 21
-25.58
  0
LINE
  8
0
 10
-265.3
 11
-265.3
 20
-300.174
 21
-300.026
  0
LINE
  8
0
 10
-265.3
 11
-265.286
 20
-300.026
 21
-299.88
  0
LINE
  8
0
 10
-265.286
 11
-265.257
 20
-299.88
 21
-299.735
  0
LINE
  8
0
 10
-265.257
 11
-265.214
 20
-299.735
 21
-299.594
  0
LINE
  8
0
 10
-265.214
 11
-265.158
 20
-299.594
 21
-299.458
  0
LINE
  8
0
 10
-265.158
 11
-265.088
 20
-299.458
 21
-299.328
  0
LINE
  8
0
 10
-265.088
 11
-265.006
 20
-299.328
 21
-299.205
  0
LINE
  8
0
 10
-265.006
 11
-264.913
 20
-299.205
 21
-299.091
  0
LINE
  8
0
 10
-264.913
 11
-264.809
 20
-299.091
 21
-298.987
  0
LINE
  8
0
 10
-264.809
 11
-264.695
 20
-298.987
 21
-298.894
  0
LINE
  8
0
 10
-264.695
 11
-264.572
 20
-298.894
 21
-298.812
  0
LINE
  8
0
 10
-264.572
 11
-264.442
 20
-298.812
 21
-298.742
  0
LINE
  8
0
 10
-264.442
 11
-264.306
 20
-298.742
 21
-298.686
  0
LINE
  8
0
 10
-264.306
 11
-264.165
 20
-298.686
 21
-298.643
  0
LINE
  8
0
 10
-264.165
 11
-264.02
 20
-298.643
 21
-298.614
  0
LINE
  8
0
 10
-264.02
 11
-263.874
 20
-298.614
 21
-298.6
  0
LINE
  8
0
 10
-263.874
 11
-263.726
 20
-298.6
 21
-298.6
  0
LINE
  8
0
 10
-263.726
 11
-263.58
 20
-298.6
 21
-298.614
  0
LINE
  8
0
 10
-263.58
 11
-263.435
 20
-298.614
 21
-298.643
  0
LINE
  8
0
 10
-263.435
 11
-263.294
 20
-298.643
 21
-298.686
  0
LINE
  8
0
 10
-263.294
 11
-263.158
 20
-298.686
 21
-298.742
  0
LINE
  8
0
 10
-263.158
 11
-263.028
 20
-298.742
 21
-298.812
  0
LINE
  8
0
 10
-263.028
 11
-262.905
 20
-298.812
 21
-298.894
  0
LINE
  8
0
 10
-262.905
 11
-262.791
 20
-298.894
 21
-298.987
  0
LINE
  8
0
 10
-262.791
 11
-262.687
 20
-298.987
 21
-299.091
  0
LINE
  8
0
 10
-262.687
 11
-262.594
 20
-299.091
 21
-299.205
  0
LINE
  8
0
 10
-262.594
 11
-262.512
 20
-299.205
 21
-299.328
  0
LINE
  8
0
 10
-262.512
 11
-262.442
 20
-299.328
 21
-299.458
  0
LINE
  8
0
 10
-262.442
 11
-262.386
 20
-299.458
 21
-299.594
  0
LINE
  8
0
 10
-262.386
 11
-262.343
 20
-299.594
 21
-299.735
  0
LINE
  8
0
 10
-262.343
 11
-262.314
 20
-299.735
 21
-299.88
  0
LINE
  8
0
 10
-262.314
 11
-262.3
 20
-299.88
 21
-300.026
  0
LINE
  8
0
 10
-262.3
 11
-262.3
 20
-300.026
 21
-300.174
  0
LINE
  8
0
 10
-262.3
 11
-262.314
 20
-300.174
 21
-300.32
  0
LINE
  8
0
 10
-262.314
 11
-262.343
 20
-300.32
 21
-300.465
  0
LINE
  8
0
 10
-262.343
 11
-262.386
 20
-300.465
 21
-300.606
  0
LINE
  8
0
 10
-262.386
 11
-262.442
 20
-300.606
 21
-300.742
  0
LINE
  8
0
 10
-262.442
 11
-262.512
 20
-300.742
 21
-300.872
  0
LINE
  8
0
 10
-262.512
 11
-262.594
 20
-300.872
 21
-300.995
  0
LINE
  8
0
 10
-262.594
 11
-262.687
 20
-300.995
 21
-301.109
  0
LINE
  8
0
 10
-262.687
 11
-262.791
 20
-301.109
 21
-301.213
  0
LINE
  8
0
 10
-262.791
 11
-262.905
 20
-301.213
 21
-301.306
  0
LINE
  8
0
 10
-262.905
 11
-263.028
 20
-301.306
 21
-301.388
  0
LINE
  8
0
 10
-263.028
 11
-263.158
 20
-301.388
 21
-301.458
  0
LINE
  8
0
 10
-263.158
 11
-263.294
 20
-301.458
 21
-301.514
  0
LINE
  8
0
 10
-263.294
 11
-263.435
 20
-301.514
 21
-301.557
  0
LINE
  8
0
 10
-263.435
 11
-263.58
 20
-301.557
 21
-301.586
  0
LINE
  8
0
 10
-263.58
 11
-263.726
 20
-301.586
 21
-301.6
  0
LINE
  8
0
 10
-263.726
 11
-263.874
 20
-301.6
 21
-301.6
  0
LINE
  8
0
 10
-263.874
 11
-264.02
 20
-301.6
 21
-301.586
  0
LINE
  8
0
 10
-264.02
 11
-264.165
 20
-301.586
 21
-301.557
  0
LINE
  8
0
 10
-264.165
 11
-264.306
 20
-301.557
 21
-301.514
  0
LINE
  8
0
 10
-264.306
 11
-264.442
 20
-301.514
 21
-301.458
  0
LINE
  8
0
 10
-264.442
 11
-264.572
 20
-301.458
 21
-301.388
  0
LINE
  8
0
 10
-264.572
 11
-264.695
 20
-301.388
 21
-301.306
  0
LINE
  8
0
 10
-264.695
 11
-264.809
 20
-301.306
 21
-301.213
  0
LINE
  8
0
 10
-264.809
 11
-264.913
 20
-301.213
 21
-301.109
  0
LINE
  8
0
 10
-264.913
 11
-265.006
 20
-301.109
 21
-300.995
  0
LINE
  8
0
 10
-265.006
 11
-265.088
 20
-300.995
 21
-300.872
  0
LINE
  8
0
 10
-265.088
 11
-265.158
 20
-300.872
 21
-300.742
  0
LINE
  8
0
 10
-265.158
 11
-265.214
 20
-300.742
 21
-300.606
  0
LINE
  8
0
 10
-265.214
 11
-265.257
 20
-300.606
 21
-300.465
  0
LINE
  8
0
 10
-265.257
 11
-265.286
 20
-300.465
 21
-300.32
  0
LINE
  8
0
 10
-265.286
 11
-265.3
 20
-300.32
 21
-300.174
  0
LINE
  8
0
 10
-265.3
 11
-265.3
 20
-291.574
 21
-291.426
  0
LINE
  8
0
 10
-265.3
 11
-265.286
 20
-291.426
 21
-291.28
  0
LINE
  8
0
 10
-265.286
 11
-265.257
 20
-291.28
 21
-291.135
  0
LINE
  8
0
 10
-265.257
 11
-265.214
 20
-291.135
 21
-290.994
  0
LINE
  8
0
 10
-265.214
 11
-265.158
 20
-290.994
 21
-290.858
  0
LINE
  8
0
 10
-265.158
 11
-265.088
 20
-290.858
 21
-290.728
  0
LINE
  8
0
 10
-265.088
 11
-265.006
 20
-290.728
 21
-290.605
  0
LINE
  8
0
 10
-265.006
 11
-264.913
 20
-290.605
 21
-290.491
  0
LINE
  8
0
 10
-264.913
 11
-264.809
 20
-290.491
 21
-290.387
  0
LINE
  8
0
 10
-264.809
 11
-264.695
 20
-290.387
 21
-290.294
  0
LINE
  8
0
 10
-264.695
 11
-264.572
 20
-290.294
 21
-290.212
  0
LINE
  8
0
 10
-264.572
 11
-264.442
 20
-290.212
 21
-290.142
  0
LINE
  8
0
 10
-264.442
 11
-264.306
 20
-290.142
 21
-290.086
  0
LINE
  8
0
 10
-264.306
 11
-264.165
 20
-290.086
 21
-290.043
  0
LINE
  8
0
 10
-264.165
 11
-264.02
 20
-290.043
 21
-290.014
  0
LINE
  8
0
 10
-264.02
 11
-263.874
 20
-290.014
 21
-290
  0
LINE
  8
0
 10
-263.874
 11
-263.726
 20
-290
 21
-290
  0
LINE
  8
0
 10
-263.726
 11
-263.58
 20
-290
 21
-290.014
  0
LINE
  8
0
 10
-263.58
 11
-263.435
 20
-290.014
 21
-290.043
  0
LINE
  8
0
 10
-263.435
 11
-263.294
 20
-290.043
 21
-290.086
  0
LINE
  8
0
 10
-263.294
 11
-263.158
 20
-290.086
 21
-290.142
  0
LINE
  8
0
 10
-263.158
 11
-263.028
 20
-290.142
 21
-290.212
  0
LINE
  8
0
 10
-263.028
 11
-262.905
 20
-290.212
 21
-290.294
  0
LINE
  8
0
 10
-262.905
 11
-262.791
 20
-290.294
 21
-290.387
  0
LINE
  8
0
 10
-262.791
 11
-262.687
 20
-290.387
 21
-290.491
  0
LINE
  8
0
 10
-262.687
 11
-262.594
 20
-290.491
 21
-290.605
  0
LINE
  8
0
 10
-262.594
 11
-262.512
 20
-290.605
 21
-290.728
  0
LINE
  8
0
 10
-262.512
 11
-262.442
 20
-290.728
 21
-290.858
  0
LINE
  8
0
 10
-262.442
 11
-262.386
 20
-290.858
 21
-290.994
  0
LINE
  8
0
 10
-262.386
 11
-262.343
 20
-290.994
 21
-291.135
  0
LINE
  8
0
 10
-262.343
 11
-262.314
 20
-291.135
 21
-291.28
  0
LINE
  8
0
 10
-262.314
 11
-262.3
 20
-291.28
 21
-291.426
  0
LINE
  8
0
 10
-262.3
 11
-262.3
 20
-291.426
 21
-291.574
  0
LINE
  8
0
 10
-262.3
 11
-262.314
 20
-291.574
 21
-291.72
  0
LINE
  8
0
 10
-262.314
 11
-262.343
 20
-291.72
 21
-291.865
  0
LINE
  8
0
 10
-262.343
 11
-262.386
 20
-291.865
 21
-292.006
  0
LINE
  8
0
 10
-262.386
 11
-262.442
 20
-292.006
 21
-292.142
  0
LINE
  8
0
 10
-262.442
 11
-262.512
 20
-292.142
 21
-292.272
  0
LINE
  8
0
 10
-262.512
 11
-262.594
 20
-292.272
 21
-292.395
  0
LINE
  8
0
 10
-262.594
 11
-262.687
 20
-292.395
 21
-292.509
  0
LINE
  8
0
 10
-262.687
 11
-262.791
 20
-292.509
 21
-292.613
  0
LINE
  8
0
 10
-262.791
 11
-262.905
 20
-292.613
 21
-292.706
  0
LINE
  8
0
 10
-262.905
 11
-263.028
 20
-292.706
 21
-292.788
  0
LINE
  8
0
 10
-263.028
 11
-263.158
 20
-292.788
 21
-292.858
  0
LINE
  8
0
 10
-263.158
 11
-263.294
 20
-292.858
 21
-292.914
  0
LINE
  8
0
 10
-263.294
 11
-263.435
 20
-292.914
 21
-292.957
  0
LINE
  8
0
 10
-263.435
 11
-263.58
 20
-292.957
 21
-292.986
  0
LINE
  8
0
 10
-263.58
 11
-263.726
 20
-292.986
 21
-293
  0
LINE
  8
0
 10
-263.726
 11
-263.874
 20
-293
 21
-293
  0
LINE
  8
0
 10
-263.874
 11
-264.02
 20
-293
 21
-292.986
  0
LINE
  8
0
 10
-264.02
 11
-264.165
 20
-292.986
 21
-292.957
  0
LINE
  8
0
 10
-264.165
 11
-264.306
 20
-292.957
 21
-292.914
  0
LINE
  8
0
 10
-264.306
 11
-264.442
 20
-292.914
 21
-292.858
  0
LINE
  8
0
 10
-264.442
 11
-264.572
 20
-292.858
 21
-292.788
  0
LINE
  8
0
 10
-264.572
 11
-264.695
 20
-292.788
 21
-292.706
  0
LINE
  8
0
 10
-264.695
 11
-264.809
 20
-292.706
 21
-292.613
  0
LINE
  8
0
 10
-264.809
 11
-264.913
 20
-292.613
 21
-292.509
  0
LINE
  8
0
 10
-264.913
 11
-265.006
 20
-292.509
 21
-292.395
  0
LINE
  8
0
 10
-265.006
 11
-265.088
 20
-292.395
 21
-292.272
  0
LINE
  8
0
 10
-265.088
 11
-265.158
 20
-292.272
 21
-292.142
  0
LINE
  8
0
 10
-265.158
 11
-265.214
 20
-292.142
 21
-292.006
  0
LINE
  8
0
 10
-265.214
 11
-265.257
 20
-292.006
 21
-291.865
  0
LINE
  8
0
 10
-265.257
 11
-265.286
 20
-291.865
 21
-291.72
  0
LINE
  8
0
 10
-265.286
 11
-265.3
 20
-291.72
 21
-291.574
  0
LINE
  8
0
 10
-260.75
 11
-260.75
 20
-270.925
 21
-264.875
  0
LINE
  8
0
 10
-260.75
 11
-251.75
 20
-264.875
 21
-264.875
  0
LINE
  8
0
 10
-251.75
 11
-251.75
 20
-264.875
 21
-270.925
  0
LINE
  8
0
 10
-251.75
 11
-260.75
 20
-270.925
 21
-270.925
  0
LINE
  8
0
 10
-260.75
 11
-260.75
 20
-28.025
 21
-21.975
  0
LINE
  8
0
 10
-260.75
 11
-251.75
 20
-21.975
 21
-21.975
  0
LINE
  8
0
 10
-251.75
 11
-251.75
 20
-21.975
 21
-28.025
  0
LINE
  8
0
 10
-251.75
 11
-260.75
 20
-28.025
 21
-28.025
  0
LINE
  8
0
 10
-202.083
 11
-202.083
 20
-28.025
 21
-21.975
  0
LINE
  8
0
 10
-202.083
 11
-193.083
 20
-21.975
 21
-21.975
  0
LINE
  8
0
 10
-193.083
 11
-193.083
 20
-21.975
 21
-28.025
  0
LINE
  8
0
 10
-193.083
 11
-202.083
 20
-28.025
 21
-28.025
  0
LINE
  8
0
 10
-202.04
 11
-202.04
 20
217.306
 21
217.694
  0
LINE
  8
0
 10
-202.04
 11
-202.002
 20
217.694
 21
218.079
  0
LINE
  8
0
 10
-202.002
 11
-201.927
 20
218.079
 21
218.458
  0
LINE
  8
0
 10
-201.927
 11
-201.814
 20
218.458
 21
218.829
  0
LINE
  8
0
 10
-201.814
 11
-201.666
 20
218.829
 21
219.187
  0
LINE
  8
0
 10
-201.666
 11
-201.484
 20
219.187
 21
219.528
  0
LINE
  8
0
 10
-201.484
 11
-201.268
 20
219.528
 21
219.85
  0
LINE
  8
0
 10
-201.268
 11
-201.023
 20
219.85
 21
220.149
  0
LINE
  8
0
 10
-201.023
 11
-200.749
 20
220.149
 21
220.423
  0
LINE
  8
0
 10
-200.749
 11
-200.45
 20
220.423
 21
220.668
  0
LINE
  8
0
 10
-200.45
 11
-200.128
 20
220.668
 21
220.884
  0
LINE
  8
0
 10
-200.128
 11
-199.787
 20
220.884
 21
221.066
  0
LINE
  8
0
 10
-199.787
 11
-199.429
 20
221.066
 21
221.214
  0
LINE
  8
0
 10
-199.429
 11
-199.058
 20
221.214
 21
221.327
  0
LINE
  8
0
 10
-199.058
 11
-198.679
 20
221.327
 21
221.402
  0
LINE
  8
0
 10
-198.679
 11
-198.294
 20
221.402
 21
221.44
  0
LINE
  8
0
 10
-198.294
 11
-197.906
 20
221.44
 21
221.44
  0
LINE
  8
0
 10
-197.906
 11
-197.521
 20
221.44
 21
221.402
  0
LINE
  8
0
 10
-197.521
 11
-197.142
 20
221.402
 21
221.327
  0
LINE
  8
0
 10
-197.142
 11
-196.771
 20
221.327
 21
221.214
  0
LINE
  8
0
 10
-196.771
 11
-196.413
 20
221.214
 21
221.066
  0
LINE
  8
0
 10
-196.413
 11
-196.072
 20
221.066
 21
220.884
  0
LINE
  8
0
 10
-196.072
 11
-195.75
 20
220.884
 21
220.668
  0
LINE
  8
0
 10
-195.75
 11
-195.451
 20
220.668
 21
220.423
  0
LINE
  8
0
 10
-195.451
 11
-195.177
 20
220.423
 21
220.149
  0
LINE
  8
0
 10
-195.177
 11
-194.932
 20
220.149
 21
219.85
  0
LINE
  8
0
 10
-194.932
 11
-194.716
 20
219.85
 21
219.528
  0
LINE
  8
0
 10
-194.716
 11
-194.534
 20
219.528
 21
219.187
  0
LINE
  8
0
 10
-194.534
 11
-194.386
 20
219.187
 21
218.829
  0
LINE
  8
0
 10
-194.386
 11
-194.273
 20
218.829
 21
218.458
  0
LINE
  8
0
 10
-194.273
 11
-194.198
 20
218.458
 21
218.079
  0
LINE
  8
0
 10
-194.198
 11
-194.16
 20
218.079
 21
217.694
  0
LINE
  8
0
 10
-194.16
 11
-194.16
 20
217.694
 21
217.306
  0
LINE
  8
0
 10
-194.16
 11
-194.198
 20
217.306
 21
216.921
  0
LINE
  8
0
 10
-194.198
 11
-194.273
 20
216.921
 21
216.542
  0
LINE
  8
0
 10
-194.273
 11
-194.386
 20
216.542
 21
216.171
  0
LINE
  8
0
 10
-194.386
 11
-194.534
 20
216.171
 21
215.813
  0
LINE
  8
0
 10
-194.534
 11
-194.716
 20
215.813
 21
215.472
  0
LINE
  8
0
 10
-194.716
 11
-194.932
 20
215.472
 21
215.15
  0
LINE
  8
0
 10
-194.932
 11
-195.177
 20
215.15
 21
214.851
  0
LINE
  8
0
 10
-195.177
 11
-195.451
 20
214.851
 21
214.577
  0
LINE
  8
0
 10
-195.451
 11
-195.75
 20
214.577
 21
214.332
  0
LINE
  8
0
 10
-195.75
 11
-196.072
 20
214.332
 21
214.116
  0
LINE
  8
0
 10
-196.072
 11
-196.413
 20
214.116
 21
213.934
  0
LINE
  8
0
 10
-196.413
 11
-196.771
 20
213.934
 21
213.786
  0
LINE
  8
0
 10
-196.771
 11
-197.142
 20
213.786
 21
213.673
  0
LINE
  8
0
 10
-197.142
 11
-197.521
 20
213.673
 21
213.598
  0
LINE
  8
0
 10
-197.521
 11
-197.906
 20
213.598
 21
213.56
  0
LINE
  8
0
 10
-197.906
 11
-198.294
 20
213.56
 21
213.56
  0
LINE
  8
0
 10
-198.294
 11
-198.679
 20
213.56
 21
213.598
  0
LINE
  8
0
 10
-198.679
 11
-199.058
 20
213.598
 21
213.673
  0
LINE
  8
0
 10
-199.058
 11
-199.429
 20
213.673
 21
213.786
  0
LINE
  8
0
 10
-199.429
 11
-199.787
 20
213.786
 21
213.934
  0
LINE
  8
0
 10
-199.787
 11
-200.128
 20
213.934
 21
214.116
  0
LINE
  8
0
 10
-200.128
 11
-200.45
 20
214.116
 21
214.332
  0
LINE
  8
0
 10
-200.45
 11
-200.749
 20
214.332
 21
214.577
  0
LINE
  8
0
 10
-200.749
 11
-201.023
 20
214.577
 21
214.851
  0
LINE
  8
0
 10
-201.023
 11
-201.268
 20
214.851
 21
215.15
  0
LINE
  8
0
 10
-201.268
 11
-201.484
 20
215.15
 21
215.472
  0
LINE
  8
0
 10
-201.484
 11
-201.666
 20
215.472
 21
215.813
  0
LINE
  8
0
 10
-201.666
 11
-201.814
 20
215.813
 21
216.171
  0
LINE
  8
0
 10
-201.814
 11
-201.927
 20
216.171
 21
216.542
  0
LINE
  8
0
 10
-201.927
 11
-202.002
 20
216.542
 21
216.921
  0
LINE
  8
0
 10
-202.002
 11
-202.04
 20
216.921
 21
217.306
  0
LINE
  8
0
 10
-196.05
 11
-196.05
 20
298.25
 21
403.75
  0
LINE
  8
0
 10
-196.05
 11
-56.6
 20
403.75
 21
403.75
  0
LINE
  8
0
 10
-56.6
 11
-56.6
 20
403.75
 21
298.25
  0
LINE
  8
0
 10
-56.6
 11
-196.05
 20
298.25
 21
298.25
  0
LINE
  8
0
 10
-191.108
 11
-191.108
 20
-25.58
 21
-24.42
  0
LINE
  8
0
 10
-191.108
 11
-190.288
 20
-24.42
 21
-23.6
  0
LINE
  8
0
 10
-190.288
 11
-189.128
 20
-23.6
 21
-23.6
  0
LINE
  8
0
 10
-189.128
 11
-188.308
 20
-23.6
 21
-24.42
  0
LINE
  8
0
 10
-188.308
 11
-188.308
 20
-24.42
 21
-25.58
  0
LINE
  8
0
 10
-188.308
 11
-189.128
 20
-25.58
 21
-26.4
  0
LINE
  8
0
 10
-189.128
 11
-190.288
 20
-26.4
 21
-26.4
  0
LINE
  8
0
 10
-190.288
 11
-191.108
 20
-26.4
 21
-25.58
  0
LINE
  8
0
 10
-186.333
 11
-186.333
 20
-28.025
 21
-21.975
  0
LINE
  8
0
 10
-186.333
 11
-177.333
 20
-21.975
 21
-21.975
  0
LINE
  8
0
 10
-177.333
 11
-177.333
 20
-21.975
 21
-28.025
  0
LINE
  8
0
 10
-177.333
 11
-186.333
 20
-28.025
 21
-28.025
  0
LINE
  8
0
 10
-127.667
 11
-127.667
 20
-28.025
 21
-21.975
  0
LINE
  8
0
 10
-127.667
 11
-118.667
 20
-21.975
 21
-21.975
  0
LINE
  8
0
 10
-118.667
 11
-118.667
 20
-21.975
 21
-28.025
  0
LINE
  8
0
 10
-118.667
 11
-127.667
 20
-28.025
 21
-28.025
  0
LINE
  8
0
 10
-116.692
 11
-116.692
 20
-25.58
 21
-24.42
  0
LINE
  8
0
 10
-116.692
 11
-115.872
 20
-24.42
 21
-23.6
  0
LINE
  8
0
 10
-115.872
 11
-114.712
 20
-23.6
 21
-23.6
  0
LINE
  8
0
 10
-114.712
 11
-113.892
 20
-23.6
 21
-24.42
  0
LINE
  8
0
 10
-113.892
 11
-113.892
 20
-24.42
 21
-25.58
  0
LINE
  8
0
 10
-113.892
 11
-114.712
 20
-25.58
 21
-26.4
  0
LINE
  8
0
 10
-114.712
 11
-115.872
 20
-26.4
 21
-26.4
  0
LINE
  8
0
 10
-115.872
 11
-116.692
 20
-26.4
 21
-25.58
  0
LINE
  8
0
 10
-111.917
 11
-111.917
 20
-28.025
 21
-21.975
  0
LINE
  8
0
 10
-111.917
 11
-102.917
 20
-21.975
 21
-21.975
  0
LINE
  8
0
 10
-102.917
 11
-102.917
 20
-21.975
 21
-28.025
  0
LINE
  8
0
 10
-102.917
 11
-111.917
 20
-28.025
 21
-28.025
  0
LINE
  8
0
 10
-103.04
 11
-103.04
 20
217.306
 21
217.694
  0
LINE
  8
0
 10
-103.04
 11
-103.002
 20
217.694
 21
218.079
  0
LINE
  8
0
 10
-103.002
 11
-102.927
 20
218.079
 21
218.458
  0
LINE
  8
0
 10
-102.927
 11
-102.814
 20
218.458
 21
218.829
  0
LINE
  8
0
 10
-102.814
 11
-102.666
 20
218.829
 21
219.187
  0
LINE
  8
0
 10
-102.666
 11
-102.484
 20
219.187
 21
219.528
  0
LINE
  8
0
 10
-102.484
 11
-102.268
 20
219.528
 21
219.85
  0
LINE
  8
0
 10
-102.268
 11
-102.023
 20
219.85
 21
220.149
  0
LINE
  8
0
 10
-102.023
 11
-101.749
 20
220.149
 21
220.423
  0
LINE
  8
0
 10
-101.749
 11
-101.45
 20
220.423
 21
220.668
  0
LINE
  8
0
 10
-101.45
 11
-101.128
 20
220.668
 21
220.884
  0
LINE
  8
0
 10
-101.128
 11
-100.787
 20
220.884
 21
221.066
  0
LINE
  8
0
 10
-100.787
 11
-100.429
 20
221.066
 21
221.214
  0
LINE
  8
0
 10
-100.429
 11
-100.058
 20
221.214
 21
221.327
  0
LINE
  8
0
 10
-100.058
 11
-99.679
 20
221.327
 21
221.402
  0
LINE
  8
0
 10
-99.679
 11
-99.294
 20
221.402
 21
221.44
  0
LINE
  8
0
 10
-99.294
 11
-98.906
 20
221.44
 21
221.44
  0
LINE
  8
0
 10
-98.906
 11
-98.521
 20
221.44
 21
221.402
  0
LINE
  8
0
 10
-98.521
 11
-98.142
 20
221.402
 21
221.327
  0
LINE
  8
0
 10
-98.142
 11
-97.771
 20
221.327
 21
221.214
  0
LINE
  8
0
 10
-97.771
 11
-97.413
 20
221.214
 21
221.066
  0
LINE
  8
0
 10
-97.413
 11
-97.072
 20
221.066
 21
220.884
  0
LINE
  8
0
 10
-97.072
 11
-96.75
 20
220.884
 21
220.668
  0
LINE
  8
0
 10
-96.75
 11
-96.451
 20
220.668
 21
220.423
  0
LINE
  8
0
 10
-96.451
 11
-96.177
 20
220.423
 21
220.149
  0
LINE
  8
0
 10
-96.177
 11
-95.932
 20
220.149
 21
219.85
  0
LINE
  8
0
 10
-95.932
 11
-95.716
 20
219.85
 21
219.528
  0
LINE
  8
0
 10
-95.716
 11
-95.534
 20
219.528
 21
219.187
  0
LINE
  8
0
 10
-95.534
 11
-95.386
 20
219.187
 21
218.829
  0
LINE
  8
0
 10
-95.386
 11
-95.273
 20
218.829
 21
218.458
  0
LINE
  8
0
 10
-95.273
 11
-95.198
 20
218.458
 21
218.079
  0
LINE
  8
0
 10
-95.198
 11
-95.16
 20
218.079
 21
217.694
  0
LINE
  8
0
 10
-95.16
 11
-95.16
 20
217.694
 21
217.306
  0
LINE
  8
0
 10
-95.16
 11
-95.198
 20
217.306
 21
216.921
  0
LINE
  8
0
 10
-95.198
 11
-95.273
 20
216.921
 21
216.542
  0
LINE
  8
0
 10
-95.273
 11
-95.386
 20
216.542
 21
216.171
  0
LINE
  8
0
 10
-95.386
 11
-95.534
 20
216.171
 21
215.813
  0
LINE
  8
0
 10
-95.534
 11
-95.716
 20
215.813
 21
215.472
  0
LINE
  8
0
 10
-95.716
 11
-95.932
 20
215.472
 21
215.15
  0
LINE
  8
0
 10
-95.932
 11
-96.177
 20
215.15
 21
214.851
  0
LINE
  8
0
 10
-96.177
 11
-96.451
 20
214.851
 21
214.577
  0
LINE
  8
0
 10
-96.451
 11
-96.75
 20
214.577
 21
214.332
  0
LINE
  8
0
 10
-96.75
 11
-97.072
 20
214.332
 21
214.116
  0
LINE
  8
0
 10
-97.072
 11
-97.413
 20
214.116
 21
213.934
  0
LINE
  8
0
 10
-97.413
 11
-97.771
 20
213.934
 21
213.786
  0
LINE
  8
0
 10
-97.771
 11
-98.142
 20
213.786
 21
213.673
  0
LINE
  8
0
 10
-98.142
 11
-98.521
 20
213.673
 21
213.598
  0
LINE
  8
0
 10
-98.521
 11
-98.906
 20
213.598
 21
213.56
  0
LINE
  8
0
 10
-98.906
 11
-99.294
 20
213.56
 21
213.56
  0
LINE
  8
0
 10
-99.294
 11
-99.679
 20
213.56
 21
213.598
  0
LINE
  8
0
 10
-99.679
 11
-100.058
 20
213.598
 21
213.673
  0
LINE
  8
0
 10
-100.058
 11
-100.429
 20
213.673
 21
213.786
  0
LINE
  8
0
 10
-100.429
 11
-100.787
 20
213.786
 21
213.934
  0
LINE
  8
0
 10
-100.787
 11
-101.128
 20
213.934
 21
214.116
  0
LINE
  8
0
 10
-101.128
 11
-101.45
 20
214.116
 21
214.332
  0
LINE
  8
0
 10
-101.45
 11
-101.749
 20
214.332
 21
214.577
  0
LINE
  8
0
 10
-101.749
 11
-102.023
 20
214.577
 21
214.851
  0
LINE
  8
0
 10
-102.023
 11
-102.268
 20
214.851
 21
215.15
  0
LINE
  8
0
 10
-102.268
 11
-102.484
 20
215.15
 21
215.472
  0
LINE
  8
0
 10
-102.484
 11
-102.666
 20
215.472
 21
215.813
  0
LINE
  8
0
 10
-102.666
 11
-102.814
 20
215.813
 21
216.171
  0
LINE
  8
0
 10
-102.814
 11
-102.927
 20
216.171
 21
216.542
  0
LINE
  8
0
 10
-102.927
 11
-103.002
 20
216.542
 21
216.921
  0
LINE
  8
0
 10
-103.002
 11
-103.04
 20
216.921
 21
217.306
  0
LINE
  8
0
 10
-53.25
 11
-53.25
 20
-270.925
 21
-264.875
  0
LINE
  8
0
 10
-53.25
 11
-44.25
 20
-264.875
 21
-264.875
  0
LINE
  8
0
 10
-44.25
 11
-44.25
 20
-264.875
 21
-270.925
  0
LINE
  8
0
 10
-44.25
 11
-53.25
 20
-270.925
 21
-270.925
  0
LINE
  8
0
 10
-53.25
 11
-53.25
 20
-28.025
 21
-21.975
  0
LINE
  8
0
 10
-53.25
 11
-44.25
 20
-21.975
 21
-21.975
  0
LINE
  8
0
 10
-44.25
 11
-44.25
 20
-21.975
 21
-28.025
  0
LINE
  8
0
 10
-44.25
 11
-53.25
 20
-28.025
 21
-28.025
  0
LINE
  8
0
 10
-50.625
 11
-50.625
 20
255.5
 21
264.5
  0
LINE
  8
0
 10
-50.625
 11
-44.575
 20
264.5
 21
264.5
  0
LINE
  8
0
 10
-44.575
 11
-44.575
 20
264.5
 21
255.5
  0
LINE
  8
0
 10
-44.575
 11
-50.625
 20
255.5
 21
255.5
  0
LINE
  8
0
 10
-50.625
 11
-50.625
 20
271.25
 21
280.25
  0
LINE
  8
0
 10
-50.625
 11
-44.575
 20
280.25
 21
280.25
  0
LINE
  8
0
 10
-44.575
 11
-44.575
 20
280.25
 21
271.25
  0
LINE
  8
0
 10
-44.575
 11
-50.625
 20
271.25
 21
271.25
  0
LINE
  8
0
 10
-50.625
 11
-50.625
 20
338.625
 21
347.625
  0
LINE
  8
0
 10
-50.625
 11
-44.575
 20
347.625
 21
347.625
  0
LINE
  8
0
 10
-44.575
 11
-44.575
 20
347.625
 21
338.625
  0
LINE
  8
0
 10
-44.575
 11
-50.625
 20
338.625
 21
338.625
  0
LINE
  8
0
 10
-50.625
 11
-50.625
 20
354.375
 21
363.375
  0
LINE
  8
0
 10
-50.625
 11
-44.575
 20
363.375
 21
363.375
  0
LINE
  8
0
 10
-44.575
 11
-44.575
 20
363.375
 21
354.375
  0
LINE
  8
0
 10
-44.575
 11
-50.625
 20
354.375
 21
354.375
  0
LINE
  8
0
 10
-50.625
 11
-50.625
 20
421.75
 21
430.75
  0
LINE
  8
0
 10
-50.625
 11
-44.575
 20
430.75
 21
430.75
  0
LINE
  8
0
 10
-44.575
 11
-44.575
 20
430.75
 21
421.75
  0
LINE
  8
0
 10
-44.575
 11
-50.625
 20
421.75
 21
421.75
  0
LINE
  8
0
 10
-50.625
 11
-50.625
 20
437.5
 21
446.5
  0
LINE
  8
0
 10
-50.625
 11
-44.575
 20
446.5
 21
446.5
  0
LINE
  8
0
 10
-44.575
 11
-44.575
 20
446.5
 21
437.5
  0
LINE
  8
0
 10
-44.575
 11
-50.625
 20
437.5
 21
437.5
  0
LINE
  8
0
 10
-49
 11
-49
 20
267.295
 21
268.455
  0
LINE
  8
0
 10
-49
 11
-48.18
 20
268.455
 21
269.275
  0
LINE
  8
0
 10
-48.18
 11
-47.02
 20
269.275
 21
269.275
  0
LINE
  8
0
 10
-47.02
 11
-46.2
 20
269.275
 21
268.455
  0
LINE
  8
0
 10
-46.2
 11
-46.2
 20
268.455
 21
267.295
  0
LINE
  8
0
 10
-46.2
 11
-47.02
 20
267.295
 21
266.475
  0
LINE
  8
0
 10
-47.02
 11
-48.18
 20
266.475
 21
266.475
  0
LINE
  8
0
 10
-48.18
 11
-49
 20
266.475
 21
267.295
  0
LINE
  8
0
 10
-49
 11
-49
 20
350.42
 21
351.58
  0
LINE
  8
0
 10
-49
 11
-48.18
 20
351.58
 21
352.4
  0
LINE
  8
0
 10
-48.18
 11
-47.02
 20
352.4
 21
352.4
  0
LINE
  8
0
 10
-47.02
 11
-46.2
 20
352.4
 21
351.58
  0
LINE
  8
0
 10
-46.2
 11
-46.2
 20
351.58
 21
350.42
  0
LINE
  8
0
 10
-46.2
 11
-47.02
 20
350.42
 21
349.6
  0
LINE
  8
0
 10
-47.02
 11
-48.18
 20
349.6
 21
349.6
  0
LINE
  8
0
 10
-48.18
 11
-49
 20
349.6
 21
350.42
  0
LINE
  8
0
 10
-49
 11
-49
 20
433.545
 21
434.705
  0
LINE
  8
0
 10
-49
 11
-48.18
 20
434.705
 21
435.525
  0
LINE
  8
0
 10
-48.18
 11
-47.02
 20
435.525
 21
435.525
  0
LINE
  8
0
 10
-47.02
 11
-46.2
 20
435.525
 21
434.705
  0
LINE
  8
0
 10
-46.2
 11
-46.2
 20
434.705
 21
433.545
  0
LINE
  8
0
 10
-46.2
 11
-47.02
 20
433.545
 21
432.725
  0
LINE
  8
0
 10
-47.02
 11
-48.18
 20
432.725
 21
432.725
  0
LINE
  8
0
 10
-48.18
 11
-49
 20
432.725
 21
433.545
  0
LINE
  8
0
 10
-42.7
 11
-42.7
 20
-300.174
 21
-300.026
  0
LINE
  8
0
 10
-42.7
 11
-42.686
 20
-300.026
 21
-299.88
  0
LINE
  8
0
 10
-42.686
 11
-42.657
 20
-299.88
 21
-299.735
  0
LINE
  8
0
 10
-42.657
 11
-42.614
 20
-299.735
 21
-299.594
  0
LINE
  8
0
 10
-42.614
 11
-42.558
 20
-299.594
 21
-299.458
  0
LINE
  8
0
 10
-42.558
 11
-42.488
 20
-299.458
 21
-299.328
  0
LINE
  8
0
 10
-42.488
 11
-42.406
 20
-299.328
 21
-299.205
  0
LINE
  8
0
 10
-42.406
 11
-42.313
 20
-299.205
 21
-299.091
  0
LINE
  8
0
 10
-42.313
 11
-42.209
 20
-299.091
 21
-298.987
  0
LINE
  8
0
 10
-42.209
 11
-42.095
 20
-298.987
 21
-298.894
  0
LINE
  8
0
 10
-42.095
 11
-41.972
 20
-298.894
 21
-298.812
  0
LINE
  8
0
 10
-41.972
 11
-41.842
 20
-298.812
 21
-298.742
  0
LINE
  8
0
 10
-41.842
 11
-41.706
 20
-298.742
 21
-298.686
  0
LINE
  8
0
 10
-41.706
 11
-41.565
 20
-298.686
 21
-298.643
  0
LINE
  8
0
 10
-41.565
 11
-41.42
 20
-298.643
 21
-298.614
  0
LINE
  8
0
 10
-41.42
 11
-41.274
 20
-298.614
 21
-298.6
  0
LINE
  8
0
 10
-41.274
 11
-41.126
 20
-298.6
 21
-298.6
  0
LINE
  8
0
 10
-41.126
 11
-40.98
 20
-298.6
 21
-298.614
  0
LINE
  8
0
 10
-40.98
 11
-40.835
 20
-298.614
 21
-298.643
  0
LINE
  8
0
 10
-40.835
 11
-40.694
 20
-298.643
 21
-298.686
  0
LINE
  8
0
 10
-40.694
 11
-40.558
 20
-298.686
 21
-298.742
  0
LINE
  8
0
 10
-40.558
 11
-40.428
 20
-298.742
 21
-298.812
  0
LINE
  8
0
 10
-40.428
 11
-40.305
 20
-298.812
 21
-298.894
  0
LINE
  8
0
 10
-40.305
 11
-40.191
 20
-298.894
 21
-298.987
  0
LINE
  8
0
 10
-40.191
 11
-40.087
 20
-298.987
 21
-299.091
  0
LINE
  8
0
 10
-40.087
 11
-39.994
 20
-299.091
 21
-299.205
  0
LINE
  8
0
 10
-39.994
 11
-39.912
 20
-299.205
 21
-299.328
  0
LINE
  8
0
 10
-39.912
 11
-39.842
 20
-299.328
 21
-299.458
  0
LINE
  8
0
 10
-39.842
 11
-39.786
 20
-299.458
 21
-299.594
  0
LINE
  8
0
 10
-39.786
 11
-39.743
 20
-299.594
 21
-299.735
  0
LINE
  8
0
 10
-39.743
 11
-39.714
 20
-299.735
 21
-299.88
  0
LINE
  8
0
 10
-39.714
 11
-39.7
 20
-299.88
 21
-300.026
  0
LINE
  8
0
 10
-39.7
 11
-39.7
 20
-300.026
 21
-300.174
  0
LINE
  8
0
 10
-39.7
 11
-39.714
 20
-300.174
 21
-300.32
  0
LINE
  8
0
 10
-39.714
 11
-39.743
 20
-300.32
 21
-300.465
  0
LINE
  8
0
 10
-39.743
 11
-39.786
 20
-300.465
 21
-300.606
  0
LINE
  8
0
 10
-39.786
 11
-39.842
 20
-300.606
 21
-300.742
  0
LINE
  8
0
 10
-39.842
 11
-39.912
 20
-300.742
 21
-300.872
  0
LINE
  8
0
 10
-39.912
 11
-39.994
 20
-300.872
 21
-300.995
  0
LINE
  8
0
 10
-39.994
 11
-40.087
 20
-300.995
 21
-301.109
  0
LINE
  8
0
 10
-40.087
 11
-40.191
 20
-301.109
 21
-301.213
  0
LINE
  8
0
 10
-40.191
 11
-40.305
 20
-301.213
 21
-301.306
  0
LINE
  8
0
 10
-40.305
 11
-40.428
 20
-301.306
 21
-301.388
  0
LINE
  8
0
 10
-40.428
 11
-40.558
 20
-301.388
 21
-301.458
  0
LINE
  8
0
 10
-40.558
 11
-40.694
 20
-301.458
 21
-301.514
  0
LINE
  8
0
 10
-40.694
 11
-40.835
 20
-301.514
 21
-301.557
  0
LINE
  8
0
 10
-40.835
 11
-40.98
 20
-301.557
 21
-301.586
  0
LINE
  8
0
 10
-40.98
 11
-41.126
 20
-301.586
 21
-301.6
  0
LINE
  8
0
 10
-41.126
 11
-41.274
 20
-301.6
 21
-301.6
  0
LINE
  8
0
 10
-41.274
 11
-41.42
 20
-301.6
 21
-301.586
  0
LINE
  8
0
 10
-41.42
 11
-41.565
 20
-301.586
 21
-301.557
  0
LINE
  8
0
 10
-41.565
 11
-41.706
 20
-301.557
 21
-301.514
  0
LINE
  8
0
 10
-41.706
 11
-41.842
 20
-301.514
 21
-301.458
  0
LINE
  8
0
 10
-41.842
 11
-41.972
 20
-301.458
 21
-301.388
  0
LINE
  8
0
 10
-41.972
 11
-42.095
 20
-301.388
 21
-301.306
  0
LINE
  8
0
 10
-42.095
 11
-42.209
 20
-301.306
 21
-301.213
  0
LINE
  8
0
 10
-42.209
 11
-42.313
 20
-301.213
 21
-301.109
  0
LINE
  8
0
 10
-42.313
 11
-42.406
 20
-301.109
 21
-300.995
  0
LINE
  8
0
 10
-42.406
 11
-42.488
 20
-300.995
 21
-300.872
  0
LINE
  8
0
 10
-42.488
 11
-42.558
 20
-300.872
 21
-300.742
  0
LINE
  8
0
 10
-42.558
 11
-42.614
 20
-300.742
 21
-300.606
  0
LINE
  8
0
 10
-42.614
 11
-42.657
 20
-300.606
 21
-300.465
  0
LINE
  8
0
 10
-42.657
 11
-42.686
 20
-300.465
 21
-300.32
  0
LINE
  8
0
 10
-42.686
 11
-42.7
 20
-300.32
 21
-300.174
  0
LINE
  8
0
 10
-42.7
 11
-42.7
 20
-291.574
 21
-291.426
  0
LINE
  8
0
 10
-42.7
 11
-42.686
 20
-291.426
 21
-291.28
  0
LINE
  8
0
 10
-42.686
 11
-42.657
 20
-291.28
 21
-291.135
  0
LINE
  8
0
 10
-42.657
 11
-42.614
 20
-291.135
 21
-290.994
  0
LINE
  8
0
 10
-42.614
 11
-42.558
 20
-290.994
 21
-290.858
  0
LINE
  8
0
 10
-42.558
 11
-42.488
 20
-290.858
 21
-290.728
  0
LINE
  8
0
 10
-42.488
 11
-42.406
 20
-290.728
 21
-290.605
  0
LINE
  8
0
 10
-42.406
 11
-42.313
 20
-290.605
 21
-290.491
  0
LINE
  8
0
 10
-42.313
 11
-42.209
 20
-290.491
 21
-290.387
  0
LINE
  8
0
 10
-42.209
 11
-42.095
 20
-290.387
 21
-290.294
  0
LINE
  8
0
 10
-42.095
 11
-41.972
 20
-290.294
 21
-290.212
  0
LINE
  8
0
 10
-41.972
 11
-41.842
 20
-290.212
 21
-290.142
  0
LINE
  8
0
 10
-41.842
 11
-41.706
 20
-290.142
 21
-290.086
  0
LINE
  8
0
 10
-41.706
 11
-41.565
 20
-290.086
 21
-290.043
  0
LINE
  8
0
 10
-41.565
 11
-41.42
 20
-290.043
 21
-290.014
  0
LINE
  8
0
 10
-41.42
 11
-41.274
 20
-290.014
 21
-290
  0
LINE
  8
0
 10
-41.274
 11
-41.126
 20
-290
 21
-290
  0
LINE
  8
0
 10
-41.126
 11
-40.98
 20
-290
 21
-290.014
  0
LINE
  8
0
 10
-40.98
 11
-40.835
 20
-290.014
 21
-290.043
  0
LINE
  8
0
 10
-40.835
 11
-40.694
 20
-290.043
 21
-290.086
  0
LINE
  8
0
 10
-40.694
 11
-40.558
 20
-290.086
 21
-290.142
  0
LINE
  8
0
 10
-40.558
 11
-40.428
 20
-290.142
 21
-290.212
  0
LINE
  8
0
 10
-40.428
 11
-40.305
 20
-290.212
 21
-290.294
  0
LINE
  8
0
 10
-40.305
 11
-40.191
 20
-290.294
 21
-290.387
  0
LINE
  8
0
 10
-40.191
 11
-40.087
 20
-290.387
 21
-290.491
  0
LINE
  8
0
 10
-40.087
 11
-39.994
 20
-290.491
 21
-290.605
  0
LINE
  8
0
 10
-39.994
 11
-39.912
 20
-290.605
 21
-290.728
  0
LINE
  8
0
 10
-39.912
 11
-39.842
 20
-290.728
 21
-290.858
  0
LINE
  8
0
 10
-39.842
 11
-39.786
 20
-290.858
 21
-290.994
  0
LINE
  8
0
 10
-39.786
 11
-39.743
 20
-290.994
 21
-291.135
  0
LINE
  8
0
 10
-39.743
 11
-39.714
 20
-291.135
 21
-291.28
  0
LINE
  8
0
 10
-39.714
 11
-39.7
 20
-291.28
 21
-291.426
  0
LINE
  8
0
 10
-39.7
 11
-39.7
 20
-291.426
 21
-291.574
  0
LINE
  8
0
 10
-39.7
 11
-39.714
 20
-291.574
 21
-291.72
  0
LINE
  8
0
 10
-39.714
 11
-39.743
 20
-291.72
 21
-291.865
  0
LINE
  8
0
 10
-39.743
 11
-39.786
 20
-291.865
 21
-292.006
  0
LINE
  8
0
 10
-39.786
 11
-39.842
 20
-292.006
 21
-292.142
  0
LINE
  8
0
 10
-39.842
 11
-39.912
 20
-292.142
 21
-292.272
  0
LINE
  8
0
 10
-39.912
 11
-39.994
 20
-292.272
 21
-292.395
  0
LINE
  8
0
 10
-39.994
 11
-40.087
 20
-292.395
 21
-292.509
  0
LINE
  8
0
 10
-40.087
 11
-40.191
 20
-292.509
 21
-292.613
  0
LINE
  8
0
 10
-40.191
 11
-40.305
 20
-292.613
 21
-292.706
  0
LINE
  8
0
 10
-40.305
 11
-40.428
 20
-292.706
 21
-292.788
  0
LINE
  8
0
 10
-40.428
 11
-40.558
 20
-292.788
 21
-292.858
  0
LINE
  8
0
 10
-40.558
 11
-40.694
 20
-292.858
 21
-292.914
  0
LINE
  8
0
 10
-40.694
 11
-40.835
 20
-292.914
 21
-292.957
  0
LINE
  8
0
 10
-40.835
 11
-40.98
 20
-292.957
 21
-292.986
  0
LINE
  8
0
 10
-40.98
 11
-41.126
 20
-292.986
 21
-293
  0
LINE
  8
0
 10
-41.126
 11
-41.274
 20
-293
 21
-293
  0
LINE
  8
0
 10
-41.274
 11
-41.42
 20
-293
 21
-292.986
  0
LINE
  8
0
 10
-41.42
 11
-41.565
 20
-292.986
 21
-292.957
  0
LINE
  8
0
 10
-41.565
 11
-41.706
 20
-292.957
 21
-292.914
  0
LINE
  8
0
 10
-41.706
 11
-41.842
 20
-292.914
 21
-292.858
  0
LINE
  8
0
 10
-41.842
 11
-41.972
 20
-292.858
 21
-292.788
  0
LINE
  8
0
 10
-41.972
 11
-42.095
 20
-292.788
 21
-292.706
  0
LINE
  8
0
 10
-42.095
 11
-42.209
 20
-292.706
 21
-292.613
  0
LINE
  8
0
 10
-42.209
 11
-42.313
 20
-292.613
 21
-292.509
  0
LINE
  8
0
 10
-42.313
 11
-42.406
 20
-292.509
 21
-292.395
  0
LINE
  8
0
 10
-42.406
 11
-42.488
 20
-292.395
 21
-292.272
  0
LINE
  8
0
 10
-42.488
 11
-42.558
 20
-292.272
 21
-292.142
  0
LINE
  8
0
 10
-42.558
 11
-42.614
 20
-292.142
 21
-292.006
  0
LINE
  8
0
 10
-42.614
 11
-42.657
 20
-292.006
 21
-291.865
  0
LINE
  8
0
 10
-42.657
 11
-42.686
 20
-291.865
 21
-291.72
  0
LINE
  8
0
 10
-42.686
 11
-42.7
 20
-291.72
 21
-291.574
  0
LINE
  8
0
 10
-42.275
 11
-42.275
 20
-268.48
 21
-267.32
  0
LINE
  8
0
 10
-42.275
 11
-41.455
 20
-267.32
 21
-266.5
  0
LINE
  8
0
 10
-41.455
 11
-40.295
 20
-266.5
 21
-266.5
  0
LINE
  8
0
 10
-40.295
 11
-39.475
 20
-266.5
 21
-267.32
  0
LINE
  8
0
 10
-39.475
 11
-39.475
 20
-267.32
 21
-268.48
  0
LINE
  8
0
 10
-39.475
 11
-40.295
 20
-268.48
 21
-269.3
  0
LINE
  8
0
 10
-40.295
 11
-41.455
 20
-269.3
 21
-269.3
  0
LINE
  8
0
 10
-41.455
 11
-42.275
 20
-269.3
 21
-268.48
  0
LINE
  8
0
 10
-42.275
 11
-42.275
 20
-25.58
 21
-24.42
  0
LINE
  8
0
 10
-42.275
 11
-41.455
 20
-24.42
 21
-23.6
  0
LINE
  8
0
 10
-41.455
 11
-40.295
 20
-23.6
 21
-23.6
  0
LINE
  8
0
 10
-40.295
 11
-39.475
 20
-23.6
 21
-24.42
  0
LINE
  8
0
 10
-39.475
 11
-39.475
 20
-24.42
 21
-25.58
  0
LINE
  8
0
 10
-39.475
 11
-40.295
 20
-25.58
 21
-26.4
  0
LINE
  8
0
 10
-40.295
 11
-41.455
 20
-26.4
 21
-26.4
  0
LINE
  8
0
 10
-41.455
 11
-42.275
 20
-26.4
 21
-25.58
  0
LINE
  8
0
 10
-37.5
 11
-37.5
 20
-270.925
 21
-264.875
  0
LINE
  8
0
 10
-37.5
 11
-28.5
 20
-264.875
 21
-264.875
  0
LINE
  8
0
 10
-28.5
 11
-28.5
 20
-264.875
 21
-270.925
  0
LINE
  8
0
 10
-28.5
 11
-37.5
 20
-270.925
 21
-270.925
  0
LINE
  8
0
 10
-37.5
 11
-37.5
 20
-28.025
 21
-21.975
  0
LINE
  8
0
 10
-37.5
 11
-28.5
 20
-21.975
 21
-21.975
  0
LINE
  8
0
 10
-28.5
 11
-28.5
 20
-21.975
 21
-28.025
  0
LINE
  8
0
 10
-28.5
 11
-37.5
 20
-28.025
 21
-28.025
  0
LINE
  8
0
 10
-33.94
 11
-33.94
 20
-294.594
 21
-294.206
  0
LINE
  8
0
 10
-33.94
 11
-33.902
 20
-294.206
 21
-293.821
  0
LINE
  8
0
 10
-33.902
 11
-33.827
 20
-293.821
 21
-293.442
  0
LINE
  8
0
 10
-33.827
 11
-33.714
 20
-293.442
 21
-293.071
  0
LINE
  8
0
 10
-33.714
 11
-33.566
 20
-293.071
 21
-292.713
  0
LINE
  8
0
 10
-33.566
 11
-33.384
 20
-292.713
 21
-292.372
  0
LINE
  8
0
 10
-33.384
 11
-33.168
 20
-292.372
 21
-292.05
  0
LINE
  8
0
 10
-33.168
 11
-32.923
 20
-292.05
 21
-291.751
  0
LINE
  8
0
 10
-32.923
 11
-32.649
 20
-291.751
 21
-291.477
  0
LINE
  8
0
 10
-32.649
 11
-32.35
 20
-291.477
 21
-291.232
  0
LINE
  8
0
 10
-32.35
 11
-32.028
 20
-291.232
 21
-291.016
  0
LINE
  8
0
 10
-32.028
 11
-31.687
 20
-291.016
 21
-290.834
  0
LINE
  8
0
 10
-31.687
 11
-31.329
 20
-290.834
 21
-290.686
  0
LINE
  8
0
 10
-31.329
 11
-30.958
 20
-290.686
 21
-290.573
  0
LINE
  8
0
 10
-30.958
 11
-30.579
 20
-290.573
 21
-290.498
  0
LINE
  8
0
 10
-30.579
 11
-30.194
 20
-290.498
 21
-290.46
  0
LINE
  8
0
 10
-30.194
 11
-29.806
 20
-290.46
 21
-290.46
  0
LINE
  8
0
 10
-29.806
 11
-29.421
 20
-290.46
 21
-290.498
  0
LINE
  8
0
 10
-29.421
 11
-29.042
 20
-290.498
 21
-290.573
  0
LINE
  8
0
 10
-29.042
 11
-28.671
 20
-290.573
 21
-290.686
  0
LINE
  8
0
 10
-28.671
 11
-28.313
 20
-290.686
 21
-290.834
  0
LINE
  8
0
 10
-28.313
 11
-27.972
 20
-290.834
 21
-291.016
  0
LINE
  8
0
 10
-27.972
 11
-27.65
 20
-291.016
 21
-291.232
  0
LINE
  8
0
 10
-27.65
 11
-27.351
 20
-291.232
 21
-291.477
  0
LINE
  8
0
 10
-27.351
 11
-27.077
 20
-291.477
 21
-291.751
  0
LINE
  8
0
 10
-27.077
 11
-26.832
 20
-291.751
 21
-292.05
  0
LINE
  8
0
 10
-26.832
 11
-26.616
 20
-292.05
 21
-292.372
  0
LINE
  8
0
 10
-26.616
 11
-26.434
 20
-292.372
 21
-292.713
  0
LINE
  8
0
 10
-26.434
 11
-26.286
 20
-292.713
 21
-293.071
  0
LINE
  8
0
 10
-26.286
 11
-26.173
 20
-293.071
 21
-293.442
  0
LINE
  8
0
 10
-26.173
 11
-26.098
 20
-293.442
 21
-293.821
  0
LINE
  8
0
 10
-26.098
 11
-26.06
 20
-293.821
 21
-294.206
  0
LINE
  8
0
 10
-26.06
 11
-26.06
 20
-294.206
 21
-294.594
  0
LINE
  8
0
 10
-26.06
 11
-26.098
 20
-294.594
 21
-294.979
  0
LINE
  8
0
 10
-26.098
 11
-26.173
 20
-294.979
 21
-295.358
  0
LINE
  8
0
 10
-26.173
 11
-26.286
 20
-295.358
 21
-295.729
  0
LINE
  8
0
 10
-26.286
 11
-26.434
 20
-295.729
 21
-296.087
  0
LINE
  8
0
 10
-26.434
 11
-26.616
 20
-296.087
 21
-296.428
  0
LINE
  8
0
 10
-26.616
 11
-26.832
 20
-296.428
 21
-296.75
  0
LINE
  8
0
 10
-26.832
 11
-27.077
 20
-296.75
 21
-297.049
  0
LINE
  8
0
 10
-27.077
 11
-27.351
 20
-297.049
 21
-297.323
  0
LINE
  8
0
 10
-27.351
 11
-27.65
 20
-297.323
 21
-297.568
  0
LINE
  8
0
 10
-27.65
 11
-27.972
 20
-297.568
 21
-297.784
  0
LINE
  8
0
 10
-27.972
 11
-28.313
 20
-297.784
 21
-297.966
  0
LINE
  8
0
 10
-28.313
 11
-28.671
 20
-297.966
 21
-298.114
  0
LINE
  8
0
 10
-28.671
 11
-29.042
 20
-298.114
 21
-298.227
  0
LINE
  8
0
 10
-29.042
 11
-29.421
 20
-298.227
 21
-298.302
  0
LINE
  8
0
 10
-29.421
 11
-29.806
 20
-298.302
 21
-298.34
  0
LINE
  8
0
 10
-29.806
 11
-30.194
 20
-298.34
 21
-298.34
  0
LINE
  8
0
 10
-30.194
 11
-30.579
 20
-298.34
 21
-298.302
  0
LINE
  8
0
 10
-30.579
 11
-30.958
 20
-298.302
 21
-298.227
  0
LINE
  8
0
 10
-30.958
 11
-31.329
 20
-298.227
 21
-298.114
  0
LINE
  8
0
 10
-31.329
 11
-31.687
 20
-298.114
 21
-297.966
  0
LINE
  8
0
 10
-31.687
 11
-32.028
 20
-297.966
 21
-297.784
  0
LINE
  8
0
 10
-32.028
 11
-32.35
 20
-297.784
 21
-297.568
  0
LINE
  8
0
 10
-32.35
 11
-32.649
 20
-297.568
 21
-297.323
  0
LINE
  8
0
 10
-32.649
 11
-32.923
 20
-297.323
 21
-297.049
  0
LINE
  8
0
 10
-32.923
 11
-33.168
 20
-297.049
 21
-296.75
  0
LINE
  8
0
 10
-33.168
 11
-33.384
 20
-296.75
 21
-296.428
  0
LINE
  8
0
 10
-33.384
 11
-33.566
 20
-296.428
 21
-296.087
  0
LINE
  8
0
 10
-33.566
 11
-33.714
 20
-296.087
 21
-295.729
  0
LINE
  8
0
 10
-33.714
 11
-33.827
 20
-295.729
 21
-295.358
  0
LINE
  8
0
 10
-33.827
 11
-33.902
 20
-295.358
 21
-294.979
  0
LINE
  8
0
 10
-33.902
 11
-33.94
 20
-294.979
 21
-294.594
  0
LINE
  8
0
 10
-18.525
 11
-18.525
 20
-296.9
 21
-287.9
  0
LINE
  8
0
 10
-18.525
 11
-12.475
 20
-287.9
 21
-287.9
  0
LINE
  8
0
 10
-12.475
 11
-12.475
 20
-287.9
 21
-296.9
  0
LINE
  8
0
 10
-12.475
 11
-18.525
 20
-296.9
 21
-296.9
  0
LINE
  8
0
 10
-18.525
 11
-18.525
 20
-281.15
 21
-272.15
  0
LINE
  8
0
 10
-18.525
 11
-12.475
 20
-272.15
 21
-272.15
  0
LINE
  8
0
 10
-12.475
 11
-12.475
 20
-272.15
 21
-281.15
  0
LINE
  8
0
 10
-12.475
 11
-18.525
 20
-281.15
 21
-281.15
  0
LINE
  8
0
 10
-18.525
 11
-18.525
 20
-218.85
 21
-209.85
  0
LINE
  8
0
 10
-18.525
 11
-12.475
 20
-209.85
 21
-209.85
  0
LINE
  8
0
 10
-12.475
 11
-12.475
 20
-209.85
 21
-218.85
  0
LINE
  8
0
 10
-12.475
 11
-18.525
 20
-218.85
 21
-218.85
  0
LINE
  8
0
 10
-18.525
 11
-18.525
 20
-203.1
 21
-194.1
  0
LINE
  8
0
 10
-18.525
 11
-12.475
 20
-194.1
 21
-194.1
  0
LINE
  8
0
 10
-12.475
 11
-12.475
 20
-194.1
 21
-203.1
  0
LINE
  8
0
 10
-12.475
 11
-18.525
 20
-203.1
 21
-203.1
  0
LINE
  8
0
 10
-18.525
 11
-18.525
 20
-140.8
 21
-131.8
  0
LINE
  8
0
 10
-18.525
 11
-12.475
 20
-131.8
 21
-131.8
  0
LINE
  8
0
 10
-12.475
 11
-12.475
 20
-131.8
 21
-140.8
  0
LINE
  8
0
 10
-12.475
 11
-18.525
 20
-140.8
 21
-140.8
  0
LINE
  8
0
 10
-18.525
 11
-18.525
 20
-125.05
 21
-116.05
  0
LINE
  8
0
 10
-18.525
 11
-12.475
 20
-116.05
 21
-116.05
  0
LINE
  8
0
 10
-12.475
 11
-12.475
 20
-116.05
 21
-125.05
  0
LINE
  8
0
 10
-12.475
 11
-18.525
 20
-125.05
 21
-125.05
  0
LINE
  8
0
 10
-18.525
 11
-18.525
 20
-62.75
 21
-53.75
  0
LINE
  8
0
 10
-18.525
 11
-12.475
 20
-53.75
 21
-53.75
  0
LINE
  8
0
 10
-12.475
 11
-12.475
 20
-53.75
 21
-62.75
  0
LINE
  8
0
 10
-12.475
 11
-18.525
 20
-62.75
 21
-62.75
  0
LINE
  8
0
 10
-18.525
 11
-18.525
 20
-47
 21
-38
  0
LINE
  8
0
 10
-18.525
 11
-12.475
 20
-38
 21
-38
  0
LINE
  8
0
 10
-12.475
 11
-12.475
 20
-38
 21
-47
  0
LINE
  8
0
 10
-12.475
 11
-18.525
 20
-47
 21
-47
  0
LINE
  8
0
 10
-16.9
 11
-16.9
 20
-285.105
 21
-283.945
  0
LINE
  8
0
 10
-16.9
 11
-16.08
 20
-283.945
 21
-283.125
  0
LINE
  8
0
 10
-16.08
 11
-14.92
 20
-283.125
 21
-283.125
  0
LINE
  8
0
 10
-14.92
 11
-14.1
 20
-283.125
 21
-283.945
  0
LINE
  8
0
 10
-14.1
 11
-14.1
 20
-283.945
 21
-285.105
  0
LINE
  8
0
 10
-14.1
 11
-14.92
 20
-285.105
 21
-285.925
  0
LINE
  8
0
 10
-14.92
 11
-16.08
 20
-285.925
 21
-285.925
  0
LINE
  8
0
 10
-16.08
 11
-16.9
 20
-285.925
 21
-285.105
  0
LINE
  8
0
 10
-16.9
 11
-16.9
 20
-207.055
 21
-205.895
  0
LINE
  8
0
 10
-16.9
 11
-16.08
 20
-205.895
 21
-205.075
  0
LINE
  8
0
 10
-16.08
 11
-14.92
 20
-205.075
 21
-205.075
  0
LINE
  8
0
 10
-14.92
 11
-14.1
 20
-205.075
 21
-205.895
  0
LINE
  8
0
 10
-14.1
 11
-14.1
 20
-205.895
 21
-207.055
  0
LINE
  8
0
 10
-14.1
 11
-14.92
 20
-207.055
 21
-207.875
  0
LINE
  8
0
 10
-14.92
 11
-16.08
 20
-207.875
 21
-207.875
  0
LINE
  8
0
 10
-16.08
 11
-16.9
 20
-207.875
 21
-207.055
  0
LINE
  8
0
 10
-16.9
 11
-16.9
 20
-129.005
 21
-127.845
  0
LINE
  8
0
 10
-16.9
 11
-16.08
 20
-127.845
 21
-127.025
  0
LINE
  8
0
 10
-16.08
 11
-14.92
 20
-127.025
 21
-127.025
  0
LINE
  8
0
 10
-14.92
 11
-14.1
 20
-127.025
 21
-127.845
  0
LINE
  8
0
 10
-14.1
 11
-14.1
 20
-127.845
 21
-129.005
  0
LINE
  8
0
 10
-14.1
 11
-14.92
 20
-129.005
 21
-129.825
  0
LINE
  8
0
 10
-14.92
 11
-16.08
 20
-129.825
 21
-129.825
  0
LINE
  8
0
 10
-16.08
 11
-16.9
 20
-129.825
 21
-129.005
  0
LINE
  8
0
 10
-16.9
 11
-16.9
 20
-50.955
 21
-49.795
  0
LINE
  8
0
 10
-16.9
 11
-16.08
 20
-49.795
 21
-48.975
  0
LINE
  8
0
 10
-16.08
 11
-14.92
 20
-48.975
 21
-48.975
  0
LINE
  8
0
 10
-14.92
 11
-14.1
 20
-48.975
 21
-49.795
  0
LINE
  8
0
 10
-14.1
 11
-14.1
 20
-49.795
 21
-50.955
  0
LINE
  8
0
 10
-14.1
 11
-14.92
 20
-50.955
 21
-51.775
  0
LINE
  8
0
 10
-14.92
 11
-16.08
 20
-51.775
 21
-51.775
  0
LINE
  8
0
 10
-16.08
 11
-16.9
 20
-51.775
 21
-50.955
  0
LINE
  8
0
 10
-6.625
 11
-6.625
 20
31.5
 21
40.5
  0
LINE
  8
0
 10
-6.625
 11
-0.6
 20
40.5
 21
40.5
  0
LINE
  8
0
 10
-0.6
 11
-0.6
 20
40.5
 21
42.475
  0
LINE
  8
0
 10
-0.6
 11
3.3
 20
42.475
 21
42.475
  0
LINE
  8
0
 10
3.3
 11
3.3
 20
42.475
 21
41.125
  0
LINE
  8
0
 10
3.3
 11
5.3
 20
41.125
 21
41.125
  0
LINE
  8
0
 10
5.3
 11
5.3
 20
41.125
 21
42.475
  0
LINE
  8
0
 10
5.3
 11
7.35
 20
42.475
 21
42.475
  0
LINE
  8
0
 10
7.35
 11
7.35
 20
42.475
 21
45.275
  0
LINE
  8
0
 10
7.35
 11
5.3
 20
45.275
 21
45.275
  0
LINE
  8
0
 10
5.3
 11
5.3
 20
45.275
 21
46.625
  0
LINE
  8
0
 10
5.3
 11
3.3
 20
46.625
 21
46.625
  0
LINE
  8
0
 10
3.3
 11
3.3
 20
46.625
 21
45.275
  0
LINE
  8
0
 10
3.3
 11
-0.6
 20
45.275
 21
45.275
  0
LINE
  8
0
 10
-0.6
 11
-0.6
 20
45.275
 21
47.25
  0
LINE
  8
0
 10
-0.6
 11
-6.625
 20
47.25
 21
47.25
  0
LINE
  8
0
 10
-6.625
 11
-6.625
 20
47.25
 21
56.25
  0
LINE
  8
0
 10
-6.625
 11
-0.6
 20
56.25
 21
56.25
  0
LINE
  8
0
 10
-0.6
 11
-0.6
 20
56.25
 21
114.625
  0
LINE
  8
0
 10
-0.6
 11
-6.625
 20
114.625
 21
114.625
  0
LINE
  8
0
 10
-6.625
 11
-6.625
 20
114.625
 21
123.625
  0
LINE
  8
0
 10
-6.625
 11
-0.6
 20
123.625
 21
123.625
  0
LINE
  8
0
 10
-0.6
 11
-0.6
 20
123.625
 21
125.6
  0
LINE
  8
0
 10
-0.6
 11
3.3
 20
125.6
 21
125.6
  0
LINE
  8
0
 10
3.3
 11
3.3
 20
125.6
 21
124.25
  0
LINE
  8
0
 10
3.3
 11
5.3
 20
124.25
 21
124.25
  0
LINE
  8
0
 10
5.3
 11
5.3
 20
124.25
 21
125.6
  0
LINE
  8
0
 10
5.3
 11
7.35
 20
125.6
 21
125.6
  0
LINE
  8
0
 10
7.35
 11
7.35
 20
125.6
 21
128.4
  0
LINE
  8
0
 10
7.35
 11
5.3
 20
128.4
 21
128.4
  0
LINE
  8
0
 10
5.3
 11
5.3
 20
128.4
 21
129.75
  0
LINE
  8
0
 10
5.3
 11
3.3
 20
129.75
 21
129.75
  0
LINE
  8
0
 10
3.3
 11
3.3
 20
129.75
 21
128.4
  0
LINE
  8
0
 10
3.3
 11
-0.6
 20
128.4
 21
128.4
  0
LINE
  8
0
 10
-0.6
 11
-0.6
 20
128.4
 21
130.375
  0
LINE
  8
0
 10
-0.6
 11
-6.625
 20
130.375
 21
130.375
  0
LINE
  8
0
 10
-6.625
 11
-6.625
 20
130.375
 21
139.375
  0
LINE
  8
0
 10
-6.625
 11
-0.6
 20
139.375
 21
139.375
  0
LINE
  8
0
 10
-0.6
 11
-0.6
 20
139.375
 21
197.75
  0
LINE
  8
0
 10
-0.6
 11
-6.625
 20
197.75
 21
197.75
  0
LINE
  8
0
 10
-6.625
 11
-6.625
 20
197.75
 21
206.75
  0
LINE
  8
0
 10
-6.625
 11
-0.6
 20
206.75
 21
206.75
  0
LINE
  8
0
 10
-0.6
 11
-0.6
 20
206.75
 21
208.725
  0
LINE
  8
0
 10
-0.6
 11
3.3
 20
208.725
 21
208.725
  0
LINE
  8
0
 10
3.3
 11
3.3
 20
208.725
 21
207.375
  0
LINE
  8
0
 10
3.3
 11
5.3
 20
207.375
 21
207.375
  0
LINE
  8
0
 10
5.3
 11
5.3
 20
207.375
 21
208.725
  0
LINE
  8
0
 10
5.3
 11
7.35
 20
208.725
 21
208.725
  0
LINE
  8
0
 10
7.35
 11
7.35
 20
208.725
 21
211.525
  0
LINE
  8
0
 10
7.35
 11
5.3
 20
211.525
 21
211.525
  0
LINE
  8
0
 10
5.3
 11
5.3
 20
211.525
 21
212.875
  0
LINE
  8
0
 10
5.3
 11
3.3
 20
212.875
 21
212.875
  0
LINE
  8
0
 10
3.3
 11
3.3
 20
212.875
 21
211.525
  0
LINE
  8
0
 10
3.3
 11
-0.6
 20
211.525
 21
211.525
  0
LINE
  8
0
 10
-0.6
 11
-0.6
 20
211.525
 21
213.5
  0
LINE
  8
0
 10
-0.6
 11
-6.625
 20
213.5
 21
213.5
  0
LINE
  8
0
 10
-6.625
 11
-6.625
 20
213.5
 21
222.5
  0
LINE
  8
0
 10
-6.625
 11
-0.6
 20
222.5
 21
222.5
  0
LINE
  8
0
 10
-0.6
 11
-0.6
 20
222.5
 21
232.5
  0
LINE
  8
0
 10
-0.6
 11
9.4
 20
232.5
 21
232.5
  0
LINE
  8
0
 10
9.4
 11
9.4
 20
232.5
 21
238.525
  0
LINE
  8
0
 10
9.4
 11
18.4
 20
238.525
 21
238.525
  0
LINE
  8
0
 10
18.4
 11
18.4
 20
238.525
 21
232.5
  0
LINE
  8
0
 10
18.4
 11
20.375
 20
232.5
 21
232.5
  0
LINE
  8
0
 10
20.375
 11
20.375
 20
232.5
 21
228.6
  0
LINE
  8
0
 10
20.375
 11
19.025
 20
228.6
 21
228.6
  0
LINE
  8
0
 10
19.025
 11
19.025
 20
228.6
 21
226.6
  0
LINE
  8
0
 10
19.025
 11
20.375
 20
226.6
 21
226.6
  0
LINE
  8
0
 10
20.375
 11
20.375
 20
226.6
 21
224.55
  0
LINE
  8
0
 10
20.375
 11
23.175
 20
224.55
 21
224.55
  0
LINE
  8
0
 10
23.175
 11
23.175
 20
224.55
 21
226.6
  0
LINE
  8
0
 10
23.175
 11
24.525
 20
226.6
 21
226.6
  0
LINE
  8
0
 10
24.525
 11
24.525
 20
226.6
 21
228.6
  0
LINE
  8
0
 10
24.525
 11
23.175
 20
228.6
 21
228.6
  0
LINE
  8
0
 10
23.175
 11
23.175
 20
228.6
 21
232.5
  0
LINE
  8
0
 10
23.175
 11
25.15
 20
232.5
 21
232.5
  0
LINE
  8
0
 10
25.15
 11
25.15
 20
232.5
 21
238.525
  0
LINE
  8
0
 10
25.15
 11
34.15
 20
238.525
 21
238.525
  0
LINE
  8
0
 10
34.15
 11
34.15
 20
238.525
 21
232.5
  0
LINE
  8
0
 10
34.15
 11
83.817
 20
232.5
 21
232.5
  0
LINE
  8
0
 10
83.817
 11
83.817
 20
232.5
 21
238.525
  0
LINE
  8
0
 10
83.817
 11
92.817
 20
238.525
 21
238.525
  0
LINE
  8
0
 10
92.817
 11
92.817
 20
238.525
 21
232.5
  0
LINE
  8
0
 10
92.817
 11
94.792
 20
232.5
 21
232.5
  0
LINE
  8
0
 10
94.792
 11
94.792
 20
232.5
 21
228.6
  0
LINE
  8
0
 10
94.792
 11
93.442
 20
228.6
 21
228.6
  0
LINE
  8
0
 10
93.442
 11
93.442
 20
228.6
 21
226.6
  0
LINE
  8
0
 10
93.442
 11
94.792
 20
226.6
 21
226.6
  0
LINE
  8
0
 10
94.792
 11
94.792
 20
226.6
 21
224.55
  0
LINE
  8
0
 10
94.792
 11
97.592
 20
224.55
 21
224.55
  0
LINE
  8
0
 10
97.592
 11
97.592
 20
224.55
 21
226.6
  0
LINE
  8
0
 10
97.592
 11
98.942
 20
226.6
 21
226.6
  0
LINE
  8
0
 10
98.942
 11
98.942
 20
226.6
 21
228.6
  0
LINE
  8
0
 10
98.942
 11
97.592
 20
228.6
 21
228.6
  0
LINE
  8
0
 10
97.592
 11
97.592
 20
228.6
 21
232.5
  0
LINE
  8
0
 10
97.592
 11
99.567
 20
232.5
 21
232.5
  0
LINE
  8
0
 10
99.567
 11
99.567
 20
232.5
 21
238.525
  0
LINE
  8
0
 10
99.567
 11
108.567
 20
238.525
 21
238.525
  0
LINE
  8
0
 10
108.567
 11
108.567
 20
238.525
 21
232.5
  0
LINE
  8
0
 10
108.567
 11
158.233
 20
232.5
 21
232.5
  0
LINE
  8
0
 10
158.233
 11
158.233
 20
232.5
 21
238.525
  0
LINE
  8
0
 10
158.233
 11
167.233
 20
238.525
 21
238.525
  0
LINE
  8
0
 10
167.233
 11
167.233
 20
238.525
 21
232.5
  0
LINE
  8
0
 10
167.233
 11
169.208
 20
232.5
 21
232.5
  0
LINE
  8
0
 10
169.208
 11
169.208
 20
232.5
 21
228.6
  0
LINE
  8
0
 10
169.208
 11
167.858
 20
228.6
 21
228.6
  0
LINE
  8
0
 10
167.858
 11
167.858
 20
228.6
 21
226.6
  0
LINE
  8
0
 10
167.858
 11
169.208
 20
226.6
 21
226.6
  0
LINE
  8
0
 10
169.208
 11
169.208
 20
226.6
 21
224.55
  0
LINE
  8
0
 10
169.208
 11
172.008
 20
224.55
 21
224.55
  0
LINE
  8
0
 10
172.008
 11
172.008
 20
224.55
 21
226.6
  0
LINE
  8
0
 10
172.008
 11
173.358
 20
226.6
 21
226.6
  0
LINE
  8
0
 10
173.358
 11
173.358
 20
226.6
 21
228.6
  0
LINE
  8
0
 10
173.358
 11
172.008
 20
228.6
 21
228.6
  0
LINE
  8
0
 10
172.008
 11
172.008
 20
228.6
 21
232.5
  0
LINE
  8
0
 10
172.008
 11
173.983
 20
232.5
 21
232.5
  0
LINE
  8
0
 10
173.983
 11
173.983
 20
232.5
 21
238.525
  0
LINE
  8
0
 10
173.983
 11
182.983
 20
238.525
 21
238.525
  0
LINE
  8
0
 10
182.983
 11
182.983
 20
238.525
 21
232.5
  0
LINE
  8
0
 10
182.983
 11
232.65
 20
232.5
 21
232.5
  0
LINE
  8
0
 10
232.65
 11
232.65
 20
232.5
 21
238.525
  0
LINE
  8
0
 10
232.65
 11
241.65
 20
238.525
 21
238.525
  0
LINE
  8
0
 10
241.65
 11
241.65
 20
238.525
 21
232.5
  0
LINE
  8
0
 10
241.65
 11
243.625
 20
232.5
 21
232.5
  0
LINE
  8
0
 10
243.625
 11
243.625
 20
232.5
 21
228.6
  0
LINE
  8
0
 10
243.625
 11
242.275
 20
228.6
 21
228.6
  0
LINE
  8
0
 10
242.275
 11
242.275
 20
228.6
 21
226.6
  0
LINE
  8
0
 10
242.275
 11
243.625
 20
226.6
 21
226.6
  0
LINE
  8
0
 10
243.625
 11
243.625
 20
226.6
 21
224.55
  0
LINE
  8
0
 10
243.625
 11
246.425
 20
224.55
 21
224.55
  0
LINE
  8
0
 10
246.425
 11
246.425
 20
224.55
 21
226.6
  0
LINE
  8
0
 10
246.425
 11
247.775
 20
226.6
 21
226.6
  0
LINE
  8
0
 10
247.775
 11
247.775
 20
226.6
 21
228.6
  0
LINE
  8
0
 10
247.775
 11
246.425
 20
228.6
 21
228.6
  0
LINE
  8
0
 10
246.425
 11
246.425
 20
228.6
 21
232.5
  0
LINE
  8
0
 10
246.425
 11
248.4
 20
232.5
 21
232.5
  0
LINE
  8
0
 10
248.4
 11
248.4
 20
232.5
 21
238.525
  0
LINE
  8
0
 10
248.4
 11
257.4
 20
238.525
 21
238.525
  0
LINE
  8
0
 10
257.4
 11
257.4
 20
238.525
 21
232.5
  0
LINE
  8
0
 10
257.4
 11
267.4
 20
232.5
 21
232.5
  0
LINE
  8
0
 10
267.4
 11
267.4
 20
232.5
 21
222.5
  0
LINE
  8
0
 10
267.4
 11
273.425
 20
222.5
 21
222.5
  0
LINE
  8
0
 10
273.425
 11
273.425
 20
222.5
 21
213.5
  0
LINE
  8
0
 10
273.425
 11
267.4
 20
213.5
 21
213.5
  0
LINE
  8
0
 10
267.4
 11
267.4
 20
213.5
 21
211.525
  0
LINE
  8
0
 10
267.4
 11
263.5
 20
211.525
 21
211.525
  0
LINE
  8
0
 10
263.5
 11
263.5
 20
211.525
 21
212.875
  0
LINE
  8
0
 10
263.5
 11
261.5
 20
212.875
 21
212.875
  0
LINE
  8
0
 10
261.5
 11
261.5
 20
212.875
 21
211.525
  0
LINE
  8
0
 10
261.5
 11
259.45
 20
211.525
 21
211.525
  0
LINE
  8
0
 10
259.45
 11
259.45
 20
211.525
 21
208.725
  0
LINE
  8
0
 10
259.45
 11
261.5
 20
208.725
 21
208.725
  0
LINE
  8
0
 10
261.5
 11
261.5
 20
208.725
 21
207.375
  0
LINE
  8
0
 10
261.5
 11
263.5
 20
207.375
 21
207.375
  0
LINE
  8
0
 10
263.5
 11
263.5
 20
207.375
 21
208.725
  0
LINE
  8
0
 10
263.5
 11
267.4
 20
208.725
 21
208.725
  0
LINE
  8
0
 10
267.4
 11
267.4
 20
208.725
 21
206.75
  0
LINE
  8
0
 10
267.4
 11
273.425
 20
206.75
 21
206.75
  0
LINE
  8
0
 10
273.425
 11
273.425
 20
206.75
 21
197.75
  0
LINE
  8
0
 10
273.425
 11
267.4
 20
197.75
 21
197.75
  0
LINE
  8
0
 10
267.4
 11
267.4
 20
197.75
 21
139.375
  0
LINE
  8
0
 10
267.4
 11
273.425
 20
139.375
 21
139.375
  0
LINE
  8
0
 10
273.425
 11
273.425
 20
139.375
 21
130.375
  0
LINE
  8
0
 10
273.425
 11
267.4
 20
130.375
 21
130.375
  0
LINE
  8
0
 10
267.4
 11
267.4
 20
130.375
 21
128.4
  0
LINE
  8
0
 10
267.4
 11
263.5
 20
128.4
 21
128.4
  0
LINE
  8
0
 10
263.5
 11
263.5
 20
128.4
 21
129.75
  0
LINE
  8
0
 10
263.5
 11
261.5
 20
129.75
 21
129.75
  0
LINE
  8
0
 10
261.5
 11
261.5
 20
129.75
 21
128.4
  0
LINE
  8
0
 10
261.5
 11
259.45
 20
128.4
 21
128.4
  0
LINE
  8
0
 10
259.45
 11
259.45
 20
128.4
 21
125.6
  0
LINE
  8
0
 10
259.45
 11
261.5
 20
125.6
 21
125.6
  0
LINE
  8
0
 10
261.5
 11
261.5
 20
125.6
 21
124.25
  0
LINE
  8
0
 10
261.5
 11
263.5
 20
124.25
 21
124.25
  0
LINE
  8
0
 10
263.5
 11
263.5
 20
124.25
 21
125.6
  0
LINE
  8
0
 10
263.5
 11
267.4
 20
125.6
 21
125.6
  0
LINE
  8
0
 10
267.4
 11
267.4
 20
125.6
 21
123.625
  0
LINE
  8
0
 10
267.4
 11
273.425
 20
123.625
 21
123.625
  0
LINE
  8
0
 10
273.425
 11
273.425
 20
123.625
 21
114.625
  0
LINE
  8
0
 10
273.425
 11
267.4
 20
114.625
 21
114.625
  0
LINE
  8
0
 10
267.4
 11
267.4
 20
114.625
 21
56.25
  0
LINE
  8
0
 10
267.4
 11
273.425
 20
56.25
 21
56.25
  0
LINE
  8
0
 10
273.425
 11
273.425
 20
56.25
 21
47.25
  0
LINE
  8
0
 10
273.425
 11
267.4
 20
47.25
 21
47.25
  0
LINE
  8
0
 10
267.4
 11
267.4
 20
47.25
 21
45.275
  0
LINE
  8
0
 10
267.4
 11
263.5
 20
45.275
 21
45.275
  0
LINE
  8
0
 10
263.5
 11
263.5
 20
45.275
 21
46.625
  0
LINE
  8
0
 10
263.5
 11
261.5
 20
46.625
 21
46.625
  0
LINE
  8
0
 10
261.5
 11
261.5
 20
46.625
 21
45.275
  0
LINE
  8
0
 10
261.5
 11
259.45
 20
45.275
 21
45.275
  0
LINE
  8
0
 10
259.45
 11
259.45
 20
45.275
 21
42.475
  0
LINE
  8
0
 10
259.45
 11
261.5
 20
42.475
 21
42.475
  0
LINE
  8
0
 10
261.5
 11
261.5
 20
42.475
 21
41.125
  0
LINE
  8
0
 10
261.5
 11
263.5
 20
41.125
 21
41.125
  0
LINE
  8
0
 10
263.5
 11
263.5
 20
41.125
 21
42.475
  0
LINE
  8
0
 10
263.5
 11
267.4
 20
42.475
 21
42.475
  0
LINE
  8
0
 10
267.4
 11
267.4
 20
42.475
 21
40.5
  0
LINE
  8
0
 10
267.4
 11
273.425
 20
40.5
 21
40.5
  0
LINE
  8
0
 10
273.425
 11
273.425
 20
40.5
 21
31.5
  0
LINE
  8
0
 10
273.425
 11
267.4
 20
31.5
 21
31.5
  0
LINE
  8
0
 10
267.4
 11
267.4
 20
31.5
 21
21.5
  0
LINE
  8
0
 10
267.4
 11
257.4
 20
21.5
 21
21.5
  0
LINE
  8
0
 10
257.4
 11
257.4
 20
21.5
 21
15.475
  0
LINE
  8
0
 10
257.4
 11
248.4
 20
15.475
 21
15.475
  0
LINE
  8
0
 10
248.4
 11
248.4
 20
15.475
 21
21.5
  0
LINE
  8
0
 10
248.4
 11
246.425
 20
21.5
 21
21.5
  0
LINE
  8
0
 10
246.425
 11
246.425
 20
21.5
 21
25.4
  0
LINE
  8
0
 10
246.425
 11
247.775
 20
25.4
 21
25.4
  0
LINE
  8
0
 10
247.775
 11
247.775
 20
25.4
 21
27.4
  0
LINE
  8
0
 10
247.775
 11
246.425
 20
27.4
 21
27.4
  0
LINE
  8
0
 10
246.425
 11
246.425
 20
27.4
 21
29.45
  0
LINE
  8
0
 10
246.425
 11
243.625
 20
29.45
 21
29.45
  0
LINE
  8
0
 10
243.625
 11
243.625
 20
29.45
 21
27.4
  0
LINE
  8
0
 10
243.625
 11
242.275
 20
27.4
 21
27.4
  0
LINE
  8
0
 10
242.275
 11
242.275
 20
27.4
 21
25.4
  0
LINE
  8
0
 10
242.275
 11
243.625
 20
25.4
 21
25.4
  0
LINE
  8
0
 10
243.625
 11
243.625
 20
25.4
 21
21.5
  0
LINE
  8
0
 10
243.625
 11
241.65
 20
21.5
 21
21.5
  0
LINE
  8
0
 10
241.65
 11
241.65
 20
21.5
 21
15.475
  0
LINE
  8
0
 10
241.65
 11
232.65
 20
15.475
 21
15.475
  0
LINE
  8
0
 10
232.65
 11
232.65
 20
15.475
 21
21.5
  0
LINE
  8
0
 10
232.65
 11
182.983
 20
21.5
 21
21.5
  0
LINE
  8
0
 10
182.983
 11
182.983
 20
21.5
 21
15.475
  0
LINE
  8
0
 10
182.983
 11
173.983
 20
15.475
 21
15.475
  0
LINE
  8
0
 10
173.983
 11
173.983
 20
15.475
 21
21.5
  0
LINE
  8
0
 10
173.983
 11
172.008
 20
21.5
 21
21.5
  0
LINE
  8
0
 10
172.008
 11
172.008
 20
21.5
 21
25.4
  0
LINE
  8
0
 10
172.008
 11
173.358
 20
25.4
 21
25.4
  0
LINE
  8
0
 10
173.358
 11
173.358
 20
25.4
 21
27.4
  0
LINE
  8
0
 10
173.358
 11
172.008
 20
27.4
 21
27.4
  0
LINE
  8
0
 10
172.008
 11
172.008
 20
27.4
 21
29.45
  0
LINE
  8
0
 10
172.008
 11
169.208
 20
29.45
 21
29.45
  0
LINE
  8
0
 10
169.208
 11
169.208
 20
29.45
 21
27.4
  0
LINE
  8
0
 10
169.208
 11
167.858
 20
27.4
 21
27.4
  0
LINE
  8
0
 10
167.858
 11
167.858
 20
27.4
 21
25.4
  0
LINE
  8
0
 10
167.858
 11
169.208
 20
25.4
 21
25.4
  0
LINE
  8
0
 10
169.208
 11
169.208
 20
25.4
 21
21.5
  0
LINE
  8
0
 10
169.208
 11
167.233
 20
21.5
 21
21.5
  0
LINE
  8
0
 10
167.233
 11
167.233
 20
21.5
 21
15.475
  0
LINE
  8
0
 10
167.233
 11
158.233
 20
15.475
 21
15.475
  0
LINE
  8
0
 10
158.233
 11
158.233
 20
15.475
 21
21.5
  0
LINE
  8
0
 10
158.233
 11
108.567
 20
21.5
 21
21.5
  0
LINE
  8
0
 10
108.567
 11
108.567
 20
21.5
 21
15.475
  0
LINE
  8
0
 10
108.567
 11
99.567
 20
15.475
 21
15.475
  0
LINE
  8
0
 10
99.567
 11
99.567
 20
15.475
 21
21.5
  0
LINE
  8
0
 10
99.567
 11
97.592
 20
21.5
 21
21.5
  0
LINE
  8
0
 10
97.592
 11
97.592
 20
21.5
 21
25.4
  0
LINE
  8
0
 10
97.592
 11
98.942
 20
25.4
 21
25.4
  0
LINE
  8
0
 10
98.942
 11
98.942
 20
25.4
 21
27.4
  0
LINE
  8
0
 10
98.942
 11
97.592
 20
27.4
 21
27.4
  0
LINE
  8
0
 10
97.592
 11
97.592
 20
27.4
 21
29.45
  0
LINE
  8
0
 10
97.592
 11
94.792
 20
29.45
 21
29.45
  0
LINE
  8
0
 10
94.792
 11
94.792
 20
29.45
 21
27.4
  0
LINE
  8
0
 10
94.792
 11
93.442
 20
27.4
 21
27.4
  0
LINE
  8
0
 10
93.442
 11
93.442
 20
27.4
 21
25.4
  0
LINE
  8
0
 10
93.442
 11
94.792
 20
25.4
 21
25.4
  0
LINE
  8
0
 10
94.792
 11
94.792
 20
25.4
 21
21.5
  0
LINE
  8
0
 10
94.792
 11
92.817
 20
21.5
 21
21.5
  0
LINE
  8
0
 10
92.817
 11
92.817
 20
21.5
 21
15.475
  0
LINE
  8
0
 10
92.817
 11
83.817
 20
15.475
 21
15.475
  0
LINE
  8
0
 10
83.817
 11
83.817
 20
15.475
 21
21.5
  0
LINE
  8
0
 10
83.817
 11
34.15
 20
21.5
 21
21.5
  0
LINE
  8
0
 10
34.15
 11
34.15
 20
21.5
 21
15.475
  0
LINE
  8
0
 10
34.15
 11
25.15
 20
15.475
 21
15.475
  0
LINE
  8
0
 10
25.15
 11
25.15
 20
15.475
 21
21.5
  0
LINE
  8
0
 10
25.15
 11
23.175
 20
21.5
 21
21.5
  0
LINE
  8
0
 10
23.175
 11
23.175
 20
21.5
 21
25.4
  0
LINE
  8
0
 10
23.175
 11
24.525
 20
25.4
 21
25.4
  0
LINE
  8
0
 10
24.525
 11
24.525
 20
25.4
 21
27.4
  0
LINE
  8
0
 10
24.525
 11
23.175
 20
27.4
 21
27.4
  0
LINE
  8
0
 10
23.175
 11
23.175
 20
27.4
 21
29.45
  0
LINE
  8
0
 10
23.175
 11
20.375
 20
29.45
 21
29.45
  0
LINE
  8
0
 10
20.375
 11
20.375
 20
29.45
 21
27.4
  0
LINE
  8
0
 10
20.375
 11
19.025
 20
27.4
 21
27.4
  0
LINE
  8
0
 10
19.025
 11
19.025
 20
27.4
 21
25.4
  0
LINE
  8
0
 10
19.025
 11
20.375
 20
25.4
 21
25.4
  0
LINE
  8
0
 10
20.375
 11
20.375
 20
25.4
 21
21.5
  0
LINE
  8
0
 10
20.375
 11
18.4
 20
21.5
 21
21.5
  0
LINE
  8
0
 10
18.4
 11
18.4
 20
21.5
 21
15.475
  0
LINE
  8
0
 10
18.4
 11
9.4
 20
15.475
 21
15.475
  0
LINE
  8
0
 10
9.4
 11
9.4
 20
15.475
 21
21.5
  0
LINE
  8
0
 10
9.4
 11
-0.6
 20
21.5
 21
21.5
  0
LINE
  8
0
 10
-0.6
 11
-0.6
 20
21.5
 21
31.5
  0
LINE
  8
0
 10
-0.6
 11
-6.625
 20
31.5
 21
31.5
  0
LINE
  8
0
 10
-6.6
 11
-6.6
 20
245.5
 21
456.5
  0
LINE
  8
0
 10
-6.6
 11
3.4
 20
456.5
 21
456.5
  0
LINE
  8
0
 10
3.4
 11
3.4
 20
456.5
 21
462.525
  0
LINE
  8
0
 10
3.4
 11
12.4
 20
462.525
 21
462.525
  0
LINE
  8
0
 10
12.4
 11
12.4
 20
462.525
 21
456.5
  0
LINE
  8
0
 10
12.4
 11
14.375
 20
456.5
 21
456.5
  0
LINE
  8
0
 10
14.375
 11
14.375
 20
456.5
 21
452.6
  0
LINE
  8
0
 10
14.375
 11
13.025
 20
452.6
 21
452.6
  0
LINE
  8
0
 10
13.025
 11
13.025
 20
452.6
 21
450.6
  0
LINE
  8
0
 10
13.025
 11
14.375
 20
450.6
 21
450.6
  0
LINE
  8
0
 10
14.375
 11
14.375
 20
450.6
 21
448.55
  0
LINE
  8
0
 10
14.375
 11
17.175
 20
448.55
 21
448.55
  0
LINE
  8
0
 10
17.175
 11
17.175
 20
448.55
 21
450.6
  0
LINE
  8
0
 10
17.175
 11
18.525
 20
450.6
 21
450.6
  0
LINE
  8
0
 10
18.525
 11
18.525
 20
450.6
 21
452.6
  0
LINE
  8
0
 10
18.525
 11
17.175
 20
452.6
 21
452.6
  0
LINE
  8
0
 10
17.175
 11
17.175
 20
452.6
 21
456.5
  0
LINE
  8
0
 10
17.175
 11
19.15
 20
456.5
 21
456.5
  0
LINE
  8
0
 10
19.15
 11
19.15
 20
456.5
 21
462.525
  0
LINE
  8
0
 10
19.15
 11
28.15
 20
462.525
 21
462.525
  0
LINE
  8
0
 10
28.15
 11
28.15
 20
462.525
 21
456.5
  0
LINE
  8
0
 10
28.15
 11
81.45
 20
456.5
 21
456.5
  0
LINE
  8
0
 10
81.45
 11
81.45
 20
456.5
 21
462.525
  0
LINE
  8
0
 10
81.45
 11
90.45
 20
462.525
 21
462.525
  0
LINE
  8
0
 10
90.45
 11
90.45
 20
462.525
 21
456.5
  0
LINE
  8
0
 10
90.45
 11
92.425
 20
456.5
 21
456.5
  0
LINE
  8
0
 10
92.425
 11
92.425
 20
456.5
 21
452.6
  0
LINE
  8
0
 10
92.425
 11
91.075
 20
452.6
 21
452.6
  0
LINE
  8
0
 10
91.075
 11
91.075
 20
452.6
 21
450.6
  0
LINE
  8
0
 10
91.075
 11
92.425
 20
450.6
 21
450.6
  0
LINE
  8
0
 10
92.425
 11
92.425
 20
450.6
 21
448.55
  0
LINE
  8
0
 10
92.425
 11
95.225
 20
448.55
 21
448.55
  0
LINE
  8
0
 10
95.225
 11
95.225
 20
448.55
 21
450.6
  0
LINE
  8
0
 10
95.225
 11
96.575
 20
450.6
 21
450.6
  0
LINE
  8
0
 10
96.575
 11
96.575
 20
450.6
 21
452.6
  0
LINE
  8
0
 10
96.575
 11
95.225
 20
452.6
 21
452.6
  0
LINE
  8
0
 10
95.225
 11
95.225
 20
452.6
 21
456.5
  0
LINE
  8
0
 10
95.225
 11
97.2
 20
456.5
 21
456.5
  0
LINE
  8
0
 10
97.2
 11
97.2
 20
456.5
 21
462.525
  0
LINE
  8
0
 10
97.2
 11
106.2
 20
462.525
 21
462.525
  0
LINE
  8
0
 10
106.2
 11
106.2
 20
462.525
 21
456.5
  0
LINE
  8
0
 10
106.2
 11
159.5
 20
456.5
 21
456.5
  0
LINE
  8
0
 10
159.5
 11
159.5
 20
456.5
 21
462.525
  0
LINE
  8
0
 10
159.5
 11
168.5
 20
462.525
 21
462.525
  0
LINE
  8
0
 10
168.5
 11
168.5
 20
462.525
 21
456.5
  0
LINE
  8
0
 10
168.5
 11
170.475
 20
456.5
 21
456.5
  0
LINE
  8
0
 10
170.475
 11
170.475
 20
456.5
 21
452.6
  0
LINE
  8
0
 10
170.475
 11
169.125
 20
452.6
 21
452.6
  0
LINE
  8
0
 10
169.125
 11
169.125
 20
452.6
 21
450.6
  0
LINE
  8
0
 10
169.125
 11
170.475
 20
450.6
 21
450.6
  0
LINE
  8
0
 10
170.475
 11
170.475
 20
450.6
 21
448.55
  0
LINE
  8
0
 10
170.475
 11
173.275
 20
448.55
 21
448.55
  0
LINE
  8
0
 10
173.275
 11
173.275
 20
448.55
 21
450.6
  0
LINE
  8
0
 10
173.275
 11
174.625
 20
450.6
 21
450.6
  0
LINE
  8
0
 10
174.625
 11
174.625
 20
450.6
 21
452.6
  0
LINE
  8
0
 10
174.625
 11
173.275
 20
452.6
 21
452.6
  0
LINE
  8
0
 10
173.275
 11
173.275
 20
452.6
 21
456.5
  0
LINE
  8
0
 10
173.275
 11
175.25
 20
456.5
 21
456.5
  0
LINE
  8
0
 10
175.25
 11
175.25
 20
456.5
 21
462.525
  0
LINE
  8
0
 10
175.25
 11
184.25
 20
462.525
 21
462.525
  0
LINE
  8
0
 10
184.25
 11
184.25
 20
462.525
 21
456.5
  0
LINE
  8
0
 10
184.25
 11
237.55
 20
456.5
 21
456.5
  0
LINE
  8
0
 10
237.55
 11
237.55
 20
456.5
 21
462.525
  0
LINE
  8
0
 10
237.55
 11
246.55
 20
462.525
 21
462.525
  0
LINE
  8
0
 10
246.55
 11
246.55
 20
462.525
 21
456.5
  0
LINE
  8
0
 10
246.55
 11
248.525
 20
456.5
 21
456.5
  0
LINE
  8
0
 10
248.525
 11
248.525
 20
456.5
 21
452.6
  0
LINE
  8
0
 10
248.525
 11
247.175
 20
452.6
 21
452.6
  0
LINE
  8
0
 10
247.175
 11
247.175
 20
452.6
 21
450.6
  0
LINE
  8
0
 10
247.175
 11
248.525
 20
450.6
 21
450.6
  0
LINE
  8
0
 10
248.525
 11
248.525
 20
450.6
 21
448.55
  0
LINE
  8
0
 10
248.525
 11
251.325
 20
448.55
 21
448.55
  0
LINE
  8
0
 10
251.325
 11
251.325
 20
448.55
 21
450.6
  0
LINE
  8
0
 10
251.325
 11
252.675
 20
450.6
 21
450.6
  0
LINE
  8
0
 10
252.675
 11
252.675
 20
450.6
 21
452.6
  0
LINE
  8
0
 10
252.675
 11
251.325
 20
452.6
 21
452.6
  0
LINE
  8
0
 10
251.325
 11
251.325
 20
452.6
 21
456.5
  0
LINE
  8
0
 10
251.325
 11
253.3
 20
456.5
 21
456.5
  0
LINE
  8
0
 10
253.3
 11
253.3
 20
456.5
 21
462.525
  0
LINE
  8
0
 10
253.3
 11
262.3
 20
462.525
 21
462.525
  0
LINE
  8
0
 10
262.3
 11
262.3
 20
462.525
 21
456.5
  0
LINE
  8
0
 10
262.3
 11
282.3
 20
456.5
 21
456.5
  0
LINE
  8
0
 10
282.3
 11
282.3
 20
456.5
 21
245.5
  0
LINE
  8
0
 10
282.3
 11
262.3
 20
245.5
 21
245.5
  0
LINE
  8
0
 10
262.3
 11
262.3
 20
245.5
 21
239.475
  0
LINE
  8
0
 10
262.3
 11
253.3
 20
239.475
 21
239.475
  0
LINE
  8
0
 10
253.3
 11
253.3
 20
239.475
 21
245.5
  0
LINE
  8
0
 10
253.3
 11
251.325
 20
245.5
 21
245.5
  0
LINE
  8
0
 10
251.325
 11
251.325
 20
245.5
 21
249.4
  0
LINE
  8
0
 10
251.325
 11
252.675
 20
249.4
 21
249.4
  0
LINE
  8
0
 10
252.675
 11
252.675
 20
249.4
 21
251.4
  0
LINE
  8
0
 10
252.675
 11
251.325
 20
251.4
 21
251.4
  0
LINE
  8
0
 10
251.325
 11
251.325
 20
251.4
 21
253.45
  0
LINE
  8
0
 10
251.325
 11
248.525
 20
253.45
 21
253.45
  0
LINE
  8
0
 10
248.525
 11
248.525
 20
253.45
 21
251.4
  0
LINE
  8
0
 10
248.525
 11
247.175
 20
251.4
 21
251.4
  0
LINE
  8
0
 10
247.175
 11
247.175
 20
251.4
 21
249.4
  0
LINE
  8
0
 10
247.175
 11
248.525
 20
249.4
 21
249.4
  0
LINE
  8
0
 10
248.525
 11
248.525
 20
249.4
 21
245.5
  0
LINE
  8
0
 10
248.525
 11
246.55
 20
245.5
 21
245.5
  0
LINE
  8
0
 10
246.55
 11
246.55
 20
245.5
 21
239.475
  0
LINE
  8
0
 10
246.55
 11
237.55
 20
239.475
 21
239.475
  0
LINE
  8
0
 10
237.55
 11
237.55
 20
239.475
 21
245.5
  0
LINE
  8
0
 10
237.55
 11
184.25
 20
245.5
 21
245.5
  0
LINE
  8
0
 10
184.25
 11
184.25
 20
245.5
 21
239.475
  0
LINE
  8
0
 10
184.25
 11
175.25
 20
239.475
 21
239.475
  0
LINE
  8
0
 10
175.25
 11
175.25
 20
239.475
 21
245.5
  0
LINE
  8
0
 10
175.25
 11
173.275
 20
245.5
 21
245.5
  0
LINE
  8
0
 10
173.275
 11
173.275
 20
245.5
 21
249.4
  0
LINE
  8
0
 10
173.275
 11
174.625
 20
249.4
 21
249.4
  0
LINE
  8
0
 10
174.625
 11
174.625
 20
249.4
 21
251.4
  0
LINE
  8
0
 10
174.625
 11
173.275
 20
251.4
 21
251.4
  0
LINE
  8
0
 10
173.275
 11
173.275
 20
251.4
 21
253.45
  0
LINE
  8
0
 10
173.275
 11
170.475
 20
253.45
 21
253.45
  0
LINE
  8
0
 10
170.475
 11
170.475
 20
253.45
 21
251.4
  0
LINE
  8
0
 10
170.475
 11
169.125
 20
251.4
 21
251.4
  0
LINE
  8
0
 10
169.125
 11
169.125
 20
251.4
 21
249.4
  0
LINE
  8
0
 10
169.125
 11
170.475
 20
249.4
 21
249.4
  0
LINE
  8
0
 10
170.475
 11
170.475
 20
249.4
 21
245.5
  0
LINE
  8
0
 10
170.475
 11
168.5
 20
245.5
 21
245.5
  0
LINE
  8
0
 10
168.5
 11
168.5
 20
245.5
 21
239.475
  0
LINE
  8
0
 10
168.5
 11
159.5
 20
239.475
 21
239.475
  0
LINE
  8
0
 10
159.5
 11
159.5
 20
239.475
 21
245.5
  0
LINE
  8
0
 10
159.5
 11
106.2
 20
245.5
 21
245.5
  0
LINE
  8
0
 10
106.2
 11
106.2
 20
245.5
 21
239.475
  0
LINE
  8
0
 10
106.2
 11
97.2
 20
239.475
 21
239.475
  0
LINE
  8
0
 10
97.2
 11
97.2
 20
239.475
 21
245.5
  0
LINE
  8
0
 10
97.2
 11
95.225
 20
245.5
 21
245.5
  0
LINE
  8
0
 10
95.225
 11
95.225
 20
245.5
 21
249.4
  0
LINE
  8
0
 10
95.225
 11
96.575
 20
249.4
 21
249.4
  0
LINE
  8
0
 10
96.575
 11
96.575
 20
249.4
 21
251.4
  0
LINE
  8
0
 10
96.575
 11
95.225
 20
251.4
 21
251.4
  0
LINE
  8
0
 10
95.225
 11
95.225
 20
251.4
 21
253.45
  0
LINE
  8
0
 10
95.225
 11
92.425
 20
253.45
 21
253.45
  0
LINE
  8
0
 10
92.425
 11
92.425
 20
253.45
 21
251.4
  0
LINE
  8
0
 10
92.425
 11
91.075
 20
251.4
 21
251.4
  0
LINE
  8
0
 10
91.075
 11
91.075
 20
251.4
 21
249.4
  0
LINE
  8
0
 10
91.075
 11
92.425
 20
249.4
 21
249.4
  0
LINE
  8
0
 10
92.425
 11
92.425
 20
249.4
 21
245.5
  0
LINE
  8
0
 10
92.425
 11
90.45
 20
245.5
 21
245.5
  0
LINE
  8
0
 10
90.45
 11
90.45
 20
245.5
 21
239.475
  0
LINE
  8
0
 10
90.45
 11
81.45
 20
239.475
 21
239.475
  0
LINE
  8
0
 10
81.45
 11
81.45
 20
239.475
 21
245.5
  0
LINE
  8
0
 10
81.45
 11
28.15
 20
245.5
 21
245.5
  0
LINE
  8
0
 10
28.15
 11
28.15
 20
245.5
 21
239.475
  0
LINE
  8
0
 10
28.15
 11
19.15
 20
239.475
 21
239.475
  0
LINE
  8
0
 10
19.15
 11
19.15
 20
239.475
 21
245.5
  0
LINE
  8
0
 10
19.15
 11
17.175
 20
245.5
 21
245.5
  0
LINE
  8
0
 10
17.175
 11
17.175
 20
245.5
 21
249.4
  0
LINE
  8
0
 10
17.175
 11
18.525
 20
249.4
 21
249.4
  0
LINE
  8
0
 10
18.525
 11
18.525
 20
249.4
 21
251.4
  0
LINE
  8
0
 10
18.525
 11
17.175
 20
251.4
 21
251.4
  0
LINE
  8
0
 10
17.175
 11
17.175
 20
251.4
 21
253.45
  0
LINE
  8
0
 10
17.175
 11
14.375
 20
253.45
 21
253.45
  0
LINE
  8
0
 10
14.375
 11
14.375
 20
253.45
 21
251.4
  0
LINE
  8
0
 10
14.375
 11
13.025
 20
251.4
 21
251.4
  0
LINE
  8
0
 10
13.025
 11
13.025
 20
251.4
 21
249.4
  0
LINE
  8
0
 10
13.025
 11
14.375
 20
249.4
 21
249.4
  0
LINE
  8
0
 10
14.375
 11
14.375
 20
249.4
 21
245.5
  0
LINE
  8
0
 10
14.375
 11
12.4
 20
245.5
 21
245.5
  0
LINE
  8
0
 10
12.4
 11
12.4
 20
245.5
 21
239.475
  0
LINE
  8
0
 10
12.4
 11
3.4
 20
239.475
 21
239.475
  0
LINE
  8
0
 10
3.4
 11
3.4
 20
239.475
 21
245.5
  0
LINE
  8
0
 10
3.4
 11
-6.6
 20
245.5
 21
245.5
  0
LINE
  8
0
 10
-4.5
 11
-4.5
 20
-306.9
 21
-18
  0
LINE
  8
0
 10
-4.5
 11
283.5
 20
-18
 21
-18
  0
LINE
  8
0
 10
283.5
 11
283.5
 20
-18
 21
-306.9
  0
LINE
  8
0
 10
283.5
 11
-4.5
 20
-306.9
 21
-306.9
  0
LINE
  8
0
 10
-0.525
 11
-0.525
 20
-296.9
 21
-287.9
  0
LINE
  8
0
 10
-0.525
 11
5.525
 20
-287.9
 21
-287.9
  0
LINE
  8
0
 10
5.525
 11
5.525
 20
-287.9
 21
-296.9
  0
LINE
  8
0
 10
5.525
 11
-0.525
 20
-296.9
 21
-296.9
  0
LINE
  8
0
 10
-0.525
 11
-0.525
 20
-281.15
 21
-272.15
  0
LINE
  8
0
 10
-0.525
 11
5.525
 20
-272.15
 21
-272.15
  0
LINE
  8
0
 10
5.525
 11
5.525
 20
-272.15
 21
-281.15
  0
LINE
  8
0
 10
5.525
 11
-0.525
 20
-281.15
 21
-281.15
  0
LINE
  8
0
 10
-0.525
 11
-0.525
 20
-218.85
 21
-209.85
  0
LINE
  8
0
 10
-0.525
 11
5.525
 20
-209.85
 21
-209.85
  0
LINE
  8
0
 10
5.525
 11
5.525
 20
-209.85
 21
-218.85
  0
LINE
  8
0
 10
5.525
 11
-0.525
 20
-218.85
 21
-218.85
  0
LINE
  8
0
 10
-0.525
 11
-0.525
 20
-203.1
 21
-194.1
  0
LINE
  8
0
 10
-0.525
 11
5.525
 20
-194.1
 21
-194.1
  0
LINE
  8
0
 10
5.525
 11
5.525
 20
-194.1
 21
-203.1
  0
LINE
  8
0
 10
5.525
 11
-0.525
 20
-203.1
 21
-203.1
  0
LINE
  8
0
 10
-0.525
 11
-0.525
 20
-140.8
 21
-131.8
  0
LINE
  8
0
 10
-0.525
 11
5.525
 20
-131.8
 21
-131.8
  0
LINE
  8
0
 10
5.525
 11
5.525
 20
-131.8
 21
-140.8
  0
LINE
  8
0
 10
5.525
 11
-0.525
 20
-140.8
 21
-140.8
  0
LINE
  8
0
 10
-0.525
 11
-0.525
 20
-125.05
 21
-116.05
  0
LINE
  8
0
 10
-0.525
 11
5.525
 20
-116.05
 21
-116.05
  0
LINE
  8
0
 10
5.525
 11
5.525
 20
-116.05
 21
-125.05
  0
LINE
  8
0
 10
5.525
 11
-0.525
 20
-125.05
 21
-125.05
  0
LINE
  8
0
 10
-0.525
 11
-0.525
 20
-62.75
 21
-53.75
  0
LINE
  8
0
 10
-0.525
 11
5.525
 20
-53.75
 21
-53.75
  0
LINE
  8
0
 10
5.525
 11
5.525
 20
-53.75
 21
-62.75
  0
LINE
  8
0
 10
5.525
 11
-0.525
 20
-62.75
 21
-62.75
  0
LINE
  8
0
 10
-0.525
 11
-0.525
 20
-47
 21
-38
  0
LINE
  8
0
 10
-0.525
 11
5.525
 20
-38
 21
-38
  0
LINE
  8
0
 10
5.525
 11
5.525
 20
-38
 21
-47
  0
LINE
  8
0
 10
5.525
 11
-0.525
 20
-47
 21
-47
  0
LINE
  8
0
 10
1.1
 11
1.1
 20
-285.105
 21
-283.945
  0
LINE
  8
0
 10
1.1
 11
1.92
 20
-283.945
 21
-283.125
  0
LINE
  8
0
 10
1.92
 11
3.08
 20
-283.125
 21
-283.125
  0
LINE
  8
0
 10
3.08
 11
3.9
 20
-283.125
 21
-283.945
  0
LINE
  8
0
 10
3.9
 11
3.9
 20
-283.945
 21
-285.105
  0
LINE
  8
0
 10
3.9
 11
3.08
 20
-285.105
 21
-285.925
  0
LINE
  8
0
 10
3.08
 11
1.92
 20
-285.925
 21
-285.925
  0
LINE
  8
0
 10
1.92
 11
1.1
 20
-285.925
 21
-285.105
  0
LINE
  8
0
 10
1.1
 11
1.1
 20
-207.055
 21
-205.895
  0
LINE
  8
0
 10
1.1
 11
1.92
 20
-205.895
 21
-205.075
  0
LINE
  8
0
 10
1.92
 11
3.08
 20
-205.075
 21
-205.075
  0
LINE
  8
0
 10
3.08
 11
3.9
 20
-205.075
 21
-205.895
  0
LINE
  8
0
 10
3.9
 11
3.9
 20
-205.895
 21
-207.055
  0
LINE
  8
0
 10
3.9
 11
3.08
 20
-207.055
 21
-207.875
  0
LINE
  8
0
 10
3.08
 11
1.92
 20
-207.875
 21
-207.875
  0
LINE
  8
0
 10
1.92
 11
1.1
 20
-207.875
 21
-207.055
  0
LINE
  8
0
 10
1.1
 11
1.1
 20
-129.005
 21
-127.845
  0
LINE
  8
0
 10
1.1
 11
1.92
 20
-127.845
 21
-127.025
  0
LINE
  8
0
 10
1.92
 11
3.08
 20
-127.025
 21
-127.025
  0
LINE
  8
0
 10
3.08
 11
3.9
 20
-127.025
 21
-127.845
  0
LINE
  8
0
 10
3.9
 11
3.9
 20
-127.845
 21
-129.005
  0
LINE
  8
0
 10
3.9
 11
3.08
 20
-129.005
 21
-129.825
  0
LINE
  8
0
 10
3.08
 11
1.92
 20
-129.825
 21
-129.825
  0
LINE
  8
0
 10
1.92
 11
1.1
 20
-129.825
 21
-129.005
  0
LINE
  8
0
 10
1.1
 11
1.1
 20
-50.955
 21
-49.795
  0
LINE
  8
0
 10
1.1
 11
1.92
 20
-49.795
 21
-48.975
  0
LINE
  8
0
 10
1.92
 11
3.08
 20
-48.975
 21
-48.975
  0
LINE
  8
0
 10
3.08
 11
3.9
 20
-48.975
 21
-49.795
  0
LINE
  8
0
 10
3.9
 11
3.9
 20
-49.795
 21
-50.955
  0
LINE
  8
0
 10
3.9
 11
3.08
 20
-50.955
 21
-51.775
  0
LINE
  8
0
 10
3.08
 11
1.92
 20
-51.775
 21
-51.775
  0
LINE
  8
0
 10
1.92
 11
1.1
 20
-51.775
 21
-50.955
  0
LINE
  8
0
 10
13.06
 11
13.06
 20
-294.594
 21
-294.206
  0
LINE
  8
0
 10
13.06
 11
13.098
 20
-294.206
 21
-293.821
  0
LINE
  8
0
 10
13.098
 11
13.173
 20
-293.821
 21
-293.442
  0
LINE
  8
0
 10
13.173
 11
13.286
 20
-293.442
 21
-293.071
  0
LINE
  8
0
 10
13.286
 11
13.434
 20
-293.071
 21
-292.713
  0
LINE
  8
0
 10
13.434
 11
13.616
 20
-292.713
 21
-292.372
  0
LINE
  8
0
 10
13.616
 11
13.832
 20
-292.372
 21
-292.05
  0
LINE
  8
0
 10
13.832
 11
14.077
 20
-292.05
 21
-291.751
  0
LINE
  8
0
 10
14.077
 11
14.351
 20
-291.751
 21
-291.477
  0
LINE
  8
0
 10
14.351
 11
14.65
 20
-291.477
 21
-291.232
  0
LINE
  8
0
 10
14.65
 11
14.972
 20
-291.232
 21
-291.016
  0
LINE
  8
0
 10
14.972
 11
15.313
 20
-291.016
 21
-290.834
  0
LINE
  8
0
 10
15.313
 11
15.671
 20
-290.834
 21
-290.686
  0
LINE
  8
0
 10
15.671
 11
16.042
 20
-290.686
 21
-290.573
  0
LINE
  8
0
 10
16.042
 11
16.421
 20
-290.573
 21
-290.498
  0
LINE
  8
0
 10
16.421
 11
16.806
 20
-290.498
 21
-290.46
  0
LINE
  8
0
 10
16.806
 11
17.194
 20
-290.46
 21
-290.46
  0
LINE
  8
0
 10
17.194
 11
17.579
 20
-290.46
 21
-290.498
  0
LINE
  8
0
 10
17.579
 11
17.958
 20
-290.498
 21
-290.573
  0
LINE
  8
0
 10
17.958
 11
18.329
 20
-290.573
 21
-290.686
  0
LINE
  8
0
 10
18.329
 11
18.687
 20
-290.686
 21
-290.834
  0
LINE
  8
0
 10
18.687
 11
19.028
 20
-290.834
 21
-291.016
  0
LINE
  8
0
 10
19.028
 11
19.35
 20
-291.016
 21
-291.232
  0
LINE
  8
0
 10
19.35
 11
19.649
 20
-291.232
 21
-291.477
  0
LINE
  8
0
 10
19.649
 11
19.923
 20
-291.477
 21
-291.751
  0
LINE
  8
0
 10
19.923
 11
20.168
 20
-291.751
 21
-292.05
  0
LINE
  8
0
 10
20.168
 11
20.384
 20
-292.05
 21
-292.372
  0
LINE
  8
0
 10
20.384
 11
20.566
 20
-292.372
 21
-292.713
  0
LINE
  8
0
 10
20.566
 11
20.714
 20
-292.713
 21
-293.071
  0
LINE
  8
0
 10
20.714
 11
20.827
 20
-293.071
 21
-293.442
  0
LINE
  8
0
 10
20.827
 11
20.902
 20
-293.442
 21
-293.821
  0
LINE
  8
0
 10
20.902
 11
20.94
 20
-293.821
 21
-294.206
  0
LINE
  8
0
 10
20.94
 11
20.94
 20
-294.206
 21
-294.594
  0
LINE
  8
0
 10
20.94
 11
20.902
 20
-294.594
 21
-294.979
  0
LINE
  8
0
 10
20.902
 11
20.827
 20
-294.979
 21
-295.358
  0
LINE
  8
0
 10
20.827
 11
20.714
 20
-295.358
 21
-295.729
  0
LINE
  8
0
 10
20.714
 11
20.566
 20
-295.729
 21
-296.087
  0
LINE
  8
0
 10
20.566
 11
20.384
 20
-296.087
 21
-296.428
  0
LINE
  8
0
 10
20.384
 11
20.168
 20
-296.428
 21
-296.75
  0
LINE
  8
0
 10
20.168
 11
19.923
 20
-296.75
 21
-297.049
  0
LINE
  8
0
 10
19.923
 11
19.649
 20
-297.049
 21
-297.323
  0
LINE
  8
0
 10
19.649
 11
19.35
 20
-297.323
 21
-297.568
  0
LINE
  8
0
 10
19.35
 11
19.028
 20
-297.568
 21
-297.784
  0
LINE
  8
0
 10
19.028
 11
18.687
 20
-297.784
 21
-297.966
  0
LINE
  8
0
 10
18.687
 11
18.329
 20
-297.966
 21
-298.114
  0
LINE
  8
0
 10
18.329
 11
17.958
 20
-298.114
 21
-298.227
  0
LINE
  8
0
 10
17.958
 11
17.579
 20
-298.227
 21
-298.302
  0
LINE
  8
0
 10
17.579
 11
17.194
 20
-298.302
 21
-298.34
  0
LINE
  8
0
 10
17.194
 11
16.806
 20
-298.34
 21
-298.34
  0
LINE
  8
0
 10
16.806
 11
16.421
 20
-298.34
 21
-298.302
  0
LINE
  8
0
 10
16.421
 11
16.042
 20
-298.302
 21
-298.227
  0
LINE
  8
0
 10
16.042
 11
15.671
 20
-298.227
 21
-298.114
  0
LINE
  8
0
 10
15.671
 11
15.313
 20
-298.114
 21
-297.966
  0
LINE
  8
0
 10
15.313
 11
14.972
 20
-297.966
 21
-297.784
  0
LINE
  8
0
 10
14.972
 11
14.65
 20
-297.784
 21
-297.568
  0
LINE
  8
0
 10
14.65
 11
14.351
 20
-297.568
 21
-297.323
  0
LINE
  8
0
 10
14.351
 11
14.077
 20
-297.323
 21
-297.049
  0
LINE
  8
0
 10
14.077
 11
13.832
 20
-297.049
 21
-296.75
  0
LINE
  8
0
 10
13.832
 11
13.616
 20
-296.75
 21
-296.428
  0
LINE
  8
0
 10
13.616
 11
13.434
 20
-296.428
 21
-296.087
  0
LINE
  8
0
 10
13.434
 11
13.286
 20
-296.087
 21
-295.729
  0
LINE
  8
0
 10
13.286
 11
13.173
 20
-295.729
 21
-295.358
  0
LINE
  8
0
 10
13.173
 11
13.098
 20
-295.358
 21
-294.979
  0
LINE
  8
0
 10
13.098
 11
13.06
 20
-294.979
 21
-294.594
  0
LINE
  8
0
 10
15.5
 11
15.5
 20
-270.925
 21
-264.875
  0
LINE
  8
0
 10
15.5
 11
24.5
 20
-264.875
 21
-264.875
  0
LINE
  8
0
 10
24.5
 11
24.5
 20
-264.875
 21
-270.925
  0
LINE
  8
0
 10
24.5
 11
15.5
 20
-270.925
 21
-270.925
  0
LINE
  8
0
 10
15.5
 11
15.5
 20
-28.025
 21
-21.975
  0
LINE
  8
0
 10
15.5
 11
24.5
 20
-21.975
 21
-21.975
  0
LINE
  8
0
 10
24.5
 11
24.5
 20
-21.975
 21
-28.025
  0
LINE
  8
0
 10
24.5
 11
15.5
 20
-28.025
 21
-28.025
  0
LINE
  8
0
 10
26.475
 11
26.475
 20
-268.48
 21
-267.32
  0
LINE
  8
0
 10
26.475
 11
27.295
 20
-267.32
 21
-266.5
  0
LINE
  8
0
 10
27.295
 11
28.455
 20
-266.5
 21
-266.5
  0
LINE
  8
0
 10
28.455
 11
29.275
 20
-266.5
 21
-267.32
  0
LINE
  8
0
 10
29.275
 11
29.275
 20
-267.32
 21
-268.48
  0
LINE
  8
0
 10
29.275
 11
28.455
 20
-268.48
 21
-269.3
  0
LINE
  8
0
 10
28.455
 11
27.295
 20
-269.3
 21
-269.3
  0
LINE
  8
0
 10
27.295
 11
26.475
 20
-269.3
 21
-268.48
  0
LINE
  8
0
 10
26.475
 11
26.475
 20
-25.58
 21
-24.42
  0
LINE
  8
0
 10
26.475
 11
27.295
 20
-24.42
 21
-23.6
  0
LINE
  8
0
 10
27.295
 11
28.455
 20
-23.6
 21
-23.6
  0
LINE
  8
0
 10
28.455
 11
29.275
 20
-23.6
 21
-24.42
  0
LINE
  8
0
 10
29.275
 11
29.275
 20
-24.42
 21
-25.58
  0
LINE
  8
0
 10
29.275
 11
28.455
 20
-25.58
 21
-26.4
  0
LINE
  8
0
 10
28.455
 11
27.295
 20
-26.4
 21
-26.4
  0
LINE
  8
0
 10
27.295
 11
26.475
 20
-26.4
 21
-25.58
  0
LINE
  8
0
 10
26.7
 11
26.7
 20
-300.174
 21
-296.026
  0
LINE
  8
0
 10
26.7
 11
26.714
 20
-296.026
 21
-295.88
  0
LINE
  8
0
 10
26.714
 11
26.743
 20
-295.88
 21
-295.735
  0
LINE
  8
0
 10
26.743
 11
26.786
 20
-295.735
 21
-295.594
  0
LINE
  8
0
 10
26.786
 11
26.842
 20
-295.594
 21
-295.458
  0
LINE
  8
0
 10
26.842
 11
26.912
 20
-295.458
 21
-295.328
  0
LINE
  8
0
 10
26.912
 11
26.994
 20
-295.328
 21
-295.205
  0
LINE
  8
0
 10
26.994
 11
27.087
 20
-295.205
 21
-295.091
  0
LINE
  8
0
 10
27.087
 11
27.191
 20
-295.091
 21
-294.987
  0
LINE
  8
0
 10
27.191
 11
27.305
 20
-294.987
 21
-294.894
  0
LINE
  8
0
 10
27.305
 11
27.428
 20
-294.894
 21
-294.812
  0
LINE
  8
0
 10
27.428
 11
27.558
 20
-294.812
 21
-294.742
  0
LINE
  8
0
 10
27.558
 11
27.694
 20
-294.742
 21
-294.686
  0
LINE
  8
0
 10
27.694
 11
27.835
 20
-294.686
 21
-294.643
  0
LINE
  8
0
 10
27.835
 11
27.98
 20
-294.643
 21
-294.614
  0
LINE
  8
0
 10
27.98
 11
28.126
 20
-294.614
 21
-294.6
  0
LINE
  8
0
 10
28.126
 11
28.274
 20
-294.6
 21
-294.6
  0
LINE
  8
0
 10
28.274
 11
28.42
 20
-294.6
 21
-294.614
  0
LINE
  8
0
 10
28.42
 11
28.565
 20
-294.614
 21
-294.643
  0
LINE
  8
0
 10
28.565
 11
28.706
 20
-294.643
 21
-294.686
  0
LINE
  8
0
 10
28.706
 11
28.842
 20
-294.686
 21
-294.742
  0
LINE
  8
0
 10
28.842
 11
28.972
 20
-294.742
 21
-294.812
  0
LINE
  8
0
 10
28.972
 11
29.095
 20
-294.812
 21
-294.894
  0
LINE
  8
0
 10
29.095
 11
29.209
 20
-294.894
 21
-294.987
  0
LINE
  8
0
 10
29.209
 11
29.313
 20
-294.987
 21
-295.091
  0
LINE
  8
0
 10
29.313
 11
29.406
 20
-295.091
 21
-295.205
  0
LINE
  8
0
 10
29.406
 11
29.488
 20
-295.205
 21
-295.328
  0
LINE
  8
0
 10
29.488
 11
29.558
 20
-295.328
 21
-295.458
  0
LINE
  8
0
 10
29.558
 11
29.614
 20
-295.458
 21
-295.594
  0
LINE
  8
0
 10
29.614
 11
29.657
 20
-295.594
 21
-295.735
  0
LINE
  8
0
 10
29.657
 11
29.686
 20
-295.735
 21
-295.88
  0
LINE
  8
0
 10
29.686
 11
29.7
 20
-295.88
 21
-296.026
  0
LINE
  8
0
 10
29.7
 11
29.7
 20
-296.026
 21
-300.174
  0
LINE
  8
0
 10
29.7
 11
29.686
 20
-300.174
 21
-300.32
  0
LINE
  8
0
 10
29.686
 11
29.657
 20
-300.32
 21
-300.465
  0
LINE
  8
0
 10
29.657
 11
29.614
 20
-300.465
 21
-300.606
  0
LINE
  8
0
 10
29.614
 11
29.558
 20
-300.606
 21
-300.742
  0
LINE
  8
0
 10
29.558
 11
29.488
 20
-300.742
 21
-300.872
  0
LINE
  8
0
 10
29.488
 11
29.406
 20
-300.872
 21
-300.995
  0
LINE
  8
0
 10
29.406
 11
29.313
 20
-300.995
 21
-301.109
  0
LINE
  8
0
 10
29.313
 11
29.209
 20
-301.109
 21
-301.213
  0
LINE
  8
0
 10
29.209
 11
29.095
 20
-301.213
 21
-301.306
  0
LINE
  8
0
 10
29.095
 11
28.972
 20
-301.306
 21
-301.388
  0
LINE
  8
0
 10
28.972
 11
28.842
 20
-301.388
 21
-301.458
  0
LINE
  8
0
 10
28.842
 11
28.706
 20
-301.458
 21
-301.514
  0
LINE
  8
0
 10
28.706
 11
28.565
 20
-301.514
 21
-301.557
  0
LINE
  8
0
 10
28.565
 11
28.42
 20
-301.557
 21
-301.586
  0
LINE
  8
0
 10
28.42
 11
28.274
 20
-301.586
 21
-301.6
  0
LINE
  8
0
 10
28.274
 11
28.126
 20
-301.6
 21
-301.6
  0
LINE
  8
0
 10
28.126
 11
27.98
 20
-301.6
 21
-301.586
  0
LINE
  8
0
 10
27.98
 11
27.835
 20
-301.586
 21
-301.557
  0
LINE
  8
0
 10
27.835
 11
27.694
 20
-301.557
 21
-301.514
  0
LINE
  8
0
 10
27.694
 11
27.558
 20
-301.514
 21
-301.458
  0
LINE
  8
0
 10
27.558
 11
27.428
 20
-301.458
 21
-301.388
  0
LINE
  8
0
 10
27.428
 11
27.305
 20
-301.388
 21
-301.306
  0
LINE
  8
0
 10
27.305
 11
27.191
 20
-301.306
 21
-301.213
  0
LINE
  8
0
 10
27.191
 11
27.087
 20
-301.213
 21
-301.109
  0
LINE
  8
0
 10
27.087
 11
26.994
 20
-301.109
 21
-300.995
  0
LINE
  8
0
 10
26.994
 11
26.912
 20
-300.995
 21
-300.872
  0
LINE
  8
0
 10
26.912
 11
26.842
 20
-300.872
 21
-300.742
  0
LINE
  8
0
 10
26.842
 11
26.786
 20
-300.742
 21
-300.606
  0
LINE
  8
0
 10
26.786
 11
26.743
 20
-300.606
 21
-300.465
  0
LINE
  8
0
 10
26.743
 11
26.714
 20
-300.465
 21
-300.32
  0
LINE
  8
0
 10
26.714
 11
26.7
 20
-300.32
 21
-300.174
  0
LINE
  8
0
 10
29.375
 11
29.375
 20
255.5
 21
264.5
  0
LINE
  8
0
 10
29.375
 11
35.425
 20
264.5
 21
264.5
  0
LINE
  8
0
 10
35.425
 11
35.425
 20
264.5
 21
255.5
  0
LINE
  8
0
 10
35.425
 11
29.375
 20
255.5
 21
255.5
  0
LINE
  8
0
 10
29.375
 11
29.375
 20
271.25
 21
280.25
  0
LINE
  8
0
 10
29.375
 11
35.425
 20
280.25
 21
280.25
  0
LINE
  8
0
 10
35.425
 11
35.425
 20
280.25
 21
271.25
  0
LINE
  8
0
 10
35.425
 11
29.375
 20
271.25
 21
271.25
  0
LINE
  8
0
 10
29.375
 11
29.375
 20
338.625
 21
347.625
  0
LINE
  8
0
 10
29.375
 11
35.425
 20
347.625
 21
347.625
  0
LINE
  8
0
 10
35.425
 11
35.425
 20
347.625
 21
338.625
  0
LINE
  8
0
 10
35.425
 11
29.375
 20
338.625
 21
338.625
  0
LINE
  8
0
 10
29.375
 11
29.375
 20
354.375
 21
363.375
  0
LINE
  8
0
 10
29.375
 11
35.425
 20
363.375
 21
363.375
  0
LINE
  8
0
 10
35.425
 11
35.425
 20
363.375
 21
354.375
  0
LINE
  8
0
 10
35.425
 11
29.375
 20
354.375
 21
354.375
  0
LINE
  8
0
 10
29.375
 11
29.375
 20
421.75
 21
430.75
  0
LINE
  8
0
 10
29.375
 11
35.425
 20
430.75
 21
430.75
  0
LINE
  8
0
 10
35.425
 11
35.425
 20
430.75
 21
421.75
  0
LINE
  8
0
 10
35.425
 11
29.375
 20
421.75
 21
421.75
  0
LINE
  8
0
 10
29.375
 11
29.375
 20
437.5
 21
446.5
  0
LINE
  8
0
 10
29.375
 11
35.425
 20
446.5
 21
446.5
  0
LINE
  8
0
 10
35.425
 11
35.425
 20
446.5
 21
437.5
  0
LINE
  8
0
 10
35.425
 11
29.375
 20
437.5
 21
437.5
  0
LINE
  8
0
 10
31
 11
31
 20
267.295
 21
268.455
  0
LINE
  8
0
 10
31
 11
31.82
 20
268.455
 21
269.275
  0
LINE
  8
0
 10
31.82
 11
32.98
 20
269.275
 21
269.275
  0
LINE
  8
0
 10
32.98
 11
33.8
 20
269.275
 21
268.455
  0
LINE
  8
0
 10
33.8
 11
33.8
 20
268.455
 21
267.295
  0
LINE
  8
0
 10
33.8
 11
32.98
 20
267.295
 21
266.475
  0
LINE
  8
0
 10
32.98
 11
31.82
 20
266.475
 21
266.475
  0
LINE
  8
0
 10
31.82
 11
31
 20
266.475
 21
267.295
  0
LINE
  8
0
 10
31
 11
31
 20
350.42
 21
351.58
  0
LINE
  8
0
 10
31
 11
31.82
 20
351.58
 21
352.4
  0
LINE
  8
0
 10
31.82
 11
32.98
 20
352.4
 21
352.4
  0
LINE
  8
0
 10
32.98
 11
33.8
 20
352.4
 21
351.58
  0
LINE
  8
0
 10
33.8
 11
33.8
 20
351.58
 21
350.42
  0
LINE
  8
0
 10
33.8
 11
32.98
 20
350.42
 21
349.6
  0
LINE
  8
0
 10
32.98
 11
31.82
 20
349.6
 21
349.6
  0
LINE
  8
0
 10
31.82
 11
31
 20
349.6
 21
350.42
  0
LINE
  8
0
 10
31
 11
31
 20
433.545
 21
434.705
  0
LINE
  8
0
 10
31
 11
31.82
 20
434.705
 21
435.525
  0
LINE
  8
0
 10
31.82
 11
32.98
 20
435.525
 21
435.525
  0
LINE
  8
0
 10
32.98
 11
33.8
 20
435.525
 21
434.705
  0
LINE
  8
0
 10
33.8
 11
33.8
 20
434.705
 21
433.545
  0
LINE
  8
0
 10
33.8
 11
32.98
 20
433.545
 21
432.725
  0
LINE
  8
0
 10
32.98
 11
31.82
 20
432.725
 21
432.725
  0
LINE
  8
0
 10
31.82
 11
31
 20
432.725
 21
433.545
  0
LINE
  8
0
 10
31.25
 11
31.25
 20
-270.925
 21
-264.875
  0
LINE
  8
0
 10
31.25
 11
40.25
 20
-264.875
 21
-264.875
  0
LINE
  8
0
 10
40.25
 11
40.25
 20
-264.875
 21
-270.925
  0
LINE
  8
0
 10
40.25
 11
31.25
 20
-270.925
 21
-270.925
  0
LINE
  8
0
 10
31.25
 11
31.25
 20
-28.025
 21
-21.975
  0
LINE
  8
0
 10
31.25
 11
40.25
 20
-21.975
 21
-21.975
  0
LINE
  8
0
 10
40.25
 11
40.25
 20
-21.975
 21
-28.025
  0
LINE
  8
0
 10
40.25
 11
31.25
 20
-28.025
 21
-28.025
  0
LINE
  8
0
 10
41.4
 11
41.4
 20
298.25
 21
403.75
  0
LINE
  8
0
 10
41.4
 11
180.85
 20
403.75
 21
403.75
  0
LINE
  8
0
 10
180.85
 11
180.85
 20
403.75
 21
298.25
  0
LINE
  8
0
 10
180.85
 11
41.4
 20
298.25
 21
298.25
  0
LINE
  8
0
 10
79.96
 11
79.96
 20
217.306
 21
217.694
  0
LINE
  8
0
 10
79.96
 11
79.998
 20
217.694
 21
218.079
  0
LINE
  8
0
 10
79.998
 11
80.073
 20
218.079
 21
218.458
  0
LINE
  8
0
 10
80.073
 11
80.186
 20
218.458
 21
218.829
  0
LINE
  8
0
 10
80.186
 11
80.334
 20
218.829
 21
219.187
  0
LINE
  8
0
 10
80.334
 11
80.516
 20
219.187
 21
219.528
  0
LINE
  8
0
 10
80.516
 11
80.732
 20
219.528
 21
219.85
  0
LINE
  8
0
 10
80.732
 11
80.977
 20
219.85
 21
220.149
  0
LINE
  8
0
 10
80.977
 11
81.251
 20
220.149
 21
220.423
  0
LINE
  8
0
 10
81.251
 11
81.55
 20
220.423
 21
220.668
  0
LINE
  8
0
 10
81.55
 11
81.872
 20
220.668
 21
220.884
  0
LINE
  8
0
 10
81.872
 11
82.213
 20
220.884
 21
221.066
  0
LINE
  8
0
 10
82.213
 11
82.571
 20
221.066
 21
221.214
  0
LINE
  8
0
 10
82.571
 11
82.942
 20
221.214
 21
221.327
  0
LINE
  8
0
 10
82.942
 11
83.321
 20
221.327
 21
221.402
  0
LINE
  8
0
 10
83.321
 11
83.706
 20
221.402
 21
221.44
  0
LINE
  8
0
 10
83.706
 11
84.094
 20
221.44
 21
221.44
  0
LINE
  8
0
 10
84.094
 11
84.479
 20
221.44
 21
221.402
  0
LINE
  8
0
 10
84.479
 11
84.858
 20
221.402
 21
221.327
  0
LINE
  8
0
 10
84.858
 11
85.229
 20
221.327
 21
221.214
  0
LINE
  8
0
 10
85.229
 11
85.587
 20
221.214
 21
221.066
  0
LINE
  8
0
 10
85.587
 11
85.928
 20
221.066
 21
220.884
  0
LINE
  8
0
 10
85.928
 11
86.25
 20
220.884
 21
220.668
  0
LINE
  8
0
 10
86.25
 11
86.549
 20
220.668
 21
220.423
  0
LINE
  8
0
 10
86.549
 11
86.823
 20
220.423
 21
220.149
  0
LINE
  8
0
 10
86.823
 11
87.068
 20
220.149
 21
219.85
  0
LINE
  8
0
 10
87.068
 11
87.284
 20
219.85
 21
219.528
  0
LINE
  8
0
 10
87.284
 11
87.466
 20
219.528
 21
219.187
  0
LINE
  8
0
 10
87.466
 11
87.614
 20
219.187
 21
218.829
  0
LINE
  8
0
 10
87.614
 11
87.727
 20
218.829
 21
218.458
  0
LINE
  8
0
 10
87.727
 11
87.802
 20
218.458
 21
218.079
  0
LINE
  8
0
 10
87.802
 11
87.84
 20
218.079
 21
217.694
  0
LINE
  8
0
 10
87.84
 11
87.84
 20
217.694
 21
217.306
  0
LINE
  8
0
 10
87.84
 11
87.802
 20
217.306
 21
216.921
  0
LINE
  8
0
 10
87.802
 11
87.727
 20
216.921
 21
216.542
  0
LINE
  8
0
 10
87.727
 11
87.614
 20
216.542
 21
216.171
  0
LINE
  8
0
 10
87.614
 11
87.466
 20
216.171
 21
215.813
  0
LINE
  8
0
 10
87.466
 11
87.284
 20
215.813
 21
215.472
  0
LINE
  8
0
 10
87.284
 11
87.068
 20
215.472
 21
215.15
  0
LINE
  8
0
 10
87.068
 11
86.823
 20
215.15
 21
214.851
  0
LINE
  8
0
 10
86.823
 11
86.549
 20
214.851
 21
214.577
  0
LINE
  8
0
 10
86.549
 11
86.25
 20
214.577
 21
214.332
  0
LINE
  8
0
 10
86.25
 11
85.928
 20
214.332
 21
214.116
  0
LINE
  8
0
 10
85.928
 11
85.587
 20
214.116
 21
213.934
  0
LINE
  8
0
 10
85.587
 11
85.229
 20
213.934
 21
213.786
  0
LINE
  8
0
 10
85.229
 11
84.858
 20
213.786
 21
213.673
  0
LINE
  8
0
 10
84.858
 11
84.479
 20
213.673
 21
213.598
  0
LINE
  8
0
 10
84.479
 11
84.094
 20
213.598
 21
213.56
  0
LINE
  8
0
 10
84.094
 11
83.706
 20
213.56
 21
213.56
  0
LINE
  8
0
 10
83.706
 11
83.321
 20
213.56
 21
213.598
  0
LINE
  8
0
 10
83.321
 11
82.942
 20
213.598
 21
213.673
  0
LINE
  8
0
 10
82.942
 11
82.571
 20
213.673
 21
213.786
  0
LINE
  8
0
 10
82.571
 11
82.213
 20
213.786
 21
213.934
  0
LINE
  8
0
 10
82.213
 11
81.872
 20
213.934
 21
214.116
  0
LINE
  8
0
 10
81.872
 11
81.55
 20
214.116
 21
214.332
  0
LINE
  8
0
 10
81.55
 11
81.251
 20
214.332
 21
214.577
  0
LINE
  8
0
 10
81.251
 11
80.977
 20
214.577
 21
214.851
  0
LINE
  8
0
 10
80.977
 11
80.732
 20
214.851
 21
215.15
  0
LINE
  8
0
 10
80.732
 11
80.516
 20
215.15
 21
215.472
  0
LINE
  8
0
 10
80.516
 11
80.334
 20
215.472
 21
215.813
  0
LINE
  8
0
 10
80.334
 11
80.186
 20
215.813
 21
216.171
  0
LINE
  8
0
 10
80.186
 11
80.073
 20
216.171
 21
216.542
  0
LINE
  8
0
 10
80.073
 11
79.998
 20
216.542
 21
216.921
  0
LINE
  8
0
 10
79.998
 11
79.96
 20
216.921
 21
217.306
  0
LINE
  8
0
 10
89.917
 11
89.917
 20
-270.925
 21
-264.875
  0
LINE
  8
0
 10
89.917
 11
98.917
 20
-264.875
 21
-264.875
  0
LINE
  8
0
 10
98.917
 11
98.917
 20
-264.875
 21
-270.925
  0
LINE
  8
0
 10
98.917
 11
89.917
 20
-270.925
 21
-270.925
  0
LINE
  8
0
 10
89.917
 11
89.917
 20
-28.025
 21
-21.975
  0
LINE
  8
0
 10
89.917
 11
98.917
 20
-21.975
 21
-21.975
  0
LINE
  8
0
 10
98.917
 11
98.917
 20
-21.975
 21
-28.025
  0
LINE
  8
0
 10
98.917
 11
89.917
 20
-28.025
 21
-28.025
  0
LINE
  8
0
 10
100.892
 11
100.892
 20
-268.48
 21
-267.32
  0
LINE
  8
0
 10
100.892
 11
101.712
 20
-267.32
 21
-266.5
  0
LINE
  8
0
 10
101.712
 11
102.872
 20
-266.5
 21
-266.5
  0
LINE
  8
0
 10
102.872
 11
103.692
 20
-266.5
 21
-267.32
  0
LINE
  8
0
 10
103.692
 11
103.692
 20
-267.32
 21
-268.48
  0
LINE
  8
0
 10
103.692
 11
102.872
 20
-268.48
 21
-269.3
  0
LINE
  8
0
 10
102.872
 11
101.712
 20
-269.3
 21
-269.3
  0
LINE
  8
0
 10
101.712
 11
100.892
 20
-269.3
 21
-268.48
  0
LINE
  8
0
 10
100.892
 11
100.892
 20
-25.58
 21
-24.42
  0
LINE
  8
0
 10
100.892
 11
101.712
 20
-24.42
 21
-23.6
  0
LINE
  8
0
 10
101.712
 11
102.872
 20
-23.6
 21
-23.6
  0
LINE
  8
0
 10
102.872
 11
103.692
 20
-23.6
 21
-24.42
  0
LINE
  8
0
 10
103.692
 11
103.692
 20
-24.42
 21
-25.58
  0
LINE
  8
0
 10
103.692
 11
102.872
 20
-25.58
 21
-26.4
  0
LINE
  8
0
 10
102.872
 11
101.712
 20
-26.4
 21
-26.4
  0
LINE
  8
0
 10
101.712
 11
100.892
 20
-26.4
 21
-25.58
  0
LINE
  8
0
 10
105.667
 11
105.667
 20
-270.925
 21
-264.875
  0
LINE
  8
0
 10
105.667
 11
114.667
 20
-264.875
 21
-264.875
  0
LINE
  8
0
 10
114.667
 11
114.667
 20
-264.875
 21
-270.925
  0
LINE
  8
0
 10
114.667
 11
105.667
 20
-270.925
 21
-270.925
  0
LINE
  8
0
 10
105.667
 11
105.667
 20
-28.025
 21
-21.975
  0
LINE
  8
0
 10
105.667
 11
114.667
 20
-21.975
 21
-21.975
  0
LINE
  8
0
 10
114.667
 11
114.667
 20
-21.975
 21
-28.025
  0
LINE
  8
0
 10
114.667
 11
105.667
 20
-28.025
 21
-28.025
  0
LINE
  8
0
 10
111.907
 11
111.907
 20
-65.074
 21
-64.926
  0
LINE
  8
0
 10
111.907
 11
111.921
 20
-64.926
 21
-64.78
  0
LINE
  8
0
 10
111.921
 11
111.95
 20
-64.78
 21
-64.635
  0
LINE
  8
0
 10
111.95
 11
111.993
 20
-64.635
 21
-64.494
  0
LINE
  8
0
 10
111.993
 11
112.049
 20
-64.494
 21
-64.358
  0
LINE
  8
0
 10
112.049
 11
112.119
 20
-64.358
 21
-64.228
  0
LINE
  8
0
 10
112.119
 11
112.201
 20
-64.228
 21
-64.105
  0
LINE
  8
0
 10
112.201
 11
112.294
 20
-64.105
 21
-63.991
  0
LINE
  8
0
 10
112.294
 11
112.398
 20
-63.991
 21
-63.887
  0
LINE
  8
0
 10
112.398
 11
112.512
 20
-63.887
 21
-63.794
  0
LINE
  8
0
 10
112.512
 11
112.635
 20
-63.794
 21
-63.712
  0
LINE
  8
0
 10
112.635
 11
112.765
 20
-63.712
 21
-63.642
  0
LINE
  8
0
 10
112.765
 11
112.901
 20
-63.642
 21
-63.586
  0
LINE
  8
0
 10
112.901
 11
113.042
 20
-63.586
 21
-63.543
  0
LINE
  8
0
 10
113.042
 11
113.187
 20
-63.543
 21
-63.514
  0
LINE
  8
0
 10
113.187
 11
113.333
 20
-63.514
 21
-63.5
  0
LINE
  8
0
 10
113.333
 11
113.481
 20
-63.5
 21
-63.5
  0
LINE
  8
0
 10
113.481
 11
113.627
 20
-63.5
 21
-63.514
  0
LINE
  8
0
 10
113.627
 11
113.772
 20
-63.514
 21
-63.543
  0
LINE
  8
0
 10
113.772
 11
113.913
 20
-63.543
 21
-63.586
  0
LINE
  8
0
 10
113.913
 11
114.049
 20
-63.586
 21
-63.642
  0
LINE
  8
0
 10
114.049
 11
114.179
 20
-63.642
 21
-63.712
  0
LINE
  8
0
 10
114.179
 11
114.302
 20
-63.712
 21
-63.794
  0
LINE
  8
0
 10
114.302
 11
114.416
 20
-63.794
 21
-63.887
  0
LINE
  8
0
 10
114.416
 11
114.52
 20
-63.887
 21
-63.991
  0
LINE
  8
0
 10
114.52
 11
114.613
 20
-63.991
 21
-64.105
  0
LINE
  8
0
 10
114.613
 11
114.695
 20
-64.105
 21
-64.228
  0
LINE
  8
0
 10
114.695
 11
114.765
 20
-64.228
 21
-64.358
  0
LINE
  8
0
 10
114.765
 11
114.821
 20
-64.358
 21
-64.494
  0
LINE
  8
0
 10
114.821
 11
114.864
 20
-64.494
 21
-64.635
  0
LINE
  8
0
 10
114.864
 11
114.893
 20
-64.635
 21
-64.78
  0
LINE
  8
0
 10
114.893
 11
114.907
 20
-64.78
 21
-64.926
  0
LINE
  8
0
 10
114.907
 11
114.907
 20
-64.926
 21
-65.074
  0
LINE
  8
0
 10
114.907
 11
114.893
 20
-65.074
 21
-65.22
  0
LINE
  8
0
 10
114.893
 11
114.864
 20
-65.22
 21
-65.365
  0
LINE
  8
0
 10
114.864
 11
114.821
 20
-65.365
 21
-65.506
  0
LINE
  8
0
 10
114.821
 11
114.765
 20
-65.506
 21
-65.642
  0
LINE
  8
0
 10
114.765
 11
114.695
 20
-65.642
 21
-65.772
  0
LINE
  8
0
 10
114.695
 11
114.613
 20
-65.772
 21
-65.895
  0
LINE
  8
0
 10
114.613
 11
114.52
 20
-65.895
 21
-66.009
  0
LINE
  8
0
 10
114.52
 11
114.416
 20
-66.009
 21
-66.113
  0
LINE
  8
0
 10
114.416
 11
114.302
 20
-66.113
 21
-66.206
  0
LINE
  8
0
 10
114.302
 11
114.179
 20
-66.206
 21
-66.288
  0
LINE
  8
0
 10
114.179
 11
114.049
 20
-66.288
 21
-66.358
  0
LINE
  8
0
 10
114.049
 11
113.913
 20
-66.358
 21
-66.414
  0
LINE
  8
0
 10
113.913
 11
113.772
 20
-66.414
 21
-66.457
  0
LINE
  8
0
 10
113.772
 11
113.627
 20
-66.457
 21
-66.486
  0
LINE
  8
0
 10
113.627
 11
113.481
 20
-66.486
 21
-66.5
  0
LINE
  8
0
 10
113.481
 11
113.333
 20
-66.5
 21
-66.5
  0
LINE
  8
0
 10
113.333
 11
113.187
 20
-66.5
 21
-66.486
  0
LINE
  8
0
 10
113.187
 11
113.042
 20
-66.486
 21
-66.457
  0
LINE
  8
0
 10
113.042
 11
112.901
 20
-66.457
 21
-66.414
  0
LINE
  8
0
 10
112.901
 11
112.765
 20
-66.414
 21
-66.358
  0
LINE
  8
0
 10
112.765
 11
112.635
 20
-66.358
 21
-66.288
  0
LINE
  8
0
 10
112.635
 11
112.512
 20
-66.288
 21
-66.206
  0
LINE
  8
0
 10
112.512
 11
112.398
 20
-66.206
 21
-66.113
  0
LINE
  8
0
 10
112.398
 11
112.294
 20
-66.113
 21
-66.009
  0
LINE
  8
0
 10
112.294
 11
112.201
 20
-66.009
 21
-65.895
  0
LINE
  8
0
 10
112.201
 11
112.119
 20
-65.895
 21
-65.772
  0
LINE
  8
0
 10
112.119
 11
112.049
 20
-65.772
 21
-65.642
  0
LINE
  8
0
 10
112.049
 11
111.993
 20
-65.642
 21
-65.506
  0
LINE
  8
0
 10
111.993
 11
111.95
 20
-65.506
 21
-65.365
  0
LINE
  8
0
 10
111.95
 11
111.921
 20
-65.365
 21
-65.22
  0
LINE
  8
0
 10
111.921
 11
111.907
 20
-65.22
 21
-65.074
  0
LINE
  8
0
 10
111.907
 11
111.907
 20
-34.074
 21
-33.926
  0
LINE
  8
0
 10
111.907
 11
111.921
 20
-33.926
 21
-33.78
  0
LINE
  8
0
 10
111.921
 11
111.95
 20
-33.78
 21
-33.635
  0
LINE
  8
0
 10
111.95
 11
111.993
 20
-33.635
 21
-33.494
  0
LINE
  8
0
 10
111.993
 11
112.049
 20
-33.494
 21
-33.358
  0
LINE
  8
0
 10
112.049
 11
112.119
 20
-33.358
 21
-33.228
  0
LINE
  8
0
 10
112.119
 11
112.201
 20
-33.228
 21
-33.105
  0
LINE
  8
0
 10
112.201
 11
112.294
 20
-33.105
 21
-32.991
  0
LINE
  8
0
 10
112.294
 11
112.398
 20
-32.991
 21
-32.887
  0
LINE
  8
0
 10
112.398
 11
112.512
 20
-32.887
 21
-32.794
  0
LINE
  8
0
 10
112.512
 11
112.635
 20
-32.794
 21
-32.712
  0
LINE
  8
0
 10
112.635
 11
112.765
 20
-32.712
 21
-32.642
  0
LINE
  8
0
 10
112.765
 11
112.901
 20
-32.642
 21
-32.586
  0
LINE
  8
0
 10
112.901
 11
113.042
 20
-32.586
 21
-32.543
  0
LINE
  8
0
 10
113.042
 11
113.187
 20
-32.543
 21
-32.514
  0
LINE
  8
0
 10
113.187
 11
113.333
 20
-32.514
 21
-32.5
  0
LINE
  8
0
 10
113.333
 11
113.481
 20
-32.5
 21
-32.5
  0
LINE
  8
0
 10
113.481
 11
113.627
 20
-32.5
 21
-32.514
  0
LINE
  8
0
 10
113.627
 11
113.772
 20
-32.514
 21
-32.543
  0
LINE
  8
0
 10
113.772
 11
113.913
 20
-32.543
 21
-32.586
  0
LINE
  8
0
 10
113.913
 11
114.049
 20
-32.586
 21
-32.642
  0
LINE
  8
0
 10
114.049
 11
114.179
 20
-32.642
 21
-32.712
  0
LINE
  8
0
 10
114.179
 11
114.302
 20
-32.712
 21
-32.794
  0
LINE
  8
0
 10
114.302
 11
114.416
 20
-32.794
 21
-32.887
  0
LINE
  8
0
 10
114.416
 11
114.52
 20
-32.887
 21
-32.991
  0
LINE
  8
0
 10
114.52
 11
114.613
 20
-32.991
 21
-33.105
  0
LINE
  8
0
 10
114.613
 11
114.695
 20
-33.105
 21
-33.228
  0
LINE
  8
0
 10
114.695
 11
114.765
 20
-33.228
 21
-33.358
  0
LINE
  8
0
 10
114.765
 11
114.821
 20
-33.358
 21
-33.494
  0
LINE
  8
0
 10
114.821
 11
114.864
 20
-33.494
 21
-33.635
  0
LINE
  8
0
 10
114.864
 11
114.893
 20
-33.635
 21
-33.78
  0
LINE
  8
0
 10
114.893
 11
114.907
 20
-33.78
 21
-33.926
  0
LINE
  8
0
 10
114.907
 11
114.907
 20
-33.926
 21
-34.074
  0
LINE
  8
0
 10
114.907
 11
114.893
 20
-34.074
 21
-34.22
  0
LINE
  8
0
 10
114.893
 11
114.864
 20
-34.22
 21
-34.365
  0
LINE
  8
0
 10
114.864
 11
114.821
 20
-34.365
 21
-34.506
  0
LINE
  8
0
 10
114.821
 11
114.765
 20
-34.506
 21
-34.642
  0
LINE
  8
0
 10
114.765
 11
114.695
 20
-34.642
 21
-34.772
  0
LINE
  8
0
 10
114.695
 11
114.613
 20
-34.772
 21
-34.895
  0
LINE
  8
0
 10
114.613
 11
114.52
 20
-34.895
 21
-35.009
  0
LINE
  8
0
 10
114.52
 11
114.416
 20
-35.009
 21
-35.113
  0
LINE
  8
0
 10
114.416
 11
114.302
 20
-35.113
 21
-35.206
  0
LINE
  8
0
 10
114.302
 11
114.179
 20
-35.206
 21
-35.288
  0
LINE
  8
0
 10
114.179
 11
114.049
 20
-35.288
 21
-35.358
  0
LINE
  8
0
 10
114.049
 11
113.913
 20
-35.358
 21
-35.414
  0
LINE
  8
0
 10
113.913
 11
113.772
 20
-35.414
 21
-35.457
  0
LINE
  8
0
 10
113.772
 11
113.627
 20
-35.457
 21
-35.486
  0
LINE
  8
0
 10
113.627
 11
113.481
 20
-35.486
 21
-35.5
  0
LINE
  8
0
 10
113.481
 11
113.333
 20
-35.5
 21
-35.5
  0
LINE
  8
0
 10
113.333
 11
113.187
 20
-35.5
 21
-35.486
  0
LINE
  8
0
 10
113.187
 11
113.042
 20
-35.486
 21
-35.457
  0
LINE
  8
0
 10
113.042
 11
112.901
 20
-35.457
 21
-35.414
  0
LINE
  8
0
 10
112.901
 11
112.765
 20
-35.414
 21
-35.358
  0
LINE
  8
0
 10
112.765
 11
112.635
 20
-35.358
 21
-35.288
  0
LINE
  8
0
 10
112.635
 11
112.512
 20
-35.288
 21
-35.206
  0
LINE
  8
0
 10
112.512
 11
112.398
 20
-35.206
 21
-35.113
  0
LINE
  8
0
 10
112.398
 11
112.294
 20
-35.113
 21
-35.009
  0
LINE
  8
0
 10
112.294
 11
112.201
 20
-35.009
 21
-34.895
  0
LINE
  8
0
 10
112.201
 11
112.119
 20
-34.895
 21
-34.772
  0
LINE
  8
0
 10
112.119
 11
112.049
 20
-34.772
 21
-34.642
  0
LINE
  8
0
 10
112.049
 11
111.993
 20
-34.642
 21
-34.506
  0
LINE
  8
0
 10
111.993
 11
111.95
 20
-34.506
 21
-34.365
  0
LINE
  8
0
 10
111.95
 11
111.921
 20
-34.365
 21
-34.22
  0
LINE
  8
0
 10
111.921
 11
111.907
 20
-34.22
 21
-34.074
  0
LINE
  8
0
 10
117.907
 11
117.907
 20
-50.04
 21
-48.96
  0
LINE
  8
0
 10
117.907
 11
118.013
 20
-48.96
 21
-47.884
  0
LINE
  8
0
 10
118.013
 11
118.224
 20
-47.884
 21
-46.824
  0
LINE
  8
0
 10
118.224
 11
118.538
 20
-46.824
 21
-45.79
  0
LINE
  8
0
 10
118.538
 11
118.951
 20
-45.79
 21
-44.791
  0
LINE
  8
0
 10
118.951
 11
119.461
 20
-44.791
 21
-43.838
  0
LINE
  8
0
 10
119.461
 11
120.061
 20
-43.838
 21
-42.939
  0
LINE
  8
0
 10
120.061
 11
120.747
 20
-42.939
 21
-42.104
  0
LINE
  8
0
 10
120.747
 11
121.511
 20
-42.104
 21
-41.34
  0
LINE
  8
0
 10
121.511
 11
122.346
 20
-41.34
 21
-40.654
  0
LINE
  8
0
 10
122.346
 11
123.245
 20
-40.654
 21
-40.054
  0
LINE
  8
0
 10
123.245
 11
124.198
 20
-40.054
 21
-39.544
  0
LINE
  8
0
 10
124.198
 11
125.197
 20
-39.544
 21
-39.131
  0
LINE
  8
0
 10
125.197
 11
126.231
 20
-39.131
 21
-38.817
  0
LINE
  8
0
 10
126.231
 11
127.291
 20
-38.817
 21
-38.606
  0
LINE
  8
0
 10
127.291
 11
128.367
 20
-38.606
 21
-38.5
  0
LINE
  8
0
 10
128.367
 11
129.447
 20
-38.5
 21
-38.5
  0
LINE
  8
0
 10
129.447
 11
130.523
 20
-38.5
 21
-38.606
  0
LINE
  8
0
 10
130.523
 11
131.583
 20
-38.606
 21
-38.817
  0
LINE
  8
0
 10
131.583
 11
132.617
 20
-38.817
 21
-39.131
  0
LINE
  8
0
 10
132.617
 11
133.616
 20
-39.131
 21
-39.544
  0
LINE
  8
0
 10
133.616
 11
134.569
 20
-39.544
 21
-40.054
  0
LINE
  8
0
 10
134.569
 11
135.468
 20
-40.054
 21
-40.654
  0
LINE
  8
0
 10
135.468
 11
136.303
 20
-40.654
 21
-41.34
  0
LINE
  8
0
 10
136.303
 11
137.067
 20
-41.34
 21
-42.104
  0
LINE
  8
0
 10
137.067
 11
137.753
 20
-42.104
 21
-42.939
  0
LINE
  8
0
 10
137.753
 11
138.353
 20
-42.939
 21
-43.838
  0
LINE
  8
0
 10
138.353
 11
138.863
 20
-43.838
 21
-44.791
  0
LINE
  8
0
 10
138.863
 11
139.277
 20
-44.791
 21
-45.79
  0
LINE
  8
0
 10
139.277
 11
139.59
 20
-45.79
 21
-46.824
  0
LINE
  8
0
 10
139.59
 11
139.801
 20
-46.824
 21
-47.884
  0
LINE
  8
0
 10
139.801
 11
139.907
 20
-47.884
 21
-48.96
  0
LINE
  8
0
 10
139.907
 11
139.907
 20
-48.96
 21
-50.04
  0
LINE
  8
0
 10
139.907
 11
139.801
 20
-50.04
 21
-51.116
  0
LINE
  8
0
 10
139.801
 11
139.59
 20
-51.116
 21
-52.176
  0
LINE
  8
0
 10
139.59
 11
139.277
 20
-52.176
 21
-53.21
  0
LINE
  8
0
 10
139.277
 11
138.863
 20
-53.21
 21
-54.209
  0
LINE
  8
0
 10
138.863
 11
138.353
 20
-54.209
 21
-55.162
  0
LINE
  8
0
 10
138.353
 11
137.753
 20
-55.162
 21
-56.061
  0
LINE
  8
0
 10
137.753
 11
137.067
 20
-56.061
 21
-56.896
  0
LINE
  8
0
 10
137.067
 11
136.303
 20
-56.896
 21
-57.66
  0
LINE
  8
0
 10
136.303
 11
135.468
 20
-57.66
 21
-58.346
  0
LINE
  8
0
 10
135.468
 11
134.569
 20
-58.346
 21
-58.946
  0
LINE
  8
0
 10
134.569
 11
133.616
 20
-58.946
 21
-59.456
  0
LINE
  8
0
 10
133.616
 11
132.617
 20
-59.456
 21
-59.869
  0
LINE
  8
0
 10
132.617
 11
131.583
 20
-59.869
 21
-60.183
  0
LINE
  8
0
 10
131.583
 11
130.523
 20
-60.183
 21
-60.394
  0
LINE
  8
0
 10
130.523
 11
129.447
 20
-60.394
 21
-60.5
  0
LINE
  8
0
 10
129.447
 11
128.367
 20
-60.5
 21
-60.5
  0
LINE
  8
0
 10
128.367
 11
127.291
 20
-60.5
 21
-60.394
  0
LINE
  8
0
 10
127.291
 11
126.231
 20
-60.394
 21
-60.183
  0
LINE
  8
0
 10
126.231
 11
125.197
 20
-60.183
 21
-59.869
  0
LINE
  8
0
 10
125.197
 11
124.198
 20
-59.869
 21
-59.456
  0
LINE
  8
0
 10
124.198
 11
123.245
 20
-59.456
 21
-58.946
  0
LINE
  8
0
 10
123.245
 11
122.346
 20
-58.946
 21
-58.346
  0
LINE
  8
0
 10
122.346
 11
121.511
 20
-58.346
 21
-57.66
  0
LINE
  8
0
 10
121.511
 11
120.747
 20
-57.66
 21
-56.896
  0
LINE
  8
0
 10
120.747
 11
120.061
 20
-56.896
 21
-56.061
  0
LINE
  8
0
 10
120.061
 11
119.461
 20
-56.061
 21
-55.162
  0
LINE
  8
0
 10
119.461
 11
118.951
 20
-55.162
 21
-54.209
  0
LINE
  8
0
 10
118.951
 11
118.538
 20
-54.209
 21
-53.21
  0
LINE
  8
0
 10
118.538
 11
118.224
 20
-53.21
 21
-52.176
  0
LINE
  8
0
 10
118.224
 11
118.013
 20
-52.176
 21
-51.116
  0
LINE
  8
0
 10
118.013
 11
117.907
 20
-51.116
 21
-50.04
  0
LINE
  8
0
 10
142.907
 11
142.907
 20
-65.074
 21
-64.926
  0
LINE
  8
0
 10
142.907
 11
142.921
 20
-64.926
 21
-64.78
  0
LINE
  8
0
 10
142.921
 11
142.95
 20
-64.78
 21
-64.635
  0
LINE
  8
0
 10
142.95
 11
142.993
 20
-64.635
 21
-64.494
  0
LINE
  8
0
 10
142.993
 11
143.049
 20
-64.494
 21
-64.358
  0
LINE
  8
0
 10
143.049
 11
143.119
 20
-64.358
 21
-64.228
  0
LINE
  8
0
 10
143.119
 11
143.201
 20
-64.228
 21
-64.105
  0
LINE
  8
0
 10
143.201
 11
143.294
 20
-64.105
 21
-63.991
  0
LINE
  8
0
 10
143.294
 11
143.398
 20
-63.991
 21
-63.887
  0
LINE
  8
0
 10
143.398
 11
143.512
 20
-63.887
 21
-63.794
  0
LINE
  8
0
 10
143.512
 11
143.635
 20
-63.794
 21
-63.712
  0
LINE
  8
0
 10
143.635
 11
143.765
 20
-63.712
 21
-63.642
  0
LINE
  8
0
 10
143.765
 11
143.901
 20
-63.642
 21
-63.586
  0
LINE
  8
0
 10
143.901
 11
144.042
 20
-63.586
 21
-63.543
  0
LINE
  8
0
 10
144.042
 11
144.187
 20
-63.543
 21
-63.514
  0
LINE
  8
0
 10
144.187
 11
144.333
 20
-63.514
 21
-63.5
  0
LINE
  8
0
 10
144.333
 11
144.481
 20
-63.5
 21
-63.5
  0
LINE
  8
0
 10
144.481
 11
144.627
 20
-63.5
 21
-63.514
  0
LINE
  8
0
 10
144.627
 11
144.772
 20
-63.514
 21
-63.543
  0
LINE
  8
0
 10
144.772
 11
144.913
 20
-63.543
 21
-63.586
  0
LINE
  8
0
 10
144.913
 11
145.049
 20
-63.586
 21
-63.642
  0
LINE
  8
0
 10
145.049
 11
145.179
 20
-63.642
 21
-63.712
  0
LINE
  8
0
 10
145.179
 11
145.302
 20
-63.712
 21
-63.794
  0
LINE
  8
0
 10
145.302
 11
145.416
 20
-63.794
 21
-63.887
  0
LINE
  8
0
 10
145.416
 11
145.52
 20
-63.887
 21
-63.991
  0
LINE
  8
0
 10
145.52
 11
145.613
 20
-63.991
 21
-64.105
  0
LINE
  8
0
 10
145.613
 11
145.695
 20
-64.105
 21
-64.228
  0
LINE
  8
0
 10
145.695
 11
145.765
 20
-64.228
 21
-64.358
  0
LINE
  8
0
 10
145.765
 11
145.821
 20
-64.358
 21
-64.494
  0
LINE
  8
0
 10
145.821
 11
145.864
 20
-64.494
 21
-64.635
  0
LINE
  8
0
 10
145.864
 11
145.893
 20
-64.635
 21
-64.78
  0
LINE
  8
0
 10
145.893
 11
145.907
 20
-64.78
 21
-64.926
  0
LINE
  8
0
 10
145.907
 11
145.907
 20
-64.926
 21
-65.074
  0
LINE
  8
0
 10
145.907
 11
145.893
 20
-65.074
 21
-65.22
  0
LINE
  8
0
 10
145.893
 11
145.864
 20
-65.22
 21
-65.365
  0
LINE
  8
0
 10
145.864
 11
145.821
 20
-65.365
 21
-65.506
  0
LINE
  8
0
 10
145.821
 11
145.765
 20
-65.506
 21
-65.642
  0
LINE
  8
0
 10
145.765
 11
145.695
 20
-65.642
 21
-65.772
  0
LINE
  8
0
 10
145.695
 11
145.613
 20
-65.772
 21
-65.895
  0
LINE
  8
0
 10
145.613
 11
145.52
 20
-65.895
 21
-66.009
  0
LINE
  8
0
 10
145.52
 11
145.416
 20
-66.009
 21
-66.113
  0
LINE
  8
0
 10
145.416
 11
145.302
 20
-66.113
 21
-66.206
  0
LINE
  8
0
 10
145.302
 11
145.179
 20
-66.206
 21
-66.288
  0
LINE
  8
0
 10
145.179
 11
145.049
 20
-66.288
 21
-66.358
  0
LINE
  8
0
 10
145.049
 11
144.913
 20
-66.358
 21
-66.414
  0
LINE
  8
0
 10
144.913
 11
144.772
 20
-66.414
 21
-66.457
  0
LINE
  8
0
 10
144.772
 11
144.627
 20
-66.457
 21
-66.486
  0
LINE
  8
0
 10
144.627
 11
144.481
 20
-66.486
 21
-66.5
  0
LINE
  8
0
 10
144.481
 11
144.333
 20
-66.5
 21
-66.5
  0
LINE
  8
0
 10
144.333
 11
144.187
 20
-66.5
 21
-66.486
  0
LINE
  8
0
 10
144.187
 11
144.042
 20
-66.486
 21
-66.457
  0
LINE
  8
0
 10
144.042
 11
143.901
 20
-66.457
 21
-66.414
  0
LINE
  8
0
 10
143.901
 11
143.765
 20
-66.414
 21
-66.358
  0
LINE
  8
0
 10
143.765
 11
143.635
 20
-66.358
 21
-66.288
  0
LINE
  8
0
 10
143.635
 11
143.512
 20
-66.288
 21
-66.206
  0
LINE
  8
0
 10
143.512
 11
143.398
 20
-66.206
 21
-66.113
  0
LINE
  8
0
 10
143.398
 11
143.294
 20
-66.113
 21
-66.009
  0
LINE
  8
0
 10
143.294
 11
143.201
 20
-66.009
 21
-65.895
  0
LINE
  8
0
 10
143.201
 11
143.119
 20
-65.895
 21
-65.772
  0
LINE
  8
0
 10
143.119
 11
143.049
 20
-65.772
 21
-65.642
  0
LINE
  8
0
 10
143.049
 11
142.993
 20
-65.642
 21
-65.506
  0
LINE
  8
0
 10
142.993
 11
142.95
 20
-65.506
 21
-65.365
  0
LINE
  8
0
 10
142.95
 11
142.921
 20
-65.365
 21
-65.22
  0
LINE
  8
0
 10
142.921
 11
142.907
 20
-65.22
 21
-65.074
  0
LINE
  8
0
 10
142.907
 11
142.907
 20
-34.074
 21
-33.926
  0
LINE
  8
0
 10
142.907
 11
142.921
 20
-33.926
 21
-33.78
  0
LINE
  8
0
 10
142.921
 11
142.95
 20
-33.78
 21
-33.635
  0
LINE
  8
0
 10
142.95
 11
142.993
 20
-33.635
 21
-33.494
  0
LINE
  8
0
 10
142.993
 11
143.049
 20
-33.494
 21
-33.358
  0
LINE
  8
0
 10
143.049
 11
143.119
 20
-33.358
 21
-33.228
  0
LINE
  8
0
 10
143.119
 11
143.201
 20
-33.228
 21
-33.105
  0
LINE
  8
0
 10
143.201
 11
143.294
 20
-33.105
 21
-32.991
  0
LINE
  8
0
 10
143.294
 11
143.398
 20
-32.991
 21
-32.887
  0
LINE
  8
0
 10
143.398
 11
143.512
 20
-32.887
 21
-32.794
  0
LINE
  8
0
 10
143.512
 11
143.635
 20
-32.794
 21
-32.712
  0
LINE
  8
0
 10
143.635
 11
143.765
 20
-32.712
 21
-32.642
  0
LINE
  8
0
 10
143.765
 11
143.901
 20
-32.642
 21
-32.586
  0
LINE
  8
0
 10
143.901
 11
144.042
 20
-32.586
 21
-32.543
  0
LINE
  8
0
 10
144.042
 11
144.187
 20
-32.543
 21
-32.514
  0
LINE
  8
0
 10
144.187
 11
144.333
 20
-32.514
 21
-32.5
  0
LINE
  8
0
 10
144.333
 11
144.481
 20
-32.5
 21
-32.5
  0
LINE
  8
0
 10
144.481
 11
144.627
 20
-32.5
 21
-32.514
  0
LINE
  8
0
 10
144.627
 11
144.772
 20
-32.514
 21
-32.543
  0
LINE
  8
0
 10
144.772
 11
144.913
 20
-32.543
 21
-32.586
  0
LINE
  8
0
 10
144.913
 11
145.049
 20
-32.586
 21
-32.642
  0
LINE
  8
0
 10
145.049
 11
145.179
 20
-32.642
 21
-32.712
  0
LINE
  8
0
 10
145.179
 11
145.302
 20
-32.712
 21
-32.794
  0
LINE
  8
0
 10
145.302
 11
145.416
 20
-32.794
 21
-32.887
  0
LINE
  8
0
 10
145.416
 11
145.52
 20
-32.887
 21
-32.991
  0
LINE
  8
0
 10
145.52
 11
145.613
 20
-32.991
 21
-33.105
  0
LINE
  8
0
 10
145.613
 11
145.695
 20
-33.105
 21
-33.228
  0
LINE
  8
0
 10
145.695
 11
145.765
 20
-33.228
 21
-33.358
  0
LINE
  8
0
 10
145.765
 11
145.821
 20
-33.358
 21
-33.494
  0
LINE
  8
0
 10
145.821
 11
145.864
 20
-33.494
 21
-33.635
  0
LINE
  8
0
 10
145.864
 11
145.893
 20
-33.635
 21
-33.78
  0
LINE
  8
0
 10
145.893
 11
145.907
 20
-33.78
 21
-33.926
  0
LINE
  8
0
 10
145.907
 11
145.907
 20
-33.926
 21
-34.074
  0
LINE
  8
0
 10
145.907
 11
145.893
 20
-34.074
 21
-34.22
  0
LINE
  8
0
 10
145.893
 11
145.864
 20
-34.22
 21
-34.365
  0
LINE
  8
0
 10
145.864
 11
145.821
 20
-34.365
 21
-34.506
  0
LINE
  8
0
 10
145.821
 11
145.765
 20
-34.506
 21
-34.642
  0
LINE
  8
0
 10
145.765
 11
145.695
 20
-34.642
 21
-34.772
  0
LINE
  8
0
 10
145.695
 11
145.613
 20
-34.772
 21
-34.895
  0
LINE
  8
0
 10
145.613
 11
145.52
 20
-34.895
 21
-35.009
  0
LINE
  8
0
 10
145.52
 11
145.416
 20
-35.009
 21
-35.113
  0
LINE
  8
0
 10
145.416
 11
145.302
 20
-35.113
 21
-35.206
  0
LINE
  8
0
 10
145.302
 11
145.179
 20
-35.206
 21
-35.288
  0
LINE
  8
0
 10
145.179
 11
145.049
 20
-35.288
 21
-35.358
  0
LINE
  8
0
 10
145.049
 11
144.913
 20
-35.358
 21
-35.414
  0
LINE
  8
0
 10
144.913
 11
144.772
 20
-35.414
 21
-35.457
  0
LINE
  8
0
 10
144.772
 11
144.627
 20
-35.457
 21
-35.486
  0
LINE
  8
0
 10
144.627
 11
144.481
 20
-35.486
 21
-35.5
  0
LINE
  8
0
 10
144.481
 11
144.333
 20
-35.5
 21
-35.5
  0
LINE
  8
0
 10
144.333
 11
144.187
 20
-35.5
 21
-35.486
  0
LINE
  8
0
 10
144.187
 11
144.042
 20
-35.486
 21
-35.457
  0
LINE
  8
0
 10
144.042
 11
143.901
 20
-35.457
 21
-35.414
  0
LINE
  8
0
 10
143.901
 11
143.765
 20
-35.414
 21
-35.358
  0
LINE
  8
0
 10
143.765
 11
143.635
 20
-35.358
 21
-35.288
  0
LINE
  8
0
 10
143.635
 11
143.512
 20
-35.288
 21
-35.206
  0
LINE
  8
0
 10
143.512
 11
143.398
 20
-35.206
 21
-35.113
  0
LINE
  8
0
 10
143.398
 11
143.294
 20
-35.113
 21
-35.009
  0
LINE
  8
0
 10
143.294
 11
143.201
 20
-35.009
 21
-34.895
  0
LINE
  8
0
 10
143.201
 11
143.119
 20
-34.895
 21
-34.772
  0
LINE
  8
0
 10
143.119
 11
143.049
 20
-34.772
 21
-34.642
  0
LINE
  8
0
 10
143.049
 11
142.993
 20
-34.642
 21
-34.506
  0
LINE
  8
0
 10
142.993
 11
142.95
 20
-34.506
 21
-34.365
  0
LINE
  8
0
 10
142.95
 11
142.921
 20
-34.365
 21
-34.22
  0
LINE
  8
0
 10
142.921
 11
142.907
 20
-34.22
 21
-34.074
  0
LINE
  8
0
 10
164.333
 11
164.333
 20
-270.925
 21
-264.875
  0
LINE
  8
0
 10
164.333
 11
173.333
 20
-264.875
 21
-264.875
  0
LINE
  8
0
 10
173.333
 11
173.333
 20
-264.875
 21
-270.925
  0
LINE
  8
0
 10
173.333
 11
164.333
 20
-270.925
 21
-270.925
  0
LINE
  8
0
 10
164.333
 11
164.333
 20
-28.025
 21
-21.975
  0
LINE
  8
0
 10
164.333
 11
173.333
 20
-21.975
 21
-21.975
  0
LINE
  8
0
 10
173.333
 11
173.333
 20
-21.975
 21
-28.025
  0
LINE
  8
0
 10
173.333
 11
164.333
 20
-28.025
 21
-28.025
  0
LINE
  8
0
 10
175.308
 11
175.308
 20
-268.48
 21
-267.32
  0
LINE
  8
0
 10
175.308
 11
176.128
 20
-267.32
 21
-266.5
  0
LINE
  8
0
 10
176.128
 11
177.288
 20
-266.5
 21
-266.5
  0
LINE
  8
0
 10
177.288
 11
178.108
 20
-266.5
 21
-267.32
  0
LINE
  8
0
 10
178.108
 11
178.108
 20
-267.32
 21
-268.48
  0
LINE
  8
0
 10
178.108
 11
177.288
 20
-268.48
 21
-269.3
  0
LINE
  8
0
 10
177.288
 11
176.128
 20
-269.3
 21
-269.3
  0
LINE
  8
0
 10
176.128
 11
175.308
 20
-269.3
 21
-268.48
  0
LINE
  8
0
 10
175.308
 11
175.308
 20
-25.58
 21
-24.42
  0
LINE
  8
0
 10
175.308
 11
176.128
 20
-24.42
 21
-23.6
  0
LINE
  8
0
 10
176.128
 11
177.288
 20
-23.6
 21
-23.6
  0
LINE
  8
0
 10
177.288
 11
178.108
 20
-23.6
 21
-24.42
  0
LINE
  8
0
 10
178.108
 11
178.108
 20
-24.42
 21
-25.58
  0
LINE
  8
0
 10
178.108
 11
177.288
 20
-25.58
 21
-26.4
  0
LINE
  8
0
 10
177.288
 11
176.128
 20
-26.4
 21
-26.4
  0
LINE
  8
0
 10
176.128
 11
175.308
 20
-26.4
 21
-25.58
  0
LINE
  8
0
 10
178.96
 11
178.96
 20
217.306
 21
217.694
  0
LINE
  8
0
 10
178.96
 11
178.998
 20
217.694
 21
218.079
  0
LINE
  8
0
 10
178.998
 11
179.073
 20
218.079
 21
218.458
  0
LINE
  8
0
 10
179.073
 11
179.186
 20
218.458
 21
218.829
  0
LINE
  8
0
 10
179.186
 11
179.334
 20
218.829
 21
219.187
  0
LINE
  8
0
 10
179.334
 11
179.516
 20
219.187
 21
219.528
  0
LINE
  8
0
 10
179.516
 11
179.732
 20
219.528
 21
219.85
  0
LINE
  8
0
 10
179.732
 11
179.977
 20
219.85
 21
220.149
  0
LINE
  8
0
 10
179.977
 11
180.251
 20
220.149
 21
220.423
  0
LINE
  8
0
 10
180.251
 11
180.55
 20
220.423
 21
220.668
  0
LINE
  8
0
 10
180.55
 11
180.872
 20
220.668
 21
220.884
  0
LINE
  8
0
 10
180.872
 11
181.213
 20
220.884
 21
221.066
  0
LINE
  8
0
 10
181.213
 11
181.571
 20
221.066
 21
221.214
  0
LINE
  8
0
 10
181.571
 11
181.942
 20
221.214
 21
221.327
  0
LINE
  8
0
 10
181.942
 11
182.321
 20
221.327
 21
221.402
  0
LINE
  8
0
 10
182.321
 11
182.706
 20
221.402
 21
221.44
  0
LINE
  8
0
 10
182.706
 11
183.094
 20
221.44
 21
221.44
  0
LINE
  8
0
 10
183.094
 11
183.479
 20
221.44
 21
221.402
  0
LINE
  8
0
 10
183.479
 11
183.858
 20
221.402
 21
221.327
  0
LINE
  8
0
 10
183.858
 11
184.229
 20
221.327
 21
221.214
  0
LINE
  8
0
 10
184.229
 11
184.587
 20
221.214
 21
221.066
  0
LINE
  8
0
 10
184.587
 11
184.928
 20
221.066
 21
220.884
  0
LINE
  8
0
 10
184.928
 11
185.25
 20
220.884
 21
220.668
  0
LINE
  8
0
 10
185.25
 11
185.549
 20
220.668
 21
220.423
  0
LINE
  8
0
 10
185.549
 11
185.823
 20
220.423
 21
220.149
  0
LINE
  8
0
 10
185.823
 11
186.068
 20
220.149
 21
219.85
  0
LINE
  8
0
 10
186.068
 11
186.284
 20
219.85
 21
219.528
  0
LINE
  8
0
 10
186.284
 11
186.466
 20
219.528
 21
219.187
  0
LINE
  8
0
 10
186.466
 11
186.614
 20
219.187
 21
218.829
  0
LINE
  8
0
 10
186.614
 11
186.727
 20
218.829
 21
218.458
  0
LINE
  8
0
 10
186.727
 11
186.802
 20
218.458
 21
218.079
  0
LINE
  8
0
 10
186.802
 11
186.84
 20
218.079
 21
217.694
  0
LINE
  8
0
 10
186.84
 11
186.84
 20
217.694
 21
217.306
  0
LINE
  8
0
 10
186.84
 11
186.802
 20
217.306
 21
216.921
  0
LINE
  8
0
 10
186.802
 11
186.727
 20
216.921
 21
216.542
  0
LINE
  8
0
 10
186.727
 11
186.614
 20
216.542
 21
216.171
  0
LINE
  8
0
 10
186.614
 11
186.466
 20
216.171
 21
215.813
  0
LINE
  8
0
 10
186.466
 11
186.284
 20
215.813
 21
215.472
  0
LINE
  8
0
 10
186.284
 11
186.068
 20
215.472
 21
215.15
  0
LINE
  8
0
 10
186.068
 11
185.823
 20
215.15
 21
214.851
  0
LINE
  8
0
 10
185.823
 11
185.549
 20
214.851
 21
214.577
  0
LINE
  8
0
 10
185.549
 11
185.25
 20
214.577
 21
214.332
  0
LINE
  8
0
 10
185.25
 11
184.928
 20
214.332
 21
214.116
  0
LINE
  8
0
 10
184.928
 11
184.587
 20
214.116
 21
213.934
  0
LINE
  8
0
 10
184.587
 11
184.229
 20
213.934
 21
213.786
  0
LINE
  8
0
 10
184.229
 11
183.858
 20
213.786
 21
213.673
  0
LINE
  8
0
 10
183.858
 11
183.479
 20
213.673
 21
213.598
  0
LINE
  8
0
 10
183.479
 11
183.094
 20
213.598
 21
213.56
  0
LINE
  8
0
 10
183.094
 11
182.706
 20
213.56
 21
213.56
  0
LINE
  8
0
 10
182.706
 11
182.321
 20
213.56
 21
213.598
  0
LINE
  8
0
 10
182.321
 11
181.942
 20
213.598
 21
213.673
  0
LINE
  8
0
 10
181.942
 11
181.571
 20
213.673
 21
213.786
  0
LINE
  8
0
 10
181.571
 11
181.213
 20
213.786
 21
213.934
  0
LINE
  8
0
 10
181.213
 11
180.872
 20
213.934
 21
214.116
  0
LINE
  8
0
 10
180.872
 11
180.55
 20
214.116
 21
214.332
  0
LINE
  8
0
 10
180.55
 11
180.251
 20
214.332
 21
214.577
  0
LINE
  8
0
 10
180.251
 11
179.977
 20
214.577
 21
214.851
  0
LINE
  8
0
 10
179.977
 11
179.732
 20
214.851
 21
215.15
  0
LINE
  8
0
 10
179.732
 11
179.516
 20
215.15
 21
215.472
  0
LINE
  8
0
 10
179.516
 11
179.334
 20
215.472
 21
215.813
  0
LINE
  8
0
 10
179.334
 11
179.186
 20
215.813
 21
216.171
  0
LINE
  8
0
 10
179.186
 11
179.073
 20
216.171
 21
216.542
  0
LINE
  8
0
 10
179.073
 11
178.998
 20
216.542
 21
216.921
  0
LINE
  8
0
 10
178.998
 11
178.96
 20
216.921
 21
217.306
  0
LINE
  8
0
 10
180.083
 11
180.083
 20
-270.925
 21
-264.875
  0
LINE
  8
0
 10
180.083
 11
189.083
 20
-264.875
 21
-264.875
  0
LINE
  8
0
 10
189.083
 11
189.083
 20
-264.875
 21
-270.925
  0
LINE
  8
0
 10
189.083
 11
180.083
 20
-270.925
 21
-270.925
  0
LINE
  8
0
 10
180.083
 11
180.083
 20
-28.025
 21
-21.975
  0
LINE
  8
0
 10
180.083
 11
189.083
 20
-21.975
 21
-21.975
  0
LINE
  8
0
 10
189.083
 11
189.083
 20
-21.975
 21
-28.025
  0
LINE
  8
0
 10
189.083
 11
180.083
 20
-28.025
 21
-28.025
  0
LINE
  8
0
 10
238.75
 11
238.75
 20
-270.925
 21
-264.875
  0
LINE
  8
0
 10
238.75
 11
247.75
 20
-264.875
 21
-264.875
  0
LINE
  8
0
 10
247.75
 11
247.75
 20
-264.875
 21
-270.925
  0
LINE
  8
0
 10
247.75
 11
238.75
 20
-270.925
 21
-270.925
  0
LINE
  8
0
 10
238.75
 11
238.75
 20
-28.025
 21
-21.975
  0
LINE
  8
0
 10
238.75
 11
247.75
 20
-21.975
 21
-21.975
  0
LINE
  8
0
 10
247.75
 11
247.75
 20
-21.975
 21
-28.025
  0
LINE
  8
0
 10
247.75
 11
238.75
 20
-28.025
 21
-28.025
  0
LINE
  8
0
 10
249.3
 11
249.3
 20
-300.174
 21
-296.026
  0
LINE
  8
0
 10
249.3
 11
249.314
 20
-296.026
 21
-295.88
  0
LINE
  8
0
 10
249.314
 11
249.343
 20
-295.88
 21
-295.735
  0
LINE
  8
0
 10
249.343
 11
249.386
 20
-295.735
 21
-295.594
  0
LINE
  8
0
 10
249.386
 11
249.442
 20
-295.594
 21
-295.458
  0
LINE
  8
0
 10
249.442
 11
249.512
 20
-295.458
 21
-295.328
  0
LINE
  8
0
 10
249.512
 11
249.594
 20
-295.328
 21
-295.205
  0
LINE
  8
0
 10
249.594
 11
249.687
 20
-295.205
 21
-295.091
  0
LINE
  8
0
 10
249.687
 11
249.791
 20
-295.091
 21
-294.987
  0
LINE
  8
0
 10
249.791
 11
249.905
 20
-294.987
 21
-294.894
  0
LINE
  8
0
 10
249.905
 11
250.028
 20
-294.894
 21
-294.812
  0
LINE
  8
0
 10
250.028
 11
250.158
 20
-294.812
 21
-294.742
  0
LINE
  8
0
 10
250.158
 11
250.294
 20
-294.742
 21
-294.686
  0
LINE
  8
0
 10
250.294
 11
250.435
 20
-294.686
 21
-294.643
  0
LINE
  8
0
 10
250.435
 11
250.58
 20
-294.643
 21
-294.614
  0
LINE
  8
0
 10
250.58
 11
250.726
 20
-294.614
 21
-294.6
  0
LINE
  8
0
 10
250.726
 11
250.874
 20
-294.6
 21
-294.6
  0
LINE
  8
0
 10
250.874
 11
251.02
 20
-294.6
 21
-294.614
  0
LINE
  8
0
 10
251.02
 11
251.165
 20
-294.614
 21
-294.643
  0
LINE
  8
0
 10
251.165
 11
251.306
 20
-294.643
 21
-294.686
  0
LINE
  8
0
 10
251.306
 11
251.442
 20
-294.686
 21
-294.742
  0
LINE
  8
0
 10
251.442
 11
251.572
 20
-294.742
 21
-294.812
  0
LINE
  8
0
 10
251.572
 11
251.695
 20
-294.812
 21
-294.894
  0
LINE
  8
0
 10
251.695
 11
251.809
 20
-294.894
 21
-294.987
  0
LINE
  8
0
 10
251.809
 11
251.913
 20
-294.987
 21
-295.091
  0
LINE
  8
0
 10
251.913
 11
252.006
 20
-295.091
 21
-295.205
  0
LINE
  8
0
 10
252.006
 11
252.088
 20
-295.205
 21
-295.328
  0
LINE
  8
0
 10
252.088
 11
252.158
 20
-295.328
 21
-295.458
  0
LINE
  8
0
 10
252.158
 11
252.214
 20
-295.458
 21
-295.594
  0
LINE
  8
0
 10
252.214
 11
252.257
 20
-295.594
 21
-295.735
  0
LINE
  8
0
 10
252.257
 11
252.286
 20
-295.735
 21
-295.88
  0
LINE
  8
0
 10
252.286
 11
252.3
 20
-295.88
 21
-296.026
  0
LINE
  8
0
 10
252.3
 11
252.3
 20
-296.026
 21
-300.174
  0
LINE
  8
0
 10
252.3
 11
252.286
 20
-300.174
 21
-300.32
  0
LINE
  8
0
 10
252.286
 11
252.257
 20
-300.32
 21
-300.465
  0
LINE
  8
0
 10
252.257
 11
252.214
 20
-300.465
 21
-300.606
  0
LINE
  8
0
 10
252.214
 11
252.158
 20
-300.606
 21
-300.742
  0
LINE
  8
0
 10
252.158
 11
252.088
 20
-300.742
 21
-300.872
  0
LINE
  8
0
 10
252.088
 11
252.006
 20
-300.872
 21
-300.995
  0
LINE
  8
0
 10
252.006
 11
251.913
 20
-300.995
 21
-301.109
  0
LINE
  8
0
 10
251.913
 11
251.809
 20
-301.109
 21
-301.213
  0
LINE
  8
0
 10
251.809
 11
251.695
 20
-301.213
 21
-301.306
  0
LINE
  8
0
 10
251.695
 11
251.572
 20
-301.306
 21
-301.388
  0
LINE
  8
0
 10
251.572
 11
251.442
 20
-301.388
 21
-301.458
  0
LINE
  8
0
 10
251.442
 11
251.306
 20
-301.458
 21
-301.514
  0
LINE
  8
0
 10
251.306
 11
251.165
 20
-301.514
 21
-301.557
  0
LINE
  8
0
 10
251.165
 11
251.02
 20
-301.557
 21
-301.586
  0
LINE
  8
0
 10
251.02
 11
250.874
 20
-301.586
 21
-301.6
  0
LINE
  8
0
 10
250.874
 11
250.726
 20
-301.6
 21
-301.6
  0
LINE
  8
0
 10
250.726
 11
250.58
 20
-301.6
 21
-301.586
  0
LINE
  8
0
 10
250.58
 11
250.435
 20
-301.586
 21
-301.557
  0
LINE
  8
0
 10
250.435
 11
250.294
 20
-301.557
 21
-301.514
  0
LINE
  8
0
 10
250.294
 11
250.158
 20
-301.514
 21
-301.458
  0
LINE
  8
0
 10
250.158
 11
250.028
 20
-301.458
 21
-301.388
  0
LINE
  8
0
 10
250.028
 11
249.905
 20
-301.388
 21
-301.306
  0
LINE
  8
0
 10
249.905
 11
249.791
 20
-301.306
 21
-301.213
  0
LINE
  8
0
 10
249.791
 11
249.687
 20
-301.213
 21
-301.109
  0
LINE
  8
0
 10
249.687
 11
249.594
 20
-301.109
 21
-300.995
  0
LINE
  8
0
 10
249.594
 11
249.512
 20
-300.995
 21
-300.872
  0
LINE
  8
0
 10
249.512
 11
249.442
 20
-300.872
 21
-300.742
  0
LINE
  8
0
 10
249.442
 11
249.386
 20
-300.742
 21
-300.606
  0
LINE
  8
0
 10
249.386
 11
249.343
 20
-300.606
 21
-300.465
  0
LINE
  8
0
 10
249.343
 11
249.314
 20
-300.465
 21
-300.32
  0
LINE
  8
0
 10
249.314
 11
249.3
 20
-300.32
 21
-300.174
  0
LINE
  8
0
 10
249.725
 11
249.725
 20
-268.48
 21
-267.32
  0
LINE
  8
0
 10
249.725
 11
250.545
 20
-267.32
 21
-266.5
  0
LINE
  8
0
 10
250.545
 11
251.705
 20
-266.5
 21
-266.5
  0
LINE
  8
0
 10
251.705
 11
252.525
 20
-266.5
 21
-267.32
  0
LINE
  8
0
 10
252.525
 11
252.525
 20
-267.32
 21
-268.48
  0
LINE
  8
0
 10
252.525
 11
251.705
 20
-268.48
 21
-269.3
  0
LINE
  8
0
 10
251.705
 11
250.545
 20
-269.3
 21
-269.3
  0
LINE
  8
0
 10
250.545
 11
249.725
 20
-269.3
 21
-268.48
  0
LINE
  8
0
 10
249.725
 11
249.725
 20
-25.58
 21
-24.42
  0
LINE
  8
0
 10
249.725
 11
250.545
 20
-24.42
 21
-23.6
  0
LINE
  8
0
 10
250.545
 11
251.705
 20
-23.6
 21
-23.6
  0
LINE
  8
0
 10
251.705
 11
252.525
 20
-23.6
 21
-24.42
  0
LINE
  8
0
 10
252.525
 11
252.525
 20
-24.42
 21
-25.58
  0
LINE
  8
0
 10
252.525
 11
251.705
 20
-25.58
 21
-26.4
  0
LINE
  8
0
 10
251.705
 11
250.545
 20
-26.4
 21
-26.4
  0
LINE
  8
0
 10
250.545
 11
249.725
 20
-26.4
 21
-25.58
  0
LINE
  8
0
 10
254.5
 11
254.5
 20
-270.925
 21
-264.875
  0
LINE
  8
0
 10
254.5
 11
263.5
 20
-264.875
 21
-264.875
  0
LINE
  8
0
 10
263.5
 11
263.5
 20
-264.875
 21
-270.925
  0
LINE
  8
0
 10
263.5
 11
254.5
 20
-270.925
 21
-270.925
  0
LINE
  8
0
 10
254.5
 11
254.5
 20
-28.025
 21
-21.975
  0
LINE
  8
0
 10
254.5
 11
263.5
 20
-21.975
 21
-21.975
  0
LINE
  8
0
 10
263.5
 11
263.5
 20
-21.975
 21
-28.025
  0
LINE
  8
0
 10
263.5
 11
254.5
 20
-28.025
 21
-28.025
  0
LINE
  8
0
 10
258.06
 11
258.06
 20
-294.594
 21
-294.206
  0
LINE
  8
0
 10
258.06
 11
258.098
 20
-294.206
 21
-293.821
  0
LINE
  8
0
 10
258.098
 11
258.173
 20
-293.821
 21
-293.442
  0
LINE
  8
0
 10
258.173
 11
258.286
 20
-293.442
 21
-293.071
  0
LINE
  8
0
 10
258.286
 11
258.434
 20
-293.071
 21
-292.713
  0
LINE
  8
0
 10
258.434
 11
258.616
 20
-292.713
 21
-292.372
  0
LINE
  8
0
 10
258.616
 11
258.832
 20
-292.372
 21
-292.05
  0
LINE
  8
0
 10
258.832
 11
259.077
 20
-292.05
 21
-291.751
  0
LINE
  8
0
 10
259.077
 11
259.351
 20
-291.751
 21
-291.477
  0
LINE
  8
0
 10
259.351
 11
259.65
 20
-291.477
 21
-291.232
  0
LINE
  8
0
 10
259.65
 11
259.972
 20
-291.232
 21
-291.016
  0
LINE
  8
0
 10
259.972
 11
260.313
 20
-291.016
 21
-290.834
  0
LINE
  8
0
 10
260.313
 11
260.671
 20
-290.834
 21
-290.686
  0
LINE
  8
0
 10
260.671
 11
261.042
 20
-290.686
 21
-290.573
  0
LINE
  8
0
 10
261.042
 11
261.421
 20
-290.573
 21
-290.498
  0
LINE
  8
0
 10
261.421
 11
261.806
 20
-290.498
 21
-290.46
  0
LINE
  8
0
 10
261.806
 11
262.194
 20
-290.46
 21
-290.46
  0
LINE
  8
0
 10
262.194
 11
262.579
 20
-290.46
 21
-290.498
  0
LINE
  8
0
 10
262.579
 11
262.958
 20
-290.498
 21
-290.573
  0
LINE
  8
0
 10
262.958
 11
263.329
 20
-290.573
 21
-290.686
  0
LINE
  8
0
 10
263.329
 11
263.687
 20
-290.686
 21
-290.834
  0
LINE
  8
0
 10
263.687
 11
264.028
 20
-290.834
 21
-291.016
  0
LINE
  8
0
 10
264.028
 11
264.35
 20
-291.016
 21
-291.232
  0
LINE
  8
0
 10
264.35
 11
264.649
 20
-291.232
 21
-291.477
  0
LINE
  8
0
 10
264.649
 11
264.923
 20
-291.477
 21
-291.751
  0
LINE
  8
0
 10
264.923
 11
265.168
 20
-291.751
 21
-292.05
  0
LINE
  8
0
 10
265.168
 11
265.384
 20
-292.05
 21
-292.372
  0
LINE
  8
0
 10
265.384
 11
265.566
 20
-292.372
 21
-292.713
  0
LINE
  8
0
 10
265.566
 11
265.714
 20
-292.713
 21
-293.071
  0
LINE
  8
0
 10
265.714
 11
265.827
 20
-293.071
 21
-293.442
  0
LINE
  8
0
 10
265.827
 11
265.902
 20
-293.442
 21
-293.821
  0
LINE
  8
0
 10
265.902
 11
265.94
 20
-293.821
 21
-294.206
  0
LINE
  8
0
 10
265.94
 11
265.94
 20
-294.206
 21
-294.594
  0
LINE
  8
0
 10
265.94
 11
265.902
 20
-294.594
 21
-294.979
  0
LINE
  8
0
 10
265.902
 11
265.827
 20
-294.979
 21
-295.358
  0
LINE
  8
0
 10
265.827
 11
265.714
 20
-295.358
 21
-295.729
  0
LINE
  8
0
 10
265.714
 11
265.566
 20
-295.729
 21
-296.087
  0
LINE
  8
0
 10
265.566
 11
265.384
 20
-296.087
 21
-296.428
  0
LINE
  8
0
 10
265.384
 11
265.168
 20
-296.428
 21
-296.75
  0
LINE
  8
0
 10
265.168
 11
264.923
 20
-296.75
 21
-297.049
  0
LINE
  8
0
 10
264.923
 11
264.649
 20
-297.049
 21
-297.323
  0
LINE
  8
0
 10
264.649
 11
264.35
 20
-297.323
 21
-297.568
  0
LINE
  8
0
 10
264.35
 11
264.028
 20
-297.568
 21
-297.784
  0
LINE
  8
0
 10
264.028
 11
263.687
 20
-297.784
 21
-297.966
  0
LINE
  8
0
 10
263.687
 11
263.329
 20
-297.966
 21
-298.114
  0
LINE
  8
0
 10
263.329
 11
262.958
 20
-298.114
 21
-298.227
  0
LINE
  8
0
 10
262.958
 11
262.579
 20
-298.227
 21
-298.302
  0
LINE
  8
0
 10
262.579
 11
262.194
 20
-298.302
 21
-298.34
  0
LINE
  8
0
 10
262.194
 11
261.806
 20
-298.34
 21
-298.34
  0
LINE
  8
0
 10
261.806
 11
261.421
 20
-298.34
 21
-298.302
  0
LINE
  8
0
 10
261.421
 11
261.042
 20
-298.302
 21
-298.227
  0
LINE
  8
0
 10
261.042
 11
260.671
 20
-298.227
 21
-298.114
  0
LINE
  8
0
 10
260.671
 11
260.313
 20
-298.114
 21
-297.966
  0
LINE
  8
0
 10
260.313
 11
259.972
 20
-297.966
 21
-297.784
  0
LINE
  8
0
 10
259.972
 11
259.65
 20
-297.784
 21
-297.568
  0
LINE
  8
0
 10
259.65
 11
259.351
 20
-297.568
 21
-297.323
  0
LINE
  8
0
 10
259.351
 11
259.077
 20
-297.323
 21
-297.049
  0
LINE
  8
0
 10
259.077
 11
258.832
 20
-297.049
 21
-296.75
  0
LINE
  8
0
 10
258.832
 11
258.616
 20
-296.75
 21
-296.428
  0
LINE
  8
0
 10
258.616
 11
258.434
 20
-296.428
 21
-296.087
  0
LINE
  8
0
 10
258.434
 11
258.286
 20
-296.087
 21
-295.729
  0
LINE
  8
0
 10
258.286
 11
258.173
 20
-295.729
 21
-295.358
  0
LINE
  8
0
 10
258.173
 11
258.098
 20
-295.358
 21
-294.979
  0
LINE
  8
0
 10
258.098
 11
258.06
 20
-294.979
 21
-294.594
  0
LINE
  8
0
 10
272.275
 11
272.275
 20
255.5
 21
264.5
  0
LINE
  8
0
 10
272.275
 11
278.325
 20
264.5
 21
264.5
  0
LINE
  8
0
 10
278.325
 11
278.325
 20
264.5
 21
255.5
  0
LINE
  8
0
 10
278.325
 11
272.275
 20
255.5
 21
255.5
  0
LINE
  8
0
 10
272.275
 11
272.275
 20
271.25
 21
280.25
  0
LINE
  8
0
 10
272.275
 11
278.325
 20
280.25
 21
280.25
  0
LINE
  8
0
 10
278.325
 11
278.325
 20
280.25
 21
271.25
  0
LINE
  8
0
 10
278.325
 11
272.275
 20
271.25
 21
271.25
  0
LINE
  8
0
 10
272.275
 11
272.275
 20
338.625
 21
347.625
  0
LINE
  8
0
 10
272.275
 11
278.325
 20
347.625
 21
347.625
  0
LINE
  8
0
 10
278.325
 11
278.325
 20
347.625
 21
338.625
  0
LINE
  8
0
 10
278.325
 11
272.275
 20
338.625
 21
338.625
  0
LINE
  8
0
 10
272.275
 11
272.275
 20
354.375
 21
363.375
  0
LINE
  8
0
 10
272.275
 11
278.325
 20
363.375
 21
363.375
  0
LINE
  8
0
 10
278.325
 11
278.325
 20
363.375
 21
354.375
  0
LINE
  8
0
 10
278.325
 11
272.275
 20
354.375
 21
354.375
  0
LINE
  8
0
 10
272.275
 11
272.275
 20
421.75
 21
430.75
  0
LINE
  8
0
 10
272.275
 11
278.325
 20
430.75
 21
430.75
  0
LINE
  8
0
 10
278.325
 11
278.325
 20
430.75
 21
421.75
  0
LINE
  8
0
 10
278.325
 11
272.275
 20
421.75
 21
421.75
  0
LINE
  8
0
 10
272.275
 11
272.275
 20
437.5
 21
446.5
  0
LINE
  8
0
 10
272.275
 11
278.325
 20
446.5
 21
446.5
  0
LINE
  8
0
 10
278.325
 11
278.325
 20
446.5
 21
437.5
  0
LINE
  8
0
 10
278.325
 11
272.275
 20
437.5
 21
437.5
  0
LINE
  8
0
 10
273.475
 11
273.475
 20
-296.9
 21
-287.9
  0
LINE
  8
0
 10
273.475
 11
279.525
 20
-287.9
 21
-287.9
  0
LINE
  8
0
 10
279.525
 11
279.525
 20
-287.9
 21
-296.9
  0
LINE
  8
0
 10
279.525
 11
273.475
 20
-296.9
 21
-296.9
  0
LINE
  8
0
 10
273.475
 11
273.475
 20
-281.15
 21
-272.15
  0
LINE
  8
0
 10
273.475
 11
279.525
 20
-272.15
 21
-272.15
  0
LINE
  8
0
 10
279.525
 11
279.525
 20
-272.15
 21
-281.15
  0
LINE
  8
0
 10
279.525
 11
273.475
 20
-281.15
 21
-281.15
  0
LINE
  8
0
 10
273.475
 11
273.475
 20
-218.85
 21
-209.85
  0
LINE
  8
0
 10
273.475
 11
279.525
 20
-209.85
 21
-209.85
  0
LINE
  8
0
 10
279.525
 11
279.525
 20
-209.85
 21
-218.85
  0
LINE
  8
0
 10
279.525
 11
273.475
 20
-218.85
 21
-218.85
  0
LINE
  8
0
 10
273.475
 11
273.475
 20
-203.1
 21
-194.1
  0
LINE
  8
0
 10
273.475
 11
279.525
 20
-194.1
 21
-194.1
  0
LINE
  8
0
 10
279.525
 11
279.525
 20
-194.1
 21
-203.1
  0
LINE
  8
0
 10
279.525
 11
273.475
 20
-203.1
 21
-203.1
  0
LINE
  8
0
 10
273.475
 11
273.475
 20
-140.8
 21
-131.8
  0
LINE
  8
0
 10
273.475
 11
279.525
 20
-131.8
 21
-131.8
  0
LINE
  8
0
 10
279.525
 11
279.525
 20
-131.8
 21
-140.8
  0
LINE
  8
0
 10
279.525
 11
273.475
 20
-140.8
 21
-140.8
  0
LINE
  8
0
 10
273.475
 11
273.475
 20
-125.05
 21
-116.05
  0
LINE
  8
0
 10
273.475
 11
279.525
 20
-116.05
 21
-116.05
  0
LINE
  8
0
 10
279.525
 11
279.525
 20
-116.05
 21
-125.05
  0
LINE
  8
0
 10
279.525
 11
273.475
 20
-125.05
 21
-125.05
  0
LINE
  8
0
 10
273.475
 11
273.475
 20
-62.75
 21
-53.75
  0
LINE
  8
0
 10
273.475
 11
279.525
 20
-53.75
 21
-53.75
  0
LINE
  8
0
 10
279.525
 11
279.525
 20
-53.75
 21
-62.75
  0
LINE
  8
0
 10
279.525
 11
273.475
 20
-62.75
 21
-62.75
  0
LINE
  8
0
 10
273.475
 11
273.475
 20
-47
 21
-38
  0
LINE
  8
0
 10
273.475
 11
279.525
 20
-38
 21
-38
  0
LINE
  8
0
 10
279.525
 11
279.525
 20
-38
 21
-47
  0
LINE
  8
0
 10
279.525
 11
273.475
 20
-47
 21
-47
  0
LINE
  8
0
 10
273.9
 11
273.9
 20
267.295
 21
268.455
  0
LINE
  8
0
 10
273.9
 11
274.72
 20
268.455
 21
269.275
  0
LINE
  8
0
 10
274.72
 11
275.88
 20
269.275
 21
269.275
  0
LINE
  8
0
 10
275.88
 11
276.7
 20
269.275
 21
268.455
  0
LINE
  8
0
 10
276.7
 11
276.7
 20
268.455
 21
267.295
  0
LINE
  8
0
 10
276.7
 11
275.88
 20
267.295
 21
266.475
  0
LINE
  8
0
 10
275.88
 11
274.72
 20
266.475
 21
266.475
  0
LINE
  8
0
 10
274.72
 11
273.9
 20
266.475
 21
267.295
  0
LINE
  8
0
 10
273.9
 11
273.9
 20
350.42
 21
351.58
  0
LINE
  8
0
 10
273.9
 11
274.72
 20
351.58
 21
352.4
  0
LINE
  8
0
 10
274.72
 11
275.88
 20
352.4
 21
352.4
  0
LINE
  8
0
 10
275.88
 11
276.7
 20
352.4
 21
351.58
  0
LINE
  8
0
 10
276.7
 11
276.7
 20
351.58
 21
350.42
  0
LINE
  8
0
 10
276.7
 11
275.88
 20
350.42
 21
349.6
  0
LINE
  8
0
 10
275.88
 11
274.72
 20
349.6
 21
349.6
  0
LINE
  8
0
 10
274.72
 11
273.9
 20
349.6
 21
350.42
  0
LINE
  8
0
 10
273.9
 11
273.9
 20
433.545
 21
434.705
  0
LINE
  8
0
 10
273.9
 11
274.72
 20
434.705
 21
435.525
  0
LINE
  8
0
 10
274.72
 11
275.88
 20
435.525
 21
435.525
  0
LINE
  8
0
 10
275.88
 11
276.7
 20
435.525
 21
434.705
  0
LINE
  8
0
 10
276.7
 11
276.7
 20
434.705
 21
433.545
  0
LINE
  8
0
 10
276.7
 11
275.88
 20
433.545
 21
432.725
  0
LINE
  8
0
 10
275.88
 11
274.72
 20
432.725
 21
432.725
  0
LINE
  8
0
 10
274.72
 11
273.9
 20
432.725
 21
433.545
  0
LINE
  8
0
 10
275.1
 11
275.1
 20
-285.105
 21
-283.945
  0
LINE
  8
0
 10
275.1
 11
275.92
 20
-283.945
 21
-283.125
  0
LINE
  8
0
 10
275.92
 11
277.08
 20
-283.125
 21
-283.125
  0
LINE
  8
0
 10
277.08
 11
277.9
 20
-283.125
 21
-283.945
  0
LINE
  8
0
 10
277.9
 11
277.9
 20
-283.945
 21
-285.105
  0
LINE
  8
0
 10
277.9
 11
277.08
 20
-285.105
 21
-285.925
  0
LINE
  8
0
 10
277.08
 11
275.92
 20
-285.925
 21
-285.925
  0
LINE
  8
0
 10
275.92
 11
275.1
 20
-285.925
 21
-285.105
  0
LINE
  8
0
 10
275.1
 11
275.1
 20
-207.055
 21
-205.895
  0
LINE
  8
0
 10
275.1
 11
275.92
 20
-205.895
 21
-205.075
  0
LINE
  8
0
 10
275.92
 11
277.08
 20
-205.075
 21
-205.075
  0
LINE
  8
0
 10
277.08
 11
277.9
 20
-205.075
 21
-205.895
  0
LINE
  8
0
 10
277.9
 11
277.9
 20
-205.895
 21
-207.055
  0
LINE
  8
0
 10
277.9
 11
277.08
 20
-207.055
 21
-207.875
  0
LINE
  8
0
 10
277.08
 11
275.92
 20
-207.875
 21
-207.875
  0
LINE
  8
0
 10
275.92
 11
275.1
 20
-207.875
 21
-207.055
  0
LINE
  8
0
 10
275.1
 11
275.1
 20
-129.005
 21
-127.845
  0
LINE
  8
0
 10
275.1
 11
275.92
 20
-127.845
 21
-127.025
  0
LINE
  8
0
 10
275.92
 11
277.08
 20
-127.025
 21
-127.025
  0
LINE
  8
0
 10
277.08
 11
277.9
 20
-127.025
 21
-127.845
  0
LINE
  8
0
 10
277.9
 11
277.9
 20
-127.845
 21
-129.005
  0
LINE
  8
0
 10
277.9
 11
277.08
 20
-129.005
 21
-129.825
  0
LINE
  8
0
 10
277.08
 11
275.92
 20
-129.825
 21
-129.825
  0
LINE
  8
0
 10
275.92
 11
275.1
 20
-129.825
 21
-129.005
  0
LINE
  8
0
 10
275.1
 11
275.1
 20
-50.955
 21
-49.795
  0
LINE
  8
0
 10
275.1
 11
275.92
 20
-49.795
 21
-48.975
  0
LINE
  8
0
 10
275.92
 11
277.08
 20
-48.975
 21
-48.975
  0
LINE
  8
0
 10
277.08
 11
277.9
 20
-48.975
 21
-49.795
  0
LINE
  8
0
 10
277.9
 11
277.9
 20
-49.795
 21
-50.955
  0
LINE
  8
0
 10
277.9
 11
277.08
 20
-50.955
 21
-51.775
  0
LINE
  8
0
 10
277.08
 11
275.92
 20
-51.775
 21
-51.775
  0
LINE
  8
0
 10
275.92
 11
275.1
 20
-51.775
 21
-50.955
  0
ENDSEC
  0
SECTION
  2
OBJECTS
  0
DICTIONARY
  0
ENDSEC
  0
EOF
