  0
SECTION
  2
BLOCKS
  0
ENDSEC
  0
SECTION
  2
ENTITIES
  0
LINE
  8
0
 10
-154.5
 11
-154.5
 20
-126.621
 21
-125.379
  0
LINE
  8
0
 10
-154.5
 11
-153.621
 20
-125.379
 21
-124.5
  0
LINE
  8
0
 10
-153.621
 11
-152.379
 20
-124.5
 21
-124.5
  0
LINE
  8
0
 10
-152.379
 11
-151.5
 20
-124.5
 21
-125.379
  0
LINE
  8
0
 10
-151.5
 11
-151.5
 20
-125.379
 21
-126.621
  0
LINE
  8
0
 10
-151.5
 11
-152.379
 20
-126.621
 21
-127.5
  0
LINE
  8
0
 10
-152.379
 11
-153.621
 20
-127.5
 21
-127.5
  0
LINE
  8
0
 10
-153.621
 11
-154.5
 20
-127.5
 21
-126.621
  0
LINE
  8
0
 10
-154.5
 11
-154.5
 20
125.379
 21
126.621
  0
LINE
  8
0
 10
-154.5
 11
-153.621
 20
126.621
 21
127.5
  0
LINE
  8
0
 10
-153.621
 11
-152.379
 20
127.5
 21
127.5
  0
LINE
  8
0
 10
-152.379
 11
-151.5
 20
127.5
 21
126.621
  0
LINE
  8
0
 10
-151.5
 11
-151.5
 20
126.621
 21
125.379
  0
LINE
  8
0
 10
-151.5
 11
-152.379
 20
125.379
 21
124.5
  0
LINE
  8
0
 10
-152.379
 11
-153.621
 20
124.5
 21
124.5
  0
LINE
  8
0
 10
-153.621
 11
-154.5
 20
124.5
 21
125.379
  0
LINE
  8
0
 10
-158
 11
-158
 20
-158.25
 21
179.75
  0
LINE
  8
0
 10
-158
 11
158
 20
179.75
 21
179.75
  0
LINE
  8
0
 10
158
 11
158
 20
179.75
 21
-158.25
  0
LINE
  8
0
 10
158
 11
-158
 20
-158.25
 21
-158.25
  0
LINE
  8
0
 10
-144.5
 11
-144.5
 20
-144.121
 21
-142.879
  0
LINE
  8
0
 10
-144.5
 11
-143.621
 20
-142.879
 21
-142
  0
LINE
  8
0
 10
-143.621
 11
-142.379
 20
-142
 21
-142
  0
LINE
  8
0
 10
-142.379
 11
-141.5
 20
-142
 21
-142.879
  0
LINE
  8
0
 10
-141.5
 11
-141.5
 20
-142.879
 21
-144.121
  0
LINE
  8
0
 10
-141.5
 11
-142.379
 20
-144.121
 21
-145
  0
LINE
  8
0
 10
-142.379
 11
-143.621
 20
-145
 21
-145
  0
LINE
  8
0
 10
-143.621
 11
-144.5
 20
-145
 21
-144.121
  0
LINE
  8
0
 10
-144.5
 11
-144.5
 20
145.379
 21
146.621
  0
LINE
  8
0
 10
-144.5
 11
-143.621
 20
146.621
 21
147.5
  0
LINE
  8
0
 10
-143.621
 11
-142.379
 20
147.5
 21
147.5
  0
LINE
  8
0
 10
-142.379
 11
-141.5
 20
147.5
 21
146.621
  0
LINE
  8
0
 10
-141.5
 11
-141.5
 20
146.621
 21
145.379
  0
LINE
  8
0
 10
-141.5
 11
-142.379
 20
145.379
 21
144.5
  0
LINE
  8
0
 10
-142.379
 11
-143.621
 20
144.5
 21
144.5
  0
LINE
  8
0
 10
-143.621
 11
-144.5
 20
144.5
 21
145.379
  0
LINE
  8
0
 10
-134.732
 11
-133.866
 20
142.5
 21
144
  0
LINE
  8
0
 10
-133.866
 11
-132.134
 20
144
 21
144
  0
LINE
  8
0
 10
-132.134
 11
-131.268
 20
144
 21
142.5
  0
LINE
  8
0
 10
-131.268
 11
-132.134
 20
142.5
 21
141
  0
LINE
  8
0
 10
-132.134
 11
-133.866
 20
141
 21
141
  0
LINE
  8
0
 10
-133.866
 11
-134.732
 20
141
 21
142.5
  0
LINE
  8
0
 10
-134.732
 11
-133.866
 20
173.5
 21
175
  0
LINE
  8
0
 10
-133.866
 11
-132.134
 20
175
 21
175
  0
LINE
  8
0
 10
-132.134
 11
-131.268
 20
175
 21
173.5
  0
LINE
  8
0
 10
-131.268
 11
-132.134
 20
173.5
 21
172
  0
LINE
  8
0
 10
-132.134
 11
-133.866
 20
172
 21
172
  0
LINE
  8
0
 10
-133.866
 11
-134.732
 20
172
 21
173.5
  0
LINE
  8
0
 10
-133
 11
-132.661
 20
158
 21
161.223
  0
LINE
  8
0
 10
-132.661
 11
-131.66
 20
161.223
 21
164.304
  0
LINE
  8
0
 10
-131.66
 11
-130.04
 20
164.304
 21
167.111
  0
LINE
  8
0
 10
-130.04
 11
-127.872
 20
167.111
 21
169.519
  0
LINE
  8
0
 10
-127.872
 11
-125.25
 20
169.519
 21
171.423
  0
LINE
  8
0
 10
-125.25
 11
-122.29
 20
171.423
 21
172.741
  0
LINE
  8
0
 10
-122.29
 11
-119.12
 20
172.741
 21
173.415
  0
LINE
  8
0
 10
-119.12
 11
-115.88
 20
173.415
 21
173.415
  0
LINE
  8
0
 10
-115.88
 11
-112.71
 20
173.415
 21
172.741
  0
LINE
  8
0
 10
-112.71
 11
-109.75
 20
172.741
 21
171.423
  0
LINE
  8
0
 10
-109.75
 11
-107.128
 20
171.423
 21
169.519
  0
LINE
  8
0
 10
-107.128
 11
-104.96
 20
169.519
 21
167.111
  0
LINE
  8
0
 10
-104.96
 11
-103.34
 20
167.111
 21
164.304
  0
LINE
  8
0
 10
-103.34
 11
-102.339
 20
164.304
 21
161.223
  0
LINE
  8
0
 10
-102.339
 11
-102
 20
161.223
 21
158
  0
LINE
  8
0
 10
-102
 11
-102.339
 20
158
 21
154.777
  0
LINE
  8
0
 10
-102.339
 11
-103.34
 20
154.777
 21
151.696
  0
LINE
  8
0
 10
-103.34
 11
-104.96
 20
151.696
 21
148.889
  0
LINE
  8
0
 10
-104.96
 11
-107.128
 20
148.889
 21
146.481
  0
LINE
  8
0
 10
-107.128
 11
-109.75
 20
146.481
 21
144.577
  0
LINE
  8
0
 10
-109.75
 11
-112.71
 20
144.577
 21
143.259
  0
LINE
  8
0
 10
-112.71
 11
-115.88
 20
143.259
 21
142.585
  0
LINE
  8
0
 10
-115.88
 11
-119.12
 20
142.585
 21
142.585
  0
LINE
  8
0
 10
-119.12
 11
-122.29
 20
142.585
 21
143.259
  0
LINE
  8
0
 10
-122.29
 11
-125.25
 20
143.259
 21
144.577
  0
LINE
  8
0
 10
-125.25
 11
-127.872
 20
144.577
 21
146.481
  0
LINE
  8
0
 10
-127.872
 11
-130.04
 20
146.481
 21
148.889
  0
LINE
  8
0
 10
-130.04
 11
-131.66
 20
148.889
 21
151.696
  0
LINE
  8
0
 10
-131.66
 11
-132.661
 20
151.696
 21
154.777
  0
LINE
  8
0
 10
-132.661
 11
-133
 20
154.777
 21
158
  0
LINE
  8
0
 10
-131.5
 11
-131.5
 20
-126.621
 21
-125.379
  0
LINE
  8
0
 10
-131.5
 11
-130.621
 20
-125.379
 21
-124.5
  0
LINE
  8
0
 10
-130.621
 11
-129.379
 20
-124.5
 21
-124.5
  0
LINE
  8
0
 10
-129.379
 11
-128.5
 20
-124.5
 21
-125.379
  0
LINE
  8
0
 10
-128.5
 11
-128.5
 20
-125.379
 21
-126.621
  0
LINE
  8
0
 10
-128.5
 11
-129.379
 20
-126.621
 21
-127.5
  0
LINE
  8
0
 10
-129.379
 11
-130.621
 20
-127.5
 21
-127.5
  0
LINE
  8
0
 10
-130.621
 11
-131.5
 20
-127.5
 21
-126.621
  0
LINE
  8
0
 10
-117
 11
-117
 20
125.379
 21
126.621
  0
LINE
  8
0
 10
-117
 11
-116.121
 20
126.621
 21
127.5
  0
LINE
  8
0
 10
-116.121
 11
-114.879
 20
127.5
 21
127.5
  0
LINE
  8
0
 10
-114.879
 11
-114
 20
127.5
 21
126.621
  0
LINE
  8
0
 10
-114
 11
-114
 20
126.621
 21
125.379
  0
LINE
  8
0
 10
-114
 11
-114.879
 20
125.379
 21
124.5
  0
LINE
  8
0
 10
-114.879
 11
-116.121
 20
124.5
 21
124.5
  0
LINE
  8
0
 10
-116.121
 11
-117
 20
124.5
 21
125.379
  0
LINE
  8
0
 10
-107
 11
-107
 20
-116.5
 21
116.5
  0
LINE
  8
0
 10
-107
 11
107
 20
116.5
 21
116.5
  0
LINE
  8
0
 10
107
 11
107
 20
116.5
 21
-116.5
  0
LINE
  8
0
 10
107
 11
-107
 20
-116.5
 21
-116.5
  0
LINE
  8
0
 10
-103.732
 11
-102.866
 20
142.5
 21
144
  0
LINE
  8
0
 10
-102.866
 11
-101.134
 20
144
 21
144
  0
LINE
  8
0
 10
-101.134
 11
-100.268
 20
144
 21
142.5
  0
LINE
  8
0
 10
-100.268
 11
-101.134
 20
142.5
 21
141
  0
LINE
  8
0
 10
-101.134
 11
-102.866
 20
141
 21
141
  0
LINE
  8
0
 10
-102.866
 11
-103.732
 20
141
 21
142.5
  0
LINE
  8
0
 10
-103.732
 11
-102.866
 20
173.5
 21
175
  0
LINE
  8
0
 10
-102.866
 11
-101.134
 20
175
 21
175
  0
LINE
  8
0
 10
-101.134
 11
-100.268
 20
175
 21
173.5
  0
LINE
  8
0
 10
-100.268
 11
-101.134
 20
173.5
 21
172
  0
LINE
  8
0
 10
-101.134
 11
-102.866
 20
172
 21
172
  0
LINE
  8
0
 10
-102.866
 11
-103.732
 20
172
 21
173.5
  0
LINE
  8
0
 10
100.268
 11
101.134
 20
142.5
 21
144
  0
LINE
  8
0
 10
101.134
 11
102.866
 20
144
 21
144
  0
LINE
  8
0
 10
102.866
 11
103.732
 20
144
 21
142.5
  0
LINE
  8
0
 10
103.732
 11
102.866
 20
142.5
 21
141
  0
LINE
  8
0
 10
102.866
 11
101.134
 20
141
 21
141
  0
LINE
  8
0
 10
101.134
 11
100.268
 20
141
 21
142.5
  0
LINE
  8
0
 10
100.268
 11
101.134
 20
173.5
 21
175
  0
LINE
  8
0
 10
101.134
 11
102.866
 20
175
 21
175
  0
LINE
  8
0
 10
102.866
 11
103.732
 20
175
 21
173.5
  0
LINE
  8
0
 10
103.732
 11
102.866
 20
173.5
 21
172
  0
LINE
  8
0
 10
102.866
 11
101.134
 20
172
 21
172
  0
LINE
  8
0
 10
101.134
 11
100.268
 20
172
 21
173.5
  0
LINE
  8
0
 10
102
 11
102.339
 20
158
 21
161.223
  0
LINE
  8
0
 10
102.339
 11
103.34
 20
161.223
 21
164.304
  0
LINE
  8
0
 10
103.34
 11
104.96
 20
164.304
 21
167.111
  0
LINE
  8
0
 10
104.96
 11
107.128
 20
167.111
 21
169.519
  0
LINE
  8
0
 10
107.128
 11
109.75
 20
169.519
 21
171.423
  0
LINE
  8
0
 10
109.75
 11
112.71
 20
171.423
 21
172.741
  0
LINE
  8
0
 10
112.71
 11
115.88
 20
172.741
 21
173.415
  0
LINE
  8
0
 10
115.88
 11
119.12
 20
173.415
 21
173.415
  0
LINE
  8
0
 10
119.12
 11
122.29
 20
173.415
 21
172.741
  0
LINE
  8
0
 10
122.29
 11
125.25
 20
172.741
 21
171.423
  0
LINE
  8
0
 10
125.25
 11
127.872
 20
171.423
 21
169.519
  0
LINE
  8
0
 10
127.872
 11
130.04
 20
169.519
 21
167.111
  0
LINE
  8
0
 10
130.04
 11
131.66
 20
167.111
 21
164.304
  0
LINE
  8
0
 10
131.66
 11
132.661
 20
164.304
 21
161.223
  0
LINE
  8
0
 10
132.661
 11
133
 20
161.223
 21
158
  0
LINE
  8
0
 10
133
 11
132.661
 20
158
 21
154.777
  0
LINE
  8
0
 10
132.661
 11
131.66
 20
154.777
 21
151.696
  0
LINE
  8
0
 10
131.66
 11
130.04
 20
151.696
 21
148.889
  0
LINE
  8
0
 10
130.04
 11
127.872
 20
148.889
 21
146.481
  0
LINE
  8
0
 10
127.872
 11
125.25
 20
146.481
 21
144.577
  0
LINE
  8
0
 10
125.25
 11
122.29
 20
144.577
 21
143.259
  0
LINE
  8
0
 10
122.29
 11
119.12
 20
143.259
 21
142.585
  0
LINE
  8
0
 10
119.12
 11
115.88
 20
142.585
 21
142.585
  0
LINE
  8
0
 10
115.88
 11
112.71
 20
142.585
 21
143.259
  0
LINE
  8
0
 10
112.71
 11
109.75
 20
143.259
 21
144.577
  0
LINE
  8
0
 10
109.75
 11
107.128
 20
144.577
 21
146.481
  0
LINE
  8
0
 10
107.128
 11
104.96
 20
146.481
 21
148.889
  0
LINE
  8
0
 10
104.96
 11
103.34
 20
148.889
 21
151.696
  0
LINE
  8
0
 10
103.34
 11
102.339
 20
151.696
 21
154.777
  0
LINE
  8
0
 10
102.339
 11
102
 20
154.777
 21
158
  0
LINE
  8
0
 10
114
 11
114
 20
125.379
 21
126.621
  0
LINE
  8
0
 10
114
 11
114.879
 20
126.621
 21
127.5
  0
LINE
  8
0
 10
114.879
 11
116.121
 20
127.5
 21
127.5
  0
LINE
  8
0
 10
116.121
 11
117
 20
127.5
 21
126.621
  0
LINE
  8
0
 10
117
 11
117
 20
126.621
 21
125.379
  0
LINE
  8
0
 10
117
 11
116.121
 20
125.379
 21
124.5
  0
LINE
  8
0
 10
116.121
 11
114.879
 20
124.5
 21
124.5
  0
LINE
  8
0
 10
114.879
 11
114
 20
124.5
 21
125.379
  0
LINE
  8
0
 10
128.5
 11
128.5
 20
-126.621
 21
-125.379
  0
LINE
  8
0
 10
128.5
 11
129.379
 20
-125.379
 21
-124.5
  0
LINE
  8
0
 10
129.379
 11
130.621
 20
-124.5
 21
-124.5
  0
LINE
  8
0
 10
130.621
 11
131.5
 20
-124.5
 21
-125.379
  0
LINE
  8
0
 10
131.5
 11
131.5
 20
-125.379
 21
-126.621
  0
LINE
  8
0
 10
131.5
 11
130.621
 20
-126.621
 21
-127.5
  0
LINE
  8
0
 10
130.621
 11
129.379
 20
-127.5
 21
-127.5
  0
LINE
  8
0
 10
129.379
 11
128.5
 20
-127.5
 21
-126.621
  0
LINE
  8
0
 10
131.268
 11
132.134
 20
142.5
 21
144
  0
LINE
  8
0
 10
132.134
 11
133.866
 20
144
 21
144
  0
LINE
  8
0
 10
133.866
 11
134.732
 20
144
 21
142.5
  0
LINE
  8
0
 10
134.732
 11
133.866
 20
142.5
 21
141
  0
LINE
  8
0
 10
133.866
 11
132.134
 20
141
 21
141
  0
LINE
  8
0
 10
132.134
 11
131.268
 20
141
 21
142.5
  0
LINE
  8
0
 10
131.268
 11
132.134
 20
173.5
 21
175
  0
LINE
  8
0
 10
132.134
 11
133.866
 20
175
 21
175
  0
LINE
  8
0
 10
133.866
 11
134.732
 20
175
 21
173.5
  0
LINE
  8
0
 10
134.732
 11
133.866
 20
173.5
 21
172
  0
LINE
  8
0
 10
133.866
 11
132.134
 20
172
 21
172
  0
LINE
  8
0
 10
132.134
 11
131.268
 20
172
 21
173.5
  0
LINE
  8
0
 10
141.5
 11
141.5
 20
-144.121
 21
-142.879
  0
LINE
  8
0
 10
141.5
 11
142.379
 20
-142.879
 21
-142
  0
LINE
  8
0
 10
142.379
 11
143.621
 20
-142
 21
-142
  0
LINE
  8
0
 10
143.621
 11
144.5
 20
-142
 21
-142.879
  0
LINE
  8
0
 10
144.5
 11
144.5
 20
-142.879
 21
-144.121
  0
LINE
  8
0
 10
144.5
 11
143.621
 20
-144.121
 21
-145
  0
LINE
  8
0
 10
143.621
 11
142.379
 20
-145
 21
-145
  0
LINE
  8
0
 10
142.379
 11
141.5
 20
-145
 21
-144.121
  0
LINE
  8
0
 10
141.5
 11
141.5
 20
145.379
 21
146.621
  0
LINE
  8
0
 10
141.5
 11
142.379
 20
146.621
 21
147.5
  0
LINE
  8
0
 10
142.379
 11
143.621
 20
147.5
 21
147.5
  0
LINE
  8
0
 10
143.621
 11
144.5
 20
147.5
 21
146.621
  0
LINE
  8
0
 10
144.5
 11
144.5
 20
146.621
 21
145.379
  0
LINE
  8
0
 10
144.5
 11
143.621
 20
145.379
 21
144.5
  0
LINE
  8
0
 10
143.621
 11
142.379
 20
144.5
 21
144.5
  0
LINE
  8
0
 10
142.379
 11
141.5
 20
144.5
 21
145.379
  0
LINE
  8
0
 10
151.5
 11
151.5
 20
-126.621
 21
-125.379
  0
LINE
  8
0
 10
151.5
 11
152.379
 20
-125.379
 21
-124.5
  0
LINE
  8
0
 10
152.379
 11
153.621
 20
-124.5
 21
-124.5
  0
LINE
  8
0
 10
153.621
 11
154.5
 20
-124.5
 21
-125.379
  0
LINE
  8
0
 10
154.5
 11
154.5
 20
-125.379
 21
-126.621
  0
LINE
  8
0
 10
154.5
 11
153.621
 20
-126.621
 21
-127.5
  0
LINE
  8
0
 10
153.621
 11
152.379
 20
-127.5
 21
-127.5
  0
LINE
  8
0
 10
152.379
 11
151.5
 20
-127.5
 21
-126.621
  0
LINE
  8
0
 10
151.5
 11
151.5
 20
125.379
 21
126.621
  0
LINE
  8
0
 10
151.5
 11
152.379
 20
126.621
 21
127.5
  0
LINE
  8
0
 10
152.379
 11
153.621
 20
127.5
 21
127.5
  0
LINE
  8
0
 10
153.621
 11
154.5
 20
127.5
 21
126.621
  0
LINE
  8
0
 10
154.5
 11
154.5
 20
126.621
 21
125.379
  0
LINE
  8
0
 10
154.5
 11
153.621
 20
125.379
 21
124.5
  0
LINE
  8
0
 10
153.621
 11
152.379
 20
124.5
 21
124.5
  0
LINE
  8
0
 10
152.379
 11
151.5
 20
124.5
 21
125.379
  0
ENDSEC
  0
SECTION
  2
OBJECTS
  0
DICTIONARY
  0
ENDSEC
  0
EOF
